G04*
G04 #@! TF.GenerationSoftware,Altium Limited,Altium Designer,22.11.1 (43)*
G04*
G04 Layer_Physical_Order=2*
G04 Layer_Color=36540*
%FSLAX44Y44*%
%MOMM*%
G71*
G04*
G04 #@! TF.SameCoordinates,F8BDC5C1-D14C-489C-B73B-B84716E4099B*
G04*
G04*
G04 #@! TF.FilePolarity,Positive*
G04*
G01*
G75*
%ADD13C,0.2540*%
%ADD14C,0.1524*%
%ADD112C,0.7620*%
%ADD115C,1.9500*%
%ADD116R,1.9500X1.9500*%
%ADD117C,1.2000*%
%ADD118R,1.2000X1.2000*%
%ADD119R,1.9500X1.9500*%
%ADD120C,3.5052*%
%ADD121R,1.9050X1.9050*%
%ADD122C,1.9050*%
%ADD124C,1.3980*%
%ADD125C,1.5300*%
%ADD126C,3.2500*%
%ADD127C,2.4450*%
%ADD128R,2.2500X2.2500*%
%ADD129C,2.2500*%
%ADD130C,1.6500*%
%ADD131R,1.6500X1.6500*%
%ADD132O,1.4500X2.0000*%
%ADD133O,1.1500X1.8000*%
%ADD134C,0.8000*%
%ADD135C,0.5000*%
G36*
X1253181Y1031240D02*
X1026160D01*
X1024181Y1029261D01*
X1022911Y1030531D01*
X1022071Y1031093D01*
X1021080Y1031290D01*
X898585D01*
X898266Y1031609D01*
Y1042344D01*
X898069Y1043335D01*
X897507Y1044175D01*
X892101Y1049581D01*
X891261Y1050143D01*
X890270Y1050340D01*
X826770Y1050340D01*
X825779Y1050143D01*
X824939Y1049581D01*
X810969Y1035611D01*
X810407Y1034771D01*
X810210Y1033780D01*
Y998023D01*
X784173Y971985D01*
X782476Y972005D01*
X782059Y972421D01*
X780580Y973034D01*
X778980D01*
X777501Y972421D01*
X776369Y971289D01*
X775756Y969810D01*
Y968210D01*
X776369Y966731D01*
X777501Y965599D01*
X777548Y965360D01*
X776167Y963980D01*
X739140D01*
X738149Y963783D01*
X737309Y963221D01*
X729689Y955601D01*
X729127Y954761D01*
X728930Y953770D01*
Y897890D01*
X729127Y896899D01*
X729689Y896059D01*
X737309Y888439D01*
X738149Y887877D01*
X739140Y887680D01*
X792677D01*
X796240Y884117D01*
Y835660D01*
X796437Y834669D01*
X796999Y833829D01*
X816049Y814779D01*
X816889Y814217D01*
X817880Y814020D01*
X1022350Y814020D01*
X1023341Y814217D01*
X1024181Y814779D01*
X1024743Y815619D01*
X1024940Y816610D01*
X1253181D01*
Y526089D01*
X259389D01*
Y1267151D01*
X1253181D01*
Y1031240D01*
D02*
G37*
G36*
X890270Y1047750D02*
X895676Y1042344D01*
Y1030536D01*
X897512Y1028700D01*
X1021080D01*
X1022350Y1027430D01*
Y819150D01*
Y816610D01*
X817880Y816610D01*
X798830Y835660D01*
Y885190D01*
X793750Y890270D01*
X739140D01*
X731520Y897890D01*
Y953770D01*
X739140Y961390D01*
X777240D01*
X781017Y965167D01*
X782059Y965599D01*
X783191Y966731D01*
X783623Y967773D01*
X812800Y996950D01*
Y1033780D01*
X826770Y1047750D01*
X890270Y1047750D01*
D02*
G37*
%LPC*%
G36*
X770420Y1262594D02*
X768820D01*
X767341Y1261981D01*
X766209Y1260849D01*
X765596Y1259370D01*
Y1257770D01*
X766209Y1256291D01*
X767341Y1255159D01*
X768820Y1254546D01*
X770420D01*
X771899Y1255159D01*
X773031Y1256291D01*
X773644Y1257770D01*
Y1259370D01*
X773031Y1260849D01*
X771899Y1261981D01*
X770420Y1262594D01*
D02*
G37*
G36*
X970088Y1262967D02*
Y1254336D01*
X975910D01*
Y1255046D01*
X975625Y1257210D01*
X974790Y1259227D01*
X973461Y1260958D01*
X971729Y1262287D01*
X970088Y1262967D01*
D02*
G37*
G36*
X892588Y1262967D02*
Y1254336D01*
X898410D01*
Y1255046D01*
X898125Y1257210D01*
X897290Y1259227D01*
X895961Y1260958D01*
X894229Y1262287D01*
X892588Y1262967D01*
D02*
G37*
G36*
X887508Y1262967D02*
X885868Y1262287D01*
X884136Y1260958D01*
X882807Y1259227D01*
X881972Y1257210D01*
X881687Y1255046D01*
Y1254336D01*
X887508D01*
Y1262967D01*
D02*
G37*
G36*
X965008Y1262967D02*
X963368Y1262287D01*
X961636Y1260958D01*
X960307Y1259227D01*
X959472Y1257210D01*
X959187Y1255046D01*
Y1254336D01*
X965008D01*
Y1262967D01*
D02*
G37*
G36*
X748830Y1261324D02*
X747230D01*
X745751Y1260711D01*
X744619Y1259579D01*
X744006Y1258100D01*
Y1256500D01*
X744619Y1255021D01*
X745751Y1253889D01*
X747230Y1253276D01*
X748830D01*
X750309Y1253889D01*
X751441Y1255021D01*
X752054Y1256500D01*
Y1258100D01*
X751441Y1259579D01*
X750309Y1260711D01*
X748830Y1261324D01*
D02*
G37*
G36*
X1075875Y1265809D02*
X1072965D01*
X1070155Y1265056D01*
X1067636Y1263601D01*
X1065579Y1261544D01*
X1064124Y1259025D01*
X1063371Y1256215D01*
Y1253305D01*
X1064124Y1250495D01*
X1065579Y1247976D01*
X1067636Y1245919D01*
X1070155Y1244464D01*
X1072965Y1243711D01*
X1075875D01*
X1078685Y1244464D01*
X1081204Y1245919D01*
X1083261Y1247976D01*
X1084716Y1250495D01*
X1085469Y1253305D01*
Y1256215D01*
X1084716Y1259025D01*
X1083261Y1261544D01*
X1081204Y1263601D01*
X1078685Y1265056D01*
X1075875Y1265809D01*
D02*
G37*
G36*
X1012375D02*
X1009465D01*
X1006655Y1265056D01*
X1004136Y1263601D01*
X1002079Y1261544D01*
X1000624Y1259025D01*
X999871Y1256215D01*
Y1253305D01*
X1000624Y1250495D01*
X1002079Y1247976D01*
X1004136Y1245919D01*
X1006655Y1244464D01*
X1009465Y1243711D01*
X1012375D01*
X1015185Y1244464D01*
X1017704Y1245919D01*
X1019761Y1247976D01*
X1021216Y1250495D01*
X1021969Y1253305D01*
Y1256215D01*
X1021216Y1259025D01*
X1019761Y1261544D01*
X1017704Y1263601D01*
X1015185Y1265056D01*
X1012375Y1265809D01*
D02*
G37*
G36*
X1178745Y1264539D02*
X1175835D01*
X1173025Y1263786D01*
X1170506Y1262331D01*
X1168449Y1260274D01*
X1166994Y1257755D01*
X1166241Y1254945D01*
Y1252035D01*
X1166994Y1249225D01*
X1168449Y1246706D01*
X1170506Y1244649D01*
X1173025Y1243194D01*
X1175835Y1242441D01*
X1178745D01*
X1181555Y1243194D01*
X1184074Y1244649D01*
X1186131Y1246706D01*
X1187586Y1249225D01*
X1188339Y1252035D01*
Y1254945D01*
X1187586Y1257755D01*
X1186131Y1260274D01*
X1184074Y1262331D01*
X1181555Y1263786D01*
X1178745Y1264539D01*
D02*
G37*
G36*
X1115245D02*
X1112335D01*
X1109525Y1263786D01*
X1107006Y1262331D01*
X1104949Y1260274D01*
X1103494Y1257755D01*
X1102741Y1254945D01*
Y1252035D01*
X1103494Y1249225D01*
X1104949Y1246706D01*
X1107006Y1244649D01*
X1109525Y1243194D01*
X1112335Y1242441D01*
X1115245D01*
X1118055Y1243194D01*
X1120574Y1244649D01*
X1122631Y1246706D01*
X1124086Y1249225D01*
X1124839Y1252035D01*
Y1254945D01*
X1124086Y1257755D01*
X1122631Y1260274D01*
X1120574Y1262331D01*
X1118055Y1263786D01*
X1115245Y1264539D01*
D02*
G37*
G36*
X302104Y1264764D02*
X279556D01*
Y1242216D01*
X302104D01*
Y1264764D01*
D02*
G37*
G36*
X975910Y1249256D02*
X970088D01*
Y1240625D01*
X971729Y1241305D01*
X973461Y1242633D01*
X974790Y1244365D01*
X975625Y1246382D01*
X975910Y1248546D01*
Y1249256D01*
D02*
G37*
G36*
X887508D02*
X881687D01*
Y1248546D01*
X881972Y1246382D01*
X882807Y1244365D01*
X884136Y1242633D01*
X885868Y1241305D01*
X887508Y1240625D01*
Y1249256D01*
D02*
G37*
G36*
X898410D02*
X892588D01*
Y1240625D01*
X894229Y1241305D01*
X895961Y1242633D01*
X897290Y1244365D01*
X898125Y1246382D01*
X898410Y1248546D01*
Y1249256D01*
D02*
G37*
G36*
X965008D02*
X959187D01*
Y1248546D01*
X959472Y1246382D01*
X960307Y1244365D01*
X961636Y1242633D01*
X963368Y1241305D01*
X965008Y1240625D01*
Y1249256D01*
D02*
G37*
G36*
X783120Y1246084D02*
X781520D01*
X780041Y1245471D01*
X778909Y1244339D01*
X778296Y1242860D01*
Y1241260D01*
X778909Y1239781D01*
X780041Y1238649D01*
X781520Y1238036D01*
X783120D01*
X784599Y1238649D01*
X785731Y1239781D01*
X786344Y1241260D01*
Y1242860D01*
X785731Y1244339D01*
X784599Y1245471D01*
X783120Y1246084D01*
D02*
G37*
G36*
X563410Y1233384D02*
X561810D01*
X560331Y1232771D01*
X559199Y1231639D01*
X558586Y1230160D01*
Y1228560D01*
X559199Y1227081D01*
X560331Y1225949D01*
X561810Y1225336D01*
X563410D01*
X564889Y1225949D01*
X566021Y1227081D01*
X566634Y1228560D01*
Y1230160D01*
X566021Y1231639D01*
X564889Y1232771D01*
X563410Y1233384D01*
D02*
G37*
G36*
X904897Y1229820D02*
X902700D01*
X900669Y1228979D01*
X899115Y1227425D01*
X898274Y1225395D01*
Y1225161D01*
X897135Y1224599D01*
X896486Y1225097D01*
X894104Y1226084D01*
X894088Y1226086D01*
Y1216336D01*
X901423D01*
Y1216546D01*
X901231Y1218006D01*
X902394Y1218898D01*
X902700Y1218772D01*
X904897D01*
X906927Y1219613D01*
X908481Y1221167D01*
X909322Y1223197D01*
Y1225395D01*
X908481Y1227425D01*
X906927Y1228979D01*
X904897Y1229820D01*
D02*
G37*
G36*
X1224886Y1258570D02*
X1221134D01*
X1217453Y1257838D01*
X1213986Y1256402D01*
X1210866Y1254317D01*
X1208213Y1251664D01*
X1206128Y1248544D01*
X1204692Y1245077D01*
X1203960Y1241396D01*
Y1237644D01*
X1204692Y1233963D01*
X1206128Y1230496D01*
X1208213Y1227376D01*
X1210866Y1224723D01*
X1213986Y1222638D01*
X1217453Y1221202D01*
X1221134Y1220470D01*
X1224886D01*
X1228567Y1221202D01*
X1232034Y1222638D01*
X1235154Y1224723D01*
X1237807Y1227376D01*
X1239892Y1230496D01*
X1241328Y1233963D01*
X1242060Y1237644D01*
Y1241396D01*
X1241328Y1245077D01*
X1239892Y1248544D01*
X1237807Y1251664D01*
X1235154Y1254317D01*
X1232034Y1256402D01*
X1228567Y1257838D01*
X1224886Y1258570D01*
D02*
G37*
G36*
X292314Y1239364D02*
X289346D01*
X286478Y1238596D01*
X283908Y1237111D01*
X281809Y1235012D01*
X280324Y1232442D01*
X279556Y1229574D01*
Y1226606D01*
X280324Y1223738D01*
X281809Y1221168D01*
X283908Y1219069D01*
X286478Y1217584D01*
X289346Y1216816D01*
X292314D01*
X295182Y1217584D01*
X297752Y1219069D01*
X299851Y1221168D01*
X301336Y1223738D01*
X302104Y1226606D01*
Y1229574D01*
X301336Y1232442D01*
X299851Y1235012D01*
X297752Y1237111D01*
X295182Y1238596D01*
X292314Y1239364D01*
D02*
G37*
G36*
X1126020Y1224494D02*
X1124420D01*
X1122941Y1223881D01*
X1121809Y1222749D01*
X1121196Y1221270D01*
Y1219670D01*
X1121809Y1218191D01*
X1122941Y1217059D01*
X1124420Y1216446D01*
X1126020D01*
X1127499Y1217059D01*
X1128631Y1218191D01*
X1129244Y1219670D01*
Y1221270D01*
X1128631Y1222749D01*
X1127499Y1223881D01*
X1126020Y1224494D01*
D02*
G37*
G36*
X460254D02*
X458654D01*
X457175Y1223881D01*
X456043Y1222749D01*
X455430Y1221270D01*
Y1219670D01*
X456043Y1218191D01*
X457175Y1217059D01*
X458654Y1216446D01*
X460254D01*
X461733Y1217059D01*
X462865Y1218191D01*
X463478Y1219670D01*
Y1221270D01*
X462865Y1222749D01*
X461733Y1223881D01*
X460254Y1224494D01*
D02*
G37*
G36*
X968588Y1226086D02*
Y1216336D01*
X975923D01*
Y1216546D01*
X975586Y1219102D01*
X974600Y1221483D01*
X973031Y1223528D01*
X970986Y1225097D01*
X968604Y1226084D01*
X968588Y1226086D01*
D02*
G37*
G36*
X889008D02*
X888993Y1226084D01*
X886611Y1225097D01*
X884566Y1223528D01*
X882997Y1221483D01*
X882010Y1219102D01*
X881674Y1216546D01*
Y1216336D01*
X889008D01*
Y1226086D01*
D02*
G37*
G36*
X954897Y1229820D02*
X952700D01*
X950669Y1228979D01*
X949115Y1227425D01*
X948274Y1225395D01*
Y1223197D01*
X949115Y1221167D01*
X950669Y1219613D01*
X952700Y1218772D01*
X954897D01*
X955203Y1218898D01*
X956366Y1218006D01*
X956174Y1216546D01*
Y1216336D01*
X963508D01*
Y1226086D01*
X963493Y1226084D01*
X961111Y1225097D01*
X960461Y1224599D01*
X959322Y1225161D01*
Y1225395D01*
X958481Y1227425D01*
X956927Y1228979D01*
X954897Y1229820D01*
D02*
G37*
G36*
X1026960Y1216874D02*
X1025360D01*
X1023881Y1216261D01*
X1022749Y1215129D01*
X1022136Y1213650D01*
Y1212050D01*
X1022749Y1210571D01*
X1023881Y1209439D01*
X1025360Y1208826D01*
X1026960D01*
X1028439Y1209439D01*
X1029571Y1210571D01*
X1030184Y1212050D01*
Y1213650D01*
X1029571Y1215129D01*
X1028439Y1216261D01*
X1026960Y1216874D01*
D02*
G37*
G36*
X1086485Y1216025D02*
X1076960D01*
Y1206500D01*
X1083884D01*
Y1210945D01*
X1083960Y1210221D01*
X1084190Y1209573D01*
X1084573Y1209002D01*
X1085108Y1208507D01*
X1085797Y1208087D01*
X1086485Y1207807D01*
Y1216025D01*
D02*
G37*
G36*
X783120Y1215604D02*
X781520D01*
X780041Y1214991D01*
X778909Y1213859D01*
X778296Y1212380D01*
Y1210780D01*
X778909Y1209301D01*
X780041Y1208169D01*
X781520Y1207556D01*
X783120D01*
X784599Y1208169D01*
X785731Y1209301D01*
X786344Y1210780D01*
Y1212380D01*
X785731Y1213859D01*
X784599Y1214991D01*
X783120Y1215604D01*
D02*
G37*
G36*
X1013460Y1215770D02*
Y1206500D01*
X1022730D01*
X1022163Y1208617D01*
X1020574Y1211368D01*
X1018328Y1213614D01*
X1015577Y1215203D01*
X1013460Y1215770D01*
D02*
G37*
G36*
X1008380D02*
X1006263Y1215203D01*
X1003512Y1213614D01*
X1001266Y1211368D01*
X999677Y1208617D01*
X999110Y1206500D01*
X1008380D01*
Y1215770D01*
D02*
G37*
G36*
X1071880Y1216025D02*
X1062355D01*
Y1206500D01*
X1071880D01*
Y1216025D01*
D02*
G37*
G36*
X1189355Y1214755D02*
X1179830D01*
Y1205230D01*
X1189355D01*
Y1214755D01*
D02*
G37*
G36*
X1116330Y1214500D02*
Y1205230D01*
X1125600D01*
X1125033Y1207347D01*
X1123444Y1210098D01*
X1121198Y1212344D01*
X1118447Y1213933D01*
X1116330Y1214500D01*
D02*
G37*
G36*
X1111250D02*
X1109133Y1213933D01*
X1106382Y1212344D01*
X1104136Y1210098D01*
X1102591Y1207423D01*
X1103210Y1207561D01*
X1104007Y1207800D01*
X1104769Y1208093D01*
X1105493Y1208439D01*
X1106181Y1208838D01*
X1106833Y1209290D01*
X1107447Y1209796D01*
X1107142Y1205230D01*
X1111250D01*
Y1214500D01*
D02*
G37*
G36*
X1174750Y1214755D02*
X1165225D01*
Y1205230D01*
X1174750D01*
Y1214755D01*
D02*
G37*
G36*
X975923Y1211256D02*
X968588D01*
Y1201506D01*
X968604Y1201508D01*
X970986Y1202494D01*
X973031Y1204064D01*
X974600Y1206109D01*
X975586Y1208490D01*
X975923Y1211046D01*
Y1211256D01*
D02*
G37*
G36*
X889008D02*
X881674D01*
Y1211046D01*
X882010Y1208490D01*
X882997Y1206109D01*
X884566Y1204064D01*
X886611Y1202494D01*
X888993Y1201508D01*
X889008Y1201506D01*
Y1211256D01*
D02*
G37*
G36*
X901423D02*
X894088D01*
Y1201506D01*
X894104Y1201508D01*
X896486Y1202494D01*
X898531Y1204064D01*
X900100Y1206109D01*
X901086Y1208490D01*
X901423Y1211046D01*
Y1211256D01*
D02*
G37*
G36*
X963508D02*
X956174D01*
Y1211046D01*
X956510Y1208490D01*
X957497Y1206109D01*
X959066Y1204064D01*
X961111Y1202494D01*
X963493Y1201508D01*
X963508Y1201506D01*
Y1211256D01*
D02*
G37*
G36*
X1111250Y1200150D02*
X1106803D01*
X1106558Y1196491D01*
X1106017Y1197065D01*
X1105430Y1197579D01*
X1104798Y1198033D01*
X1104120Y1198426D01*
X1103396Y1198759D01*
X1102627Y1199031D01*
X1102254Y1199128D01*
X1102547Y1198033D01*
X1104136Y1195282D01*
X1106382Y1193036D01*
X1109133Y1191447D01*
X1111250Y1190880D01*
Y1200150D01*
D02*
G37*
G36*
X755180Y1204174D02*
X753580D01*
X752101Y1203561D01*
X750969Y1202429D01*
X750356Y1200950D01*
Y1199350D01*
X750969Y1197871D01*
X752101Y1196739D01*
X753580Y1196126D01*
X755180D01*
X756659Y1196739D01*
X757791Y1197871D01*
X758404Y1199350D01*
Y1200950D01*
X757791Y1202429D01*
X756659Y1203561D01*
X755180Y1204174D01*
D02*
G37*
G36*
X563410D02*
X561810D01*
X560331Y1203561D01*
X559199Y1202429D01*
X558586Y1200950D01*
Y1199350D01*
X559199Y1197871D01*
X560331Y1196739D01*
X561810Y1196126D01*
X563410D01*
X564889Y1196739D01*
X566021Y1197871D01*
X566634Y1199350D01*
Y1200950D01*
X566021Y1202429D01*
X564889Y1203561D01*
X563410Y1204174D01*
D02*
G37*
G36*
X950760Y1201634D02*
X949160D01*
X947681Y1201021D01*
X946549Y1199889D01*
X945936Y1198410D01*
Y1196810D01*
X946549Y1195331D01*
X947681Y1194199D01*
X949160Y1193586D01*
X950760D01*
X952239Y1194199D01*
X953371Y1195331D01*
X953984Y1196810D01*
Y1198410D01*
X953371Y1199889D01*
X952239Y1201021D01*
X950760Y1201634D01*
D02*
G37*
G36*
X1022730Y1201420D02*
X1013460D01*
Y1192150D01*
X1015577Y1192717D01*
X1018328Y1194306D01*
X1020574Y1196552D01*
X1022163Y1199303D01*
X1022730Y1201420D01*
D02*
G37*
G36*
X1008380D02*
X999110D01*
X999677Y1199303D01*
X1001266Y1196552D01*
X1003512Y1194306D01*
X1006263Y1192717D01*
X1008380Y1192150D01*
Y1201420D01*
D02*
G37*
G36*
X1083884D02*
X1076960D01*
Y1191895D01*
X1086485D01*
Y1198843D01*
X1085797Y1198562D01*
X1085108Y1198143D01*
X1084573Y1197648D01*
X1084190Y1197077D01*
X1083960Y1196429D01*
X1083884Y1195705D01*
Y1201420D01*
D02*
G37*
G36*
X1071880D02*
X1062355D01*
Y1191895D01*
X1071880D01*
Y1201420D01*
D02*
G37*
G36*
X292314Y1213964D02*
X289346D01*
X286478Y1213196D01*
X283908Y1211711D01*
X281809Y1209612D01*
X280324Y1207042D01*
X279556Y1204174D01*
Y1201206D01*
X280324Y1198338D01*
X281809Y1195768D01*
X283908Y1193669D01*
X286478Y1192184D01*
X289346Y1191416D01*
X292314D01*
X295182Y1192184D01*
X297752Y1193669D01*
X299851Y1195768D01*
X301336Y1198338D01*
X302104Y1201206D01*
Y1204174D01*
X301336Y1207042D01*
X299851Y1209612D01*
X297752Y1211711D01*
X295182Y1213196D01*
X292314Y1213964D01*
D02*
G37*
G36*
X1125600Y1200150D02*
X1116330D01*
Y1190880D01*
X1118447Y1191447D01*
X1121198Y1193036D01*
X1123444Y1195282D01*
X1125033Y1198033D01*
X1125600Y1200150D01*
D02*
G37*
G36*
X1189355D02*
X1179830D01*
Y1190625D01*
X1189355D01*
Y1200150D01*
D02*
G37*
G36*
X1174750D02*
X1165225D01*
Y1190625D01*
X1174750D01*
Y1200150D01*
D02*
G37*
G36*
X761530Y1188934D02*
X759930D01*
X758451Y1188321D01*
X757319Y1187189D01*
X756706Y1185710D01*
Y1184110D01*
X757319Y1182631D01*
X758451Y1181499D01*
X759930Y1180886D01*
X761530D01*
X763009Y1181499D01*
X764141Y1182631D01*
X764754Y1184110D01*
Y1185710D01*
X764141Y1187189D01*
X763009Y1188321D01*
X761530Y1188934D01*
D02*
G37*
G36*
X571030D02*
X569430D01*
X567951Y1188321D01*
X566819Y1187189D01*
X566206Y1185710D01*
Y1184110D01*
X566819Y1182631D01*
X567951Y1181499D01*
X569430Y1180886D01*
X571030D01*
X572509Y1181499D01*
X573641Y1182631D01*
X574254Y1184110D01*
Y1185710D01*
X573641Y1187189D01*
X572509Y1188321D01*
X571030Y1188934D01*
D02*
G37*
G36*
X1052360Y1186394D02*
X1050760D01*
X1049281Y1185781D01*
X1048149Y1184649D01*
X1047536Y1183170D01*
Y1181570D01*
X1048149Y1180091D01*
X1049281Y1178959D01*
X1050760Y1178346D01*
X1052360D01*
X1053839Y1178959D01*
X1054971Y1180091D01*
X1055584Y1181570D01*
Y1183170D01*
X1054971Y1184649D01*
X1053839Y1185781D01*
X1052360Y1186394D01*
D02*
G37*
G36*
X858050D02*
X856450D01*
X854971Y1185781D01*
X853839Y1184649D01*
X853226Y1183170D01*
Y1181570D01*
X853839Y1180091D01*
X854971Y1178959D01*
X856450Y1178346D01*
X858050D01*
X859529Y1178959D01*
X860661Y1180091D01*
X861274Y1181570D01*
Y1183170D01*
X860661Y1184649D01*
X859529Y1185781D01*
X858050Y1186394D01*
D02*
G37*
G36*
X783342Y1185124D02*
X781742D01*
X780263Y1184511D01*
X779131Y1183379D01*
X778518Y1181900D01*
Y1180300D01*
X779131Y1178821D01*
X780263Y1177689D01*
X781742Y1177076D01*
X783342D01*
X784821Y1177689D01*
X785953Y1178821D01*
X786566Y1180300D01*
Y1181900D01*
X785953Y1183379D01*
X784821Y1184511D01*
X783342Y1185124D01*
D02*
G37*
G36*
X578650Y1173694D02*
X577050D01*
X575571Y1173081D01*
X574439Y1171949D01*
X573826Y1170470D01*
Y1168870D01*
X574439Y1167391D01*
X575571Y1166259D01*
X577050Y1165646D01*
X578650D01*
X580129Y1166259D01*
X581261Y1167391D01*
X581874Y1168870D01*
Y1170470D01*
X581261Y1171949D01*
X580129Y1173081D01*
X578650Y1173694D01*
D02*
G37*
G36*
X950468Y1171447D02*
X948867D01*
X947388Y1170834D01*
X946256Y1169702D01*
X945643Y1168223D01*
Y1166622D01*
X946256Y1165144D01*
X947388Y1164012D01*
X948867Y1163399D01*
X950468D01*
X951946Y1164012D01*
X953078Y1165144D01*
X953691Y1166622D01*
Y1168223D01*
X953078Y1169702D01*
X951946Y1170834D01*
X950468Y1171447D01*
D02*
G37*
G36*
X901230Y1162264D02*
X899630D01*
X898151Y1161651D01*
X897255Y1160756D01*
X896359Y1161651D01*
X894880Y1162264D01*
X893280D01*
X891801Y1161651D01*
X890669Y1160519D01*
X890056Y1159040D01*
Y1157440D01*
X890669Y1155961D01*
X891801Y1154829D01*
X893280Y1154216D01*
X894880D01*
X896359Y1154829D01*
X897255Y1155724D01*
X898151Y1154829D01*
X899630Y1154216D01*
X901230D01*
X902709Y1154829D01*
X903841Y1155961D01*
X904454Y1157440D01*
Y1159040D01*
X903841Y1160519D01*
X902709Y1161651D01*
X901230Y1162264D01*
D02*
G37*
G36*
X586270Y1158454D02*
X584670D01*
X583191Y1157841D01*
X582059Y1156709D01*
X581446Y1155230D01*
Y1153630D01*
X582059Y1152151D01*
X583191Y1151019D01*
X584670Y1150406D01*
X586270D01*
X587749Y1151019D01*
X588881Y1152151D01*
X589494Y1153630D01*
Y1155230D01*
X588881Y1156709D01*
X587749Y1157841D01*
X586270Y1158454D01*
D02*
G37*
G36*
X302104Y1172054D02*
X279556D01*
Y1149506D01*
X302104D01*
Y1172054D01*
D02*
G37*
G36*
X941870Y1162264D02*
X940270D01*
X938791Y1161651D01*
X937659Y1160519D01*
X937046Y1159040D01*
Y1157440D01*
X937659Y1155961D01*
X937642Y1155878D01*
X936251Y1155301D01*
X935119Y1154169D01*
X934506Y1152690D01*
Y1151090D01*
X935119Y1149611D01*
X936251Y1148479D01*
X937730Y1147866D01*
X939330D01*
X940809Y1148479D01*
X941941Y1149611D01*
X942554Y1151090D01*
Y1152690D01*
X941941Y1154169D01*
X941958Y1154252D01*
X943349Y1154829D01*
X944481Y1155961D01*
X945094Y1157440D01*
Y1159040D01*
X944481Y1160519D01*
X943349Y1161651D01*
X941870Y1162264D01*
D02*
G37*
G36*
X927693Y1155457D02*
X926092D01*
X924613Y1154845D01*
X923481Y1153712D01*
X922868Y1152234D01*
Y1150633D01*
X923481Y1149154D01*
X924613Y1148022D01*
X926092Y1147409D01*
X927693D01*
X929172Y1148022D01*
X930304Y1149154D01*
X930916Y1150633D01*
Y1152234D01*
X930304Y1153712D01*
X929172Y1154845D01*
X927693Y1155457D01*
D02*
G37*
G36*
X982510Y1154644D02*
X980910D01*
X979431Y1154031D01*
X978299Y1152899D01*
X977686Y1151420D01*
Y1149820D01*
X978299Y1148341D01*
X979431Y1147209D01*
X980910Y1146596D01*
X982510D01*
X983989Y1147209D01*
X985121Y1148341D01*
X985734Y1149820D01*
Y1151420D01*
X985121Y1152899D01*
X983989Y1154031D01*
X982510Y1154644D01*
D02*
G37*
G36*
X1010768Y1148612D02*
X1009167D01*
X1007689Y1147999D01*
X1006557Y1146867D01*
X1005944Y1145388D01*
Y1143788D01*
X1006557Y1142309D01*
X1007689Y1141177D01*
X1009167Y1140564D01*
X1010768D01*
X1012247Y1141177D01*
X1013379Y1142309D01*
X1013992Y1143788D01*
Y1145388D01*
X1013379Y1146867D01*
X1012247Y1147999D01*
X1010768Y1148612D01*
D02*
G37*
G36*
X1061250Y1148294D02*
X1059650D01*
X1058171Y1147681D01*
X1057039Y1146549D01*
X1056426Y1145070D01*
Y1143470D01*
X1057039Y1141991D01*
X1058171Y1140859D01*
X1059650Y1140246D01*
X1061250D01*
X1062729Y1140859D01*
X1063861Y1141991D01*
X1064474Y1143470D01*
Y1145070D01*
X1063861Y1146549D01*
X1062729Y1147681D01*
X1061250Y1148294D01*
D02*
G37*
G36*
X997750Y1143214D02*
X996150D01*
X994671Y1142601D01*
X993539Y1141469D01*
X992926Y1139990D01*
Y1138390D01*
X993539Y1136911D01*
X994671Y1135779D01*
X996150Y1135166D01*
X997750D01*
X999229Y1135779D01*
X1000361Y1136911D01*
X1000974Y1138390D01*
Y1139990D01*
X1000361Y1141469D01*
X999229Y1142601D01*
X997750Y1143214D01*
D02*
G37*
G36*
X593890D02*
X592290D01*
X590811Y1142601D01*
X589679Y1141469D01*
X589066Y1139990D01*
Y1138390D01*
X589679Y1136911D01*
X590811Y1135779D01*
X592290Y1135166D01*
X593890D01*
X595369Y1135779D01*
X596501Y1136911D01*
X597114Y1138390D01*
Y1139990D01*
X596501Y1141469D01*
X595369Y1142601D01*
X593890Y1143214D01*
D02*
G37*
G36*
X441276Y1141944D02*
X439676D01*
X438197Y1141331D01*
X437065Y1140199D01*
X436452Y1138720D01*
Y1137120D01*
X437065Y1135641D01*
X438197Y1134509D01*
X439676Y1133896D01*
X441276D01*
X442755Y1134509D01*
X443887Y1135641D01*
X444500Y1137120D01*
Y1138720D01*
X443887Y1140199D01*
X442755Y1141331D01*
X441276Y1141944D01*
D02*
G37*
G36*
X897420Y1134324D02*
X895820D01*
X894341Y1133711D01*
X893209Y1132579D01*
X892596Y1131100D01*
Y1129500D01*
X893209Y1128021D01*
X894341Y1126889D01*
X895820Y1126276D01*
X897420D01*
X898899Y1126889D01*
X900031Y1128021D01*
X900644Y1129500D01*
Y1131100D01*
X900031Y1132579D01*
X898899Y1133711D01*
X897420Y1134324D01*
D02*
G37*
G36*
X292314Y1146654D02*
X289346D01*
X286478Y1145886D01*
X283908Y1144401D01*
X281809Y1142302D01*
X280324Y1139732D01*
X279556Y1136864D01*
Y1133896D01*
X280324Y1131028D01*
X281809Y1128458D01*
X283908Y1126359D01*
X286478Y1124874D01*
X289346Y1124106D01*
X292314D01*
X295182Y1124874D01*
X297752Y1126359D01*
X299851Y1128458D01*
X301336Y1131028D01*
X302104Y1133896D01*
Y1136864D01*
X301336Y1139732D01*
X299851Y1142302D01*
X297752Y1144401D01*
X295182Y1145886D01*
X292314Y1146654D01*
D02*
G37*
G36*
X974890Y1124164D02*
X973290D01*
X971811Y1123551D01*
X970679Y1122419D01*
X970066Y1120940D01*
Y1119507D01*
X969568Y1118976D01*
X969010Y1118569D01*
X968540Y1118764D01*
X966940D01*
X965461Y1118151D01*
X964329Y1117019D01*
X963716Y1115540D01*
Y1113940D01*
X964329Y1112460D01*
X965461Y1111329D01*
X966940Y1110716D01*
X968540D01*
X970019Y1111329D01*
X971151Y1112460D01*
X971764Y1113940D01*
Y1115373D01*
X972262Y1115904D01*
X972820Y1116311D01*
X973290Y1116116D01*
X974890D01*
X976369Y1116729D01*
X977501Y1117861D01*
X978114Y1119340D01*
Y1120940D01*
X977501Y1122419D01*
X976369Y1123551D01*
X974890Y1124164D01*
D02*
G37*
G36*
X1010450Y1121624D02*
X1008850D01*
X1007371Y1121011D01*
X1006239Y1119879D01*
X1005626Y1118400D01*
Y1116800D01*
X1006239Y1115321D01*
X1007371Y1114189D01*
X1008850Y1113576D01*
X1010450D01*
X1011929Y1114189D01*
X1013061Y1115321D01*
X1013674Y1116800D01*
Y1118400D01*
X1013061Y1119879D01*
X1011929Y1121011D01*
X1010450Y1121624D01*
D02*
G37*
G36*
X982510Y1114004D02*
X980910D01*
X979431Y1113391D01*
X978299Y1112259D01*
X977686Y1110780D01*
Y1109180D01*
X978299Y1107701D01*
X979431Y1106569D01*
X980910Y1105956D01*
X982510D01*
X983989Y1106569D01*
X985121Y1107701D01*
X985734Y1109180D01*
Y1110780D01*
X985121Y1112259D01*
X983989Y1113391D01*
X982510Y1114004D01*
D02*
G37*
G36*
X748830Y1112734D02*
X747230D01*
X745751Y1112121D01*
X744619Y1110989D01*
X744006Y1109510D01*
Y1107910D01*
X744619Y1106431D01*
X745751Y1105299D01*
X747230Y1104686D01*
X748830D01*
X750309Y1105299D01*
X751441Y1106431D01*
X752054Y1107910D01*
Y1109510D01*
X751441Y1110989D01*
X750309Y1112121D01*
X748830Y1112734D01*
D02*
G37*
G36*
X292314Y1121254D02*
X289346D01*
X286478Y1120486D01*
X283908Y1119001D01*
X281809Y1116902D01*
X280324Y1114332D01*
X279556Y1111464D01*
Y1108496D01*
X280324Y1105628D01*
X281809Y1103058D01*
X283908Y1100959D01*
X286478Y1099474D01*
X289346Y1098706D01*
X292314D01*
X295182Y1099474D01*
X297752Y1100959D01*
X299851Y1103058D01*
X301336Y1105628D01*
X302104Y1108496D01*
Y1111464D01*
X301336Y1114332D01*
X299851Y1116902D01*
X297752Y1119001D01*
X295182Y1120486D01*
X292314Y1121254D01*
D02*
G37*
G36*
X997750Y1103844D02*
X996150D01*
X994671Y1103231D01*
X993539Y1102099D01*
X992926Y1100620D01*
Y1099020D01*
X993539Y1097541D01*
X994671Y1096409D01*
X996150Y1095796D01*
X997750D01*
X999229Y1096409D01*
X1000361Y1097541D01*
X1000974Y1099020D01*
Y1100620D01*
X1000361Y1102099D01*
X999229Y1103231D01*
X997750Y1103844D01*
D02*
G37*
G36*
X896150Y1102574D02*
X894550D01*
X893071Y1101961D01*
X891939Y1100829D01*
X891326Y1099350D01*
Y1097750D01*
X891939Y1096271D01*
X893071Y1095139D01*
X894550Y1094526D01*
X896150D01*
X897629Y1095139D01*
X898761Y1096271D01*
X899374Y1097750D01*
Y1099350D01*
X898761Y1100829D01*
X897629Y1101961D01*
X896150Y1102574D01*
D02*
G37*
G36*
X849160D02*
X847560D01*
X846081Y1101961D01*
X844949Y1100829D01*
X844336Y1099350D01*
Y1097750D01*
X844949Y1096271D01*
X846081Y1095139D01*
X847560Y1094526D01*
X849160D01*
X850639Y1095139D01*
X851771Y1096271D01*
X852384Y1097750D01*
Y1099350D01*
X851771Y1100829D01*
X850639Y1101961D01*
X849160Y1102574D01*
D02*
G37*
G36*
X756164Y1087903D02*
X754564D01*
X753085Y1087290D01*
X751953Y1086159D01*
X751340Y1084679D01*
Y1083079D01*
X751953Y1081600D01*
X753085Y1080468D01*
X754564Y1079855D01*
X756164D01*
X757643Y1080468D01*
X758775Y1081600D01*
X759388Y1083079D01*
Y1084679D01*
X758775Y1086159D01*
X757643Y1087290D01*
X756164Y1087903D01*
D02*
G37*
G36*
X421170Y1087334D02*
X419570D01*
X418091Y1086721D01*
X416959Y1085589D01*
X416346Y1084110D01*
Y1082510D01*
X416959Y1081031D01*
X418091Y1079899D01*
X419570Y1079286D01*
X421170D01*
X422649Y1079899D01*
X423781Y1081031D01*
X424394Y1082510D01*
Y1084110D01*
X423781Y1085589D01*
X422649Y1086721D01*
X421170Y1087334D01*
D02*
G37*
G36*
X746290Y1083524D02*
X744690D01*
X743211Y1082911D01*
X742079Y1081779D01*
X741466Y1080300D01*
Y1078700D01*
X742079Y1077221D01*
X743211Y1076089D01*
X744690Y1075476D01*
X746290D01*
X747769Y1076089D01*
X748901Y1077221D01*
X749514Y1078700D01*
Y1080300D01*
X748901Y1081779D01*
X747769Y1082911D01*
X746290Y1083524D01*
D02*
G37*
G36*
X292314Y1095854D02*
X289346D01*
X286478Y1095086D01*
X283908Y1093601D01*
X281809Y1091502D01*
X280324Y1088932D01*
X279556Y1086064D01*
Y1083096D01*
X280324Y1080228D01*
X281809Y1077658D01*
X283908Y1075559D01*
X286478Y1074074D01*
X289346Y1073306D01*
X292314D01*
X295182Y1074074D01*
X297752Y1075559D01*
X299851Y1077658D01*
X301336Y1080228D01*
X302104Y1083096D01*
Y1086064D01*
X301336Y1088932D01*
X299851Y1091502D01*
X297752Y1093601D01*
X295182Y1095086D01*
X292314Y1095854D01*
D02*
G37*
G36*
X479590Y1074634D02*
X477990D01*
X476511Y1074021D01*
X475379Y1072889D01*
X474766Y1071410D01*
Y1069810D01*
X475379Y1068331D01*
X476511Y1067199D01*
X477990Y1066586D01*
X479590D01*
X481069Y1067199D01*
X482201Y1068331D01*
X482814Y1069810D01*
Y1071410D01*
X482201Y1072889D01*
X481069Y1074021D01*
X479590Y1074634D01*
D02*
G37*
G36*
X421170D02*
X419570D01*
X418091Y1074021D01*
X416959Y1072889D01*
X416346Y1071410D01*
Y1069810D01*
X416959Y1068331D01*
X418091Y1067199D01*
X419570Y1066586D01*
X421170D01*
X422649Y1067199D01*
X423781Y1068331D01*
X424394Y1069810D01*
Y1071410D01*
X423781Y1072889D01*
X422649Y1074021D01*
X421170Y1074634D01*
D02*
G37*
G36*
X999020Y1068284D02*
X997420D01*
X995941Y1067671D01*
X994809Y1066539D01*
X994196Y1065060D01*
Y1063460D01*
X994809Y1061981D01*
X995941Y1060849D01*
X997420Y1060236D01*
X999020D01*
X1000499Y1060849D01*
X1001631Y1061981D01*
X1002244Y1063460D01*
Y1065060D01*
X1001631Y1066539D01*
X1000499Y1067671D01*
X999020Y1068284D01*
D02*
G37*
G36*
X852970D02*
X851370D01*
X849891Y1067671D01*
X848759Y1066539D01*
X848146Y1065060D01*
Y1063460D01*
X848759Y1061981D01*
X849891Y1060849D01*
X851370Y1060236D01*
X852970D01*
X854449Y1060849D01*
X855581Y1061981D01*
X856194Y1063460D01*
Y1065060D01*
X855581Y1066539D01*
X854449Y1067671D01*
X852970Y1068284D01*
D02*
G37*
G36*
X510070D02*
X508470D01*
X506991Y1067671D01*
X505859Y1066539D01*
X505246Y1065060D01*
Y1063460D01*
X505859Y1061981D01*
X506991Y1060849D01*
X508470Y1060236D01*
X510070D01*
X511549Y1060849D01*
X512681Y1061981D01*
X513294Y1063460D01*
Y1065060D01*
X512681Y1066539D01*
X511549Y1067671D01*
X510070Y1068284D01*
D02*
G37*
G36*
X292314Y1070454D02*
X289346D01*
X286478Y1069686D01*
X283908Y1068201D01*
X281809Y1066102D01*
X280324Y1063532D01*
X279556Y1060664D01*
Y1057696D01*
X280324Y1054828D01*
X281809Y1052258D01*
X283908Y1050159D01*
X286478Y1048674D01*
X289346Y1047906D01*
X292314D01*
X295182Y1048674D01*
X297752Y1050159D01*
X299851Y1052258D01*
X301336Y1054828D01*
X302104Y1057696D01*
Y1060664D01*
X301336Y1063532D01*
X299851Y1066102D01*
X297752Y1068201D01*
X295182Y1069686D01*
X292314Y1070454D01*
D02*
G37*
G36*
X742480Y1054314D02*
X740880D01*
X739401Y1053701D01*
X738269Y1052569D01*
X737656Y1051090D01*
Y1049490D01*
X738269Y1048011D01*
X739401Y1046879D01*
X740880Y1046266D01*
X742480D01*
X743959Y1046879D01*
X745091Y1048011D01*
X745704Y1049490D01*
Y1051090D01*
X745091Y1052569D01*
X743959Y1053701D01*
X742480Y1054314D01*
D02*
G37*
G36*
X917740Y1050504D02*
X916140D01*
X914661Y1049891D01*
X913529Y1048759D01*
X912916Y1047280D01*
Y1045680D01*
X913529Y1044201D01*
X914661Y1043069D01*
X916140Y1042456D01*
X917740D01*
X919219Y1043069D01*
X920351Y1044201D01*
X920964Y1045680D01*
Y1047280D01*
X920351Y1048759D01*
X919219Y1049891D01*
X917740Y1050504D01*
D02*
G37*
G36*
X397040Y1028914D02*
X395440D01*
X393961Y1028301D01*
X393065Y1027406D01*
X392169Y1028301D01*
X390690Y1028914D01*
X389090D01*
X387611Y1028301D01*
X386715Y1027406D01*
X385819Y1028301D01*
X384340Y1028914D01*
X382740D01*
X381261Y1028301D01*
X380129Y1027169D01*
X379516Y1025690D01*
Y1024090D01*
X380129Y1022611D01*
X381261Y1021479D01*
X382247Y1021070D01*
X382056Y1020610D01*
Y1019010D01*
X382669Y1017531D01*
X383801Y1016399D01*
X385280Y1015786D01*
X386880D01*
X388359Y1016399D01*
X389255Y1017294D01*
X390151Y1016399D01*
X391630Y1015786D01*
X393230D01*
X394709Y1016399D01*
X395841Y1017531D01*
X396454Y1019010D01*
Y1020610D01*
X396625Y1020866D01*
X397040D01*
X398519Y1021479D01*
X399651Y1022611D01*
X400264Y1024090D01*
Y1025690D01*
X399651Y1027169D01*
X398519Y1028301D01*
X397040Y1028914D01*
D02*
G37*
G36*
X286380Y1019170D02*
X279400D01*
Y1012190D01*
X286380D01*
Y1019170D01*
D02*
G37*
G36*
X271780D02*
X264800D01*
Y1012190D01*
X271780D01*
Y1019170D01*
D02*
G37*
G36*
X602780Y1013674D02*
X601180D01*
X599701Y1013061D01*
X598569Y1011929D01*
X597956Y1010450D01*
Y1008850D01*
X598569Y1007371D01*
X599701Y1006239D01*
X601180Y1005626D01*
X602780D01*
X604259Y1006239D01*
X605391Y1007371D01*
X606004Y1008850D01*
Y1010450D01*
X605391Y1011929D01*
X604259Y1013061D01*
X602780Y1013674D01*
D02*
G37*
G36*
X611670Y1009864D02*
X610070D01*
X608591Y1009251D01*
X607459Y1008119D01*
X606846Y1006640D01*
Y1005040D01*
X607459Y1003561D01*
X608591Y1002429D01*
X610070Y1001816D01*
X611670D01*
X613149Y1002429D01*
X614281Y1003561D01*
X614894Y1005040D01*
Y1006640D01*
X614281Y1008119D01*
X613149Y1009251D01*
X611670Y1009864D01*
D02*
G37*
G36*
X302277Y1018154D02*
X299703D01*
X297217Y1017488D01*
X294989Y1016201D01*
X293169Y1014381D01*
X291882Y1012153D01*
X291216Y1009667D01*
Y1007093D01*
X291882Y1004607D01*
X293169Y1002379D01*
X294989Y1000559D01*
X297217Y999272D01*
X299703Y998606D01*
X302277D01*
X304763Y999272D01*
X306991Y1000559D01*
X308811Y1002379D01*
X310098Y1004607D01*
X310764Y1007093D01*
Y1009667D01*
X310098Y1012153D01*
X308811Y1014381D01*
X306991Y1016201D01*
X304763Y1017488D01*
X302277Y1018154D01*
D02*
G37*
G36*
X286380Y1004570D02*
X279400D01*
Y997590D01*
X286380D01*
Y1004570D01*
D02*
G37*
G36*
X271780D02*
X264800D01*
Y997590D01*
X271780D01*
Y1004570D01*
D02*
G37*
G36*
X597486Y999704D02*
X595886D01*
X594407Y999091D01*
X593275Y997959D01*
X592662Y996480D01*
Y994880D01*
X593275Y993401D01*
X594407Y992269D01*
X595886Y991656D01*
X597486D01*
X598965Y992269D01*
X600097Y993401D01*
X600710Y994880D01*
Y996480D01*
X600097Y997959D01*
X598965Y999091D01*
X597486Y999704D01*
D02*
G37*
G36*
X279400Y993130D02*
Y986790D01*
X285740D01*
X285645Y987145D01*
X284224Y989605D01*
X282215Y991614D01*
X279755Y993035D01*
X279400Y993130D01*
D02*
G37*
G36*
X271780D02*
X271425Y993035D01*
X268965Y991614D01*
X266956Y989605D01*
X265535Y987145D01*
X265440Y986790D01*
X271780D01*
Y993130D01*
D02*
G37*
G36*
X591564Y992084D02*
X589964D01*
X588485Y991471D01*
X587353Y990339D01*
X586740Y988860D01*
Y987260D01*
X587353Y985781D01*
X588485Y984649D01*
X589964Y984036D01*
X591564D01*
X593043Y984649D01*
X594175Y985781D01*
X594788Y987260D01*
Y988860D01*
X594175Y990339D01*
X593043Y991471D01*
X591564Y992084D01*
D02*
G37*
G36*
X531660Y985734D02*
X530060D01*
X528581Y985121D01*
X527449Y983989D01*
X526836Y982510D01*
Y980910D01*
X527449Y979431D01*
X528581Y978299D01*
X530060Y977686D01*
X531660D01*
X533139Y978299D01*
X534271Y979431D01*
X534884Y980910D01*
Y982510D01*
X534271Y983989D01*
X533139Y985121D01*
X531660Y985734D01*
D02*
G37*
G36*
X302277Y992754D02*
X299703D01*
X297217Y992088D01*
X294989Y990801D01*
X293169Y988981D01*
X291882Y986753D01*
X291216Y984267D01*
Y981693D01*
X291882Y979207D01*
X293169Y976979D01*
X294989Y975159D01*
X297217Y973872D01*
X299703Y973206D01*
X302277D01*
X304763Y973872D01*
X306991Y975159D01*
X308811Y976979D01*
X310098Y979207D01*
X310764Y981693D01*
Y984267D01*
X310098Y986753D01*
X308811Y988981D01*
X306991Y990801D01*
X304763Y992088D01*
X302277Y992754D01*
D02*
G37*
G36*
X285740Y979170D02*
X279400D01*
Y972830D01*
X279755Y972925D01*
X282215Y974346D01*
X284224Y976355D01*
X285645Y978815D01*
X285740Y979170D01*
D02*
G37*
G36*
X271780D02*
X265440D01*
X265535Y978815D01*
X266956Y976355D01*
X268965Y974346D01*
X271425Y972925D01*
X271780Y972830D01*
Y979170D01*
D02*
G37*
G36*
X611670Y973034D02*
X610070D01*
X608591Y972421D01*
X607459Y971289D01*
X606846Y969810D01*
Y968210D01*
X607459Y966731D01*
X608591Y965599D01*
X610070Y964986D01*
X611670D01*
X613149Y965599D01*
X614281Y966731D01*
X614894Y968210D01*
Y969810D01*
X614281Y971289D01*
X613149Y972421D01*
X611670Y973034D01*
D02*
G37*
G36*
X279400Y967730D02*
Y961390D01*
X285740D01*
X285645Y961745D01*
X284224Y964205D01*
X282215Y966214D01*
X279755Y967635D01*
X279400Y967730D01*
D02*
G37*
G36*
X271780D02*
X271425Y967635D01*
X268965Y966214D01*
X266956Y964205D01*
X265535Y961745D01*
X265440Y961390D01*
X271780D01*
Y967730D01*
D02*
G37*
G36*
X302277Y967354D02*
X299703D01*
X297217Y966688D01*
X294989Y965401D01*
X293169Y963581D01*
X291882Y961353D01*
X291216Y958867D01*
Y956293D01*
X291882Y953807D01*
X293169Y951579D01*
X294989Y949759D01*
X297217Y948472D01*
X299703Y947806D01*
X302277D01*
X304763Y948472D01*
X306991Y949759D01*
X308811Y951579D01*
X310098Y953807D01*
X310764Y956293D01*
Y958867D01*
X310098Y961353D01*
X308811Y963581D01*
X306991Y965401D01*
X304763Y966688D01*
X302277Y967354D01*
D02*
G37*
G36*
X285740Y953770D02*
X279400D01*
Y947430D01*
X279755Y947525D01*
X282215Y948946D01*
X284224Y950955D01*
X285645Y953415D01*
X285740Y953770D01*
D02*
G37*
G36*
X271780D02*
X265440D01*
X265535Y953415D01*
X266956Y950955D01*
X268965Y948946D01*
X271425Y947525D01*
X271780Y947430D01*
Y953770D01*
D02*
G37*
G36*
X279400Y942330D02*
Y935990D01*
X285740D01*
X285645Y936345D01*
X284224Y938805D01*
X282215Y940814D01*
X279755Y942235D01*
X279400Y942330D01*
D02*
G37*
G36*
X271780D02*
X271425Y942235D01*
X268965Y940814D01*
X266956Y938805D01*
X265535Y936345D01*
X265440Y935990D01*
X271780D01*
Y942330D01*
D02*
G37*
G36*
X285740Y928370D02*
X285141D01*
X285356Y928052D01*
X285533Y927822D01*
X285645Y928015D01*
X285740Y928370D01*
D02*
G37*
G36*
X280112D02*
X279400D01*
Y927658D01*
X280112Y928370D01*
D02*
G37*
G36*
X302277Y941954D02*
X299703D01*
X297217Y941288D01*
X294989Y940001D01*
X293169Y938181D01*
X291882Y935953D01*
X291216Y933467D01*
Y930893D01*
X291882Y928407D01*
X293169Y926179D01*
X294989Y924359D01*
X297217Y923072D01*
X299703Y922406D01*
X302277D01*
X304763Y923072D01*
X306991Y924359D01*
X308811Y926179D01*
X310098Y928407D01*
X310764Y930893D01*
Y933467D01*
X310098Y935953D01*
X308811Y938181D01*
X306991Y940001D01*
X304763Y941288D01*
X302277Y941954D01*
D02*
G37*
G36*
X279400Y922629D02*
Y922030D01*
X279755Y922125D01*
X279940Y922232D01*
X279718Y922414D01*
X279400Y922629D01*
D02*
G37*
G36*
X271780Y928370D02*
X265440D01*
X265535Y928015D01*
X266956Y925555D01*
X268965Y923546D01*
X271425Y922125D01*
X271780Y922030D01*
Y928370D01*
D02*
G37*
G36*
X334810Y918424D02*
X333210D01*
X331731Y917811D01*
X330835Y916916D01*
X329939Y917811D01*
X328460Y918424D01*
X326860D01*
X325381Y917811D01*
X324249Y916679D01*
X323636Y915200D01*
Y913600D01*
X324249Y912121D01*
X324949Y911420D01*
X325328Y910834D01*
X324972Y909783D01*
X324469Y909279D01*
X323856Y907800D01*
Y906200D01*
X324469Y904721D01*
X325364Y903825D01*
X324249Y902709D01*
X323636Y901230D01*
Y899630D01*
X324249Y898151D01*
X325381Y897019D01*
X326860Y896406D01*
X328460D01*
X329939Y897019D01*
X330835Y897914D01*
X331731Y897019D01*
X333210Y896406D01*
X334810D01*
X336289Y897019D01*
X337421Y898151D01*
X338034Y899630D01*
Y901230D01*
X337421Y902709D01*
X336416Y903715D01*
X337421Y904721D01*
X338034Y906200D01*
Y907800D01*
X337421Y909279D01*
X336830Y909870D01*
X336429Y910700D01*
X336830Y911530D01*
X337421Y912121D01*
X338034Y913600D01*
Y915200D01*
X337421Y916679D01*
X336289Y917811D01*
X334810Y918424D01*
D02*
G37*
G36*
X639610Y922234D02*
X638010D01*
X636531Y921621D01*
X635399Y920489D01*
X634786Y919010D01*
Y917410D01*
X635399Y915931D01*
X636531Y914799D01*
X638010Y914186D01*
X639610D01*
X641089Y914799D01*
X642221Y915931D01*
X642834Y917410D01*
Y919010D01*
X642221Y920489D01*
X641089Y921621D01*
X639610Y922234D01*
D02*
G37*
G36*
X438150Y946150D02*
X379730D01*
Y892810D01*
X438150D01*
Y946150D01*
D02*
G37*
G36*
X620560Y873974D02*
X618960D01*
X617481Y873361D01*
X616349Y872229D01*
X615736Y870750D01*
Y869150D01*
X616349Y867671D01*
X617481Y866539D01*
X618960Y865926D01*
X620560D01*
X622039Y866539D01*
X623171Y867671D01*
X623784Y869150D01*
Y870750D01*
X623171Y872229D01*
X622039Y873361D01*
X620560Y873974D01*
D02*
G37*
G36*
Y861274D02*
X618960D01*
X617481Y860661D01*
X616349Y859529D01*
X615736Y858050D01*
Y856450D01*
X616349Y854971D01*
X617481Y853839D01*
X618960Y853226D01*
X620560D01*
X622039Y853839D01*
X623171Y854971D01*
X623784Y856450D01*
Y858050D01*
X623171Y859529D01*
X622039Y860661D01*
X620560Y861274D01*
D02*
G37*
G36*
X602780Y854924D02*
X601180D01*
X599701Y854311D01*
X598569Y853179D01*
X597956Y851700D01*
Y850100D01*
X598569Y848621D01*
X599701Y847489D01*
X601180Y846876D01*
X602780D01*
X604259Y847489D01*
X605391Y848621D01*
X606004Y850100D01*
Y851700D01*
X605391Y853179D01*
X604259Y854311D01*
X602780Y854924D01*
D02*
G37*
G36*
X304949Y838150D02*
X304977Y837865D01*
X305114Y837151D01*
X305291Y836489D01*
X305507Y835876D01*
X305763Y835314D01*
X306058Y834803D01*
X306392Y834342D01*
X306765Y833932D01*
X304800D01*
Y831850D01*
X311140D01*
X311045Y832205D01*
X309624Y834665D01*
X307615Y836674D01*
X305155Y838095D01*
X304949Y838150D01*
D02*
G37*
G36*
X297040Y838152D02*
X296825Y838095D01*
X294365Y836674D01*
X292356Y834665D01*
X290935Y832205D01*
X290840Y831850D01*
X297180D01*
Y833932D01*
X295215D01*
X295588Y834342D01*
X295922Y834803D01*
X296217Y835314D01*
X296473Y835876D01*
X296689Y836489D01*
X296866Y837151D01*
X297003Y837865D01*
X297040Y838152D01*
D02*
G37*
G36*
X472440Y889000D02*
X403860D01*
Y826770D01*
X472440D01*
Y889000D01*
D02*
G37*
G36*
X276877Y837814D02*
X274303D01*
X271817Y837148D01*
X269589Y835861D01*
X267769Y834041D01*
X266482Y831813D01*
X265816Y829327D01*
Y826753D01*
X266482Y824267D01*
X267769Y822039D01*
X269589Y820219D01*
X271817Y818932D01*
X274303Y818266D01*
X276877D01*
X279363Y818932D01*
X281591Y820219D01*
X283411Y822039D01*
X284698Y824267D01*
X285364Y826753D01*
Y829327D01*
X284698Y831813D01*
X283411Y834041D01*
X281591Y835861D01*
X279363Y837148D01*
X276877Y837814D01*
D02*
G37*
G36*
X311140Y824230D02*
X304800D01*
Y817890D01*
X305155Y817985D01*
X307615Y819406D01*
X309624Y821415D01*
X311045Y823875D01*
X311140Y824230D01*
D02*
G37*
G36*
X297180D02*
X290840D01*
X290935Y823875D01*
X292356Y821415D01*
X294365Y819406D01*
X296825Y817985D01*
X297180Y817890D01*
Y824230D01*
D02*
G37*
G36*
X304800Y812790D02*
Y806450D01*
X311140D01*
X311045Y806805D01*
X309624Y809265D01*
X307615Y811274D01*
X305155Y812695D01*
X304800Y812790D01*
D02*
G37*
G36*
X297180D02*
X296825Y812695D01*
X294365Y811274D01*
X292356Y809265D01*
X290935Y806805D01*
X290840Y806450D01*
X297180D01*
Y812790D01*
D02*
G37*
G36*
X285364Y812414D02*
X265816D01*
Y792866D01*
X285364D01*
Y812414D01*
D02*
G37*
G36*
X311140Y798830D02*
X304800D01*
Y792490D01*
X305155Y792585D01*
X307615Y794006D01*
X309624Y796015D01*
X311045Y798475D01*
X311140Y798830D01*
D02*
G37*
G36*
X297180D02*
X290840D01*
X290935Y798475D01*
X292356Y796015D01*
X294365Y794006D01*
X296825Y792585D01*
X297180Y792490D01*
Y798830D01*
D02*
G37*
G36*
X804710Y782748D02*
X803110D01*
X801631Y782135D01*
X800499Y781003D01*
X799886Y779524D01*
Y777924D01*
X800499Y776445D01*
X801631Y775313D01*
X803110Y774700D01*
X804710D01*
X806189Y775313D01*
X807321Y776445D01*
X807934Y777924D01*
Y779524D01*
X807321Y781003D01*
X806189Y782135D01*
X804710Y782748D01*
D02*
G37*
G36*
X1098080Y774914D02*
X1096480D01*
X1095001Y774301D01*
X1093869Y773169D01*
X1093256Y771690D01*
Y770090D01*
X1093869Y768611D01*
X1095001Y767479D01*
X1096480Y766866D01*
X1098080D01*
X1099559Y767479D01*
X1100691Y768611D01*
X1101304Y770090D01*
Y771690D01*
X1100691Y773169D01*
X1099559Y774301D01*
X1098080Y774914D01*
D02*
G37*
G36*
X1035850D02*
X1034250D01*
X1032771Y774301D01*
X1031639Y773169D01*
X1031026Y771690D01*
Y770090D01*
X1031639Y768611D01*
X1032771Y767479D01*
X1034250Y766866D01*
X1035850D01*
X1037329Y767479D01*
X1038461Y768611D01*
X1039074Y770090D01*
Y771690D01*
X1038461Y773169D01*
X1037329Y774301D01*
X1035850Y774914D01*
D02*
G37*
G36*
X973620D02*
X972020D01*
X970541Y774301D01*
X969409Y773169D01*
X968796Y771690D01*
Y770090D01*
X969409Y768611D01*
X970541Y767479D01*
X972020Y766866D01*
X973620D01*
X975099Y767479D01*
X976231Y768611D01*
X976844Y770090D01*
Y771690D01*
X976231Y773169D01*
X975099Y774301D01*
X973620Y774914D01*
D02*
G37*
G36*
X911390D02*
X909790D01*
X908311Y774301D01*
X907179Y773169D01*
X906566Y771690D01*
Y770090D01*
X907179Y768611D01*
X908311Y767479D01*
X909790Y766866D01*
X911390D01*
X912869Y767479D01*
X914001Y768611D01*
X914614Y770090D01*
Y771690D01*
X914001Y773169D01*
X912869Y774301D01*
X911390Y774914D01*
D02*
G37*
G36*
X849160D02*
X847560D01*
X846081Y774301D01*
X844949Y773169D01*
X844336Y771690D01*
Y770090D01*
X844949Y768611D01*
X846081Y767479D01*
X847560Y766866D01*
X849160D01*
X850639Y767479D01*
X851771Y768611D01*
X852384Y770090D01*
Y771690D01*
X851771Y773169D01*
X850639Y774301D01*
X849160Y774914D01*
D02*
G37*
G36*
X742480D02*
X740880D01*
X739401Y774301D01*
X738269Y773169D01*
X737656Y771690D01*
Y770090D01*
X738269Y768611D01*
X739401Y767479D01*
X740880Y766866D01*
X742480D01*
X743959Y767479D01*
X745091Y768611D01*
X745704Y770090D01*
Y771690D01*
X745091Y773169D01*
X743959Y774301D01*
X742480Y774914D01*
D02*
G37*
G36*
X680250D02*
X678650D01*
X677171Y774301D01*
X676039Y773169D01*
X675426Y771690D01*
Y770090D01*
X676039Y768611D01*
X677171Y767479D01*
X678650Y766866D01*
X680250D01*
X681729Y767479D01*
X682861Y768611D01*
X683474Y770090D01*
Y771690D01*
X682861Y773169D01*
X681729Y774301D01*
X680250Y774914D01*
D02*
G37*
G36*
X618020D02*
X616420D01*
X614941Y774301D01*
X613809Y773169D01*
X613196Y771690D01*
Y770090D01*
X613809Y768611D01*
X614941Y767479D01*
X616420Y766866D01*
X618020D01*
X619499Y767479D01*
X620631Y768611D01*
X621244Y770090D01*
Y771690D01*
X620631Y773169D01*
X619499Y774301D01*
X618020Y774914D01*
D02*
G37*
G36*
X555790D02*
X554190D01*
X552711Y774301D01*
X551579Y773169D01*
X550966Y771690D01*
Y770090D01*
X551579Y768611D01*
X552711Y767479D01*
X554190Y766866D01*
X555790D01*
X557269Y767479D01*
X558401Y768611D01*
X559014Y770090D01*
Y771690D01*
X558401Y773169D01*
X557269Y774301D01*
X555790Y774914D01*
D02*
G37*
G36*
X304800Y755640D02*
Y749300D01*
X311140D01*
X311045Y749655D01*
X309624Y752115D01*
X307615Y754124D01*
X305155Y755545D01*
X304800Y755640D01*
D02*
G37*
G36*
X279400D02*
Y749300D01*
X285740D01*
X285645Y749655D01*
X284224Y752115D01*
X282215Y754124D01*
X279755Y755545D01*
X279400Y755640D01*
D02*
G37*
G36*
X297180D02*
X296825Y755545D01*
X294365Y754124D01*
X292356Y752115D01*
X290935Y749655D01*
X290840Y749300D01*
X297180D01*
Y755640D01*
D02*
G37*
G36*
X271780D02*
X271425Y755545D01*
X268965Y754124D01*
X266956Y752115D01*
X265535Y749655D01*
X265440Y749300D01*
X271780D01*
Y755640D01*
D02*
G37*
G36*
X311140Y741680D02*
X310541D01*
X310756Y741362D01*
X310933Y741133D01*
X311045Y741325D01*
X311140Y741680D01*
D02*
G37*
G36*
X305512D02*
X304800D01*
Y740968D01*
X305512Y741680D01*
D02*
G37*
G36*
X304800Y735939D02*
Y735340D01*
X305155Y735435D01*
X305340Y735542D01*
X305118Y735724D01*
X304800Y735939D01*
D02*
G37*
G36*
X285740Y741680D02*
X279400D01*
Y735340D01*
X279755Y735435D01*
X282215Y736856D01*
X284224Y738865D01*
X285645Y741325D01*
X285740Y741680D01*
D02*
G37*
G36*
X297180D02*
X290840D01*
X290935Y741325D01*
X292356Y738865D01*
X294365Y736856D01*
X296825Y735435D01*
X297180Y735340D01*
Y741680D01*
D02*
G37*
G36*
X271780D02*
X265440D01*
X265535Y741325D01*
X266956Y738865D01*
X268965Y736856D01*
X271425Y735435D01*
X271780Y735340D01*
Y741680D01*
D02*
G37*
G36*
X1062690Y739681D02*
Y734060D01*
X1068311D01*
X1068108Y734816D01*
X1066984Y736764D01*
X1065394Y738354D01*
X1063446Y739478D01*
X1062690Y739681D01*
D02*
G37*
G36*
X719120Y739681D02*
Y734060D01*
X724741D01*
X724538Y734816D01*
X723414Y736764D01*
X721824Y738354D01*
X719876Y739478D01*
X719120Y739681D01*
D02*
G37*
G36*
X714040Y739681D02*
X713284Y739478D01*
X711336Y738354D01*
X709746Y736764D01*
X708622Y734816D01*
X708419Y734060D01*
X714040D01*
Y739681D01*
D02*
G37*
G36*
X1057610Y739681D02*
X1056854Y739478D01*
X1054906Y738354D01*
X1053316Y736764D01*
X1052192Y734816D01*
X1051989Y734060D01*
X1057610D01*
Y739681D01*
D02*
G37*
G36*
X1124820Y739681D02*
Y734060D01*
X1130441D01*
X1130238Y734816D01*
X1129114Y736764D01*
X1127524Y738354D01*
X1125576Y739478D01*
X1124820Y739681D01*
D02*
G37*
G36*
X876300D02*
Y734060D01*
X881921D01*
X881718Y734816D01*
X880594Y736764D01*
X879004Y738354D01*
X877056Y739478D01*
X876300Y739681D01*
D02*
G37*
G36*
X781450D02*
Y734060D01*
X787071D01*
X786868Y734816D01*
X785744Y736764D01*
X784154Y738354D01*
X782206Y739478D01*
X781450Y739681D01*
D02*
G37*
G36*
X656790D02*
Y734060D01*
X662411D01*
X662208Y734816D01*
X661084Y736764D01*
X659494Y738354D01*
X657546Y739478D01*
X656790Y739681D01*
D02*
G37*
G36*
X532130D02*
Y734060D01*
X537751D01*
X537548Y734816D01*
X536424Y736764D01*
X534834Y738354D01*
X532886Y739478D01*
X532130Y739681D01*
D02*
G37*
G36*
X776370Y739681D02*
X775614Y739478D01*
X773666Y738354D01*
X772076Y736764D01*
X770952Y734816D01*
X770749Y734060D01*
X776370D01*
Y739681D01*
D02*
G37*
G36*
X651710D02*
X650954Y739478D01*
X649006Y738354D01*
X647416Y736764D01*
X646292Y734816D01*
X646089Y734060D01*
X651710D01*
Y739681D01*
D02*
G37*
G36*
X527050D02*
X526294Y739478D01*
X524346Y738354D01*
X522756Y736764D01*
X521632Y734816D01*
X521429Y734060D01*
X527050D01*
Y739681D01*
D02*
G37*
G36*
X1119740D02*
X1118984Y739478D01*
X1117036Y738354D01*
X1115446Y736764D01*
X1114322Y734816D01*
X1114119Y734060D01*
X1119740D01*
Y739681D01*
D02*
G37*
G36*
X871220D02*
X870464Y739478D01*
X868516Y738354D01*
X866926Y736764D01*
X865802Y734816D01*
X865599Y734060D01*
X871220D01*
Y739681D01*
D02*
G37*
G36*
X938430D02*
Y734060D01*
X944051D01*
X943848Y734816D01*
X942724Y736764D01*
X941134Y738354D01*
X939186Y739478D01*
X938430Y739681D01*
D02*
G37*
G36*
X594460Y739681D02*
Y734060D01*
X600081D01*
X599878Y734816D01*
X598754Y736764D01*
X597164Y738354D01*
X595216Y739478D01*
X594460Y739681D01*
D02*
G37*
G36*
X589380Y739681D02*
X588624Y739478D01*
X586676Y738354D01*
X585086Y736764D01*
X583962Y734816D01*
X583759Y734060D01*
X589380D01*
Y739681D01*
D02*
G37*
G36*
X933350Y739681D02*
X932594Y739478D01*
X930646Y738354D01*
X929056Y736764D01*
X927932Y734816D01*
X927729Y734060D01*
X933350D01*
Y739681D01*
D02*
G37*
G36*
X1000560Y739681D02*
Y734060D01*
X1006181D01*
X1005978Y734816D01*
X1004854Y736764D01*
X1003264Y738354D01*
X1001316Y739478D01*
X1000560Y739681D01*
D02*
G37*
G36*
X995480Y739681D02*
X994724Y739478D01*
X992776Y738354D01*
X991186Y736764D01*
X990062Y734816D01*
X989859Y734060D01*
X995480D01*
Y739681D01*
D02*
G37*
G36*
X1098270Y739044D02*
X1096290D01*
X1094376Y738531D01*
X1092660Y737541D01*
X1091259Y736140D01*
X1090269Y734424D01*
X1089756Y732511D01*
Y730529D01*
X1090269Y728616D01*
X1091259Y726900D01*
X1092660Y725499D01*
X1094376Y724509D01*
X1096290Y723996D01*
X1098270D01*
X1100184Y724509D01*
X1101900Y725499D01*
X1103301Y726900D01*
X1104291Y728616D01*
X1104804Y730529D01*
Y732511D01*
X1104291Y734424D01*
X1103301Y736140D01*
X1101900Y737541D01*
X1100184Y738531D01*
X1098270Y739044D01*
D02*
G37*
G36*
X1036141D02*
X1034159D01*
X1032246Y738531D01*
X1030530Y737541D01*
X1029129Y736140D01*
X1028139Y734424D01*
X1027626Y732511D01*
Y730529D01*
X1028139Y728616D01*
X1029129Y726900D01*
X1030530Y725499D01*
X1032246Y724509D01*
X1034159Y723996D01*
X1036141D01*
X1038054Y724509D01*
X1039770Y725499D01*
X1041171Y726900D01*
X1042161Y728616D01*
X1042674Y730529D01*
Y732511D01*
X1042161Y734424D01*
X1041171Y736140D01*
X1039770Y737541D01*
X1038054Y738531D01*
X1036141Y739044D01*
D02*
G37*
G36*
X974010D02*
X972029D01*
X970116Y738531D01*
X968400Y737541D01*
X966999Y736140D01*
X966009Y734424D01*
X965496Y732511D01*
Y730529D01*
X966009Y728616D01*
X966999Y726900D01*
X968400Y725499D01*
X970116Y724509D01*
X972029Y723996D01*
X974010D01*
X975924Y724509D01*
X977640Y725499D01*
X979041Y726900D01*
X980031Y728616D01*
X980544Y730529D01*
Y732511D01*
X980031Y734424D01*
X979041Y736140D01*
X977640Y737541D01*
X975924Y738531D01*
X974010Y739044D01*
D02*
G37*
G36*
X911880D02*
X909900D01*
X907986Y738531D01*
X906270Y737541D01*
X904869Y736140D01*
X903879Y734424D01*
X903366Y732511D01*
Y730529D01*
X903879Y728616D01*
X904869Y726900D01*
X906270Y725499D01*
X907986Y724509D01*
X909900Y723996D01*
X911880D01*
X913794Y724509D01*
X915510Y725499D01*
X916911Y726900D01*
X917901Y728616D01*
X918414Y730529D01*
Y732511D01*
X917901Y734424D01*
X916911Y736140D01*
X915510Y737541D01*
X913794Y738531D01*
X911880Y739044D01*
D02*
G37*
G36*
X849751D02*
X847769D01*
X845856Y738531D01*
X844140Y737541D01*
X842739Y736140D01*
X841749Y734424D01*
X841236Y732511D01*
Y730529D01*
X841749Y728616D01*
X842739Y726900D01*
X844140Y725499D01*
X845856Y724509D01*
X847769Y723996D01*
X849751D01*
X851664Y724509D01*
X853380Y725499D01*
X854781Y726900D01*
X855771Y728616D01*
X856284Y730529D01*
Y732511D01*
X855771Y734424D01*
X854781Y736140D01*
X853380Y737541D01*
X851664Y738531D01*
X849751Y739044D01*
D02*
G37*
G36*
X811434D02*
X796386D01*
Y723996D01*
X811434D01*
Y739044D01*
D02*
G37*
G36*
X749104D02*
X734056D01*
Y723996D01*
X749104D01*
Y739044D01*
D02*
G37*
G36*
X686774D02*
X671726D01*
Y723996D01*
X686774D01*
Y739044D01*
D02*
G37*
G36*
X624444D02*
X609396D01*
Y723996D01*
X624444D01*
Y739044D01*
D02*
G37*
G36*
X562114D02*
X547066D01*
Y723996D01*
X562114D01*
Y739044D01*
D02*
G37*
G36*
X304800Y730240D02*
Y723900D01*
X311140D01*
X311045Y724255D01*
X309624Y726715D01*
X307615Y728724D01*
X305155Y730145D01*
X304800Y730240D01*
D02*
G37*
G36*
X279400D02*
Y723900D01*
X285740D01*
X285645Y724255D01*
X284224Y726715D01*
X282215Y728724D01*
X279755Y730145D01*
X279400Y730240D01*
D02*
G37*
G36*
X297180D02*
X296825Y730145D01*
X294365Y728724D01*
X292356Y726715D01*
X290935Y724255D01*
X290840Y723900D01*
X297180D01*
Y730240D01*
D02*
G37*
G36*
X271780D02*
X271425Y730145D01*
X268965Y728724D01*
X266956Y726715D01*
X265535Y724255D01*
X265440Y723900D01*
X271780D01*
Y730240D01*
D02*
G37*
G36*
X1006181Y728980D02*
X1000560D01*
Y723359D01*
X1001316Y723562D01*
X1003264Y724686D01*
X1004854Y726276D01*
X1005978Y728224D01*
X1006181Y728980D01*
D02*
G37*
G36*
X944051Y728980D02*
X938430D01*
Y723359D01*
X939186Y723562D01*
X941134Y724686D01*
X942724Y726276D01*
X943848Y728224D01*
X944051Y728980D01*
D02*
G37*
G36*
X724741Y728980D02*
X719120D01*
Y723359D01*
X719876Y723562D01*
X721824Y724686D01*
X723414Y726276D01*
X724538Y728224D01*
X724741Y728980D01*
D02*
G37*
G36*
X589380Y728980D02*
X583759D01*
X583962Y728224D01*
X585086Y726276D01*
X586676Y724686D01*
X588624Y723562D01*
X589380Y723359D01*
Y728980D01*
D02*
G37*
G36*
X1057610Y728980D02*
X1051989D01*
X1052192Y728224D01*
X1053316Y726276D01*
X1054906Y724686D01*
X1056854Y723562D01*
X1057610Y723359D01*
Y728980D01*
D02*
G37*
G36*
X1130441Y728980D02*
X1124820D01*
Y723359D01*
X1125576Y723562D01*
X1127524Y724686D01*
X1129114Y726276D01*
X1130238Y728224D01*
X1130441Y728980D01*
D02*
G37*
G36*
X881921D02*
X876300D01*
Y723359D01*
X877056Y723562D01*
X879004Y724686D01*
X880594Y726276D01*
X881718Y728224D01*
X881921Y728980D01*
D02*
G37*
G36*
X787071D02*
X781450D01*
Y723359D01*
X782206Y723562D01*
X784154Y724686D01*
X785744Y726276D01*
X786868Y728224D01*
X787071Y728980D01*
D02*
G37*
G36*
X662411D02*
X656790D01*
Y723359D01*
X657546Y723562D01*
X659494Y724686D01*
X661084Y726276D01*
X662208Y728224D01*
X662411Y728980D01*
D02*
G37*
G36*
X537751D02*
X532130D01*
Y723359D01*
X532886Y723562D01*
X534834Y724686D01*
X536424Y726276D01*
X537548Y728224D01*
X537751Y728980D01*
D02*
G37*
G36*
X776370D02*
X770749D01*
X770952Y728224D01*
X772076Y726276D01*
X773666Y724686D01*
X775614Y723562D01*
X776370Y723359D01*
Y728980D01*
D02*
G37*
G36*
X651710D02*
X646089D01*
X646292Y728224D01*
X647416Y726276D01*
X649006Y724686D01*
X650954Y723562D01*
X651710Y723359D01*
Y728980D01*
D02*
G37*
G36*
X527050D02*
X521429D01*
X521632Y728224D01*
X522756Y726276D01*
X524346Y724686D01*
X526294Y723562D01*
X527050Y723359D01*
Y728980D01*
D02*
G37*
G36*
X1119740D02*
X1114119D01*
X1114322Y728224D01*
X1115446Y726276D01*
X1117036Y724686D01*
X1118984Y723562D01*
X1119740Y723359D01*
Y728980D01*
D02*
G37*
G36*
X871220D02*
X865599D01*
X865802Y728224D01*
X866926Y726276D01*
X868516Y724686D01*
X870464Y723562D01*
X871220Y723359D01*
Y728980D01*
D02*
G37*
G36*
X1068311Y728980D02*
X1062690D01*
Y723359D01*
X1063446Y723562D01*
X1065394Y724686D01*
X1066984Y726276D01*
X1068108Y728224D01*
X1068311Y728980D01*
D02*
G37*
G36*
X600081Y728980D02*
X594460D01*
Y723359D01*
X595216Y723562D01*
X597164Y724686D01*
X598754Y726276D01*
X599878Y728224D01*
X600081Y728980D01*
D02*
G37*
G36*
X714040Y728980D02*
X708419D01*
X708622Y728224D01*
X709746Y726276D01*
X711336Y724686D01*
X713284Y723562D01*
X714040Y723359D01*
Y728980D01*
D02*
G37*
G36*
X933350Y728980D02*
X927729D01*
X927932Y728224D01*
X929056Y726276D01*
X930646Y724686D01*
X932594Y723562D01*
X933350Y723359D01*
Y728980D01*
D02*
G37*
G36*
X995480Y728980D02*
X989859D01*
X990062Y728224D01*
X991186Y726276D01*
X992776Y724686D01*
X994724Y723562D01*
X995480Y723359D01*
Y728980D01*
D02*
G37*
G36*
X311140Y716280D02*
X304800D01*
Y709940D01*
X305155Y710035D01*
X307615Y711456D01*
X309624Y713465D01*
X311045Y715925D01*
X311140Y716280D01*
D02*
G37*
G36*
X285740D02*
X279400D01*
Y709940D01*
X279755Y710035D01*
X282215Y711456D01*
X284224Y713465D01*
X285645Y715925D01*
X285740Y716280D01*
D02*
G37*
G36*
X297180D02*
X290840D01*
X290935Y715925D01*
X292356Y713465D01*
X294365Y711456D01*
X296825Y710035D01*
X297180Y709940D01*
Y716280D01*
D02*
G37*
G36*
X271780D02*
X265440D01*
X265535Y715925D01*
X266956Y713465D01*
X268965Y711456D01*
X271425Y710035D01*
X271780Y709940D01*
Y716280D01*
D02*
G37*
G36*
X302277Y704464D02*
X299703D01*
X297217Y703798D01*
X294989Y702511D01*
X293169Y700691D01*
X291882Y698463D01*
X291216Y695977D01*
Y693403D01*
X291882Y690917D01*
X293169Y688689D01*
X294989Y686869D01*
X297217Y685582D01*
X299703Y684916D01*
X302277D01*
X304763Y685582D01*
X306991Y686869D01*
X308811Y688689D01*
X310098Y690917D01*
X310764Y693403D01*
Y695977D01*
X310098Y698463D01*
X308811Y700691D01*
X306991Y702511D01*
X304763Y703798D01*
X302277Y704464D01*
D02*
G37*
G36*
X276877D02*
X274303D01*
X271817Y703798D01*
X269589Y702511D01*
X267769Y700691D01*
X266482Y698463D01*
X265816Y695977D01*
Y693403D01*
X266482Y690917D01*
X267769Y688689D01*
X269589Y686869D01*
X271817Y685582D01*
X274303Y684916D01*
X276877D01*
X279363Y685582D01*
X281591Y686869D01*
X283411Y688689D01*
X284698Y690917D01*
X285364Y693403D01*
Y695977D01*
X284698Y698463D01*
X283411Y700691D01*
X281591Y702511D01*
X279363Y703798D01*
X276877Y704464D01*
D02*
G37*
G36*
X302277Y679064D02*
X299703D01*
X297217Y678398D01*
X294989Y677111D01*
X293169Y675291D01*
X291882Y673063D01*
X291216Y670577D01*
Y668003D01*
X291882Y665517D01*
X293169Y663289D01*
X294989Y661469D01*
X297217Y660182D01*
X299703Y659516D01*
X302277D01*
X304763Y660182D01*
X306991Y661469D01*
X308811Y663289D01*
X310098Y665517D01*
X310764Y668003D01*
Y670577D01*
X310098Y673063D01*
X308811Y675291D01*
X306991Y677111D01*
X304763Y678398D01*
X302277Y679064D01*
D02*
G37*
G36*
X285364D02*
X265816D01*
Y659516D01*
X285364D01*
Y679064D01*
D02*
G37*
G36*
X1123271Y662844D02*
X1121290D01*
X1119376Y662331D01*
X1117660Y661341D01*
X1116259Y659940D01*
X1115269Y658224D01*
X1114756Y656311D01*
Y654330D01*
X1115269Y652416D01*
X1116259Y650700D01*
X1117660Y649299D01*
X1119376Y648309D01*
X1121290Y647796D01*
X1123271D01*
X1125184Y648309D01*
X1126900Y649299D01*
X1128301Y650700D01*
X1129291Y652416D01*
X1129804Y654330D01*
Y656311D01*
X1129291Y658224D01*
X1128301Y659940D01*
X1126900Y661341D01*
X1125184Y662331D01*
X1123271Y662844D01*
D02*
G37*
G36*
X1104804D02*
X1089756D01*
Y647796D01*
X1104804D01*
Y662844D01*
D02*
G37*
G36*
X1061141D02*
X1059159D01*
X1057246Y662331D01*
X1055530Y661341D01*
X1054129Y659940D01*
X1053139Y658224D01*
X1052626Y656311D01*
Y654330D01*
X1053139Y652416D01*
X1054129Y650700D01*
X1055530Y649299D01*
X1057246Y648309D01*
X1059159Y647796D01*
X1061141D01*
X1063054Y648309D01*
X1064770Y649299D01*
X1066171Y650700D01*
X1067161Y652416D01*
X1067674Y654330D01*
Y656311D01*
X1067161Y658224D01*
X1066171Y659940D01*
X1064770Y661341D01*
X1063054Y662331D01*
X1061141Y662844D01*
D02*
G37*
G36*
X1042674D02*
X1027626D01*
Y647796D01*
X1042674D01*
Y662844D01*
D02*
G37*
G36*
X999010D02*
X997029D01*
X995116Y662331D01*
X993400Y661341D01*
X991999Y659940D01*
X991009Y658224D01*
X990496Y656311D01*
Y654330D01*
X991009Y652416D01*
X991999Y650700D01*
X993400Y649299D01*
X995116Y648309D01*
X997029Y647796D01*
X999010D01*
X1000924Y648309D01*
X1002640Y649299D01*
X1004041Y650700D01*
X1005031Y652416D01*
X1005544Y654330D01*
Y656311D01*
X1005031Y658224D01*
X1004041Y659940D01*
X1002640Y661341D01*
X1000924Y662331D01*
X999010Y662844D01*
D02*
G37*
G36*
X980544D02*
X965496D01*
Y647796D01*
X980544D01*
Y662844D01*
D02*
G37*
G36*
X936880D02*
X934900D01*
X932986Y662331D01*
X931270Y661341D01*
X929869Y659940D01*
X928879Y658224D01*
X928366Y656311D01*
Y654330D01*
X928879Y652416D01*
X929869Y650700D01*
X931270Y649299D01*
X932986Y648309D01*
X934900Y647796D01*
X936880D01*
X938794Y648309D01*
X940510Y649299D01*
X941911Y650700D01*
X942901Y652416D01*
X943414Y654330D01*
Y656311D01*
X942901Y658224D01*
X941911Y659940D01*
X940510Y661341D01*
X938794Y662331D01*
X936880Y662844D01*
D02*
G37*
G36*
X918414D02*
X903366D01*
Y647796D01*
X918414D01*
Y662844D01*
D02*
G37*
G36*
X874751D02*
X872769D01*
X870856Y662331D01*
X869140Y661341D01*
X867739Y659940D01*
X866749Y658224D01*
X866236Y656311D01*
Y654330D01*
X866749Y652416D01*
X867739Y650700D01*
X869140Y649299D01*
X870856Y648309D01*
X872769Y647796D01*
X874751D01*
X876664Y648309D01*
X878380Y649299D01*
X879781Y650700D01*
X880771Y652416D01*
X881284Y654330D01*
Y656311D01*
X880771Y658224D01*
X879781Y659940D01*
X878380Y661341D01*
X876664Y662331D01*
X874751Y662844D01*
D02*
G37*
G36*
X856284D02*
X841236D01*
Y647796D01*
X856284D01*
Y662844D01*
D02*
G37*
G36*
X804901D02*
X802919D01*
X801006Y662331D01*
X799290Y661341D01*
X797889Y659940D01*
X796899Y658224D01*
X796386Y656311D01*
Y654330D01*
X796899Y652416D01*
X797889Y650700D01*
X799290Y649299D01*
X801006Y648309D01*
X802919Y647796D01*
X804901D01*
X806814Y648309D01*
X808530Y649299D01*
X809931Y650700D01*
X810921Y652416D01*
X811434Y654330D01*
Y656311D01*
X810921Y658224D01*
X809931Y659940D01*
X808530Y661341D01*
X806814Y662331D01*
X804901Y662844D01*
D02*
G37*
G36*
X779901D02*
X777919D01*
X776006Y662331D01*
X774290Y661341D01*
X772889Y659940D01*
X771899Y658224D01*
X771386Y656311D01*
Y654330D01*
X771899Y652416D01*
X772889Y650700D01*
X774290Y649299D01*
X776006Y648309D01*
X777919Y647796D01*
X779901D01*
X781814Y648309D01*
X783530Y649299D01*
X784931Y650700D01*
X785921Y652416D01*
X786434Y654330D01*
Y656311D01*
X785921Y658224D01*
X784931Y659940D01*
X783530Y661341D01*
X781814Y662331D01*
X779901Y662844D01*
D02*
G37*
G36*
X742570D02*
X740590D01*
X738676Y662331D01*
X736960Y661341D01*
X735559Y659940D01*
X734569Y658224D01*
X734056Y656311D01*
Y654330D01*
X734569Y652416D01*
X735559Y650700D01*
X736960Y649299D01*
X738676Y648309D01*
X740590Y647796D01*
X742570D01*
X744484Y648309D01*
X746200Y649299D01*
X747601Y650700D01*
X748591Y652416D01*
X749104Y654330D01*
Y656311D01*
X748591Y658224D01*
X747601Y659940D01*
X746200Y661341D01*
X744484Y662331D01*
X742570Y662844D01*
D02*
G37*
G36*
X717570D02*
X715590D01*
X713676Y662331D01*
X711960Y661341D01*
X710559Y659940D01*
X709569Y658224D01*
X709056Y656311D01*
Y654330D01*
X709569Y652416D01*
X710559Y650700D01*
X711960Y649299D01*
X713676Y648309D01*
X715590Y647796D01*
X717570D01*
X719484Y648309D01*
X721200Y649299D01*
X722601Y650700D01*
X723591Y652416D01*
X724104Y654330D01*
Y656311D01*
X723591Y658224D01*
X722601Y659940D01*
X721200Y661341D01*
X719484Y662331D01*
X717570Y662844D01*
D02*
G37*
G36*
X680240D02*
X678260D01*
X676346Y662331D01*
X674630Y661341D01*
X673229Y659940D01*
X672239Y658224D01*
X671726Y656311D01*
Y654330D01*
X672239Y652416D01*
X673229Y650700D01*
X674630Y649299D01*
X676346Y648309D01*
X678260Y647796D01*
X680240D01*
X682154Y648309D01*
X683870Y649299D01*
X685271Y650700D01*
X686261Y652416D01*
X686774Y654330D01*
Y656311D01*
X686261Y658224D01*
X685271Y659940D01*
X683870Y661341D01*
X682154Y662331D01*
X680240Y662844D01*
D02*
G37*
G36*
X655240D02*
X653260D01*
X651346Y662331D01*
X649630Y661341D01*
X648229Y659940D01*
X647239Y658224D01*
X646726Y656311D01*
Y654330D01*
X647239Y652416D01*
X648229Y650700D01*
X649630Y649299D01*
X651346Y648309D01*
X653260Y647796D01*
X655240D01*
X657154Y648309D01*
X658870Y649299D01*
X660271Y650700D01*
X661261Y652416D01*
X661774Y654330D01*
Y656311D01*
X661261Y658224D01*
X660271Y659940D01*
X658870Y661341D01*
X657154Y662331D01*
X655240Y662844D01*
D02*
G37*
G36*
X617910D02*
X615929D01*
X614016Y662331D01*
X612300Y661341D01*
X610899Y659940D01*
X609909Y658224D01*
X609396Y656311D01*
Y654330D01*
X609909Y652416D01*
X610899Y650700D01*
X612300Y649299D01*
X614016Y648309D01*
X615929Y647796D01*
X617910D01*
X619824Y648309D01*
X621540Y649299D01*
X622941Y650700D01*
X623931Y652416D01*
X624444Y654330D01*
Y656311D01*
X623931Y658224D01*
X622941Y659940D01*
X621540Y661341D01*
X619824Y662331D01*
X617910Y662844D01*
D02*
G37*
G36*
X592910D02*
X590929D01*
X589016Y662331D01*
X587300Y661341D01*
X585899Y659940D01*
X584909Y658224D01*
X584396Y656311D01*
Y654330D01*
X584909Y652416D01*
X585899Y650700D01*
X587300Y649299D01*
X589016Y648309D01*
X590929Y647796D01*
X592910D01*
X594824Y648309D01*
X596540Y649299D01*
X597941Y650700D01*
X598931Y652416D01*
X599444Y654330D01*
Y656311D01*
X598931Y658224D01*
X597941Y659940D01*
X596540Y661341D01*
X594824Y662331D01*
X592910Y662844D01*
D02*
G37*
G36*
X555580D02*
X553600D01*
X551686Y662331D01*
X549970Y661341D01*
X548569Y659940D01*
X547579Y658224D01*
X547066Y656311D01*
Y654330D01*
X547579Y652416D01*
X548569Y650700D01*
X549970Y649299D01*
X551686Y648309D01*
X553600Y647796D01*
X555580D01*
X557494Y648309D01*
X559210Y649299D01*
X560611Y650700D01*
X561601Y652416D01*
X562114Y654330D01*
Y656311D01*
X561601Y658224D01*
X560611Y659940D01*
X559210Y661341D01*
X557494Y662331D01*
X555580Y662844D01*
D02*
G37*
G36*
X530580D02*
X528600D01*
X526686Y662331D01*
X524970Y661341D01*
X523569Y659940D01*
X522579Y658224D01*
X522066Y656311D01*
Y654330D01*
X522579Y652416D01*
X523569Y650700D01*
X524970Y649299D01*
X526686Y648309D01*
X528600Y647796D01*
X530580D01*
X532494Y648309D01*
X534210Y649299D01*
X535611Y650700D01*
X536601Y652416D01*
X537114Y654330D01*
Y656311D01*
X536601Y658224D01*
X535611Y659940D01*
X534210Y661341D01*
X532494Y662331D01*
X530580Y662844D01*
D02*
G37*
G36*
X507530Y611084D02*
X505930D01*
X504451Y610471D01*
X503727Y609748D01*
X502920Y609474D01*
X502113Y609748D01*
X501389Y610471D01*
X499910Y611084D01*
X498310D01*
X496831Y610471D01*
X495699Y609339D01*
X495086Y607860D01*
Y606260D01*
X495699Y604781D01*
X496831Y603649D01*
X497858Y603223D01*
X498277Y602994D01*
X498632Y601468D01*
X498310Y600924D01*
X497805Y600715D01*
X496831Y600311D01*
X495699Y599179D01*
X495086Y597700D01*
Y596100D01*
X495699Y594621D01*
X496831Y593489D01*
X498310Y592876D01*
X499910D01*
X501389Y593489D01*
X502521Y594621D01*
X503134Y596100D01*
Y596657D01*
X503803Y597786D01*
X504307Y597995D01*
X505282Y598399D01*
X506414Y599531D01*
X507026Y601010D01*
Y602610D01*
X508123Y603282D01*
X509009Y603649D01*
X510141Y604781D01*
X510754Y606260D01*
Y607860D01*
X510141Y609339D01*
X509009Y610471D01*
X507530Y611084D01*
D02*
G37*
G36*
X313764Y623244D02*
X288216D01*
Y597696D01*
X313764D01*
Y623244D01*
D02*
G37*
G36*
X347510Y574254D02*
X345910D01*
X344431Y573641D01*
X343707Y572918D01*
X342900Y572644D01*
X342093Y572918D01*
X341369Y573641D01*
X339890Y574254D01*
X338290D01*
X336811Y573641D01*
X336087Y572918D01*
X335280Y572644D01*
X334473Y572918D01*
X333749Y573641D01*
X332270Y574254D01*
X330670D01*
X329191Y573641D01*
X328059Y572509D01*
X327446Y571030D01*
Y569430D01*
X328059Y567951D01*
X328954Y567055D01*
X328059Y566159D01*
X327446Y564680D01*
Y563080D01*
X328059Y561601D01*
X328954Y560705D01*
X328059Y559809D01*
X327446Y558330D01*
Y556730D01*
X328059Y555251D01*
X329191Y554119D01*
X330670Y553506D01*
X332270D01*
X333749Y554119D01*
X334473Y554842D01*
X335280Y555116D01*
X336087Y554842D01*
X336811Y554119D01*
X338290Y553506D01*
X339890D01*
X341369Y554119D01*
X342093Y554842D01*
X342900Y555116D01*
X343707Y554842D01*
X344431Y554119D01*
X345910Y553506D01*
X347510D01*
X348989Y554119D01*
X350121Y555251D01*
X350734Y556730D01*
Y558330D01*
X350121Y559809D01*
X349226Y560705D01*
X350121Y561601D01*
X350734Y563080D01*
Y564680D01*
X350121Y566159D01*
X349226Y567055D01*
X350121Y567951D01*
X350734Y569430D01*
Y571030D01*
X350121Y572509D01*
X348989Y573641D01*
X347510Y574254D01*
D02*
G37*
G36*
X303530Y574066D02*
Y572566D01*
X303860Y572681D01*
X304823Y573090D01*
X305634Y573502D01*
X303530Y574066D01*
D02*
G37*
G36*
X312714Y567744D02*
X312487Y567154D01*
X312228Y566206D01*
X312062Y565227D01*
X311989Y564215D01*
X312009Y563171D01*
X312026Y563010D01*
X314586D01*
X313840Y565793D01*
X312714Y567744D01*
D02*
G37*
G36*
X303530Y568633D02*
Y563010D01*
X310919D01*
X303530Y568633D01*
D02*
G37*
G36*
X298450Y574066D02*
X295667Y573320D01*
X292523Y571505D01*
X289955Y568937D01*
X288140Y565793D01*
X287394Y563010D01*
X298450D01*
Y574066D01*
D02*
G37*
G36*
X1122894Y573884D02*
X1119926D01*
X1117058Y573116D01*
X1114488Y571631D01*
X1112389Y569532D01*
X1110904Y566962D01*
X1110136Y564094D01*
Y561126D01*
X1110904Y558258D01*
X1112389Y555688D01*
X1114488Y553589D01*
X1117058Y552104D01*
X1119926Y551336D01*
X1122894D01*
X1125762Y552104D01*
X1128332Y553589D01*
X1130431Y555688D01*
X1131916Y558258D01*
X1132684Y561126D01*
Y564094D01*
X1131916Y566962D01*
X1130431Y569532D01*
X1128332Y571631D01*
X1125762Y573116D01*
X1122894Y573884D01*
D02*
G37*
G36*
X1107284D02*
X1084736D01*
Y551336D01*
X1107284D01*
Y573884D01*
D02*
G37*
G36*
X1060982D02*
X1058013D01*
X1055146Y573116D01*
X1052575Y571631D01*
X1050476Y569532D01*
X1048992Y566962D01*
X1048223Y564094D01*
Y561126D01*
X1048992Y558258D01*
X1050476Y555688D01*
X1052575Y553589D01*
X1055146Y552104D01*
X1058013Y551336D01*
X1060982D01*
X1063849Y552104D01*
X1066420Y553589D01*
X1068519Y555688D01*
X1070003Y558258D01*
X1070771Y561126D01*
Y564094D01*
X1070003Y566962D01*
X1068519Y569532D01*
X1066420Y571631D01*
X1063849Y573116D01*
X1060982Y573884D01*
D02*
G37*
G36*
X1045371D02*
X1022823D01*
Y551336D01*
X1045371D01*
Y573884D01*
D02*
G37*
G36*
X999069D02*
X996101D01*
X993233Y573116D01*
X990663Y571631D01*
X988564Y569532D01*
X987079Y566962D01*
X986311Y564094D01*
Y561126D01*
X987079Y558258D01*
X988564Y555688D01*
X990663Y553589D01*
X993233Y552104D01*
X996101Y551336D01*
X999069D01*
X1001937Y552104D01*
X1004507Y553589D01*
X1006606Y555688D01*
X1008091Y558258D01*
X1008859Y561126D01*
Y564094D01*
X1008091Y566962D01*
X1006606Y569532D01*
X1004507Y571631D01*
X1001937Y573116D01*
X999069Y573884D01*
D02*
G37*
G36*
X983459D02*
X960911D01*
Y551336D01*
X983459D01*
Y573884D01*
D02*
G37*
G36*
X937157D02*
X934188D01*
X931321Y573116D01*
X928750Y571631D01*
X926651Y569532D01*
X925167Y566962D01*
X924398Y564094D01*
Y561126D01*
X925167Y558258D01*
X926651Y555688D01*
X928750Y553589D01*
X931321Y552104D01*
X934188Y551336D01*
X937157D01*
X940024Y552104D01*
X942595Y553589D01*
X944694Y555688D01*
X946178Y558258D01*
X946946Y561126D01*
Y564094D01*
X946178Y566962D01*
X944694Y569532D01*
X942595Y571631D01*
X940024Y573116D01*
X937157Y573884D01*
D02*
G37*
G36*
X921546D02*
X898998D01*
Y551336D01*
X921546D01*
Y573884D01*
D02*
G37*
G36*
X875244D02*
X872276D01*
X869408Y573116D01*
X866838Y571631D01*
X864739Y569532D01*
X863254Y566962D01*
X862486Y564094D01*
Y561126D01*
X863254Y558258D01*
X864739Y555688D01*
X866838Y553589D01*
X869408Y552104D01*
X872276Y551336D01*
X875244D01*
X878112Y552104D01*
X880682Y553589D01*
X882781Y555688D01*
X884266Y558258D01*
X885034Y561126D01*
Y564094D01*
X884266Y566962D01*
X882781Y569532D01*
X880682Y571631D01*
X878112Y573116D01*
X875244Y573884D01*
D02*
G37*
G36*
X859634D02*
X837086D01*
Y551336D01*
X859634D01*
Y573884D01*
D02*
G37*
G36*
X805394D02*
X802426D01*
X799558Y573116D01*
X796988Y571631D01*
X794889Y569532D01*
X793404Y566962D01*
X792636Y564094D01*
Y561126D01*
X793404Y558258D01*
X794889Y555688D01*
X796988Y553589D01*
X799558Y552104D01*
X802426Y551336D01*
X805394D01*
X808262Y552104D01*
X810832Y553589D01*
X812931Y555688D01*
X814416Y558258D01*
X815184Y561126D01*
Y564094D01*
X814416Y566962D01*
X812931Y569532D01*
X810832Y571631D01*
X808262Y573116D01*
X805394Y573884D01*
D02*
G37*
G36*
X789784D02*
X767236D01*
Y551336D01*
X789784D01*
Y573884D01*
D02*
G37*
G36*
X743164D02*
X740196D01*
X737328Y573116D01*
X734758Y571631D01*
X732659Y569532D01*
X731174Y566962D01*
X730406Y564094D01*
Y561126D01*
X731174Y558258D01*
X732659Y555688D01*
X734758Y553589D01*
X737328Y552104D01*
X740196Y551336D01*
X743164D01*
X746032Y552104D01*
X748602Y553589D01*
X750701Y555688D01*
X752186Y558258D01*
X752954Y561126D01*
Y564094D01*
X752186Y566962D01*
X750701Y569532D01*
X748602Y571631D01*
X746032Y573116D01*
X743164Y573884D01*
D02*
G37*
G36*
X727554D02*
X705006D01*
Y551336D01*
X727554D01*
Y573884D01*
D02*
G37*
G36*
X680934D02*
X677966D01*
X675098Y573116D01*
X672528Y571631D01*
X670429Y569532D01*
X668944Y566962D01*
X668176Y564094D01*
Y561126D01*
X668944Y558258D01*
X670429Y555688D01*
X672528Y553589D01*
X675098Y552104D01*
X677966Y551336D01*
X680934D01*
X683802Y552104D01*
X686372Y553589D01*
X688471Y555688D01*
X689956Y558258D01*
X690724Y561126D01*
Y564094D01*
X689956Y566962D01*
X688471Y569532D01*
X686372Y571631D01*
X683802Y573116D01*
X680934Y573884D01*
D02*
G37*
G36*
X665324D02*
X642776D01*
Y551336D01*
X665324D01*
Y573884D01*
D02*
G37*
G36*
X618704D02*
X615736D01*
X612868Y573116D01*
X610298Y571631D01*
X608199Y569532D01*
X606714Y566962D01*
X605946Y564094D01*
Y561126D01*
X606714Y558258D01*
X608199Y555688D01*
X610298Y553589D01*
X612868Y552104D01*
X615736Y551336D01*
X618704D01*
X621572Y552104D01*
X624142Y553589D01*
X626241Y555688D01*
X627726Y558258D01*
X628494Y561126D01*
Y564094D01*
X627726Y566962D01*
X626241Y569532D01*
X624142Y571631D01*
X621572Y573116D01*
X618704Y573884D01*
D02*
G37*
G36*
X603094D02*
X580546D01*
Y551336D01*
X603094D01*
Y573884D01*
D02*
G37*
G36*
X556474D02*
X553506D01*
X550638Y573116D01*
X548068Y571631D01*
X545969Y569532D01*
X544484Y566962D01*
X543716Y564094D01*
Y561126D01*
X544484Y558258D01*
X545969Y555688D01*
X548068Y553589D01*
X550638Y552104D01*
X553506Y551336D01*
X556474D01*
X559342Y552104D01*
X561912Y553589D01*
X564011Y555688D01*
X565496Y558258D01*
X566264Y561126D01*
Y564094D01*
X565496Y566962D01*
X564011Y569532D01*
X561912Y571631D01*
X559342Y573116D01*
X556474Y573884D01*
D02*
G37*
G36*
X540864D02*
X518316D01*
Y551336D01*
X540864D01*
Y573884D01*
D02*
G37*
G36*
X314586Y557930D02*
X303530D01*
Y546874D01*
X306313Y547620D01*
X309457Y549435D01*
X312025Y552003D01*
X313840Y555147D01*
X314586Y557930D01*
D02*
G37*
G36*
X298450D02*
X287394D01*
X288140Y555147D01*
X289955Y552003D01*
X292523Y549435D01*
X295667Y547620D01*
X298450Y546874D01*
Y557930D01*
D02*
G37*
G36*
X474510Y550124D02*
X472910D01*
X471431Y549511D01*
X470299Y548379D01*
X469686Y546900D01*
Y545300D01*
X470299Y543821D01*
X471431Y542689D01*
X472910Y542076D01*
X474510D01*
X475989Y542689D01*
X477121Y543821D01*
X477734Y545300D01*
Y546900D01*
X477121Y548379D01*
X475989Y549511D01*
X474510Y550124D01*
D02*
G37*
G36*
X1224886Y576580D02*
X1221134D01*
X1217453Y575848D01*
X1213986Y574412D01*
X1210866Y572327D01*
X1208213Y569674D01*
X1206128Y566554D01*
X1204692Y563087D01*
X1203960Y559406D01*
Y555654D01*
X1204692Y551973D01*
X1206128Y548506D01*
X1208213Y545386D01*
X1210866Y542733D01*
X1213986Y540648D01*
X1217453Y539212D01*
X1221134Y538480D01*
X1224886D01*
X1228567Y539212D01*
X1232034Y540648D01*
X1235154Y542733D01*
X1237807Y545386D01*
X1239892Y548506D01*
X1241328Y551973D01*
X1242060Y555654D01*
Y559406D01*
X1241328Y563087D01*
X1239892Y566554D01*
X1237807Y569674D01*
X1235154Y572327D01*
X1232034Y574412D01*
X1228567Y575848D01*
X1224886Y576580D01*
D02*
G37*
G36*
X879640Y1014944D02*
X878040D01*
X876561Y1014331D01*
X875429Y1013199D01*
X874816Y1011720D01*
Y1010120D01*
X875429Y1008641D01*
X876561Y1007509D01*
X878040Y1006896D01*
X879640D01*
X881119Y1007509D01*
X882251Y1008641D01*
X882864Y1010120D01*
Y1011720D01*
X882251Y1013199D01*
X881119Y1014331D01*
X879640Y1014944D01*
D02*
G37*
G36*
X854240D02*
X852640D01*
X851161Y1014331D01*
X850029Y1013199D01*
X849416Y1011720D01*
Y1010120D01*
X850029Y1008641D01*
X851161Y1007509D01*
X852640Y1006896D01*
X854240D01*
X855719Y1007509D01*
X856851Y1008641D01*
X857464Y1010120D01*
Y1011720D01*
X856851Y1013199D01*
X855719Y1014331D01*
X854240Y1014944D01*
D02*
G37*
G36*
X981240Y1012404D02*
X979640D01*
X978161Y1011791D01*
X977029Y1010659D01*
X976416Y1009180D01*
Y1007580D01*
X977029Y1006101D01*
X978161Y1004969D01*
X979640Y1004356D01*
X981240D01*
X982719Y1004969D01*
X983851Y1006101D01*
X984464Y1007580D01*
Y1009180D01*
X983851Y1010659D01*
X982719Y1011791D01*
X981240Y1012404D01*
D02*
G37*
G36*
X939330D02*
X937730D01*
X936251Y1011791D01*
X935119Y1010659D01*
X934506Y1009180D01*
Y1007580D01*
X935119Y1006101D01*
X936251Y1004969D01*
X937730Y1004356D01*
X939330D01*
X940809Y1004969D01*
X941941Y1006101D01*
X942554Y1007580D01*
Y1009180D01*
X941941Y1010659D01*
X940809Y1011791D01*
X939330Y1012404D01*
D02*
G37*
G36*
X821921Y1007038D02*
X820321D01*
X818841Y1006425D01*
X817710Y1005293D01*
X817097Y1003814D01*
Y1002214D01*
X817710Y1000735D01*
X818841Y999603D01*
X820321Y998990D01*
X821921D01*
X823400Y999603D01*
X824532Y1000735D01*
X825145Y1002214D01*
Y1003814D01*
X824532Y1005293D01*
X823400Y1006425D01*
X821921Y1007038D01*
D02*
G37*
G36*
X865670Y1006054D02*
X864070D01*
X862591Y1005441D01*
X861459Y1004309D01*
X860846Y1002830D01*
Y1001230D01*
X861459Y999751D01*
X862591Y998619D01*
X864070Y998006D01*
X865670D01*
X867149Y998619D01*
X868281Y999751D01*
X868894Y1001230D01*
Y1002830D01*
X868281Y1004309D01*
X867149Y1005441D01*
X865670Y1006054D01*
D02*
G37*
G36*
X941870Y976844D02*
X940270D01*
X938791Y976231D01*
X937659Y975099D01*
X937046Y973620D01*
Y972020D01*
X937659Y970541D01*
X938791Y969409D01*
X940270Y968796D01*
X941870D01*
X943349Y969409D01*
X944481Y970541D01*
X945094Y972020D01*
Y973620D01*
X944481Y975099D01*
X943349Y976231D01*
X941870Y976844D01*
D02*
G37*
G36*
X812616Y973603D02*
X811016D01*
X809537Y972990D01*
X808405Y971859D01*
X807792Y970379D01*
Y968779D01*
X808405Y967300D01*
X809537Y966168D01*
X811016Y965555D01*
X812616D01*
X814095Y966168D01*
X815227Y967300D01*
X815840Y968779D01*
Y970379D01*
X815227Y971859D01*
X814095Y972990D01*
X812616Y973603D01*
D02*
G37*
G36*
X1002830Y928584D02*
X1001230D01*
X999751Y927971D01*
X998619Y926839D01*
X998006Y925360D01*
Y923760D01*
X998619Y922281D01*
X999751Y921149D01*
X1001230Y920536D01*
X1002830D01*
X1004309Y921149D01*
X1005441Y922281D01*
X1006054Y923760D01*
Y925360D01*
X1005441Y926839D01*
X1004309Y927971D01*
X1002830Y928584D01*
D02*
G37*
G36*
X831380D02*
X829780D01*
X828301Y927971D01*
X827169Y926839D01*
X826556Y925360D01*
Y923760D01*
X827169Y922281D01*
X828301Y921149D01*
X829780Y920536D01*
X831380D01*
X832859Y921149D01*
X833374Y921663D01*
X834451Y920944D01*
X834176Y920280D01*
Y918680D01*
X834789Y917201D01*
X835921Y916069D01*
X837400Y915456D01*
X839000D01*
X840479Y916069D01*
X841611Y917201D01*
X842224Y918680D01*
Y920280D01*
X841611Y921759D01*
X840479Y922891D01*
X839000Y923504D01*
X837400D01*
X835921Y922891D01*
X835406Y922377D01*
X834329Y923096D01*
X834604Y923760D01*
Y925360D01*
X833991Y926839D01*
X832859Y927971D01*
X831380Y928584D01*
D02*
G37*
G36*
X940600Y915884D02*
X939000D01*
X937521Y915271D01*
X936389Y914139D01*
X935776Y912660D01*
Y911060D01*
X936389Y909581D01*
X937521Y908449D01*
X939000Y907836D01*
X940600D01*
X942079Y908449D01*
X943211Y909581D01*
X943824Y911060D01*
Y912660D01*
X943211Y914139D01*
X942079Y915271D01*
X940600Y915884D01*
D02*
G37*
G36*
X996480Y914614D02*
X994880D01*
X993401Y914001D01*
X992269Y912869D01*
X991656Y911390D01*
Y909790D01*
X992269Y908311D01*
X993401Y907179D01*
X994880Y906566D01*
X996480D01*
X997959Y907179D01*
X999091Y908311D01*
X999704Y909790D01*
Y911390D01*
X999091Y912869D01*
X997959Y914001D01*
X996480Y914614D01*
D02*
G37*
G36*
X849160Y918424D02*
X847560D01*
X846081Y917811D01*
X844949Y916679D01*
X844336Y915200D01*
Y913600D01*
X844949Y912121D01*
X846081Y910989D01*
X847560Y910376D01*
X849160D01*
X850639Y910989D01*
X851154Y911503D01*
X852231Y910784D01*
X851956Y910120D01*
Y908520D01*
X852569Y907041D01*
X853701Y905909D01*
X855180Y905296D01*
X856780D01*
X858259Y905909D01*
X859391Y907041D01*
X860004Y908520D01*
Y910120D01*
X859391Y911599D01*
X858259Y912731D01*
X856780Y913344D01*
X855180D01*
X853701Y912731D01*
X853186Y912217D01*
X852109Y912936D01*
X852384Y913600D01*
Y915200D01*
X851771Y916679D01*
X850639Y917811D01*
X849160Y918424D01*
D02*
G37*
G36*
X995210Y867624D02*
X993610D01*
X992131Y867011D01*
X990999Y865879D01*
X990386Y864400D01*
Y862800D01*
X990999Y861321D01*
X992131Y860189D01*
X993610Y859576D01*
X995210D01*
X996689Y860189D01*
X997821Y861321D01*
X998434Y862800D01*
Y864400D01*
X997821Y865879D01*
X996689Y867011D01*
X995210Y867624D01*
D02*
G37*
G36*
X880910Y838414D02*
X879310D01*
X877831Y837801D01*
X876699Y836669D01*
X876086Y835190D01*
Y833590D01*
X876699Y832111D01*
X877831Y830979D01*
X879310Y830366D01*
X880910D01*
X882389Y830979D01*
X883521Y832111D01*
X884134Y833590D01*
Y835190D01*
X883521Y836669D01*
X882389Y837801D01*
X880910Y838414D01*
D02*
G37*
G36*
X850430D02*
X848830D01*
X847351Y837801D01*
X846219Y836669D01*
X845606Y835190D01*
Y833590D01*
X846219Y832111D01*
X847351Y830979D01*
X848830Y830366D01*
X850430D01*
X851909Y830979D01*
X853041Y832111D01*
X853654Y833590D01*
Y835190D01*
X853041Y836669D01*
X851909Y837801D01*
X850430Y838414D01*
D02*
G37*
G36*
X819950D02*
X818350D01*
X816871Y837801D01*
X815739Y836669D01*
X815126Y835190D01*
Y833590D01*
X815739Y832111D01*
X816871Y830979D01*
X818350Y830366D01*
X819950D01*
X821429Y830979D01*
X822561Y832111D01*
X823174Y833590D01*
Y835190D01*
X822561Y836669D01*
X821429Y837801D01*
X819950Y838414D01*
D02*
G37*
%LPD*%
D13*
X997749Y841539D02*
X998220Y842010D01*
X994605Y841539D02*
X997749D01*
X991266Y838200D02*
X994605Y841539D01*
X991076Y838200D02*
X991266D01*
X979646Y826770D02*
X991076Y838200D01*
X457200Y908050D02*
X607274D01*
X895350Y826770D02*
X979646D01*
X863600Y944880D02*
X885190D01*
X849630Y958850D02*
X863600Y944880D01*
X820420Y1011992D02*
Y1036320D01*
Y1011992D02*
X849630Y982782D01*
Y958850D02*
Y982782D01*
X989330Y945953D02*
Y984250D01*
X988060Y944682D02*
X989330Y945953D01*
X988060Y906780D02*
Y944682D01*
X993140Y901700D02*
X999490D01*
X988060Y906780D02*
X993140Y901700D01*
X943688Y1087042D02*
X981710Y1049020D01*
X943688Y1087042D02*
Y1103526D01*
X834390Y826770D02*
Y890270D01*
X817880Y906780D02*
X834390Y890270D01*
X744220Y906780D02*
X817880D01*
X885190Y914400D02*
Y944880D01*
Y875030D02*
Y914400D01*
Y826770D02*
X895350D01*
X864870D02*
X885190D01*
X834390D02*
X864870D01*
D14*
X999490Y900759D02*
X1000348Y899902D01*
X998220Y842010D02*
Y860642D01*
X1000348Y862769D01*
Y899902D01*
X999490Y900759D02*
Y901700D01*
X885190Y826770D02*
Y875030D01*
D112*
X822960Y1201420D02*
X859790Y1164590D01*
X763270Y1201420D02*
X822960D01*
X878840Y1145540D02*
X901674D01*
X859790Y1164590D02*
X878840Y1145540D01*
X448310Y1247140D02*
X461010Y1259840D01*
X448310Y1125220D02*
X452120Y1121410D01*
X448310Y1125220D02*
Y1247140D01*
X316230Y900430D02*
X325120Y891540D01*
X339090D01*
X360680Y913130D01*
Y953770D01*
X457200Y718820D02*
Y909320D01*
Y913130D01*
X416560Y678180D02*
X457200Y718820D01*
X451136Y961104D02*
Y1121410D01*
Y961104D02*
X457200Y955040D01*
Y913130D02*
Y955040D01*
X329565Y591185D02*
X416560Y678180D01*
X300990Y562610D02*
X329565Y591185D01*
X300990Y745490D02*
X329565Y716915D01*
Y591185D02*
Y716915D01*
X901674Y1145540D02*
X921688Y1125526D01*
X300990Y900430D02*
X316230D01*
X300990Y828040D02*
Y900430D01*
X275590Y932180D02*
X300990Y906780D01*
Y900430D02*
Y906780D01*
X1074420Y1203960D02*
X1075055Y1203325D01*
X1113155D01*
X1113790Y1202690D01*
X300990Y560470D02*
Y562610D01*
D115*
X290830Y1202690D02*
D03*
Y1228090D02*
D03*
Y1059180D02*
D03*
Y1084580D02*
D03*
Y1135380D02*
D03*
Y1109980D02*
D03*
X803910Y562610D02*
D03*
X741680D02*
D03*
X679450D02*
D03*
X617220D02*
D03*
X554990D02*
D03*
X1059498D02*
D03*
X997585D02*
D03*
X1121410D02*
D03*
X935673D02*
D03*
X873760D02*
D03*
D116*
X290830Y1253490D02*
D03*
Y1160780D02*
D03*
D117*
X591920Y655320D02*
D03*
X616920D02*
D03*
X591920Y731520D02*
D03*
X529590D02*
D03*
X554590Y655320D02*
D03*
X529590D02*
D03*
X1122280D02*
D03*
X1097280Y731520D02*
D03*
X1122280D02*
D03*
X1060150Y655320D02*
D03*
X1035150Y731520D02*
D03*
X1060150D02*
D03*
X998020Y655320D02*
D03*
X973020Y731520D02*
D03*
X998020D02*
D03*
X935890Y655320D02*
D03*
X910890Y731520D02*
D03*
X935890D02*
D03*
X873760Y655320D02*
D03*
X848760Y731520D02*
D03*
X873760D02*
D03*
X778910D02*
D03*
X803910Y655320D02*
D03*
X778910D02*
D03*
X716580Y731520D02*
D03*
X741580Y655320D02*
D03*
X716580D02*
D03*
X654250Y731520D02*
D03*
X679250Y655320D02*
D03*
X654250D02*
D03*
D118*
X616920Y731520D02*
D03*
X554590D02*
D03*
X1097280Y655320D02*
D03*
X1035150D02*
D03*
X973020D02*
D03*
X910890D02*
D03*
X848760D02*
D03*
X803910Y731520D02*
D03*
X741580D02*
D03*
X679250D02*
D03*
D119*
X778510Y562610D02*
D03*
X716280D02*
D03*
X654050D02*
D03*
X591820D02*
D03*
X529590D02*
D03*
X1034098D02*
D03*
X972185D02*
D03*
X1096010D02*
D03*
X910273D02*
D03*
X848360D02*
D03*
D120*
X1223010Y1239520D02*
D03*
Y557530D02*
D03*
D121*
X1177290Y1202690D02*
D03*
X1074420Y1203960D02*
D03*
D122*
X1113790Y1253490D02*
D03*
Y1202690D02*
D03*
X1177290Y1253490D02*
D03*
X1010920Y1254760D02*
D03*
Y1203960D02*
D03*
X1074420Y1254760D02*
D03*
D124*
X1080790Y878770D02*
D03*
X1055390Y891470D02*
D03*
X1080790Y904170D02*
D03*
X1055390Y916870D02*
D03*
X1080790Y929570D02*
D03*
X1055390Y942270D02*
D03*
X1080790Y954970D02*
D03*
X1055390Y967670D02*
D03*
D125*
X1193290Y857020D02*
D03*
Y882420D02*
D03*
Y989520D02*
D03*
Y964120D02*
D03*
D126*
X1144290Y980420D02*
D03*
Y866120D02*
D03*
D127*
X1113790Y1000720D02*
D03*
Y845820D02*
D03*
D128*
X300990Y610470D02*
D03*
D129*
Y560470D02*
D03*
D130*
X300990Y828040D02*
D03*
X275590D02*
D03*
X300990Y802640D02*
D03*
Y694690D02*
D03*
X275590D02*
D03*
X300990Y669290D02*
D03*
X275590Y720090D02*
D03*
Y745490D02*
D03*
X300990Y720090D02*
D03*
Y745490D02*
D03*
Y932180D02*
D03*
Y957580D02*
D03*
X275590Y932180D02*
D03*
Y957580D02*
D03*
X300990Y1008380D02*
D03*
X275590Y982980D02*
D03*
X300990D02*
D03*
D131*
X275590Y802640D02*
D03*
Y669290D02*
D03*
Y1008380D02*
D03*
D132*
X966048Y1213796D02*
D03*
X891548D02*
D03*
D133*
X967548Y1251796D02*
D03*
X890048D02*
D03*
D134*
X903798Y1224296D02*
D03*
X953798D02*
D03*
D135*
X1231900Y1219200D02*
D03*
X1219200Y1193800D02*
D03*
Y1143000D02*
D03*
X1231900Y1117600D02*
D03*
X1219200Y1092200D02*
D03*
X1231900Y1066800D02*
D03*
Y812800D02*
D03*
X1219200Y787400D02*
D03*
X1231900Y762000D02*
D03*
X1219200Y736600D02*
D03*
X1231900Y711200D02*
D03*
Y660400D02*
D03*
Y609600D02*
D03*
X1219200Y584200D02*
D03*
Y533400D02*
D03*
X1193800Y1244600D02*
D03*
X1206500Y1219200D02*
D03*
X1193800Y1193800D02*
D03*
X1206500Y1168400D02*
D03*
X1193800Y1143000D02*
D03*
X1206500Y1117600D02*
D03*
X1193800Y1092200D02*
D03*
X1206500Y1066800D02*
D03*
Y812800D02*
D03*
X1193800Y787400D02*
D03*
X1206500Y762000D02*
D03*
X1193800Y736600D02*
D03*
X1206500Y711200D02*
D03*
X1193800Y685800D02*
D03*
X1206500Y660400D02*
D03*
X1193800Y635000D02*
D03*
X1206500Y609600D02*
D03*
X1193800Y584200D02*
D03*
Y533400D02*
D03*
X1181100Y1219200D02*
D03*
Y1168400D02*
D03*
X1168400Y1143000D02*
D03*
X1181100Y1117600D02*
D03*
X1168400Y1092200D02*
D03*
X1181100Y1066800D02*
D03*
Y812800D02*
D03*
X1168400Y787400D02*
D03*
X1181100Y762000D02*
D03*
X1168400Y736600D02*
D03*
X1181100Y711200D02*
D03*
X1168400Y685800D02*
D03*
X1181100Y660400D02*
D03*
X1168400Y635000D02*
D03*
X1181100Y609600D02*
D03*
X1168400Y584200D02*
D03*
X1181100Y558800D02*
D03*
X1168400Y533400D02*
D03*
X1143000Y1244600D02*
D03*
Y1193800D02*
D03*
X1155700Y1168400D02*
D03*
X1143000Y1143000D02*
D03*
X1155700Y1117600D02*
D03*
X1143000Y1092200D02*
D03*
X1155700Y1066800D02*
D03*
Y812800D02*
D03*
X1143000Y787400D02*
D03*
X1155700Y762000D02*
D03*
X1143000Y736600D02*
D03*
X1155700Y711200D02*
D03*
X1143000Y685800D02*
D03*
X1155700Y660400D02*
D03*
X1143000Y635000D02*
D03*
X1155700Y609600D02*
D03*
X1143000Y584200D02*
D03*
X1155700Y558800D02*
D03*
X1143000Y533400D02*
D03*
X1130300Y1168400D02*
D03*
X1117600Y1143000D02*
D03*
X1130300Y1117600D02*
D03*
X1117600Y1092200D02*
D03*
X1130300Y1066800D02*
D03*
Y812800D02*
D03*
X1117600Y787400D02*
D03*
X1130300Y762000D02*
D03*
Y711200D02*
D03*
X1117600Y685800D02*
D03*
Y584200D02*
D03*
Y533400D02*
D03*
X1104900Y1168400D02*
D03*
Y1117600D02*
D03*
X1092200Y1092200D02*
D03*
X1104900Y1066800D02*
D03*
Y812800D02*
D03*
X1092200Y787400D02*
D03*
X1104900Y711200D02*
D03*
X1092200Y685800D02*
D03*
X1104900Y609600D02*
D03*
X1092200Y533400D02*
D03*
X1079500Y1168400D02*
D03*
Y1117600D02*
D03*
X1066800Y1092200D02*
D03*
X1079500Y1066800D02*
D03*
Y812800D02*
D03*
Y711200D02*
D03*
X1066800Y685800D02*
D03*
X1079500Y660400D02*
D03*
Y609600D02*
D03*
Y558800D02*
D03*
X1066800Y533400D02*
D03*
X1041400Y1244600D02*
D03*
Y1193800D02*
D03*
Y1143000D02*
D03*
Y1092200D02*
D03*
X1054100Y1066800D02*
D03*
Y812800D02*
D03*
X1041400Y787400D02*
D03*
X1054100Y711200D02*
D03*
X1041400Y685800D02*
D03*
X1054100Y609600D02*
D03*
X1041400Y584200D02*
D03*
Y533400D02*
D03*
X1016000Y1092200D02*
D03*
Y1041400D02*
D03*
X1028700Y812800D02*
D03*
X1016000Y787400D02*
D03*
Y736600D02*
D03*
X1028700Y711200D02*
D03*
X1016000Y685800D02*
D03*
Y635000D02*
D03*
Y584200D02*
D03*
Y533400D02*
D03*
X990600Y1244600D02*
D03*
X1003300Y1219200D02*
D03*
X990600Y1193800D02*
D03*
Y1143000D02*
D03*
Y1092200D02*
D03*
Y787400D02*
D03*
X1003300Y711200D02*
D03*
X990600Y685800D02*
D03*
Y584200D02*
D03*
Y533400D02*
D03*
X977900Y1219200D02*
D03*
X965200Y1193800D02*
D03*
X977900Y1168400D02*
D03*
X965200Y1143000D02*
D03*
Y787400D02*
D03*
X977900Y711200D02*
D03*
X965200Y685800D02*
D03*
Y533400D02*
D03*
X939800Y1244600D02*
D03*
X952500Y711200D02*
D03*
X939800Y685800D02*
D03*
X952500Y660400D02*
D03*
Y609600D02*
D03*
Y558800D02*
D03*
X939800Y533400D02*
D03*
X914400Y1244600D02*
D03*
Y1193800D02*
D03*
Y787400D02*
D03*
X927100Y711200D02*
D03*
X914400Y685800D02*
D03*
X927100Y660400D02*
D03*
Y609600D02*
D03*
X914400Y533400D02*
D03*
X889000Y1193800D02*
D03*
X901700Y1066800D02*
D03*
X889000Y787400D02*
D03*
Y736600D02*
D03*
X901700Y711200D02*
D03*
X889000Y685800D02*
D03*
Y635000D02*
D03*
Y584200D02*
D03*
Y533400D02*
D03*
X863600Y1244600D02*
D03*
X876300Y1219200D02*
D03*
X863600Y1143000D02*
D03*
X876300Y1066800D02*
D03*
X863600Y736600D02*
D03*
X876300Y711200D02*
D03*
X863600Y685800D02*
D03*
Y584200D02*
D03*
Y533400D02*
D03*
X838200Y1244600D02*
D03*
Y1193800D02*
D03*
Y1143000D02*
D03*
Y736600D02*
D03*
X850900Y711200D02*
D03*
X838200Y685800D02*
D03*
Y533400D02*
D03*
X825500Y1168400D02*
D03*
X812800Y1143000D02*
D03*
X825500Y1117600D02*
D03*
X812800Y1041400D02*
D03*
X825500Y711200D02*
D03*
X812800Y685800D02*
D03*
X825500Y660400D02*
D03*
X812800Y635000D02*
D03*
X825500Y609600D02*
D03*
X812800Y584200D02*
D03*
X825500Y558800D02*
D03*
X812800Y533400D02*
D03*
X800100Y1168400D02*
D03*
Y1117600D02*
D03*
X787400Y1041400D02*
D03*
X800100Y1016000D02*
D03*
Y711200D02*
D03*
X787400Y685800D02*
D03*
Y635000D02*
D03*
Y584200D02*
D03*
Y533400D02*
D03*
X762000Y1193800D02*
D03*
Y1041400D02*
D03*
X774700Y1016000D02*
D03*
X762000Y990600D02*
D03*
X774700Y863600D02*
D03*
Y812800D02*
D03*
X762000Y736600D02*
D03*
X774700Y711200D02*
D03*
X762000Y685800D02*
D03*
Y635000D02*
D03*
Y584200D02*
D03*
Y533400D02*
D03*
X736600Y1193800D02*
D03*
Y1041400D02*
D03*
X749300Y1016000D02*
D03*
X736600Y990600D02*
D03*
X749300Y863600D02*
D03*
Y762000D02*
D03*
Y711200D02*
D03*
X736600Y685800D02*
D03*
Y533400D02*
D03*
X711200Y1193800D02*
D03*
Y1143000D02*
D03*
Y1041400D02*
D03*
X723900Y1016000D02*
D03*
X711200Y990600D02*
D03*
X723900Y965200D02*
D03*
X711200Y939800D02*
D03*
X723900Y914400D02*
D03*
Y863600D02*
D03*
Y762000D02*
D03*
Y711200D02*
D03*
X711200Y685800D02*
D03*
Y533400D02*
D03*
X698500Y1219200D02*
D03*
X685800Y1193800D02*
D03*
X698500Y1168400D02*
D03*
X685800Y1143000D02*
D03*
X698500Y1117600D02*
D03*
Y1066800D02*
D03*
X685800Y1041400D02*
D03*
Y990600D02*
D03*
X698500Y965200D02*
D03*
X685800Y939800D02*
D03*
X698500Y762000D02*
D03*
Y711200D02*
D03*
X685800Y685800D02*
D03*
X698500Y660400D02*
D03*
Y609600D02*
D03*
Y558800D02*
D03*
X685800Y533400D02*
D03*
X673100Y1219200D02*
D03*
X660400Y1193800D02*
D03*
X673100Y1168400D02*
D03*
X660400Y1143000D02*
D03*
X673100Y1117600D02*
D03*
Y1066800D02*
D03*
X660400Y1041400D02*
D03*
X673100Y965200D02*
D03*
X660400Y939800D02*
D03*
X673100Y711200D02*
D03*
X660400Y685800D02*
D03*
Y533400D02*
D03*
X647700Y1219200D02*
D03*
Y1168400D02*
D03*
X635000Y1143000D02*
D03*
X647700Y1117600D02*
D03*
Y1066800D02*
D03*
X635000Y1041400D02*
D03*
Y990600D02*
D03*
X647700Y965200D02*
D03*
X635000Y939800D02*
D03*
Y787400D02*
D03*
X647700Y762000D02*
D03*
X635000Y736600D02*
D03*
X647700Y711200D02*
D03*
X635000Y685800D02*
D03*
Y635000D02*
D03*
Y584200D02*
D03*
Y533400D02*
D03*
X622300Y1219200D02*
D03*
X609600Y1143000D02*
D03*
X622300Y1117600D02*
D03*
Y1066800D02*
D03*
X609600Y1041400D02*
D03*
X622300Y965200D02*
D03*
X609600Y889000D02*
D03*
X622300Y812800D02*
D03*
X609600Y787400D02*
D03*
X622300Y711200D02*
D03*
X609600Y685800D02*
D03*
Y533400D02*
D03*
X596900Y1219200D02*
D03*
X584200Y1193800D02*
D03*
X596900Y1168400D02*
D03*
Y1117600D02*
D03*
Y1066800D02*
D03*
Y863600D02*
D03*
X584200Y787400D02*
D03*
X596900Y762000D02*
D03*
Y711200D02*
D03*
X584200Y685800D02*
D03*
Y533400D02*
D03*
X571500Y1219200D02*
D03*
Y812800D02*
D03*
Y762000D02*
D03*
Y711200D02*
D03*
X558800Y685800D02*
D03*
X571500Y660400D02*
D03*
Y609600D02*
D03*
Y558800D02*
D03*
X558800Y533400D02*
D03*
X546100Y1016000D02*
D03*
X533400Y939800D02*
D03*
X546100Y914400D02*
D03*
X533400Y889000D02*
D03*
X546100Y863600D02*
D03*
X533400Y838200D02*
D03*
X546100Y812800D02*
D03*
X533400Y787400D02*
D03*
X546100Y762000D02*
D03*
Y711200D02*
D03*
X533400Y685800D02*
D03*
X546100Y609600D02*
D03*
X533400Y533400D02*
D03*
X520700Y1219200D02*
D03*
X508000Y1193800D02*
D03*
X520700Y1168400D02*
D03*
X508000Y1143000D02*
D03*
X520700Y1117600D02*
D03*
X508000Y1041400D02*
D03*
X520700Y1016000D02*
D03*
Y914400D02*
D03*
Y863600D02*
D03*
Y812800D02*
D03*
Y762000D02*
D03*
Y711200D02*
D03*
Y660400D02*
D03*
Y609600D02*
D03*
X508000Y584200D02*
D03*
Y533400D02*
D03*
X495300Y1219200D02*
D03*
X482600Y1193800D02*
D03*
X495300Y1168400D02*
D03*
Y1117600D02*
D03*
Y1066800D02*
D03*
Y1016000D02*
D03*
X482600Y939800D02*
D03*
Y889000D02*
D03*
Y838200D02*
D03*
Y787400D02*
D03*
Y736600D02*
D03*
Y685800D02*
D03*
Y635000D02*
D03*
Y584200D02*
D03*
X495300Y558800D02*
D03*
X482600Y533400D02*
D03*
X469900Y812800D02*
D03*
X457200Y787400D02*
D03*
X469900Y762000D02*
D03*
X457200Y736600D02*
D03*
X469900Y711200D02*
D03*
X457200Y685800D02*
D03*
X469900Y660400D02*
D03*
X457200Y635000D02*
D03*
Y584200D02*
D03*
X469900Y558800D02*
D03*
X457200Y533400D02*
D03*
X431800Y1143000D02*
D03*
Y1041400D02*
D03*
X444500Y812800D02*
D03*
X431800Y787400D02*
D03*
X444500Y762000D02*
D03*
X431800Y736600D02*
D03*
X444500Y711200D02*
D03*
X431800Y685800D02*
D03*
X444500Y558800D02*
D03*
X431800Y533400D02*
D03*
X406400Y1193800D02*
D03*
X419100Y1168400D02*
D03*
X406400Y1041400D02*
D03*
X419100Y812800D02*
D03*
Y762000D02*
D03*
Y711200D02*
D03*
X406400Y533400D02*
D03*
X381000Y1244600D02*
D03*
Y584200D02*
D03*
Y533400D02*
D03*
X355600Y1193800D02*
D03*
X368300Y1168400D02*
D03*
Y1117600D02*
D03*
X355600Y1041400D02*
D03*
X368300Y1016000D02*
D03*
X355600Y889000D02*
D03*
Y533400D02*
D03*
X330200Y1244600D02*
D03*
Y1193800D02*
D03*
X342900Y1168400D02*
D03*
X330200Y1092200D02*
D03*
Y1041400D02*
D03*
X342900Y1016000D02*
D03*
X330200Y990600D02*
D03*
Y889000D02*
D03*
X342900Y762000D02*
D03*
X330200Y736600D02*
D03*
X342900Y711200D02*
D03*
X330200Y533400D02*
D03*
X317500Y1219200D02*
D03*
X304800Y1193800D02*
D03*
X317500Y1168400D02*
D03*
X304800Y1143000D02*
D03*
X317500Y1066800D02*
D03*
X304800Y1041400D02*
D03*
X317500Y1016000D02*
D03*
Y965200D02*
D03*
Y812800D02*
D03*
X304800Y787400D02*
D03*
X317500Y762000D02*
D03*
Y711200D02*
D03*
X304800Y635000D02*
D03*
X317500Y558800D02*
D03*
X304800Y533400D02*
D03*
X279400Y1193800D02*
D03*
Y1041400D02*
D03*
X292100Y863600D02*
D03*
Y812800D02*
D03*
X279400Y787400D02*
D03*
X292100Y762000D02*
D03*
Y711200D02*
D03*
X279400Y635000D02*
D03*
Y584200D02*
D03*
Y533400D02*
D03*
X967740Y1114740D02*
D03*
X998220Y842010D02*
D03*
X859790Y1164590D02*
D03*
X803910Y778724D02*
D03*
X974090Y1120140D02*
D03*
X938530Y1151890D02*
D03*
X926892Y1151433D02*
D03*
X448310Y1212850D02*
D03*
X440476Y1137920D02*
D03*
X853440Y1010920D02*
D03*
X995680Y910590D02*
D03*
X994410Y863600D02*
D03*
X1018540Y853440D02*
D03*
X601980Y850900D02*
D03*
X590764Y988060D02*
D03*
X619760Y857250D02*
D03*
Y869950D02*
D03*
X593090Y1139190D02*
D03*
X585470Y1154430D02*
D03*
X577850Y1169670D02*
D03*
X570230Y1184910D02*
D03*
X607274Y908050D02*
D03*
X596686Y995680D02*
D03*
X601980Y1009650D02*
D03*
X530860Y981710D02*
D03*
X610870Y969010D02*
D03*
X900430Y1158240D02*
D03*
X287020Y575310D02*
D03*
X313690D02*
D03*
X285750Y548640D02*
D03*
X457200Y961390D02*
D03*
X447040D02*
D03*
X467360D02*
D03*
X360680D02*
D03*
X350520D02*
D03*
X370840D02*
D03*
X347980Y795020D02*
D03*
X360680Y798830D02*
D03*
X369570D02*
D03*
Y789940D02*
D03*
X360680D02*
D03*
X337820Y840740D02*
D03*
X332740Y847090D02*
D03*
X364490Y853440D02*
D03*
X363220Y833120D02*
D03*
X344170Y835660D02*
D03*
X347980Y828040D02*
D03*
X467360Y955040D02*
D03*
X447040D02*
D03*
X370840Y953770D02*
D03*
X350520D02*
D03*
X990600Y990600D02*
D03*
Y838200D02*
D03*
X965200D02*
D03*
X939800Y990600D02*
D03*
Y838200D02*
D03*
X914400Y990600D02*
D03*
Y889000D02*
D03*
Y838200D02*
D03*
X863600Y939800D02*
D03*
X736600D02*
D03*
X755364Y1083879D02*
D03*
X331470Y570230D02*
D03*
X339090D02*
D03*
X346710D02*
D03*
Y563880D02*
D03*
Y557530D02*
D03*
X339090D02*
D03*
X331470D02*
D03*
Y563880D02*
D03*
X499110Y596900D02*
D03*
Y607060D02*
D03*
X506730D02*
D03*
X389890Y1024890D02*
D03*
X383540D02*
D03*
X386080Y1019810D02*
D03*
X392430D02*
D03*
X396240Y1024890D02*
D03*
X908050Y1174750D02*
D03*
X894080Y1158240D02*
D03*
X339090Y891540D02*
D03*
X327660Y900430D02*
D03*
X327880Y907000D02*
D03*
X327660Y914400D02*
D03*
X334010Y900430D02*
D03*
Y914400D02*
D03*
X1017270Y962660D02*
D03*
X1018540Y899160D02*
D03*
Y910590D02*
D03*
X972820Y947420D02*
D03*
X942340Y946150D02*
D03*
X1018540Y887730D02*
D03*
X994410Y886460D02*
D03*
X942340Y887730D02*
D03*
X811816Y969579D02*
D03*
X853440Y1045210D02*
D03*
X843280D02*
D03*
X848360Y914400D02*
D03*
X833120Y1045210D02*
D03*
X821121Y1003014D02*
D03*
X797560Y944880D02*
D03*
X801370Y913130D02*
D03*
X503002Y601810D02*
D03*
X782320Y1242060D02*
D03*
X760730Y1184910D02*
D03*
X478790Y1070610D02*
D03*
X754380Y1200150D02*
D03*
X562610Y1229360D02*
D03*
X461010Y1259840D02*
D03*
X459454Y1220470D02*
D03*
X736600Y1259840D02*
D03*
X748030Y1108710D02*
D03*
X451136Y1121410D02*
D03*
X457200Y955040D02*
D03*
X769620Y1258570D02*
D03*
X820420Y1036320D02*
D03*
X989330Y984250D02*
D03*
X999490Y901700D02*
D03*
X1097280Y770890D02*
D03*
X1035050D02*
D03*
X972820D02*
D03*
X910590D02*
D03*
X848360D02*
D03*
X981710Y1049020D02*
D03*
X857250Y1182370D02*
D03*
X1026160Y1212850D02*
D03*
X1125220Y1220470D02*
D03*
X996950Y1099820D02*
D03*
X1009650Y1117600D02*
D03*
X996950Y1139190D02*
D03*
X782542Y1181100D02*
D03*
X782320Y1211580D02*
D03*
X360680Y953770D02*
D03*
X420370Y1083310D02*
D03*
X748030Y1257300D02*
D03*
X763270Y1201420D02*
D03*
X998220Y1064260D02*
D03*
X848360Y1098550D02*
D03*
X895350D02*
D03*
X980440Y1008380D02*
D03*
X938530D02*
D03*
X864870Y1002030D02*
D03*
X779780Y969010D02*
D03*
X638810Y918210D02*
D03*
X908050Y1191260D02*
D03*
X473710Y546100D02*
D03*
X339090Y563880D02*
D03*
X416560Y678180D02*
D03*
X300990Y900430D02*
D03*
X744220Y906780D02*
D03*
X885190Y944880D02*
D03*
Y914400D02*
D03*
Y875030D02*
D03*
X864870Y826770D02*
D03*
X895350D02*
D03*
X834390D02*
D03*
X334010Y907000D02*
D03*
X610870Y1005840D02*
D03*
X562610Y1200150D02*
D03*
X554990Y770890D02*
D03*
X617220D02*
D03*
X679450D02*
D03*
X741680D02*
D03*
X420370Y1070610D02*
D03*
X509270Y1064260D02*
D03*
X855980Y909320D02*
D03*
X852170Y1064260D02*
D03*
X745490Y1079500D02*
D03*
X838200Y919480D02*
D03*
X741680Y1050290D02*
D03*
X830580Y924560D02*
D03*
X941070Y972820D02*
D03*
X849630Y834390D02*
D03*
X880110D02*
D03*
X819150D02*
D03*
X878840Y1010920D02*
D03*
X916940Y1046480D02*
D03*
X1002030Y924560D02*
D03*
X939800Y911860D02*
D03*
X1033780Y929640D02*
D03*
Y970280D02*
D03*
X1060450Y1144270D02*
D03*
X1051560Y1182370D02*
D03*
X949960Y1197610D02*
D03*
X949667Y1167423D02*
D03*
X896620Y1130300D02*
D03*
X941070Y1158240D02*
D03*
X981710Y1150620D02*
D03*
Y1109980D02*
D03*
X1009968Y1144588D02*
D03*
X932688Y1114526D02*
D03*
Y1125526D02*
D03*
Y1103526D02*
D03*
X921688Y1114526D02*
D03*
Y1125526D02*
D03*
X943688Y1114526D02*
D03*
Y1125526D02*
D03*
X921688Y1103526D02*
D03*
X943688D02*
D03*
M02*
