G04*
G04 #@! TF.GenerationSoftware,Altium Limited,Altium Designer,22.11.1 (43)*
G04*
G04 Layer_Color=255*
%FSLAX44Y44*%
%MOMM*%
G71*
G04*
G04 #@! TF.SameCoordinates,F8BDC5C1-D14C-489C-B73B-B84716E4099B*
G04*
G04*
G04 #@! TF.FilePolarity,Positive*
G04*
G01*
G75*
%ADD21R,0.8000X0.8000*%
%ADD52R,0.9500X0.8000*%
%ADD115C,1.9500*%
%ADD116R,1.9500X1.9500*%
%ADD117C,1.2000*%
%ADD118R,1.2000X1.2000*%
%ADD119R,1.9500X1.9500*%
%ADD120C,3.5052*%
%ADD121R,1.9050X1.9050*%
%ADD122C,1.9050*%
%ADD123R,1.3980X1.3980*%
%ADD124C,1.3980*%
%ADD125C,1.5300*%
%ADD126C,3.2500*%
%ADD127C,2.4450*%
%ADD128R,2.2500X2.2500*%
%ADD129C,2.2500*%
%ADD130C,1.6500*%
%ADD131R,1.6500X1.6500*%
%ADD132O,1.4500X2.0000*%
%ADD133O,1.1500X1.8000*%
%ADD134C,0.8000*%
D21*
X1050290Y1220590D02*
D03*
Y1235590D02*
D03*
X1154430Y1220101D02*
D03*
Y1235101D02*
D03*
D52*
X1035050Y1235090D02*
D03*
Y1221090D02*
D03*
X1137920Y1235090D02*
D03*
Y1221090D02*
D03*
D115*
X290830Y1202690D02*
D03*
Y1228090D02*
D03*
Y1059180D02*
D03*
Y1084580D02*
D03*
Y1135380D02*
D03*
Y1109980D02*
D03*
X803910Y562610D02*
D03*
X741680D02*
D03*
X679450D02*
D03*
X617220D02*
D03*
X554990D02*
D03*
X1059498D02*
D03*
X997585D02*
D03*
X1121410D02*
D03*
X935673D02*
D03*
X873760D02*
D03*
D116*
X290830Y1253490D02*
D03*
Y1160780D02*
D03*
D117*
X591920Y655320D02*
D03*
X616920D02*
D03*
X591920Y731520D02*
D03*
X529590D02*
D03*
X554590Y655320D02*
D03*
X529590D02*
D03*
X1122280D02*
D03*
X1097280Y731520D02*
D03*
X1122280D02*
D03*
X1060150Y655320D02*
D03*
X1035150Y731520D02*
D03*
X1060150D02*
D03*
X998020Y655320D02*
D03*
X973020Y731520D02*
D03*
X998020D02*
D03*
X935890Y655320D02*
D03*
X910890Y731520D02*
D03*
X935890D02*
D03*
X873760Y655320D02*
D03*
X848760Y731520D02*
D03*
X873760D02*
D03*
X778910D02*
D03*
X803910Y655320D02*
D03*
X778910D02*
D03*
X716580Y731520D02*
D03*
X741580Y655320D02*
D03*
X716580D02*
D03*
X654250Y731520D02*
D03*
X679250Y655320D02*
D03*
X654250D02*
D03*
D118*
X616920Y731520D02*
D03*
X554590D02*
D03*
X1097280Y655320D02*
D03*
X1035150D02*
D03*
X973020D02*
D03*
X910890D02*
D03*
X848760D02*
D03*
X803910Y731520D02*
D03*
X741580D02*
D03*
X679250D02*
D03*
D119*
X778510Y562610D02*
D03*
X716280D02*
D03*
X654050D02*
D03*
X591820D02*
D03*
X529590D02*
D03*
X1034098D02*
D03*
X972185D02*
D03*
X1096010D02*
D03*
X910273D02*
D03*
X848360D02*
D03*
D120*
X1223010Y1239520D02*
D03*
Y557530D02*
D03*
D121*
X1177290Y1202690D02*
D03*
X1074420Y1203960D02*
D03*
D122*
X1113790Y1253490D02*
D03*
Y1202690D02*
D03*
X1177290Y1253490D02*
D03*
X1010920Y1254760D02*
D03*
Y1203960D02*
D03*
X1074420Y1254760D02*
D03*
D123*
X1080790Y878770D02*
D03*
D124*
X1055390Y891470D02*
D03*
X1080790Y904170D02*
D03*
X1055390Y916870D02*
D03*
X1080790Y929570D02*
D03*
X1055390Y942270D02*
D03*
X1080790Y954970D02*
D03*
X1055390Y967670D02*
D03*
D125*
X1193290Y857020D02*
D03*
Y882420D02*
D03*
Y989520D02*
D03*
Y964120D02*
D03*
D126*
X1144290Y980420D02*
D03*
Y866120D02*
D03*
D127*
X1113790Y1000720D02*
D03*
Y845820D02*
D03*
D128*
X300990Y610470D02*
D03*
D129*
Y560470D02*
D03*
D130*
X300990Y828040D02*
D03*
X275590D02*
D03*
X300990Y802640D02*
D03*
Y694690D02*
D03*
X275590D02*
D03*
X300990Y669290D02*
D03*
X275590Y720090D02*
D03*
Y745490D02*
D03*
X300990Y720090D02*
D03*
Y745490D02*
D03*
Y932180D02*
D03*
Y957580D02*
D03*
X275590Y932180D02*
D03*
Y957580D02*
D03*
X300990Y1008380D02*
D03*
X275590Y982980D02*
D03*
X300990D02*
D03*
D131*
X275590Y802640D02*
D03*
Y669290D02*
D03*
Y1008380D02*
D03*
D132*
X966048Y1213796D02*
D03*
X891548D02*
D03*
D133*
X967548Y1251796D02*
D03*
X890048D02*
D03*
D134*
X903798Y1224296D02*
D03*
X953798D02*
D03*
M02*
