G04*
G04 #@! TF.GenerationSoftware,Altium Limited,Altium Designer,22.11.1 (43)*
G04*
G04 Layer_Physical_Order=4*
G04 Layer_Color=16711680*
%FSLAX44Y44*%
%MOMM*%
G71*
G04*
G04 #@! TF.SameCoordinates,F8BDC5C1-D14C-489C-B73B-B84716E4099B*
G04*
G04*
G04 #@! TF.FilePolarity,Positive*
G04*
G01*
G75*
%ADD13C,0.2540*%
%ADD14C,0.1524*%
%ADD21R,0.8000X0.8000*%
%ADD52R,0.9500X0.8000*%
%ADD112C,0.7620*%
%ADD113C,0.3810*%
%ADD115C,1.9500*%
%ADD116R,1.9500X1.9500*%
%ADD117C,1.2000*%
%ADD118R,1.2000X1.2000*%
%ADD119R,1.9500X1.9500*%
%ADD120C,3.5052*%
%ADD121R,1.9050X1.9050*%
%ADD122C,1.9050*%
%ADD123R,1.3980X1.3980*%
%ADD124C,1.3980*%
%ADD125C,1.5300*%
%ADD126C,3.2500*%
%ADD127C,2.4450*%
%ADD128R,2.2500X2.2500*%
%ADD129C,2.2500*%
%ADD130C,1.6500*%
%ADD131R,1.6500X1.6500*%
%ADD132O,1.4500X2.0000*%
%ADD133O,1.1500X1.8000*%
%ADD134C,0.8000*%
%ADD135C,0.5000*%
G36*
X749592Y1255319D02*
X749424Y1255121D01*
X749276Y1254919D01*
X749148Y1254715D01*
X749039Y1254507D01*
X748950Y1254295D01*
X748881Y1254081D01*
X748831Y1253864D01*
X748802Y1253643D01*
X748792Y1253419D01*
X747268D01*
X747258Y1253643D01*
X747228Y1253864D01*
X747179Y1254081D01*
X747110Y1254295D01*
X747021Y1254507D01*
X746912Y1254715D01*
X746784Y1254919D01*
X746636Y1255121D01*
X746468Y1255319D01*
X746280Y1255515D01*
X749780D01*
X749592Y1255319D01*
D02*
G37*
G36*
X564591Y1230922D02*
X564789Y1230754D01*
X564991Y1230606D01*
X565196Y1230478D01*
X565404Y1230369D01*
X565615Y1230280D01*
X565829Y1230211D01*
X566046Y1230162D01*
X566267Y1230132D01*
X566491Y1230122D01*
Y1228598D01*
X566267Y1228588D01*
X566046Y1228559D01*
X565829Y1228509D01*
X565615Y1228440D01*
X565404Y1228351D01*
X565196Y1228242D01*
X564991Y1228114D01*
X564789Y1227966D01*
X564591Y1227798D01*
X564395Y1227610D01*
Y1231110D01*
X564591Y1230922D01*
D02*
G37*
G36*
X564269Y1198261D02*
X564187Y1198139D01*
X564115Y1197999D01*
X564053Y1197840D01*
X564000Y1197662D01*
X563957Y1197466D01*
X563923Y1197252D01*
X563899Y1197019D01*
X563880Y1196497D01*
X561340D01*
X561335Y1196767D01*
X561297Y1197252D01*
X561263Y1197466D01*
X561220Y1197662D01*
X561167Y1197840D01*
X561105Y1197999D01*
X561033Y1198139D01*
X560951Y1198261D01*
X560860Y1198365D01*
X564360D01*
X564269Y1198261D01*
D02*
G37*
G36*
X755942Y1198169D02*
X755774Y1197971D01*
X755626Y1197769D01*
X755498Y1197564D01*
X755389Y1197356D01*
X755300Y1197145D01*
X755231Y1196931D01*
X755182Y1196713D01*
X755152Y1196493D01*
X755142Y1196269D01*
X753618D01*
X753608Y1196493D01*
X753578Y1196713D01*
X753529Y1196931D01*
X753460Y1197145D01*
X753371Y1197356D01*
X753262Y1197564D01*
X753134Y1197769D01*
X752986Y1197971D01*
X752818Y1198169D01*
X752630Y1198365D01*
X756130D01*
X755942Y1198169D01*
D02*
G37*
G36*
X571889Y1183021D02*
X571807Y1182899D01*
X571735Y1182759D01*
X571673Y1182600D01*
X571620Y1182422D01*
X571577Y1182226D01*
X571543Y1182012D01*
X571519Y1181779D01*
X571500Y1181257D01*
X568960D01*
X568955Y1181527D01*
X568917Y1182012D01*
X568883Y1182226D01*
X568840Y1182422D01*
X568787Y1182600D01*
X568725Y1182759D01*
X568653Y1182899D01*
X568571Y1183021D01*
X568480Y1183125D01*
X571980D01*
X571889Y1183021D01*
D02*
G37*
G36*
X762292Y1182929D02*
X762124Y1182731D01*
X761976Y1182529D01*
X761848Y1182325D01*
X761739Y1182116D01*
X761650Y1181905D01*
X761581Y1181691D01*
X761532Y1181473D01*
X761502Y1181253D01*
X761492Y1181029D01*
X759968D01*
X759958Y1181253D01*
X759929Y1181473D01*
X759879Y1181691D01*
X759810Y1181905D01*
X759721Y1182116D01*
X759612Y1182325D01*
X759484Y1182529D01*
X759336Y1182731D01*
X759168Y1182929D01*
X758980Y1183125D01*
X762480D01*
X762292Y1182929D01*
D02*
G37*
G36*
X1053122Y1180389D02*
X1052954Y1180191D01*
X1052806Y1179989D01*
X1052678Y1179784D01*
X1052569Y1179576D01*
X1052480Y1179365D01*
X1052411Y1179151D01*
X1052362Y1178933D01*
X1052332Y1178713D01*
X1052322Y1178489D01*
X1050798D01*
X1050788Y1178713D01*
X1050759Y1178933D01*
X1050709Y1179151D01*
X1050640Y1179365D01*
X1050551Y1179576D01*
X1050442Y1179784D01*
X1050314Y1179989D01*
X1050166Y1180191D01*
X1049998Y1180389D01*
X1049810Y1180585D01*
X1053310D01*
X1053122Y1180389D01*
D02*
G37*
G36*
X577529Y1167191D02*
X577487Y1167184D01*
X577428Y1167156D01*
X577351Y1167106D01*
X577256Y1167035D01*
X577012Y1166828D01*
X576512Y1166356D01*
X576310Y1166156D01*
X574412Y1167850D01*
X574611Y1168052D01*
X575277Y1168805D01*
X575345Y1168904D01*
X575390Y1168987D01*
X575414Y1169053D01*
X575415Y1169101D01*
X577529Y1167191D01*
D02*
G37*
G36*
X585445Y1151930D02*
X585307Y1151921D01*
X585163Y1151893D01*
X585013Y1151845D01*
X584857Y1151776D01*
X584694Y1151688D01*
X584525Y1151580D01*
X584349Y1151452D01*
X584167Y1151304D01*
X583785Y1150949D01*
X581989Y1152745D01*
X582176Y1152939D01*
X582492Y1153309D01*
X582620Y1153485D01*
X582728Y1153654D01*
X582816Y1153817D01*
X582885Y1153973D01*
X582933Y1154124D01*
X582962Y1154267D01*
X582970Y1154405D01*
X585445Y1151930D01*
D02*
G37*
G36*
X983272Y1148639D02*
X983104Y1148441D01*
X982956Y1148239D01*
X982828Y1148035D01*
X982719Y1147827D01*
X982630Y1147615D01*
X982561Y1147401D01*
X982512Y1147184D01*
X982482Y1146963D01*
X982472Y1146739D01*
X980948D01*
X980938Y1146963D01*
X980909Y1147184D01*
X980859Y1147401D01*
X980790Y1147615D01*
X980701Y1147827D01*
X980592Y1148035D01*
X980464Y1148239D01*
X980316Y1148441D01*
X980148Y1148639D01*
X979960Y1148835D01*
X983460D01*
X983272Y1148639D01*
D02*
G37*
G36*
X593065Y1136690D02*
X592927Y1136682D01*
X592784Y1136653D01*
X592633Y1136605D01*
X592477Y1136536D01*
X592314Y1136448D01*
X592145Y1136340D01*
X591969Y1136212D01*
X591787Y1136064D01*
X591405Y1135709D01*
X589609Y1137505D01*
X589796Y1137699D01*
X590112Y1138069D01*
X590240Y1138245D01*
X590348Y1138414D01*
X590436Y1138577D01*
X590505Y1138733D01*
X590553Y1138884D01*
X590582Y1139027D01*
X590590Y1139165D01*
X593065Y1136690D01*
D02*
G37*
G36*
X975652Y1118159D02*
X975484Y1117961D01*
X975336Y1117759D01*
X975208Y1117554D01*
X975099Y1117346D01*
X975010Y1117135D01*
X974941Y1116921D01*
X974892Y1116703D01*
X974862Y1116483D01*
X974852Y1116259D01*
X973328D01*
X973318Y1116483D01*
X973288Y1116703D01*
X973239Y1116921D01*
X973170Y1117135D01*
X973081Y1117346D01*
X972972Y1117554D01*
X972844Y1117759D01*
X972696Y1117961D01*
X972528Y1118159D01*
X972340Y1118355D01*
X975840D01*
X975652Y1118159D01*
D02*
G37*
G36*
X982482Y1113637D02*
X982512Y1113417D01*
X982561Y1113199D01*
X982630Y1112985D01*
X982719Y1112774D01*
X982828Y1112566D01*
X982956Y1112361D01*
X983104Y1112159D01*
X983272Y1111961D01*
X983460Y1111765D01*
X979960D01*
X980148Y1111961D01*
X980316Y1112159D01*
X980464Y1112361D01*
X980592Y1112566D01*
X980701Y1112774D01*
X980790Y1112985D01*
X980859Y1113199D01*
X980909Y1113417D01*
X980938Y1113637D01*
X980948Y1113861D01*
X982472D01*
X982482Y1113637D01*
D02*
G37*
G36*
X969302Y1112759D02*
X969134Y1112561D01*
X968986Y1112359D01*
X968858Y1112154D01*
X968749Y1111946D01*
X968660Y1111735D01*
X968591Y1111521D01*
X968541Y1111303D01*
X968512Y1111083D01*
X968502Y1110859D01*
X966978D01*
X966968Y1111083D01*
X966938Y1111303D01*
X966889Y1111521D01*
X966820Y1111735D01*
X966731Y1111946D01*
X966622Y1112154D01*
X966494Y1112359D01*
X966346Y1112561D01*
X966178Y1112759D01*
X965990Y1112954D01*
X969490D01*
X969302Y1112759D01*
D02*
G37*
G36*
X748802Y1112367D02*
X748831Y1112147D01*
X748881Y1111929D01*
X748950Y1111715D01*
X749039Y1111504D01*
X749148Y1111295D01*
X749276Y1111091D01*
X749424Y1110889D01*
X749592Y1110691D01*
X749780Y1110495D01*
X746280D01*
X746468Y1110691D01*
X746636Y1110889D01*
X746784Y1111091D01*
X746912Y1111295D01*
X747021Y1111504D01*
X747110Y1111715D01*
X747179Y1111929D01*
X747228Y1112147D01*
X747258Y1112367D01*
X747268Y1112591D01*
X748792D01*
X748802Y1112367D01*
D02*
G37*
G36*
X757869Y1083583D02*
X757891Y1083324D01*
X757929Y1083077D01*
X757982Y1082841D01*
X758053Y1082617D01*
X758139Y1082405D01*
X758242Y1082205D01*
X758361Y1082016D01*
X758496Y1081839D01*
X758647Y1081674D01*
X757570Y1080596D01*
X757404Y1080747D01*
X757227Y1080882D01*
X757038Y1081001D01*
X756838Y1081104D01*
X756626Y1081190D01*
X756402Y1081261D01*
X756166Y1081314D01*
X755919Y1081352D01*
X755660Y1081374D01*
X755389Y1081379D01*
X757864Y1083854D01*
X757869Y1083583D01*
D02*
G37*
G36*
X747995Y1079204D02*
X748017Y1078945D01*
X748055Y1078698D01*
X748109Y1078462D01*
X748179Y1078238D01*
X748265Y1078026D01*
X748368Y1077825D01*
X748487Y1077637D01*
X748622Y1077460D01*
X748773Y1077294D01*
X747695Y1076217D01*
X747530Y1076368D01*
X747353Y1076503D01*
X747165Y1076622D01*
X746964Y1076725D01*
X746752Y1076811D01*
X746528Y1076881D01*
X746292Y1076935D01*
X746045Y1076973D01*
X745786Y1076995D01*
X745515Y1077000D01*
X747990Y1079475D01*
X747995Y1079204D01*
D02*
G37*
G36*
X1253181Y1031240D02*
X1026160D01*
X1024181Y1029261D01*
X1022911Y1030531D01*
X1022071Y1031093D01*
X1021080Y1031290D01*
X898585D01*
X898266Y1031609D01*
Y1042344D01*
X898069Y1043335D01*
X897507Y1044175D01*
X892101Y1049581D01*
X891261Y1050143D01*
X890270Y1050340D01*
X860851Y1050340D01*
Y1057910D01*
X860673Y1058802D01*
X860168Y1059558D01*
X856734Y1062992D01*
X856670Y1063168D01*
X856568Y1063279D01*
X856523Y1063338D01*
X856483Y1063403D01*
X856446Y1063474D01*
X856412Y1063557D01*
X856382Y1063654D01*
X856356Y1063767D01*
X856336Y1063898D01*
X856323Y1064049D01*
X856319Y1064268D01*
X856194Y1064554D01*
Y1065060D01*
X855581Y1066539D01*
X854449Y1067671D01*
X852970Y1068284D01*
X851370D01*
X849891Y1067671D01*
X848759Y1066539D01*
X848146Y1065060D01*
Y1063460D01*
X848759Y1061981D01*
X849891Y1060849D01*
X851370Y1060236D01*
X851877D01*
X852162Y1060111D01*
X852381Y1060107D01*
X852532Y1060094D01*
X852663Y1060074D01*
X852776Y1060048D01*
X852873Y1060018D01*
X852955Y1059984D01*
X853027Y1059947D01*
X853092Y1059907D01*
X853151Y1059862D01*
X853262Y1059760D01*
X853438Y1059696D01*
X856189Y1056945D01*
Y1050340D01*
X850691D01*
Y1052830D01*
X850513Y1053722D01*
X850008Y1054478D01*
X837308Y1067178D01*
X836552Y1067683D01*
X835660Y1067861D01*
X774678D01*
X759928Y1082611D01*
X759864Y1082787D01*
X759762Y1082898D01*
X759717Y1082958D01*
X759677Y1083022D01*
X759640Y1083093D01*
X759606Y1083176D01*
X759576Y1083273D01*
X759550Y1083386D01*
X759530Y1083517D01*
X759517Y1083668D01*
X759513Y1083886D01*
X759388Y1084173D01*
Y1084640D01*
X759502Y1084746D01*
X760493Y1085331D01*
X774322Y1071502D01*
X775078Y1070997D01*
X775970Y1070819D01*
X1047750D01*
X1048642Y1070997D01*
X1049398Y1071502D01*
X1053208Y1075312D01*
X1053713Y1076068D01*
X1053891Y1076960D01*
Y1178247D01*
X1053970Y1178416D01*
X1053977Y1178566D01*
X1053987Y1178641D01*
X1054003Y1178714D01*
X1054028Y1178791D01*
X1054063Y1178873D01*
X1054110Y1178963D01*
X1054171Y1179061D01*
X1054250Y1179168D01*
X1054348Y1179284D01*
X1054499Y1179441D01*
X1054613Y1179732D01*
X1054971Y1180091D01*
X1055584Y1181570D01*
Y1183170D01*
X1054971Y1184649D01*
X1053839Y1185781D01*
X1052360Y1186394D01*
X1050760D01*
X1049281Y1185781D01*
X1048149Y1184649D01*
X1047536Y1183170D01*
Y1181570D01*
X1048149Y1180091D01*
X1048507Y1179732D01*
X1048621Y1179441D01*
X1048773Y1179284D01*
X1048870Y1179168D01*
X1048949Y1179061D01*
X1049010Y1178963D01*
X1049057Y1178873D01*
X1049092Y1178791D01*
X1049117Y1178714D01*
X1049133Y1178641D01*
X1049143Y1178566D01*
X1049150Y1178416D01*
X1049229Y1178247D01*
Y1077925D01*
X1046785Y1075481D01*
X968756D01*
X968415Y1076069D01*
X968287Y1076751D01*
X975738Y1084202D01*
X976243Y1084958D01*
X976421Y1085850D01*
Y1109168D01*
X977686Y1109180D01*
X978299Y1107701D01*
X979431Y1106569D01*
X980910Y1105956D01*
X982510D01*
X983989Y1106569D01*
X985121Y1107701D01*
X985734Y1109180D01*
Y1110780D01*
X985121Y1112259D01*
X984763Y1112618D01*
X984649Y1112909D01*
X984498Y1113066D01*
X984400Y1113182D01*
X984321Y1113289D01*
X984260Y1113387D01*
X984213Y1113477D01*
X984178Y1113559D01*
X984153Y1113636D01*
X984137Y1113709D01*
X984127Y1113784D01*
X984120Y1113934D01*
X984041Y1114103D01*
Y1146497D01*
X984120Y1146666D01*
X984127Y1146816D01*
X984137Y1146890D01*
X984153Y1146964D01*
X984178Y1147041D01*
X984213Y1147123D01*
X984260Y1147213D01*
X984321Y1147311D01*
X984400Y1147418D01*
X984498Y1147534D01*
X984649Y1147691D01*
X984763Y1147982D01*
X985121Y1148341D01*
X985734Y1149820D01*
Y1151420D01*
X985121Y1152899D01*
X983989Y1154031D01*
X982510Y1154644D01*
X980910D01*
X979431Y1154031D01*
X978299Y1152899D01*
X977686Y1151420D01*
Y1149820D01*
X978299Y1148341D01*
X978657Y1147982D01*
X978771Y1147691D01*
X978923Y1147534D01*
X979020Y1147419D01*
X979099Y1147311D01*
X979160Y1147213D01*
X979207Y1147123D01*
X979242Y1147041D01*
X979267Y1146964D01*
X979283Y1146890D01*
X979293Y1146816D01*
X979300Y1146666D01*
X979379Y1146497D01*
Y1120952D01*
X978114Y1120940D01*
X977501Y1122419D01*
X976369Y1123551D01*
X974890Y1124164D01*
X973290D01*
X971811Y1123551D01*
X970679Y1122419D01*
X970066Y1120940D01*
Y1119507D01*
X969568Y1118976D01*
X969010Y1118569D01*
X968540Y1118764D01*
X966940D01*
X965461Y1118151D01*
X964329Y1117019D01*
X963716Y1115540D01*
Y1113940D01*
X964329Y1112460D01*
X964687Y1112102D01*
X964801Y1111811D01*
X964952Y1111654D01*
X965050Y1111538D01*
X965129Y1111431D01*
X965190Y1111333D01*
X965237Y1111243D01*
X965272Y1111161D01*
X965297Y1111084D01*
X965313Y1111011D01*
X965323Y1110936D01*
X965330Y1110786D01*
X965409Y1110617D01*
Y1086815D01*
X962965Y1084371D01*
X783286D01*
X763061Y1104595D01*
Y1180787D01*
X763140Y1180956D01*
X763147Y1181106D01*
X763157Y1181180D01*
X763173Y1181254D01*
X763198Y1181331D01*
X763233Y1181413D01*
X763280Y1181503D01*
X763341Y1181601D01*
X763420Y1181708D01*
X763518Y1181824D01*
X763669Y1181981D01*
X763783Y1182272D01*
X764141Y1182631D01*
X764754Y1184110D01*
Y1185710D01*
X764141Y1187189D01*
X763009Y1188321D01*
X761530Y1188934D01*
X759930D01*
X758451Y1188321D01*
X757981Y1187852D01*
X756711Y1188378D01*
Y1196027D01*
X756790Y1196196D01*
X756797Y1196346D01*
X756807Y1196421D01*
X756823Y1196494D01*
X756848Y1196571D01*
X756883Y1196653D01*
X756930Y1196743D01*
X756991Y1196841D01*
X757070Y1196948D01*
X757168Y1197064D01*
X757319Y1197221D01*
X757433Y1197512D01*
X757791Y1197871D01*
X758404Y1199350D01*
Y1200950D01*
X757791Y1202429D01*
X756659Y1203561D01*
X755180Y1204174D01*
X753580D01*
X752101Y1203561D01*
X751631Y1203092D01*
X750361Y1203618D01*
Y1253177D01*
X750440Y1253346D01*
X750447Y1253496D01*
X750457Y1253570D01*
X750473Y1253644D01*
X750498Y1253721D01*
X750533Y1253803D01*
X750580Y1253893D01*
X750641Y1253991D01*
X750720Y1254098D01*
X750817Y1254214D01*
X750969Y1254371D01*
X751083Y1254662D01*
X751441Y1255021D01*
X752054Y1256500D01*
Y1258100D01*
X751441Y1259579D01*
X750309Y1260711D01*
X748830Y1261324D01*
X747230D01*
X745751Y1260711D01*
X744619Y1259579D01*
X744006Y1258100D01*
Y1256500D01*
X744619Y1255021D01*
X744977Y1254662D01*
X745091Y1254371D01*
X745242Y1254214D01*
X745340Y1254099D01*
X745419Y1253991D01*
X745480Y1253893D01*
X745527Y1253803D01*
X745562Y1253721D01*
X745587Y1253644D01*
X745603Y1253570D01*
X745613Y1253496D01*
X745620Y1253346D01*
X745699Y1253177D01*
Y1112840D01*
X745524Y1112600D01*
X745281Y1112438D01*
X744117Y1112987D01*
X744011Y1113137D01*
Y1219200D01*
X743833Y1220092D01*
X743328Y1220848D01*
X733168Y1231008D01*
X732412Y1231513D01*
X731520Y1231691D01*
X566733D01*
X566564Y1231770D01*
X566414Y1231777D01*
X566339Y1231787D01*
X566266Y1231803D01*
X566189Y1231828D01*
X566107Y1231863D01*
X566017Y1231910D01*
X565919Y1231971D01*
X565812Y1232050D01*
X565696Y1232148D01*
X565539Y1232299D01*
X565248Y1232413D01*
X564889Y1232771D01*
X563410Y1233384D01*
X561810D01*
X560331Y1232771D01*
X559199Y1231639D01*
X558586Y1230160D01*
Y1228560D01*
X559199Y1227081D01*
X560331Y1225949D01*
X561810Y1225336D01*
X563410D01*
X564889Y1225949D01*
X565248Y1226307D01*
X565539Y1226421D01*
X565696Y1226572D01*
X565812Y1226670D01*
X565919Y1226749D01*
X566017Y1226810D01*
X566107Y1226857D01*
X566189Y1226892D01*
X566266Y1226917D01*
X566339Y1226933D01*
X566414Y1226943D01*
X566564Y1226950D01*
X566733Y1227029D01*
X730555D01*
X739349Y1218234D01*
Y1107440D01*
X739527Y1106548D01*
X740032Y1105792D01*
X756816Y1089008D01*
X756231Y1088017D01*
X756125Y1087903D01*
X754564D01*
X753085Y1087290D01*
X751953Y1086159D01*
X751340Y1084679D01*
Y1083079D01*
X751953Y1081600D01*
X753085Y1080468D01*
X754564Y1079855D01*
X755070D01*
X755357Y1079730D01*
X755575Y1079726D01*
X755726Y1079713D01*
X755857Y1079693D01*
X755970Y1079667D01*
X756067Y1079637D01*
X756150Y1079603D01*
X756221Y1079566D01*
X756285Y1079526D01*
X756345Y1079481D01*
X756456Y1079379D01*
X756632Y1079315D01*
X772065Y1063882D01*
X772821Y1063377D01*
X773713Y1063199D01*
X834695D01*
X846029Y1051865D01*
Y1050340D01*
X840531Y1050340D01*
X840122Y1050258D01*
X839848Y1050668D01*
X830958Y1059558D01*
X830202Y1060063D01*
X829310Y1060241D01*
X768046D01*
X750054Y1078232D01*
X749990Y1078408D01*
X749888Y1078519D01*
X749843Y1078578D01*
X749803Y1078643D01*
X749766Y1078714D01*
X749732Y1078797D01*
X749702Y1078894D01*
X749676Y1079007D01*
X749656Y1079138D01*
X749643Y1079289D01*
X749639Y1079508D01*
X749514Y1079793D01*
Y1080300D01*
X748901Y1081779D01*
X747769Y1082911D01*
X746290Y1083524D01*
X744690D01*
X743211Y1082911D01*
X742079Y1081779D01*
X741466Y1080300D01*
Y1078700D01*
X742079Y1077221D01*
X743211Y1076089D01*
X744690Y1075476D01*
X745197D01*
X745482Y1075351D01*
X745701Y1075347D01*
X745852Y1075334D01*
X745983Y1075314D01*
X746096Y1075288D01*
X746193Y1075258D01*
X746275Y1075224D01*
X746347Y1075187D01*
X746412Y1075147D01*
X746471Y1075102D01*
X746582Y1075000D01*
X746758Y1074936D01*
X765432Y1056262D01*
X766188Y1055757D01*
X767080Y1055579D01*
X828345D01*
X832411Y1051513D01*
X831925Y1050340D01*
X828429D01*
X827438Y1050143D01*
X826598Y1049581D01*
X825018Y1049502D01*
X822582Y1051938D01*
X821826Y1052443D01*
X820934Y1052621D01*
X745803D01*
X745634Y1052700D01*
X745484Y1052707D01*
X745409Y1052717D01*
X745336Y1052733D01*
X745259Y1052758D01*
X745177Y1052793D01*
X745087Y1052840D01*
X744989Y1052901D01*
X744882Y1052980D01*
X744766Y1053077D01*
X744609Y1053229D01*
X744318Y1053343D01*
X743959Y1053701D01*
X742480Y1054314D01*
X740880D01*
X739401Y1053701D01*
X738269Y1052569D01*
X737656Y1051090D01*
Y1049490D01*
X738269Y1048011D01*
X739401Y1046879D01*
X740880Y1046266D01*
X742480D01*
X743959Y1046879D01*
X744318Y1047237D01*
X744609Y1047351D01*
X744766Y1047503D01*
X744882Y1047600D01*
X744989Y1047679D01*
X745087Y1047740D01*
X745177Y1047787D01*
X745259Y1047822D01*
X745336Y1047847D01*
X745409Y1047863D01*
X745484Y1047873D01*
X745634Y1047880D01*
X745803Y1047959D01*
X819968D01*
X821643Y1046285D01*
X810969Y1035611D01*
X810407Y1034771D01*
X810210Y1033780D01*
Y998023D01*
X796999Y984811D01*
X796437Y983971D01*
X796240Y982980D01*
Y948689D01*
X795281Y948291D01*
X794149Y947159D01*
X793945Y946667D01*
X792675Y946920D01*
X792675Y980635D01*
X784130Y972090D01*
X782362Y972118D01*
X782059Y972421D01*
X780580Y973034D01*
X778980D01*
X777501Y972421D01*
X776369Y971289D01*
X775756Y969810D01*
Y968210D01*
X776369Y966731D01*
X777501Y965599D01*
X777523Y965483D01*
X775970Y963930D01*
X737870D01*
X728980Y955040D01*
X728980Y896768D01*
X738018Y887730D01*
X792675D01*
X792675Y942840D01*
X793945Y943093D01*
X794149Y942601D01*
X795281Y941469D01*
X796240Y941071D01*
Y837021D01*
X795020Y835969D01*
X795020Y835969D01*
X609510D01*
X598949Y846530D01*
X599701Y847489D01*
X601180Y846876D01*
X602780D01*
X604259Y847489D01*
X605391Y848621D01*
X606004Y850100D01*
Y851700D01*
X605391Y853179D01*
X604259Y854311D01*
X602780Y854924D01*
X602308D01*
X602248Y854953D01*
X602224Y854969D01*
X602179Y855007D01*
X602156Y855015D01*
X602138Y855027D01*
X602097Y855035D01*
X602091Y855038D01*
X602042Y855064D01*
X601966Y855113D01*
X601882Y855174D01*
X601598Y855416D01*
X601440Y855568D01*
X601276Y855633D01*
X593613Y863296D01*
Y877608D01*
X594061Y877905D01*
X594883Y878099D01*
X615012Y857970D01*
X615070Y857813D01*
X615389Y857470D01*
X615475Y857364D01*
X615547Y857264D01*
X615596Y857188D01*
X615622Y857140D01*
X615625Y857133D01*
X615633Y857092D01*
X615645Y857074D01*
X615653Y857051D01*
X615691Y857006D01*
X615707Y856982D01*
X615736Y856922D01*
Y856450D01*
X616349Y854971D01*
X617481Y853839D01*
X618960Y853226D01*
X620560D01*
X622039Y853839D01*
X623171Y854971D01*
X623784Y856450D01*
Y858050D01*
X623171Y859529D01*
X622039Y860661D01*
X620560Y861274D01*
X620088D01*
X620028Y861303D01*
X620004Y861319D01*
X619959Y861357D01*
X619936Y861365D01*
X619918Y861377D01*
X619877Y861385D01*
X619871Y861388D01*
X619822Y861414D01*
X619746Y861463D01*
X619662Y861524D01*
X619378Y861766D01*
X619220Y861918D01*
X619056Y861983D01*
X599535Y881504D01*
Y884351D01*
X600805Y884876D01*
X615012Y870669D01*
X615070Y870513D01*
X615389Y870170D01*
X615475Y870064D01*
X615547Y869964D01*
X615596Y869888D01*
X615622Y869839D01*
X615625Y869833D01*
X615633Y869792D01*
X615645Y869774D01*
X615653Y869751D01*
X615691Y869706D01*
X615707Y869682D01*
X615736Y869622D01*
Y869150D01*
X616349Y867671D01*
X617481Y866539D01*
X618960Y865926D01*
X620560D01*
X622039Y866539D01*
X623171Y867671D01*
X623784Y869150D01*
Y870750D01*
X623171Y872229D01*
X622039Y873361D01*
X620560Y873974D01*
X620088D01*
X620028Y874003D01*
X620004Y874019D01*
X619959Y874057D01*
X619936Y874065D01*
X619918Y874077D01*
X619877Y874085D01*
X619871Y874088D01*
X619822Y874114D01*
X619746Y874163D01*
X619662Y874224D01*
X619378Y874466D01*
X619220Y874618D01*
X619056Y874683D01*
X604829Y888910D01*
Y1005784D01*
X604898Y1005936D01*
X604916Y1006404D01*
X604930Y1006540D01*
X604949Y1006661D01*
X604968Y1006749D01*
X604984Y1006802D01*
X604987Y1006809D01*
X605010Y1006844D01*
X605014Y1006865D01*
X605025Y1006887D01*
X605030Y1006945D01*
X605036Y1006974D01*
X605057Y1007036D01*
X605391Y1007371D01*
X606004Y1008850D01*
Y1010450D01*
X605391Y1011929D01*
X604259Y1013061D01*
X602780Y1013674D01*
X601180D01*
X599701Y1013061D01*
X598569Y1011929D01*
X597956Y1010450D01*
Y1008850D01*
X598569Y1007371D01*
X598903Y1007036D01*
X598924Y1006974D01*
X598930Y1006945D01*
X598935Y1006887D01*
X598946Y1006865D01*
X598950Y1006844D01*
X598973Y1006809D01*
X598976Y1006802D01*
X598992Y1006749D01*
X599011Y1006661D01*
X599027Y1006559D01*
X599057Y1006187D01*
X599061Y1005967D01*
X599131Y1005805D01*
Y1000397D01*
X597861Y999549D01*
X597486Y999704D01*
X595886D01*
X594407Y999091D01*
X593275Y997959D01*
X592662Y996480D01*
Y994880D01*
X593275Y993401D01*
X593239Y992656D01*
X592054Y991881D01*
X591564Y992084D01*
X589964D01*
X588485Y991471D01*
X588319Y991305D01*
X587049Y991832D01*
Y1129120D01*
X592370Y1134442D01*
X592527Y1134500D01*
X592870Y1134819D01*
X592976Y1134905D01*
X593076Y1134977D01*
X593152Y1135026D01*
X593200Y1135052D01*
X593207Y1135055D01*
X593248Y1135063D01*
X593266Y1135075D01*
X593289Y1135083D01*
X593334Y1135121D01*
X593358Y1135137D01*
X593418Y1135166D01*
X593890D01*
X595369Y1135779D01*
X596501Y1136911D01*
X597114Y1138390D01*
Y1139990D01*
X596501Y1141469D01*
X595369Y1142601D01*
X593890Y1143214D01*
X592290D01*
X590811Y1142601D01*
X589679Y1141469D01*
X589066Y1139990D01*
Y1139518D01*
X589037Y1139458D01*
X589021Y1139434D01*
X588983Y1139389D01*
X588975Y1139366D01*
X588963Y1139348D01*
X588955Y1139307D01*
X588952Y1139301D01*
X588926Y1139252D01*
X588877Y1139176D01*
X588816Y1139092D01*
X588574Y1138808D01*
X588422Y1138650D01*
X588357Y1138486D01*
X583904Y1134033D01*
X582731Y1134519D01*
Y1147662D01*
X584751Y1149682D01*
X584907Y1149740D01*
X585250Y1150059D01*
X585356Y1150145D01*
X585456Y1150217D01*
X585532Y1150266D01*
X585580Y1150292D01*
X585587Y1150295D01*
X585628Y1150303D01*
X585646Y1150315D01*
X585669Y1150323D01*
X585714Y1150361D01*
X585738Y1150377D01*
X585798Y1150406D01*
X586270D01*
X587749Y1151019D01*
X588881Y1152151D01*
X589494Y1153630D01*
Y1155230D01*
X588881Y1156709D01*
X587749Y1157841D01*
X586270Y1158454D01*
X584670D01*
X583191Y1157841D01*
X582059Y1156709D01*
X581446Y1155230D01*
Y1154758D01*
X581417Y1154698D01*
X581401Y1154674D01*
X581363Y1154630D01*
X581355Y1154606D01*
X581343Y1154588D01*
X581335Y1154547D01*
X581332Y1154541D01*
X581306Y1154492D01*
X581257Y1154416D01*
X581196Y1154332D01*
X580954Y1154048D01*
X580802Y1153890D01*
X580737Y1153726D01*
X579332Y1152321D01*
X578159Y1152807D01*
Y1165638D01*
X578168Y1165646D01*
X578650D01*
X580129Y1166259D01*
X581261Y1167391D01*
X581874Y1168870D01*
Y1170470D01*
X581261Y1171949D01*
X580129Y1173081D01*
X578650Y1173694D01*
X577050D01*
X575571Y1173081D01*
X574439Y1171949D01*
X574349Y1171732D01*
X573079Y1171985D01*
Y1181044D01*
X573148Y1181196D01*
X573166Y1181664D01*
X573180Y1181800D01*
X573199Y1181921D01*
X573218Y1182009D01*
X573234Y1182062D01*
X573237Y1182069D01*
X573260Y1182104D01*
X573264Y1182125D01*
X573275Y1182147D01*
X573280Y1182205D01*
X573286Y1182234D01*
X573307Y1182296D01*
X573641Y1182631D01*
X574254Y1184110D01*
Y1185710D01*
X573641Y1187189D01*
X572509Y1188321D01*
X571030Y1188934D01*
X569430D01*
X567951Y1188321D01*
X566819Y1187189D01*
X566729Y1186972D01*
X565459Y1187225D01*
Y1196284D01*
X565528Y1196436D01*
X565546Y1196904D01*
X565560Y1197040D01*
X565579Y1197161D01*
X565598Y1197249D01*
X565614Y1197302D01*
X565617Y1197309D01*
X565640Y1197344D01*
X565644Y1197365D01*
X565655Y1197387D01*
X565660Y1197445D01*
X565666Y1197474D01*
X565687Y1197536D01*
X566021Y1197871D01*
X566634Y1199350D01*
Y1200950D01*
X566021Y1202429D01*
X564889Y1203561D01*
X563410Y1204174D01*
X561810D01*
X560331Y1203561D01*
X559199Y1202429D01*
X558586Y1200950D01*
Y1199350D01*
X559199Y1197871D01*
X559533Y1197536D01*
X559554Y1197474D01*
X559560Y1197445D01*
X559565Y1197387D01*
X559576Y1197365D01*
X559580Y1197344D01*
X559603Y1197309D01*
X559606Y1197302D01*
X559622Y1197249D01*
X559641Y1197161D01*
X559657Y1197059D01*
X559687Y1196687D01*
X559691Y1196467D01*
X559761Y1196305D01*
Y779690D01*
X555709Y775638D01*
X555553Y775580D01*
X555210Y775261D01*
X555104Y775175D01*
X555004Y775103D01*
X554928Y775054D01*
X554879Y775028D01*
X554873Y775025D01*
X554832Y775017D01*
X554814Y775005D01*
X554791Y774997D01*
X554746Y774959D01*
X554722Y774943D01*
X554662Y774914D01*
X554190D01*
X552711Y774301D01*
X551579Y773169D01*
X550966Y771690D01*
Y770090D01*
X551579Y768611D01*
X552711Y767479D01*
X554190Y766866D01*
X555790D01*
X557269Y767479D01*
X558401Y768611D01*
X559014Y770090D01*
Y770562D01*
X559043Y770622D01*
X559059Y770646D01*
X559097Y770691D01*
X559105Y770714D01*
X559117Y770732D01*
X559125Y770773D01*
X559128Y770779D01*
X559154Y770828D01*
X559203Y770904D01*
X559264Y770988D01*
X559506Y771272D01*
X559658Y771430D01*
X559723Y771594D01*
X564624Y776496D01*
X565242Y777420D01*
X565459Y778510D01*
X565459Y778510D01*
Y1181673D01*
X566729Y1182394D01*
X566816Y1182347D01*
X567258Y1181841D01*
X567279Y1181804D01*
X567307Y1181447D01*
X567311Y1181227D01*
X567381Y1181065D01*
Y835660D01*
X567381Y835660D01*
X567598Y834570D01*
X568216Y833646D01*
X614371Y787490D01*
Y774756D01*
X614301Y774604D01*
X614284Y774136D01*
X614270Y774000D01*
X614251Y773879D01*
X614232Y773791D01*
X614216Y773738D01*
X614213Y773731D01*
X614190Y773696D01*
X614186Y773675D01*
X614175Y773653D01*
X614170Y773595D01*
X614164Y773566D01*
X614143Y773504D01*
X613809Y773169D01*
X613196Y771690D01*
Y770090D01*
X613809Y768611D01*
X614941Y767479D01*
X616420Y766866D01*
X618020D01*
X619499Y767479D01*
X620631Y768611D01*
X621244Y770090D01*
Y771690D01*
X620631Y773169D01*
X620297Y773504D01*
X620276Y773566D01*
X620270Y773595D01*
X620265Y773653D01*
X620254Y773675D01*
X620250Y773696D01*
X620227Y773731D01*
X620224Y773738D01*
X620208Y773791D01*
X620189Y773879D01*
X620173Y773981D01*
X620143Y774353D01*
X620139Y774573D01*
X620069Y774735D01*
Y788670D01*
X620069Y788670D01*
X619852Y789760D01*
X619234Y790684D01*
X619234Y790684D01*
X573079Y836840D01*
Y839687D01*
X574349Y840212D01*
X594886Y819676D01*
X594886Y819676D01*
X595810Y819058D01*
X596900Y818841D01*
X596900Y818841D01*
X669380D01*
X676601Y811620D01*
Y774756D01*
X676532Y774604D01*
X676514Y774136D01*
X676500Y774000D01*
X676481Y773879D01*
X676462Y773791D01*
X676446Y773738D01*
X676443Y773731D01*
X676420Y773696D01*
X676416Y773675D01*
X676405Y773653D01*
X676400Y773595D01*
X676394Y773566D01*
X676373Y773504D01*
X676039Y773169D01*
X675426Y771690D01*
Y770090D01*
X676039Y768611D01*
X677171Y767479D01*
X678650Y766866D01*
X680250D01*
X681729Y767479D01*
X682861Y768611D01*
X683474Y770090D01*
Y771690D01*
X682861Y773169D01*
X682527Y773504D01*
X682506Y773566D01*
X682500Y773595D01*
X682495Y773653D01*
X682484Y773675D01*
X682480Y773696D01*
X682457Y773731D01*
X682454Y773738D01*
X682438Y773791D01*
X682419Y773879D01*
X682403Y773981D01*
X682373Y774353D01*
X682369Y774573D01*
X682299Y774735D01*
Y812800D01*
X682299Y812800D01*
X682082Y813890D01*
X681464Y814814D01*
X681464Y814814D01*
X672574Y823704D01*
X672250Y823921D01*
X672635Y825191D01*
X727800D01*
X738831Y814160D01*
Y774756D01*
X738762Y774604D01*
X738744Y774136D01*
X738730Y774000D01*
X738711Y773879D01*
X738692Y773791D01*
X738676Y773738D01*
X738673Y773731D01*
X738650Y773696D01*
X738646Y773675D01*
X738635Y773653D01*
X738630Y773595D01*
X738624Y773566D01*
X738603Y773504D01*
X738269Y773169D01*
X737656Y771690D01*
Y770090D01*
X738269Y768611D01*
X739401Y767479D01*
X740880Y766866D01*
X742480D01*
X743959Y767479D01*
X745091Y768611D01*
X745704Y770090D01*
Y771690D01*
X745091Y773169D01*
X744757Y773504D01*
X744736Y773566D01*
X744730Y773595D01*
X744725Y773653D01*
X744714Y773675D01*
X744710Y773696D01*
X744687Y773731D01*
X744684Y773738D01*
X744668Y773791D01*
X744649Y773879D01*
X744633Y773981D01*
X744603Y774353D01*
X744599Y774573D01*
X744529Y774735D01*
Y815340D01*
X744529Y815340D01*
X744312Y816430D01*
X743694Y817354D01*
X743694Y817354D01*
X732048Y829001D01*
X732573Y830271D01*
X793840D01*
X801061Y823050D01*
Y782590D01*
X800992Y782438D01*
X800974Y781970D01*
X800960Y781834D01*
X800941Y781713D01*
X800922Y781625D01*
X800906Y781572D01*
X800903Y781565D01*
X800880Y781530D01*
X800876Y781509D01*
X800865Y781487D01*
X800860Y781429D01*
X800854Y781400D01*
X800833Y781338D01*
X800499Y781003D01*
X799886Y779524D01*
Y777924D01*
X800499Y776445D01*
X801631Y775313D01*
X803110Y774700D01*
X804710D01*
X806189Y775313D01*
X807321Y776445D01*
X807934Y777924D01*
Y779524D01*
X807321Y781003D01*
X806987Y781338D01*
X806966Y781400D01*
X806960Y781429D01*
X806955Y781487D01*
X806944Y781509D01*
X806940Y781530D01*
X806917Y781565D01*
X806914Y781572D01*
X806898Y781625D01*
X806879Y781713D01*
X806863Y781815D01*
X806833Y782187D01*
X806829Y782407D01*
X806759Y782569D01*
Y822409D01*
X807932Y822896D01*
X816049Y814779D01*
X816889Y814217D01*
X817880Y814020D01*
X1022350Y814020D01*
X1023341Y814217D01*
X1024181Y814779D01*
X1024743Y815619D01*
X1024940Y816610D01*
X1253181Y816610D01*
Y526089D01*
X259389D01*
Y1267151D01*
X1253181D01*
Y1031240D01*
D02*
G37*
G36*
X854675Y1063964D02*
X854697Y1063705D01*
X854735Y1063458D01*
X854789Y1063222D01*
X854859Y1062998D01*
X854945Y1062786D01*
X855048Y1062586D01*
X855167Y1062397D01*
X855302Y1062220D01*
X855453Y1062055D01*
X854376Y1060977D01*
X854210Y1061128D01*
X854033Y1061263D01*
X853845Y1061382D01*
X853644Y1061485D01*
X853432Y1061571D01*
X853208Y1061641D01*
X852972Y1061695D01*
X852725Y1061733D01*
X852466Y1061755D01*
X852195Y1061760D01*
X854670Y1064235D01*
X854675Y1063964D01*
D02*
G37*
G36*
X743661Y1051852D02*
X743859Y1051684D01*
X744061Y1051536D01*
X744266Y1051408D01*
X744473Y1051299D01*
X744685Y1051210D01*
X744899Y1051141D01*
X745117Y1051092D01*
X745337Y1051062D01*
X745561Y1051052D01*
Y1049528D01*
X745337Y1049518D01*
X745117Y1049489D01*
X744899Y1049439D01*
X744685Y1049370D01*
X744473Y1049281D01*
X744266Y1049172D01*
X744061Y1049044D01*
X743859Y1048896D01*
X743661Y1048728D01*
X743465Y1048540D01*
Y1052040D01*
X743661Y1051852D01*
D02*
G37*
G36*
X856189Y1047750D02*
Y1015511D01*
X854919Y1014663D01*
X854240Y1014944D01*
X852640D01*
X851961Y1014663D01*
X850691Y1015511D01*
Y1047750D01*
X856189D01*
D02*
G37*
G36*
X603639Y1007761D02*
X603557Y1007639D01*
X603485Y1007499D01*
X603423Y1007340D01*
X603370Y1007162D01*
X603327Y1006966D01*
X603293Y1006752D01*
X603269Y1006519D01*
X603250Y1005997D01*
X600710D01*
X600705Y1006267D01*
X600667Y1006752D01*
X600633Y1006966D01*
X600590Y1007162D01*
X600537Y1007340D01*
X600475Y1007499D01*
X600403Y1007639D01*
X600321Y1007761D01*
X600230Y1007865D01*
X603730D01*
X603639Y1007761D01*
D02*
G37*
G36*
X980415Y1005880D02*
X980277Y1005872D01*
X980134Y1005843D01*
X979983Y1005795D01*
X979827Y1005726D01*
X979664Y1005638D01*
X979495Y1005530D01*
X979319Y1005402D01*
X979137Y1005254D01*
X978755Y1004899D01*
X976959Y1006695D01*
X977146Y1006889D01*
X977462Y1007259D01*
X977590Y1007435D01*
X977698Y1007604D01*
X977786Y1007767D01*
X977855Y1007923D01*
X977903Y1008074D01*
X977932Y1008217D01*
X977940Y1008355D01*
X980415Y1005880D01*
D02*
G37*
G36*
X866759Y1003689D02*
X866881Y1003607D01*
X867021Y1003535D01*
X867180Y1003473D01*
X867358Y1003420D01*
X867554Y1003377D01*
X867768Y1003343D01*
X868001Y1003319D01*
X868523Y1003300D01*
Y1000760D01*
X868253Y1000755D01*
X867768Y1000717D01*
X867554Y1000683D01*
X867358Y1000640D01*
X867180Y1000587D01*
X867021Y1000525D01*
X866881Y1000453D01*
X866759Y1000371D01*
X866655Y1000280D01*
Y1003780D01*
X866759Y1003689D01*
D02*
G37*
G36*
X822683Y1001033D02*
X822515Y1000835D01*
X822367Y1000633D01*
X822239Y1000428D01*
X822130Y1000220D01*
X822041Y1000009D01*
X821972Y999795D01*
X821923Y999577D01*
X821893Y999357D01*
X821883Y999133D01*
X820359D01*
X820349Y999357D01*
X820319Y999577D01*
X820270Y999795D01*
X820201Y1000009D01*
X820112Y1000220D01*
X820003Y1000428D01*
X819875Y1000633D01*
X819727Y1000835D01*
X819559Y1001033D01*
X819371Y1001229D01*
X822871D01*
X822683Y1001033D01*
D02*
G37*
G36*
X598345Y993791D02*
X598263Y993669D01*
X598191Y993529D01*
X598129Y993370D01*
X598076Y993192D01*
X598033Y992996D01*
X597999Y992782D01*
X597975Y992549D01*
X597956Y992027D01*
X595416D01*
X595411Y992297D01*
X595373Y992782D01*
X595339Y992996D01*
X595296Y993192D01*
X595243Y993370D01*
X595181Y993529D01*
X595109Y993669D01*
X595027Y993791D01*
X594936Y993895D01*
X598436D01*
X598345Y993791D01*
D02*
G37*
G36*
X592423Y986171D02*
X592341Y986049D01*
X592269Y985909D01*
X592207Y985750D01*
X592154Y985572D01*
X592111Y985376D01*
X592077Y985162D01*
X592053Y984929D01*
X592034Y984407D01*
X589494D01*
X589489Y984677D01*
X589451Y985162D01*
X589417Y985376D01*
X589374Y985572D01*
X589321Y985750D01*
X589259Y985909D01*
X589187Y986049D01*
X589105Y986171D01*
X589014Y986275D01*
X592514D01*
X592423Y986171D01*
D02*
G37*
G36*
X1035342Y968299D02*
X1035174Y968101D01*
X1035026Y967899D01*
X1034898Y967694D01*
X1034789Y967486D01*
X1034700Y967275D01*
X1034631Y967061D01*
X1034582Y966843D01*
X1034552Y966623D01*
X1034542Y966399D01*
X1033018D01*
X1033008Y966623D01*
X1032979Y966843D01*
X1032929Y967061D01*
X1032860Y967275D01*
X1032771Y967486D01*
X1032662Y967694D01*
X1032534Y967899D01*
X1032386Y968101D01*
X1032218Y968299D01*
X1032030Y968495D01*
X1035530D01*
X1035342Y968299D01*
D02*
G37*
G36*
X813378Y967598D02*
X813210Y967400D01*
X813062Y967198D01*
X812934Y966993D01*
X812825Y966786D01*
X812736Y966574D01*
X812667Y966360D01*
X812617Y966143D01*
X812588Y965922D01*
X812578Y965698D01*
X811054D01*
X811044Y965922D01*
X811014Y966143D01*
X810965Y966360D01*
X810896Y966574D01*
X810807Y966786D01*
X810698Y966993D01*
X810570Y967198D01*
X810422Y967400D01*
X810254Y967598D01*
X810066Y967794D01*
X813566D01*
X813378Y967598D01*
D02*
G37*
G36*
X1198631Y958643D02*
X1197757Y957768D01*
X1195687Y955414D01*
X1195182Y954719D01*
X1194768Y954069D01*
X1194446Y953463D01*
X1194216Y952903D01*
X1194078Y952387D01*
X1194032Y951916D01*
X1192508Y951920D01*
X1192462Y952389D01*
X1192325Y952904D01*
X1192095Y953465D01*
X1191774Y954071D01*
X1191361Y954723D01*
X1190857Y955421D01*
X1189572Y956954D01*
X1188792Y957790D01*
X1187921Y958671D01*
X1198631Y958643D01*
D02*
G37*
G36*
X1034552Y933297D02*
X1034582Y933076D01*
X1034631Y932859D01*
X1034700Y932645D01*
X1034789Y932433D01*
X1034898Y932225D01*
X1035026Y932021D01*
X1035174Y931819D01*
X1035342Y931621D01*
X1035530Y931425D01*
X1032030D01*
X1032218Y931621D01*
X1032386Y931819D01*
X1032534Y932021D01*
X1032662Y932225D01*
X1032771Y932433D01*
X1032860Y932645D01*
X1032929Y932859D01*
X1032979Y933076D01*
X1033008Y933297D01*
X1033018Y933521D01*
X1034542D01*
X1034552Y933297D01*
D02*
G37*
G36*
X1035776Y931183D02*
X1035972Y931014D01*
X1036172Y930865D01*
X1036375Y930735D01*
X1036582Y930626D01*
X1036793Y930536D01*
X1037007Y930467D01*
X1037224Y930417D01*
X1037445Y930387D01*
X1037669Y930377D01*
X1037653Y928853D01*
X1037429Y928843D01*
X1037209Y928814D01*
X1036991Y928765D01*
X1036776Y928696D01*
X1036564Y928608D01*
X1036355Y928500D01*
X1036149Y928372D01*
X1035946Y928225D01*
X1035745Y928059D01*
X1035548Y927872D01*
X1035583Y931372D01*
X1035776Y931183D01*
D02*
G37*
G36*
X831352Y928217D02*
X831382Y927997D01*
X831431Y927779D01*
X831500Y927565D01*
X831589Y927354D01*
X831698Y927145D01*
X831826Y926941D01*
X831974Y926739D01*
X832142Y926541D01*
X832330Y926345D01*
X828830D01*
X829018Y926541D01*
X829186Y926739D01*
X829334Y926941D01*
X829462Y927145D01*
X829571Y927354D01*
X829660Y927565D01*
X829729Y927779D01*
X829779Y927997D01*
X829808Y928217D01*
X829818Y928441D01*
X831342D01*
X831352Y928217D01*
D02*
G37*
G36*
X835869Y1047750D02*
Y925372D01*
X834604Y925360D01*
X833991Y926839D01*
X833633Y927198D01*
X833519Y927489D01*
X833367Y927646D01*
X833270Y927762D01*
X833191Y927869D01*
X833130Y927967D01*
X833083Y928057D01*
X833048Y928139D01*
X833023Y928216D01*
X833007Y928289D01*
X832997Y928364D01*
X832990Y928514D01*
X832911Y928683D01*
Y1040644D01*
X832733Y1041536D01*
X832228Y1042292D01*
X827943Y1046577D01*
X828429Y1047750D01*
X835869D01*
D02*
G37*
G36*
X1075767Y924709D02*
X1074984Y925497D01*
X1072862Y927361D01*
X1072231Y927817D01*
X1071637Y928190D01*
X1071082Y928480D01*
X1070564Y928687D01*
X1070085Y928812D01*
X1069643Y928853D01*
X1069653Y930377D01*
X1070090Y930418D01*
X1070568Y930542D01*
X1071086Y930748D01*
X1071643Y931036D01*
X1072241Y931406D01*
X1072879Y931860D01*
X1074274Y933012D01*
X1075032Y933713D01*
X1075830Y934495D01*
X1075767Y924709D01*
D02*
G37*
G36*
X838972Y923137D02*
X839001Y922916D01*
X839051Y922699D01*
X839120Y922485D01*
X839209Y922273D01*
X839318Y922066D01*
X839446Y921861D01*
X839594Y921659D01*
X839762Y921461D01*
X839950Y921265D01*
X836450D01*
X836638Y921461D01*
X836806Y921659D01*
X836954Y921861D01*
X837082Y922066D01*
X837191Y922273D01*
X837280Y922485D01*
X837349Y922699D01*
X837399Y922916D01*
X837428Y923137D01*
X837438Y923361D01*
X838962D01*
X838972Y923137D01*
D02*
G37*
G36*
X849132Y918057D02*
X849162Y917837D01*
X849211Y917619D01*
X849280Y917405D01*
X849369Y917194D01*
X849478Y916985D01*
X849606Y916781D01*
X849754Y916579D01*
X849922Y916381D01*
X850110Y916185D01*
X846610D01*
X846798Y916381D01*
X846966Y916579D01*
X847114Y916781D01*
X847242Y916985D01*
X847351Y917194D01*
X847440Y917405D01*
X847509Y917619D01*
X847559Y917837D01*
X847588Y918057D01*
X847598Y918281D01*
X849122D01*
X849132Y918057D01*
D02*
G37*
G36*
X846029Y1047750D02*
Y918523D01*
X845950Y918354D01*
X845943Y918204D01*
X845933Y918130D01*
X845917Y918056D01*
X845892Y917979D01*
X845857Y917897D01*
X845810Y917807D01*
X845749Y917709D01*
X845670Y917602D01*
X845573Y917486D01*
X845421Y917329D01*
X845307Y917038D01*
X844949Y916679D01*
X844336Y915200D01*
Y913600D01*
X844949Y912121D01*
X846081Y910989D01*
X847560Y910376D01*
X849160D01*
X850639Y910989D01*
X851154Y911503D01*
X852231Y910784D01*
X851956Y910120D01*
Y908520D01*
X852569Y907041D01*
X853701Y905909D01*
X855180Y905296D01*
X856780D01*
X858259Y905909D01*
X859391Y907041D01*
X860004Y908520D01*
Y909504D01*
X860131Y909650D01*
X860235Y909755D01*
X860386Y910129D01*
X860673Y910559D01*
X860851Y911451D01*
Y998562D01*
X862121Y999088D01*
X862591Y998619D01*
X864070Y998006D01*
X865670D01*
X867149Y998619D01*
X867484Y998953D01*
X867546Y998974D01*
X867575Y998980D01*
X867633Y998985D01*
X867655Y998996D01*
X867676Y999000D01*
X867711Y999023D01*
X867718Y999026D01*
X867771Y999042D01*
X867859Y999061D01*
X867961Y999077D01*
X868333Y999107D01*
X868553Y999111D01*
X868715Y999181D01*
X974090D01*
X974090Y999181D01*
X975180Y999398D01*
X976104Y1000016D01*
X979721Y1003632D01*
X979877Y1003690D01*
X980220Y1004009D01*
X980326Y1004095D01*
X980426Y1004167D01*
X980502Y1004216D01*
X980551Y1004242D01*
X980557Y1004245D01*
X980598Y1004253D01*
X980616Y1004265D01*
X980639Y1004273D01*
X980684Y1004311D01*
X980708Y1004327D01*
X980768Y1004356D01*
X981240D01*
X982719Y1004969D01*
X983851Y1006101D01*
X984464Y1007580D01*
Y1009180D01*
X983851Y1010659D01*
X982719Y1011791D01*
X981240Y1012404D01*
X979640D01*
X978161Y1011791D01*
X977029Y1010659D01*
X976416Y1009180D01*
Y1008708D01*
X976387Y1008648D01*
X976371Y1008624D01*
X976333Y1008579D01*
X976325Y1008556D01*
X976313Y1008538D01*
X976305Y1008497D01*
X976302Y1008491D01*
X976276Y1008442D01*
X976227Y1008366D01*
X976166Y1008282D01*
X975924Y1007998D01*
X975772Y1007840D01*
X975707Y1007676D01*
X972910Y1004879D01*
X942516D01*
X941941Y1006101D01*
X942554Y1007580D01*
Y1009180D01*
X941941Y1010659D01*
X940809Y1011791D01*
X939330Y1012404D01*
X937730D01*
X936251Y1011791D01*
X935119Y1010659D01*
X934506Y1009180D01*
Y1007580D01*
X935119Y1006101D01*
X934544Y1004879D01*
X868736D01*
X868584Y1004949D01*
X868116Y1004966D01*
X867980Y1004980D01*
X867859Y1004999D01*
X867771Y1005018D01*
X867718Y1005034D01*
X867711Y1005037D01*
X867676Y1005060D01*
X867655Y1005064D01*
X867633Y1005075D01*
X867575Y1005080D01*
X867546Y1005086D01*
X867484Y1005107D01*
X867149Y1005441D01*
X865670Y1006054D01*
X864070D01*
X862591Y1005441D01*
X862121Y1004972D01*
X860851Y1005498D01*
Y1047750D01*
X890270Y1047750D01*
X895676Y1042344D01*
Y1030536D01*
X897512Y1028700D01*
X1021080D01*
X1022350Y1027430D01*
Y860851D01*
X999001D01*
X998153Y862121D01*
X998434Y862800D01*
Y864400D01*
X997821Y865879D01*
X996689Y867011D01*
X995210Y867624D01*
X993610D01*
X992131Y867011D01*
X990999Y865879D01*
X990386Y864400D01*
Y862800D01*
X990667Y862121D01*
X989819Y860851D01*
X872185D01*
X823452Y909585D01*
Y998891D01*
X823531Y999060D01*
X823538Y999210D01*
X823548Y999285D01*
X823564Y999358D01*
X823589Y999435D01*
X823624Y999517D01*
X823671Y999607D01*
X823732Y999705D01*
X823811Y999812D01*
X823908Y999928D01*
X824060Y1000085D01*
X824174Y1000376D01*
X824532Y1000735D01*
X825145Y1002214D01*
Y1003814D01*
X824532Y1005293D01*
X823400Y1006425D01*
X821921Y1007038D01*
X820321D01*
X818841Y1006425D01*
X817710Y1005293D01*
X817097Y1003814D01*
Y1002214D01*
X817710Y1000735D01*
X818068Y1000376D01*
X818182Y1000085D01*
X818333Y999928D01*
X818431Y999812D01*
X818510Y999705D01*
X818571Y999607D01*
X818618Y999517D01*
X818653Y999435D01*
X818678Y999358D01*
X818694Y999285D01*
X818704Y999210D01*
X818711Y999060D01*
X818790Y998891D01*
Y908619D01*
X818968Y907727D01*
X819473Y906971D01*
X869572Y856872D01*
X870328Y856367D01*
X871220Y856189D01*
X1022350D01*
Y850691D01*
X872185D01*
X814147Y908729D01*
Y965456D01*
X814226Y965625D01*
X814233Y965775D01*
X814243Y965850D01*
X814259Y965923D01*
X814284Y966000D01*
X814319Y966082D01*
X814366Y966172D01*
X814427Y966271D01*
X814506Y966377D01*
X814604Y966493D01*
X814755Y966650D01*
X814869Y966941D01*
X815227Y967300D01*
X815840Y968779D01*
Y970379D01*
X815227Y971859D01*
X814095Y972990D01*
X812616Y973603D01*
X811016D01*
X809537Y972990D01*
X808405Y971859D01*
X807792Y970379D01*
Y968779D01*
X808405Y967300D01*
X808763Y966941D01*
X808877Y966650D01*
X809028Y966493D01*
X809126Y966377D01*
X809205Y966270D01*
X809266Y966172D01*
X809313Y966082D01*
X809348Y966000D01*
X809373Y965923D01*
X809389Y965850D01*
X809399Y965775D01*
X809406Y965625D01*
X809485Y965456D01*
Y907764D01*
X809663Y906872D01*
X810168Y906116D01*
X869572Y846712D01*
X870328Y846207D01*
X871220Y846029D01*
X1022350D01*
Y816610D01*
X817880Y816610D01*
X798830Y835660D01*
Y982980D01*
X812800Y996950D01*
Y1033780D01*
X823474Y1044454D01*
X828249Y1039678D01*
Y928683D01*
X828170Y928514D01*
X828163Y928364D01*
X828153Y928289D01*
X828137Y928216D01*
X828112Y928139D01*
X828077Y928057D01*
X828030Y927967D01*
X827969Y927869D01*
X827890Y927762D01*
X827793Y927646D01*
X827641Y927489D01*
X827527Y927198D01*
X827169Y926839D01*
X826556Y925360D01*
Y923760D01*
X827169Y922281D01*
X828301Y921149D01*
X829780Y920536D01*
X831380D01*
X832859Y921149D01*
X833374Y921663D01*
X834451Y920944D01*
X834176Y920280D01*
Y918680D01*
X834789Y917201D01*
X835921Y916069D01*
X837400Y915456D01*
X839000D01*
X840479Y916069D01*
X841611Y917201D01*
X842224Y918680D01*
Y920280D01*
X841611Y921759D01*
X841253Y922118D01*
X841139Y922409D01*
X840987Y922566D01*
X840890Y922682D01*
X840811Y922789D01*
X840750Y922887D01*
X840703Y922977D01*
X840668Y923059D01*
X840643Y923136D01*
X840627Y923210D01*
X840617Y923284D01*
X840610Y923434D01*
X840531Y923603D01*
Y1047750D01*
X846029Y1047750D01*
D02*
G37*
G36*
X852640Y1006896D02*
X854240D01*
X854919Y1007177D01*
X856189Y1006329D01*
Y913344D01*
X855180D01*
X853701Y912731D01*
X853186Y912217D01*
X852109Y912936D01*
X852384Y913600D01*
Y915200D01*
X851771Y916679D01*
X851413Y917038D01*
X851299Y917329D01*
X851148Y917486D01*
X851050Y917601D01*
X850971Y917709D01*
X850910Y917807D01*
X850863Y917897D01*
X850828Y917979D01*
X850803Y918056D01*
X850787Y918130D01*
X850777Y918204D01*
X850770Y918354D01*
X850691Y918523D01*
Y1006329D01*
X851961Y1007177D01*
X852640Y1006896D01*
D02*
G37*
G36*
X859059Y910912D02*
X858921Y910772D01*
X858527Y910322D01*
X858468Y910237D01*
X858424Y910162D01*
X858395Y910098D01*
X858382Y910045D01*
X858385Y910004D01*
X857198Y911503D01*
X857240Y911489D01*
X857290Y911489D01*
X857349Y911502D01*
X857415Y911530D01*
X857489Y911572D01*
X857571Y911627D01*
X857662Y911697D01*
X857867Y911878D01*
X857981Y911990D01*
X859059Y910912D01*
D02*
G37*
G36*
X1185644Y882659D02*
X1185642Y883203D01*
X1185604Y883727D01*
X1185529Y884231D01*
X1185417Y884714D01*
X1185268Y885178D01*
X1185082Y885621D01*
X1184860Y886044D01*
X1184600Y886447D01*
X1184303Y886829D01*
X1183970Y887191D01*
X1185047Y888269D01*
X1185349Y888002D01*
X1185659Y887796D01*
X1185978Y887651D01*
X1186306Y887567D01*
X1186643Y887544D01*
X1186987Y887583D01*
X1187341Y887682D01*
X1187703Y887843D01*
X1188074Y888064D01*
X1188453Y888347D01*
X1185644Y882659D01*
D02*
G37*
G36*
X618269Y873244D02*
X618639Y872928D01*
X618815Y872800D01*
X618984Y872692D01*
X619147Y872604D01*
X619303Y872535D01*
X619454Y872487D01*
X619597Y872458D01*
X619735Y872450D01*
X617260Y869975D01*
X617252Y870113D01*
X617223Y870257D01*
X617175Y870407D01*
X617106Y870563D01*
X617018Y870726D01*
X616910Y870895D01*
X616782Y871071D01*
X616634Y871253D01*
X616279Y871635D01*
X618075Y873431D01*
X618269Y873244D01*
D02*
G37*
G36*
Y860544D02*
X618639Y860228D01*
X618815Y860100D01*
X618984Y859992D01*
X619147Y859904D01*
X619303Y859835D01*
X619454Y859787D01*
X619597Y859759D01*
X619735Y859750D01*
X617260Y857275D01*
X617252Y857413D01*
X617223Y857557D01*
X617175Y857707D01*
X617106Y857863D01*
X617018Y858026D01*
X616910Y858195D01*
X616782Y858371D01*
X616634Y858553D01*
X616279Y858935D01*
X618075Y860731D01*
X618269Y860544D01*
D02*
G37*
G36*
X600489Y854194D02*
X600859Y853878D01*
X601035Y853750D01*
X601204Y853642D01*
X601367Y853554D01*
X601523Y853485D01*
X601674Y853437D01*
X601817Y853409D01*
X601955Y853400D01*
X599480Y850925D01*
X599472Y851063D01*
X599443Y851207D01*
X599395Y851357D01*
X599326Y851513D01*
X599238Y851676D01*
X599130Y851845D01*
X599002Y852021D01*
X598854Y852203D01*
X598499Y852585D01*
X600295Y854381D01*
X600489Y854194D01*
D02*
G37*
G36*
X805185Y782107D02*
X805223Y781622D01*
X805257Y781408D01*
X805300Y781212D01*
X805353Y781034D01*
X805415Y780875D01*
X805487Y780735D01*
X805569Y780613D01*
X805660Y780509D01*
X802160D01*
X802251Y780613D01*
X802333Y780735D01*
X802405Y780875D01*
X802467Y781034D01*
X802520Y781212D01*
X802563Y781408D01*
X802597Y781622D01*
X802621Y781855D01*
X802640Y782377D01*
X805180D01*
X805185Y782107D01*
D02*
G37*
G36*
X742955Y774273D02*
X742993Y773788D01*
X743027Y773574D01*
X743070Y773378D01*
X743123Y773200D01*
X743185Y773041D01*
X743257Y772901D01*
X743339Y772779D01*
X743430Y772675D01*
X739930D01*
X740021Y772779D01*
X740103Y772901D01*
X740175Y773041D01*
X740237Y773200D01*
X740290Y773378D01*
X740333Y773574D01*
X740367Y773788D01*
X740391Y774021D01*
X740410Y774543D01*
X742950D01*
X742955Y774273D01*
D02*
G37*
G36*
X680725D02*
X680763Y773788D01*
X680797Y773574D01*
X680840Y773378D01*
X680893Y773200D01*
X680955Y773041D01*
X681027Y772901D01*
X681109Y772779D01*
X681200Y772675D01*
X677700D01*
X677791Y772779D01*
X677873Y772901D01*
X677945Y773041D01*
X678007Y773200D01*
X678060Y773378D01*
X678103Y773574D01*
X678137Y773788D01*
X678161Y774021D01*
X678180Y774543D01*
X680720D01*
X680725Y774273D01*
D02*
G37*
G36*
X618495D02*
X618533Y773788D01*
X618567Y773574D01*
X618610Y773378D01*
X618663Y773200D01*
X618725Y773041D01*
X618797Y772901D01*
X618879Y772779D01*
X618970Y772675D01*
X615470D01*
X615561Y772779D01*
X615643Y772901D01*
X615715Y773041D01*
X615777Y773200D01*
X615830Y773378D01*
X615873Y773574D01*
X615907Y773788D01*
X615931Y774021D01*
X615950Y774543D01*
X618490D01*
X618495Y774273D01*
D02*
G37*
G36*
X558471Y772575D02*
X558284Y772381D01*
X557968Y772011D01*
X557840Y771835D01*
X557732Y771666D01*
X557644Y771503D01*
X557575Y771347D01*
X557527Y771197D01*
X557499Y771053D01*
X557490Y770915D01*
X555015Y773390D01*
X555153Y773399D01*
X555297Y773427D01*
X555447Y773475D01*
X555603Y773544D01*
X555766Y773632D01*
X555935Y773740D01*
X556111Y773868D01*
X556293Y774016D01*
X556675Y774371D01*
X558471Y772575D01*
D02*
G37*
%LPC*%
G36*
X892588Y1262967D02*
Y1254336D01*
X894128D01*
Y1259125D01*
X894706Y1258456D01*
X895361Y1257858D01*
X896093Y1257330D01*
X896901Y1256873D01*
X897787Y1256486D01*
X898240Y1256337D01*
X898125Y1257210D01*
X897290Y1259227D01*
X895961Y1260958D01*
X894229Y1262287D01*
X892588Y1262967D01*
D02*
G37*
G36*
X970088Y1262967D02*
Y1254336D01*
X975910D01*
Y1255046D01*
X975625Y1257210D01*
X974790Y1259227D01*
X973461Y1260958D01*
X971729Y1262287D01*
X970088Y1262967D01*
D02*
G37*
G36*
X965008Y1262967D02*
X963368Y1262287D01*
X961636Y1260958D01*
X960307Y1259227D01*
X959472Y1257210D01*
X959357Y1256337D01*
X959810Y1256486D01*
X960695Y1256873D01*
X961504Y1257330D01*
X962236Y1257858D01*
X962891Y1258456D01*
X963469Y1259125D01*
Y1254336D01*
X965008D01*
Y1262967D01*
D02*
G37*
G36*
X887508Y1262967D02*
X885868Y1262287D01*
X884136Y1260958D01*
X882807Y1259227D01*
X881972Y1257210D01*
X881687Y1255046D01*
Y1254336D01*
X887508D01*
Y1262967D01*
D02*
G37*
G36*
X894128Y1249256D02*
X892588D01*
Y1246654D01*
X894128Y1246856D01*
Y1249256D01*
D02*
G37*
G36*
X965008D02*
X963469D01*
Y1246856D01*
X965008Y1246654D01*
Y1249256D01*
D02*
G37*
G36*
X302104Y1264764D02*
X279556D01*
Y1242216D01*
X302104D01*
Y1264764D01*
D02*
G37*
G36*
X959357Y1247255D02*
X959472Y1246382D01*
X960307Y1244365D01*
X961636Y1242633D01*
X962797Y1241742D01*
X962629Y1244337D01*
X962496Y1245156D01*
X962392Y1245591D01*
X962236Y1245734D01*
X961504Y1246262D01*
X960695Y1246719D01*
X959810Y1247106D01*
X959357Y1247255D01*
D02*
G37*
G36*
X898240D02*
X897787Y1247106D01*
X896901Y1246719D01*
X896093Y1246262D01*
X895361Y1245734D01*
X895189Y1245577D01*
X895100Y1245156D01*
X894856Y1243424D01*
X894721Y1241682D01*
X895961Y1242633D01*
X897290Y1244365D01*
X898125Y1246382D01*
X898240Y1247255D01*
D02*
G37*
G36*
X887508Y1249256D02*
X881687D01*
Y1248546D01*
X881972Y1246382D01*
X882807Y1244365D01*
X884136Y1242633D01*
X885868Y1241305D01*
X886675Y1240970D01*
X886672Y1241002D01*
X886499Y1242007D01*
X886286Y1242921D01*
X886036Y1243743D01*
X885747Y1244474D01*
X885419Y1245113D01*
X885052Y1245661D01*
X887508Y1245985D01*
Y1249256D01*
D02*
G37*
G36*
X975910D02*
X970088D01*
Y1245985D01*
X972544Y1245661D01*
X972178Y1245113D01*
X971850Y1244474D01*
X971561Y1243743D01*
X971310Y1242921D01*
X971098Y1242007D01*
X970925Y1241002D01*
X970921Y1240970D01*
X971729Y1241305D01*
X973461Y1242633D01*
X974790Y1244365D01*
X975625Y1246382D01*
X975910Y1248546D01*
Y1249256D01*
D02*
G37*
G36*
X1178745Y1264539D02*
X1175835D01*
X1173025Y1263786D01*
X1170506Y1262331D01*
X1168449Y1260274D01*
X1166994Y1257755D01*
X1166241Y1254945D01*
Y1253708D01*
X1166116Y1253419D01*
X1166072Y1250420D01*
X1165882Y1247991D01*
X1165740Y1247017D01*
X1165566Y1246177D01*
X1165370Y1245495D01*
X1165165Y1244978D01*
X1164974Y1244634D01*
X1164713Y1244311D01*
X1164671Y1244167D01*
X1161174Y1240670D01*
X1160119D01*
X1159923Y1240751D01*
X1159915Y1240747D01*
X1159906Y1240751D01*
X1158519Y1240736D01*
X1158479Y1240719D01*
X1158437Y1240733D01*
X1158361Y1240728D01*
X1158319Y1240708D01*
X1158275Y1240721D01*
X1158229Y1240715D01*
X1158147Y1240670D01*
X1157668D01*
X1157443Y1240625D01*
X1148906D01*
Y1237501D01*
X1148894Y1237501D01*
X1148714Y1237421D01*
X1144387D01*
X1144206Y1237501D01*
X1144194Y1237501D01*
Y1240614D01*
X1131646D01*
Y1240590D01*
X1130473Y1240104D01*
X1126409Y1244167D01*
X1126367Y1244311D01*
X1126106Y1244634D01*
X1125915Y1244978D01*
X1125710Y1245495D01*
X1125514Y1246177D01*
X1125341Y1247017D01*
X1125200Y1247976D01*
X1124967Y1251856D01*
X1124964Y1253398D01*
X1124839Y1253698D01*
Y1254945D01*
X1124086Y1257755D01*
X1122631Y1260274D01*
X1120574Y1262331D01*
X1118055Y1263786D01*
X1115245Y1264539D01*
X1112335D01*
X1109525Y1263786D01*
X1107006Y1262331D01*
X1104949Y1260274D01*
X1103494Y1257755D01*
X1102741Y1254945D01*
Y1252035D01*
X1103494Y1249225D01*
X1104949Y1246706D01*
X1107006Y1244649D01*
X1109525Y1243194D01*
X1112335Y1242441D01*
X1113572D01*
X1113861Y1242316D01*
X1116860Y1242272D01*
X1119289Y1242082D01*
X1120263Y1241939D01*
X1121103Y1241766D01*
X1121785Y1241570D01*
X1122302Y1241365D01*
X1122646Y1241174D01*
X1122969Y1240913D01*
X1123113Y1240871D01*
X1129922Y1234062D01*
X1130678Y1233557D01*
X1131359Y1233421D01*
X1131634Y1233299D01*
X1131646Y1233299D01*
Y1229566D01*
X1144194D01*
Y1232679D01*
X1144206Y1232679D01*
X1144387Y1232759D01*
X1148714D01*
X1148894Y1232679D01*
X1148906Y1232679D01*
Y1229577D01*
X1159954D01*
Y1235928D01*
X1159967Y1235928D01*
X1160147Y1236008D01*
X1162139D01*
X1163031Y1236186D01*
X1163787Y1236691D01*
X1167967Y1240871D01*
X1168111Y1240913D01*
X1168434Y1241174D01*
X1168778Y1241366D01*
X1169295Y1241570D01*
X1169977Y1241766D01*
X1170817Y1241939D01*
X1171776Y1242080D01*
X1175656Y1242313D01*
X1177198Y1242316D01*
X1177498Y1242441D01*
X1178745D01*
X1181555Y1243194D01*
X1184074Y1244649D01*
X1186131Y1246706D01*
X1187586Y1249225D01*
X1188339Y1252035D01*
Y1254945D01*
X1187586Y1257755D01*
X1186131Y1260274D01*
X1184074Y1262331D01*
X1181555Y1263786D01*
X1178745Y1264539D01*
D02*
G37*
G36*
X1075875Y1265809D02*
X1072965D01*
X1070155Y1265056D01*
X1067636Y1263601D01*
X1065579Y1261544D01*
X1064124Y1259025D01*
X1063371Y1256215D01*
Y1254978D01*
X1063246Y1254689D01*
X1063203Y1251690D01*
X1063012Y1249261D01*
X1062869Y1248287D01*
X1062696Y1247447D01*
X1062500Y1246765D01*
X1062295Y1246248D01*
X1062104Y1245904D01*
X1061843Y1245581D01*
X1061801Y1245437D01*
X1056987Y1240623D01*
X1055814Y1241110D01*
Y1241114D01*
X1044766D01*
Y1238001D01*
X1044754Y1238001D01*
X1044574Y1237921D01*
X1041516D01*
X1041336Y1238001D01*
X1041324Y1238001D01*
Y1240614D01*
X1028776D01*
X1028776Y1240614D01*
Y1240614D01*
X1027766Y1241211D01*
X1023539Y1245437D01*
X1023497Y1245581D01*
X1023236Y1245904D01*
X1023045Y1246248D01*
X1022840Y1246765D01*
X1022644Y1247447D01*
X1022471Y1248287D01*
X1022330Y1249246D01*
X1022097Y1253126D01*
X1022094Y1254668D01*
X1021969Y1254968D01*
Y1256215D01*
X1021216Y1259025D01*
X1019761Y1261544D01*
X1017704Y1263601D01*
X1015185Y1265056D01*
X1012375Y1265809D01*
X1009465D01*
X1006655Y1265056D01*
X1004136Y1263601D01*
X1002079Y1261544D01*
X1000624Y1259025D01*
X999871Y1256215D01*
Y1253305D01*
X1000624Y1250495D01*
X1002079Y1247976D01*
X1004136Y1245919D01*
X1006655Y1244464D01*
X1009465Y1243711D01*
X1010702D01*
X1010991Y1243586D01*
X1013990Y1243542D01*
X1016419Y1243352D01*
X1017393Y1243210D01*
X1018233Y1243036D01*
X1018915Y1242840D01*
X1019432Y1242635D01*
X1019776Y1242444D01*
X1020099Y1242183D01*
X1020243Y1242141D01*
X1027259Y1235125D01*
X1028015Y1234620D01*
X1028505Y1234522D01*
X1028776Y1234402D01*
Y1229566D01*
X1041324D01*
Y1233179D01*
X1041336Y1233179D01*
X1041516Y1233259D01*
X1044574D01*
X1044754Y1233179D01*
X1044766Y1233179D01*
Y1230066D01*
X1055814D01*
Y1233467D01*
X1056262Y1233557D01*
X1057018Y1234062D01*
X1065097Y1242141D01*
X1065241Y1242183D01*
X1065564Y1242444D01*
X1065908Y1242635D01*
X1066425Y1242840D01*
X1067107Y1243036D01*
X1067947Y1243209D01*
X1068906Y1243350D01*
X1072786Y1243583D01*
X1074328Y1243586D01*
X1074628Y1243711D01*
X1075875D01*
X1078685Y1244464D01*
X1081204Y1245919D01*
X1082078Y1246793D01*
X1082372Y1246909D01*
X1084522Y1248999D01*
X1086375Y1250582D01*
X1087164Y1251170D01*
X1087881Y1251640D01*
X1088502Y1251985D01*
X1089012Y1252205D01*
X1089391Y1252314D01*
X1089804Y1252358D01*
X1089935Y1252429D01*
X1089965D01*
X1093679Y1248715D01*
Y1152855D01*
X1087425Y1146601D01*
X1064573D01*
X1064404Y1146680D01*
X1064254Y1146687D01*
X1064180Y1146697D01*
X1064106Y1146713D01*
X1064029Y1146738D01*
X1063947Y1146773D01*
X1063857Y1146820D01*
X1063759Y1146881D01*
X1063652Y1146960D01*
X1063536Y1147057D01*
X1063379Y1147209D01*
X1063088Y1147323D01*
X1062729Y1147681D01*
X1061250Y1148294D01*
X1059650D01*
X1058171Y1147681D01*
X1057039Y1146549D01*
X1056426Y1145070D01*
Y1143470D01*
X1057039Y1141991D01*
X1058171Y1140859D01*
X1059650Y1140246D01*
X1061250D01*
X1062729Y1140859D01*
X1063088Y1141217D01*
X1063379Y1141331D01*
X1063536Y1141482D01*
X1063652Y1141580D01*
X1063759Y1141659D01*
X1063857Y1141720D01*
X1063947Y1141767D01*
X1064029Y1141802D01*
X1064106Y1141827D01*
X1064180Y1141843D01*
X1064254Y1141853D01*
X1064404Y1141860D01*
X1064573Y1141939D01*
X1088390D01*
X1089282Y1142117D01*
X1090038Y1142622D01*
X1097658Y1150242D01*
X1098163Y1150998D01*
X1098341Y1151890D01*
Y1249680D01*
X1098163Y1250572D01*
X1097658Y1251328D01*
X1092578Y1256408D01*
X1091822Y1256913D01*
X1090930Y1257091D01*
X1089935D01*
X1089804Y1257162D01*
X1089391Y1257206D01*
X1089012Y1257315D01*
X1088502Y1257535D01*
X1087881Y1257880D01*
X1087165Y1258350D01*
X1086387Y1258929D01*
X1083478Y1261508D01*
X1082387Y1262596D01*
X1082086Y1262720D01*
X1081204Y1263601D01*
X1078685Y1265056D01*
X1075875Y1265809D01*
D02*
G37*
G36*
X1133201Y1226709D02*
X1133163Y1226693D01*
X1133124Y1226707D01*
X1125574Y1226358D01*
X1125446Y1226298D01*
X1123569Y1225925D01*
X1121804Y1224746D01*
X1121374Y1224316D01*
X1120195Y1222551D01*
X1119781Y1220470D01*
X1120195Y1218389D01*
X1121374Y1216624D01*
X1123139Y1215445D01*
X1125220Y1215032D01*
X1127298Y1215445D01*
X1132903Y1215460D01*
X1132907Y1215462D01*
X1132933D01*
X1132936Y1215460D01*
X1132985Y1215462D01*
X1137730D01*
X1138255Y1215566D01*
X1144194D01*
Y1226614D01*
X1133430D01*
X1133201Y1226709D01*
D02*
G37*
G36*
X904897Y1229820D02*
X902700D01*
X900669Y1228979D01*
X899115Y1227425D01*
X898274Y1225395D01*
Y1225161D01*
X897135Y1224599D01*
X896486Y1225097D01*
X895161Y1225646D01*
X895346Y1224928D01*
X895673Y1223942D01*
X896061Y1223014D01*
X896508Y1222144D01*
X897014Y1221331D01*
X897580Y1220576D01*
X894088Y1220232D01*
Y1216336D01*
X901423D01*
Y1216546D01*
X901231Y1218006D01*
X902394Y1218898D01*
X902700Y1218772D01*
X904897D01*
X906927Y1219613D01*
X908481Y1221167D01*
X909322Y1223197D01*
Y1225395D01*
X908481Y1227425D01*
X906927Y1228979D01*
X904897Y1229820D01*
D02*
G37*
G36*
X1056830Y1227130D02*
X1052830D01*
Y1223130D01*
X1056830D01*
Y1227130D01*
D02*
G37*
G36*
X1047750D02*
X1043750D01*
Y1223130D01*
X1047750D01*
Y1227130D01*
D02*
G37*
G36*
X1160970Y1226641D02*
X1156970D01*
Y1222641D01*
X1160970D01*
Y1226641D01*
D02*
G37*
G36*
X1151890D02*
X1147890D01*
Y1222641D01*
X1151890D01*
Y1226641D01*
D02*
G37*
G36*
X1224886Y1258570D02*
X1221134D01*
X1217453Y1257838D01*
X1213986Y1256402D01*
X1210866Y1254317D01*
X1208213Y1251664D01*
X1206128Y1248544D01*
X1204692Y1245077D01*
X1203960Y1241396D01*
Y1237644D01*
X1204692Y1233963D01*
X1206128Y1230496D01*
X1208213Y1227376D01*
X1210866Y1224723D01*
X1213986Y1222638D01*
X1217453Y1221202D01*
X1221134Y1220470D01*
X1224886D01*
X1228567Y1221202D01*
X1232034Y1222638D01*
X1235154Y1224723D01*
X1237807Y1227376D01*
X1239892Y1230496D01*
X1241328Y1233963D01*
X1242060Y1237644D01*
Y1241396D01*
X1241328Y1245077D01*
X1239892Y1248544D01*
X1237807Y1251664D01*
X1235154Y1254317D01*
X1232034Y1256402D01*
X1228567Y1257838D01*
X1224886Y1258570D01*
D02*
G37*
G36*
X970941Y1225116D02*
X970957Y1224995D01*
X971384Y1222908D01*
X971662Y1221938D01*
X971982Y1221017D01*
X972345Y1220145D01*
X972751Y1219322D01*
X968588Y1219732D01*
Y1216336D01*
X975923D01*
Y1216546D01*
X975586Y1219102D01*
X974600Y1221483D01*
X973031Y1223528D01*
X970986Y1225097D01*
X970941Y1225116D01*
D02*
G37*
G36*
X292314Y1239364D02*
X289346D01*
X286478Y1238596D01*
X283908Y1237111D01*
X281809Y1235012D01*
X280324Y1232442D01*
X279556Y1229574D01*
Y1226606D01*
X280324Y1223738D01*
X281809Y1221168D01*
X283908Y1219069D01*
X286478Y1217584D01*
X289346Y1216816D01*
X292314D01*
X295182Y1217584D01*
X297752Y1219069D01*
X299851Y1221168D01*
X301336Y1223738D01*
X302104Y1226606D01*
Y1229574D01*
X301336Y1232442D01*
X299851Y1235012D01*
X297752Y1237111D01*
X295182Y1238596D01*
X292314Y1239364D01*
D02*
G37*
G36*
X460254Y1224494D02*
X458654D01*
X457175Y1223881D01*
X456043Y1222749D01*
X455430Y1221270D01*
Y1219670D01*
X456043Y1218191D01*
X457175Y1217059D01*
X458654Y1216446D01*
X460254D01*
X461733Y1217059D01*
X462865Y1218191D01*
X463478Y1219670D01*
Y1221270D01*
X462865Y1222749D01*
X461733Y1223881D01*
X460254Y1224494D01*
D02*
G37*
G36*
X886655Y1225116D02*
X886611Y1225097D01*
X884566Y1223528D01*
X882997Y1221483D01*
X882010Y1219102D01*
X881674Y1216546D01*
Y1216336D01*
X889008D01*
Y1219732D01*
X884846Y1219322D01*
X885252Y1220145D01*
X885615Y1221017D01*
X885935Y1221938D01*
X886212Y1222908D01*
X886639Y1224995D01*
X886655Y1225116D01*
D02*
G37*
G36*
X954897Y1229820D02*
X952700D01*
X950669Y1228979D01*
X949115Y1227425D01*
X948274Y1225395D01*
Y1223197D01*
X949115Y1221167D01*
X950669Y1219613D01*
X952700Y1218772D01*
X954897D01*
X955203Y1218898D01*
X956366Y1218006D01*
X956174Y1216546D01*
Y1216336D01*
X963508D01*
Y1220232D01*
X960016Y1220576D01*
X960583Y1221331D01*
X961089Y1222144D01*
X961536Y1223014D01*
X961923Y1223942D01*
X962251Y1224928D01*
X962436Y1225646D01*
X961111Y1225097D01*
X960461Y1224599D01*
X959322Y1225161D01*
Y1225395D01*
X958481Y1227425D01*
X956927Y1228979D01*
X954897Y1229820D01*
D02*
G37*
G36*
X1041324Y1226614D02*
X1028776D01*
Y1219612D01*
X1028733Y1219543D01*
X1028765Y1219406D01*
X1028711Y1219276D01*
X1028776Y1219120D01*
Y1219073D01*
X1028733Y1219012D01*
X1028335Y1218545D01*
X1028067Y1218267D01*
X1027993Y1218079D01*
X1027360Y1217447D01*
X1027184Y1217382D01*
X1027073Y1217281D01*
X1027011Y1217233D01*
X1026943Y1217190D01*
X1026867Y1217150D01*
X1026778Y1217113D01*
X1026675Y1217078D01*
X1026555Y1217049D01*
X1026417Y1217025D01*
X1026260Y1217008D01*
X1026037Y1216997D01*
X1025775Y1216874D01*
X1025360D01*
X1023881Y1216261D01*
X1022749Y1215129D01*
X1022136Y1213650D01*
Y1212050D01*
X1022749Y1210571D01*
X1023881Y1209439D01*
X1025360Y1208826D01*
X1026960D01*
X1028439Y1209439D01*
X1029571Y1210571D01*
X1030184Y1212050D01*
Y1212653D01*
X1030308Y1212958D01*
X1030306Y1213172D01*
X1030315Y1213316D01*
X1030331Y1213440D01*
X1030353Y1213547D01*
X1030380Y1213636D01*
X1030410Y1213713D01*
X1030444Y1213780D01*
X1030481Y1213840D01*
X1030524Y1213897D01*
X1030626Y1214008D01*
X1030689Y1214183D01*
X1031275Y1214769D01*
X1031455Y1214836D01*
X1032020Y1215362D01*
X1032204Y1215510D01*
X1032283Y1215566D01*
X1032330D01*
X1032486Y1215501D01*
X1032616Y1215555D01*
X1032753Y1215523D01*
X1032822Y1215566D01*
X1041324D01*
Y1226614D01*
D02*
G37*
G36*
X1056830Y1218050D02*
X1052830D01*
Y1214050D01*
X1056830D01*
Y1218050D01*
D02*
G37*
G36*
X1047750D02*
X1043750D01*
Y1214050D01*
X1047750D01*
Y1218050D01*
D02*
G37*
G36*
X1160970Y1217561D02*
X1156970D01*
Y1213561D01*
X1160970D01*
Y1217561D01*
D02*
G37*
G36*
X1151890D02*
X1147890D01*
Y1213561D01*
X1151890D01*
Y1217561D01*
D02*
G37*
G36*
X975923Y1211256D02*
X974381D01*
X975636Y1209747D01*
X975737Y1209638D01*
X975923Y1211046D01*
Y1211256D01*
D02*
G37*
G36*
X1013460Y1215770D02*
Y1206500D01*
X1017722D01*
Y1210628D01*
X1018303Y1210085D01*
X1018924Y1209599D01*
X1019586Y1209170D01*
X1020290Y1208799D01*
X1021033Y1208484D01*
X1021818Y1208227D01*
X1022298Y1208111D01*
X1022163Y1208617D01*
X1020574Y1211368D01*
X1018328Y1213614D01*
X1015577Y1215203D01*
X1013460Y1215770D01*
D02*
G37*
G36*
X1116330Y1214500D02*
Y1205230D01*
X1120592D01*
Y1209358D01*
X1121173Y1208815D01*
X1121794Y1208329D01*
X1122456Y1207900D01*
X1123159Y1207529D01*
X1123903Y1207214D01*
X1124688Y1206957D01*
X1125168Y1206841D01*
X1125033Y1207347D01*
X1123444Y1210098D01*
X1121198Y1212344D01*
X1118447Y1213933D01*
X1116330Y1214500D01*
D02*
G37*
G36*
X1086485Y1216025D02*
X1076960D01*
Y1206500D01*
X1086485D01*
Y1216025D01*
D02*
G37*
G36*
X1008380Y1215770D02*
X1006263Y1215203D01*
X1003512Y1213614D01*
X1001266Y1211368D01*
X999677Y1208617D01*
X999542Y1208111D01*
X1000022Y1208227D01*
X1000807Y1208484D01*
X1001551Y1208799D01*
X1002254Y1209170D01*
X1002916Y1209599D01*
X1003537Y1210085D01*
X1004118Y1210628D01*
Y1206500D01*
X1008380D01*
Y1215770D01*
D02*
G37*
G36*
X1071880Y1216025D02*
X1062355D01*
Y1208442D01*
X1063043Y1208723D01*
X1063732Y1209142D01*
X1064267Y1209637D01*
X1064650Y1210208D01*
X1064880Y1210856D01*
X1064956Y1211580D01*
Y1206500D01*
X1071880D01*
Y1216025D01*
D02*
G37*
G36*
X1189355Y1214755D02*
X1179830D01*
Y1205230D01*
X1189355D01*
Y1214755D01*
D02*
G37*
G36*
X1174750D02*
X1165225D01*
Y1207172D01*
X1165913Y1207452D01*
X1166602Y1207872D01*
X1167137Y1208367D01*
X1167520Y1208938D01*
X1167749Y1209586D01*
X1167826Y1210310D01*
Y1205230D01*
X1174750D01*
Y1214755D01*
D02*
G37*
G36*
X1111250Y1214500D02*
X1109133Y1213933D01*
X1106382Y1212344D01*
X1104136Y1210098D01*
X1102547Y1207347D01*
X1101980Y1205230D01*
X1111250D01*
Y1214500D01*
D02*
G37*
G36*
X972062Y1211256D02*
X968588D01*
Y1204449D01*
X972062Y1211256D01*
D02*
G37*
G36*
X901423D02*
X894408D01*
X894249Y1211041D01*
X894088Y1210799D01*
Y1204838D01*
X896971Y1206322D01*
X896767Y1206185D01*
X896629Y1206019D01*
X896556Y1205823D01*
X896548Y1205598D01*
X896605Y1205344D01*
X896728Y1205060D01*
X896917Y1204746D01*
X897170Y1204402D01*
X897489Y1204030D01*
X897874Y1203627D01*
X895538Y1202371D01*
X895123Y1202768D01*
X894351Y1203399D01*
X894088Y1203570D01*
Y1201506D01*
X894104Y1201508D01*
X896486Y1202494D01*
X898531Y1204064D01*
X900100Y1206109D01*
X901086Y1208490D01*
X901423Y1211046D01*
Y1211256D01*
D02*
G37*
G36*
X968870Y1204512D02*
X968650Y1204447D01*
X968588Y1204377D01*
Y1201506D01*
X968604Y1201508D01*
X970986Y1202494D01*
X971459Y1202858D01*
X970461Y1203727D01*
X969957Y1204080D01*
X969523Y1204329D01*
X969161Y1204473D01*
X968870Y1204512D01*
D02*
G37*
G36*
X888685Y1211256D02*
X881674D01*
Y1211046D01*
X882010Y1208490D01*
X882997Y1206109D01*
X884566Y1204064D01*
X886611Y1202494D01*
X888993Y1201508D01*
X889008Y1201506D01*
Y1210808D01*
X888685Y1211256D01*
D02*
G37*
G36*
X963508D02*
X956174D01*
Y1211046D01*
X956510Y1208490D01*
X957497Y1206109D01*
X959066Y1204064D01*
X961111Y1202494D01*
X963493Y1201508D01*
X963508Y1201506D01*
Y1211256D01*
D02*
G37*
G36*
X1008380Y1201420D02*
X1004118D01*
Y1197292D01*
X1003537Y1197835D01*
X1002916Y1198321D01*
X1002254Y1198750D01*
X1001551Y1199121D01*
X1000807Y1199436D01*
X1000022Y1199693D01*
X999542Y1199809D01*
X999677Y1199303D01*
X1001266Y1196552D01*
X1003512Y1194306D01*
X1006263Y1192717D01*
X1008380Y1192150D01*
Y1201420D01*
D02*
G37*
G36*
X1071880D02*
X1064956D01*
Y1196340D01*
X1064880Y1197064D01*
X1064650Y1197712D01*
X1064267Y1198283D01*
X1063732Y1198778D01*
X1063043Y1199197D01*
X1062355Y1199478D01*
Y1191895D01*
X1071880D01*
Y1201420D01*
D02*
G37*
G36*
X1174750Y1200150D02*
X1167826D01*
Y1195070D01*
X1167749Y1195794D01*
X1167520Y1196442D01*
X1167137Y1197013D01*
X1166602Y1197508D01*
X1165913Y1197927D01*
X1165225Y1198208D01*
Y1190625D01*
X1174750D01*
Y1200150D01*
D02*
G37*
G36*
X1017722Y1201420D02*
X1013460D01*
Y1192150D01*
X1015577Y1192717D01*
X1018328Y1194306D01*
X1020574Y1196552D01*
X1022163Y1199303D01*
X1022298Y1199809D01*
X1021818Y1199693D01*
X1021033Y1199436D01*
X1020290Y1199121D01*
X1019586Y1198750D01*
X1018924Y1198321D01*
X1018303Y1197835D01*
X1017722Y1197292D01*
Y1201420D01*
D02*
G37*
G36*
X1086485D02*
X1076960D01*
Y1191895D01*
X1086485D01*
Y1201420D01*
D02*
G37*
G36*
X292314Y1213964D02*
X289346D01*
X286478Y1213196D01*
X283908Y1211711D01*
X281809Y1209612D01*
X280324Y1207042D01*
X279556Y1204174D01*
Y1201206D01*
X280324Y1198338D01*
X281809Y1195768D01*
X283908Y1193669D01*
X286478Y1192184D01*
X289346Y1191416D01*
X292314D01*
X295182Y1192184D01*
X297752Y1193669D01*
X299851Y1195768D01*
X301336Y1198338D01*
X302104Y1201206D01*
Y1204174D01*
X301336Y1207042D01*
X299851Y1209612D01*
X297752Y1211711D01*
X295182Y1213196D01*
X292314Y1213964D01*
D02*
G37*
G36*
X1120592Y1200150D02*
X1116330D01*
Y1190880D01*
X1118447Y1191447D01*
X1121198Y1193036D01*
X1123444Y1195282D01*
X1125033Y1198033D01*
X1125168Y1198539D01*
X1124688Y1198423D01*
X1123903Y1198166D01*
X1123159Y1197851D01*
X1122456Y1197480D01*
X1121794Y1197051D01*
X1121173Y1196565D01*
X1120592Y1196022D01*
Y1200150D01*
D02*
G37*
G36*
X1111250D02*
X1101980D01*
X1102547Y1198033D01*
X1104136Y1195282D01*
X1106382Y1193036D01*
X1109133Y1191447D01*
X1111250Y1190880D01*
Y1200150D01*
D02*
G37*
G36*
X1189355D02*
X1179830D01*
Y1190625D01*
X1189355D01*
Y1200150D01*
D02*
G37*
G36*
X769620Y1264008D02*
X767539Y1263595D01*
X765774Y1262416D01*
X764595Y1260651D01*
X764182Y1258570D01*
X764595Y1256489D01*
X765774Y1254724D01*
X777104Y1243395D01*
Y1181100D01*
X777517Y1179019D01*
X778696Y1177254D01*
X780461Y1176076D01*
X782542Y1175661D01*
X784623Y1176076D01*
X786388Y1177254D01*
X787567Y1179019D01*
X787980Y1181100D01*
Y1245648D01*
X787567Y1247729D01*
X786388Y1249494D01*
X773466Y1262416D01*
X771701Y1263595D01*
X769620Y1264008D01*
D02*
G37*
G36*
X950760Y1201634D02*
X949160D01*
X947681Y1201021D01*
X946549Y1199889D01*
X945936Y1198410D01*
Y1196810D01*
X946171Y1196243D01*
Y1169498D01*
X945643Y1168223D01*
Y1166622D01*
X946256Y1165144D01*
X947388Y1164012D01*
X948867Y1163399D01*
X950468D01*
X951946Y1164012D01*
X953078Y1165144D01*
X953691Y1166622D01*
Y1168223D01*
X953163Y1169498D01*
Y1195123D01*
X953371Y1195331D01*
X953984Y1196810D01*
Y1198410D01*
X953371Y1199889D01*
X952239Y1201021D01*
X950760Y1201634D01*
D02*
G37*
G36*
X941870Y1162264D02*
X940270D01*
X938995Y1161736D01*
X902505D01*
X901230Y1162264D01*
X899630D01*
X898355Y1161736D01*
X896155D01*
X894880Y1162264D01*
X893280D01*
X891801Y1161651D01*
X890669Y1160519D01*
X890056Y1159040D01*
Y1157440D01*
X890669Y1155961D01*
X891801Y1154829D01*
X893280Y1154216D01*
X894880D01*
X896155Y1154744D01*
X898355D01*
X899630Y1154216D01*
X901230D01*
X902505Y1154744D01*
X922853D01*
X923382Y1153474D01*
X922868Y1152234D01*
Y1150633D01*
X923481Y1149154D01*
X924613Y1148022D01*
X926092Y1147409D01*
X927693D01*
X929172Y1148022D01*
X929767Y1148617D01*
X930073Y1148769D01*
X930207Y1148923D01*
X930298Y1149012D01*
X930381Y1149082D01*
X930455Y1149135D01*
X930521Y1149174D01*
X930581Y1149201D01*
X930638Y1149221D01*
X930697Y1149236D01*
X930761Y1149245D01*
X930911Y1149252D01*
X930951Y1149270D01*
X930993Y1149258D01*
X931131Y1149331D01*
X934495D01*
X934666Y1149251D01*
X934817Y1149245D01*
X934902Y1149234D01*
X934990Y1149216D01*
X935086Y1149188D01*
X935190Y1149149D01*
X935302Y1149097D01*
X935424Y1149030D01*
X935556Y1148946D01*
X935696Y1148845D01*
X935877Y1148700D01*
X936093Y1148636D01*
X936251Y1148479D01*
X937730Y1147866D01*
X939330D01*
X940809Y1148479D01*
X941941Y1149611D01*
X942554Y1151090D01*
Y1152690D01*
X941941Y1154169D01*
X941958Y1154252D01*
X943349Y1154829D01*
X944481Y1155961D01*
X945094Y1157440D01*
Y1159040D01*
X944481Y1160519D01*
X943349Y1161651D01*
X941870Y1162264D01*
D02*
G37*
G36*
X302104Y1172054D02*
X279556D01*
Y1149506D01*
X302104D01*
Y1172054D01*
D02*
G37*
G36*
X441276Y1141944D02*
X439676D01*
X438197Y1141331D01*
X437065Y1140199D01*
X436452Y1138720D01*
Y1137120D01*
X437065Y1135641D01*
X438197Y1134509D01*
X439676Y1133896D01*
X441276D01*
X442755Y1134509D01*
X443887Y1135641D01*
X444500Y1137120D01*
Y1138720D01*
X443887Y1140199D01*
X442755Y1141331D01*
X441276Y1141944D01*
D02*
G37*
G36*
X858050Y1186394D02*
X856450D01*
X854971Y1185781D01*
X853839Y1184649D01*
X853226Y1183170D01*
Y1182698D01*
X853197Y1182638D01*
X853181Y1182614D01*
X853143Y1182570D01*
X853135Y1182546D01*
X853123Y1182528D01*
X853115Y1182487D01*
X853112Y1182481D01*
X853086Y1182432D01*
X853037Y1182356D01*
X852976Y1182272D01*
X852734Y1181988D01*
X852582Y1181830D01*
X852517Y1181666D01*
X851426Y1180574D01*
X850808Y1179650D01*
X850591Y1178560D01*
X850591Y1178560D01*
Y1140460D01*
X850591Y1140460D01*
X850808Y1139370D01*
X851426Y1138446D01*
X861586Y1128286D01*
X861586Y1128286D01*
X862510Y1127668D01*
X863600Y1127451D01*
X892754D01*
X892906Y1127382D01*
X893374Y1127364D01*
X893510Y1127350D01*
X893631Y1127331D01*
X893719Y1127312D01*
X893772Y1127296D01*
X893779Y1127293D01*
X893814Y1127270D01*
X893835Y1127266D01*
X893857Y1127255D01*
X893915Y1127250D01*
X893944Y1127244D01*
X894006Y1127223D01*
X894341Y1126889D01*
X895820Y1126276D01*
X897420D01*
X898899Y1126889D01*
X900031Y1128021D01*
X900644Y1129500D01*
Y1131100D01*
X900031Y1132579D01*
X898899Y1133711D01*
X897420Y1134324D01*
X895820D01*
X894341Y1133711D01*
X894006Y1133377D01*
X893944Y1133356D01*
X893915Y1133350D01*
X893857Y1133345D01*
X893835Y1133334D01*
X893814Y1133330D01*
X893779Y1133307D01*
X893772Y1133304D01*
X893719Y1133288D01*
X893631Y1133269D01*
X893529Y1133253D01*
X893157Y1133223D01*
X892937Y1133219D01*
X892775Y1133149D01*
X864780D01*
X856289Y1141640D01*
Y1177380D01*
X856531Y1177622D01*
X856687Y1177680D01*
X857030Y1177999D01*
X857136Y1178085D01*
X857236Y1178157D01*
X857312Y1178206D01*
X857361Y1178232D01*
X857367Y1178235D01*
X857408Y1178243D01*
X857426Y1178255D01*
X857449Y1178263D01*
X857494Y1178301D01*
X857518Y1178317D01*
X857578Y1178346D01*
X858050D01*
X859529Y1178959D01*
X860661Y1180091D01*
X861274Y1181570D01*
Y1183170D01*
X860661Y1184649D01*
X859529Y1185781D01*
X858050Y1186394D01*
D02*
G37*
G36*
X292314Y1146654D02*
X289346D01*
X286478Y1145886D01*
X283908Y1144401D01*
X281809Y1142302D01*
X280324Y1139732D01*
X279556Y1136864D01*
Y1133896D01*
X280324Y1131028D01*
X281809Y1128458D01*
X283908Y1126359D01*
X286478Y1124874D01*
X289346Y1124106D01*
X292314D01*
X295182Y1124874D01*
X297752Y1126359D01*
X299851Y1128458D01*
X301336Y1131028D01*
X302104Y1133896D01*
Y1136864D01*
X301336Y1139732D01*
X299851Y1142302D01*
X297752Y1144401D01*
X295182Y1145886D01*
X292314Y1146654D01*
D02*
G37*
G36*
X1010768Y1148612D02*
X1009167D01*
X1007689Y1147999D01*
X1006557Y1146867D01*
X1005944Y1145388D01*
Y1143788D01*
X1006557Y1142309D01*
X1006773Y1142092D01*
X1006852Y1141849D01*
X1006999Y1141675D01*
X1007100Y1141542D01*
X1007182Y1141418D01*
X1007248Y1141303D01*
X1007299Y1141197D01*
X1007337Y1141100D01*
X1007364Y1141010D01*
X1007382Y1140926D01*
X1007393Y1140844D01*
X1007399Y1140694D01*
X1007478Y1140523D01*
Y1121792D01*
X1007401Y1121636D01*
X1007407Y1121618D01*
X1007399Y1121601D01*
X1007392Y1121452D01*
X1007383Y1121385D01*
X1007368Y1121321D01*
X1007346Y1121258D01*
X1007316Y1121191D01*
X1007275Y1121118D01*
X1007219Y1121036D01*
X1007146Y1120946D01*
X1007053Y1120848D01*
X1006899Y1120706D01*
X1006756Y1120397D01*
X1006239Y1119879D01*
X1005626Y1118400D01*
Y1116800D01*
X1006239Y1115321D01*
X1007371Y1114189D01*
X1008850Y1113576D01*
X1010450D01*
X1011929Y1114189D01*
X1013061Y1115321D01*
X1013674Y1116800D01*
Y1118400D01*
X1013061Y1119879D01*
X1012845Y1120096D01*
X1012766Y1120339D01*
X1012619Y1120513D01*
X1012518Y1120646D01*
X1012436Y1120770D01*
X1012370Y1120885D01*
X1012319Y1120991D01*
X1012281Y1121088D01*
X1012254Y1121178D01*
X1012236Y1121262D01*
X1012225Y1121344D01*
X1012219Y1121494D01*
X1012140Y1121665D01*
Y1140396D01*
X1012217Y1140552D01*
X1012211Y1140570D01*
X1012219Y1140587D01*
X1012226Y1140736D01*
X1012235Y1140803D01*
X1012250Y1140867D01*
X1012272Y1140930D01*
X1012302Y1140997D01*
X1012343Y1141070D01*
X1012399Y1141152D01*
X1012472Y1141242D01*
X1012565Y1141340D01*
X1012718Y1141482D01*
X1012862Y1141791D01*
X1013379Y1142309D01*
X1013992Y1143788D01*
Y1145388D01*
X1013379Y1146867D01*
X1012247Y1147999D01*
X1010768Y1148612D01*
D02*
G37*
G36*
X292314Y1121254D02*
X289346D01*
X286478Y1120486D01*
X283908Y1119001D01*
X281809Y1116902D01*
X280324Y1114332D01*
X279556Y1111464D01*
Y1108496D01*
X280324Y1105628D01*
X281809Y1103058D01*
X283908Y1100959D01*
X286478Y1099474D01*
X289346Y1098706D01*
X292314D01*
X295182Y1099474D01*
X297752Y1100959D01*
X299851Y1103058D01*
X301336Y1105628D01*
X302104Y1108496D01*
Y1111464D01*
X301336Y1114332D01*
X299851Y1116902D01*
X297752Y1119001D01*
X295182Y1120486D01*
X292314Y1121254D01*
D02*
G37*
G36*
X997750Y1143214D02*
X996150D01*
X994671Y1142601D01*
X993539Y1141469D01*
X992926Y1139990D01*
Y1138390D01*
X993539Y1136911D01*
X993897Y1136552D01*
X994011Y1136261D01*
X994163Y1136104D01*
X994260Y1135988D01*
X994339Y1135881D01*
X994400Y1135783D01*
X994447Y1135693D01*
X994482Y1135611D01*
X994507Y1135534D01*
X994523Y1135461D01*
X994533Y1135386D01*
X994540Y1135236D01*
X994619Y1135067D01*
Y1103943D01*
X994540Y1103774D01*
X994533Y1103624D01*
X994523Y1103549D01*
X994507Y1103476D01*
X994482Y1103399D01*
X994447Y1103317D01*
X994400Y1103227D01*
X994339Y1103129D01*
X994260Y1103022D01*
X994163Y1102906D01*
X994011Y1102749D01*
X993897Y1102458D01*
X993539Y1102099D01*
X992926Y1100620D01*
Y1099020D01*
X993539Y1097541D01*
X994671Y1096409D01*
X996150Y1095796D01*
X997750D01*
X999229Y1096409D01*
X1000361Y1097541D01*
X1000974Y1099020D01*
Y1100620D01*
X1000361Y1102099D01*
X1000003Y1102458D01*
X999889Y1102749D01*
X999737Y1102906D01*
X999640Y1103021D01*
X999561Y1103129D01*
X999500Y1103227D01*
X999453Y1103317D01*
X999418Y1103399D01*
X999393Y1103476D01*
X999377Y1103549D01*
X999367Y1103624D01*
X999360Y1103774D01*
X999281Y1103943D01*
Y1135067D01*
X999360Y1135236D01*
X999367Y1135386D01*
X999377Y1135461D01*
X999393Y1135534D01*
X999418Y1135611D01*
X999453Y1135693D01*
X999500Y1135783D01*
X999561Y1135881D01*
X999640Y1135988D01*
X999737Y1136104D01*
X999889Y1136261D01*
X1000003Y1136552D01*
X1000361Y1136911D01*
X1000974Y1138390D01*
Y1139990D01*
X1000361Y1141469D01*
X999229Y1142601D01*
X997750Y1143214D01*
D02*
G37*
G36*
X896150Y1102574D02*
X894550D01*
X893071Y1101961D01*
X891939Y1100829D01*
X891326Y1099350D01*
Y1097750D01*
X891939Y1096271D01*
X893071Y1095139D01*
X894550Y1094526D01*
X896150D01*
X897629Y1095139D01*
X898761Y1096271D01*
X899374Y1097750D01*
Y1099350D01*
X898761Y1100829D01*
X897629Y1101961D01*
X896150Y1102574D01*
D02*
G37*
G36*
X849160D02*
X847560D01*
X846081Y1101961D01*
X844949Y1100829D01*
X844336Y1099350D01*
Y1097750D01*
X844949Y1096271D01*
X846081Y1095139D01*
X847560Y1094526D01*
X849160D01*
X850639Y1095139D01*
X851771Y1096271D01*
X852384Y1097750D01*
Y1099350D01*
X851771Y1100829D01*
X850639Y1101961D01*
X849160Y1102574D01*
D02*
G37*
G36*
X479590Y1074634D02*
X477990D01*
X476511Y1074021D01*
X476176Y1073687D01*
X476114Y1073666D01*
X476085Y1073660D01*
X476027Y1073655D01*
X476005Y1073644D01*
X475984Y1073640D01*
X475949Y1073617D01*
X475942Y1073614D01*
X475889Y1073598D01*
X475801Y1073579D01*
X475699Y1073563D01*
X475327Y1073533D01*
X475107Y1073529D01*
X474945Y1073459D01*
X424236D01*
X424084Y1073529D01*
X423616Y1073546D01*
X423480Y1073560D01*
X423359Y1073579D01*
X423271Y1073598D01*
X423218Y1073614D01*
X423211Y1073617D01*
X423176Y1073640D01*
X423155Y1073644D01*
X423133Y1073655D01*
X423075Y1073660D01*
X423046Y1073666D01*
X422984Y1073687D01*
X422649Y1074021D01*
X421170Y1074634D01*
X419570D01*
X418091Y1074021D01*
X416959Y1072889D01*
X416346Y1071410D01*
Y1069810D01*
X416959Y1068331D01*
X418091Y1067199D01*
X419570Y1066586D01*
X421170D01*
X422649Y1067199D01*
X422984Y1067533D01*
X423046Y1067554D01*
X423075Y1067560D01*
X423133Y1067565D01*
X423155Y1067576D01*
X423176Y1067580D01*
X423211Y1067603D01*
X423218Y1067606D01*
X423271Y1067622D01*
X423359Y1067641D01*
X423461Y1067657D01*
X423833Y1067687D01*
X424053Y1067691D01*
X424215Y1067761D01*
X474924D01*
X475076Y1067691D01*
X475544Y1067674D01*
X475680Y1067660D01*
X475801Y1067641D01*
X475889Y1067622D01*
X475942Y1067606D01*
X475949Y1067603D01*
X475984Y1067580D01*
X476005Y1067576D01*
X476027Y1067565D01*
X476085Y1067560D01*
X476114Y1067554D01*
X476176Y1067533D01*
X476511Y1067199D01*
X477990Y1066586D01*
X479590D01*
X481069Y1067199D01*
X482201Y1068331D01*
X482814Y1069810D01*
Y1071410D01*
X482201Y1072889D01*
X481069Y1074021D01*
X479590Y1074634D01*
D02*
G37*
G36*
X292314Y1095854D02*
X289346D01*
X286478Y1095086D01*
X283908Y1093601D01*
X281809Y1091502D01*
X280324Y1088932D01*
X279556Y1086064D01*
Y1083096D01*
X280324Y1080228D01*
X281809Y1077658D01*
X283908Y1075559D01*
X286478Y1074074D01*
X289346Y1073306D01*
X292314D01*
X295182Y1074074D01*
X297752Y1075559D01*
X299851Y1077658D01*
X301336Y1080228D01*
X302104Y1083096D01*
Y1086064D01*
X301336Y1088932D01*
X299851Y1091502D01*
X297752Y1093601D01*
X295182Y1095086D01*
X292314Y1095854D01*
D02*
G37*
G36*
X999020Y1068284D02*
X997420D01*
X995941Y1067671D01*
X994809Y1066539D01*
X994196Y1065060D01*
Y1063460D01*
X994809Y1061981D01*
X995941Y1060849D01*
X997420Y1060236D01*
X999020D01*
X1000499Y1060849D01*
X1001631Y1061981D01*
X1002244Y1063460D01*
Y1065060D01*
X1001631Y1066539D01*
X1000499Y1067671D01*
X999020Y1068284D01*
D02*
G37*
G36*
X421170Y1087334D02*
X419570D01*
X418091Y1086721D01*
X416959Y1085589D01*
X416346Y1084110D01*
Y1082510D01*
X416959Y1081031D01*
X418091Y1079899D01*
X419570Y1079286D01*
X421170D01*
X422649Y1079899D01*
X422984Y1080233D01*
X423046Y1080254D01*
X423075Y1080260D01*
X423133Y1080265D01*
X423155Y1080276D01*
X423176Y1080280D01*
X423211Y1080303D01*
X423218Y1080306D01*
X423271Y1080322D01*
X423359Y1080341D01*
X423461Y1080357D01*
X423833Y1080387D01*
X424053Y1080391D01*
X424215Y1080461D01*
X489040D01*
X504522Y1064979D01*
X504580Y1064823D01*
X504899Y1064480D01*
X504985Y1064374D01*
X505057Y1064274D01*
X505106Y1064198D01*
X505132Y1064149D01*
X505135Y1064143D01*
X505143Y1064102D01*
X505155Y1064084D01*
X505163Y1064061D01*
X505201Y1064016D01*
X505217Y1063992D01*
X505246Y1063932D01*
Y1063460D01*
X505859Y1061981D01*
X506991Y1060849D01*
X508470Y1060236D01*
X510070D01*
X511549Y1060849D01*
X512681Y1061981D01*
X513294Y1063460D01*
Y1065060D01*
X512681Y1066539D01*
X511549Y1067671D01*
X510070Y1068284D01*
X509598D01*
X509538Y1068313D01*
X509514Y1068329D01*
X509469Y1068367D01*
X509446Y1068375D01*
X509428Y1068387D01*
X509387Y1068395D01*
X509381Y1068398D01*
X509332Y1068424D01*
X509256Y1068473D01*
X509172Y1068534D01*
X508888Y1068776D01*
X508730Y1068928D01*
X508566Y1068993D01*
X492234Y1085324D01*
X491310Y1085942D01*
X490220Y1086159D01*
X490220Y1086159D01*
X424236D01*
X424084Y1086228D01*
X423616Y1086246D01*
X423480Y1086260D01*
X423359Y1086279D01*
X423271Y1086298D01*
X423218Y1086314D01*
X423211Y1086317D01*
X423176Y1086340D01*
X423155Y1086344D01*
X423133Y1086355D01*
X423075Y1086360D01*
X423046Y1086366D01*
X422984Y1086387D01*
X422649Y1086721D01*
X421170Y1087334D01*
D02*
G37*
G36*
X292314Y1070454D02*
X289346D01*
X286478Y1069686D01*
X283908Y1068201D01*
X281809Y1066102D01*
X280324Y1063532D01*
X279556Y1060664D01*
Y1057696D01*
X280324Y1054828D01*
X281809Y1052258D01*
X283908Y1050159D01*
X286478Y1048674D01*
X289346Y1047906D01*
X292314D01*
X295182Y1048674D01*
X297752Y1050159D01*
X299851Y1052258D01*
X301336Y1054828D01*
X302104Y1057696D01*
Y1060664D01*
X301336Y1063532D01*
X299851Y1066102D01*
X297752Y1068201D01*
X295182Y1069686D01*
X292314Y1070454D01*
D02*
G37*
G36*
X917740Y1050504D02*
X916140D01*
X914661Y1049891D01*
X913529Y1048759D01*
X912916Y1047280D01*
Y1045680D01*
X913529Y1044201D01*
X914661Y1043069D01*
X916140Y1042456D01*
X917740D01*
X919219Y1043069D01*
X920351Y1044201D01*
X920964Y1045680D01*
Y1047280D01*
X920351Y1048759D01*
X919219Y1049891D01*
X917740Y1050504D01*
D02*
G37*
G36*
X286380Y1019170D02*
X279400D01*
Y1012190D01*
X286380D01*
Y1019170D01*
D02*
G37*
G36*
X271780D02*
X264800D01*
Y1012190D01*
X271780D01*
Y1019170D01*
D02*
G37*
G36*
X302277Y1018154D02*
X299703D01*
X297217Y1017488D01*
X294989Y1016201D01*
X293169Y1014381D01*
X291882Y1012153D01*
X291216Y1009667D01*
Y1007093D01*
X291882Y1004607D01*
X293169Y1002379D01*
X294989Y1000559D01*
X297217Y999272D01*
X299703Y998606D01*
X302277D01*
X304763Y999272D01*
X306991Y1000559D01*
X308811Y1002379D01*
X310098Y1004607D01*
X310764Y1007093D01*
Y1009667D01*
X310098Y1012153D01*
X308811Y1014381D01*
X306991Y1016201D01*
X304763Y1017488D01*
X302277Y1018154D01*
D02*
G37*
G36*
X286380Y1004570D02*
X279400D01*
Y997590D01*
X286380D01*
Y1004570D01*
D02*
G37*
G36*
X271780D02*
X264800D01*
Y997590D01*
X271780D01*
Y1004570D01*
D02*
G37*
G36*
X279400Y993130D02*
Y986790D01*
X285740D01*
X285645Y987145D01*
X284224Y989605D01*
X282215Y991614D01*
X279755Y993035D01*
X279400Y993130D01*
D02*
G37*
G36*
X271780D02*
X271425Y993035D01*
X268965Y991614D01*
X266956Y989605D01*
X265535Y987145D01*
X265440Y986790D01*
X271780D01*
Y993130D01*
D02*
G37*
G36*
X531660Y985734D02*
X530060D01*
X528581Y985121D01*
X527449Y983989D01*
X526836Y982510D01*
Y980910D01*
X527449Y979431D01*
X528581Y978299D01*
X530060Y977686D01*
X531660D01*
X533139Y978299D01*
X534271Y979431D01*
X534884Y980910D01*
Y982510D01*
X534271Y983989D01*
X533139Y985121D01*
X531660Y985734D01*
D02*
G37*
G36*
X302277Y992754D02*
X299703D01*
X297217Y992088D01*
X294989Y990801D01*
X293169Y988981D01*
X291882Y986753D01*
X291216Y984267D01*
Y981693D01*
X291882Y979207D01*
X293169Y976979D01*
X294989Y975159D01*
X297217Y973872D01*
X299703Y973206D01*
X302277D01*
X304763Y973872D01*
X306991Y975159D01*
X308811Y976979D01*
X310098Y979207D01*
X310764Y981693D01*
Y984267D01*
X310098Y986753D01*
X308811Y988981D01*
X306991Y990801D01*
X304763Y992088D01*
X302277Y992754D01*
D02*
G37*
G36*
X285740Y979170D02*
X279400D01*
Y972830D01*
X279755Y972925D01*
X282215Y974346D01*
X284224Y976355D01*
X285645Y978815D01*
X285740Y979170D01*
D02*
G37*
G36*
X271780D02*
X265440D01*
X265535Y978815D01*
X266956Y976355D01*
X268965Y974346D01*
X271425Y972925D01*
X271780Y972830D01*
Y979170D01*
D02*
G37*
G36*
X611670Y1009864D02*
X610070D01*
X608591Y1009251D01*
X607459Y1008119D01*
X606846Y1006640D01*
Y1005040D01*
X607459Y1003561D01*
X607793Y1003226D01*
X607814Y1003164D01*
X607820Y1003135D01*
X607825Y1003077D01*
X607836Y1003055D01*
X607840Y1003034D01*
X607863Y1002999D01*
X607866Y1002992D01*
X607882Y1002939D01*
X607901Y1002851D01*
X607917Y1002749D01*
X607947Y1002377D01*
X607951Y1002157D01*
X608021Y1001995D01*
Y972876D01*
X607952Y972724D01*
X607934Y972256D01*
X607920Y972120D01*
X607901Y971999D01*
X607882Y971911D01*
X607866Y971858D01*
X607863Y971851D01*
X607840Y971816D01*
X607836Y971795D01*
X607825Y971773D01*
X607820Y971715D01*
X607814Y971686D01*
X607793Y971624D01*
X607459Y971289D01*
X606846Y969810D01*
Y968210D01*
X607459Y966731D01*
X608591Y965599D01*
X610070Y964986D01*
X611670D01*
X613149Y965599D01*
X614281Y966731D01*
X614894Y968210D01*
Y969810D01*
X614281Y971289D01*
X613947Y971624D01*
X613926Y971686D01*
X613920Y971715D01*
X613915Y971773D01*
X613904Y971795D01*
X613900Y971816D01*
X613877Y971851D01*
X613874Y971858D01*
X613858Y971911D01*
X613839Y971999D01*
X613823Y972101D01*
X613793Y972473D01*
X613789Y972693D01*
X613719Y972855D01*
Y1001974D01*
X613788Y1002126D01*
X613806Y1002594D01*
X613820Y1002730D01*
X613839Y1002851D01*
X613858Y1002939D01*
X613874Y1002992D01*
X613877Y1002999D01*
X613900Y1003034D01*
X613904Y1003055D01*
X613915Y1003077D01*
X613920Y1003135D01*
X613926Y1003164D01*
X613947Y1003226D01*
X614281Y1003561D01*
X614894Y1005040D01*
Y1006640D01*
X614281Y1008119D01*
X613149Y1009251D01*
X611670Y1009864D01*
D02*
G37*
G36*
X279400Y967730D02*
Y961390D01*
X285740D01*
X285645Y961745D01*
X284224Y964205D01*
X282215Y966214D01*
X279755Y967635D01*
X279400Y967730D01*
D02*
G37*
G36*
X271780D02*
X271425Y967635D01*
X268965Y966214D01*
X266956Y964205D01*
X265535Y961745D01*
X265440Y961390D01*
X271780D01*
Y967730D01*
D02*
G37*
G36*
X302277Y967354D02*
X299703D01*
X297217Y966688D01*
X294989Y965401D01*
X293169Y963581D01*
X291882Y961353D01*
X291216Y958867D01*
Y956293D01*
X291882Y953807D01*
X293169Y951579D01*
X294989Y949759D01*
X297217Y948472D01*
X299703Y947806D01*
X302277D01*
X304763Y948472D01*
X306991Y949759D01*
X308811Y951579D01*
X310098Y953807D01*
X310764Y956293D01*
Y958867D01*
X310098Y961353D01*
X308811Y963581D01*
X306991Y965401D01*
X304763Y966688D01*
X302277Y967354D01*
D02*
G37*
G36*
X285740Y953770D02*
X279400D01*
Y947430D01*
X279755Y947525D01*
X282215Y948946D01*
X284224Y950955D01*
X285645Y953415D01*
X285740Y953770D01*
D02*
G37*
G36*
X271780D02*
X265440D01*
X265535Y953415D01*
X266956Y950955D01*
X268965Y948946D01*
X271425Y947525D01*
X271780Y947430D01*
Y953770D01*
D02*
G37*
G36*
X279400Y942330D02*
Y935990D01*
X285740D01*
X285645Y936345D01*
X284224Y938805D01*
X282215Y940814D01*
X279755Y942235D01*
X279400Y942330D01*
D02*
G37*
G36*
X271780D02*
X271425Y942235D01*
X268965Y940814D01*
X266956Y938805D01*
X265535Y936345D01*
X265440Y935990D01*
X271780D01*
Y942330D01*
D02*
G37*
G36*
X302277Y941954D02*
X299703D01*
X297217Y941288D01*
X294989Y940001D01*
X293169Y938181D01*
X291882Y935953D01*
X291216Y933467D01*
Y930893D01*
X291882Y928407D01*
X293169Y926179D01*
X294989Y924359D01*
X297217Y923072D01*
X299703Y922406D01*
X302277D01*
X304763Y923072D01*
X306991Y924359D01*
X308811Y926179D01*
X310098Y928407D01*
X310764Y930893D01*
Y933467D01*
X310098Y935953D01*
X308811Y938181D01*
X306991Y940001D01*
X304763Y941288D01*
X302277Y941954D01*
D02*
G37*
G36*
X285740Y928370D02*
X279400D01*
Y922030D01*
X279755Y922125D01*
X282215Y923546D01*
X284224Y925555D01*
X285645Y928015D01*
X285740Y928370D01*
D02*
G37*
G36*
X271780D02*
X265440D01*
X265535Y928015D01*
X266956Y925555D01*
X268965Y923546D01*
X271425Y922125D01*
X271780Y922030D01*
Y928370D01*
D02*
G37*
G36*
X334810Y918424D02*
X333210D01*
X331731Y917811D01*
X330835Y916916D01*
X329939Y917811D01*
X328460Y918424D01*
X326860D01*
X325381Y917811D01*
X324249Y916679D01*
X323636Y915200D01*
Y913600D01*
X324249Y912121D01*
X324949Y911420D01*
X325328Y910834D01*
X324972Y909783D01*
X324469Y909279D01*
X323856Y907800D01*
Y906200D01*
X324469Y904721D01*
X325364Y903825D01*
X324249Y902709D01*
X323636Y901230D01*
Y899630D01*
X324249Y898151D01*
X325381Y897019D01*
X326860Y896406D01*
X328460D01*
X329939Y897019D01*
X330835Y897914D01*
X331731Y897019D01*
X333210Y896406D01*
X334810D01*
X336289Y897019D01*
X337421Y898151D01*
X338034Y899630D01*
Y901230D01*
X337421Y902709D01*
X336416Y903715D01*
X337421Y904721D01*
X338034Y906200D01*
Y907800D01*
X337421Y909279D01*
X336830Y909870D01*
X336429Y910700D01*
X336830Y911530D01*
X337421Y912121D01*
X338034Y913600D01*
Y915200D01*
X337421Y916679D01*
X336289Y917811D01*
X334810Y918424D01*
D02*
G37*
G36*
X639610Y922234D02*
X638010D01*
X636531Y921621D01*
X635399Y920489D01*
X634786Y919010D01*
Y917410D01*
X635399Y915931D01*
X636531Y914799D01*
X638010Y914186D01*
X639610D01*
X641089Y914799D01*
X642221Y915931D01*
X642834Y917410D01*
Y919010D01*
X642221Y920489D01*
X641089Y921621D01*
X639610Y922234D01*
D02*
G37*
G36*
X438150Y946150D02*
X379730D01*
Y892810D01*
X438150D01*
Y946150D01*
D02*
G37*
G36*
X304800Y838190D02*
Y831850D01*
X311140D01*
X311045Y832205D01*
X309624Y834665D01*
X307615Y836674D01*
X305155Y838095D01*
X304800Y838190D01*
D02*
G37*
G36*
X297180D02*
X296825Y838095D01*
X294365Y836674D01*
X292356Y834665D01*
X290935Y832205D01*
X290840Y831850D01*
X297180D01*
Y838190D01*
D02*
G37*
G36*
X472440Y889000D02*
X403860D01*
Y826770D01*
X472440D01*
Y889000D01*
D02*
G37*
G36*
X276877Y837814D02*
X274303D01*
X271817Y837148D01*
X269589Y835861D01*
X267769Y834041D01*
X266482Y831813D01*
X265816Y829327D01*
Y826753D01*
X266482Y824267D01*
X267769Y822039D01*
X269589Y820219D01*
X271817Y818932D01*
X274303Y818266D01*
X276877D01*
X279363Y818932D01*
X281591Y820219D01*
X283411Y822039D01*
X284698Y824267D01*
X285364Y826753D01*
Y829327D01*
X284698Y831813D01*
X283411Y834041D01*
X281591Y835861D01*
X279363Y837148D01*
X276877Y837814D01*
D02*
G37*
G36*
X311140Y824230D02*
X304800D01*
Y817890D01*
X305155Y817985D01*
X307615Y819406D01*
X309624Y821415D01*
X311045Y823875D01*
X311140Y824230D01*
D02*
G37*
G36*
X297180D02*
X290840D01*
X290935Y823875D01*
X292356Y821415D01*
X294365Y819406D01*
X296825Y817985D01*
X297180Y817890D01*
Y824230D01*
D02*
G37*
G36*
X304800Y812790D02*
Y806450D01*
X311140D01*
X311045Y806805D01*
X309624Y809265D01*
X307615Y811274D01*
X305155Y812695D01*
X304800Y812790D01*
D02*
G37*
G36*
X297180D02*
X296825Y812695D01*
X294365Y811274D01*
X292356Y809265D01*
X290935Y806805D01*
X290840Y806450D01*
X297180D01*
Y812790D01*
D02*
G37*
G36*
X285364Y812414D02*
X265816D01*
Y792866D01*
X285364D01*
Y812414D01*
D02*
G37*
G36*
X311140Y798830D02*
X304800D01*
Y792490D01*
X305155Y792585D01*
X307615Y794006D01*
X309624Y796015D01*
X311045Y798475D01*
X311140Y798830D01*
D02*
G37*
G36*
X297180D02*
X290840D01*
X290935Y798475D01*
X292356Y796015D01*
X294365Y794006D01*
X296825Y792585D01*
X297180Y792490D01*
Y798830D01*
D02*
G37*
G36*
X1098080Y774914D02*
X1096480D01*
X1095001Y774301D01*
X1093869Y773169D01*
X1093256Y771690D01*
Y770090D01*
X1093869Y768611D01*
X1095001Y767479D01*
X1096480Y766866D01*
X1098080D01*
X1099559Y767479D01*
X1100691Y768611D01*
X1101304Y770090D01*
Y771690D01*
X1100691Y773169D01*
X1099559Y774301D01*
X1098080Y774914D01*
D02*
G37*
G36*
X1035850D02*
X1034250D01*
X1032771Y774301D01*
X1031639Y773169D01*
X1031026Y771690D01*
Y770090D01*
X1031639Y768611D01*
X1032771Y767479D01*
X1034250Y766866D01*
X1035850D01*
X1037329Y767479D01*
X1038461Y768611D01*
X1039074Y770090D01*
Y771690D01*
X1038461Y773169D01*
X1037329Y774301D01*
X1035850Y774914D01*
D02*
G37*
G36*
X973620D02*
X972020D01*
X970541Y774301D01*
X969409Y773169D01*
X968796Y771690D01*
Y770090D01*
X969409Y768611D01*
X970541Y767479D01*
X972020Y766866D01*
X973620D01*
X975099Y767479D01*
X976231Y768611D01*
X976844Y770090D01*
Y771690D01*
X976231Y773169D01*
X975099Y774301D01*
X973620Y774914D01*
D02*
G37*
G36*
X911390D02*
X909790D01*
X908311Y774301D01*
X907179Y773169D01*
X906566Y771690D01*
Y770090D01*
X907179Y768611D01*
X908311Y767479D01*
X909790Y766866D01*
X911390D01*
X912869Y767479D01*
X914001Y768611D01*
X914614Y770090D01*
Y771690D01*
X914001Y773169D01*
X912869Y774301D01*
X911390Y774914D01*
D02*
G37*
G36*
X849160D02*
X847560D01*
X846081Y774301D01*
X844949Y773169D01*
X844336Y771690D01*
Y770090D01*
X844949Y768611D01*
X846081Y767479D01*
X847560Y766866D01*
X849160D01*
X850639Y767479D01*
X851771Y768611D01*
X852384Y770090D01*
Y771690D01*
X851771Y773169D01*
X850639Y774301D01*
X849160Y774914D01*
D02*
G37*
G36*
X304800Y755640D02*
Y749300D01*
X311140D01*
X311045Y749655D01*
X309624Y752115D01*
X307615Y754124D01*
X305155Y755545D01*
X304800Y755640D01*
D02*
G37*
G36*
X279400D02*
Y749300D01*
X285740D01*
X285645Y749655D01*
X284224Y752115D01*
X282215Y754124D01*
X279755Y755545D01*
X279400Y755640D01*
D02*
G37*
G36*
X297180D02*
X296825Y755545D01*
X294365Y754124D01*
X292356Y752115D01*
X290935Y749655D01*
X290840Y749300D01*
X297180D01*
Y755640D01*
D02*
G37*
G36*
X271780D02*
X271425Y755545D01*
X268965Y754124D01*
X266956Y752115D01*
X265535Y749655D01*
X265440Y749300D01*
X271780D01*
Y755640D01*
D02*
G37*
G36*
X311140Y741680D02*
X304800D01*
Y735340D01*
X305155Y735435D01*
X307615Y736856D01*
X309624Y738865D01*
X311045Y741325D01*
X311140Y741680D01*
D02*
G37*
G36*
X285740D02*
X279400D01*
Y735340D01*
X279755Y735435D01*
X282215Y736856D01*
X284224Y738865D01*
X285645Y741325D01*
X285740Y741680D01*
D02*
G37*
G36*
X297180D02*
X290840D01*
X290935Y741325D01*
X292356Y738865D01*
X294365Y736856D01*
X296825Y735435D01*
X297180Y735340D01*
Y741680D01*
D02*
G37*
G36*
X271780D02*
X265440D01*
X265535Y741325D01*
X266956Y738865D01*
X268965Y736856D01*
X271425Y735435D01*
X271780Y735340D01*
Y741680D01*
D02*
G37*
G36*
X1062690Y739681D02*
Y734060D01*
X1068311D01*
X1068108Y734816D01*
X1066984Y736764D01*
X1065394Y738354D01*
X1063446Y739478D01*
X1062690Y739681D01*
D02*
G37*
G36*
X719120Y739681D02*
Y734060D01*
X724741D01*
X724538Y734816D01*
X723414Y736764D01*
X721824Y738354D01*
X719876Y739478D01*
X719120Y739681D01*
D02*
G37*
G36*
X714040Y739681D02*
X713284Y739478D01*
X711336Y738354D01*
X709746Y736764D01*
X708622Y734816D01*
X708419Y734060D01*
X714040D01*
Y739681D01*
D02*
G37*
G36*
X1057610Y739681D02*
X1056854Y739478D01*
X1054906Y738354D01*
X1053316Y736764D01*
X1052192Y734816D01*
X1051989Y734060D01*
X1057610D01*
Y739681D01*
D02*
G37*
G36*
X1124820Y739681D02*
Y734060D01*
X1130441D01*
X1130238Y734816D01*
X1129114Y736764D01*
X1127524Y738354D01*
X1125576Y739478D01*
X1124820Y739681D01*
D02*
G37*
G36*
X876300D02*
Y734060D01*
X881921D01*
X881718Y734816D01*
X880594Y736764D01*
X879004Y738354D01*
X877056Y739478D01*
X876300Y739681D01*
D02*
G37*
G36*
X781450D02*
Y734060D01*
X787071D01*
X786868Y734816D01*
X785744Y736764D01*
X784154Y738354D01*
X782206Y739478D01*
X781450Y739681D01*
D02*
G37*
G36*
X656790D02*
Y734060D01*
X662411D01*
X662208Y734816D01*
X661084Y736764D01*
X659494Y738354D01*
X657546Y739478D01*
X656790Y739681D01*
D02*
G37*
G36*
X532130D02*
Y734060D01*
X537751D01*
X537548Y734816D01*
X536424Y736764D01*
X534834Y738354D01*
X532886Y739478D01*
X532130Y739681D01*
D02*
G37*
G36*
X776370Y739681D02*
X775614Y739478D01*
X773666Y738354D01*
X772076Y736764D01*
X770952Y734816D01*
X770749Y734060D01*
X776370D01*
Y739681D01*
D02*
G37*
G36*
X651710D02*
X650954Y739478D01*
X649006Y738354D01*
X647416Y736764D01*
X646292Y734816D01*
X646089Y734060D01*
X651710D01*
Y739681D01*
D02*
G37*
G36*
X527050D02*
X526294Y739478D01*
X524346Y738354D01*
X522756Y736764D01*
X521632Y734816D01*
X521429Y734060D01*
X527050D01*
Y739681D01*
D02*
G37*
G36*
X1119740D02*
X1118984Y739478D01*
X1117036Y738354D01*
X1115446Y736764D01*
X1114322Y734816D01*
X1114119Y734060D01*
X1119740D01*
Y739681D01*
D02*
G37*
G36*
X871220D02*
X870464Y739478D01*
X868516Y738354D01*
X866926Y736764D01*
X865802Y734816D01*
X865599Y734060D01*
X871220D01*
Y739681D01*
D02*
G37*
G36*
X938430D02*
Y734060D01*
X944051D01*
X943848Y734816D01*
X942724Y736764D01*
X941134Y738354D01*
X939186Y739478D01*
X938430Y739681D01*
D02*
G37*
G36*
X594460Y739681D02*
Y734060D01*
X600081D01*
X599878Y734816D01*
X598754Y736764D01*
X597164Y738354D01*
X595216Y739478D01*
X594460Y739681D01*
D02*
G37*
G36*
X589380Y739681D02*
X588624Y739478D01*
X586676Y738354D01*
X585086Y736764D01*
X583962Y734816D01*
X583759Y734060D01*
X589380D01*
Y739681D01*
D02*
G37*
G36*
X933350Y739681D02*
X932594Y739478D01*
X930646Y738354D01*
X929056Y736764D01*
X927932Y734816D01*
X927729Y734060D01*
X933350D01*
Y739681D01*
D02*
G37*
G36*
X1000560Y739681D02*
Y734060D01*
X1006181D01*
X1005978Y734816D01*
X1004854Y736764D01*
X1003264Y738354D01*
X1001316Y739478D01*
X1000560Y739681D01*
D02*
G37*
G36*
X995480Y739681D02*
X994724Y739478D01*
X992776Y738354D01*
X991186Y736764D01*
X990062Y734816D01*
X989859Y734060D01*
X995480D01*
Y739681D01*
D02*
G37*
G36*
X1098270Y739044D02*
X1096290D01*
X1094376Y738531D01*
X1092660Y737541D01*
X1091259Y736140D01*
X1090269Y734424D01*
X1089756Y732511D01*
Y730529D01*
X1090269Y728616D01*
X1091259Y726900D01*
X1092660Y725499D01*
X1094376Y724509D01*
X1096290Y723996D01*
X1098270D01*
X1100184Y724509D01*
X1101900Y725499D01*
X1103301Y726900D01*
X1104291Y728616D01*
X1104804Y730529D01*
Y732511D01*
X1104291Y734424D01*
X1103301Y736140D01*
X1101900Y737541D01*
X1100184Y738531D01*
X1098270Y739044D01*
D02*
G37*
G36*
X1036141D02*
X1034159D01*
X1032246Y738531D01*
X1030530Y737541D01*
X1029129Y736140D01*
X1028139Y734424D01*
X1027626Y732511D01*
Y730529D01*
X1028139Y728616D01*
X1029129Y726900D01*
X1030530Y725499D01*
X1032246Y724509D01*
X1034159Y723996D01*
X1036141D01*
X1038054Y724509D01*
X1039770Y725499D01*
X1041171Y726900D01*
X1042161Y728616D01*
X1042674Y730529D01*
Y732511D01*
X1042161Y734424D01*
X1041171Y736140D01*
X1039770Y737541D01*
X1038054Y738531D01*
X1036141Y739044D01*
D02*
G37*
G36*
X974010D02*
X972029D01*
X970116Y738531D01*
X968400Y737541D01*
X966999Y736140D01*
X966009Y734424D01*
X965496Y732511D01*
Y730529D01*
X966009Y728616D01*
X966999Y726900D01*
X968400Y725499D01*
X970116Y724509D01*
X972029Y723996D01*
X974010D01*
X975924Y724509D01*
X977640Y725499D01*
X979041Y726900D01*
X980031Y728616D01*
X980544Y730529D01*
Y732511D01*
X980031Y734424D01*
X979041Y736140D01*
X977640Y737541D01*
X975924Y738531D01*
X974010Y739044D01*
D02*
G37*
G36*
X911880D02*
X909900D01*
X907986Y738531D01*
X906270Y737541D01*
X904869Y736140D01*
X903879Y734424D01*
X903366Y732511D01*
Y730529D01*
X903879Y728616D01*
X904869Y726900D01*
X906270Y725499D01*
X907986Y724509D01*
X909900Y723996D01*
X911880D01*
X913794Y724509D01*
X915510Y725499D01*
X916911Y726900D01*
X917901Y728616D01*
X918414Y730529D01*
Y732511D01*
X917901Y734424D01*
X916911Y736140D01*
X915510Y737541D01*
X913794Y738531D01*
X911880Y739044D01*
D02*
G37*
G36*
X849751D02*
X847769D01*
X845856Y738531D01*
X844140Y737541D01*
X842739Y736140D01*
X841749Y734424D01*
X841236Y732511D01*
Y730529D01*
X841749Y728616D01*
X842739Y726900D01*
X844140Y725499D01*
X845856Y724509D01*
X847769Y723996D01*
X849751D01*
X851664Y724509D01*
X853380Y725499D01*
X854781Y726900D01*
X855771Y728616D01*
X856284Y730529D01*
Y732511D01*
X855771Y734424D01*
X854781Y736140D01*
X853380Y737541D01*
X851664Y738531D01*
X849751Y739044D01*
D02*
G37*
G36*
X811434D02*
X796386D01*
Y723996D01*
X811434D01*
Y739044D01*
D02*
G37*
G36*
X749104D02*
X734056D01*
Y723996D01*
X749104D01*
Y739044D01*
D02*
G37*
G36*
X686774D02*
X671726D01*
Y723996D01*
X686774D01*
Y739044D01*
D02*
G37*
G36*
X624444D02*
X609396D01*
Y723996D01*
X624444D01*
Y739044D01*
D02*
G37*
G36*
X562114D02*
X547066D01*
Y723996D01*
X562114D01*
Y739044D01*
D02*
G37*
G36*
X304800Y730240D02*
Y723900D01*
X311140D01*
X311045Y724255D01*
X309624Y726715D01*
X307615Y728724D01*
X305155Y730145D01*
X304800Y730240D01*
D02*
G37*
G36*
X279400D02*
Y723900D01*
X285740D01*
X285645Y724255D01*
X284224Y726715D01*
X282215Y728724D01*
X279755Y730145D01*
X279400Y730240D01*
D02*
G37*
G36*
X297180D02*
X296825Y730145D01*
X294365Y728724D01*
X292356Y726715D01*
X290935Y724255D01*
X290840Y723900D01*
X297180D01*
Y730240D01*
D02*
G37*
G36*
X271780D02*
X271425Y730145D01*
X268965Y728724D01*
X266956Y726715D01*
X265535Y724255D01*
X265440Y723900D01*
X271780D01*
Y730240D01*
D02*
G37*
G36*
X1006181Y728980D02*
X1000560D01*
Y723359D01*
X1001316Y723562D01*
X1003264Y724686D01*
X1004854Y726276D01*
X1005978Y728224D01*
X1006181Y728980D01*
D02*
G37*
G36*
X944051Y728980D02*
X938430D01*
Y723359D01*
X939186Y723562D01*
X941134Y724686D01*
X942724Y726276D01*
X943848Y728224D01*
X944051Y728980D01*
D02*
G37*
G36*
X724741Y728980D02*
X719120D01*
Y723359D01*
X719876Y723562D01*
X721824Y724686D01*
X723414Y726276D01*
X724538Y728224D01*
X724741Y728980D01*
D02*
G37*
G36*
X589380Y728980D02*
X583759D01*
X583962Y728224D01*
X585086Y726276D01*
X586676Y724686D01*
X588624Y723562D01*
X589380Y723359D01*
Y728980D01*
D02*
G37*
G36*
X1057610Y728980D02*
X1051989D01*
X1052192Y728224D01*
X1053316Y726276D01*
X1054906Y724686D01*
X1056854Y723562D01*
X1057610Y723359D01*
Y728980D01*
D02*
G37*
G36*
X1130441Y728980D02*
X1124820D01*
Y723359D01*
X1125576Y723562D01*
X1127524Y724686D01*
X1129114Y726276D01*
X1130238Y728224D01*
X1130441Y728980D01*
D02*
G37*
G36*
X881921D02*
X876300D01*
Y723359D01*
X877056Y723562D01*
X879004Y724686D01*
X880594Y726276D01*
X881718Y728224D01*
X881921Y728980D01*
D02*
G37*
G36*
X787071D02*
X781450D01*
Y723359D01*
X782206Y723562D01*
X784154Y724686D01*
X785744Y726276D01*
X786868Y728224D01*
X787071Y728980D01*
D02*
G37*
G36*
X662411D02*
X656790D01*
Y723359D01*
X657546Y723562D01*
X659494Y724686D01*
X661084Y726276D01*
X662208Y728224D01*
X662411Y728980D01*
D02*
G37*
G36*
X537751D02*
X532130D01*
Y723359D01*
X532886Y723562D01*
X534834Y724686D01*
X536424Y726276D01*
X537548Y728224D01*
X537751Y728980D01*
D02*
G37*
G36*
X776370D02*
X770749D01*
X770952Y728224D01*
X772076Y726276D01*
X773666Y724686D01*
X775614Y723562D01*
X776370Y723359D01*
Y728980D01*
D02*
G37*
G36*
X651710D02*
X646089D01*
X646292Y728224D01*
X647416Y726276D01*
X649006Y724686D01*
X650954Y723562D01*
X651710Y723359D01*
Y728980D01*
D02*
G37*
G36*
X527050D02*
X521429D01*
X521632Y728224D01*
X522756Y726276D01*
X524346Y724686D01*
X526294Y723562D01*
X527050Y723359D01*
Y728980D01*
D02*
G37*
G36*
X1119740D02*
X1114119D01*
X1114322Y728224D01*
X1115446Y726276D01*
X1117036Y724686D01*
X1118984Y723562D01*
X1119740Y723359D01*
Y728980D01*
D02*
G37*
G36*
X871220D02*
X865599D01*
X865802Y728224D01*
X866926Y726276D01*
X868516Y724686D01*
X870464Y723562D01*
X871220Y723359D01*
Y728980D01*
D02*
G37*
G36*
X1068311Y728980D02*
X1062690D01*
Y723359D01*
X1063446Y723562D01*
X1065394Y724686D01*
X1066984Y726276D01*
X1068108Y728224D01*
X1068311Y728980D01*
D02*
G37*
G36*
X600081Y728980D02*
X594460D01*
Y723359D01*
X595216Y723562D01*
X597164Y724686D01*
X598754Y726276D01*
X599878Y728224D01*
X600081Y728980D01*
D02*
G37*
G36*
X714040Y728980D02*
X708419D01*
X708622Y728224D01*
X709746Y726276D01*
X711336Y724686D01*
X713284Y723562D01*
X714040Y723359D01*
Y728980D01*
D02*
G37*
G36*
X933350Y728980D02*
X927729D01*
X927932Y728224D01*
X929056Y726276D01*
X930646Y724686D01*
X932594Y723562D01*
X933350Y723359D01*
Y728980D01*
D02*
G37*
G36*
X995480Y728980D02*
X989859D01*
X990062Y728224D01*
X991186Y726276D01*
X992776Y724686D01*
X994724Y723562D01*
X995480Y723359D01*
Y728980D01*
D02*
G37*
G36*
X311140Y716280D02*
X304800D01*
Y709940D01*
X305155Y710035D01*
X307615Y711456D01*
X309624Y713465D01*
X311045Y715925D01*
X311140Y716280D01*
D02*
G37*
G36*
X285740D02*
X279400D01*
Y709940D01*
X279755Y710035D01*
X282215Y711456D01*
X284224Y713465D01*
X285645Y715925D01*
X285740Y716280D01*
D02*
G37*
G36*
X297180D02*
X290840D01*
X290935Y715925D01*
X292356Y713465D01*
X294365Y711456D01*
X296825Y710035D01*
X297180Y709940D01*
Y716280D01*
D02*
G37*
G36*
X271780D02*
X265440D01*
X265535Y715925D01*
X266956Y713465D01*
X268965Y711456D01*
X271425Y710035D01*
X271780Y709940D01*
Y716280D01*
D02*
G37*
G36*
X302277Y704464D02*
X299703D01*
X297217Y703798D01*
X294989Y702511D01*
X293169Y700691D01*
X291882Y698463D01*
X291216Y695977D01*
Y693403D01*
X291882Y690917D01*
X293169Y688689D01*
X294989Y686869D01*
X297217Y685582D01*
X299703Y684916D01*
X302277D01*
X304763Y685582D01*
X306991Y686869D01*
X308811Y688689D01*
X310098Y690917D01*
X310764Y693403D01*
Y695977D01*
X310098Y698463D01*
X308811Y700691D01*
X306991Y702511D01*
X304763Y703798D01*
X302277Y704464D01*
D02*
G37*
G36*
X276877D02*
X274303D01*
X271817Y703798D01*
X269589Y702511D01*
X267769Y700691D01*
X266482Y698463D01*
X265816Y695977D01*
Y693403D01*
X266482Y690917D01*
X267769Y688689D01*
X269589Y686869D01*
X271817Y685582D01*
X274303Y684916D01*
X276877D01*
X279363Y685582D01*
X281591Y686869D01*
X283411Y688689D01*
X284698Y690917D01*
X285364Y693403D01*
Y695977D01*
X284698Y698463D01*
X283411Y700691D01*
X281591Y702511D01*
X279363Y703798D01*
X276877Y704464D01*
D02*
G37*
G36*
X302277Y679064D02*
X299703D01*
X297217Y678398D01*
X294989Y677111D01*
X293169Y675291D01*
X291882Y673063D01*
X291216Y670577D01*
Y668003D01*
X291882Y665517D01*
X293169Y663289D01*
X294989Y661469D01*
X297217Y660182D01*
X299703Y659516D01*
X302277D01*
X304763Y660182D01*
X306991Y661469D01*
X308811Y663289D01*
X310098Y665517D01*
X310764Y668003D01*
Y670577D01*
X310098Y673063D01*
X308811Y675291D01*
X306991Y677111D01*
X304763Y678398D01*
X302277Y679064D01*
D02*
G37*
G36*
X285364D02*
X265816D01*
Y659516D01*
X285364D01*
Y679064D01*
D02*
G37*
G36*
X1123271Y662844D02*
X1121290D01*
X1119376Y662331D01*
X1117660Y661341D01*
X1116259Y659940D01*
X1115269Y658224D01*
X1114756Y656311D01*
Y654330D01*
X1115269Y652416D01*
X1116259Y650700D01*
X1117660Y649299D01*
X1119376Y648309D01*
X1121290Y647796D01*
X1123271D01*
X1125184Y648309D01*
X1126900Y649299D01*
X1128301Y650700D01*
X1129291Y652416D01*
X1129804Y654330D01*
Y656311D01*
X1129291Y658224D01*
X1128301Y659940D01*
X1126900Y661341D01*
X1125184Y662331D01*
X1123271Y662844D01*
D02*
G37*
G36*
X1104804D02*
X1089756D01*
Y647796D01*
X1104804D01*
Y662844D01*
D02*
G37*
G36*
X1061141D02*
X1059159D01*
X1057246Y662331D01*
X1055530Y661341D01*
X1054129Y659940D01*
X1053139Y658224D01*
X1052626Y656311D01*
Y654330D01*
X1053139Y652416D01*
X1054129Y650700D01*
X1055530Y649299D01*
X1057246Y648309D01*
X1059159Y647796D01*
X1061141D01*
X1063054Y648309D01*
X1064770Y649299D01*
X1066171Y650700D01*
X1067161Y652416D01*
X1067674Y654330D01*
Y656311D01*
X1067161Y658224D01*
X1066171Y659940D01*
X1064770Y661341D01*
X1063054Y662331D01*
X1061141Y662844D01*
D02*
G37*
G36*
X1042674D02*
X1027626D01*
Y647796D01*
X1042674D01*
Y662844D01*
D02*
G37*
G36*
X999010D02*
X997029D01*
X995116Y662331D01*
X993400Y661341D01*
X991999Y659940D01*
X991009Y658224D01*
X990496Y656311D01*
Y654330D01*
X991009Y652416D01*
X991999Y650700D01*
X993400Y649299D01*
X995116Y648309D01*
X997029Y647796D01*
X999010D01*
X1000924Y648309D01*
X1002640Y649299D01*
X1004041Y650700D01*
X1005031Y652416D01*
X1005544Y654330D01*
Y656311D01*
X1005031Y658224D01*
X1004041Y659940D01*
X1002640Y661341D01*
X1000924Y662331D01*
X999010Y662844D01*
D02*
G37*
G36*
X980544D02*
X965496D01*
Y647796D01*
X980544D01*
Y662844D01*
D02*
G37*
G36*
X936880D02*
X934900D01*
X932986Y662331D01*
X931270Y661341D01*
X929869Y659940D01*
X928879Y658224D01*
X928366Y656311D01*
Y654330D01*
X928879Y652416D01*
X929869Y650700D01*
X931270Y649299D01*
X932986Y648309D01*
X934900Y647796D01*
X936880D01*
X938794Y648309D01*
X940510Y649299D01*
X941911Y650700D01*
X942901Y652416D01*
X943414Y654330D01*
Y656311D01*
X942901Y658224D01*
X941911Y659940D01*
X940510Y661341D01*
X938794Y662331D01*
X936880Y662844D01*
D02*
G37*
G36*
X918414D02*
X903366D01*
Y647796D01*
X918414D01*
Y662844D01*
D02*
G37*
G36*
X874751D02*
X872769D01*
X870856Y662331D01*
X869140Y661341D01*
X867739Y659940D01*
X866749Y658224D01*
X866236Y656311D01*
Y654330D01*
X866749Y652416D01*
X867739Y650700D01*
X869140Y649299D01*
X870856Y648309D01*
X872769Y647796D01*
X874751D01*
X876664Y648309D01*
X878380Y649299D01*
X879781Y650700D01*
X880771Y652416D01*
X881284Y654330D01*
Y656311D01*
X880771Y658224D01*
X879781Y659940D01*
X878380Y661341D01*
X876664Y662331D01*
X874751Y662844D01*
D02*
G37*
G36*
X856284D02*
X841236D01*
Y647796D01*
X856284D01*
Y662844D01*
D02*
G37*
G36*
X804901D02*
X802919D01*
X801006Y662331D01*
X799290Y661341D01*
X797889Y659940D01*
X796899Y658224D01*
X796386Y656311D01*
Y654330D01*
X796899Y652416D01*
X797889Y650700D01*
X799290Y649299D01*
X801006Y648309D01*
X802919Y647796D01*
X804901D01*
X806814Y648309D01*
X808530Y649299D01*
X809931Y650700D01*
X810921Y652416D01*
X811434Y654330D01*
Y656311D01*
X810921Y658224D01*
X809931Y659940D01*
X808530Y661341D01*
X806814Y662331D01*
X804901Y662844D01*
D02*
G37*
G36*
X779901D02*
X777919D01*
X776006Y662331D01*
X774290Y661341D01*
X772889Y659940D01*
X771899Y658224D01*
X771386Y656311D01*
Y654330D01*
X771899Y652416D01*
X772889Y650700D01*
X774290Y649299D01*
X776006Y648309D01*
X777919Y647796D01*
X779901D01*
X781814Y648309D01*
X783530Y649299D01*
X784931Y650700D01*
X785921Y652416D01*
X786434Y654330D01*
Y656311D01*
X785921Y658224D01*
X784931Y659940D01*
X783530Y661341D01*
X781814Y662331D01*
X779901Y662844D01*
D02*
G37*
G36*
X742570D02*
X740590D01*
X738676Y662331D01*
X736960Y661341D01*
X735559Y659940D01*
X734569Y658224D01*
X734056Y656311D01*
Y654330D01*
X734569Y652416D01*
X735559Y650700D01*
X736960Y649299D01*
X738676Y648309D01*
X740590Y647796D01*
X742570D01*
X744484Y648309D01*
X746200Y649299D01*
X747601Y650700D01*
X748591Y652416D01*
X749104Y654330D01*
Y656311D01*
X748591Y658224D01*
X747601Y659940D01*
X746200Y661341D01*
X744484Y662331D01*
X742570Y662844D01*
D02*
G37*
G36*
X717570D02*
X715590D01*
X713676Y662331D01*
X711960Y661341D01*
X710559Y659940D01*
X709569Y658224D01*
X709056Y656311D01*
Y654330D01*
X709569Y652416D01*
X710559Y650700D01*
X711960Y649299D01*
X713676Y648309D01*
X715590Y647796D01*
X717570D01*
X719484Y648309D01*
X721200Y649299D01*
X722601Y650700D01*
X723591Y652416D01*
X724104Y654330D01*
Y656311D01*
X723591Y658224D01*
X722601Y659940D01*
X721200Y661341D01*
X719484Y662331D01*
X717570Y662844D01*
D02*
G37*
G36*
X680240D02*
X678260D01*
X676346Y662331D01*
X674630Y661341D01*
X673229Y659940D01*
X672239Y658224D01*
X671726Y656311D01*
Y654330D01*
X672239Y652416D01*
X673229Y650700D01*
X674630Y649299D01*
X676346Y648309D01*
X678260Y647796D01*
X680240D01*
X682154Y648309D01*
X683870Y649299D01*
X685271Y650700D01*
X686261Y652416D01*
X686774Y654330D01*
Y656311D01*
X686261Y658224D01*
X685271Y659940D01*
X683870Y661341D01*
X682154Y662331D01*
X680240Y662844D01*
D02*
G37*
G36*
X655240D02*
X653260D01*
X651346Y662331D01*
X649630Y661341D01*
X648229Y659940D01*
X647239Y658224D01*
X646726Y656311D01*
Y654330D01*
X647239Y652416D01*
X648229Y650700D01*
X649630Y649299D01*
X651346Y648309D01*
X653260Y647796D01*
X655240D01*
X657154Y648309D01*
X658870Y649299D01*
X660271Y650700D01*
X661261Y652416D01*
X661774Y654330D01*
Y656311D01*
X661261Y658224D01*
X660271Y659940D01*
X658870Y661341D01*
X657154Y662331D01*
X655240Y662844D01*
D02*
G37*
G36*
X617910D02*
X615929D01*
X614016Y662331D01*
X612300Y661341D01*
X610899Y659940D01*
X609909Y658224D01*
X609396Y656311D01*
Y654330D01*
X609909Y652416D01*
X610899Y650700D01*
X612300Y649299D01*
X614016Y648309D01*
X615929Y647796D01*
X617910D01*
X619824Y648309D01*
X621540Y649299D01*
X622941Y650700D01*
X623931Y652416D01*
X624444Y654330D01*
Y656311D01*
X623931Y658224D01*
X622941Y659940D01*
X621540Y661341D01*
X619824Y662331D01*
X617910Y662844D01*
D02*
G37*
G36*
X592910D02*
X590929D01*
X589016Y662331D01*
X587300Y661341D01*
X585899Y659940D01*
X584909Y658224D01*
X584396Y656311D01*
Y654330D01*
X584909Y652416D01*
X585899Y650700D01*
X587300Y649299D01*
X589016Y648309D01*
X590929Y647796D01*
X592910D01*
X594824Y648309D01*
X596540Y649299D01*
X597941Y650700D01*
X598931Y652416D01*
X599444Y654330D01*
Y656311D01*
X598931Y658224D01*
X597941Y659940D01*
X596540Y661341D01*
X594824Y662331D01*
X592910Y662844D01*
D02*
G37*
G36*
X555580D02*
X553600D01*
X551686Y662331D01*
X549970Y661341D01*
X548569Y659940D01*
X547579Y658224D01*
X547066Y656311D01*
Y654330D01*
X547579Y652416D01*
X548569Y650700D01*
X549970Y649299D01*
X551686Y648309D01*
X553600Y647796D01*
X555580D01*
X557494Y648309D01*
X559210Y649299D01*
X560611Y650700D01*
X561601Y652416D01*
X562114Y654330D01*
Y656311D01*
X561601Y658224D01*
X560611Y659940D01*
X559210Y661341D01*
X557494Y662331D01*
X555580Y662844D01*
D02*
G37*
G36*
X530580D02*
X528600D01*
X526686Y662331D01*
X524970Y661341D01*
X523569Y659940D01*
X522579Y658224D01*
X522066Y656311D01*
Y654330D01*
X522579Y652416D01*
X523569Y650700D01*
X524970Y649299D01*
X526686Y648309D01*
X528600Y647796D01*
X530580D01*
X532494Y648309D01*
X534210Y649299D01*
X535611Y650700D01*
X536601Y652416D01*
X537114Y654330D01*
Y656311D01*
X536601Y658224D01*
X535611Y659940D01*
X534210Y661341D01*
X532494Y662331D01*
X530580Y662844D01*
D02*
G37*
G36*
X313764Y623244D02*
X288216D01*
Y597696D01*
X313764D01*
Y623244D01*
D02*
G37*
G36*
X443230Y1032560D02*
X383540D01*
X382549Y1032363D01*
X381709Y1031801D01*
X379169Y1029261D01*
X378607Y1028421D01*
X378410Y1027430D01*
Y1019810D01*
X378607Y1018819D01*
X379169Y1017979D01*
X381709Y1015439D01*
X382549Y1014877D01*
X383540Y1014680D01*
X434537D01*
X491440Y957777D01*
Y598170D01*
X491637Y597179D01*
X492199Y596339D01*
X496009Y592529D01*
X496849Y591967D01*
X497840Y591770D01*
X505460D01*
X506451Y591967D01*
X507291Y592529D01*
X511101Y596339D01*
X511663Y597179D01*
X511860Y598170D01*
Y963930D01*
X511663Y964921D01*
X511101Y965761D01*
X445061Y1031801D01*
X444221Y1032363D01*
X443230Y1032560D01*
D02*
G37*
G36*
X347510Y574254D02*
X345910D01*
X344431Y573641D01*
X343707Y572918D01*
X342900Y572644D01*
X342093Y572918D01*
X341369Y573641D01*
X339890Y574254D01*
X338290D01*
X336811Y573641D01*
X336087Y572918D01*
X335280Y572644D01*
X334473Y572918D01*
X333749Y573641D01*
X332270Y574254D01*
X330670D01*
X329191Y573641D01*
X328059Y572509D01*
X327446Y571030D01*
Y569430D01*
X328059Y567951D01*
X328954Y567055D01*
X328059Y566159D01*
X327446Y564680D01*
Y563080D01*
X328059Y561601D01*
X328954Y560705D01*
X328059Y559809D01*
X327446Y558330D01*
Y556730D01*
X328059Y555251D01*
X329191Y554119D01*
X330670Y553506D01*
X332270D01*
X333749Y554119D01*
X334473Y554842D01*
X335280Y555116D01*
X336087Y554842D01*
X336811Y554119D01*
X338290Y553506D01*
X339890D01*
X341369Y554119D01*
X342093Y554842D01*
X342900Y555116D01*
X343707Y554842D01*
X344431Y554119D01*
X345910Y553506D01*
X347510D01*
X348989Y554119D01*
X350121Y555251D01*
X350734Y556730D01*
Y558330D01*
X350121Y559809D01*
X349226Y560705D01*
X350121Y561601D01*
X350734Y563080D01*
Y564680D01*
X350121Y566159D01*
X349226Y567055D01*
X350121Y567951D01*
X350734Y569430D01*
Y571030D01*
X350121Y572509D01*
X348989Y573641D01*
X347510Y574254D01*
D02*
G37*
G36*
X303530Y574066D02*
Y563010D01*
X314586D01*
X313840Y565793D01*
X312025Y568937D01*
X309457Y571505D01*
X306313Y573320D01*
X303530Y574066D01*
D02*
G37*
G36*
X298450D02*
X295667Y573320D01*
X292523Y571505D01*
X289955Y568937D01*
X288140Y565793D01*
X287394Y563010D01*
X298450D01*
Y574066D01*
D02*
G37*
G36*
X1122894Y573884D02*
X1119926D01*
X1117058Y573116D01*
X1114488Y571631D01*
X1112389Y569532D01*
X1110904Y566962D01*
X1110136Y564094D01*
Y561126D01*
X1110904Y558258D01*
X1112389Y555688D01*
X1114488Y553589D01*
X1117058Y552104D01*
X1119926Y551336D01*
X1122894D01*
X1125762Y552104D01*
X1128332Y553589D01*
X1130431Y555688D01*
X1131916Y558258D01*
X1132684Y561126D01*
Y564094D01*
X1131916Y566962D01*
X1130431Y569532D01*
X1128332Y571631D01*
X1125762Y573116D01*
X1122894Y573884D01*
D02*
G37*
G36*
X1107284D02*
X1084736D01*
Y551336D01*
X1107284D01*
Y573884D01*
D02*
G37*
G36*
X1060982D02*
X1058013D01*
X1055146Y573116D01*
X1052575Y571631D01*
X1050476Y569532D01*
X1048992Y566962D01*
X1048223Y564094D01*
Y561126D01*
X1048992Y558258D01*
X1050476Y555688D01*
X1052575Y553589D01*
X1055146Y552104D01*
X1058013Y551336D01*
X1060982D01*
X1063849Y552104D01*
X1066420Y553589D01*
X1068519Y555688D01*
X1070003Y558258D01*
X1070771Y561126D01*
Y564094D01*
X1070003Y566962D01*
X1068519Y569532D01*
X1066420Y571631D01*
X1063849Y573116D01*
X1060982Y573884D01*
D02*
G37*
G36*
X1045371D02*
X1022823D01*
Y551336D01*
X1045371D01*
Y573884D01*
D02*
G37*
G36*
X999069D02*
X996101D01*
X993233Y573116D01*
X990663Y571631D01*
X988564Y569532D01*
X987079Y566962D01*
X986311Y564094D01*
Y561126D01*
X987079Y558258D01*
X988564Y555688D01*
X990663Y553589D01*
X993233Y552104D01*
X996101Y551336D01*
X999069D01*
X1001937Y552104D01*
X1004507Y553589D01*
X1006606Y555688D01*
X1008091Y558258D01*
X1008859Y561126D01*
Y564094D01*
X1008091Y566962D01*
X1006606Y569532D01*
X1004507Y571631D01*
X1001937Y573116D01*
X999069Y573884D01*
D02*
G37*
G36*
X983459D02*
X960911D01*
Y551336D01*
X983459D01*
Y573884D01*
D02*
G37*
G36*
X937157D02*
X934188D01*
X931321Y573116D01*
X928750Y571631D01*
X926651Y569532D01*
X925167Y566962D01*
X924398Y564094D01*
Y561126D01*
X925167Y558258D01*
X926651Y555688D01*
X928750Y553589D01*
X931321Y552104D01*
X934188Y551336D01*
X937157D01*
X940024Y552104D01*
X942595Y553589D01*
X944694Y555688D01*
X946178Y558258D01*
X946946Y561126D01*
Y564094D01*
X946178Y566962D01*
X944694Y569532D01*
X942595Y571631D01*
X940024Y573116D01*
X937157Y573884D01*
D02*
G37*
G36*
X921546D02*
X898998D01*
Y551336D01*
X921546D01*
Y573884D01*
D02*
G37*
G36*
X875244D02*
X872276D01*
X869408Y573116D01*
X866838Y571631D01*
X864739Y569532D01*
X863254Y566962D01*
X862486Y564094D01*
Y561126D01*
X863254Y558258D01*
X864739Y555688D01*
X866838Y553589D01*
X869408Y552104D01*
X872276Y551336D01*
X875244D01*
X878112Y552104D01*
X880682Y553589D01*
X882781Y555688D01*
X884266Y558258D01*
X885034Y561126D01*
Y564094D01*
X884266Y566962D01*
X882781Y569532D01*
X880682Y571631D01*
X878112Y573116D01*
X875244Y573884D01*
D02*
G37*
G36*
X859634D02*
X837086D01*
Y551336D01*
X859634D01*
Y573884D01*
D02*
G37*
G36*
X805394D02*
X802426D01*
X799558Y573116D01*
X796988Y571631D01*
X794889Y569532D01*
X793404Y566962D01*
X792636Y564094D01*
Y561126D01*
X793404Y558258D01*
X794889Y555688D01*
X796988Y553589D01*
X799558Y552104D01*
X802426Y551336D01*
X805394D01*
X808262Y552104D01*
X810832Y553589D01*
X812931Y555688D01*
X814416Y558258D01*
X815184Y561126D01*
Y564094D01*
X814416Y566962D01*
X812931Y569532D01*
X810832Y571631D01*
X808262Y573116D01*
X805394Y573884D01*
D02*
G37*
G36*
X789784D02*
X767236D01*
Y551336D01*
X789784D01*
Y573884D01*
D02*
G37*
G36*
X743164D02*
X740196D01*
X737328Y573116D01*
X734758Y571631D01*
X732659Y569532D01*
X731174Y566962D01*
X730406Y564094D01*
Y561126D01*
X731174Y558258D01*
X732659Y555688D01*
X734758Y553589D01*
X737328Y552104D01*
X740196Y551336D01*
X743164D01*
X746032Y552104D01*
X748602Y553589D01*
X750701Y555688D01*
X752186Y558258D01*
X752954Y561126D01*
Y564094D01*
X752186Y566962D01*
X750701Y569532D01*
X748602Y571631D01*
X746032Y573116D01*
X743164Y573884D01*
D02*
G37*
G36*
X727554D02*
X705006D01*
Y551336D01*
X727554D01*
Y573884D01*
D02*
G37*
G36*
X680934D02*
X677966D01*
X675098Y573116D01*
X672528Y571631D01*
X670429Y569532D01*
X668944Y566962D01*
X668176Y564094D01*
Y561126D01*
X668944Y558258D01*
X670429Y555688D01*
X672528Y553589D01*
X675098Y552104D01*
X677966Y551336D01*
X680934D01*
X683802Y552104D01*
X686372Y553589D01*
X688471Y555688D01*
X689956Y558258D01*
X690724Y561126D01*
Y564094D01*
X689956Y566962D01*
X688471Y569532D01*
X686372Y571631D01*
X683802Y573116D01*
X680934Y573884D01*
D02*
G37*
G36*
X665324D02*
X642776D01*
Y551336D01*
X665324D01*
Y573884D01*
D02*
G37*
G36*
X618704D02*
X615736D01*
X612868Y573116D01*
X610298Y571631D01*
X608199Y569532D01*
X606714Y566962D01*
X605946Y564094D01*
Y561126D01*
X606714Y558258D01*
X608199Y555688D01*
X610298Y553589D01*
X612868Y552104D01*
X615736Y551336D01*
X618704D01*
X621572Y552104D01*
X624142Y553589D01*
X626241Y555688D01*
X627726Y558258D01*
X628494Y561126D01*
Y564094D01*
X627726Y566962D01*
X626241Y569532D01*
X624142Y571631D01*
X621572Y573116D01*
X618704Y573884D01*
D02*
G37*
G36*
X603094D02*
X580546D01*
Y551336D01*
X603094D01*
Y573884D01*
D02*
G37*
G36*
X556474D02*
X553506D01*
X550638Y573116D01*
X548068Y571631D01*
X545969Y569532D01*
X544484Y566962D01*
X543716Y564094D01*
Y561126D01*
X544484Y558258D01*
X545969Y555688D01*
X548068Y553589D01*
X550638Y552104D01*
X553506Y551336D01*
X556474D01*
X559342Y552104D01*
X561912Y553589D01*
X564011Y555688D01*
X565496Y558258D01*
X566264Y561126D01*
Y564094D01*
X565496Y566962D01*
X564011Y569532D01*
X561912Y571631D01*
X559342Y573116D01*
X556474Y573884D01*
D02*
G37*
G36*
X540864D02*
X518316D01*
Y551336D01*
X540864D01*
Y573884D01*
D02*
G37*
G36*
X314586Y557930D02*
X303530D01*
Y546874D01*
X306313Y547620D01*
X309457Y549435D01*
X312025Y552003D01*
X313840Y555147D01*
X314586Y557930D01*
D02*
G37*
G36*
X298450D02*
X287394D01*
X288140Y555147D01*
X289955Y552003D01*
X292523Y549435D01*
X295667Y547620D01*
X298450Y546874D01*
Y557930D01*
D02*
G37*
G36*
X474510Y550124D02*
X472910D01*
X471431Y549511D01*
X470299Y548379D01*
X469686Y546900D01*
Y545300D01*
X470299Y543821D01*
X471431Y542689D01*
X472910Y542076D01*
X474510D01*
X475989Y542689D01*
X477121Y543821D01*
X477734Y545300D01*
Y546900D01*
X477121Y548379D01*
X475989Y549511D01*
X474510Y550124D01*
D02*
G37*
G36*
X1224886Y576580D02*
X1221134D01*
X1217453Y575848D01*
X1213986Y574412D01*
X1210866Y572327D01*
X1208213Y569674D01*
X1206128Y566554D01*
X1204692Y563087D01*
X1203960Y559406D01*
Y555654D01*
X1204692Y551973D01*
X1206128Y548506D01*
X1208213Y545386D01*
X1210866Y542733D01*
X1213986Y540648D01*
X1217453Y539212D01*
X1221134Y538480D01*
X1224886D01*
X1228567Y539212D01*
X1232034Y540648D01*
X1235154Y542733D01*
X1237807Y545386D01*
X1239892Y548506D01*
X1241328Y551973D01*
X1242060Y555654D01*
Y559406D01*
X1241328Y563087D01*
X1239892Y566554D01*
X1237807Y569674D01*
X1235154Y572327D01*
X1232034Y574412D01*
X1228567Y575848D01*
X1224886Y576580D01*
D02*
G37*
%LPD*%
G36*
X1177195Y1243966D02*
X1175605Y1243963D01*
X1171606Y1243722D01*
X1170530Y1243565D01*
X1169582Y1243368D01*
X1168763Y1243133D01*
X1168072Y1242860D01*
X1167509Y1242548D01*
X1167074Y1242197D01*
X1165996Y1243274D01*
X1166348Y1243709D01*
X1166660Y1244271D01*
X1166933Y1244963D01*
X1167168Y1245782D01*
X1167365Y1246730D01*
X1167522Y1247806D01*
X1167721Y1250344D01*
X1167766Y1253395D01*
X1177195Y1243966D01*
D02*
G37*
G36*
X1123317Y1251805D02*
X1123558Y1247806D01*
X1123715Y1246730D01*
X1123912Y1245782D01*
X1124147Y1244963D01*
X1124420Y1244271D01*
X1124733Y1243709D01*
X1125083Y1243274D01*
X1124006Y1242197D01*
X1123571Y1242548D01*
X1123008Y1242860D01*
X1122317Y1243133D01*
X1121498Y1243368D01*
X1120550Y1243565D01*
X1119474Y1243722D01*
X1116936Y1243921D01*
X1113885Y1243966D01*
X1123315Y1253395D01*
X1123317Y1251805D01*
D02*
G37*
G36*
X1159923Y1237577D02*
X1159634Y1237570D01*
X1159375Y1237547D01*
X1159146Y1237508D01*
X1158948Y1237455D01*
X1158781Y1237387D01*
X1158643Y1237303D01*
X1158537Y1237204D01*
X1158460Y1237089D01*
X1158415Y1236960D01*
X1158400Y1236815D01*
Y1239071D01*
X1158415Y1239076D01*
X1158460Y1239082D01*
X1158537Y1239086D01*
X1159923Y1239101D01*
Y1237577D01*
D02*
G37*
G36*
X1133231Y1234186D02*
X1133215Y1234331D01*
X1133169Y1234460D01*
X1133091Y1234575D01*
X1132982Y1234674D01*
X1132842Y1234758D01*
X1132671Y1234826D01*
X1132469Y1234879D01*
X1132236Y1234918D01*
X1131972Y1234940D01*
X1131676Y1234948D01*
Y1236472D01*
X1131972Y1236480D01*
X1132236Y1236503D01*
X1132469Y1236541D01*
X1132671Y1236594D01*
X1132842Y1236663D01*
X1132982Y1236746D01*
X1133091Y1236845D01*
X1133169Y1236960D01*
X1133215Y1237089D01*
X1133231Y1237234D01*
Y1234186D01*
D02*
G37*
G36*
X1150491Y1233566D02*
X1150475Y1233711D01*
X1150429Y1233840D01*
X1150351Y1233955D01*
X1150242Y1234054D01*
X1150102Y1234137D01*
X1149931Y1234206D01*
X1149729Y1234259D01*
X1149496Y1234297D01*
X1149232Y1234320D01*
X1148936Y1234328D01*
Y1235852D01*
X1149232Y1235860D01*
X1149496Y1235882D01*
X1149729Y1235921D01*
X1149931Y1235974D01*
X1150102Y1236042D01*
X1150242Y1236126D01*
X1150351Y1236225D01*
X1150429Y1236340D01*
X1150475Y1236469D01*
X1150491Y1236614D01*
Y1233566D01*
D02*
G37*
G36*
X1142625Y1236469D02*
X1142671Y1236340D01*
X1142749Y1236225D01*
X1142858Y1236126D01*
X1142998Y1236042D01*
X1143169Y1235974D01*
X1143371Y1235921D01*
X1143604Y1235882D01*
X1143868Y1235860D01*
X1144164Y1235852D01*
Y1234328D01*
X1143868Y1234320D01*
X1143604Y1234297D01*
X1143371Y1234259D01*
X1143169Y1234206D01*
X1142998Y1234137D01*
X1142858Y1234054D01*
X1142749Y1233955D01*
X1142671Y1233840D01*
X1142625Y1233711D01*
X1142609Y1233566D01*
Y1236614D01*
X1142625Y1236469D01*
D02*
G37*
G36*
X1082348Y1260305D02*
X1085346Y1257648D01*
X1086218Y1256998D01*
X1087027Y1256467D01*
X1087773Y1256053D01*
X1088455Y1255758D01*
X1089074Y1255581D01*
X1089630Y1255522D01*
Y1253998D01*
X1089074Y1253939D01*
X1088455Y1253762D01*
X1087773Y1253466D01*
X1087027Y1253053D01*
X1086218Y1252522D01*
X1085346Y1251872D01*
X1083411Y1250219D01*
X1081222Y1248092D01*
Y1261428D01*
X1082348Y1260305D01*
D02*
G37*
G36*
X1074325Y1245236D02*
X1072735Y1245233D01*
X1068736Y1244992D01*
X1067660Y1244835D01*
X1066712Y1244638D01*
X1065893Y1244403D01*
X1065201Y1244130D01*
X1064639Y1243818D01*
X1064204Y1243466D01*
X1063127Y1244544D01*
X1063477Y1244979D01*
X1063790Y1245542D01*
X1064063Y1246233D01*
X1064298Y1247052D01*
X1064495Y1248000D01*
X1064652Y1249076D01*
X1064851Y1251614D01*
X1064895Y1254665D01*
X1074325Y1245236D01*
D02*
G37*
G36*
X1020447Y1253075D02*
X1020688Y1249076D01*
X1020845Y1248000D01*
X1021042Y1247052D01*
X1021277Y1246233D01*
X1021550Y1245542D01*
X1021862Y1244979D01*
X1022214Y1244544D01*
X1021136Y1243466D01*
X1020701Y1243818D01*
X1020138Y1244130D01*
X1019447Y1244403D01*
X1018628Y1244638D01*
X1017680Y1244835D01*
X1016604Y1244992D01*
X1014066Y1245191D01*
X1011015Y1245236D01*
X1020444Y1254665D01*
X1020447Y1253075D01*
D02*
G37*
G36*
X1030361Y1235350D02*
X1030346Y1235475D01*
X1030303Y1235588D01*
X1030230Y1235687D01*
X1030128Y1235773D01*
X1029997Y1235846D01*
X1029837Y1235905D01*
X1029648Y1235952D01*
X1029430Y1235985D01*
X1029183Y1236005D01*
X1028907Y1236011D01*
Y1237535D01*
X1029183Y1237542D01*
X1029430Y1237562D01*
X1029648Y1237595D01*
X1029837Y1237641D01*
X1029997Y1237701D01*
X1030128Y1237774D01*
X1030230Y1237859D01*
X1030303Y1237959D01*
X1030346Y1238071D01*
X1030361Y1238197D01*
Y1235350D01*
D02*
G37*
G36*
X1054271Y1236754D02*
X1054304Y1236695D01*
X1054360Y1236643D01*
X1054437Y1236598D01*
X1054537Y1236559D01*
X1054659Y1236528D01*
X1054804Y1236503D01*
X1054970Y1236486D01*
X1055370Y1236472D01*
Y1234948D01*
X1055159Y1234945D01*
X1054804Y1234917D01*
X1054659Y1234892D01*
X1054537Y1234861D01*
X1054437Y1234822D01*
X1054360Y1234777D01*
X1054304Y1234725D01*
X1054271Y1234666D01*
X1054259Y1234600D01*
Y1236821D01*
X1054271Y1236754D01*
D02*
G37*
G36*
X1046351Y1234066D02*
X1046335Y1234211D01*
X1046289Y1234340D01*
X1046211Y1234455D01*
X1046102Y1234554D01*
X1045962Y1234638D01*
X1045791Y1234706D01*
X1045589Y1234759D01*
X1045356Y1234798D01*
X1045092Y1234820D01*
X1044797Y1234828D01*
Y1236352D01*
X1045092Y1236360D01*
X1045356Y1236383D01*
X1045589Y1236421D01*
X1045791Y1236474D01*
X1045962Y1236543D01*
X1046102Y1236626D01*
X1046211Y1236725D01*
X1046289Y1236840D01*
X1046335Y1236969D01*
X1046351Y1237114D01*
Y1234066D01*
D02*
G37*
G36*
X1039755Y1236969D02*
X1039801Y1236840D01*
X1039879Y1236725D01*
X1039988Y1236626D01*
X1040128Y1236543D01*
X1040299Y1236474D01*
X1040501Y1236421D01*
X1040734Y1236383D01*
X1040998Y1236360D01*
X1041293Y1236352D01*
Y1234828D01*
X1040998Y1234820D01*
X1040734Y1234798D01*
X1040501Y1234759D01*
X1040299Y1234706D01*
X1040128Y1234638D01*
X1039988Y1234554D01*
X1039879Y1234455D01*
X1039801Y1234340D01*
X1039755Y1234211D01*
X1039739Y1234066D01*
Y1237114D01*
X1039755Y1236969D01*
D02*
G37*
G36*
X1062431Y1145832D02*
X1062629Y1145664D01*
X1062831Y1145516D01*
X1063036Y1145388D01*
X1063243Y1145279D01*
X1063455Y1145190D01*
X1063669Y1145121D01*
X1063886Y1145071D01*
X1064107Y1145042D01*
X1064331Y1145032D01*
Y1143508D01*
X1064107Y1143498D01*
X1063886Y1143468D01*
X1063669Y1143419D01*
X1063455Y1143350D01*
X1063243Y1143261D01*
X1063036Y1143152D01*
X1062831Y1143024D01*
X1062629Y1142876D01*
X1062431Y1142708D01*
X1062235Y1142520D01*
Y1146020D01*
X1062431Y1145832D01*
D02*
G37*
G36*
X1133201Y1217121D02*
X1133125Y1217115D01*
X1132898Y1217110D01*
X1125650Y1217090D01*
Y1224710D01*
X1133201Y1225060D01*
Y1217121D01*
D02*
G37*
G36*
X1032486Y1217151D02*
X1032370Y1217234D01*
X1032232Y1217274D01*
X1032072Y1217271D01*
X1031890Y1217225D01*
X1031685Y1217136D01*
X1031459Y1217003D01*
X1031210Y1216828D01*
X1030939Y1216609D01*
X1030331Y1216043D01*
X1029253Y1217121D01*
X1029558Y1217436D01*
X1030038Y1218000D01*
X1030213Y1218249D01*
X1030346Y1218475D01*
X1030435Y1218680D01*
X1030481Y1218862D01*
X1030484Y1219022D01*
X1030444Y1219160D01*
X1030361Y1219276D01*
X1032486Y1217151D01*
D02*
G37*
G36*
X1029408Y1215121D02*
X1029256Y1214954D01*
X1029121Y1214777D01*
X1029004Y1214588D01*
X1028903Y1214387D01*
X1028819Y1214175D01*
X1028753Y1213952D01*
X1028704Y1213718D01*
X1028671Y1213472D01*
X1028656Y1213214D01*
X1028658Y1212946D01*
X1026114Y1215350D01*
X1026387Y1215362D01*
X1026647Y1215390D01*
X1026896Y1215434D01*
X1027132Y1215492D01*
X1027357Y1215566D01*
X1027569Y1215656D01*
X1027770Y1215760D01*
X1027958Y1215880D01*
X1028134Y1216016D01*
X1028299Y1216166D01*
X1029408Y1215121D01*
D02*
G37*
G36*
X936912Y1149984D02*
X936696Y1150158D01*
X936480Y1150314D01*
X936263Y1150451D01*
X936046Y1150570D01*
X935829Y1150671D01*
X935611Y1150753D01*
X935392Y1150817D01*
X935173Y1150863D01*
X934954Y1150890D01*
X934735Y1150900D01*
X934588Y1152423D01*
X934815Y1152434D01*
X935036Y1152465D01*
X935252Y1152518D01*
X935461Y1152591D01*
X935665Y1152685D01*
X935862Y1152800D01*
X936054Y1152936D01*
X936239Y1153093D01*
X936419Y1153271D01*
X936592Y1153469D01*
X936912Y1149984D01*
D02*
G37*
G36*
X928726Y1153165D02*
X928942Y1153009D01*
X929159Y1152872D01*
X929376Y1152753D01*
X929594Y1152652D01*
X929812Y1152570D01*
X930030Y1152506D01*
X930249Y1152460D01*
X930468Y1152433D01*
X930688Y1152423D01*
X930835Y1150900D01*
X930607Y1150889D01*
X930386Y1150858D01*
X930171Y1150805D01*
X929961Y1150732D01*
X929758Y1150638D01*
X929560Y1150523D01*
X929369Y1150387D01*
X929183Y1150230D01*
X929004Y1150052D01*
X928830Y1149854D01*
X928510Y1153339D01*
X928726Y1153165D01*
D02*
G37*
G36*
X857225Y1179870D02*
X857087Y1179862D01*
X856944Y1179833D01*
X856793Y1179785D01*
X856637Y1179716D01*
X856474Y1179628D01*
X856305Y1179520D01*
X856129Y1179392D01*
X855947Y1179244D01*
X855565Y1178889D01*
X853769Y1180685D01*
X853956Y1180879D01*
X854272Y1181249D01*
X854400Y1181425D01*
X854508Y1181594D01*
X854596Y1181757D01*
X854665Y1181913D01*
X854713Y1182064D01*
X854742Y1182207D01*
X854750Y1182345D01*
X857225Y1179870D01*
D02*
G37*
G36*
X894835Y1128550D02*
X894731Y1128641D01*
X894609Y1128723D01*
X894469Y1128795D01*
X894310Y1128857D01*
X894132Y1128910D01*
X893936Y1128953D01*
X893722Y1128987D01*
X893489Y1129011D01*
X892967Y1129030D01*
Y1131570D01*
X893237Y1131575D01*
X893722Y1131613D01*
X893936Y1131647D01*
X894132Y1131690D01*
X894310Y1131743D01*
X894469Y1131805D01*
X894609Y1131877D01*
X894731Y1131959D01*
X894835Y1132050D01*
Y1128550D01*
D02*
G37*
G36*
X1011601Y1142695D02*
X1011405Y1142515D01*
X1011230Y1142329D01*
X1011076Y1142139D01*
X1010942Y1141943D01*
X1010828Y1141742D01*
X1010736Y1141537D01*
X1010664Y1141326D01*
X1010612Y1141109D01*
X1010581Y1140888D01*
X1010571Y1140662D01*
X1009047Y1140764D01*
X1009038Y1140985D01*
X1009009Y1141205D01*
X1008962Y1141423D01*
X1008897Y1141640D01*
X1008812Y1141856D01*
X1008709Y1142071D01*
X1008587Y1142284D01*
X1008446Y1142497D01*
X1008286Y1142708D01*
X1008108Y1142917D01*
X1011601Y1142695D01*
D02*
G37*
G36*
X1010571Y1121424D02*
X1010580Y1121203D01*
X1010609Y1120983D01*
X1010656Y1120765D01*
X1010721Y1120548D01*
X1010806Y1120332D01*
X1010909Y1120117D01*
X1011031Y1119903D01*
X1011172Y1119691D01*
X1011332Y1119480D01*
X1011510Y1119270D01*
X1008017Y1119493D01*
X1008213Y1119673D01*
X1008388Y1119859D01*
X1008542Y1120049D01*
X1008676Y1120245D01*
X1008790Y1120445D01*
X1008882Y1120651D01*
X1008954Y1120862D01*
X1009006Y1121078D01*
X1009037Y1121300D01*
X1009047Y1121526D01*
X1010571Y1121424D01*
D02*
G37*
G36*
X998512Y1137209D02*
X998344Y1137011D01*
X998196Y1136809D01*
X998068Y1136605D01*
X997959Y1136396D01*
X997870Y1136185D01*
X997801Y1135971D01*
X997751Y1135753D01*
X997722Y1135533D01*
X997712Y1135309D01*
X996188D01*
X996178Y1135533D01*
X996149Y1135753D01*
X996099Y1135971D01*
X996030Y1136185D01*
X995941Y1136396D01*
X995832Y1136605D01*
X995704Y1136809D01*
X995556Y1137011D01*
X995388Y1137209D01*
X995200Y1137405D01*
X998700D01*
X998512Y1137209D01*
D02*
G37*
G36*
X997722Y1103477D02*
X997751Y1103257D01*
X997801Y1103039D01*
X997870Y1102825D01*
X997959Y1102614D01*
X998068Y1102405D01*
X998196Y1102201D01*
X998344Y1101999D01*
X998512Y1101801D01*
X998700Y1101605D01*
X995200D01*
X995388Y1101801D01*
X995556Y1101999D01*
X995704Y1102201D01*
X995832Y1102405D01*
X995941Y1102614D01*
X996030Y1102825D01*
X996099Y1103039D01*
X996149Y1103257D01*
X996178Y1103477D01*
X996188Y1103701D01*
X997712D01*
X997722Y1103477D01*
D02*
G37*
G36*
X477005Y1068860D02*
X476901Y1068951D01*
X476779Y1069033D01*
X476639Y1069105D01*
X476480Y1069167D01*
X476302Y1069220D01*
X476106Y1069263D01*
X475892Y1069297D01*
X475659Y1069321D01*
X475137Y1069340D01*
Y1071880D01*
X475407Y1071885D01*
X475892Y1071923D01*
X476106Y1071957D01*
X476302Y1072000D01*
X476480Y1072053D01*
X476639Y1072115D01*
X476779Y1072187D01*
X476901Y1072269D01*
X477005Y1072360D01*
Y1068860D01*
D02*
G37*
G36*
X422259Y1072269D02*
X422381Y1072187D01*
X422521Y1072115D01*
X422680Y1072053D01*
X422858Y1072000D01*
X423054Y1071957D01*
X423268Y1071923D01*
X423501Y1071899D01*
X424023Y1071880D01*
Y1069340D01*
X423753Y1069335D01*
X423268Y1069297D01*
X423054Y1069263D01*
X422858Y1069220D01*
X422680Y1069167D01*
X422521Y1069105D01*
X422381Y1069033D01*
X422259Y1068951D01*
X422155Y1068860D01*
Y1072360D01*
X422259Y1072269D01*
D02*
G37*
G36*
Y1084969D02*
X422381Y1084887D01*
X422521Y1084815D01*
X422680Y1084753D01*
X422858Y1084700D01*
X423054Y1084657D01*
X423268Y1084623D01*
X423501Y1084599D01*
X424023Y1084580D01*
Y1082040D01*
X423753Y1082035D01*
X423268Y1081997D01*
X423054Y1081963D01*
X422858Y1081920D01*
X422680Y1081867D01*
X422521Y1081805D01*
X422381Y1081733D01*
X422259Y1081651D01*
X422155Y1081560D01*
Y1085060D01*
X422259Y1084969D01*
D02*
G37*
G36*
X507779Y1067554D02*
X508149Y1067238D01*
X508325Y1067110D01*
X508494Y1067002D01*
X508657Y1066914D01*
X508813Y1066845D01*
X508964Y1066797D01*
X509107Y1066768D01*
X509245Y1066760D01*
X506770Y1064285D01*
X506762Y1064423D01*
X506733Y1064566D01*
X506685Y1064717D01*
X506616Y1064873D01*
X506528Y1065036D01*
X506420Y1065205D01*
X506292Y1065381D01*
X506144Y1065563D01*
X505789Y1065945D01*
X507585Y1067741D01*
X507779Y1067554D01*
D02*
G37*
G36*
X612529Y1003951D02*
X612447Y1003829D01*
X612375Y1003689D01*
X612313Y1003530D01*
X612260Y1003352D01*
X612217Y1003156D01*
X612183Y1002942D01*
X612159Y1002709D01*
X612140Y1002187D01*
X609600D01*
X609595Y1002457D01*
X609557Y1002942D01*
X609523Y1003156D01*
X609480Y1003352D01*
X609427Y1003530D01*
X609365Y1003689D01*
X609293Y1003829D01*
X609211Y1003951D01*
X609120Y1004055D01*
X612620D01*
X612529Y1003951D01*
D02*
G37*
G36*
X612145Y972393D02*
X612183Y971908D01*
X612217Y971694D01*
X612260Y971498D01*
X612313Y971320D01*
X612375Y971161D01*
X612447Y971021D01*
X612529Y970899D01*
X612620Y970795D01*
X609120D01*
X609211Y970899D01*
X609293Y971021D01*
X609365Y971161D01*
X609427Y971320D01*
X609480Y971498D01*
X609523Y971694D01*
X609557Y971908D01*
X609581Y972141D01*
X609600Y972663D01*
X612140D01*
X612145Y972393D01*
D02*
G37*
G36*
X509270Y963930D02*
Y598170D01*
X505460Y594360D01*
X497840D01*
X494030Y598170D01*
Y958850D01*
X435610Y1017270D01*
X383540D01*
X381000Y1019810D01*
Y1027430D01*
X383540Y1029970D01*
X443230D01*
X509270Y963930D01*
D02*
G37*
%LPC*%
G36*
X879640Y1014944D02*
X878040D01*
X876561Y1014331D01*
X875429Y1013199D01*
X874816Y1011720D01*
Y1010120D01*
X875429Y1008641D01*
X876561Y1007509D01*
X878040Y1006896D01*
X879640D01*
X881119Y1007509D01*
X882251Y1008641D01*
X882864Y1010120D01*
Y1011720D01*
X882251Y1013199D01*
X881119Y1014331D01*
X879640Y1014944D01*
D02*
G37*
G36*
X941870Y976844D02*
X940270D01*
X938791Y976231D01*
X937659Y975099D01*
X937046Y973620D01*
Y972020D01*
X937659Y970541D01*
X938791Y969409D01*
X940270Y968796D01*
X941870D01*
X943349Y969409D01*
X944481Y970541D01*
X945094Y972020D01*
Y973620D01*
X944481Y975099D01*
X943349Y976231D01*
X941870Y976844D01*
D02*
G37*
G36*
X1002830Y928584D02*
X1001230D01*
X999751Y927971D01*
X998619Y926839D01*
X998006Y925360D01*
Y923760D01*
X998619Y922281D01*
X999751Y921149D01*
X1001230Y920536D01*
X1002830D01*
X1004309Y921149D01*
X1005441Y922281D01*
X1006054Y923760D01*
Y925360D01*
X1005441Y926839D01*
X1004309Y927971D01*
X1002830Y928584D01*
D02*
G37*
G36*
X940600Y915884D02*
X939000D01*
X937521Y915271D01*
X936389Y914139D01*
X935776Y912660D01*
Y911060D01*
X936389Y909581D01*
X937521Y908449D01*
X939000Y907836D01*
X940600D01*
X942079Y908449D01*
X943211Y909581D01*
X943824Y911060D01*
Y912660D01*
X943211Y914139D01*
X942079Y915271D01*
X940600Y915884D01*
D02*
G37*
G36*
X996480Y914614D02*
X994880D01*
X993401Y914001D01*
X992269Y912869D01*
X991656Y911390D01*
Y909790D01*
X992269Y908311D01*
X993401Y907179D01*
X994880Y906566D01*
X996480D01*
X997959Y907179D01*
X999091Y908311D01*
X999704Y909790D01*
Y911390D01*
X999091Y912869D01*
X997959Y914001D01*
X996480Y914614D01*
D02*
G37*
G36*
X880910Y838414D02*
X879310D01*
X877831Y837801D01*
X876699Y836669D01*
X876086Y835190D01*
Y833590D01*
X876699Y832111D01*
X877831Y830979D01*
X879310Y830366D01*
X880910D01*
X882389Y830979D01*
X883521Y832111D01*
X884134Y833590D01*
Y835190D01*
X883521Y836669D01*
X882389Y837801D01*
X880910Y838414D01*
D02*
G37*
G36*
X850430D02*
X848830D01*
X847351Y837801D01*
X846219Y836669D01*
X845606Y835190D01*
Y833590D01*
X846219Y832111D01*
X847351Y830979D01*
X848830Y830366D01*
X850430D01*
X851909Y830979D01*
X853041Y832111D01*
X853654Y833590D01*
Y835190D01*
X853041Y836669D01*
X851909Y837801D01*
X850430Y838414D01*
D02*
G37*
G36*
X819950D02*
X818350D01*
X816871Y837801D01*
X815739Y836669D01*
X815126Y835190D01*
Y833590D01*
X815739Y832111D01*
X816871Y830979D01*
X818350Y830366D01*
X819950D01*
X821429Y830979D01*
X822561Y832111D01*
X823174Y833590D01*
Y835190D01*
X822561Y836669D01*
X821429Y837801D01*
X819950Y838414D01*
D02*
G37*
%LPD*%
D13*
X853440Y1140460D02*
Y1178560D01*
Y1140460D02*
X863600Y1130300D01*
X853440Y1178560D02*
X857250Y1182370D01*
X859790Y1164590D02*
X897890D01*
X803910Y778724D02*
Y824230D01*
X590764Y862116D02*
Y988060D01*
Y862116D02*
X601980Y850900D01*
X584200Y857250D02*
Y1130300D01*
Y857250D02*
X608330Y833120D01*
X584200Y1130300D02*
X593090Y1139190D01*
X608330Y833120D02*
X795020D01*
X554990Y770890D02*
X562610Y778510D01*
Y1200150D01*
X570230Y835660D02*
Y1184910D01*
Y835660D02*
X617220Y788670D01*
X577850Y1169492D02*
Y1169670D01*
X575310Y1166952D02*
X577850Y1169492D01*
X575310Y843280D02*
X596900Y821690D01*
X575310Y843280D02*
Y1166952D01*
X579882Y851408D02*
Y1148842D01*
Y851408D02*
X603250Y828040D01*
X579882Y1148842D02*
X585470Y1154430D01*
X596686Y880324D02*
X619760Y857250D01*
X596686Y880324D02*
Y995680D01*
X601980Y887730D02*
Y1009650D01*
Y887730D02*
X619760Y869950D01*
X617220Y770890D02*
Y788670D01*
X603250Y828040D02*
X728980D01*
X596900Y821690D02*
X670560D01*
X610870Y969010D02*
Y1005840D01*
X897890Y1164590D02*
X908050Y1174750D01*
X420370Y1070610D02*
X478790D01*
X740805Y1263650D02*
X751840D01*
X763270Y1252220D01*
Y1201420D02*
Y1252220D01*
X736600Y1259840D02*
X736995D01*
X740805Y1263650D01*
X891548Y1208157D02*
Y1213796D01*
Y1208157D02*
X908050Y1191655D01*
Y1191260D02*
Y1191655D01*
X420370Y1083310D02*
X490220D01*
X864870Y1002030D02*
X974090D01*
X980440Y1008380D01*
X908050Y1174750D02*
Y1191260D01*
X728980Y828040D02*
X741680Y815340D01*
X795020Y833120D02*
X803910Y824230D01*
X670560Y821690D02*
X679450Y812800D01*
Y770890D02*
Y812800D01*
X741680Y770890D02*
Y815340D01*
X490220Y1083310D02*
X509270Y1064260D01*
X863600Y1130300D02*
X896620D01*
D14*
X967740Y1085850D02*
Y1114740D01*
X963930Y1082040D02*
X967740Y1085850D01*
X811816Y907764D02*
X871220Y848360D01*
X1090930D01*
X1130300Y887730D01*
X974090Y1085850D02*
Y1120140D01*
X927121Y1151662D02*
X938301D01*
X938530Y1151890D01*
X926892Y1151433D02*
X927121Y1151662D01*
X852170Y1064260D02*
X858520Y1057910D01*
X855980Y909320D02*
X856389D01*
X858520Y911451D02*
Y1057910D01*
X856389Y909320D02*
X858520Y911451D01*
X835660Y1065530D02*
X848360Y1052830D01*
Y914400D02*
Y1052830D01*
X871220Y858520D02*
X1094740D01*
X1129030Y892810D01*
X821121Y908619D02*
X871220Y858520D01*
X755364Y1083879D02*
X773713Y1065530D01*
X835660D01*
X811816Y907764D02*
Y969579D01*
X821121Y908619D02*
Y1003014D01*
X838200Y919480D02*
Y1049020D01*
X767080Y1057910D02*
X829310D01*
X838200Y1049020D01*
X741680Y1050290D02*
X820934D01*
X830580Y924560D02*
Y1040644D01*
X820934Y1050290D02*
X830580Y1040644D01*
X745490Y1079500D02*
X767080Y1057910D01*
X760730Y1103630D02*
Y1184910D01*
X754380Y1102360D02*
Y1200150D01*
X562610Y1229360D02*
X731520D01*
X741680Y1219200D01*
X748030Y1108710D02*
Y1257300D01*
X754380Y1102360D02*
X778510Y1078230D01*
X1034300Y1221090D02*
X1035050D01*
X1026160Y1212950D02*
X1034300Y1221090D01*
X1026160Y1212850D02*
Y1212950D01*
X996950Y1099820D02*
Y1139190D01*
X1009809Y1117759D02*
Y1144429D01*
X1009650Y1117600D02*
X1009809Y1117759D01*
Y1144429D02*
X1009968Y1144588D01*
X1129030Y892810D02*
X1173480D01*
X1193270Y912600D01*
Y964140D01*
X1130300Y887730D02*
X1184508D01*
X1189798Y882440D02*
X1193270D01*
X1184508Y887730D02*
X1189798Y882440D01*
X775970Y1073150D02*
X1047750D01*
X741680Y1107440D02*
X775970Y1073150D01*
X741680Y1107440D02*
Y1219200D01*
X778510Y1078230D02*
X966470D01*
X760730Y1103630D02*
X782320Y1082040D01*
X963930D01*
X966470Y1078230D02*
X974090Y1085850D01*
X1047750Y1073150D02*
X1051560Y1076960D01*
X1033780Y929640D02*
X1033805Y929615D01*
X1033780Y929640D02*
Y970280D01*
X1080745Y929615D02*
X1080770Y929590D01*
X1033805Y929615D02*
X1080745D01*
X1050290Y1203960D02*
Y1220590D01*
X1060450Y1144270D02*
X1088390D01*
X1096010Y1151890D01*
X1090930Y1254760D02*
X1096010Y1249680D01*
Y1151890D02*
Y1249680D01*
X1074420Y1254760D02*
X1090930D01*
X1157668Y1238339D02*
X1162139D01*
X1154430Y1235101D02*
X1157668Y1238339D01*
X1162139D02*
X1177290Y1253490D01*
X1010920Y1254760D02*
X1028907Y1236773D01*
X1033367D02*
X1035050Y1235090D01*
X1028907Y1236773D02*
X1033367D01*
X1035050Y1235090D02*
X1035550Y1235590D01*
X1050290D01*
X1050410Y1235710D02*
X1055370D01*
X1050290Y1235590D02*
X1050410Y1235710D01*
X1055370D02*
X1074420Y1254760D01*
X1154430Y1202690D02*
Y1220101D01*
X1113790Y1253490D02*
X1131570Y1235710D01*
X1137300D01*
X1137920Y1235090D01*
X1154419D02*
X1154430Y1235101D01*
X1137920Y1235090D02*
X1154419D01*
X1051560Y1076960D02*
Y1182370D01*
X981710Y1109980D02*
Y1150620D01*
D21*
X1050290Y1220590D02*
D03*
Y1235590D02*
D03*
X1154430Y1220101D02*
D03*
Y1235101D02*
D03*
D52*
X1035050Y1235090D02*
D03*
Y1221090D02*
D03*
X1137920Y1235090D02*
D03*
Y1221090D02*
D03*
D112*
X782542Y1181100D02*
Y1245648D01*
X769620Y1258570D02*
X782542Y1245648D01*
X1125220Y1220470D02*
X1125650Y1220900D01*
X1137730D02*
X1137920Y1221090D01*
X1125650Y1220900D02*
X1137730D01*
X1154430Y1202690D02*
X1177290D01*
X1113790D02*
X1154430D01*
X1050290Y1203960D02*
X1074420D01*
X1010920D02*
X1050290D01*
X966048Y1212908D02*
X969227Y1209730D01*
X970115D01*
X975884Y1203960D01*
X966048Y1212908D02*
Y1213796D01*
X975884Y1203960D02*
X1010920D01*
X966806Y1251053D02*
X967548Y1251796D01*
X966806Y1214554D02*
Y1251053D01*
X966048Y1213796D02*
X966806Y1214554D01*
X890048Y1251796D02*
X967548D01*
X890791Y1214554D02*
Y1251053D01*
Y1214554D02*
X891548Y1213796D01*
X890048Y1251796D02*
X890791Y1251053D01*
D113*
X900430Y1158240D02*
X941070D01*
X894080D02*
X900430D01*
X389890Y1024890D02*
X396240D01*
X436880D01*
X503002Y958768D01*
Y601810D02*
Y958768D01*
X949960Y1197559D02*
Y1197610D01*
X949667Y1167423D02*
Y1197266D01*
X949960Y1197559D01*
D115*
X290830Y1202690D02*
D03*
Y1228090D02*
D03*
Y1059180D02*
D03*
Y1084580D02*
D03*
Y1135380D02*
D03*
Y1109980D02*
D03*
X803910Y562610D02*
D03*
X741680D02*
D03*
X679450D02*
D03*
X617220D02*
D03*
X554990D02*
D03*
X1059498D02*
D03*
X997585D02*
D03*
X1121410D02*
D03*
X935673D02*
D03*
X873760D02*
D03*
D116*
X290830Y1253490D02*
D03*
Y1160780D02*
D03*
D117*
X591920Y655320D02*
D03*
X616920D02*
D03*
X591920Y731520D02*
D03*
X529590D02*
D03*
X554590Y655320D02*
D03*
X529590D02*
D03*
X1122280D02*
D03*
X1097280Y731520D02*
D03*
X1122280D02*
D03*
X1060150Y655320D02*
D03*
X1035150Y731520D02*
D03*
X1060150D02*
D03*
X998020Y655320D02*
D03*
X973020Y731520D02*
D03*
X998020D02*
D03*
X935890Y655320D02*
D03*
X910890Y731520D02*
D03*
X935890D02*
D03*
X873760Y655320D02*
D03*
X848760Y731520D02*
D03*
X873760D02*
D03*
X778910D02*
D03*
X803910Y655320D02*
D03*
X778910D02*
D03*
X716580Y731520D02*
D03*
X741580Y655320D02*
D03*
X716580D02*
D03*
X654250Y731520D02*
D03*
X679250Y655320D02*
D03*
X654250D02*
D03*
D118*
X616920Y731520D02*
D03*
X554590D02*
D03*
X1097280Y655320D02*
D03*
X1035150D02*
D03*
X973020D02*
D03*
X910890D02*
D03*
X848760D02*
D03*
X803910Y731520D02*
D03*
X741580D02*
D03*
X679250D02*
D03*
D119*
X778510Y562610D02*
D03*
X716280D02*
D03*
X654050D02*
D03*
X591820D02*
D03*
X529590D02*
D03*
X1034098D02*
D03*
X972185D02*
D03*
X1096010D02*
D03*
X910273D02*
D03*
X848360D02*
D03*
D120*
X1223010Y1239520D02*
D03*
Y557530D02*
D03*
D121*
X1177290Y1202690D02*
D03*
X1074420Y1203960D02*
D03*
D122*
X1113790Y1253490D02*
D03*
Y1202690D02*
D03*
X1177290Y1253490D02*
D03*
X1010920Y1254760D02*
D03*
Y1203960D02*
D03*
X1074420Y1254760D02*
D03*
D123*
X1080790Y878770D02*
D03*
D124*
X1055390Y891470D02*
D03*
X1080790Y904170D02*
D03*
X1055390Y916870D02*
D03*
X1080790Y929570D02*
D03*
X1055390Y942270D02*
D03*
X1080790Y954970D02*
D03*
X1055390Y967670D02*
D03*
D125*
X1193290Y857020D02*
D03*
Y882420D02*
D03*
Y989520D02*
D03*
Y964120D02*
D03*
D126*
X1144290Y980420D02*
D03*
Y866120D02*
D03*
D127*
X1113790Y1000720D02*
D03*
Y845820D02*
D03*
D128*
X300990Y610470D02*
D03*
D129*
Y560470D02*
D03*
D130*
X300990Y828040D02*
D03*
X275590D02*
D03*
X300990Y802640D02*
D03*
Y694690D02*
D03*
X275590D02*
D03*
X300990Y669290D02*
D03*
X275590Y720090D02*
D03*
Y745490D02*
D03*
X300990Y720090D02*
D03*
Y745490D02*
D03*
Y932180D02*
D03*
Y957580D02*
D03*
X275590Y932180D02*
D03*
Y957580D02*
D03*
X300990Y1008380D02*
D03*
X275590Y982980D02*
D03*
X300990D02*
D03*
D131*
X275590Y802640D02*
D03*
Y669290D02*
D03*
Y1008380D02*
D03*
D132*
X966048Y1213796D02*
D03*
X891548D02*
D03*
D133*
X967548Y1251796D02*
D03*
X890048D02*
D03*
D134*
X903798Y1224296D02*
D03*
X953798D02*
D03*
D135*
X1231900Y1219200D02*
D03*
X1219200Y1193800D02*
D03*
Y1143000D02*
D03*
X1231900Y1117600D02*
D03*
X1219200Y1092200D02*
D03*
X1231900Y1066800D02*
D03*
Y812800D02*
D03*
X1219200Y787400D02*
D03*
X1231900Y762000D02*
D03*
X1219200Y736600D02*
D03*
X1231900Y711200D02*
D03*
Y660400D02*
D03*
Y609600D02*
D03*
X1219200Y584200D02*
D03*
Y533400D02*
D03*
X1193800Y1244600D02*
D03*
X1206500Y1219200D02*
D03*
X1193800Y1193800D02*
D03*
X1206500Y1168400D02*
D03*
X1193800Y1143000D02*
D03*
X1206500Y1117600D02*
D03*
X1193800Y1092200D02*
D03*
X1206500Y1066800D02*
D03*
Y812800D02*
D03*
X1193800Y787400D02*
D03*
X1206500Y762000D02*
D03*
X1193800Y736600D02*
D03*
X1206500Y711200D02*
D03*
X1193800Y685800D02*
D03*
X1206500Y660400D02*
D03*
X1193800Y635000D02*
D03*
X1206500Y609600D02*
D03*
X1193800Y584200D02*
D03*
Y533400D02*
D03*
X1181100Y1219200D02*
D03*
Y1168400D02*
D03*
X1168400Y1143000D02*
D03*
X1181100Y1117600D02*
D03*
X1168400Y1092200D02*
D03*
X1181100Y1066800D02*
D03*
Y812800D02*
D03*
X1168400Y787400D02*
D03*
X1181100Y762000D02*
D03*
X1168400Y736600D02*
D03*
X1181100Y711200D02*
D03*
X1168400Y685800D02*
D03*
X1181100Y660400D02*
D03*
X1168400Y635000D02*
D03*
X1181100Y609600D02*
D03*
X1168400Y584200D02*
D03*
X1181100Y558800D02*
D03*
X1168400Y533400D02*
D03*
X1143000Y1244600D02*
D03*
Y1193800D02*
D03*
X1155700Y1168400D02*
D03*
X1143000Y1143000D02*
D03*
X1155700Y1117600D02*
D03*
X1143000Y1092200D02*
D03*
X1155700Y1066800D02*
D03*
Y812800D02*
D03*
X1143000Y787400D02*
D03*
X1155700Y762000D02*
D03*
X1143000Y736600D02*
D03*
X1155700Y711200D02*
D03*
X1143000Y685800D02*
D03*
X1155700Y660400D02*
D03*
X1143000Y635000D02*
D03*
X1155700Y609600D02*
D03*
X1143000Y584200D02*
D03*
X1155700Y558800D02*
D03*
X1143000Y533400D02*
D03*
X1130300Y1168400D02*
D03*
X1117600Y1143000D02*
D03*
X1130300Y1117600D02*
D03*
X1117600Y1092200D02*
D03*
X1130300Y1066800D02*
D03*
Y812800D02*
D03*
X1117600Y787400D02*
D03*
X1130300Y762000D02*
D03*
Y711200D02*
D03*
X1117600Y685800D02*
D03*
Y584200D02*
D03*
Y533400D02*
D03*
X1104900Y1168400D02*
D03*
Y1117600D02*
D03*
X1092200Y1092200D02*
D03*
X1104900Y1066800D02*
D03*
Y812800D02*
D03*
X1092200Y787400D02*
D03*
X1104900Y711200D02*
D03*
X1092200Y685800D02*
D03*
X1104900Y609600D02*
D03*
X1092200Y533400D02*
D03*
X1079500Y1168400D02*
D03*
Y1117600D02*
D03*
X1066800Y1092200D02*
D03*
X1079500Y1066800D02*
D03*
Y812800D02*
D03*
Y711200D02*
D03*
X1066800Y685800D02*
D03*
X1079500Y660400D02*
D03*
Y609600D02*
D03*
Y558800D02*
D03*
X1066800Y533400D02*
D03*
X1041400Y1244600D02*
D03*
Y1193800D02*
D03*
Y1143000D02*
D03*
Y1092200D02*
D03*
X1054100Y1066800D02*
D03*
Y812800D02*
D03*
X1041400Y787400D02*
D03*
X1054100Y711200D02*
D03*
X1041400Y685800D02*
D03*
X1054100Y609600D02*
D03*
X1041400Y584200D02*
D03*
Y533400D02*
D03*
X1016000Y1092200D02*
D03*
Y1041400D02*
D03*
X1028700Y812800D02*
D03*
X1016000Y787400D02*
D03*
Y736600D02*
D03*
X1028700Y711200D02*
D03*
X1016000Y685800D02*
D03*
Y635000D02*
D03*
Y584200D02*
D03*
Y533400D02*
D03*
X990600Y1244600D02*
D03*
X1003300Y1219200D02*
D03*
X990600Y1193800D02*
D03*
Y1143000D02*
D03*
Y1092200D02*
D03*
Y787400D02*
D03*
X1003300Y711200D02*
D03*
X990600Y685800D02*
D03*
Y584200D02*
D03*
Y533400D02*
D03*
X977900Y1219200D02*
D03*
X965200Y1193800D02*
D03*
X977900Y1168400D02*
D03*
X965200Y1143000D02*
D03*
Y787400D02*
D03*
X977900Y711200D02*
D03*
X965200Y685800D02*
D03*
Y533400D02*
D03*
X939800Y1244600D02*
D03*
X952500Y711200D02*
D03*
X939800Y685800D02*
D03*
X952500Y660400D02*
D03*
Y609600D02*
D03*
Y558800D02*
D03*
X939800Y533400D02*
D03*
X914400Y1244600D02*
D03*
Y1193800D02*
D03*
Y787400D02*
D03*
X927100Y711200D02*
D03*
X914400Y685800D02*
D03*
X927100Y660400D02*
D03*
Y609600D02*
D03*
X914400Y533400D02*
D03*
X889000Y1193800D02*
D03*
X901700Y1066800D02*
D03*
X889000Y787400D02*
D03*
Y736600D02*
D03*
X901700Y711200D02*
D03*
X889000Y685800D02*
D03*
Y635000D02*
D03*
Y584200D02*
D03*
Y533400D02*
D03*
X863600Y1244600D02*
D03*
X876300Y1219200D02*
D03*
X863600Y1143000D02*
D03*
X876300Y1066800D02*
D03*
X863600Y736600D02*
D03*
X876300Y711200D02*
D03*
X863600Y685800D02*
D03*
Y584200D02*
D03*
Y533400D02*
D03*
X838200Y1244600D02*
D03*
Y1193800D02*
D03*
Y1143000D02*
D03*
Y736600D02*
D03*
X850900Y711200D02*
D03*
X838200Y685800D02*
D03*
Y533400D02*
D03*
X825500Y1168400D02*
D03*
X812800Y1143000D02*
D03*
X825500Y1117600D02*
D03*
X812800Y1041400D02*
D03*
X825500Y711200D02*
D03*
X812800Y685800D02*
D03*
X825500Y660400D02*
D03*
X812800Y635000D02*
D03*
X825500Y609600D02*
D03*
X812800Y584200D02*
D03*
X825500Y558800D02*
D03*
X812800Y533400D02*
D03*
X800100Y1168400D02*
D03*
Y1117600D02*
D03*
X787400Y1041400D02*
D03*
X800100Y1016000D02*
D03*
Y711200D02*
D03*
X787400Y685800D02*
D03*
Y635000D02*
D03*
Y584200D02*
D03*
Y533400D02*
D03*
X762000Y1193800D02*
D03*
Y1041400D02*
D03*
X774700Y1016000D02*
D03*
X762000Y990600D02*
D03*
X774700Y863600D02*
D03*
Y812800D02*
D03*
X762000Y736600D02*
D03*
X774700Y711200D02*
D03*
X762000Y685800D02*
D03*
Y635000D02*
D03*
Y584200D02*
D03*
Y533400D02*
D03*
X736600Y1193800D02*
D03*
Y1041400D02*
D03*
X749300Y1016000D02*
D03*
X736600Y990600D02*
D03*
X749300Y863600D02*
D03*
Y762000D02*
D03*
Y711200D02*
D03*
X736600Y685800D02*
D03*
Y533400D02*
D03*
X711200Y1193800D02*
D03*
Y1143000D02*
D03*
Y1041400D02*
D03*
X723900Y1016000D02*
D03*
X711200Y990600D02*
D03*
X723900Y965200D02*
D03*
X711200Y939800D02*
D03*
X723900Y914400D02*
D03*
Y863600D02*
D03*
Y762000D02*
D03*
Y711200D02*
D03*
X711200Y685800D02*
D03*
Y533400D02*
D03*
X698500Y1219200D02*
D03*
X685800Y1193800D02*
D03*
X698500Y1168400D02*
D03*
X685800Y1143000D02*
D03*
X698500Y1117600D02*
D03*
Y1066800D02*
D03*
X685800Y1041400D02*
D03*
Y990600D02*
D03*
X698500Y965200D02*
D03*
X685800Y939800D02*
D03*
X698500Y762000D02*
D03*
Y711200D02*
D03*
X685800Y685800D02*
D03*
X698500Y660400D02*
D03*
Y609600D02*
D03*
Y558800D02*
D03*
X685800Y533400D02*
D03*
X673100Y1219200D02*
D03*
X660400Y1193800D02*
D03*
X673100Y1168400D02*
D03*
X660400Y1143000D02*
D03*
X673100Y1117600D02*
D03*
Y1066800D02*
D03*
X660400Y1041400D02*
D03*
X673100Y965200D02*
D03*
X660400Y939800D02*
D03*
X673100Y711200D02*
D03*
X660400Y685800D02*
D03*
Y533400D02*
D03*
X647700Y1219200D02*
D03*
Y1168400D02*
D03*
X635000Y1143000D02*
D03*
X647700Y1117600D02*
D03*
Y1066800D02*
D03*
X635000Y1041400D02*
D03*
Y990600D02*
D03*
X647700Y965200D02*
D03*
X635000Y939800D02*
D03*
Y787400D02*
D03*
X647700Y762000D02*
D03*
X635000Y736600D02*
D03*
X647700Y711200D02*
D03*
X635000Y685800D02*
D03*
Y635000D02*
D03*
Y584200D02*
D03*
Y533400D02*
D03*
X622300Y1219200D02*
D03*
X609600Y1143000D02*
D03*
X622300Y1117600D02*
D03*
Y1066800D02*
D03*
X609600Y1041400D02*
D03*
X622300Y965200D02*
D03*
X609600Y889000D02*
D03*
X622300Y812800D02*
D03*
X609600Y787400D02*
D03*
X622300Y711200D02*
D03*
X609600Y685800D02*
D03*
Y533400D02*
D03*
X596900Y1219200D02*
D03*
X584200Y1193800D02*
D03*
X596900Y1168400D02*
D03*
Y1117600D02*
D03*
Y1066800D02*
D03*
Y863600D02*
D03*
X584200Y787400D02*
D03*
X596900Y762000D02*
D03*
Y711200D02*
D03*
X584200Y685800D02*
D03*
Y533400D02*
D03*
X571500Y1219200D02*
D03*
Y812800D02*
D03*
Y762000D02*
D03*
Y711200D02*
D03*
X558800Y685800D02*
D03*
X571500Y660400D02*
D03*
Y609600D02*
D03*
Y558800D02*
D03*
X558800Y533400D02*
D03*
X546100Y1016000D02*
D03*
X533400Y939800D02*
D03*
X546100Y914400D02*
D03*
X533400Y889000D02*
D03*
X546100Y863600D02*
D03*
X533400Y838200D02*
D03*
X546100Y812800D02*
D03*
X533400Y787400D02*
D03*
X546100Y762000D02*
D03*
Y711200D02*
D03*
X533400Y685800D02*
D03*
X546100Y609600D02*
D03*
X533400Y533400D02*
D03*
X520700Y1219200D02*
D03*
X508000Y1193800D02*
D03*
X520700Y1168400D02*
D03*
X508000Y1143000D02*
D03*
X520700Y1117600D02*
D03*
X508000Y1041400D02*
D03*
X520700Y1016000D02*
D03*
Y914400D02*
D03*
Y863600D02*
D03*
Y812800D02*
D03*
Y762000D02*
D03*
Y711200D02*
D03*
Y660400D02*
D03*
Y609600D02*
D03*
X508000Y584200D02*
D03*
Y533400D02*
D03*
X495300Y1219200D02*
D03*
X482600Y1193800D02*
D03*
X495300Y1168400D02*
D03*
Y1117600D02*
D03*
Y1066800D02*
D03*
Y1016000D02*
D03*
X482600Y939800D02*
D03*
Y889000D02*
D03*
Y838200D02*
D03*
Y787400D02*
D03*
Y736600D02*
D03*
Y685800D02*
D03*
Y635000D02*
D03*
Y584200D02*
D03*
X495300Y558800D02*
D03*
X482600Y533400D02*
D03*
X469900Y812800D02*
D03*
X457200Y787400D02*
D03*
X469900Y762000D02*
D03*
X457200Y736600D02*
D03*
X469900Y711200D02*
D03*
X457200Y685800D02*
D03*
X469900Y660400D02*
D03*
X457200Y635000D02*
D03*
Y584200D02*
D03*
X469900Y558800D02*
D03*
X457200Y533400D02*
D03*
X431800Y1143000D02*
D03*
Y1041400D02*
D03*
X444500Y812800D02*
D03*
X431800Y787400D02*
D03*
X444500Y762000D02*
D03*
X431800Y736600D02*
D03*
X444500Y711200D02*
D03*
X431800Y685800D02*
D03*
X444500Y558800D02*
D03*
X431800Y533400D02*
D03*
X406400Y1193800D02*
D03*
X419100Y1168400D02*
D03*
X406400Y1041400D02*
D03*
X419100Y812800D02*
D03*
Y762000D02*
D03*
Y711200D02*
D03*
X406400Y533400D02*
D03*
X381000Y1244600D02*
D03*
Y584200D02*
D03*
Y533400D02*
D03*
X355600Y1193800D02*
D03*
X368300Y1168400D02*
D03*
Y1117600D02*
D03*
X355600Y1041400D02*
D03*
X368300Y1016000D02*
D03*
X355600Y889000D02*
D03*
Y533400D02*
D03*
X330200Y1244600D02*
D03*
Y1193800D02*
D03*
X342900Y1168400D02*
D03*
X330200Y1092200D02*
D03*
Y1041400D02*
D03*
X342900Y1016000D02*
D03*
X330200Y990600D02*
D03*
Y889000D02*
D03*
X342900Y762000D02*
D03*
X330200Y736600D02*
D03*
X342900Y711200D02*
D03*
X330200Y533400D02*
D03*
X317500Y1219200D02*
D03*
X304800Y1193800D02*
D03*
X317500Y1168400D02*
D03*
X304800Y1143000D02*
D03*
X317500Y1066800D02*
D03*
X304800Y1041400D02*
D03*
X317500Y1016000D02*
D03*
Y965200D02*
D03*
Y812800D02*
D03*
X304800Y787400D02*
D03*
X317500Y762000D02*
D03*
Y711200D02*
D03*
X304800Y635000D02*
D03*
X317500Y558800D02*
D03*
X304800Y533400D02*
D03*
X279400Y1193800D02*
D03*
Y1041400D02*
D03*
X292100Y863600D02*
D03*
Y812800D02*
D03*
X279400Y787400D02*
D03*
X292100Y762000D02*
D03*
Y711200D02*
D03*
X279400Y635000D02*
D03*
Y584200D02*
D03*
Y533400D02*
D03*
X967740Y1114740D02*
D03*
X998220Y842010D02*
D03*
X859790Y1164590D02*
D03*
X803910Y778724D02*
D03*
X974090Y1120140D02*
D03*
X938530Y1151890D02*
D03*
X926892Y1151433D02*
D03*
X448310Y1212850D02*
D03*
X440476Y1137920D02*
D03*
X853440Y1010920D02*
D03*
X995680Y910590D02*
D03*
X994410Y863600D02*
D03*
X1018540Y853440D02*
D03*
X601980Y850900D02*
D03*
X590764Y988060D02*
D03*
X619760Y857250D02*
D03*
Y869950D02*
D03*
X593090Y1139190D02*
D03*
X585470Y1154430D02*
D03*
X577850Y1169670D02*
D03*
X570230Y1184910D02*
D03*
X607274Y908050D02*
D03*
X596686Y995680D02*
D03*
X601980Y1009650D02*
D03*
X530860Y981710D02*
D03*
X610870Y969010D02*
D03*
X900430Y1158240D02*
D03*
X287020Y575310D02*
D03*
X313690D02*
D03*
X285750Y548640D02*
D03*
X457200Y961390D02*
D03*
X447040D02*
D03*
X467360D02*
D03*
X360680D02*
D03*
X350520D02*
D03*
X370840D02*
D03*
X347980Y795020D02*
D03*
X360680Y798830D02*
D03*
X369570D02*
D03*
Y789940D02*
D03*
X360680D02*
D03*
X337820Y840740D02*
D03*
X332740Y847090D02*
D03*
X364490Y853440D02*
D03*
X363220Y833120D02*
D03*
X344170Y835660D02*
D03*
X347980Y828040D02*
D03*
X467360Y955040D02*
D03*
X447040D02*
D03*
X370840Y953770D02*
D03*
X350520D02*
D03*
X990600Y990600D02*
D03*
Y838200D02*
D03*
X965200D02*
D03*
X939800Y990600D02*
D03*
Y838200D02*
D03*
X914400Y990600D02*
D03*
Y889000D02*
D03*
Y838200D02*
D03*
X863600Y939800D02*
D03*
X736600D02*
D03*
X755364Y1083879D02*
D03*
X331470Y570230D02*
D03*
X339090D02*
D03*
X346710D02*
D03*
Y563880D02*
D03*
Y557530D02*
D03*
X339090D02*
D03*
X331470D02*
D03*
Y563880D02*
D03*
X499110Y596900D02*
D03*
Y607060D02*
D03*
X506730D02*
D03*
X389890Y1024890D02*
D03*
X383540D02*
D03*
X386080Y1019810D02*
D03*
X392430D02*
D03*
X396240Y1024890D02*
D03*
X908050Y1174750D02*
D03*
X894080Y1158240D02*
D03*
X339090Y891540D02*
D03*
X327660Y900430D02*
D03*
X327880Y907000D02*
D03*
X327660Y914400D02*
D03*
X334010Y900430D02*
D03*
Y914400D02*
D03*
X1017270Y962660D02*
D03*
X1018540Y899160D02*
D03*
Y910590D02*
D03*
X972820Y947420D02*
D03*
X942340Y946150D02*
D03*
X1018540Y887730D02*
D03*
X994410Y886460D02*
D03*
X942340Y887730D02*
D03*
X811816Y969579D02*
D03*
X853440Y1045210D02*
D03*
X843280D02*
D03*
X848360Y914400D02*
D03*
X833120Y1045210D02*
D03*
X821121Y1003014D02*
D03*
X797560Y944880D02*
D03*
X801370Y913130D02*
D03*
X503002Y601810D02*
D03*
X782320Y1242060D02*
D03*
X760730Y1184910D02*
D03*
X478790Y1070610D02*
D03*
X754380Y1200150D02*
D03*
X562610Y1229360D02*
D03*
X461010Y1259840D02*
D03*
X459454Y1220470D02*
D03*
X736600Y1259840D02*
D03*
X748030Y1108710D02*
D03*
X451136Y1121410D02*
D03*
X457200Y955040D02*
D03*
X769620Y1258570D02*
D03*
X820420Y1036320D02*
D03*
X989330Y984250D02*
D03*
X999490Y901700D02*
D03*
X1097280Y770890D02*
D03*
X1035050D02*
D03*
X972820D02*
D03*
X910590D02*
D03*
X848360D02*
D03*
X981710Y1049020D02*
D03*
X857250Y1182370D02*
D03*
X1026160Y1212850D02*
D03*
X1125220Y1220470D02*
D03*
X996950Y1099820D02*
D03*
X1009650Y1117600D02*
D03*
X996950Y1139190D02*
D03*
X782542Y1181100D02*
D03*
X782320Y1211580D02*
D03*
X360680Y953770D02*
D03*
X420370Y1083310D02*
D03*
X748030Y1257300D02*
D03*
X763270Y1201420D02*
D03*
X998220Y1064260D02*
D03*
X848360Y1098550D02*
D03*
X895350D02*
D03*
X980440Y1008380D02*
D03*
X938530D02*
D03*
X864870Y1002030D02*
D03*
X779780Y969010D02*
D03*
X638810Y918210D02*
D03*
X908050Y1191260D02*
D03*
X473710Y546100D02*
D03*
X339090Y563880D02*
D03*
X416560Y678180D02*
D03*
X300990Y900430D02*
D03*
X744220Y906780D02*
D03*
X885190Y944880D02*
D03*
Y914400D02*
D03*
Y875030D02*
D03*
X864870Y826770D02*
D03*
X895350D02*
D03*
X834390D02*
D03*
X334010Y907000D02*
D03*
X610870Y1005840D02*
D03*
X562610Y1200150D02*
D03*
X554990Y770890D02*
D03*
X617220D02*
D03*
X679450D02*
D03*
X741680D02*
D03*
X420370Y1070610D02*
D03*
X509270Y1064260D02*
D03*
X855980Y909320D02*
D03*
X852170Y1064260D02*
D03*
X745490Y1079500D02*
D03*
X838200Y919480D02*
D03*
X741680Y1050290D02*
D03*
X830580Y924560D02*
D03*
X941070Y972820D02*
D03*
X849630Y834390D02*
D03*
X880110D02*
D03*
X819150D02*
D03*
X878840Y1010920D02*
D03*
X916940Y1046480D02*
D03*
X1002030Y924560D02*
D03*
X939800Y911860D02*
D03*
X1033780Y929640D02*
D03*
Y970280D02*
D03*
X1060450Y1144270D02*
D03*
X1051560Y1182370D02*
D03*
X949960Y1197610D02*
D03*
X949667Y1167423D02*
D03*
X896620Y1130300D02*
D03*
X941070Y1158240D02*
D03*
X981710Y1150620D02*
D03*
Y1109980D02*
D03*
X1009968Y1144588D02*
D03*
X932688Y1114526D02*
D03*
Y1125526D02*
D03*
Y1103526D02*
D03*
X921688Y1114526D02*
D03*
Y1125526D02*
D03*
X943688Y1114526D02*
D03*
Y1125526D02*
D03*
X921688Y1103526D02*
D03*
X943688D02*
D03*
M02*
