%FSTAX23Y23*%
%MOIN*%
%SFA1B1*%

%IPPOS*%
%ADD127C,0.002000*%
%LNv1.0-1*%
%LPD*%
G54D127*
X04232Y02709D02*
X04267D01*
X0425Y02692D02*
Y02727D01*
X04132Y02759D02*
X04167D01*
X0415Y02742D02*
Y02777D01*
X04232Y02809D02*
X04267D01*
X0425Y02792D02*
Y02827D01*
X04132Y02859D02*
X04167D01*
X0415Y02842D02*
Y02877D01*
X04232Y02909D02*
X04267D01*
X0425Y02892D02*
Y02927D01*
X04132Y02959D02*
X04167D01*
X0415Y02942D02*
Y02977D01*
X04232Y03009D02*
X04267D01*
X0425Y02992D02*
Y03027D01*
X04132Y03059D02*
X04167D01*
X0415Y03042D02*
Y03077D01*
X04672Y02624D02*
X04713D01*
X04692Y02604D02*
Y02644D01*
X04672Y02724D02*
X04713D01*
X04692Y02704D02*
Y02744D01*
X04672Y03145D02*
X04713D01*
X04692Y03125D02*
Y03165D01*
X04672Y03045D02*
X04713D01*
X04692Y03025D02*
Y03065D01*
X04436Y0311D02*
X04564D01*
X045Y03046D02*
Y03174D01*
X04436Y0266D02*
X04564D01*
X045Y02596D02*
Y02724D01*
X04347Y03189D02*
X04412D01*
X04379Y03157D02*
Y03222D01*
X04347Y0258D02*
X04412D01*
X04379Y02548D02*
Y02612D01*
X0109Y02408D02*
X01149D01*
X0112Y02378D02*
Y02438D01*
X0109Y02211D02*
X01149D01*
X0112Y02182D02*
Y02241D01*
X01088Y0326D02*
X01131D01*
X0111Y03238D02*
Y03281D01*
X00988Y0326D02*
X01031D01*
X0101Y03238D02*
Y03281D01*
X01088Y0316D02*
X01131D01*
X0111Y03138D02*
Y03181D01*
X00988Y0316D02*
X01031D01*
X0101Y03138D02*
Y03181D01*
X01088Y02735D02*
X01131D01*
X0111Y02713D02*
Y02756D01*
X00988Y02735D02*
X01031D01*
X0101Y02713D02*
Y02756D01*
X01088Y02635D02*
X01131D01*
X0111Y02613D02*
Y02656D01*
X00988Y02635D02*
X01031D01*
X0101Y02613D02*
Y02656D01*
X00988Y02835D02*
X01031D01*
X0101Y02813D02*
Y02856D01*
X00988Y02935D02*
X01031D01*
X0101Y02913D02*
Y02956D01*
X01088Y02835D02*
X01131D01*
X0111Y02813D02*
Y02856D01*
X01088Y02935D02*
X01131D01*
X0111Y02913D02*
Y02956D01*
X03703Y02175D02*
X03746D01*
X03725Y02153D02*
Y02196D01*
X03803Y02175D02*
X03846D01*
X03825Y02153D02*
Y02196D01*
X03703Y02275D02*
X03746D01*
X03725Y02253D02*
Y02296D01*
X03803Y02275D02*
X03846D01*
X03825Y02253D02*
Y02296D01*
X04003Y02275D02*
X04046D01*
X04025Y02253D02*
Y02296D01*
X04003Y02175D02*
X04046D01*
X04025Y02153D02*
Y02196D01*
X03903Y02275D02*
X03946D01*
X03925Y02253D02*
Y02296D01*
X03903Y02175D02*
X03946D01*
X03925Y02153D02*
Y02196D01*
X01068Y03674D02*
X01111D01*
X0109Y03652D02*
Y03696D01*
X01068Y03812D02*
X01111D01*
X0109Y0379D02*
Y03833D01*
X01068Y0395D02*
X01111D01*
X0109Y03928D02*
Y03971D01*
X01068Y04363D02*
X01111D01*
X0109Y04341D02*
Y04385D01*
X01068Y04914D02*
X01111D01*
X0109Y04892D02*
Y04936D01*
X01068Y04776D02*
X01111D01*
X0109Y04755D02*
Y04798D01*
X01068Y04639D02*
X01111D01*
X0109Y04617D02*
Y0466D01*
X01068Y04501D02*
X01111D01*
X0109Y04479D02*
Y04522D01*
X01068Y04225D02*
X01111D01*
X0109Y04203D02*
Y04247D01*
X01068Y04087D02*
X01111D01*
X0109Y04066D02*
Y04109D01*
X04506Y04783D02*
X0454D01*
X04523Y04767D02*
Y048D01*
X04213Y04783D02*
X04246D01*
X0423Y04767D02*
Y048D01*
X04518Y04933D02*
X0454D01*
X04529Y04922D02*
Y04944D01*
X04213Y04933D02*
X04235D01*
X04224Y04922D02*
Y04944D01*
X04262Y04825D02*
X04294D01*
X04278Y04809D02*
Y0484D01*
X04459Y04825D02*
X0449D01*
X04475Y04809D02*
Y0484D01*
X04755Y02195D02*
X04874D01*
X04815Y02136D02*
Y02254D01*
X03854Y0464D02*
X03885D01*
X0387Y04624D02*
Y04655D01*
X03654Y0489D02*
X03685D01*
X0367Y04874D02*
Y04905D01*
X03854Y0489D02*
X03885D01*
X0387Y04874D02*
Y04905D01*
X03654Y0464D02*
X03685D01*
X0367Y04624D02*
Y04655D01*
X03854Y0421D02*
X03885D01*
X0387Y04194D02*
Y04225D01*
X03654Y0446D02*
X03685D01*
X0367Y04444D02*
Y04475D01*
X03854Y0446D02*
X03885D01*
X0387Y04444D02*
Y04475D01*
X03654Y0421D02*
X03685D01*
X0367Y04194D02*
Y04225D01*
X04778Y03843D02*
X04818D01*
X04798Y03823D02*
Y03863D01*
X04778Y03743D02*
X04818D01*
X04798Y03723D02*
Y03763D01*
X04778Y04083D02*
X04818D01*
X04798Y04063D02*
Y04103D01*
X04778Y03983D02*
X04818D01*
X04798Y03963D02*
Y04003D01*
X02623Y0223D02*
X02667D01*
X02645Y02208D02*
Y02251D01*
X02486Y0223D02*
X02529D01*
X02507Y02208D02*
Y02251D01*
X0221Y0223D02*
X02253D01*
X02232Y02208D02*
Y02251D01*
X02072Y0223D02*
X02116D01*
X02094Y02208D02*
Y02251D01*
X01935Y0223D02*
X01978D01*
X01956Y02208D02*
Y02251D01*
X01797Y0223D02*
X0184D01*
X01818Y02208D02*
Y02251D01*
X02348Y0223D02*
X02391D01*
X0237Y02208D02*
Y02251D01*
X02761Y0223D02*
X02805D01*
X02783Y02208D02*
Y02251D01*
X02899Y0223D02*
X02942D01*
X02921Y02208D02*
Y02251D01*
X03037Y0223D02*
X0308D01*
X03059Y02208D02*
Y02251D01*
X04755Y0488D02*
X04874D01*
X04815Y04821D02*
Y04939D01*
X01335Y03389D02*
X01343D01*
X01339Y03385D02*
Y03393D01*
X01496Y03286D02*
X01503D01*
X015Y03282D02*
Y0329D01*
X01881Y03305D02*
X01888D01*
X01885Y03301D02*
Y03308D01*
X01846Y034D02*
X01853D01*
X0185Y03396D02*
Y03403D01*
X01796Y035D02*
X01803D01*
X018Y03496D02*
Y03503D01*
X01946Y034D02*
X01953D01*
X0195Y03396D02*
Y03403D01*
X01696Y039D02*
X01703D01*
X017Y03896D02*
Y03903D01*
X01896Y039D02*
X01903D01*
X019Y03896D02*
Y03903D01*
X01496Y039D02*
X01503D01*
X015Y03896D02*
Y03903D01*
X01596Y039D02*
X01603D01*
X016Y03896D02*
Y03903D01*
X03346Y0467D02*
X03353D01*
X0335Y04666D02*
Y04673D01*
X01746Y024D02*
X01753D01*
X0175Y02396D02*
Y02403D01*
X01146Y026D02*
X01153D01*
X0115Y02596D02*
Y02603D01*
X01396Y029D02*
X01403D01*
X014Y02896D02*
Y02903D01*
X03409Y047D02*
X03417D01*
X03413Y04696D02*
Y04703D01*
X02996Y043D02*
X03004D01*
X03Y04296D02*
Y04304D01*
X03564Y02217D02*
X03571D01*
X03567Y02214D02*
Y02221D01*
X03496Y023D02*
X03503D01*
X035Y02296D02*
Y02303D01*
X03646Y02203D02*
X03653D01*
X0365Y02199D02*
Y02207D01*
X03599Y02302D02*
X03606D01*
X03602Y02299D02*
Y02306D01*
X03546Y024D02*
X03553D01*
X0355Y02396D02*
Y02403D01*
X03396Y023D02*
X03403D01*
X034Y02296D02*
Y02303D01*
X02442Y03599D02*
X0245D01*
X02446Y03595D02*
Y03603D01*
X02499Y035D02*
X02507D01*
X02503Y03496D02*
Y03503D01*
X02442Y034D02*
X0245D01*
X02446Y03396D02*
Y03403D01*
X02442Y026D02*
X0245D01*
X02446Y02596D02*
Y02603D01*
X02442Y024D02*
X0245D01*
X02446Y02396D02*
Y02403D01*
X02496Y037D02*
X02503D01*
X025Y03696D02*
Y03703D01*
X02396Y037D02*
X02403D01*
X024Y03696D02*
Y03703D01*
X02396Y035D02*
X02403D01*
X024Y03496D02*
Y03503D01*
X02396Y033D02*
X02403D01*
X024Y03296D02*
Y03303D01*
X02396Y031D02*
X02403D01*
X024Y03096D02*
Y03103D01*
X02546Y034D02*
X02553D01*
X0255Y03396D02*
Y03403D01*
X02546Y036D02*
X02553D01*
X0255Y03596D02*
Y03603D01*
X02746Y036D02*
X02753D01*
X0275Y03596D02*
Y03603D01*
X04846Y048D02*
X04853D01*
X0485Y04796D02*
Y04803D01*
X04796Y047D02*
X04803D01*
X048Y04696D02*
Y04703D01*
X04846Y046D02*
X04853D01*
X0485Y04596D02*
Y04603D01*
X04796Y043D02*
X04803D01*
X048Y04296D02*
Y04303D01*
X04846Y042D02*
X04853D01*
X0485Y04196D02*
Y04203D01*
X04846Y04D02*
X04853D01*
X0485Y03996D02*
Y04003D01*
X04796Y039D02*
X04803D01*
X048Y03896D02*
Y03903D01*
X04846Y038D02*
X04853D01*
X0485Y03796D02*
Y03803D01*
X04796Y037D02*
X04803D01*
X048Y03696D02*
Y03703D01*
X04846Y036D02*
X04853D01*
X0485Y03596D02*
Y03603D01*
X04796Y035D02*
X04803D01*
X048Y03496D02*
Y03503D01*
X04796Y023D02*
X04803D01*
X048Y02296D02*
Y02303D01*
X04796Y021D02*
X04803D01*
X048Y02096D02*
Y02103D01*
X04696Y049D02*
X04703D01*
X047Y04896D02*
Y04903D01*
X04746Y048D02*
X04753D01*
X0475Y04796D02*
Y04803D01*
X04696Y047D02*
X04703D01*
X047Y04696D02*
Y04703D01*
X04746Y042D02*
X04753D01*
X0475Y04196D02*
Y04203D01*
X04696Y041D02*
X04703D01*
X047Y04096D02*
Y04103D01*
X04746Y04D02*
X04753D01*
X0475Y03996D02*
Y04003D01*
X04696Y037D02*
X04703D01*
X047Y03696D02*
Y03703D01*
X04746Y036D02*
X04753D01*
X0475Y03596D02*
Y03603D01*
X04696Y035D02*
X04703D01*
X047Y03496D02*
Y03503D01*
X04746Y034D02*
X04753D01*
X0475Y03396D02*
Y03403D01*
X04696Y023D02*
X04703D01*
X047Y02296D02*
Y02303D01*
X04696Y021D02*
X04703D01*
X047Y02096D02*
Y02103D01*
X04596Y049D02*
X04603D01*
X046Y04896D02*
Y04903D01*
X04646Y048D02*
X04653D01*
X0465Y04796D02*
Y04803D01*
X04596Y047D02*
X04603D01*
X046Y04696D02*
Y04703D01*
X04596Y043D02*
X04603D01*
X046Y04296D02*
Y04303D01*
X04646Y042D02*
X04653D01*
X0465Y04196D02*
Y04203D01*
X04596Y041D02*
X04603D01*
X046Y04096D02*
Y04103D01*
X04646Y038D02*
X04653D01*
X0465Y03796D02*
Y03803D01*
X04596Y037D02*
X04603D01*
X046Y03696D02*
Y03703D01*
X04646Y036D02*
X04653D01*
X0465Y03596D02*
Y03603D01*
X04596Y035D02*
X04603D01*
X046Y03496D02*
Y03503D01*
X04646Y034D02*
X04653D01*
X0465Y03396D02*
Y03403D01*
X04596Y023D02*
X04603D01*
X046Y02296D02*
Y02303D01*
X04646Y022D02*
X04653D01*
X0465Y02196D02*
Y02203D01*
X04596Y021D02*
X04603D01*
X046Y02096D02*
Y02103D01*
X04496Y047D02*
X04503D01*
X045Y04696D02*
Y04703D01*
X04546Y046D02*
X04553D01*
X0455Y04596D02*
Y04603D01*
X04496Y045D02*
X04503D01*
X045Y04496D02*
Y04503D01*
X04496Y043D02*
X04503D01*
X045Y04296D02*
Y04303D01*
X04546Y042D02*
X04553D01*
X0455Y04196D02*
Y04203D01*
X04496Y041D02*
X04503D01*
X045Y04096D02*
Y04103D01*
X04546Y038D02*
X04553D01*
X0455Y03796D02*
Y03803D01*
X04496Y037D02*
X04503D01*
X045Y03696D02*
Y03703D01*
X04546Y036D02*
X04553D01*
X0455Y03596D02*
Y03603D01*
X04496Y035D02*
X04503D01*
X045Y03496D02*
Y03503D01*
X04546Y034D02*
X04553D01*
X0455Y03396D02*
Y03403D01*
X04546Y022D02*
X04553D01*
X0455Y02196D02*
Y02203D01*
X04496Y021D02*
X04503D01*
X045Y02096D02*
Y02103D01*
X04396Y049D02*
X04403D01*
X044Y04896D02*
Y04903D01*
X04446Y042D02*
X04453D01*
X0445Y04196D02*
Y04203D01*
X04396Y041D02*
X04403D01*
X044Y04096D02*
Y04103D01*
X04446Y04D02*
X04453D01*
X0445Y03996D02*
Y04003D01*
X04446Y038D02*
X04453D01*
X0445Y03796D02*
Y03803D01*
X04396Y037D02*
X04403D01*
X044Y03696D02*
Y03703D01*
X04446Y036D02*
X04453D01*
X0445Y03596D02*
Y03603D01*
X04396Y035D02*
X04403D01*
X044Y03496D02*
Y03503D01*
X04446Y034D02*
X04453D01*
X0445Y03396D02*
Y03403D01*
X04396Y023D02*
X04403D01*
X044Y02296D02*
Y02303D01*
X04446Y022D02*
X04453D01*
X0445Y02196D02*
Y02203D01*
X04396Y021D02*
X04403D01*
X044Y02096D02*
Y02103D01*
X04296Y049D02*
X04303D01*
X043Y04896D02*
Y04903D01*
X04296Y047D02*
X04303D01*
X043Y04696D02*
Y04703D01*
X04296Y045D02*
X04303D01*
X043Y04496D02*
Y04503D01*
X04296Y043D02*
X04303D01*
X043Y04296D02*
Y04303D01*
X04346Y042D02*
X04353D01*
X0435Y04196D02*
Y04203D01*
X04296Y041D02*
X04303D01*
X043Y04096D02*
Y04103D01*
X04346Y038D02*
X04353D01*
X0435Y03796D02*
Y03803D01*
X04296Y037D02*
X04303D01*
X043Y03696D02*
Y03703D01*
X04346Y036D02*
X04353D01*
X0435Y03596D02*
Y03603D01*
X04296Y035D02*
X04303D01*
X043Y03496D02*
Y03503D01*
X04346Y034D02*
X04353D01*
X0435Y03396D02*
Y03403D01*
X04296Y023D02*
X04303D01*
X043Y02296D02*
Y02303D01*
X04346Y022D02*
X04353D01*
X0435Y02196D02*
Y02203D01*
X04296Y021D02*
X04303D01*
X043Y02096D02*
Y02103D01*
X04196Y047D02*
X04203D01*
X042Y04696D02*
Y04703D01*
X04246Y046D02*
X04253D01*
X0425Y04596D02*
Y04603D01*
X04246Y042D02*
X04253D01*
X0425Y04196D02*
Y04203D01*
X04196Y037D02*
X04203D01*
X042Y03696D02*
Y03703D01*
X04246Y036D02*
X04253D01*
X0425Y03596D02*
Y03603D01*
X04196Y035D02*
X04203D01*
X042Y03496D02*
Y03503D01*
X04246Y034D02*
X04253D01*
X0425Y03396D02*
Y03403D01*
X04196Y023D02*
X04203D01*
X042Y02296D02*
Y02303D01*
X04246Y022D02*
X04253D01*
X0425Y02196D02*
Y02203D01*
X04196Y021D02*
X04203D01*
X042Y02096D02*
Y02103D01*
X04096Y049D02*
X04103D01*
X041Y04896D02*
Y04903D01*
X04146Y048D02*
X04153D01*
X0415Y04796D02*
Y04803D01*
X04096Y047D02*
X04103D01*
X041Y04696D02*
Y04703D01*
X04146Y046D02*
X04153D01*
X0415Y04596D02*
Y04603D01*
X04096Y043D02*
X04103D01*
X041Y04296D02*
Y04303D01*
X04146Y042D02*
X04153D01*
X0415Y04196D02*
Y04203D01*
X04146Y038D02*
X04153D01*
X0415Y03796D02*
Y03803D01*
X04096Y037D02*
X04103D01*
X041Y03696D02*
Y03703D01*
X04146Y036D02*
X04153D01*
X0415Y03596D02*
Y03603D01*
X04096Y035D02*
X04103D01*
X041Y03496D02*
Y03503D01*
X04146Y034D02*
X04153D01*
X0415Y03396D02*
Y03403D01*
X04096Y023D02*
X04103D01*
X041Y02296D02*
Y02303D01*
X04146Y022D02*
X04153D01*
X0415Y02196D02*
Y02203D01*
X04096Y021D02*
X04103D01*
X041Y02096D02*
Y02103D01*
X04046Y048D02*
X04053D01*
X0405Y04796D02*
Y04803D01*
X04046Y046D02*
X04053D01*
X0405Y04596D02*
Y04603D01*
X03996Y045D02*
X04003D01*
X04Y04496D02*
Y04503D01*
X04046Y044D02*
X04053D01*
X0405Y04396D02*
Y04403D01*
X03996Y043D02*
X04003D01*
X04Y04296D02*
Y04303D01*
X04046Y042D02*
X04053D01*
X0405Y04196D02*
Y04203D01*
X03996Y039D02*
X04003D01*
X04Y03896D02*
Y03903D01*
X04046Y038D02*
X04053D01*
X0405Y03796D02*
Y03803D01*
X03996Y037D02*
X04003D01*
X04Y03696D02*
Y03703D01*
X04046Y036D02*
X04053D01*
X0405Y03596D02*
Y03603D01*
X03996Y035D02*
X04003D01*
X04Y03496D02*
Y03503D01*
X04046Y034D02*
X04053D01*
X0405Y03396D02*
Y03403D01*
X03996Y021D02*
X04003D01*
X04Y02096D02*
Y02103D01*
X03896Y047D02*
X03903D01*
X039Y04696D02*
Y04703D01*
X03946Y044D02*
X03953D01*
X0395Y04396D02*
Y04403D01*
X03896Y043D02*
X03903D01*
X039Y04296D02*
Y04303D01*
X03946Y04D02*
X03953D01*
X0395Y03996D02*
Y04003D01*
X03946Y038D02*
X03953D01*
X0395Y03796D02*
Y03803D01*
X03896Y037D02*
X03903D01*
X039Y03696D02*
Y03703D01*
X03946Y036D02*
X03953D01*
X0395Y03596D02*
Y03603D01*
X03896Y035D02*
X03903D01*
X039Y03496D02*
Y03503D01*
X03946Y034D02*
X03953D01*
X0395Y03396D02*
Y03403D01*
X03896Y021D02*
X03903D01*
X039Y02096D02*
Y02103D01*
X03796Y049D02*
X03803D01*
X038Y04896D02*
Y04903D01*
X03846Y048D02*
X03853D01*
X0385Y04796D02*
Y04803D01*
X03796Y047D02*
X03803D01*
X038Y04696D02*
Y04703D01*
X03796Y045D02*
X03803D01*
X038Y04496D02*
Y04503D01*
X03846Y044D02*
X03853D01*
X0385Y04396D02*
Y04403D01*
X03846Y038D02*
X03853D01*
X0385Y03796D02*
Y03803D01*
X03796Y037D02*
X03803D01*
X038Y03696D02*
Y03703D01*
X03846Y036D02*
X03853D01*
X0385Y03596D02*
Y03603D01*
X03796Y035D02*
X03803D01*
X038Y03496D02*
Y03503D01*
X03846Y034D02*
X03853D01*
X0385Y03396D02*
Y03403D01*
X03846Y032D02*
X03853D01*
X0385Y03196D02*
Y03203D01*
X03846Y024D02*
X03853D01*
X0385Y02396D02*
Y02403D01*
X03796Y021D02*
X03803D01*
X038Y02096D02*
Y02103D01*
X03696Y047D02*
X03703D01*
X037Y04696D02*
Y04703D01*
X03746Y046D02*
X03753D01*
X0375Y04596D02*
Y04603D01*
X03746Y044D02*
X03753D01*
X0375Y04396D02*
Y04403D01*
X03696Y043D02*
X03703D01*
X037Y04296D02*
Y04303D01*
X03746Y042D02*
X03753D01*
X0375Y04196D02*
Y04203D01*
X03696Y037D02*
X03703D01*
X037Y03696D02*
Y03703D01*
X03746Y036D02*
X03753D01*
X0375Y03596D02*
Y03603D01*
X03746Y024D02*
X03753D01*
X0375Y02396D02*
Y02403D01*
X03696Y021D02*
X03703D01*
X037Y02096D02*
Y02103D01*
X03596Y049D02*
X03603D01*
X036Y04896D02*
Y04903D01*
X03646Y044D02*
X03653D01*
X0365Y04396D02*
Y04403D01*
X03646Y036D02*
X03653D01*
X0365Y03596D02*
Y03603D01*
X03646Y024D02*
X03653D01*
X0365Y02396D02*
Y02403D01*
X03596Y021D02*
X03603D01*
X036Y02096D02*
Y02103D01*
X03496Y049D02*
X03503D01*
X035Y04896D02*
Y04903D01*
X03496Y047D02*
X03503D01*
X035Y04696D02*
Y04703D01*
X03496Y045D02*
X03503D01*
X035Y04496D02*
Y04503D01*
X03496Y043D02*
X03503D01*
X035Y04296D02*
Y04303D01*
X03496Y041D02*
X03503D01*
X035Y04096D02*
Y04103D01*
X03496Y039D02*
X03503D01*
X035Y03896D02*
Y03903D01*
X03496Y037D02*
X03503D01*
X035Y03696D02*
Y03703D01*
X03496Y035D02*
X03503D01*
X035Y03496D02*
Y03503D01*
X03496Y021D02*
X03503D01*
X035Y02096D02*
Y02103D01*
X03396Y049D02*
X03403D01*
X034Y04896D02*
Y04903D01*
X03446Y046D02*
X03453D01*
X0345Y04596D02*
Y04603D01*
X03446Y044D02*
X03453D01*
X0345Y04396D02*
Y04403D01*
X03446Y042D02*
X03453D01*
X0345Y04196D02*
Y04203D01*
X03396Y041D02*
X03403D01*
X034Y04096D02*
Y04103D01*
X03446Y04D02*
X03453D01*
X0345Y03996D02*
Y04003D01*
X03396Y039D02*
X03403D01*
X034Y03896D02*
Y03903D01*
X03396Y037D02*
X03403D01*
X034Y03696D02*
Y03703D01*
X03446Y036D02*
X03453D01*
X0345Y03596D02*
Y03603D01*
X03396Y035D02*
X03403D01*
X034Y03496D02*
Y03503D01*
X03396Y025D02*
X03403D01*
X034Y02496D02*
Y02503D01*
X03446Y024D02*
X03453D01*
X0345Y02396D02*
Y02403D01*
X03446Y022D02*
X03453D01*
X0345Y02196D02*
Y02203D01*
X03396Y021D02*
X03403D01*
X034Y02096D02*
Y02103D01*
X03346Y046D02*
X03353D01*
X0335Y04596D02*
Y04603D01*
X03296Y043D02*
X03303D01*
X033Y04296D02*
Y04303D01*
X03296Y041D02*
X03303D01*
X033Y04096D02*
Y04103D01*
X03296Y039D02*
X03303D01*
X033Y03896D02*
Y03903D01*
X03346Y038D02*
X03353D01*
X0335Y03796D02*
Y03803D01*
X03296Y037D02*
X03303D01*
X033Y03696D02*
Y03703D01*
X03346Y036D02*
X03353D01*
X0335Y03596D02*
Y03603D01*
X03296Y035D02*
X03303D01*
X033Y03496D02*
Y03503D01*
X03346Y024D02*
X03353D01*
X0335Y02396D02*
Y02403D01*
X03346Y022D02*
X03353D01*
X0335Y02196D02*
Y02203D01*
X03296Y021D02*
X03303D01*
X033Y02096D02*
Y02103D01*
X03196Y047D02*
X03203D01*
X032Y04696D02*
Y04703D01*
X03196Y045D02*
X03203D01*
X032Y04496D02*
Y04503D01*
X03246Y044D02*
X03253D01*
X0325Y04396D02*
Y04403D01*
X03196Y043D02*
X03203D01*
X032Y04296D02*
Y04303D01*
X03246Y042D02*
X03253D01*
X0325Y04196D02*
Y04203D01*
X03196Y041D02*
X03203D01*
X032Y04096D02*
Y04103D01*
X03246Y04D02*
X03253D01*
X0325Y03996D02*
Y04003D01*
X03196Y039D02*
X03203D01*
X032Y03896D02*
Y03903D01*
X03246Y038D02*
X03253D01*
X0325Y03796D02*
Y03803D01*
X03196Y037D02*
X03203D01*
X032Y03696D02*
Y03703D01*
X03246Y036D02*
X03253D01*
X0325Y03596D02*
Y03603D01*
X03196Y035D02*
X03203D01*
X032Y03496D02*
Y03503D01*
X03246Y026D02*
X03253D01*
X0325Y02596D02*
Y02603D01*
X03246Y024D02*
X03253D01*
X0325Y02396D02*
Y02403D01*
X03196Y023D02*
X03203D01*
X032Y02296D02*
Y02303D01*
X03196Y021D02*
X03203D01*
X032Y02096D02*
Y02103D01*
X03096Y047D02*
X03103D01*
X031Y04696D02*
Y04703D01*
X03146Y044D02*
X03153D01*
X0315Y04396D02*
Y04403D01*
X03096Y043D02*
X03103D01*
X031Y04296D02*
Y04303D01*
X03146Y042D02*
X03153D01*
X0315Y04196D02*
Y04203D01*
X03096Y041D02*
X03103D01*
X031Y04096D02*
Y04103D01*
X03146Y04D02*
X03153D01*
X0315Y03996D02*
Y04003D01*
X03096Y039D02*
X03103D01*
X031Y03896D02*
Y03903D01*
X03146Y038D02*
X03153D01*
X0315Y03796D02*
Y03803D01*
X03096Y037D02*
X03103D01*
X031Y03696D02*
Y03703D01*
X03146Y036D02*
X03153D01*
X0315Y03596D02*
Y03603D01*
X03096Y035D02*
X03103D01*
X031Y03496D02*
Y03503D01*
X03146Y024D02*
X03153D01*
X0315Y02396D02*
Y02403D01*
X03096Y023D02*
X03103D01*
X031Y02296D02*
Y02303D01*
X03146Y022D02*
X03153D01*
X0315Y02196D02*
Y02203D01*
X03096Y021D02*
X03103D01*
X031Y02096D02*
Y02103D01*
X02996Y047D02*
X03003D01*
X03Y04696D02*
Y04703D01*
X03046Y044D02*
X03053D01*
X0305Y04396D02*
Y04403D01*
X03046Y042D02*
X03053D01*
X0305Y04196D02*
Y04203D01*
X02996Y035D02*
X03003D01*
X03Y03496D02*
Y03503D01*
X03046Y026D02*
X03053D01*
X0305Y02596D02*
Y02603D01*
X02996Y025D02*
X03003D01*
X03Y02496D02*
Y02503D01*
X02996Y023D02*
X03003D01*
X03Y02296D02*
Y02303D01*
X02996Y021D02*
X03003D01*
X03Y02096D02*
Y02103D01*
X02896Y047D02*
X02903D01*
X029Y04696D02*
Y04703D01*
X02946Y044D02*
X02953D01*
X0295Y04396D02*
Y04403D01*
X02896Y041D02*
X02903D01*
X029Y04096D02*
Y04103D01*
X02896Y033D02*
X02903D01*
X029Y03296D02*
Y03303D01*
X02896Y031D02*
X02903D01*
X029Y03096D02*
Y03103D01*
X02896Y027D02*
X02903D01*
X029Y02696D02*
Y02703D01*
X02896Y025D02*
X02903D01*
X029Y02496D02*
Y02503D01*
X02946Y024D02*
X02953D01*
X0295Y02396D02*
Y02403D01*
X02896Y023D02*
X02903D01*
X029Y02296D02*
Y02303D01*
X02896Y021D02*
X02903D01*
X029Y02096D02*
Y02103D01*
X02796Y047D02*
X02803D01*
X028Y04696D02*
Y04703D01*
X02796Y045D02*
X02803D01*
X028Y04496D02*
Y04503D01*
X02796Y043D02*
X02803D01*
X028Y04296D02*
Y04303D01*
X02796Y041D02*
X02803D01*
X028Y04096D02*
Y04103D01*
X02846Y04D02*
X02853D01*
X0285Y03996D02*
Y04003D01*
X02796Y039D02*
X02803D01*
X028Y03896D02*
Y03903D01*
X02846Y038D02*
X02853D01*
X0285Y03796D02*
Y03803D01*
X02796Y037D02*
X02803D01*
X028Y03696D02*
Y03703D01*
X02846Y036D02*
X02853D01*
X0285Y03596D02*
Y03603D01*
X02796Y033D02*
X02803D01*
X028Y03296D02*
Y03303D01*
X02846Y032D02*
X02853D01*
X0285Y03196D02*
Y03203D01*
X02796Y031D02*
X02803D01*
X028Y03096D02*
Y03103D01*
X02846Y028D02*
X02853D01*
X0285Y02796D02*
Y02803D01*
X02796Y027D02*
X02803D01*
X028Y02696D02*
Y02703D01*
X02846Y024D02*
X02853D01*
X0285Y02396D02*
Y02403D01*
X02846Y022D02*
X02853D01*
X0285Y02196D02*
Y02203D01*
X02796Y021D02*
X02803D01*
X028Y02096D02*
Y02103D01*
X02696Y047D02*
X02703D01*
X027Y04696D02*
Y04703D01*
X02746Y046D02*
X02753D01*
X0275Y04596D02*
Y04603D01*
X02696Y045D02*
X02703D01*
X027Y04496D02*
Y04503D01*
X02746Y044D02*
X02753D01*
X0275Y04396D02*
Y04403D01*
X02696Y043D02*
X02703D01*
X027Y04296D02*
Y04303D01*
X02746Y042D02*
X02753D01*
X0275Y04196D02*
Y04203D01*
X02696Y041D02*
X02703D01*
X027Y04096D02*
Y04103D01*
X02746Y038D02*
X02753D01*
X0275Y03796D02*
Y03803D01*
X02746Y034D02*
X02753D01*
X0275Y03396D02*
Y03403D01*
X02746Y032D02*
X02753D01*
X0275Y03196D02*
Y03203D01*
X02696Y031D02*
X02703D01*
X027Y03096D02*
Y03103D01*
X02746Y028D02*
X02753D01*
X0275Y02796D02*
Y02803D01*
X02696Y027D02*
X02703D01*
X027Y02696D02*
Y02703D01*
X02746Y026D02*
X02753D01*
X0275Y02596D02*
Y02603D01*
X02696Y025D02*
X02703D01*
X027Y02496D02*
Y02503D01*
X02746Y024D02*
X02753D01*
X0275Y02396D02*
Y02403D01*
X02696Y023D02*
X02703D01*
X027Y02296D02*
Y02303D01*
X02696Y021D02*
X02703D01*
X027Y02096D02*
Y02103D01*
X02596Y047D02*
X02603D01*
X026Y04696D02*
Y04703D01*
X02646Y046D02*
X02653D01*
X0265Y04596D02*
Y04603D01*
X02596Y045D02*
X02603D01*
X026Y04496D02*
Y04503D01*
X02646Y044D02*
X02653D01*
X0265Y04396D02*
Y04403D01*
X02596Y043D02*
X02603D01*
X026Y04296D02*
Y04303D01*
X02646Y042D02*
X02653D01*
X0265Y04196D02*
Y04203D01*
X02596Y041D02*
X02603D01*
X026Y04096D02*
Y04103D01*
X02646Y028D02*
X02653D01*
X0265Y02796D02*
Y02803D01*
X02596Y027D02*
X02603D01*
X026Y02696D02*
Y02703D01*
X02596Y025D02*
X02603D01*
X026Y02496D02*
Y02503D01*
X02596Y023D02*
X02603D01*
X026Y02296D02*
Y02303D01*
X02596Y021D02*
X02603D01*
X026Y02096D02*
Y02103D01*
X02546Y046D02*
X02553D01*
X0255Y04596D02*
Y04603D01*
X02496Y045D02*
X02503D01*
X025Y04496D02*
Y04503D01*
X02546Y044D02*
X02553D01*
X0255Y04396D02*
Y04403D01*
X02496Y043D02*
X02503D01*
X025Y04296D02*
Y04303D01*
X02546Y042D02*
X02553D01*
X0255Y04196D02*
Y04203D01*
X02496Y041D02*
X02503D01*
X025Y04096D02*
Y04103D01*
X02496Y039D02*
X02503D01*
X025Y03896D02*
Y03903D01*
X02546Y038D02*
X02553D01*
X0255Y03796D02*
Y03803D01*
X02546Y032D02*
X02553D01*
X0255Y03196D02*
Y03203D01*
X02546Y024D02*
X02553D01*
X0255Y02396D02*
Y02403D01*
X02546Y022D02*
X02553D01*
X0255Y02196D02*
Y02203D01*
X02496Y021D02*
X02503D01*
X025Y02096D02*
Y02103D01*
X02396Y045D02*
X02403D01*
X024Y04496D02*
Y04503D01*
X02446Y044D02*
X02453D01*
X0245Y04396D02*
Y04403D01*
X02396Y043D02*
X02403D01*
X024Y04296D02*
Y04303D01*
X02446Y042D02*
X02453D01*
X0245Y04196D02*
Y04203D01*
X02396Y041D02*
X02403D01*
X024Y04096D02*
Y04103D01*
X02446Y038D02*
X02453D01*
X0245Y03796D02*
Y03803D01*
X02396Y029D02*
X02403D01*
X024Y02896D02*
Y02903D01*
X02396Y027D02*
X02403D01*
X024Y02696D02*
Y02703D01*
X02396Y025D02*
X02403D01*
X024Y02496D02*
Y02503D01*
X02396Y023D02*
X02403D01*
X024Y02296D02*
Y02303D01*
X02446Y022D02*
X02453D01*
X0245Y02196D02*
Y02203D01*
X02396Y021D02*
X02403D01*
X024Y02096D02*
Y02103D01*
X02296Y047D02*
X02303D01*
X023Y04696D02*
Y04703D01*
X02346Y046D02*
X02353D01*
X0235Y04596D02*
Y04603D01*
X02296Y045D02*
X02303D01*
X023Y04496D02*
Y04503D01*
X02346Y044D02*
X02353D01*
X0235Y04396D02*
Y04403D01*
X02296Y043D02*
X02303D01*
X023Y04296D02*
Y04303D01*
X02346Y042D02*
X02353D01*
X0235Y04196D02*
Y04203D01*
X02296Y041D02*
X02303D01*
X023Y04096D02*
Y04103D01*
X02296Y021D02*
X02303D01*
X023Y02096D02*
Y02103D01*
X02196Y047D02*
X02203D01*
X022Y04696D02*
Y04703D01*
X02246Y046D02*
X02253D01*
X0225Y04596D02*
Y04603D01*
X02196Y045D02*
X02203D01*
X022Y04496D02*
Y04503D01*
X02246Y044D02*
X02253D01*
X0225Y04396D02*
Y04403D01*
X02196Y043D02*
X02203D01*
X022Y04296D02*
Y04303D01*
X02246Y042D02*
X02253D01*
X0225Y04196D02*
Y04203D01*
X02196Y041D02*
X02203D01*
X022Y04096D02*
Y04103D01*
X02196Y039D02*
X02203D01*
X022Y03896D02*
Y03903D01*
X02246Y038D02*
X02253D01*
X0225Y03796D02*
Y03803D01*
X02196Y037D02*
X02203D01*
X022Y03696D02*
Y03703D01*
X02196Y035D02*
X02203D01*
X022Y03496D02*
Y03503D01*
X02196Y033D02*
X02203D01*
X022Y03296D02*
Y03303D01*
X02196Y031D02*
X02203D01*
X022Y03096D02*
Y03103D01*
X02196Y029D02*
X02203D01*
X022Y02896D02*
Y02903D01*
X02196Y027D02*
X02203D01*
X022Y02696D02*
Y02703D01*
X02196Y023D02*
X02203D01*
X022Y02296D02*
Y02303D01*
X02196Y021D02*
X02203D01*
X022Y02096D02*
Y02103D01*
X02146Y04D02*
X02153D01*
X0215Y03996D02*
Y04003D01*
X02146Y036D02*
X02153D01*
X0215Y03596D02*
Y03603D01*
X02146Y034D02*
X02153D01*
X0215Y03396D02*
Y03403D01*
X02146Y032D02*
X02153D01*
X0215Y03196D02*
Y03203D01*
X02096Y031D02*
X02103D01*
X021Y03096D02*
Y03103D01*
X02146Y03D02*
X02153D01*
X0215Y02996D02*
Y03003D01*
X02096Y029D02*
X02103D01*
X021Y02896D02*
Y02903D01*
X02146Y028D02*
X02153D01*
X0215Y02796D02*
Y02803D01*
X02096Y027D02*
X02103D01*
X021Y02696D02*
Y02703D01*
X02146Y026D02*
X02153D01*
X0215Y02596D02*
Y02603D01*
X02096Y023D02*
X02103D01*
X021Y02296D02*
Y02303D01*
X02146Y022D02*
X02153D01*
X0215Y02196D02*
Y02203D01*
X02096Y021D02*
X02103D01*
X021Y02096D02*
Y02103D01*
X01996Y047D02*
X02003D01*
X02Y04696D02*
Y04703D01*
X02046Y044D02*
X02053D01*
X0205Y04396D02*
Y04403D01*
X01996Y041D02*
X02003D01*
X02Y04096D02*
Y04103D01*
X01996Y039D02*
X02003D01*
X02Y03896D02*
Y03903D01*
X01996Y031D02*
X02003D01*
X02Y03096D02*
Y03103D01*
X02046Y03D02*
X02053D01*
X0205Y02996D02*
Y03003D01*
X01996Y029D02*
X02003D01*
X02Y02896D02*
Y02903D01*
X02046Y028D02*
X02053D01*
X0205Y02796D02*
Y02803D01*
X01996Y027D02*
X02003D01*
X02Y02696D02*
Y02703D01*
X02046Y026D02*
X02053D01*
X0205Y02596D02*
Y02603D01*
X01996Y025D02*
X02003D01*
X02Y02496D02*
Y02503D01*
X02046Y024D02*
X02053D01*
X0205Y02396D02*
Y02403D01*
X02046Y022D02*
X02053D01*
X0205Y02196D02*
Y02203D01*
X01996Y021D02*
X02003D01*
X02Y02096D02*
Y02103D01*
X01946Y048D02*
X01953D01*
X0195Y04796D02*
Y04803D01*
X01896Y047D02*
X01903D01*
X019Y04696D02*
Y04703D01*
X01946Y044D02*
X01953D01*
X0195Y04396D02*
Y04403D01*
X01896Y041D02*
X01903D01*
X019Y04096D02*
Y04103D01*
X01946Y04D02*
X01953D01*
X0195Y03996D02*
Y04003D01*
X01946Y036D02*
X01953D01*
X0195Y03596D02*
Y03603D01*
X01896Y035D02*
X01903D01*
X019Y03496D02*
Y03503D01*
X01896Y031D02*
X01903D01*
X019Y03096D02*
Y03103D01*
X01946Y03D02*
X01953D01*
X0195Y02996D02*
Y03003D01*
X01896Y029D02*
X01903D01*
X019Y02896D02*
Y02903D01*
X01946Y028D02*
X01953D01*
X0195Y02796D02*
Y02803D01*
X01896Y027D02*
X01903D01*
X019Y02696D02*
Y02703D01*
X01946Y026D02*
X01953D01*
X0195Y02596D02*
Y02603D01*
X01896Y025D02*
X01903D01*
X019Y02496D02*
Y02503D01*
X01946Y024D02*
X01953D01*
X0195Y02396D02*
Y02403D01*
X01896Y021D02*
X01903D01*
X019Y02096D02*
Y02103D01*
X01796Y037D02*
X01803D01*
X018Y03696D02*
Y03703D01*
X01796Y031D02*
X01803D01*
X018Y03096D02*
Y03103D01*
X01846Y03D02*
X01853D01*
X0185Y02996D02*
Y03003D01*
X01796Y029D02*
X01803D01*
X018Y02896D02*
Y02903D01*
X01796Y027D02*
X01803D01*
X018Y02696D02*
Y02703D01*
X01846Y026D02*
X01853D01*
X0185Y02596D02*
Y02603D01*
X01846Y024D02*
X01853D01*
X0185Y02396D02*
Y02403D01*
X01796Y023D02*
X01803D01*
X018Y02296D02*
Y02303D01*
X01796Y021D02*
X01803D01*
X018Y02096D02*
Y02103D01*
X01696Y047D02*
X01703D01*
X017Y04696D02*
Y04703D01*
X01696Y041D02*
X01703D01*
X017Y04096D02*
Y04103D01*
X01746Y038D02*
X01753D01*
X0175Y03796D02*
Y03803D01*
X01746Y036D02*
X01753D01*
X0175Y03596D02*
Y03603D01*
X01696Y029D02*
X01703D01*
X017Y02896D02*
Y02903D01*
X01696Y027D02*
X01703D01*
X017Y02696D02*
Y02703D01*
X01746Y026D02*
X01753D01*
X0175Y02596D02*
Y02603D01*
X01696Y025D02*
X01703D01*
X017Y02496D02*
Y02503D01*
X01696Y023D02*
X01703D01*
X017Y02296D02*
Y02303D01*
X01746Y022D02*
X01753D01*
X0175Y02196D02*
Y02203D01*
X01696Y021D02*
X01703D01*
X017Y02096D02*
Y02103D01*
X01646Y048D02*
X01653D01*
X0165Y04796D02*
Y04803D01*
X01596Y047D02*
X01603D01*
X016Y04696D02*
Y04703D01*
X01646Y044D02*
X01653D01*
X0165Y04396D02*
Y04403D01*
X01596Y041D02*
X01603D01*
X016Y04096D02*
Y04103D01*
X01646Y04D02*
X01653D01*
X0165Y03996D02*
Y04003D01*
X01646Y038D02*
X01653D01*
X0165Y03796D02*
Y03803D01*
X01646Y032D02*
X01653D01*
X0165Y03196D02*
Y03203D01*
X01596Y031D02*
X01603D01*
X016Y03096D02*
Y03103D01*
X01646Y03D02*
X01653D01*
X0165Y02996D02*
Y03003D01*
X01596Y029D02*
X01603D01*
X016Y02896D02*
Y02903D01*
X01596Y023D02*
X01603D01*
X016Y02296D02*
Y02303D01*
X01596Y021D02*
X01603D01*
X016Y02096D02*
Y02103D01*
X01546Y048D02*
X01553D01*
X0155Y04796D02*
Y04803D01*
X01496Y047D02*
X01503D01*
X015Y04696D02*
Y04703D01*
X01546Y044D02*
X01553D01*
X0155Y04396D02*
Y04403D01*
X01546Y042D02*
X01553D01*
X0155Y04196D02*
Y04203D01*
X01546Y04D02*
X01553D01*
X0155Y03996D02*
Y04003D01*
X01546Y038D02*
X01553D01*
X0155Y03796D02*
Y03803D01*
X01546Y032D02*
X01553D01*
X0155Y03196D02*
Y03203D01*
X01496Y031D02*
X01503D01*
X015Y03096D02*
Y03103D01*
X01546Y03D02*
X01553D01*
X0155Y02996D02*
Y03003D01*
X01496Y029D02*
X01503D01*
X015Y02896D02*
Y02903D01*
X01496Y023D02*
X01503D01*
X015Y02296D02*
Y02303D01*
X01446Y048D02*
X01453D01*
X0145Y04796D02*
Y04803D01*
X01396Y047D02*
X01403D01*
X014Y04696D02*
Y04703D01*
X01446Y044D02*
X01453D01*
X0145Y04396D02*
Y04403D01*
X01396Y043D02*
X01403D01*
X014Y04296D02*
Y04303D01*
X01446Y042D02*
X01453D01*
X0145Y04196D02*
Y04203D01*
X01446Y04D02*
X01453D01*
X0145Y03996D02*
Y04003D01*
X01446Y038D02*
X01453D01*
X0145Y03796D02*
Y03803D01*
X01446Y036D02*
X01453D01*
X0145Y03596D02*
Y03603D01*
X01446Y026D02*
X01453D01*
X0145Y02596D02*
Y02603D01*
X01396Y021D02*
X01403D01*
X014Y02096D02*
Y02103D01*
X01346Y044D02*
X01353D01*
X0135Y04396D02*
Y04403D01*
X01346Y04D02*
X01353D01*
X0135Y03996D02*
Y04003D01*
X01296Y021D02*
X01303D01*
X013Y02096D02*
Y02103D01*
X01246Y022D02*
X01253D01*
X0125Y02196D02*
Y02203D01*
X01196Y021D02*
X01203D01*
X012Y02096D02*
Y02103D01*
X01146Y048D02*
X01153D01*
X0115Y04796D02*
Y04803D01*
X01096Y047D02*
X01103D01*
X011Y04696D02*
Y04703D01*
X01096Y043D02*
X01103D01*
X011Y04296D02*
Y04303D01*
X01146Y042D02*
X01153D01*
X0115Y04196D02*
Y04203D01*
X01096Y039D02*
X01103D01*
X011Y03896D02*
Y03903D01*
X01146Y038D02*
X01153D01*
X0115Y03796D02*
Y03803D01*
X01146Y034D02*
X01153D01*
X0115Y03396D02*
Y03403D01*
X01146Y032D02*
X01153D01*
X0115Y03196D02*
Y03203D01*
X01096Y031D02*
X01103D01*
X011Y03096D02*
Y03103D01*
X01146Y03D02*
X01153D01*
X0115Y02996D02*
Y03003D01*
X01096Y025D02*
X01103D01*
X011Y02496D02*
Y02503D01*
X01096Y023D02*
X01103D01*
X011Y02296D02*
Y02303D01*
X01096Y021D02*
X01103D01*
X011Y02096D02*
Y02103D01*
X00996Y049D02*
X01003D01*
X01Y04896D02*
Y04903D01*
X00996Y047D02*
X01003D01*
X01Y04696D02*
Y04703D01*
X01046Y046D02*
X01053D01*
X0105Y04596D02*
Y04603D01*
X00996Y045D02*
X01003D01*
X01Y04496D02*
Y04503D01*
X01046Y044D02*
X01053D01*
X0105Y04396D02*
Y04403D01*
X00996Y043D02*
X01003D01*
X01Y04296D02*
Y04303D01*
X01046Y042D02*
X01053D01*
X0105Y04196D02*
Y04203D01*
X00996Y041D02*
X01003D01*
X01Y04096D02*
Y04103D01*
X01046Y04D02*
X01053D01*
X0105Y03996D02*
Y04003D01*
X00996Y039D02*
X01003D01*
X01Y03896D02*
Y03903D01*
X00996Y037D02*
X01003D01*
X01Y03696D02*
Y03703D01*
X01046Y036D02*
X01053D01*
X0105Y03596D02*
Y03603D01*
X00996Y031D02*
X01003D01*
X01Y03096D02*
Y03103D01*
X01046Y03D02*
X01053D01*
X0105Y02996D02*
Y03003D01*
X01046Y028D02*
X01053D01*
X0105Y02796D02*
Y02803D01*
X00996Y025D02*
X01003D01*
X01Y02496D02*
Y02503D01*
X00996Y023D02*
X01003D01*
X01Y02296D02*
Y02303D01*
X01046Y022D02*
X01053D01*
X0105Y02196D02*
Y02203D01*
X00996Y021D02*
X01003D01*
X01Y02096D02*
Y02103D01*
X01518Y02731D02*
X01526D01*
X01522Y02727D02*
Y02735D01*
X01573Y02731D02*
X01581D01*
X01577Y02727D02*
Y02735D01*
X03626Y0326D02*
X03633D01*
X0363Y03256D02*
Y03263D01*
X01616Y0246D02*
X01623D01*
X0162Y02456D02*
Y02463D01*
X01617Y02527D02*
X01624D01*
X01621Y02523D02*
Y02531D01*
X01616Y02495D02*
X01623D01*
X0162Y02491D02*
Y02498D01*
X01546Y02731D02*
X01553D01*
X0155Y02727D02*
Y02735D01*
X03081Y03155D02*
X03088D01*
X03085Y03151D02*
Y03158D01*
X03316Y0487D02*
X03323D01*
X0332Y04866D02*
Y04873D01*
X03316Y0478D02*
X03323D01*
X0332Y04776D02*
Y04783D01*
X03361Y0482D02*
X03368D01*
X03365Y04816D02*
Y04823D01*
X03041Y0487D02*
X03048D01*
X03045Y04866D02*
Y04873D01*
X03036Y049D02*
X03043D01*
X0304Y04896D02*
Y04903D01*
X04247Y04514D02*
X04255D01*
X04251Y0451D02*
Y04518D01*
X03041Y03965D02*
X03048D01*
X03045Y03961D02*
Y03968D01*
X02956Y03965D02*
X02963D01*
X0296Y03961D02*
Y03968D01*
X02996Y03965D02*
X03003D01*
X03Y03961D02*
Y03968D01*
X02901Y0416D02*
X02908D01*
X02905Y04156D02*
Y04163D01*
X03041Y04095D02*
X03048D01*
X03045Y04091D02*
Y04098D01*
X03063Y0413D02*
X03071D01*
X03067Y04126D02*
Y04133D01*
X03041Y0364D02*
X03048D01*
X03045Y03636D02*
Y03643D01*
X02996Y0361D02*
X03003D01*
X03Y03606D02*
Y03613D01*
X02956Y0359D02*
X02963D01*
X0296Y03586D02*
Y03593D01*
X02976Y04197D02*
X02983D01*
X0298Y04193D02*
Y04201D01*
X02941Y04335D02*
X02948D01*
X02945Y04331D02*
Y04338D01*
X02941Y04285D02*
X02948D01*
X02945Y04281D02*
Y04288D01*
X02916Y0422D02*
X02923D01*
X0292Y04216D02*
Y04223D01*
X03686Y0481D02*
X03693D01*
X0369Y04806D02*
Y04813D01*
X04912Y03294D02*
X04919D01*
X04916Y0329D02*
Y03298D01*
X0491Y03213D02*
X04918D01*
X04914Y03209D02*
Y03217D01*
X0491Y03071D02*
X04918D01*
X04914Y03067D02*
Y03075D01*
X0491Y02858D02*
X04918D01*
X04914Y02854D02*
Y02862D01*
X04911Y02575D02*
X04918D01*
X04915Y02571D02*
Y02578D01*
X04356Y02465D02*
X04363D01*
X0436Y02461D02*
Y02468D01*
X04494Y02465D02*
X04502D01*
X04498Y02461D02*
Y02469D01*
X04615Y0246D02*
X04623D01*
X04619Y02456D02*
Y02464D01*
X04771Y0246D02*
X04778D01*
X04775Y02456D02*
Y02463D01*
X0489Y02467D02*
X04898D01*
X04894Y02463D02*
Y02471D01*
X04202Y0246D02*
X0421D01*
X04206Y02456D02*
Y02464D01*
X04076Y0246D02*
X04083D01*
X0408Y02456D02*
Y02463D01*
X03996Y0253D02*
X04003D01*
X04Y02526D02*
Y02533D01*
X04001Y02915D02*
X04008D01*
X04005Y02911D02*
Y02918D01*
X04001Y0298D02*
X04008D01*
X04005Y02976D02*
Y02983D01*
X03998Y02825D02*
X04006D01*
X04002Y02821D02*
Y02828D01*
X04001Y0274D02*
X04008D01*
X04005Y02736D02*
Y02743D01*
X03999Y02636D02*
X04007D01*
X04003Y02632D02*
Y0264D01*
X03999Y03071D02*
X04007D01*
X04003Y03067D02*
Y03075D01*
X04001Y0318D02*
X04008D01*
X04005Y03176D02*
Y03183D01*
X04001Y0331D02*
X04008D01*
X04005Y03306D02*
Y03313D01*
X03921Y02665D02*
X03928D01*
X03925Y02661D02*
Y02668D01*
X03924Y02614D02*
X03932D01*
X03928Y0261D02*
Y02618D01*
X03923Y02567D02*
X03931D01*
X03927Y02563D02*
Y02571D01*
X03884Y02609D02*
X03891D01*
X03888Y02605D02*
Y02613D01*
X03548Y0263D02*
X03555D01*
X03552Y02626D02*
Y02634D01*
X03458Y02634D02*
X03466D01*
X03462Y0263D02*
Y02638D01*
X03546Y02553D02*
X03554D01*
X0355Y02549D02*
Y02557D01*
X03141Y0288D02*
X03148D01*
X03145Y02876D02*
Y02883D01*
X03006Y0309D02*
X03013D01*
X0301Y03086D02*
Y03093D01*
X02998Y03189D02*
X03006D01*
X03002Y03185D02*
Y03193D01*
X03001Y0326D02*
X03008D01*
X03005Y03256D02*
Y03263D01*
X02999Y03335D02*
X03007D01*
X03003Y03331D02*
Y03339D01*
X03001Y0338D02*
X03008D01*
X03005Y03376D02*
Y03383D01*
X03586Y0304D02*
X03593D01*
X0359Y03036D02*
Y03043D01*
X03491Y0275D02*
X03498D01*
X03495Y02746D02*
Y02753D01*
X03451Y0288D02*
X03458D01*
X03455Y02876D02*
Y02883D01*
X03466Y0297D02*
X03473D01*
X0347Y02966D02*
Y02973D01*
X03791Y0298D02*
X03798D01*
X03795Y02976D02*
Y02983D01*
X03676Y0274D02*
X03683D01*
X0368Y02736D02*
Y02743D01*
X03681Y02445D02*
X03688D01*
X03685Y02441D02*
Y02448D01*
X03546Y03265D02*
X03553D01*
X0355Y03261D02*
Y03268D01*
X03676Y03132D02*
X03684D01*
X0368Y03128D02*
Y03136D01*
X03741Y0313D02*
X03748D01*
X03745Y03126D02*
Y03133D01*
X03891Y0313D02*
X03898D01*
X03895Y03126D02*
Y03133D01*
X03921Y0304D02*
X03928D01*
X03925Y03036D02*
Y03043D01*
X03916Y02979D02*
X03924D01*
X0392Y02975D02*
Y02983D01*
X03917Y02918D02*
X03925D01*
X03921Y02914D02*
Y02922D01*
X03921Y02835D02*
X03928D01*
X03925Y02831D02*
Y02838D01*
X03921Y028D02*
X03928D01*
X03925Y02796D02*
Y02803D01*
X03921Y0274D02*
X03928D01*
X03925Y02736D02*
Y02743D01*
X03351Y0262D02*
X03358D01*
X03355Y02616D02*
Y02623D01*
X03416Y02545D02*
X03423D01*
X0342Y02541D02*
Y02548D01*
X03516Y0245D02*
X03523D01*
X0352Y02446D02*
Y02453D01*
X03851Y02445D02*
X03858D01*
X03855Y02441D02*
Y02448D01*
X03176Y02685D02*
X03183D01*
X0318Y02681D02*
Y02688D01*
X03126Y02685D02*
X03133D01*
X0313Y02681D02*
Y02688D01*
X03021Y02685D02*
X03028D01*
X03025Y02681D02*
Y02688D01*
X03056Y02685D02*
X03063D01*
X0306Y02681D02*
Y02688D01*
X03001Y02715D02*
X03008D01*
X03005Y02711D02*
Y02718D01*
X03001Y0278D02*
X03008D01*
X03005Y02776D02*
Y02783D01*
X02676Y0283D02*
X02683D01*
X0268Y02826D02*
Y02833D01*
X02711Y0283D02*
X02718D01*
X02715Y02826D02*
Y02833D01*
X02821Y02835D02*
X02828D01*
X02825Y02831D02*
Y02838D01*
X02856Y0287D02*
X02863D01*
X0286Y02866D02*
Y02873D01*
X02866Y0303D02*
X02873D01*
X0287Y03026D02*
Y03033D01*
X02636Y0303D02*
X02643D01*
X0264Y03026D02*
Y03033D01*
X02676Y03065D02*
X02683D01*
X0268Y03061D02*
Y03068D01*
X02636Y0306D02*
X02643D01*
X0264Y03056D02*
Y03063D01*
X02636Y02855D02*
X02643D01*
X0264Y02851D02*
Y02858D01*
X02646Y0283D02*
X02653D01*
X0265Y02826D02*
Y02833D01*
X02076Y0377D02*
X02083D01*
X0208Y03766D02*
Y03773D01*
X02051Y0377D02*
X02058D01*
X02055Y03766D02*
Y03773D01*
X02026Y0377D02*
X02033D01*
X0203Y03766D02*
Y03773D01*
X02001Y0377D02*
X02008D01*
X02005Y03766D02*
Y03773D01*
X02001Y03745D02*
X02008D01*
X02005Y03741D02*
Y03748D01*
X02026Y03745D02*
X02033D01*
X0203Y03741D02*
Y03748D01*
X02051Y03745D02*
X02058D01*
X02055Y03741D02*
Y03748D01*
X01591Y0491D02*
X01598D01*
X01595Y04906D02*
Y04913D01*
X02666Y0286D02*
X02673D01*
X0267Y02856D02*
Y02863D01*
X03241Y0297D02*
X03248D01*
X03245Y02966D02*
Y02973D01*
X03411Y0285D02*
X03418D01*
X03415Y02846D02*
Y02853D01*
X03241Y0314D02*
X03248D01*
X03245Y03136D02*
Y03143D01*
X03301Y02675D02*
X03308D01*
X03305Y02671D02*
Y02678D01*
X03476Y0289D02*
X03483D01*
X0348Y02886D02*
Y02893D01*
X03181Y0314D02*
X03188D01*
X03185Y03136D02*
Y03143D01*
X03281Y0314D02*
X03288D01*
X03285Y03136D02*
Y03143D01*
X03366Y03283D02*
X03373D01*
X0337Y03279D02*
Y03287D01*
X03206Y0396D02*
X03213D01*
X0321Y03956D02*
Y03963D01*
X04596Y03845D02*
X04603D01*
X046Y03841D02*
Y03848D01*
X04486Y04065D02*
X04493D01*
X0449Y04061D02*
Y04068D01*
X04486Y0378D02*
X04493D01*
X0449Y03776D02*
Y03783D01*
X04281Y0378D02*
X04288D01*
X04285Y03776D02*
Y03783D01*
X03036Y04765D02*
X03043D01*
X0304Y04761D02*
Y04768D01*
X02756Y0396D02*
X02763D01*
X0276Y03956D02*
Y03963D01*
X03366Y0396D02*
X03373D01*
X0337Y03956D02*
Y03963D01*
X04196Y0463D02*
X04203D01*
X042Y04626D02*
Y04633D01*
X04296Y0463D02*
X04304D01*
X043Y04626D02*
Y04633D01*
X03681Y0396D02*
X03688D01*
X03685Y03956D02*
Y03963D01*
X03846Y0407D02*
X03853D01*
X0385Y04066D02*
Y04073D01*
X03571Y0411D02*
X03578D01*
X03575Y04106D02*
Y04113D01*
X03571Y039D02*
X03578D01*
X03575Y03896D02*
Y03903D01*
X03726Y0344D02*
X03733D01*
X0373Y03436D02*
Y03443D01*
X02406Y03745D02*
X02413D01*
X0241Y03741D02*
Y03748D01*
X01361Y0491D02*
X01368D01*
X01365Y04906D02*
Y04913D01*
X01746Y0493D02*
X01753D01*
X0175Y04926D02*
Y04933D01*
X01761Y04845D02*
X01768D01*
X01765Y04841D02*
Y04848D01*
X03691Y04365D02*
X03698D01*
X03695Y04361D02*
Y04368D01*
X03536Y0482D02*
X03543D01*
X0354Y04816D02*
Y04823D01*
X03186Y0482D02*
X03193D01*
X0319Y04816D02*
Y04823D01*
X02076Y03745D02*
X02083D01*
X0208Y03741D02*
Y03748D01*
X01116Y0344D02*
X01123D01*
X0112Y03436D02*
Y03443D01*
X01221Y0353D02*
X01228D01*
X01225Y03526D02*
Y03533D01*
X03131Y04755D02*
X03138D01*
X03135Y04751D02*
Y04758D01*
X03131Y0449D02*
X03138D01*
X03135Y04486D02*
Y04493D01*
X03096Y04815D02*
X03103D01*
X031Y04811D02*
Y04818D01*
X02036Y04785D02*
X02043D01*
X0204Y04781D02*
Y04788D01*
X01776Y02805D02*
X01783D01*
X0178Y02801D02*
Y02808D01*
X01776Y0251D02*
X01783D01*
X0178Y02506D02*
Y02513D01*
X02461Y0385D02*
X02468D01*
X02465Y03846D02*
Y03853D01*
X02401Y03955D02*
X02408D01*
X02405Y03951D02*
Y03958D01*
X03871Y0247D02*
X03878D01*
X03875Y02466D02*
Y02473D01*
X04891Y04515D02*
X04898D01*
X04895Y04511D02*
Y04518D01*
X02041Y0484D02*
X02048D01*
X02045Y04836D02*
Y04843D01*
X02966Y0431D02*
X02973D01*
X0297Y04306D02*
Y04313D01*
X02901Y0413D02*
X02908D01*
X02905Y04126D02*
Y04133D01*
X04021Y04565D02*
X04028D01*
X04025Y04561D02*
Y04568D01*
X04367Y04527D02*
X04375D01*
X04371Y04524D02*
Y04531D01*
X04417Y04566D02*
X04425D01*
X04421Y04562D02*
Y0457D01*
X03151Y03265D02*
X03158D01*
X03155Y03261D02*
Y03268D01*
X02981Y03115D02*
X02988D01*
X02985Y03111D02*
Y03118D01*
X03096Y025D02*
X03103D01*
X031Y02496D02*
Y02503D01*
X03646Y0286D02*
X03653D01*
X0365Y02856D02*
Y02863D01*
X03781Y0283D02*
X03788D01*
X03785Y02826D02*
Y02833D01*
X03781Y0265D02*
X03788D01*
X03785Y02646D02*
Y02653D01*
X03891Y0307D02*
X03898D01*
X03895Y03066D02*
Y03073D01*
X03891Y0289D02*
X03898D01*
X03895Y02886D02*
Y02893D01*
X03511Y0308D02*
X03518D01*
X03515Y03076D02*
Y03083D01*
X03511Y032D02*
X03518D01*
X03515Y03196D02*
Y03203D01*
X03511Y02845D02*
X03518D01*
X03515Y02841D02*
Y02848D01*
X03426Y0342D02*
X03433D01*
X0343Y03416D02*
Y03423D01*
X02936Y03115D02*
X02943D01*
X0294Y03111D02*
Y03118D01*
X03261Y03265D02*
X03268D01*
X03265Y03261D02*
Y03268D01*
X04561Y0429D02*
X04568D01*
X04565Y04286D02*
Y04293D01*
X04531Y0433D02*
X04538D01*
X04535Y04326D02*
Y04333D01*
X04532Y04412D02*
X0454D01*
X04536Y04409D02*
Y04416D01*
X04595Y04374D02*
X04603D01*
X04599Y0437D02*
Y04377D01*
X04595Y04532D02*
X04603D01*
X04599Y04528D02*
Y04536D01*
X04687Y04382D02*
X04695D01*
X04691Y04379D02*
Y04386D01*
X04687Y04522D02*
X04695D01*
X04691Y04519D02*
Y04526D01*
X04642Y04332D02*
X0465D01*
X04646Y04329D02*
Y04336D01*
X04562Y04392D02*
X0457D01*
X04566Y04389D02*
Y04396D01*
X04642Y04487D02*
X0465D01*
X04646Y04484D02*
Y04491D01*
X04891Y0467D02*
X04898D01*
X04895Y04666D02*
Y04673D01*
X04236Y041D02*
X04243D01*
X0424Y04096D02*
Y04103D01*
X04366Y03833D02*
X04374D01*
X0437Y03829D02*
Y03837D01*
X04365Y04007D02*
X04373D01*
X04369Y04003D02*
Y04011D01*
X04072Y04452D02*
X0408D01*
X04076Y04449D02*
Y04456D01*
X04431Y04349D02*
X04439D01*
X04435Y04345D02*
Y04353D01*
X04344Y04349D02*
X04352D01*
X04348Y04345D02*
Y04353D01*
X04431Y04436D02*
X04439D01*
X04435Y04432D02*
Y0444D01*
X04431Y04392D02*
X04439D01*
X04435Y04389D02*
Y04396D01*
X04344Y04436D02*
X04352D01*
X04348Y04432D02*
Y0444D01*
X04344Y04392D02*
X04352D01*
X04348Y04389D02*
Y04396D01*
X04388Y04349D02*
X04395D01*
X04392Y04345D02*
Y04353D01*
X04388Y04436D02*
X04395D01*
X04392Y04432D02*
Y0444D01*
X04388Y04392D02*
X04395D01*
X04392Y04389D02*
Y04396D01*
X04252Y04451D02*
X0426D01*
X04256Y04447D02*
Y04455D01*
X04457Y04602D02*
X04465D01*
X04461Y04599D02*
Y04606D01*
X04457Y04682D02*
X04465D01*
X04461Y04679D02*
Y04686D01*
X04252Y04327D02*
X0426D01*
X04256Y04324D02*
Y04331D01*
X04477Y04632D02*
X04485D01*
X04481Y04629D02*
Y04636D01*
M02*