%FSTAX23Y23*%
%MOIN*%
%SFA1B1*%

%IPPOS*%
%ADD10C,0.010000*%
%ADD11C,0.011800*%
%ADD12C,0.009800*%
%ADD13C,0.007900*%
%ADD14C,0.003900*%
%ADD15C,0.006000*%
%ADD16C,0.023600*%
%ADD17C,0.005000*%
%ADD18C,0.007000*%
%ADD19C,0.004000*%
%LNv1.0-1*%
%LPD*%
G54D10*
X01555Y0216D02*
D01*
D01*
G75*
G03X01414I-00070J0D01*
G74*G01*
D01*
G75*
G03X01555I00070J0D01*
G74*G01*
X01515Y0491D02*
D01*
D01*
G75*
G03X01374I-00070J0D01*
G74*G01*
D01*
G75*
G03X01515I00070J0D01*
G74*G01*
X0174D02*
D01*
D01*
G75*
G03X01599I-00070J0D01*
G74*G01*
D01*
G75*
G03X0174I00070J0D01*
G74*G01*
X01905Y0251D02*
D01*
D01*
G75*
G03X01764I-00070J0D01*
G74*G01*
D01*
G75*
G03X01905I00070J0D01*
G74*G01*
X04575Y02255D02*
D01*
D01*
G75*
G03X04434I-00070J0D01*
G74*G01*
D01*
G75*
G03X04575I00070J0D01*
G74*G01*
X01905Y0281D02*
D01*
D01*
G75*
G03X01764I-00070J0D01*
G74*G01*
D01*
G75*
G03X01905I00070J0D01*
G74*G01*
X03375Y0226D02*
D01*
D01*
G75*
G03X03234I-00070J0D01*
G74*G01*
D01*
G75*
G03X03375I00070J0D01*
G74*G01*
X0472Y0472D02*
D01*
D01*
G75*
G03X04579I-00070J0D01*
G74*G01*
D01*
G75*
G03X0472I00070J0D01*
G74*G01*
X00955Y0299D02*
X01165D01*
X00955Y0258D02*
Y0299D01*
Y0258D02*
X01165D01*
Y0299*
X00955Y03315D02*
X01165D01*
Y03105D02*
Y03315D01*
X00955Y03105D02*
X01165D01*
X00955D02*
Y03315D01*
X04465Y0361D02*
Y0374D01*
X04055Y0361D02*
X04465D01*
X04055D02*
Y0374D01*
X042*
X0408Y0416D02*
X0453D01*
Y0374D02*
Y0416D01*
X042Y0374D02*
X0453D01*
X042D02*
Y03965D01*
X04135D02*
X042D01*
X04135D02*
Y04075D01*
X0408D02*
X04135D01*
X0408D02*
Y0416D01*
X0359Y03745D02*
X03625D01*
X0359Y03585D02*
Y03745D01*
Y03585D02*
X03835D01*
Y03745*
Y041D02*
Y0411D01*
X03625D02*
X03835D01*
X03625Y03745D02*
Y0411D01*
Y03745D02*
X03835D01*
Y041*
X02095Y0243D02*
X02705D01*
Y02715*
X02665D02*
X02705D01*
X02095Y0238D02*
Y0243D01*
X0203D02*
X02095D01*
X0129Y04735D02*
Y048D01*
X0124Y04735D02*
X0129D01*
X01575Y04125D02*
Y04165D01*
X0129Y04125D02*
X01575D01*
X0129D02*
Y04735D01*
X02802Y04996D02*
X02852D01*
X02802Y04083D02*
Y04996D01*
X02264Y05111D02*
Y05212D01*
X02266*
X02345*
Y0503D02*
Y05212D01*
Y0503D02*
X02416D01*
Y05215*
X02492*
Y0503D02*
Y05215D01*
Y0503D02*
X02575D01*
Y05213*
X02657*
Y05029D02*
Y05213D01*
Y05029D02*
X02726D01*
Y0521*
X02827*
Y04996D02*
Y0521D01*
X02191Y04996D02*
X02802D01*
X02191Y04083D02*
Y04996D01*
X02144D02*
X02191D01*
X02144D02*
Y05257D01*
X02852*
Y04996D02*
Y05257D01*
X02191Y04083D02*
X02802D01*
X0203Y046D02*
Y0473D01*
X01815Y046D02*
X0203D01*
X01815D02*
Y04735D01*
X0208D02*
Y0499D01*
X01815Y04735D02*
X0208D01*
X01815D02*
Y0499D01*
X0208*
X03005Y0461D02*
Y0473D01*
X02905Y0461D02*
X03005D01*
X02905D02*
Y04735D01*
X0306D02*
Y0499D01*
X02905Y04735D02*
X0306D01*
X02905D02*
Y0499D01*
X0306*
G54D11*
X04257Y0253D02*
D01*
D01*
G75*
G03X04246I-00005J0D01*
G74*G01*
D01*
G75*
G03X04257I00005J0D01*
G74*G01*
G54D12*
X0456Y03881D02*
D01*
D01*
G75*
G03X0455I-00004J0D01*
G74*G01*
D01*
G75*
G03X0456I00004J0D01*
G74*G01*
X02102Y03568D02*
D01*
D01*
G75*
G03X02092I-00004J0D01*
G74*G01*
D01*
G75*
G03X02102I00004J0D01*
G74*G01*
X01767Y03388D02*
D01*
D01*
G75*
G03X01757I-00004J0D01*
G74*G01*
D01*
G75*
G03X01767I00004J0D01*
G74*G01*
X01334Y02841D02*
D01*
D01*
G75*
G03X01324I-00004J0D01*
G74*G01*
D01*
G75*
G03X01334I00004J0D01*
G74*G01*
X01476Y03477D02*
D01*
D01*
G75*
G03X01467I-00004J0D01*
G74*G01*
D01*
G75*
G03X01476I00004J0D01*
G74*G01*
X03883Y04036D02*
D01*
D01*
G75*
G03X03874I-00004J0D01*
G74*G01*
D01*
G75*
G03X03883I00004J0D01*
G74*G01*
X04949Y03843D02*
D01*
D01*
G75*
G03X04939I-00004J0D01*
G74*G01*
D01*
G75*
G03X04949I00004J0D01*
G74*G01*
Y04083D02*
D01*
D01*
G75*
G03X04939I-00004J0D01*
G74*G01*
D01*
G75*
G03X04949I00004J0D01*
G74*G01*
X03366Y02784D02*
D01*
D01*
G75*
G03X03356I-00004J0D01*
G74*G01*
D01*
G75*
G03X03366I00004J0D01*
G74*G01*
X0474Y04489D02*
D01*
D01*
G75*
G03X0473I-00004J0D01*
G74*G01*
D01*
G75*
G03X0474I00004J0D01*
G74*G01*
X04739Y04337D02*
D01*
D01*
G75*
G03X04729I-00004J0D01*
G74*G01*
D01*
G75*
G03X04739I00004J0D01*
G74*G01*
X01447Y0387D02*
D01*
D01*
G75*
G03X01437I-00004J0D01*
G74*G01*
D01*
G75*
G03X01447I00004J0D01*
G74*G01*
X01286Y02422D02*
D01*
D01*
G75*
G03X01276I-00004J0D01*
G74*G01*
D01*
G75*
G03X01286I00004J0D01*
G74*G01*
X04495Y04522D02*
D01*
D01*
G75*
G03X04485I-00004J0D01*
G74*G01*
D01*
G75*
G03X04495I00004J0D01*
G74*G01*
X04344Y04683D02*
D01*
D01*
G75*
G03X04334I-00004J0D01*
G74*G01*
D01*
G75*
G03X04344I00004J0D01*
G74*G01*
G54D13*
X02126Y0501D02*
D01*
D01*
G75*
G03X02107I-00009J0D01*
G74*G01*
D01*
G75*
G03X02126I00009J0D01*
G74*G01*
X02729Y03052D02*
D01*
D01*
G75*
G03X02721I-00003J0D01*
G74*G01*
D01*
G75*
G03X02729I00003J0D01*
G74*G01*
X01016Y02089D02*
X01056D01*
X01047Y02113D02*
X01056Y02089D01*
X01016D02*
X01025Y02113D01*
X01232Y0253D02*
X01272D01*
X01263Y02506D02*
X01272Y0253D01*
X01232D02*
X01241Y02506D01*
X01277Y02113D02*
Y02506D01*
X00962Y02113D02*
Y02506D01*
X01263D02*
X01277D01*
X00962D02*
X01241D01*
X00962Y02113D02*
X01025D01*
X01047D02*
X01277D01*
X03582Y03335D02*
Y03354D01*
X03537Y03335D02*
Y03354D01*
X04568Y03935D02*
X04651D01*
X04568Y03911D02*
X04651D01*
Y03935*
X04568Y03911D02*
Y03935D01*
X03669Y02122D02*
Y02328D01*
Y02122D02*
X0408D01*
X03669Y02328D02*
X0408D01*
Y02122D02*
Y02328D01*
X00952Y03605D02*
X01239D01*
X00952Y04983D02*
X01239D01*
X00952Y03605D02*
Y04983D01*
X01239Y03605D02*
Y04983D01*
X0427Y04768D02*
X04303D01*
X04219Y04832D02*
Y04886D01*
X04534Y04832D02*
Y04886D01*
X04449Y04768D02*
X04483D01*
X03586Y03023D02*
X03594D01*
X03586Y02996D02*
X03594D01*
X03586Y02963D02*
X03593D01*
X03586Y02936D02*
X03593D01*
X03706Y02903D02*
X03713D01*
X03706Y02876D02*
X03713D01*
X03586Y02783D02*
X03594D01*
X03586Y02756D02*
X03594D01*
X03586Y02723D02*
X03594D01*
X03586Y02696D02*
X03594D01*
X03302Y02525D02*
Y02533D01*
X03274Y02525D02*
Y02533D01*
X03238Y02525D02*
Y02533D01*
X03211Y02525D02*
Y02533D01*
X03175Y02525D02*
Y02533D01*
X03147Y02525D02*
Y02533D01*
X02864Y02931D02*
Y02938D01*
X02837Y02931D02*
Y02938D01*
X01506Y03583D02*
Y03626D01*
X01723Y03583D02*
Y03626D01*
X02076Y03665D02*
Y0369D01*
Y03549D02*
Y03574D01*
X01816Y03749D02*
X02017D01*
X01816Y0349D02*
X02017D01*
X01816Y03665D02*
Y03749D01*
Y0349D02*
Y0357D01*
X02017Y0349D02*
X02076Y03549D01*
X02017Y03749D02*
X02076Y0369D01*
X02002Y03374D02*
X02037D01*
X02002Y03205D02*
X02037D01*
X01754Y03036D02*
X01868D01*
X01541D02*
X01659D01*
X01868D02*
Y03284D01*
X01541Y03036D02*
Y03284D01*
X0175Y03363D02*
X01789D01*
X0162D02*
X01659D01*
X01789D02*
X01868Y03284D01*
X01541D02*
X0162Y03363D01*
X0135Y02719D02*
Y02744D01*
Y02835D02*
Y0286D01*
X01409Y0266D02*
X01609D01*
X01409Y02919D02*
X01609D01*
Y0266D02*
Y02744D01*
Y02839D02*
Y02919D01*
X0135Y0286D02*
X01409Y02919D01*
X0135Y02719D02*
X01409Y0266D01*
X01411Y02594D02*
X01518D01*
X01411Y02475D02*
X01518D01*
X03356Y03335D02*
Y03343D01*
X03383Y03335D02*
Y03343D01*
X0377Y03342D02*
Y03357D01*
X03729Y03342D02*
Y03357D01*
X01265Y03307D02*
Y03433D01*
X01461Y03307D02*
Y03433D01*
X01265Y03307D02*
X01461D01*
X01265Y03433D02*
X01461D01*
X03924Y0383D02*
Y04026D01*
X04046Y0383D02*
Y04026D01*
X03924D02*
X04046D01*
X03924Y0383D02*
X04046D01*
X04693Y03686D02*
X04927D01*
X04693D02*
Y039D01*
X04927*
Y03686D02*
Y039D01*
X04693Y03926D02*
X04927D01*
X04693D02*
Y0414D01*
X04927*
Y03926D02*
Y0414D01*
X01749Y02379D02*
X03127D01*
X01749Y02092D02*
X03127D01*
X01749D02*
Y02379D01*
X03127Y02092D02*
Y02379D01*
X03317Y02798D02*
Y03042D01*
X03073Y02798D02*
Y03042D01*
Y02798D02*
X03317D01*
X03073Y03042D02*
X03317D01*
X03586Y03116D02*
X03593D01*
X03586Y03143D02*
X03593D01*
X04873Y03431D02*
Y03438D01*
X04846Y03431D02*
Y03438D01*
X03821Y03056D02*
X03828D01*
X03821Y03083D02*
X03828D01*
X0382Y02876D02*
X03828D01*
X0382Y02903D02*
X03828D01*
X03705Y02816D02*
X03713D01*
X03705Y02843D02*
X03713D01*
X03706Y02636D02*
X03713D01*
X03706Y02663D02*
X03713D01*
X04096Y04583D02*
X04104D01*
X04096Y04512D02*
X04104D01*
X04049Y04583D02*
X04057D01*
X04049Y04512D02*
X04057D01*
X04104D02*
Y04583D01*
X04049Y04512D02*
Y04583D01*
X0481Y045D02*
Y04532D01*
X0477Y045D02*
X0481D01*
Y04587D02*
Y04619D01*
X0477D02*
X0481D01*
X04809Y04348D02*
Y0438D01*
X04769Y04348D02*
X04809D01*
Y04435D02*
Y04467D01*
X04769D02*
X04809D01*
X01445Y03628D02*
Y03844D01*
X01334Y03628D02*
Y03844D01*
X01436D02*
X01445D01*
X01436Y03628D02*
X01445D01*
X01334Y03844D02*
X01343D01*
X01334Y03628D02*
X01343D01*
X01523Y02314D02*
Y02323D01*
X01306Y02314D02*
Y02323D01*
X01523Y02416D02*
Y02425D01*
X01306Y02416D02*
Y02425D01*
Y02314D02*
X01523D01*
X01306Y02425D02*
X01523D01*
X04287Y04472D02*
Y04497D01*
X04312*
X04287Y04288D02*
Y04313D01*
Y04288D02*
X04312D01*
X04471D02*
X04496D01*
Y04313*
Y04472D02*
Y04497D01*
X04471D02*
X04496D01*
X04393Y04586D02*
Y04669D01*
X04369Y04586D02*
Y04669D01*
Y04586D02*
X04393D01*
X04369Y04669D02*
X04393D01*
X04786Y03431D02*
Y03438D01*
X04813Y03431D02*
Y03438D01*
G54D14*
X01319Y03054D02*
D01*
D01*
G75*
G03X01315I-00002J0D01*
G74*G01*
D01*
G75*
G03X01319I00002J0D01*
G74*G01*
X04059Y0449D02*
D01*
D01*
G75*
G03X04055I-00002J0D01*
G74*G01*
D01*
G75*
G03X04059I00002J0D01*
G74*G01*
G54D15*
X03815Y04765D02*
D01*
D01*
G75*
G03X03715I-00050J0D01*
G74*G01*
D01*
G75*
G03X03815I00050J0D01*
G74*G01*
Y04335D02*
D01*
D01*
G75*
G03X03715I-00050J0D01*
G74*G01*
D01*
G75*
G03X03815I00050J0D01*
G74*G01*
X02484Y03874D02*
X02488D01*
Y03926*
X02386D02*
X02488D01*
X02386Y03874D02*
Y03926D01*
Y03874D02*
X02484D01*
X03779Y03153D02*
X03878D01*
Y03107D02*
Y03153D01*
X03772Y03107D02*
X03878D01*
X03772D02*
Y03153D01*
X03779*
X02921Y04926D02*
X02925D01*
X02921Y04874D02*
Y04926D01*
Y04874D02*
X03023D01*
Y04926*
X02925D02*
X03023D01*
X03657Y02927D02*
X03756D01*
X03657D02*
Y02973D01*
X03762*
Y02927D02*
Y02973D01*
X03756Y02927D02*
X03762D01*
X03537Y03167D02*
X03636D01*
X03537D02*
Y03213D01*
X03642*
Y03167D02*
Y03213D01*
X03636Y03167D02*
X03642D01*
X03636Y02807D02*
X03642D01*
Y02853*
X03537D02*
X03642D01*
X03537Y02807D02*
Y02853D01*
Y02807D02*
X03636D01*
X03278Y03292D02*
Y03391D01*
X03232Y03292D02*
X03278D01*
X03232D02*
Y03397D01*
X03278*
Y03391D02*
Y03397D01*
X03223Y03291D02*
Y0339D01*
X03177Y03291D02*
X03223D01*
X03177D02*
Y03397D01*
X03223*
Y0339D02*
Y03397D01*
X03067Y03299D02*
Y03398D01*
X03113*
Y03292D02*
Y03398D01*
X03067Y03292D02*
X03113D01*
X03067D02*
Y03299D01*
X02917Y02974D02*
Y03073D01*
X02963*
Y02967D02*
Y03073D01*
X02917Y02967D02*
X02963D01*
X02917D02*
Y02974D01*
X01316Y02978D02*
Y03042D01*
Y02978D02*
X01504D01*
Y03042*
X01316D02*
X01504D01*
X04011Y02447D02*
X04018D01*
Y02493*
X03912D02*
X04018D01*
X03912Y02447D02*
Y02493D01*
Y02447D02*
X04011D01*
X0183Y04798D02*
X01835D01*
X0183Y04763D02*
Y04798D01*
Y04752D02*
Y04763D01*
Y04752D02*
X0194D01*
Y04798*
X01835D02*
X0194D01*
X01937Y04814D02*
X01941D01*
Y04866*
X01839D02*
X01941D01*
X01839Y04814D02*
Y04866D01*
Y04814D02*
X01937D01*
X02063Y04976D02*
Y04982D01*
X02017D02*
X02063D01*
X02017Y04877D02*
Y04982D01*
Y04877D02*
X02063D01*
Y04976*
X0302Y04817D02*
X03027D01*
Y04863*
X02921D02*
X03027D01*
X02921Y04817D02*
Y04863D01*
Y04817D02*
X0302D01*
X02921Y04806D02*
X02925D01*
X02921Y04754D02*
Y04806D01*
Y04754D02*
X03023D01*
Y04806*
X02925D02*
X03023D01*
X01883Y04976D02*
Y04982D01*
X01837D02*
X01883D01*
X01837Y04877D02*
Y04982D01*
Y04877D02*
X01883D01*
Y04976*
X01943D02*
Y04982D01*
X01897D02*
X01943D01*
X01897Y04877D02*
Y04982D01*
Y04877D02*
X01943D01*
Y04976*
X02003D02*
Y04982D01*
X01957D02*
X02003D01*
X01957Y04877D02*
Y04982D01*
Y04877D02*
X02003D01*
Y04976*
X0367Y04685D02*
Y0484D01*
X03725Y0488D02*
X0382D01*
X0387Y04686D02*
Y0484D01*
X03725Y04655D02*
X0382D01*
X0367Y04255D02*
Y0441D01*
X03725Y0445D02*
X0382D01*
X0387Y04256D02*
Y0441D01*
X03725Y04225D02*
X0382D01*
X03644Y03992D02*
Y03996D01*
Y03992D02*
X03696D01*
Y04094*
X03644D02*
X03696D01*
X03644Y03996D02*
Y04094D01*
X03772Y03875D02*
Y03882D01*
Y03875D02*
X03818D01*
Y03981*
X03772D02*
X03818D01*
X03772Y03882D02*
Y03981D01*
X03712Y03875D02*
Y03882D01*
Y03875D02*
X03758D01*
Y03981*
X03712D02*
X03758D01*
X03712Y03882D02*
Y03981D01*
X03709Y03992D02*
Y03996D01*
Y03992D02*
X03761D01*
Y04094*
X03709D02*
X03761D01*
X03709Y03996D02*
Y04094D01*
X03821Y0386D02*
Y03864D01*
X03769D02*
X03821D01*
X03769Y03762D02*
Y03864D01*
Y03762D02*
X03821D01*
Y0386*
X04217Y03755D02*
Y03762D01*
Y03755D02*
X04263D01*
Y03861*
X04217D02*
X04263D01*
X04217Y03762D02*
Y03861D01*
X04201Y0408D02*
Y04084D01*
X04149D02*
X04201D01*
X04149Y03982D02*
Y04084D01*
Y03982D02*
X04201D01*
Y0408*
X04289Y03814D02*
Y03818D01*
Y03814D02*
X04341D01*
Y03916*
X04289D02*
X04341D01*
X04289Y03818D02*
Y03916D01*
Y03927D02*
Y03931D01*
Y03927D02*
X04341D01*
Y04029*
X04289D02*
X04341D01*
X04289Y03931D02*
Y04029D01*
X04452Y03867D02*
X04456D01*
Y03919*
X04354D02*
X04456D01*
X04354Y03867D02*
Y03919D01*
Y03867D02*
X04452D01*
X04467Y03816D02*
Y03822D01*
Y03816D02*
X04513D01*
Y03921*
X04467D02*
X04513D01*
X04467Y03822D02*
Y03921D01*
X03818Y04089D02*
Y04096D01*
X03772D02*
X03818D01*
X03772Y0399D02*
Y04096D01*
Y0399D02*
X03818D01*
Y04089*
X04266Y0408D02*
Y04084D01*
X04214D02*
X04266D01*
X04214Y03982D02*
Y04084D01*
Y03982D02*
X04266D01*
Y0408*
Y0397D02*
Y03974D01*
X04214D02*
X04266D01*
X04214Y03872D02*
Y03974D01*
Y03872D02*
X04266D01*
Y0397*
X04452Y03927D02*
X04456D01*
Y03979*
X04354D02*
X04456D01*
X04354Y03927D02*
Y03979D01*
Y03927D02*
X04452D01*
X04467Y03925D02*
Y03932D01*
Y03925D02*
X04513D01*
Y04031*
X04467D02*
X04513D01*
X04467Y03932D02*
Y04031D01*
X04092Y04143D02*
X04099D01*
X04092Y04097D02*
Y04143D01*
Y04097D02*
X04198D01*
Y04143*
X04099D02*
X04198D01*
X03333Y03391D02*
Y03397D01*
X03287D02*
X03333D01*
X03287Y03292D02*
Y03397D01*
Y03292D02*
X03333D01*
Y03391*
X03537Y02913D02*
X03544D01*
X03537Y02867D02*
Y02913D01*
Y02867D02*
X03643D01*
Y02913*
X03544D02*
X03643D01*
X03636Y03047D02*
X03642D01*
Y03093*
X03537D02*
X03642D01*
X03537Y03047D02*
Y03093D01*
Y03047D02*
X03636D01*
X03657Y02987D02*
X03756D01*
X03657D02*
Y03033D01*
X03762*
Y02987D02*
Y03033D01*
X03756Y02987D02*
X03762D01*
X03708Y03391D02*
Y03397D01*
X03662D02*
X03708D01*
X03662Y03292D02*
Y03397D01*
Y03292D02*
X03708D01*
Y03391*
X02637Y02881D02*
Y02888D01*
Y02881D02*
X02683D01*
Y02987*
X02637D02*
X02683D01*
X02637Y02888D02*
Y02987D01*
X02693Y02878D02*
X02699D01*
X02693Y02832D02*
Y02878D01*
Y02832D02*
X02798D01*
Y02878*
X02699D02*
X02798D01*
X03653Y0339D02*
Y03397D01*
X03607D02*
X03653D01*
X03607Y03291D02*
Y03397D01*
Y03291D02*
X03653D01*
Y0339*
X03467Y03291D02*
Y03298D01*
Y03291D02*
X03513D01*
Y03397*
X03467D02*
X03513D01*
X03467Y03298D02*
Y03397D01*
X03407Y03291D02*
Y03298D01*
Y03291D02*
X03453D01*
Y03397*
X03407D02*
X03453D01*
X03407Y03298D02*
Y03397D01*
X03168Y03391D02*
Y03397D01*
X03122D02*
X03168D01*
X03122Y03292D02*
Y03397D01*
Y03292D02*
X03168D01*
Y03391*
X04218Y04421D02*
X04222D01*
Y04473*
X0412D02*
X04222D01*
X0412Y04421D02*
Y04473D01*
Y04421D02*
X04218D01*
X04112Y04364D02*
X04217D01*
X04112D02*
Y0441D01*
X04222*
Y04399D02*
Y0441D01*
Y04364D02*
Y04399D01*
X04217Y04364D02*
X04222D01*
X04124Y04353D02*
X04222D01*
Y04301D02*
Y04353D01*
X0412Y04301D02*
X04222D01*
X0412D02*
Y04353D01*
X04124*
X0487Y0454D02*
Y04638D01*
X04922*
Y04536D02*
Y04638D01*
X0487Y04536D02*
X04922D01*
X0487D02*
Y0454D01*
Y0439D02*
Y04488D01*
X04922*
Y04386D02*
Y04488D01*
X0487Y04386D02*
X04922D01*
X0487D02*
Y0439D01*
X0462Y04515D02*
Y04613D01*
X04672*
Y04511D02*
Y04613D01*
X0462Y04511D02*
X04672D01*
X0462D02*
Y04515D01*
Y04363D02*
Y04461D01*
X04672*
Y04359D02*
Y04461D01*
X0462Y04359D02*
X04672D01*
X0462D02*
Y04363D01*
X03076Y04866D02*
Y04871D01*
Y04866D02*
X03111D01*
X03122*
Y04976*
X03076D02*
X03122D01*
X03076Y04871D02*
Y04976D01*
X03215Y04972D02*
Y04976D01*
X03163D02*
X03215D01*
X03163Y04874D02*
Y04976D01*
Y04874D02*
X03215D01*
Y04972*
X0325Y04866D02*
Y04871D01*
Y04866D02*
X03285D01*
X03296*
Y04976*
X0325D02*
X03296D01*
X0325Y04871D02*
Y04976D01*
X03389Y04972D02*
Y04976D01*
X03337D02*
X03389D01*
X03337Y04874D02*
Y04976D01*
Y04874D02*
X03389D01*
Y04972*
X03424Y04866D02*
Y04871D01*
Y04866D02*
X03459D01*
X0347*
Y04976*
X03424D02*
X0347D01*
X03424Y04871D02*
Y04976D01*
X03562Y04972D02*
Y04976D01*
X0351D02*
X03562D01*
X0351Y04874D02*
Y04976D01*
Y04874D02*
X03562D01*
Y04972*
X01255Y03537D02*
X01354D01*
X01255D02*
Y03583D01*
X01361*
Y03537D02*
Y03583D01*
X01354Y03537D02*
X01361D01*
X01184Y03263D02*
Y03361D01*
X01236*
Y03259D02*
Y03361D01*
X01184Y03259D02*
X01236D01*
X01184D02*
Y03263D01*
Y03383D02*
Y03481D01*
X01236*
Y03379D02*
Y03481D01*
X01184Y03379D02*
X01236D01*
X01184D02*
Y03383D01*
X01318Y03073D02*
X01417D01*
X01318D02*
Y03119D01*
X01424*
Y03073D02*
Y03119D01*
X01417Y03073D02*
X01424D01*
X0099Y03465D02*
X01088D01*
Y03413D02*
Y03465D01*
X00986Y03413D02*
X01088D01*
X00986D02*
Y03465D01*
X0099*
X00983Y03487D02*
X01088D01*
X00983D02*
Y03533D01*
X01093*
Y03522D02*
Y03533D01*
Y03487D02*
Y03522D01*
X01088Y03487D02*
X01093D01*
X04224Y04583D02*
Y0459D01*
X04178D02*
X04224D01*
X04178Y04484D02*
Y0459D01*
Y04484D02*
X04224D01*
Y04583*
X04169D02*
Y0459D01*
X04123D02*
X04169D01*
X04123Y04484D02*
Y0459D01*
Y04484D02*
X04169D01*
Y04583*
X04656Y03831D02*
X04666D01*
X04661*
Y03861*
X04656Y03856*
Y04071D02*
X04666D01*
X04661*
Y04101*
X04656Y04096*
X01186Y02631D02*
X01206D01*
X01196Y02641D02*
Y02621D01*
X01216Y02616D02*
X01226D01*
X01221*
Y02646*
X01216Y02641*
X01261Y02616D02*
X01241D01*
X01261Y02636*
Y02641*
X01256Y02646*
X01246*
X01241Y02641*
X01206Y02946D02*
X01201Y02951D01*
X01191*
X01186Y02946*
Y02926*
X01191Y02921*
X01201*
X01206Y02926*
Y02936*
X01196*
X01216Y02921D02*
Y02951D01*
X01236Y02921*
Y02951*
X01246D02*
Y02921D01*
X01261*
X01266Y02926*
Y02946*
X01261Y02951*
X01246*
X01186Y02732D02*
X01206D01*
X01196Y02742D02*
Y02722D01*
X01236Y02747D02*
X01216D01*
Y02732*
X01226Y02737*
X01231*
X01236Y02732*
Y02722*
X01231Y02717*
X01221*
X01216Y02722*
X01093Y03083D02*
X01088Y03088D01*
X01078*
X01073Y03083*
Y03063*
X01078Y03058*
X01088*
X01093Y03063*
Y03073*
X01083*
X01103Y03058D02*
Y03088D01*
X01123Y03058*
Y03088*
X01133D02*
Y03058D01*
X01148*
X01153Y03063*
Y03083*
X01148Y03088*
X01133*
X01098Y03358D02*
X01093Y03363D01*
X01083*
X01078Y03358*
Y03338*
X01083Y03333*
X01093*
X01098Y03338*
Y03348*
X01088*
X01108Y03333D02*
Y03363D01*
X01128Y03333*
Y03363*
X01138D02*
Y03333D01*
X01153*
X01158Y03338*
Y03358*
X01153Y03363*
X01138*
X00984Y03362D02*
X01004D01*
X00994*
Y03332*
X01014Y03362D02*
X01034Y03332D01*
Y03362D02*
X01014Y03332D01*
X00981Y03056D02*
Y03086D01*
X00996*
X01001Y03081*
Y03071*
X00996Y03066*
X00981*
X00991D02*
X01001Y03056D01*
X01011Y03086D02*
X01031Y03056D01*
Y03086D02*
X01011Y03056D01*
X01206Y02844D02*
X01201Y02849D01*
X01191*
X01186Y02844*
Y02824*
X01191Y02819*
X01201*
X01206Y02824*
Y02834*
X01196*
X01216Y02819D02*
Y02849D01*
X01236Y02819*
Y02849*
X01246D02*
Y02819D01*
X01261*
X01266Y02824*
Y02844*
X01261Y02849*
X01246*
X00922Y02373D02*
X00942D01*
X00952Y02383*
X00942Y02393*
X00922*
X00927Y02423D02*
X00922Y02418D01*
Y02408*
X00927Y02403*
X00947*
X00952Y02408*
Y02418*
X00947Y02423*
X00927Y02453D02*
X00922Y02448D01*
Y02438*
X00927Y02433*
X00947*
X00952Y02438*
Y02448*
X00947Y02453*
X00929Y02186D02*
X00924Y02181D01*
Y02171*
X00929Y02166*
X00949*
X00954Y02171*
Y02181*
X00949Y02186*
X00939*
Y02176*
X00954Y02196D02*
X00924D01*
X00954Y02216*
X00924*
Y02226D02*
X00954D01*
Y02241*
X00949Y02246*
X00929*
X00924Y02241*
Y02226*
X00956Y02531D02*
Y02561D01*
X00971*
X00976Y02556*
Y02546*
X00971Y02541*
X00956*
X00986Y02561D02*
Y02531D01*
X00996Y02541*
X01006Y02531*
Y02561*
X01016Y02531D02*
Y02561D01*
X01031*
X01036Y02556*
Y02546*
X01031Y02541*
X01016*
X01026D02*
X01036Y02531D01*
X04771Y04731D02*
X04766Y04736D01*
X04756*
X04751Y04731*
Y04711*
X04756Y04706*
X04766*
X04771Y04711*
Y04721*
X04761*
X04781Y04706D02*
Y04736D01*
X04801Y04706*
Y04736*
X04811D02*
Y04706D01*
X04826*
X04831Y04711*
Y04731*
X04826Y04736*
X04811*
X01631Y04771D02*
X01636Y04776D01*
X01646*
X01651Y04771*
Y04766*
X01646Y04761*
X01641*
X01646*
X01651Y04756*
Y04751*
X01646Y04746*
X01636*
X01631Y04751*
X01661Y04776D02*
Y04756D01*
X01671Y04746*
X01681Y04756*
Y04776*
X01691Y04771D02*
X01696Y04776D01*
X01706*
X01711Y04771*
Y04766*
X01706Y04761*
X01701*
X01706*
X01711Y04756*
Y04751*
X01706Y04746*
X01696*
X01691Y04751*
X01426Y04776D02*
X01421Y04781D01*
X01411*
X01406Y04776*
Y04756*
X01411Y04751*
X01421*
X01426Y04756*
Y04766*
X01416*
X01436Y04751D02*
Y04781D01*
X01456Y04751*
Y04781*
X01466D02*
Y04751D01*
X01481*
X01486Y04756*
Y04776*
X01481Y04781*
X01466*
X01926Y02501D02*
X01936D01*
X01931*
Y02531*
X01926Y02526*
X01971Y02501D02*
X01951D01*
X01971Y02521*
Y02526*
X01966Y02531*
X01956*
X01951Y02526*
X01981Y02531D02*
Y02511D01*
X01991Y02501*
X02001Y02511*
Y02531*
X02011Y02496D02*
X02031D01*
X02041Y02531D02*
Y02501D01*
Y02516*
X02061*
Y02531*
Y02501*
X01946Y02831D02*
X01926D01*
Y02816*
X01936Y02821*
X01941*
X01946Y02816*
Y02806*
X01941Y02801*
X01931*
X01926Y02806*
X01956Y02831D02*
Y02811D01*
X01966Y02801*
X01976Y02811*
Y02831*
X01986Y02796D02*
X02006D01*
X02016Y02831D02*
Y02801D01*
Y02816*
X02036*
Y02831*
Y02801*
X01596Y02171D02*
X01591Y02176D01*
X01581*
X01576Y02171*
Y02151*
X01581Y02146*
X01591*
X01596Y02151*
Y02161*
X01586*
X01606Y02146D02*
Y02176D01*
X01626Y02146*
Y02176*
X01636D02*
Y02146D01*
X01651*
X01656Y02151*
Y02171*
X01651Y02176*
X01636*
X03286Y02156D02*
X03281Y02161D01*
X03271*
X03266Y02156*
Y02136*
X03271Y02131*
X03281*
X03286Y02136*
Y02146*
X03276*
X03296Y02131D02*
Y02161D01*
X03316Y02131*
Y02161*
X03326D02*
Y02131D01*
X03341*
X03346Y02136*
Y02156*
X03341Y02161*
X03326*
X04481Y02156D02*
X04476Y02161D01*
X04466*
X04461Y02156*
Y02136*
X04466Y02131*
X04476*
X04481Y02136*
Y02146*
X04471*
X04491Y02131D02*
Y02161D01*
X04511Y02131*
Y02161*
X04521D02*
Y02131D01*
X04536*
X04541Y02136*
Y02156*
X04536Y02161*
X04521*
X04121Y02186D02*
X04126Y02191D01*
X04136*
X04141Y02186*
Y02181*
X04136Y02176*
X04131*
X04136*
X04141Y02171*
Y02166*
X04136Y02161*
X04126*
X04121Y02166*
X04151Y02191D02*
Y02171D01*
X04161Y02161*
X04171Y02171*
Y02191*
X04181Y02186D02*
X04186Y02191D01*
X04196*
X04201Y02186*
Y02181*
X04196Y02176*
X04191*
X04196*
X04201Y02171*
Y02166*
X04196Y02161*
X04186*
X04181Y02166*
X04141Y02281D02*
X04136Y02286D01*
X04126*
X04121Y02281*
Y02261*
X04126Y02256*
X04136*
X04141Y02261*
Y02271*
X04131*
X04151Y02256D02*
Y02286D01*
X04171Y02256*
Y02286*
X04181D02*
Y02256D01*
X04196*
X04201Y02261*
Y02281*
X04196Y02286*
X04181*
X04046Y04246D02*
X04041Y04251D01*
X04031*
X04026Y04246*
Y04241*
X04031Y04236*
X04041*
X04046Y04231*
Y04226*
X04041Y04221*
X04031*
X04026Y04226*
X04056Y04251D02*
Y04226D01*
X04061Y04221*
X04071*
X04076Y04226*
Y04251*
X04086Y04221D02*
Y04251D01*
X04101*
X04106Y04246*
Y04236*
X04101Y04231*
X04086*
X04116Y04221D02*
Y04251D01*
X04131*
X04136Y04246*
Y04236*
X04131Y04231*
X04116*
X04166Y04251D02*
X04146D01*
Y04221*
X04166*
X04146Y04236D02*
X04156D01*
X04176Y04221D02*
Y04251D01*
X04195Y04221*
Y04251*
X04205D02*
Y04221D01*
X0422*
X04225Y04226*
Y04246*
X0422Y04251*
X04205*
X04265D02*
Y04221D01*
X04285*
X04315Y04251D02*
X04295D01*
Y04221*
X04315*
X04295Y04236D02*
X04305D01*
X04325Y04251D02*
Y04221D01*
X0434*
X04345Y04226*
Y04246*
X0434Y04251*
X04325*
X03701Y04946D02*
Y04976D01*
X03716*
X03721Y04971*
Y04961*
X03716Y04956*
X03701*
X03711D02*
X03721Y04946D01*
X03751Y04976D02*
X03731D01*
Y04946*
X03751*
X03731Y04961D02*
X03741D01*
X03781Y04971D02*
X03776Y04976D01*
X03766*
X03761Y04971*
Y04966*
X03766Y04961*
X03776*
X03781Y04956*
Y04951*
X03776Y04946*
X03766*
X03761Y04951*
X03811Y04976D02*
X03791D01*
Y04946*
X03811*
X03791Y04961D02*
X03801D01*
X03821Y04976D02*
X03841D01*
X03831*
Y04946*
X03711Y04546D02*
X03706Y04551D01*
X03696*
X03691Y04546*
Y04526*
X03696Y04521*
X03706*
X03711Y04526*
Y04536*
X03701*
X03721Y04521D02*
Y04551D01*
X03736*
X03741Y04546*
Y04536*
X03736Y04531*
X03721*
X03751Y04551D02*
X03761D01*
X03756*
Y04521*
X03751*
X03761*
X03791Y04551D02*
X03781D01*
X03776Y04546*
Y04526*
X03781Y04521*
X03791*
X03796Y04526*
Y04546*
X03791Y04551*
X03836Y04546D02*
X03841Y04551D01*
X0385*
X03855Y04546*
Y04526*
X0385Y04521*
X03841*
X03836Y04526*
Y04546*
X03434Y04611D02*
X03429Y04606D01*
Y04596*
X03434Y04591*
X03454*
X03459Y04596*
Y04606*
X03454Y04611*
X03444*
Y04601*
X03459Y04621D02*
X03429D01*
Y04636*
X03434Y04641*
X03444*
X03449Y04636*
Y04621*
X03429Y04651D02*
Y04661D01*
Y04656*
X03459*
Y04651*
Y04661*
X03429Y04691D02*
Y04681D01*
X03434Y04676*
X03454*
X03459Y04681*
Y04691*
X03454Y04696*
X03434*
X03429Y04691*
X03459Y0475D02*
X03429D01*
X03444Y04736*
Y04755*
X03434Y04765D02*
X03429Y0477D01*
Y0478*
X03434Y04785*
X03454*
X03459Y0478*
Y0477*
X03454Y04765*
X03434*
X03262Y04616D02*
X03257Y04611D01*
Y04601*
X03262Y04596*
X03282*
X03287Y04601*
Y04611*
X03282Y04616*
X03272*
Y04606*
X03287Y04626D02*
X03257D01*
Y04641*
X03262Y04646*
X03272*
X03277Y04641*
Y04626*
X03257Y04656D02*
Y04666D01*
Y04661*
X03287*
Y04656*
Y04666*
X03257Y04696D02*
Y04686D01*
X03262Y04681*
X03282*
X03287Y04686*
Y04696*
X03282Y04701*
X03262*
X03257Y04696*
X03287Y04755D02*
X03257D01*
X03272Y04741*
Y0476*
X03257Y0479D02*
Y0477D01*
X03272*
X03267Y0478*
Y04785*
X03272Y0479*
X03282*
X03287Y04785*
Y04775*
X03282Y0477*
X03092Y04611D02*
X03087Y04606D01*
Y04596*
X03092Y04591*
X03112*
X03117Y04596*
Y04606*
X03112Y04611*
X03102*
Y04601*
X03117Y04621D02*
X03087D01*
Y04636*
X03092Y04641*
X03102*
X03107Y04636*
Y04621*
X03087Y04651D02*
Y04661D01*
Y04656*
X03117*
Y04651*
Y04661*
X03087Y04691D02*
Y04681D01*
X03092Y04676*
X03112*
X03117Y04681*
Y04691*
X03112Y04696*
X03092*
X03087Y04691*
X03117Y04736D02*
Y04746D01*
Y04741*
X03087*
X03092Y04736*
X02092Y02486D02*
X02087Y02481D01*
Y02471*
X02092Y02466*
X02112*
X02117Y02471*
Y02481*
X02112Y02486*
X02102*
Y02476*
X02117Y02496D02*
X02087D01*
Y02511*
X02092Y02516*
X02102*
X02107Y02511*
Y02496*
X02087Y02526D02*
Y02536D01*
Y02531*
X02117*
Y02526*
Y02536*
X02087Y02566D02*
Y02556D01*
X02092Y02551*
X02112*
X02117Y02556*
Y02566*
X02112Y02571*
X02092*
X02087Y02566*
X02117Y02611D02*
Y0262D01*
Y02616*
X02087*
X02092Y02611*
X02117Y02655D02*
Y02635D01*
X02097Y02655*
X02092*
X02087Y0265*
Y0264*
X02092Y02635*
X02152Y02486D02*
X02147Y02481D01*
Y02471*
X02152Y02466*
X02172*
X02177Y02471*
Y02481*
X02172Y02486*
X02162*
Y02476*
X02177Y02496D02*
X02147D01*
Y02511*
X02152Y02516*
X02162*
X02167Y02511*
Y02496*
X02147Y02526D02*
Y02536D01*
Y02531*
X02177*
Y02526*
Y02536*
X02147Y02566D02*
Y02556D01*
X02152Y02551*
X02172*
X02177Y02556*
Y02566*
X02172Y02571*
X02152*
X02147Y02566*
X02177Y02611D02*
Y0262D01*
Y02616*
X02147*
X02152Y02611*
Y02635D02*
X02147Y0264D01*
Y0265*
X02152Y02655*
X02157*
X02162Y0265*
Y02645*
Y0265*
X02167Y02655*
X02172*
X02177Y0265*
Y0264*
X02172Y02635*
X02212Y02486D02*
X02207Y02481D01*
Y02471*
X02212Y02466*
X02232*
X02237Y02471*
Y02481*
X02232Y02486*
X02222*
Y02476*
X02237Y02496D02*
X02207D01*
Y02511*
X02212Y02516*
X02222*
X02227Y02511*
Y02496*
X02207Y02526D02*
Y02536D01*
Y02531*
X02237*
Y02526*
Y02536*
X02207Y02566D02*
Y02556D01*
X02212Y02551*
X02232*
X02237Y02556*
Y02566*
X02232Y02571*
X02212*
X02207Y02566*
X02237Y02611D02*
Y0262D01*
Y02616*
X02207*
X02212Y02611*
X02237Y0265D02*
X02207D01*
X02222Y02635*
Y02655*
X02393Y02486D02*
X02388Y02481D01*
Y02471*
X02393Y02466*
X02413*
X02418Y02471*
Y02481*
X02413Y02486*
X02403*
Y02476*
X02418Y02496D02*
X02388D01*
Y02511*
X02393Y02516*
X02403*
X02408Y02511*
Y02496*
X02388Y02526D02*
Y02536D01*
Y02531*
X02418*
Y02526*
Y02536*
X02388Y02566D02*
Y02556D01*
X02393Y02551*
X02413*
X02418Y02556*
Y02566*
X02413Y02571*
X02393*
X02388Y02566*
X02418Y02611D02*
Y0262D01*
Y02616*
X02388*
X02393Y02611*
X02413Y02635D02*
X02418Y0264D01*
Y0265*
X02413Y02655*
X02393*
X02388Y0265*
Y0264*
X02393Y02635*
X02398*
X02403Y0264*
Y02655*
X02333Y02486D02*
X02328Y02481D01*
Y02471*
X02333Y02466*
X02353*
X02358Y02471*
Y02481*
X02353Y02486*
X02343*
Y02476*
X02358Y02496D02*
X02328D01*
Y02511*
X02333Y02516*
X02343*
X02348Y02511*
Y02496*
X02328Y02526D02*
Y02536D01*
Y02531*
X02358*
Y02526*
Y02536*
X02328Y02566D02*
Y02556D01*
X02333Y02551*
X02353*
X02358Y02556*
Y02566*
X02353Y02571*
X02333*
X02328Y02566*
X02358Y02611D02*
Y0262D01*
Y02616*
X02328*
X02333Y02611*
X02328Y02655D02*
X02333Y02645D01*
X02343Y02635*
X02353*
X02358Y0264*
Y0265*
X02353Y02655*
X02348*
X02343Y0265*
Y02635*
X02272Y02486D02*
X02267Y02481D01*
Y02471*
X02272Y02466*
X02292*
X02297Y02471*
Y02481*
X02292Y02486*
X02282*
Y02476*
X02297Y02496D02*
X02267D01*
Y02511*
X02272Y02516*
X02282*
X02287Y02511*
Y02496*
X02267Y02526D02*
Y02536D01*
Y02531*
X02297*
Y02526*
Y02536*
X02267Y02566D02*
Y02556D01*
X02272Y02551*
X02292*
X02297Y02556*
Y02566*
X02292Y02571*
X02272*
X02267Y02566*
X02297Y02611D02*
Y0262D01*
Y02616*
X02267*
X02272Y02611*
X02267Y02655D02*
Y02635D01*
X02282*
X02277Y02645*
Y0265*
X02282Y02655*
X02292*
X02297Y0265*
Y0264*
X02292Y02635*
X02634Y02486D02*
X02629Y02481D01*
Y02471*
X02634Y02466*
X02654*
X02659Y02471*
Y02481*
X02654Y02486*
X02644*
Y02476*
X02659Y02496D02*
X02629D01*
Y02511*
X02634Y02516*
X02644*
X02649Y02511*
Y02496*
X02629Y02526D02*
Y02536D01*
Y02531*
X02659*
Y02526*
Y02536*
X02629Y02566D02*
Y02556D01*
X02634Y02551*
X02654*
X02659Y02556*
Y02566*
X02654Y02571*
X02634*
X02629Y02566*
X02634Y02611D02*
X02629Y02616D01*
Y02625*
X02634Y0263*
X02639*
X02644Y02625*
Y0262*
Y02625*
X02649Y0263*
X02654*
X02659Y02625*
Y02616*
X02654Y02611*
X02634Y0264D02*
X02629Y02645D01*
Y02655*
X02634Y0266*
X02639*
X02644Y02655*
Y0265*
Y02655*
X02649Y0266*
X02654*
X02659Y02655*
Y02645*
X02654Y0264*
X02573Y02486D02*
X02568Y02481D01*
Y02471*
X02573Y02466*
X02593*
X02598Y02471*
Y02481*
X02593Y02486*
X02583*
Y02476*
X02598Y02496D02*
X02568D01*
Y02511*
X02573Y02516*
X02583*
X02588Y02511*
Y02496*
X02568Y02526D02*
Y02536D01*
Y02531*
X02598*
Y02526*
Y02536*
X02568Y02566D02*
Y02556D01*
X02573Y02551*
X02593*
X02598Y02556*
Y02566*
X02593Y02571*
X02573*
X02568Y02566*
X02598Y0263D02*
Y02611D01*
X02578Y0263*
X02573*
X02568Y02625*
Y02616*
X02573Y02611*
X02568Y0266D02*
X02573Y0265D01*
X02583Y0264*
X02593*
X02598Y02645*
Y02655*
X02593Y0266*
X02588*
X02583Y02655*
Y0264*
X02513Y02486D02*
X02508Y02481D01*
Y02471*
X02513Y02466*
X02533*
X02538Y02471*
Y02481*
X02533Y02486*
X02523*
Y02476*
X02538Y02496D02*
X02508D01*
Y02511*
X02513Y02516*
X02523*
X02528Y02511*
Y02496*
X02508Y02526D02*
Y02536D01*
Y02531*
X02538*
Y02526*
Y02536*
X02508Y02566D02*
Y02556D01*
X02513Y02551*
X02533*
X02538Y02556*
Y02566*
X02533Y02571*
X02513*
X02508Y02566*
X02538Y0263D02*
Y02611D01*
X02518Y0263*
X02513*
X02508Y02625*
Y02616*
X02513Y02611*
X02538Y0264D02*
Y0265D01*
Y02645*
X02508*
X02513Y0264*
X02453Y02486D02*
X02448Y02481D01*
Y02471*
X02453Y02466*
X02473*
X02478Y02471*
Y02481*
X02473Y02486*
X02463*
Y02476*
X02478Y02496D02*
X02448D01*
Y02511*
X02453Y02516*
X02463*
X02468Y02511*
Y02496*
X02448Y02526D02*
Y02536D01*
Y02531*
X02478*
Y02526*
Y02536*
X02448Y02566D02*
Y02556D01*
X02453Y02551*
X02473*
X02478Y02556*
Y02566*
X02473Y02571*
X02453*
X02448Y02566*
X02478Y0263D02*
Y02611D01*
X02458Y0263*
X02453*
X02448Y02625*
Y02616*
X02453Y02611*
Y0264D02*
X02448Y02645D01*
Y02655*
X02453Y0266*
X02473*
X02478Y02655*
Y02645*
X02473Y0264*
X02453*
X01346Y04361D02*
X01341Y04366D01*
X01331*
X01326Y04361*
Y04341*
X01331Y04336*
X01341*
X01346Y04341*
Y04351*
X01336*
X01356Y04336D02*
Y04366D01*
X01371*
X01376Y04361*
Y04351*
X01371Y04346*
X01356*
X01386Y04366D02*
X01396D01*
X01391*
Y04336*
X01386*
X01396*
X01426Y04366D02*
X01416D01*
X01411Y04361*
Y04341*
X01416Y04336*
X01426*
X01431Y04341*
Y04361*
X01426Y04366*
X01471Y04361D02*
X01476Y04366D01*
X01485*
X0149Y04361*
Y04356*
X01485Y04351*
X0149Y04346*
Y04341*
X01485Y04336*
X01476*
X01471Y04341*
Y04346*
X01476Y04351*
X01471Y04356*
Y04361*
X01476Y04351D02*
X01485D01*
X01346Y04301D02*
X01341Y04306D01*
X01331*
X01326Y04301*
Y04281*
X01331Y04276*
X01341*
X01346Y04281*
Y04291*
X01336*
X01356Y04276D02*
Y04306D01*
X01371*
X01376Y04301*
Y04291*
X01371Y04286*
X01356*
X01386Y04306D02*
X01396D01*
X01391*
Y04276*
X01386*
X01396*
X01426Y04306D02*
X01416D01*
X01411Y04301*
Y04281*
X01416Y04276*
X01426*
X01431Y04281*
Y04301*
X01426Y04306*
X01471Y04281D02*
X01476Y04276D01*
X01485*
X0149Y04281*
Y04301*
X01485Y04306*
X01476*
X01471Y04301*
Y04296*
X01476Y04291*
X0149*
X01346Y04241D02*
X01341Y04246D01*
X01331*
X01326Y04241*
Y04221*
X01331Y04216*
X01341*
X01346Y04221*
Y04231*
X01336*
X01356Y04216D02*
Y04246D01*
X01371*
X01376Y04241*
Y04231*
X01371Y04226*
X01356*
X01386Y04246D02*
X01396D01*
X01391*
Y04216*
X01386*
X01396*
X01426Y04246D02*
X01416D01*
X01411Y04241*
Y04221*
X01416Y04216*
X01426*
X01431Y04221*
Y04241*
X01426Y04246*
X01471Y04216D02*
X0148D01*
X01476*
Y04246*
X01471Y04241*
X01495D02*
X015Y04246D01*
X0151*
X01515Y04241*
Y04221*
X0151Y04216*
X015*
X01495Y04221*
Y04241*
X01346Y04181D02*
X01341Y04186D01*
X01331*
X01326Y04181*
Y04161*
X01331Y04156*
X01341*
X01346Y04161*
Y04171*
X01336*
X01356Y04156D02*
Y04186D01*
X01371*
X01376Y04181*
Y04171*
X01371Y04166*
X01356*
X01386Y04186D02*
X01396D01*
X01391*
Y04156*
X01386*
X01396*
X01426Y04186D02*
X01416D01*
X01411Y04181*
Y04161*
X01416Y04156*
X01426*
X01431Y04161*
Y04181*
X01426Y04186*
X01471Y04156D02*
X0148D01*
X01476*
Y04186*
X01471Y04181*
X01495Y04156D02*
X01505D01*
X015*
Y04186*
X01495Y04181*
X01346Y04542D02*
X01341Y04547D01*
X01331*
X01326Y04542*
Y04522*
X01331Y04517*
X01341*
X01346Y04522*
Y04532*
X01336*
X01356Y04517D02*
Y04547D01*
X01371*
X01376Y04542*
Y04532*
X01371Y04527*
X01356*
X01386Y04547D02*
X01396D01*
X01391*
Y04517*
X01386*
X01396*
X01426Y04547D02*
X01416D01*
X01411Y04542*
Y04522*
X01416Y04517*
X01426*
X01431Y04522*
Y04542*
X01426Y04547*
X0149D02*
X01471D01*
Y04532*
X0148Y04537*
X01485*
X0149Y04532*
Y04522*
X01485Y04517*
X01476*
X01471Y04522*
X01346Y04482D02*
X01341Y04487D01*
X01331*
X01326Y04482*
Y04462*
X01331Y04457*
X01341*
X01346Y04462*
Y04472*
X01336*
X01356Y04457D02*
Y04487D01*
X01371*
X01376Y04482*
Y04472*
X01371Y04467*
X01356*
X01386Y04487D02*
X01396D01*
X01391*
Y04457*
X01386*
X01396*
X01426Y04487D02*
X01416D01*
X01411Y04482*
Y04462*
X01416Y04457*
X01426*
X01431Y04462*
Y04482*
X01426Y04487*
X0149D02*
X0148Y04482D01*
X01471Y04472*
Y04462*
X01476Y04457*
X01485*
X0149Y04462*
Y04467*
X01485Y04472*
X01471*
X01346Y04421D02*
X01341Y04426D01*
X01331*
X01326Y04421*
Y04401*
X01331Y04396*
X01341*
X01346Y04401*
Y04411*
X01336*
X01356Y04396D02*
Y04426D01*
X01371*
X01376Y04421*
Y04411*
X01371Y04406*
X01356*
X01386Y04426D02*
X01396D01*
X01391*
Y04396*
X01386*
X01396*
X01426Y04426D02*
X01416D01*
X01411Y04421*
Y04401*
X01416Y04396*
X01426*
X01431Y04401*
Y04421*
X01426Y04426*
X01471D02*
X0149D01*
Y04421*
X01471Y04401*
Y04396*
X01346Y04602D02*
X01341Y04607D01*
X01331*
X01326Y04602*
Y04582*
X01331Y04577*
X01341*
X01346Y04582*
Y04592*
X01336*
X01356Y04577D02*
Y04607D01*
X01371*
X01376Y04602*
Y04592*
X01371Y04587*
X01356*
X01386Y04607D02*
X01396D01*
X01391*
Y04577*
X01386*
X01396*
X01426Y04607D02*
X01416D01*
X01411Y04602*
Y04582*
X01416Y04577*
X01426*
X01431Y04582*
Y04602*
X01426Y04607*
X01485Y04577D02*
Y04607D01*
X01471Y04592*
X0149*
X01346Y04662D02*
X01341Y04667D01*
X01331*
X01326Y04662*
Y04642*
X01331Y04637*
X01341*
X01346Y04642*
Y04652*
X01336*
X01356Y04637D02*
Y04667D01*
X01371*
X01376Y04662*
Y04652*
X01371Y04647*
X01356*
X01386Y04667D02*
X01396D01*
X01391*
Y04637*
X01386*
X01396*
X01426Y04667D02*
X01416D01*
X01411Y04662*
Y04642*
X01416Y04637*
X01426*
X01431Y04642*
Y04662*
X01426Y04667*
X01471Y04662D02*
X01476Y04667D01*
X01485*
X0149Y04662*
Y04657*
X01485Y04652*
X0148*
X01485*
X0149Y04647*
Y04642*
X01485Y04637*
X01476*
X01471Y04642*
X01346Y04722D02*
X01341Y04727D01*
X01331*
X01326Y04722*
Y04702*
X01331Y04697*
X01341*
X01346Y04702*
Y04712*
X01336*
X01356Y04697D02*
Y04727D01*
X01371*
X01376Y04722*
Y04712*
X01371Y04707*
X01356*
X01386Y04727D02*
X01396D01*
X01391*
Y04697*
X01386*
X01396*
X01426Y04727D02*
X01416D01*
X01411Y04722*
Y04702*
X01416Y04697*
X01426*
X01431Y04702*
Y04722*
X01426Y04727*
X0149Y04697D02*
X01471D01*
X0149Y04717*
Y04722*
X01485Y04727*
X01476*
X01471Y04722*
G54D16*
X01434Y03393D02*
D01*
D01*
G75*
G03X0141I-00011J0D01*
G74*G01*
D01*
G75*
G03X01434I00011J0D01*
G74*G01*
X03975Y03987D02*
D01*
D01*
G75*
G03X03951I-00011J0D01*
G74*G01*
D01*
G75*
G03X03975I00011J0D01*
G74*G01*
X03289Y02837D02*
D01*
D01*
G75*
G03X03265I-00011J0D01*
G74*G01*
D01*
G75*
G03X03289I00011J0D01*
G74*G01*
G54D17*
X04087Y0257D02*
Y032D01*
X04929Y0257D02*
Y032D01*
X0444D02*
X04929D01*
X04087D02*
X04318D01*
X0444Y0257D02*
X04929D01*
X04087D02*
X04318D01*
X01306Y03146D02*
X01459D01*
Y03213*
X01306D02*
X01459D01*
X01306Y03146D02*
Y03213D01*
X01949Y04777D02*
X01975D01*
X01962Y04765D02*
Y0479D01*
X04103Y04385D02*
X04077D01*
X0409Y04397D02*
Y04372D01*
X03142Y04964D02*
Y0499D01*
X03155Y04977D02*
X03129D01*
X03317Y04964D02*
Y0499D01*
X0333Y04977D02*
X03304D01*
X03492Y04964D02*
Y0499D01*
X03505Y04977D02*
X03479D01*
X00974Y03507D02*
X00948D01*
X00961Y0352D02*
Y03494D01*
X01573Y0211D02*
X01586D01*
X0158*
Y0209*
X01593D02*
Y0211D01*
X01603*
X01606Y02106*
Y021*
X01603Y02096*
X01593*
X01613Y0211D02*
X01626D01*
Y02106*
X01613Y02093*
Y0209*
X01311Y0214D02*
X01305D01*
X01308*
Y02123*
X01305Y0212*
X01301*
X01298Y02123*
X01328Y0212D02*
Y0214D01*
X01318Y0213*
X01331*
X03668Y0235D02*
Y0237D01*
X03678*
X03681Y02366*
Y0236*
X03678Y02356*
X03668*
X03698Y0235D02*
Y0237D01*
X03688Y0236*
X03701*
X04082Y03275D02*
Y03295D01*
X04092*
X04095Y03291*
Y03285*
X04092Y03281*
X04082*
X04115Y03275D02*
X04102D01*
X04115Y03288*
Y03291*
X04112Y03295*
X04105*
X04102Y03291*
X01546Y02996D02*
X01543Y03D01*
X01536*
X01533Y02996*
Y02983*
X01536Y0298*
X01543*
X01546Y02983*
X01553Y02996D02*
X01556Y03D01*
X01563*
X01566Y02996*
Y02993*
X01563Y0299*
X0156*
X01563*
X01566Y02986*
Y02983*
X01563Y0298*
X01556*
X01553Y02983*
X01573Y02996D02*
X01576Y03D01*
X01583*
X01586Y02996*
Y02993*
X01583Y0299*
X0158*
X01583*
X01586Y02986*
Y02983*
X01583Y0298*
X01576*
X01573Y02983*
X01671Y02676D02*
X01668Y0268D01*
X01661*
X01658Y02676*
Y02663*
X01661Y0266*
X01668*
X01671Y02663*
X01678Y02676D02*
X01681Y0268D01*
X01688*
X01691Y02676*
Y02673*
X01688Y0267*
X01685*
X01688*
X01691Y02666*
Y02663*
X01688Y0266*
X01681*
X01678Y02663*
X01711Y0266D02*
X01698D01*
X01711Y02673*
Y02676*
X01708Y0268*
X01701*
X01698Y02676*
X03928Y02526D02*
X03925Y0253D01*
X03918*
X03915Y02526*
Y02513*
X03918Y0251*
X03925*
X03928Y02513*
X03935Y0251D02*
X03941D01*
X03938*
Y0253*
X03935Y02526*
X03965Y0253D02*
X03958Y02526D01*
X03951Y0252*
Y02513*
X03955Y0251*
X03961*
X03965Y02513*
Y02516*
X03961Y0252*
X03951*
X03458Y0294D02*
Y0296D01*
X03468*
X03471Y02956*
Y0295*
X03468Y02946*
X03458*
X03465D02*
X03471Y0294D01*
X03491D02*
X03478D01*
X03491Y02953*
Y02956*
X03488Y0296*
X03481*
X03478Y02956*
X03508Y0294D02*
Y0296D01*
X03498Y0295*
X03511*
X03458Y03D02*
Y0302D01*
X03468*
X03471Y03016*
Y0301*
X03468Y03006*
X03458*
X03465D02*
X03471Y03D01*
X03491D02*
X03478D01*
X03491Y03013*
Y03016*
X03488Y0302*
X03481*
X03478Y03016*
X03511Y03D02*
X03498D01*
X03511Y03013*
Y03016*
X03508Y0302*
X03501*
X03498Y03016*
X03455Y027D02*
Y0272D01*
X03465*
X03468Y02716*
Y0271*
X03465Y02706*
X03455*
X03461D02*
X03468Y027D01*
X03488D02*
X03475D01*
X03488Y02713*
Y02716*
X03485Y0272*
X03478*
X03475Y02716*
X03495D02*
X03498Y0272D01*
X03505*
X03508Y02716*
Y02703*
X03505Y027*
X03498*
X03495Y02703*
Y02716*
X03884Y0288D02*
Y029D01*
X03894*
X03897Y02896*
Y0289*
X03894Y02886*
X03884*
X0389D02*
X03897Y0288D01*
X03904D02*
X0391D01*
X03907*
Y029*
X03904Y02896*
X0392Y029D02*
X03934D01*
Y02896*
X0392Y02883*
Y0288*
X03458Y0276D02*
Y0278D01*
X03468*
X03471Y02776*
Y0277*
X03468Y02766*
X03458*
X03465D02*
X03471Y0276D01*
X03478D02*
X03485D01*
X03481*
Y0278*
X03478Y02776*
X03508Y0278D02*
X03501Y02776D01*
X03495Y0277*
Y02763*
X03498Y0276*
X03505*
X03508Y02763*
Y02766*
X03505Y0277*
X03495*
X03783Y03186D02*
X0378Y0319D01*
X03773*
X0377Y03186*
Y03173*
X03773Y0317*
X0378*
X03783Y03173*
X0379Y0317D02*
X03796D01*
X03793*
Y0319*
X0379Y03186*
X0382Y0319D02*
X03806D01*
Y0318*
X03813Y03183*
X03816*
X0382Y0318*
Y03173*
X03816Y0317*
X0381*
X03806Y03173*
X03798Y02956D02*
X03795Y0296D01*
X03788*
X03785Y02956*
Y02943*
X03788Y0294*
X03795*
X03798Y02943*
X03805Y0294D02*
X03811D01*
X03808*
Y0296*
X03805Y02956*
X03821Y0294D02*
X03828D01*
X03825*
Y0296*
X03821Y02956*
X02136Y0402D02*
Y04003D01*
X0214Y04*
X02146*
X0215Y04003*
Y0402*
X02156Y04D02*
X02163D01*
X0216*
Y0402*
X02156Y04016*
X0317Y02418D02*
X0315D01*
Y02428*
X03153Y02431*
X0316*
X03163Y02428*
Y02418*
Y02425D02*
X0317Y02431D01*
X03153Y02438D02*
X0315Y02441D01*
Y02448*
X03153Y02451*
X03156*
X0316Y02448*
Y02445*
Y02448*
X03163Y02451*
X03166*
X0317Y02448*
Y02441*
X03166Y02438*
X03153Y02458D02*
X0315Y02461D01*
Y02468*
X03153Y02471*
X03166*
X0317Y02468*
Y02461*
X03166Y02458*
X03153*
X03235Y02418D02*
X03215D01*
Y02428*
X03218Y02431*
X03225*
X03228Y02428*
Y02418*
Y02425D02*
X03235Y02431D01*
Y02451D02*
Y02438D01*
X03221Y02451*
X03218*
X03215Y02448*
Y02441*
X03218Y02438*
X03231Y02458D02*
X03235Y02461D01*
Y02468*
X03231Y02471*
X03218*
X03215Y02468*
Y02461*
X03218Y02458*
X03221*
X03225Y02461*
Y02471*
X033Y02418D02*
X0328D01*
Y02428*
X03283Y02431*
X0329*
X03293Y02428*
Y02418*
Y02425D02*
X033Y02431D01*
Y02451D02*
Y02438D01*
X03286Y02451*
X03283*
X0328Y02448*
Y02441*
X03283Y02438*
Y02458D02*
X0328Y02461D01*
Y02468*
X03283Y02471*
X03286*
X0329Y02468*
X03293Y02471*
X03296*
X033Y02468*
Y02461*
X03296Y02458*
X03293*
X0329Y02461*
X03286Y02458*
X03283*
X0329Y02461D02*
Y02468D01*
X03471Y03196D02*
X03468Y032D01*
X03461*
X03458Y03196*
Y03183*
X03461Y0318*
X03468*
X03471Y03183*
X03491Y0318D02*
X03478D01*
X03491Y03193*
Y03196*
X03488Y032*
X03481*
X03478Y03196*
X03508Y0318D02*
Y032D01*
X03498Y0319*
X03511*
X03248Y03431D02*
X03245Y03428D01*
Y03421*
X03248Y03418*
X03261*
X03265Y03421*
Y03428*
X03261Y03431*
X03265Y03451D02*
Y03438D01*
X03251Y03451*
X03248*
X03245Y03448*
Y03441*
X03248Y03438*
Y03458D02*
X03245Y03461D01*
Y03468*
X03248Y03471*
X03251*
X03255Y03468*
Y03465*
Y03468*
X03258Y03471*
X03261*
X03265Y03468*
Y03461*
X03261Y03458*
X03083Y03431D02*
X0308Y03428D01*
Y03421*
X03083Y03418*
X03096*
X031Y03421*
Y03428*
X03096Y03431*
X031Y03438D02*
Y03445D01*
Y03441*
X0308*
X03083Y03438*
X031Y03465D02*
X0308D01*
X0309Y03455*
Y03468*
X03193Y03431D02*
X0319Y03428D01*
Y03421*
X03193Y03418*
X03206*
X0321Y03421*
Y03428*
X03206Y03431*
X0321Y03438D02*
Y03445D01*
Y03441*
X0319*
X03193Y03438*
Y03455D02*
X0319Y03458D01*
Y03465*
X03193Y03468*
X03196*
X032Y03465*
Y03461*
Y03465*
X03203Y03468*
X03206*
X0321Y03465*
Y03458*
X03206Y03455*
X0376Y03418D02*
X0374D01*
Y03428*
X03743Y03431*
X0375*
X03753Y03428*
Y03418*
Y03425D02*
X0376Y03431D01*
X03743Y03438D02*
X0374Y03441D01*
Y03448*
X03743Y03451*
X03746*
X0375Y03448*
Y03445*
Y03448*
X03753Y03451*
X03756*
X0376Y03448*
Y03441*
X03756Y03438*
X03743Y03458D02*
X0374Y03461D01*
Y03468*
X03743Y03471*
X03746*
X0375Y03468*
Y03465*
Y03468*
X03753Y03471*
X03756*
X0376Y03468*
Y03461*
X03756Y03458*
X01419Y04811D02*
X01432D01*
X01425*
Y04791*
X01439D02*
Y04811D01*
X01449*
X01452Y04807*
Y04801*
X01449Y04797*
X01439*
X01469Y04791D02*
Y04811D01*
X01459Y04801*
X01472*
X03234Y02381D02*
X03247D01*
X0324*
Y02361*
X03254D02*
Y02381D01*
X03264*
X03267Y02377*
Y02371*
X03264Y02367*
X03254*
X03274Y02377D02*
X03277Y02381D01*
X03284*
X03287Y02377*
Y02374*
X03284Y02371*
X0328*
X03284*
X03287Y02367*
Y02364*
X03284Y02361*
X03277*
X03274Y02364*
X01764Y02931D02*
X01777D01*
X0177*
Y02911*
X01784D02*
Y02931D01*
X01794*
X01797Y02927*
Y02921*
X01794Y02917*
X01784*
X01817Y02911D02*
X01804D01*
X01817Y02924*
Y02927*
X01814Y02931*
X01807*
X01804Y02927*
X01764Y02631D02*
X01777D01*
X0177*
Y02611*
X01784D02*
Y02631D01*
X01794*
X01797Y02627*
Y02621*
X01794Y02617*
X01784*
X01804Y02611D02*
X0181D01*
X01807*
Y02631*
X01804Y02627*
X03945Y04461D02*
X03941Y04465D01*
X03935*
X03931Y04461*
Y04458*
X03935Y04455*
X03941*
X03945Y04451*
Y04448*
X03941Y04445*
X03935*
X03931Y04448*
X03951Y04465D02*
Y04445D01*
X03958Y04451*
X03965Y04445*
Y04465*
X03971Y04445D02*
X03978D01*
X03975*
Y04465*
X03971Y04461*
X03946Y04891D02*
X03943Y04895D01*
X03936*
X03933Y04891*
Y04888*
X03936Y04885*
X03943*
X03946Y04881*
Y04878*
X03943Y04875*
X03936*
X03933Y04878*
X03953Y04895D02*
Y04875D01*
X0396Y04881*
X03966Y04875*
Y04895*
X03986Y04875D02*
X03973D01*
X03986Y04888*
Y04891*
X03983Y04895*
X03976*
X03973Y04891*
X04035Y0432D02*
Y0434D01*
X04045*
X04048Y04336*
Y0433*
X04045Y04326*
X04035*
X04041D02*
X04048Y0432D01*
X04055D02*
X04061D01*
X04058*
Y0434*
X04055Y04336*
X04081Y0432D02*
Y0434D01*
X04071Y0433*
X04085*
X0481Y03498D02*
X0479D01*
Y03508*
X04793Y03511*
X048*
X04803Y03508*
Y03498*
Y03505D02*
X0481Y03511D01*
Y03531D02*
Y03518D01*
X04796Y03531*
X04793*
X0479Y03528*
Y03521*
X04793Y03518*
Y03538D02*
X0479Y03541D01*
Y03548*
X04793Y03551*
X04796*
X048Y03548*
Y03545*
Y03548*
X04803Y03551*
X04806*
X0481Y03548*
Y03541*
X04806Y03538*
X0487Y03501D02*
X0485D01*
Y03511*
X04853Y03515*
X0486*
X04863Y03511*
Y03501*
Y03508D02*
X0487Y03515D01*
Y03535D02*
Y03521D01*
X04856Y03535*
X04853*
X0485Y03531*
Y03525*
X04853Y03521*
X0487Y03541D02*
Y03548D01*
Y03545*
X0485*
X04853Y03541*
X02751Y03075D02*
Y03071D01*
X02758Y03065*
X02765Y03071*
Y03075*
X02758Y03065D02*
Y03055D01*
X02771D02*
X02778D01*
X02775*
Y03075*
X02771Y03071*
X03844Y04092D02*
Y04075D01*
X03847Y04072*
X03854*
X03857Y04075*
Y04092*
X03877D02*
X03864D01*
Y04082*
X0387Y04085*
X03874*
X03877Y04082*
Y04075*
X03874Y04072*
X03867*
X03864Y04075*
X01478Y03325D02*
Y03308D01*
X01481Y03305*
X01488*
X01491Y03308*
Y03325*
X01508Y03305D02*
Y03325D01*
X01498Y03315*
X01511*
X02994Y03171D02*
Y03154D01*
X02997Y03151*
X03004*
X03007Y03154*
Y03171*
X03014Y03167D02*
X03017Y03171D01*
X03024*
X03027Y03167*
Y03164*
X03024Y03161*
X0302*
X03024*
X03027Y03157*
Y03154*
X03024Y03151*
X03017*
X03014Y03154*
X04275Y04578D02*
Y04561D01*
X04278Y04558*
X04285*
X04288Y04561*
Y04578*
X04308Y04558D02*
X04295D01*
X04308Y04571*
Y04574*
X04305Y04578*
X04298*
X04295Y04574*
X04478Y0237D02*
X04491D01*
X04485*
Y0235*
X04498D02*
Y0237D01*
X04508*
X04511Y02366*
Y0236*
X04508Y02356*
X04498*
X04518Y02366D02*
X04521Y0237D01*
X04528*
X04531Y02366*
Y02363*
X04528Y0236*
X04531Y02356*
Y02353*
X04528Y0235*
X04521*
X04518Y02353*
Y02356*
X04521Y0236*
X04518Y02363*
Y02366*
X04521Y0236D02*
X04528D01*
X04579Y04841D02*
X04592D01*
X04585*
Y04821*
X04599D02*
Y04841D01*
X04609*
X04612Y04837*
Y04831*
X04609Y04827*
X04599*
X04632Y04841D02*
X04625Y04837D01*
X04619Y04831*
Y04824*
X04622Y04821*
X04629*
X04632Y04824*
Y04827*
X04629Y04831*
X04619*
X01644Y04811D02*
X01657D01*
X0165*
Y04791*
X01664D02*
Y04811D01*
X01674*
X01677Y04807*
Y04801*
X01674Y04797*
X01664*
X01697Y04811D02*
X01684D01*
Y04801*
X0169Y04804*
X01694*
X01697Y04801*
Y04794*
X01694Y04791*
X01687*
X01684Y04794*
X04073Y0366D02*
Y0368D01*
X04083*
X04086Y03676*
Y0367*
X04083Y03666*
X04073*
X0408D02*
X04086Y0366D01*
X04103D02*
Y0368D01*
X04093Y0367*
X04106*
X04113Y0368D02*
X04126D01*
Y03676*
X04113Y03663*
Y0366*
X04148Y03695D02*
Y03715D01*
X04158*
X04161Y03711*
Y03705*
X04158Y03701*
X04148*
X04155D02*
X04161Y03695D01*
X04178D02*
Y03715D01*
X04168Y03705*
X04181*
X04201Y03715D02*
X04195Y03711D01*
X04188Y03705*
Y03698*
X04191Y03695*
X04198*
X04201Y03698*
Y03701*
X04198Y03705*
X04188*
X04308Y0366D02*
Y0368D01*
X04318*
X04321Y03676*
Y0367*
X04318Y03666*
X04308*
X04315D02*
X04321Y0366D01*
X04338D02*
Y0368D01*
X04328Y0367*
X04341*
X04361Y0368D02*
X04348D01*
Y0367*
X04355Y03673*
X04358*
X04361Y0367*
Y03663*
X04358Y0366*
X04351*
X04348Y03663*
X03763Y03605D02*
Y03625D01*
X03773*
X03776Y03621*
Y03615*
X03773Y03611*
X03763*
X0377D02*
X03776Y03605D01*
X03793D02*
Y03625D01*
X03783Y03615*
X03796*
X03813Y03605D02*
Y03625D01*
X03803Y03615*
X03816*
X04228Y0366D02*
Y0368D01*
X04238*
X04241Y03676*
Y0367*
X04238Y03666*
X04228*
X04235D02*
X04241Y0366D01*
X04258D02*
Y0368D01*
X04248Y0367*
X04261*
X04268Y03676D02*
X04271Y0368D01*
X04278*
X04281Y03676*
Y03673*
X04278Y0367*
X04275*
X04278*
X04281Y03666*
Y03663*
X04278Y0366*
X04271*
X04268Y03663*
X04231Y03695D02*
Y03715D01*
X04241*
X04245Y03711*
Y03705*
X04241Y03701*
X04231*
X04238D02*
X04245Y03695D01*
X04261D02*
Y03715D01*
X04251Y03705*
X04265*
X04271Y03695D02*
X04278D01*
X04275*
Y03715*
X04271Y03711*
X04148Y0366D02*
Y0368D01*
X04158*
X04161Y03676*
Y0367*
X04158Y03666*
X04148*
X04155D02*
X04161Y0366D01*
X04178D02*
Y0368D01*
X04168Y0367*
X04181*
X04201Y0366D02*
X04188D01*
X04201Y03673*
Y03676*
X04198Y0368*
X04191*
X04188Y03676*
X04308Y03695D02*
Y03715D01*
X04318*
X04321Y03711*
Y03705*
X04318Y03701*
X04308*
X04315D02*
X04321Y03695D01*
X04338D02*
Y03715D01*
X04328Y03705*
X04341*
X04348Y03711D02*
X04351Y03715D01*
X04358*
X04361Y03711*
Y03698*
X04358Y03695*
X04351*
X04348Y03698*
Y03711*
X03613Y03685D02*
Y03705D01*
X03623*
X03626Y03701*
Y03695*
X03623Y03691*
X03613*
X0362D02*
X03626Y03685D01*
X03633Y03701D02*
X03636Y03705D01*
X03643*
X03646Y03701*
Y03698*
X03643Y03695*
X0364*
X03643*
X03646Y03691*
Y03688*
X03643Y03685*
X03636*
X03633Y03688*
X03653D02*
X03656Y03685D01*
X03663*
X03666Y03688*
Y03701*
X03663Y03705*
X03656*
X03653Y03701*
Y03698*
X03656Y03695*
X03666*
X03688Y03685D02*
Y03705D01*
X03698*
X03701Y03701*
Y03695*
X03698Y03691*
X03688*
X03695D02*
X03701Y03685D01*
X03708Y03701D02*
X03711Y03705D01*
X03718*
X03721Y03701*
Y03698*
X03718Y03695*
X03715*
X03718*
X03721Y03691*
Y03688*
X03718Y03685*
X03711*
X03708Y03688*
X03728Y03701D02*
X03731Y03705D01*
X03738*
X03741Y03701*
Y03698*
X03738Y03695*
X03741Y03691*
Y03688*
X03738Y03685*
X03731*
X03728Y03688*
Y03691*
X03731Y03695*
X03728Y03698*
Y03701*
X03731Y03695D02*
X03738D01*
X01107Y03427D02*
Y03447D01*
X01117*
X0112Y03443*
Y03437*
X01117Y03433*
X01107*
X01113D02*
X0112Y03427D01*
X01127Y03443D02*
X0113Y03447D01*
X01137*
X0114Y03443*
Y0344*
X01137Y03437*
X01133*
X01137*
X0114Y03433*
Y0343*
X01137Y03427*
X0113*
X01127Y0343*
X0116Y03447D02*
X01147D01*
Y03437*
X01153Y0344*
X01157*
X0116Y03437*
Y0343*
X01157Y03427*
X0115*
X01147Y0343*
X01471Y0317D02*
Y0319D01*
X01481*
X01485Y03186*
Y0318*
X01481Y03176*
X01471*
X01478D02*
X01485Y0317D01*
X01491Y03186D02*
X01495Y0319D01*
X01501*
X01505Y03186*
Y03183*
X01501Y0318*
X01498*
X01501*
X01505Y03176*
Y03173*
X01501Y0317*
X01495*
X01491Y03173*
X01511Y0319D02*
X01525D01*
Y03186*
X01511Y03173*
Y0317*
X0122Y03193D02*
X012D01*
Y03203*
X01203Y03206*
X0121*
X01213Y03203*
Y03193*
Y032D02*
X0122Y03206D01*
X01203Y03213D02*
X012Y03216D01*
Y03223*
X01203Y03226*
X01206*
X0121Y03223*
Y0322*
Y03223*
X01213Y03226*
X01216*
X0122Y03223*
Y03216*
X01216Y03213*
X012Y03246D02*
X01203Y0324D01*
X0121Y03233*
X01216*
X0122Y03236*
Y03243*
X01216Y03246*
X01213*
X0121Y03243*
Y03233*
X01221Y035D02*
X01201D01*
Y0351*
X01204Y03513*
X01211*
X01214Y0351*
Y035*
Y03507D02*
X01221Y03513D01*
X01204Y0352D02*
X01201Y03523D01*
Y0353*
X01204Y03533*
X01207*
X01211Y0353*
Y03527*
Y0353*
X01214Y03533*
X01217*
X01221Y0353*
Y03523*
X01217Y0352*
X01221Y0355D02*
X01201D01*
X01211Y0354*
Y03553*
X0286Y02998D02*
X0284D01*
Y03008*
X02843Y03011*
X0285*
X02853Y03008*
Y02998*
Y03005D02*
X0286Y03011D01*
X02843Y03018D02*
X0284Y03021D01*
Y03028*
X02843Y03031*
X02846*
X0285Y03028*
Y03025*
Y03028*
X02853Y03031*
X02856*
X0286Y03028*
Y03021*
X02856Y03018*
X0286Y03051D02*
Y03038D01*
X02846Y03051*
X02843*
X0284Y03048*
Y03041*
X02843Y03038*
X0338Y03421D02*
X0336D01*
Y03431*
X03363Y03435*
X0337*
X03373Y03431*
Y03421*
Y03428D02*
X0338Y03435D01*
X03363Y03441D02*
X0336Y03445D01*
Y03451*
X03363Y03455*
X03366*
X0337Y03451*
Y03448*
Y03451*
X03373Y03455*
X03376*
X0338Y03451*
Y03445*
X03376Y03441*
X0338Y03461D02*
Y03468D01*
Y03465*
X0336*
X03363Y03461*
X03953Y0288D02*
Y029D01*
X03963*
X03966Y02896*
Y0289*
X03963Y02886*
X03953*
X0396D02*
X03966Y0288D01*
X03986D02*
X03973D01*
X03986Y02893*
Y02896*
X03983Y029*
X03976*
X03973Y02896*
X03993Y029D02*
X04006D01*
Y02896*
X03993Y02883*
Y0288*
X03888Y0306D02*
Y0308D01*
X03898*
X03901Y03076*
Y0307*
X03898Y03066*
X03888*
X03895D02*
X03901Y0306D01*
X03921D02*
X03908D01*
X03921Y03073*
Y03076*
X03918Y0308*
X03911*
X03908Y03076*
X03941Y0308D02*
X03935Y03076D01*
X03928Y0307*
Y03063*
X03931Y0306*
X03938*
X03941Y03063*
Y03066*
X03938Y0307*
X03928*
X03458Y0312D02*
Y0314D01*
X03468*
X03471Y03136*
Y0313*
X03468Y03126*
X03458*
X03465D02*
X03471Y0312D01*
X03491D02*
X03478D01*
X03491Y03133*
Y03136*
X03488Y0314*
X03481*
X03478Y03136*
X03511Y0314D02*
X03498D01*
Y0313*
X03505Y03133*
X03508*
X03511Y0313*
Y03123*
X03508Y0312*
X03501*
X03498Y03123*
X03685Y02595D02*
Y02615D01*
X03695*
X03698Y02611*
Y02605*
X03695Y02601*
X03685*
X03691D02*
X03698Y02595D01*
X03705D02*
X03711D01*
X03708*
Y02615*
X03705Y02611*
X03721Y02598D02*
X03725Y02595D01*
X03731*
X03735Y02598*
Y02611*
X03731Y02615*
X03725*
X03721Y02611*
Y02608*
X03725Y02605*
X03735*
X03775Y0282D02*
Y0284D01*
X03785*
X03788Y02836*
Y0283*
X03785Y02826*
X03775*
X03781D02*
X03788Y0282D01*
X03795D02*
X03801D01*
X03798*
Y0284*
X03795Y02836*
X03811D02*
X03815Y0284D01*
X03821*
X03825Y02836*
Y02833*
X03821Y0283*
X03825Y02826*
Y02823*
X03821Y0282*
X03815*
X03811Y02823*
Y02826*
X03815Y0283*
X03811Y02833*
Y02836*
X03815Y0283D02*
X03821D01*
X0491Y04655D02*
X0489D01*
Y04665*
X04893Y04668*
X049*
X04903Y04665*
Y04655*
Y04661D02*
X0491Y04668D01*
Y04675D02*
Y04681D01*
Y04678*
X0489*
X04893Y04675*
X0489Y04705D02*
Y04691D01*
X049*
X04896Y04698*
Y04701*
X049Y04705*
X04906*
X0491Y04701*
Y04695*
X04906Y04691*
X04595Y0454D02*
X04575D01*
Y0455*
X04578Y04553*
X04585*
X04588Y0455*
Y0454*
Y04546D02*
X04595Y04553D01*
Y0456D02*
Y04566D01*
Y04563*
X04575*
X04578Y0456*
Y04576D02*
X04575Y0458D01*
Y04586*
X04578Y0459*
X04581*
X04585Y04586*
Y04583*
Y04586*
X04588Y0459*
X04591*
X04595Y04586*
Y0458*
X04591Y04576*
X04595Y04385D02*
X04575D01*
Y04395*
X04578Y04398*
X04585*
X04588Y04395*
Y04385*
Y04391D02*
X04595Y04398D01*
Y04405D02*
Y04411D01*
Y04408*
X04575*
X04578Y04405*
X04595Y04435D02*
Y04421D01*
X04581Y04435*
X04578*
X04575Y04431*
Y04425*
X04578Y04421*
X04038Y04435D02*
Y04455D01*
X04048*
X04051Y04451*
Y04445*
X04048Y04441*
X04038*
X04045D02*
X04051Y04435D01*
X04058D02*
X04065D01*
X04061*
Y04455*
X04058Y04451*
X04075Y04435D02*
X04081D01*
X04078*
Y04455*
X04075Y04451*
X04905Y04315D02*
X04885D01*
Y04325*
X04888Y04328*
X04895*
X04898Y04325*
Y04315*
Y04321D02*
X04905Y04328D01*
Y04335D02*
Y04341D01*
Y04338*
X04885*
X04888Y04335*
Y04351D02*
X04885Y04355D01*
Y04361*
X04888Y04365*
X04901*
X04905Y04361*
Y04355*
X04901Y04351*
X04888*
X01838Y04655D02*
Y04675D01*
X01848*
X01851Y04671*
Y04665*
X01848Y04661*
X01838*
X01845D02*
X01851Y04655D01*
X01858Y04658D02*
X01861Y04655D01*
X01868*
X01871Y04658*
Y04671*
X01868Y04675*
X01861*
X01858Y04671*
Y04668*
X01861Y04665*
X01871*
X02923Y04695D02*
Y04715D01*
X02933*
X02936Y04711*
Y04705*
X02933Y04701*
X02923*
X0293D02*
X02936Y04695D01*
X02956Y04715D02*
X02943D01*
Y04705*
X0295Y04708*
X02953*
X02956Y04705*
Y04698*
X02953Y04695*
X02946*
X02943Y04698*
X02503Y0389D02*
Y0391D01*
X02513*
X02516Y03906*
Y039*
X02513Y03896*
X02503*
X0251D02*
X02516Y0389D01*
X02533D02*
Y0391D01*
X02523Y039*
X02536*
X0355Y04818D02*
X0353D01*
Y04828*
X03533Y04831*
X0354*
X03543Y04828*
Y04818*
Y04825D02*
X0355Y04831D01*
X0353Y04851D02*
X03533Y04845D01*
X0354Y04838*
X03546*
X0355Y04841*
Y04848*
X03546Y04851*
X03543*
X0354Y04848*
Y04838*
X03375Y04818D02*
X03355D01*
Y04828*
X03358Y04831*
X03365*
X03368Y04828*
Y04818*
Y04825D02*
X03375Y04831D01*
X03355Y04838D02*
Y04851D01*
X03358*
X03371Y04838*
X03375*
X032Y04818D02*
X0318D01*
Y04828*
X03183Y04831*
X0319*
X03193Y04828*
Y04818*
Y04825D02*
X032Y04831D01*
X03183Y04838D02*
X0318Y04841D01*
Y04848*
X03183Y04851*
X03186*
X0319Y04848*
X03193Y04851*
X03196*
X032Y04848*
Y04841*
X03196Y04838*
X03193*
X0319Y04841*
X03186Y04838*
X03183*
X0319Y04841D02*
Y04848D01*
X02923Y04625D02*
Y04645D01*
X02933*
X02936Y04641*
Y04635*
X02933Y04631*
X02923*
X0293D02*
X02936Y04625D01*
X02956D02*
X02943D01*
X02956Y04638*
Y04641*
X02953Y04645*
X02946*
X02943Y04641*
X04791Y04643D02*
Y04656D01*
X04788Y0466*
X04781*
X04778Y04656*
Y04643*
X04781Y0464*
X04788*
X04785Y04646D02*
X04791Y0464D01*
X04788D02*
X04791Y04643D01*
X04811Y0464D02*
X04798D01*
X04811Y04653*
Y04656*
X04808Y0466*
X04801*
X04798Y04656*
X04795Y04308D02*
Y04321D01*
X04791Y04325*
X04785*
X04781Y04321*
Y04308*
X04785Y04305*
X04791*
X04788Y04311D02*
X04795Y04305D01*
X04791D02*
X04795Y04308D01*
X04801Y04305D02*
X04808D01*
X04805*
Y04325*
X04801Y04321*
X04638Y0412D02*
Y0414D01*
X04648*
X04651Y04136*
Y0413*
X04648Y04126*
X04638*
X04671Y0414D02*
X04665Y04136D01*
X04658Y0413*
Y04123*
X04661Y0412*
X04668*
X04671Y04123*
Y04126*
X04668Y0413*
X04658*
X04638Y0369D02*
Y0371D01*
X04648*
X04651Y03706*
Y037*
X04648Y03696*
X04638*
X04671Y0371D02*
X04658D01*
Y037*
X04665Y03703*
X04668*
X04671Y037*
Y03693*
X04668Y0369*
X04661*
X04658Y03693*
X02003Y03165D02*
Y03145D01*
X02016*
X02023Y03161D02*
X02026Y03165D01*
X02033*
X02036Y03161*
Y03158*
X02033Y03155*
X0203*
X02033*
X02036Y03151*
Y03148*
X02033Y03145*
X02026*
X02023Y03148*
X01508Y0378D02*
Y0376D01*
X01521*
X01541D02*
X01528D01*
X01541Y03773*
Y03776*
X01538Y0378*
X01531*
X01528Y03776*
X0355Y03423D02*
X0357D01*
Y03436*
Y03443D02*
Y0345D01*
Y03446*
X0355*
X03553Y03443*
X04146Y04975D02*
X0414D01*
X04143*
Y04958*
X0414Y04955*
X04136*
X04133Y04958*
X04153Y04971D02*
X04156Y04975D01*
X04163*
X04166Y04971*
Y04968*
X04163Y04965*
X0416*
X04163*
X04166Y04961*
Y04958*
X04163Y04955*
X04156*
X04153Y04958*
X01759Y02433D02*
X01752D01*
X01756*
Y02416*
X01752Y02413*
X01749*
X01746Y02416*
X01779Y02413D02*
X01766D01*
X01779Y02426*
Y02429*
X01776Y02433*
X01769*
X01766Y02429*
X01275Y0497D02*
X01268D01*
X01271*
Y04953*
X01268Y0495*
X01265*
X01261Y04953*
X01281Y0495D02*
X01288D01*
X01285*
Y0497*
X01281Y04966*
X0163Y0258D02*
X01616D01*
Y0257*
X01623*
X01616*
Y0256*
X01636D02*
X01643D01*
X0164*
Y0258*
X01636Y02576*
X04545Y04035D02*
Y04015D01*
X04555*
X04558Y04018*
Y04031*
X04555Y04035*
X04545*
X04565Y04015D02*
X04571D01*
X04568*
Y04035*
X04565Y04031*
X04591Y04015D02*
Y04035D01*
X04581Y04025*
X04595*
X01105Y0352D02*
Y035D01*
X01115*
X01118Y03503*
Y03516*
X01115Y0352*
X01105*
X01125Y035D02*
X01131D01*
X01128*
Y0352*
X01125Y03516*
X01155Y035D02*
X01141D01*
X01155Y03513*
Y03516*
X01151Y0352*
X01145*
X01141Y03516*
X01305Y02475D02*
Y02455D01*
X01315*
X01318Y02458*
Y02471*
X01315Y02475*
X01305*
X01325Y02455D02*
X01331D01*
X01328*
Y02475*
X01325Y02471*
X01341D02*
X01345Y02475D01*
X01351*
X01355Y02471*
Y02468*
X01351Y02465*
X01348*
X01351*
X01355Y02461*
Y02458*
X01351Y02455*
X01345*
X01341Y02458*
X01295Y03625D02*
X01315D01*
Y03635*
X01311Y03638*
X01298*
X01295Y03635*
Y03625*
X01315Y03645D02*
Y03651D01*
Y03648*
X01295*
X01298Y03645*
Y03661D02*
X01295Y03665D01*
Y03671*
X01298Y03675*
X01311*
X01315Y03671*
Y03665*
X01311Y03661*
X01298*
X04318Y04738D02*
Y04718D01*
X04328*
X04331Y04721*
Y04734*
X04328Y04738*
X04318*
X04338D02*
X04351D01*
Y04734*
X04338Y04721*
Y04718*
X04043Y0465D02*
Y0463D01*
X04053*
X04056Y04633*
Y04646*
X04053Y0465*
X04043*
X04076D02*
X0407Y04646D01*
X04063Y0464*
Y04633*
X04066Y0463*
X04073*
X04076Y04633*
Y04636*
X04073Y0464*
X04063*
X04038Y04395D02*
Y04375D01*
X04048*
X04051Y04378*
Y04391*
X04048Y04395*
X04038*
X04071D02*
X04058D01*
Y04385*
X04065Y04388*
X04068*
X04071Y04385*
Y04378*
X04068Y04375*
X04061*
X04058Y04378*
X01828Y04635D02*
Y04615D01*
X01838*
X01841Y04618*
Y04631*
X01838Y04635*
X01828*
X01858Y04615D02*
Y04635D01*
X01848Y04625*
X01861*
X03437Y04827D02*
X03457D01*
Y04837*
X03453Y04841*
X0344*
X03437Y04837*
Y04827*
X03457Y04847D02*
Y04854D01*
Y04851*
X03437*
X0344Y04847*
X03265Y04818D02*
X03285D01*
Y04828*
X03281Y04831*
X03268*
X03265Y04828*
Y04818*
X03285Y04851D02*
Y04838D01*
X03271Y04851*
X03268*
X03265Y04848*
Y04841*
X03268Y04838*
X0309Y04813D02*
X0311D01*
Y04823*
X03106Y04826*
X03093*
X0309Y04823*
Y04813*
X03093Y04833D02*
X0309Y04836D01*
Y04843*
X03093Y04846*
X03096*
X031Y04843*
Y0484*
Y04843*
X03103Y04846*
X03106*
X0311Y04843*
Y04836*
X03106Y04833*
X04086Y03711D02*
X04083Y03715D01*
X04076*
X04073Y03711*
Y03698*
X04076Y03695*
X04083*
X04086Y03698*
X04103Y03695D02*
Y03715D01*
X04093Y03705*
X04106*
X04126Y03695D02*
X04113D01*
X04126Y03708*
Y03711*
X04123Y03715*
X04116*
X04113Y03711*
X04405Y03676D02*
X04401Y0368D01*
X04395*
X04391Y03676*
Y03663*
X04395Y0366*
X04401*
X04405Y03663*
X04421Y0366D02*
Y0368D01*
X04411Y0367*
X04425*
X04431Y0366D02*
X04438D01*
X04435*
Y0368*
X04431Y03676*
X03701Y03661D02*
X03698Y03665D01*
X03691*
X03688Y03661*
Y03648*
X03691Y03645*
X03698*
X03701Y03648*
X03718Y03645D02*
Y03665D01*
X03708Y03655*
X03721*
X03728Y03661D02*
X03731Y03665D01*
X03738*
X03741Y03661*
Y03648*
X03738Y03645*
X03731*
X03728Y03648*
Y03661*
X03776D02*
X03773Y03665D01*
X03766*
X03763Y03661*
Y03648*
X03766Y03645*
X03773*
X03776Y03648*
X03783Y03661D02*
X03786Y03665D01*
X03793*
X03796Y03661*
Y03658*
X03793Y03655*
X0379*
X03793*
X03796Y03651*
Y03648*
X03793Y03645*
X03786*
X03783Y03648*
X03803D02*
X03806Y03645D01*
X03813*
X03816Y03648*
Y03661*
X03813Y03665*
X03806*
X03803Y03661*
Y03658*
X03806Y03655*
X03816*
X04161Y03641D02*
X04158Y03645D01*
X04151*
X04148Y03641*
Y03628*
X04151Y03625*
X04158*
X04161Y03628*
X04168Y03641D02*
X04171Y03645D01*
X04178*
X04181Y03641*
Y03638*
X04178Y03635*
X04175*
X04178*
X04181Y03631*
Y03628*
X04178Y03625*
X04171*
X04168Y03628*
X04188Y03641D02*
X04191Y03645D01*
X04198*
X04201Y03641*
Y03638*
X04198Y03635*
X04201Y03631*
Y03628*
X04198Y03625*
X04191*
X04188Y03628*
Y03631*
X04191Y03635*
X04188Y03638*
Y03641*
X04191Y03635D02*
X04198D01*
X03776Y03701D02*
X03773Y03705D01*
X03766*
X03763Y03701*
Y03688*
X03766Y03685*
X03773*
X03776Y03688*
X03783Y03701D02*
X03786Y03705D01*
X03793*
X03796Y03701*
Y03698*
X03793Y03695*
X0379*
X03793*
X03796Y03691*
Y03688*
X03793Y03685*
X03786*
X03783Y03688*
X03803Y03705D02*
X03816D01*
Y03701*
X03803Y03688*
Y03685*
X04401Y03711D02*
X04398Y03715D01*
X04391*
X04388Y03711*
Y03698*
X04391Y03695*
X04398*
X04401Y03698*
X04408Y03711D02*
X04411Y03715D01*
X04418*
X04421Y03711*
Y03708*
X04418Y03705*
X04415*
X04418*
X04421Y03701*
Y03698*
X04418Y03695*
X04411*
X04408Y03698*
X04441Y03715D02*
X04435Y03711D01*
X04428Y03705*
Y03698*
X04431Y03695*
X04438*
X04441Y03698*
Y03701*
X04438Y03705*
X04428*
X01396Y03561D02*
X01393Y03565D01*
X01386*
X01383Y03561*
Y03548*
X01386Y03545*
X01393*
X01396Y03548*
X01403Y03561D02*
X01406Y03565D01*
X01413*
X01416Y03561*
Y03558*
X01413Y03555*
X0141*
X01413*
X01416Y03551*
Y03548*
X01413Y03545*
X01406*
X01403Y03548*
X01436Y03565D02*
X01423D01*
Y03555*
X0143Y03558*
X01433*
X01436Y03555*
Y03548*
X01433Y03545*
X01426*
X01423Y03548*
X0146Y03106D02*
X01456Y0311D01*
X0145*
X01446Y03106*
Y03093*
X0145Y0309*
X01456*
X0146Y03093*
X01466Y03106D02*
X0147Y0311D01*
X01476*
X0148Y03106*
Y03103*
X01476Y031*
X01473*
X01476*
X0148Y03096*
Y03093*
X01476Y0309*
X0147*
X01466Y03093*
X01496Y0309D02*
Y0311D01*
X01486Y031*
X015*
X0183Y03446D02*
X01826Y0345D01*
X0182*
X01816Y03446*
Y03433*
X0182Y0343*
X01826*
X0183Y03433*
X01836Y03446D02*
X0184Y0345D01*
X01846*
X0185Y03446*
Y03443*
X01846Y0344*
X01843*
X01846*
X0185Y03436*
Y03433*
X01846Y0343*
X0184*
X01836Y03433*
X01856Y0343D02*
X01863D01*
X0186*
Y0345*
X01856Y03446*
X01913Y03051D02*
X0191Y03048D01*
Y03041*
X01913Y03038*
X01926*
X0193Y03041*
Y03048*
X01926Y03051*
X01913Y03058D02*
X0191Y03061D01*
Y03068*
X01913Y03071*
X01916*
X0192Y03068*
Y03065*
Y03068*
X01923Y03071*
X01926*
X0193Y03068*
Y03061*
X01926Y03058*
X01913Y03078D02*
X0191Y03081D01*
Y03088*
X01913Y03091*
X01926*
X0193Y03088*
Y03081*
X01926Y03078*
X01913*
X03423Y03431D02*
X0342Y03428D01*
Y03421*
X03423Y03418*
X03436*
X0344Y03421*
Y03428*
X03436Y03431*
X0344Y03451D02*
Y03438D01*
X03426Y03451*
X03423*
X0342Y03448*
Y03441*
X03423Y03438*
X03436Y03458D02*
X0344Y03461D01*
Y03468*
X03436Y03471*
X03423*
X0342Y03468*
Y03461*
X03423Y03458*
X03426*
X0343Y03461*
Y03471*
X03483Y03431D02*
X0348Y03428D01*
Y03421*
X03483Y03418*
X03496*
X035Y03421*
Y03428*
X03496Y03431*
X035Y03451D02*
Y03438D01*
X03486Y03451*
X03483*
X0348Y03448*
Y03441*
X03483Y03438*
Y03458D02*
X0348Y03461D01*
Y03468*
X03483Y03471*
X03486*
X0349Y03468*
X03493Y03471*
X03496*
X035Y03468*
Y03461*
X03496Y03458*
X03493*
X0349Y03461*
X03486Y03458*
X03483*
X0349Y03461D02*
Y03468D01*
X03623Y03431D02*
X0362Y03428D01*
Y03421*
X03623Y03418*
X03636*
X0364Y03421*
Y03428*
X03636Y03431*
X0364Y03451D02*
Y03438D01*
X03626Y03451*
X03623*
X0362Y03448*
Y03441*
X03623Y03438*
X0362Y03458D02*
Y03471D01*
X03623*
X03636Y03458*
X0364*
X03138Y03431D02*
X03135Y03428D01*
Y03421*
X03138Y03418*
X03151*
X03155Y03421*
Y03428*
X03151Y03431*
X03155Y03451D02*
Y03438D01*
X03141Y03451*
X03138*
X03135Y03448*
Y03441*
X03138Y03438*
X03135Y03471D02*
X03138Y03465D01*
X03145Y03458*
X03151*
X03155Y03461*
Y03468*
X03151Y03471*
X03148*
X03145Y03468*
Y03458*
X03303Y03431D02*
X033Y03428D01*
Y03421*
X03303Y03418*
X03316*
X0332Y03421*
Y03428*
X03316Y03431*
X0332Y03451D02*
Y03438D01*
X03306Y03451*
X03303*
X033Y03448*
Y03441*
X03303Y03438*
X033Y03471D02*
Y03458D01*
X0331*
X03306Y03465*
Y03468*
X0331Y03471*
X03316*
X0332Y03468*
Y03461*
X03316Y03458*
X03678Y03431D02*
X03675Y03428D01*
Y03421*
X03678Y03418*
X03691*
X03695Y03421*
Y03428*
X03691Y03431*
X03695Y03438D02*
Y03445D01*
Y03441*
X03675*
X03678Y03438*
X03691Y03455D02*
X03695Y03458D01*
Y03465*
X03691Y03468*
X03678*
X03675Y03465*
Y03458*
X03678Y03455*
X03681*
X03685Y03458*
Y03468*
X02933Y03103D02*
X0293Y031D01*
Y03093*
X02933Y0309*
X02946*
X0295Y03093*
Y031*
X02946Y03103*
X0295Y0311D02*
Y03116D01*
Y03113*
X0293*
X02933Y0311*
Y03126D02*
X0293Y0313D01*
Y03136*
X02933Y0314*
X02936*
X0294Y03136*
X02943Y0314*
X02946*
X0295Y03136*
Y0313*
X02946Y03126*
X02943*
X0294Y0313*
X02936Y03126*
X02933*
X0294Y0313D02*
Y03136D01*
X02736Y02806D02*
X02733Y0281D01*
X02726*
X02723Y02806*
Y02793*
X02726Y0279*
X02733*
X02736Y02793*
X02756Y0279D02*
X02743D01*
X02756Y02803*
Y02806*
X02753Y0281*
X02746*
X02743Y02806*
X02763D02*
X02766Y0281D01*
X02773*
X02776Y02806*
Y02793*
X02773Y0279*
X02766*
X02763Y02793*
Y02806*
X03471Y03076D02*
X03468Y0308D01*
X03461*
X03458Y03076*
Y03063*
X03461Y0306*
X03468*
X03471Y03063*
X03491Y0306D02*
X03478D01*
X03491Y03073*
Y03076*
X03488Y0308*
X03481*
X03478Y03076*
X03511Y0306D02*
X03498D01*
X03511Y03073*
Y03076*
X03508Y0308*
X03501*
X03498Y03076*
X03471Y02836D02*
X03468Y0284D01*
X03461*
X03458Y02836*
Y02823*
X03461Y0282*
X03468*
X03471Y02823*
X03491Y0282D02*
X03478D01*
X03491Y02833*
Y02836*
X03488Y0284*
X03481*
X03478Y02836*
X03498Y0282D02*
X03505D01*
X03501*
Y0284*
X03498Y02836*
X02653Y03018D02*
X0265Y03015D01*
Y03008*
X02653Y03005*
X02666*
X0267Y03008*
Y03015*
X02666Y03018*
X0267Y03025D02*
Y03031D01*
Y03028*
X0265*
X02653Y03025*
X0265Y03041D02*
Y03055D01*
X02653*
X02666Y03041*
X0267*
X03471Y02896D02*
X03468Y029D01*
X03461*
X03458Y02896*
Y02883*
X03461Y0288*
X03468*
X03471Y02883*
X03478Y0288D02*
X03485D01*
X03481*
Y029*
X03478Y02896*
X03508Y0288D02*
X03495D01*
X03508Y02893*
Y02896*
X03505Y029*
X03498*
X03495Y02896*
X03791Y03016D02*
X03788Y0302D01*
X03781*
X03778Y03016*
Y03003*
X03781Y03*
X03788*
X03791Y03003*
X03798Y03D02*
X03805D01*
X03801*
Y0302*
X03798Y03016*
X03815D02*
X03818Y0302D01*
X03825*
X03828Y03016*
Y03003*
X03825Y03*
X03818*
X03815Y03003*
Y03016*
X04138Y04634D02*
X04135Y04638D01*
X04128*
X04125Y04634*
Y04621*
X04128Y04618*
X04135*
X04138Y04621*
X04145D02*
X04148Y04618D01*
X04155*
X04158Y04621*
Y04634*
X04155Y04638*
X04148*
X04145Y04634*
Y04631*
X04148Y04628*
X04158*
X04193Y04634D02*
X0419Y04638D01*
X04183*
X0418Y04634*
Y04621*
X04183Y04618*
X0419*
X04193Y04621*
X042Y04634D02*
X04203Y04638D01*
X0421*
X04213Y04634*
Y04631*
X0421Y04628*
X04213Y04624*
Y04621*
X0421Y04618*
X04203*
X042Y04621*
Y04624*
X04203Y04628*
X042Y04631*
Y04634*
X04203Y04628D02*
X0421D01*
X01841Y04711D02*
X01838Y04715D01*
X01831*
X01828Y04711*
Y04698*
X01831Y04695*
X01838*
X01841Y04698*
X01848Y04715D02*
X01861D01*
Y04711*
X01848Y04698*
Y04695*
X01891Y04711D02*
X01888Y04715D01*
X01881*
X01878Y04711*
Y04698*
X01881Y04695*
X01888*
X01891Y04698*
X01911Y04715D02*
X01905Y04711D01*
X01898Y04705*
Y04698*
X01901Y04695*
X01908*
X01911Y04698*
Y04701*
X01908Y04705*
X01898*
X01946Y04711D02*
X01943Y04715D01*
X01936*
X01933Y04711*
Y04698*
X01936Y04695*
X01943*
X01946Y04698*
X01966Y04715D02*
X01953D01*
Y04705*
X0196Y04708*
X01963*
X01966Y04705*
Y04698*
X01963Y04695*
X01956*
X01953Y04698*
X02001Y04711D02*
X01998Y04715D01*
X01991*
X01988Y04711*
Y04698*
X01991Y04695*
X01998*
X02001Y04698*
X02018Y04695D02*
Y04715D01*
X02008Y04705*
X02021*
X02936Y04676D02*
X02933Y0468D01*
X02926*
X02923Y04676*
Y04663*
X02926Y0466*
X02933*
X02936Y04663*
X02943Y04676D02*
X02946Y0468D01*
X02953*
X02956Y04676*
Y04673*
X02953Y0467*
X0295*
X02953*
X02956Y04666*
Y04663*
X02953Y0466*
X02946*
X02943Y04663*
G54D18*
X03884Y0488D02*
X03885Y04879D01*
X03884Y0445D02*
X03885Y04449D01*
G54D19*
X01366Y03205D02*
X014D01*
X01366Y03155D02*
X014D01*
M02*