%FSTAX23Y23*%
%MOIN*%
%SFA1B1*%

%IPPOS*%
%ADD10C,0.010000*%
%ADD106C,0.030000*%
%ADD108C,0.055000*%
%ADD111C,0.096300*%
%ADD113C,0.088600*%
%ADD114C,0.065000*%
%ADD115R,0.065000X0.065000*%
%ADD116R,0.065000X0.065000*%
%ADD117O,0.057100X0.078700*%
%ADD118O,0.045300X0.070900*%
%ADD121C,0.075000*%
%ADD122R,0.075000X0.075000*%
%ADD125C,0.015700*%
%ADD126C,0.019700*%
%LNv1.0-1*%
%LPD*%
G36*
X04025Y04915D02*
Y04605D01*
X04045Y04585*
X04435*
X0444Y0458*
Y0455*
X04435Y04545*
X04*
X0396Y04585*
Y0486*
X03906Y04913*
X03904Y04916*
X03896Y04924*
X03893Y04926*
X0389Y0493*
X03887*
X03886Y0493*
X03875Y04933*
X03864*
X03853Y0493*
X03852Y0493*
X03687*
X03686Y0493*
X03675Y04933*
X03664*
X03653Y0493*
X03652Y0493*
X01795*
X0171Y04845*
X0142*
X01335Y0476*
Y03402*
X01331Y034*
X01327Y03397*
X01325Y03391*
Y03386*
X01327Y03381*
X01331Y03377*
X01335Y03375*
Y0297*
Y0292*
X01375Y0288*
X01555*
X01595Y0284*
Y0271*
X01575Y0269*
X0126*
X01175Y02775*
Y0493*
X01233Y04988*
X03951*
X04025Y04915*
G37*
G36*
X04933Y0337D02*
X0394D01*
Y0312*
X03935Y03118*
X03899Y03154*
X03895Y03156*
X03675*
X03661Y0317*
Y03185*
X03659Y03189*
X03554Y03294*
X0355Y03296*
X03526*
X03526Y03296*
Y0341*
X03525Y03414*
X03522Y03417*
X03512Y03427*
X03509Y0343*
X03505Y03431*
X03438*
X03437Y03431*
X03432Y03433*
X03427*
X03422Y03431*
X03418Y03427*
X03416Y03422*
Y03417*
X03418Y03412*
X03422Y03408*
X03427Y03406*
X03432*
X03437Y03408*
X03438Y03408*
X035*
X03503Y03405*
Y03351*
X03356*
X03352Y03354*
Y03388*
X0335Y03393*
X03339Y03404*
X03335Y03406*
X03005*
X03Y03404*
X02985Y03389*
X02983Y03385*
Y03128*
X02982*
X02977Y03126*
X02973Y03122*
X02971Y03117*
Y03112*
X02973Y03107*
X02977Y03103*
X02982Y03101*
X02983*
Y02945*
X0293*
X02895Y0298*
Y0305*
X02855Y0309*
X0263*
X02615Y03075*
Y0283*
X0264Y02805*
X0283*
X0292Y02895*
X02983*
Y02685*
X02985Y0268*
X03Y02665*
X03005Y02663*
X03272*
X0351Y02425*
X03515Y02423*
X0394*
Y02395*
X04933*
Y02071*
X00921*
Y04988*
X01218*
X0122Y04984*
X0117Y04934*
X01168Y0493*
Y02775*
X0117Y0277*
X01255Y02685*
X0126Y02683*
X01575*
X01579Y02685*
X01599Y02705*
X01601Y0271*
Y0284*
X01599Y02844*
X01559Y02884*
X01555Y02886*
X01377*
X01341Y02922*
Y0297*
Y03375*
X01341Y03377*
Y03378*
X0134Y03379*
X01339Y0338*
X01338Y0338*
X01337Y03381*
X01335Y03382*
X01332Y03385*
X01331Y03387*
Y0339*
X01332Y03393*
X01335Y03395*
X01337Y03396*
X01338Y03397*
X01339Y03397*
X0134Y03399*
X01341Y034*
Y03401*
X01341Y03402*
Y04757*
X01422Y04838*
X0171*
X01713Y04836*
Y0389*
X01715Y03885*
X01895Y03705*
X019Y03703*
X02125*
X02129Y03705*
X02131Y0371*
Y03723*
X02401*
X02453Y03671*
Y02365*
X02455Y02356*
X02459Y02349*
X02484Y02324*
X02491Y0232*
X025Y02318*
X03396*
X03554Y02159*
X03561Y02155*
X0357Y02153*
X03692*
X03694Y02151*
X03701Y02144*
X0371Y02139*
X03719Y02136*
X0373*
X03739Y02139*
X03748Y02144*
X03755Y02151*
X03757Y02153*
X03792*
X03794Y02151*
X03801Y02144*
X0381Y02139*
X03819Y02136*
X0383*
X03839Y02139*
X03848Y02144*
X03855Y02151*
X03857Y02153*
X03892*
X03894Y02151*
X03901Y02144*
X0391Y02139*
X03919Y02136*
X0393*
X03939Y02139*
X03948Y02144*
X03955Y02151*
X03957Y02153*
X03992*
X03994Y02151*
X04001Y02144*
X0401Y02139*
X04019Y02136*
X0403*
X04039Y02139*
X04048Y02144*
X04055Y02151*
X0406Y0216*
X04063Y02169*
Y0218*
X0406Y02189*
X04055Y02198*
X04048Y02205*
X04039Y0221*
X0403Y02213*
X04019*
X0401Y0221*
X04001Y02205*
X03994Y02198*
X03992Y02196*
X03957*
X03955Y02198*
X03948Y02205*
X03939Y0221*
X0393Y02213*
X03919*
X0391Y0221*
X03901Y02205*
X03894Y02198*
X03892Y02196*
X03857*
X03855Y02198*
X03848Y02205*
X03839Y0221*
X0383Y02213*
X03819*
X0381Y0221*
X03801Y02205*
X03794Y02198*
X03792Y02196*
X03757*
X03755Y02198*
X03748Y02205*
X03739Y0221*
X0373Y02213*
X03719*
X0371Y0221*
X03701Y02205*
X03694Y02198*
X03692Y02196*
X03578*
X0342Y02355*
X03413Y02359*
X03405Y02361*
X02508*
X02496Y02373*
Y0368*
X02494Y03688*
X0249Y03695*
X02425Y0376*
X02418Y03764*
X0241Y03766*
X02131*
Y0379*
X02129Y03794*
X02124Y03799*
X0212Y03801*
X01982*
X01846Y03937*
Y04762*
X01897Y04813*
X03057*
X03113Y04757*
X03114Y04756*
X03114Y04756*
X03116Y04756*
X03118Y04755*
X03121Y04751*
X03123Y04747*
X03127Y04743*
X03132Y04741*
X03137*
X03142Y04743*
X03146Y0474*
X03148Y04739*
X03149Y04738*
X0315Y04738*
X03151Y04738*
X03492*
X03513Y04717*
Y0356*
X03515Y03555*
X03685Y03385*
X0369Y03383*
X03765*
X03769Y03385*
X03771Y0339*
Y03465*
X03769Y03469*
X03626Y03612*
Y04162*
X03665*
Y0421*
Y04257*
X03626*
Y04343*
X03695*
X03703Y04345*
X0371Y04349*
X03714Y04356*
X03716Y04365*
X03714Y04373*
X0371Y0438*
X03703Y04384*
X03695Y04386*
X03626*
Y0443*
X03631Y04432*
X03632Y0443*
X0364Y04422*
X03651Y04415*
X03663Y04412*
X03665*
Y0446*
Y04507*
X03663*
X03651Y04504*
X0364Y04498*
X03632Y04489*
X03631Y04488*
X03626Y04489*
Y04592*
X03665*
Y0464*
Y04687*
X03626*
Y04788*
X0369*
X03698Y0479*
X03705Y04794*
X03709Y04801*
X03711Y0481*
X03709Y04818*
X03705Y04825*
X03698Y04829*
X0369Y04831*
X03625*
X03624Y04834*
X03614Y04844*
X0361Y04846*
X03197*
X03125Y04918*
X03127Y04923*
X0363*
X03631Y04918*
X03625Y04908*
X03623Y049*
X0367*
X03716*
X03714Y04908*
X03708Y04918*
X03709Y04923*
X03835*
X03837Y04918*
X03835Y04916*
X03829Y04906*
X03826Y04895*
Y04884*
X03829Y04873*
X03835Y04863*
X03843Y04855*
X03853Y04849*
X03864Y04846*
X03875*
X03886Y04849*
X03896Y04855*
X03904Y04863*
X0391Y04873*
X03913Y04884*
Y0489*
X03918Y04892*
X03953Y04857*
Y04585*
X03955Y0458*
X03995Y0454*
X04Y04538*
X04356*
X04359Y04533*
X04357Y0453*
Y04525*
X04359Y0452*
X04363Y04516*
X04368Y04514*
X04374*
X04379Y04516*
X04383Y0452*
X04385Y04525*
Y0453*
X04384Y04533*
X04387Y04538*
X04435*
X04439Y0454*
X04444Y04545*
X04446Y0455*
Y0458*
X04444Y04584*
X04439Y04589*
X04435Y04591*
X04047*
X04031Y04607*
Y04915*
X04029Y04919*
X03965Y04984*
X03966Y04988*
X04933*
Y0337*
G37*
G36*
X03195Y0484D02*
X0361D01*
X0362Y0483*
Y0361*
X03765Y03465*
Y0339*
X0369*
X0352Y0356*
Y0472*
X03495Y04745*
X03151*
X03147Y0475*
X03148Y04752*
Y04757*
X03146Y04762*
X03142Y04766*
X03137Y04768*
X03132*
X03127Y04766*
X03123Y04762*
Y04762*
X03118Y04761*
X0306Y0482*
X01895*
X0184Y04765*
Y03935*
X0198Y03795*
X0212*
X02125Y0379*
Y0371*
X019*
X0172Y0389*
Y04845*
X0179Y04915*
X0312*
X03195Y0484*
G37*
G36*
X03346Y03388D02*
Y03352D01*
X03353Y03345*
X03503*
Y03276*
X03273*
X0327Y03278*
X03265Y03279*
X03259Y03278*
X03256Y03276*
X03163*
X0316Y03278*
X03155Y03279*
X03149Y03278*
X03145Y03275*
X03141Y0327*
X0314Y03265*
X03141Y03259*
X03145Y03255*
X03149Y03251*
X03155Y0325*
X0316Y03251*
X03163Y03253*
X03256*
X03259Y03251*
X03265Y0325*
X0327Y03251*
X03273Y03253*
X03503*
Y03208*
X03501Y03205*
X035Y032*
X03501Y03194*
X03503Y03191*
Y03088*
X03501Y03085*
X035Y0308*
X03501Y03074*
X03503Y03071*
Y02853*
X03501Y0285*
X035Y02845*
X03501Y02839*
X03505Y02835*
X03509Y02831*
X03512Y02831*
X03522Y02822*
X03525Y02819*
X0353Y02818*
X03773*
Y02658*
X03771Y02655*
X0377Y0265*
X03771Y02644*
X03775Y0264*
X03779Y02636*
X03785Y02635*
X0379Y02636*
X03795Y0264*
X03798Y02644*
X03799Y0265*
X03798Y02655*
X03796Y02658*
Y02821*
X03798Y02824*
X03799Y0283*
X03798Y02835*
X03795Y0284*
X0379Y02843*
X03785Y02844*
X03779Y02843*
X03776Y02841*
X03652*
X03651Y02846*
X03652Y02846*
X03655Y02846*
X0366Y0285*
X03663Y02854*
X03664Y0286*
X03663Y02865*
X0366Y0287*
X03655Y02873*
X0365Y02874*
X03644Y02873*
X0364Y0287*
X03636Y02865*
X03635Y0286*
X03636Y02854*
X0364Y0285*
X03644Y02846*
X03647Y02846*
X03648Y02846*
X03647Y02841*
X03534*
X03528Y02847*
X03528Y0285*
X03526Y02853*
Y03071*
X03528Y03074*
X03529Y0308*
X03528Y03085*
X03526Y03088*
Y03191*
X03528Y03194*
X03529Y032*
X03528Y03205*
X03526Y03208*
Y03265*
Y03289*
X03526Y0329*
X0355*
X03655Y03185*
Y03167*
X03672Y0315*
X03895*
X0394Y03105*
Y0243*
X03515*
X03275Y0267*
X03005*
X0299Y02685*
Y02905*
X02915*
X02825Y02815*
X02645*
X02625Y02835*
Y0307*
X02635Y0308*
X02847*
X02885Y03042*
Y02975*
X02925Y02935*
X0299*
Y0294*
Y03101*
X0299Y03101*
X02995Y03105*
X02998Y03109*
X02999Y03115*
X02998Y0312*
X02995Y03125*
X0299Y03128*
X0299Y03128*
Y03385*
X03005Y034*
X03335*
X03346Y03388*
G37*
G36*
X04933Y02445D02*
X0399D01*
Y0332*
X04933*
Y02445*
G37*
%LNv1.0-2*%
%LPC*%
G36*
X01752Y04943D02*
X01747D01*
X01742Y04941*
X01738Y04937*
X01736Y04932*
Y04927*
X01738Y04922*
X01742Y04918*
X01747Y04916*
X01752*
X01757Y04918*
X01761Y04922*
X01763Y04927*
Y04932*
X01761Y04937*
X01757Y04941*
X01752Y04943*
G37*
G36*
X01597Y04923D02*
X01592D01*
X01587Y04921*
X01583Y04917*
X01581Y04912*
Y04907*
X01583Y04902*
X01587Y04898*
X01592Y04896*
X01597*
X01602Y04898*
X01606Y04902*
X01608Y04907*
Y04912*
X01606Y04917*
X01602Y04921*
X01597Y04923*
G37*
G36*
X01367D02*
X01362D01*
X01357Y04921*
X01353Y04917*
X01351Y04912*
Y04907*
X01353Y04902*
X01357Y04898*
X01362Y04896*
X01367*
X01372Y04898*
X01376Y04902*
X01378Y04907*
Y04912*
X01376Y04917*
X01372Y04921*
X01367Y04923*
G37*
G36*
X01227Y03543D02*
X01222D01*
X01217Y03541*
X01213Y03537*
X01211Y03532*
Y03527*
X01213Y03522*
X01217Y03518*
X01222Y03516*
X01227*
X01232Y03518*
X01236Y03522*
X01238Y03527*
Y03532*
X01236Y03537*
X01232Y03541*
X01227Y03543*
G37*
G36*
X04534Y04978D02*
Y04938D01*
X04562*
Y04946*
X04561Y04954*
X04557Y04962*
X04552Y04969*
X04545Y04974*
X04537Y04977*
X04534Y04978*
G37*
G36*
X04229D02*
Y04938D01*
X04257*
Y04946*
X04255Y04954*
X04252Y04962*
X04247Y04969*
X0424Y04974*
X04232Y04977*
X04229Y04978*
G37*
G36*
X04219D02*
X04215Y04977D01*
X04207Y04974*
X042Y04969*
X04195Y04962*
X04192Y04954*
X04191Y04946*
Y04938*
X04219*
Y04978*
G37*
G36*
X04524D02*
X0452Y04977D01*
X04512Y04974*
X04506Y04969*
X045Y04962*
X04497Y04954*
X04496Y04946*
Y04938*
X04524*
Y04978*
G37*
G36*
X04562Y04928D02*
X04534D01*
Y04888*
X04537Y04888*
X04545Y04892*
X04552Y04897*
X04557Y04904*
X04561Y04912*
X04562Y0492*
Y04928*
G37*
G36*
X04219D02*
X04191D01*
Y0492*
X04192Y04912*
X04195Y04904*
X042Y04897*
X04207Y04892*
X04215Y04888*
X04219Y04888*
Y04928*
G37*
G36*
X04257D02*
X04229D01*
Y04888*
X04232Y04888*
X0424Y04892*
X04247Y04897*
X04252Y04904*
X04255Y04912*
X04257Y0492*
Y04928*
G37*
G36*
X04524D02*
X04496D01*
Y0492*
X04497Y04912*
X045Y04904*
X04506Y04897*
X04512Y04892*
X0452Y04888*
X04524Y04888*
Y04928*
G37*
G36*
X01128Y04953D02*
X01051D01*
Y04876*
X01128*
Y04953*
G37*
G36*
X03322Y04883D02*
X03317D01*
X03312Y04881*
X03308Y04877*
X03306Y04872*
Y04867*
X03308Y04862*
X03312Y04858*
X03317Y04856*
X03322*
X03327Y04858*
X03331Y04862*
X03333Y04867*
Y04872*
X03331Y04877*
X03327Y04881*
X03322Y04883*
G37*
G36*
X03716Y0488D02*
X0368D01*
Y04843*
X03688Y04845*
X03699Y04852*
X03708Y0486*
X03714Y04871*
X03716Y0488*
G37*
G36*
X0366D02*
X03623D01*
X03625Y04871*
X03632Y0486*
X0364Y04852*
X03651Y04845*
X0366Y04843*
Y0488*
G37*
G36*
X04282Y04846D02*
X04273D01*
X04265Y04843*
X04259Y04837*
X04256Y04829*
Y04828*
X04252Y04826*
X04249Y04828*
X0424Y04832*
X04235Y04832*
Y04788*
X04268*
Y04794*
X04268Y048*
X04272Y04803*
X04273Y04803*
X04282*
X0429Y04806*
X04296Y04812*
X043Y0482*
Y04829*
X04296Y04837*
X0429Y04843*
X04282Y04846*
G37*
G36*
X04822Y04955D02*
X04807D01*
X04793Y04952*
X04779Y04946*
X04767Y04938*
X04756Y04927*
X04748Y04915*
X04742Y04901*
X0474Y04887*
Y04872*
X04742Y04858*
X04748Y04844*
X04756Y04832*
X04767Y04821*
X04779Y04813*
X04793Y04807*
X04807Y04805*
X04822*
X04836Y04807*
X0485Y04813*
X04862Y04821*
X04873Y04832*
X04881Y04844*
X04887Y04858*
X0489Y04872*
Y04887*
X04887Y04901*
X04881Y04915*
X04873Y04927*
X04862Y04938*
X0485Y04946*
X04836Y04952*
X04822Y04955*
G37*
G36*
X04528Y04832D02*
Y04788D01*
X04562*
Y04794*
X0456Y04804*
X04557Y04814*
X0455Y04822*
X04542Y04828*
X04533Y04832*
X04528Y04832*
G37*
G36*
X04225D02*
X0422Y04832D01*
X0421Y04828*
X04202Y04822*
X04196Y04814*
X04192Y04804*
X04191Y04794*
Y04788*
X04225*
Y04832*
G37*
G36*
X04479Y04846D02*
X0447D01*
X04462Y04843*
X04456Y04837*
X04453Y04829*
Y0482*
X04456Y04812*
X04462Y04806*
X0447Y04803*
X04479*
X0448Y04803*
X04485Y048*
X04484Y04794*
Y04788*
X04518*
Y04832*
X04513Y04832*
X04503Y04828*
X04501Y04826*
X04496Y04828*
Y04829*
X04493Y04837*
X04487Y04843*
X04479Y04846*
G37*
G36*
X02042Y04798D02*
X02037D01*
X02032Y04796*
X02028Y04792*
X02026Y04787*
Y04782*
X02028Y04777*
X02032Y04773*
X02037Y04771*
X02042*
X02047Y04773*
X02051Y04777*
X02053Y04782*
Y04787*
X02051Y04792*
X02047Y04796*
X02042Y04798*
G37*
G36*
X01095Y04815D02*
X01084D01*
X01075Y04812*
X01066Y04807*
X01059Y048*
X01054Y04791*
X01051Y04781*
Y04771*
X01054Y04761*
X01059Y04753*
X01066Y04746*
X01075Y0474*
X01084Y04738*
X01095*
X01104Y0474*
X01113Y04746*
X0112Y04753*
X01125Y04761*
X01128Y04771*
Y04781*
X01125Y04791*
X0112Y048*
X01113Y04807*
X01104Y04812*
X01095Y04815*
G37*
G36*
X04562Y04778D02*
X04528D01*
Y04734*
X04533Y04735*
X04542Y04739*
X0455Y04745*
X04557Y04753*
X0456Y04762*
X04562Y04772*
Y04778*
G37*
G36*
X04225D02*
X04191D01*
Y04772*
X04192Y04762*
X04196Y04753*
X04202Y04745*
X0421Y04739*
X0422Y04735*
X04225Y04734*
Y04778*
G37*
G36*
X04268D02*
X04235D01*
Y04734*
X0424Y04735*
X04249Y04739*
X04257Y04745*
X04263Y04753*
X04267Y04762*
X04268Y04772*
Y04778*
G37*
G36*
X04518D02*
X04484D01*
Y04772*
X04485Y04762*
X04489Y04753*
X04495Y04745*
X04503Y04739*
X04513Y04735*
X04518Y04734*
Y04778*
G37*
G36*
X04464Y04696D02*
X04458D01*
X04453Y04694*
X04449Y0469*
X04447Y04685*
Y0468*
X04449Y04675*
X04453Y04671*
X04458Y04669*
X04464*
X04469Y04671*
X04473Y04675*
X04475Y0468*
Y04685*
X04473Y0469*
X04469Y04694*
X04464Y04696*
G37*
G36*
X04897Y04683D02*
X04892D01*
X04887Y04681*
X04883Y04677*
X04881Y04672*
Y04667*
X04883Y04662*
X04887Y04658*
X04892Y04656*
X04897*
X04902Y04658*
X04906Y04662*
X04908Y04667*
Y04672*
X04906Y04677*
X04902Y04681*
X04897Y04683*
G37*
G36*
X03717Y04687D02*
X03675D01*
Y04645*
X03717*
Y04687*
G37*
G36*
X04484Y04646D02*
X04478D01*
X04473Y04644*
X04469Y0464*
X04467Y04635*
Y0463*
X04469Y04625*
X04473Y04621*
X04478Y04619*
X04484*
X04489Y04621*
X04493Y04625*
X04495Y0463*
Y04635*
X04493Y0464*
X04489Y04644*
X04484Y04646*
G37*
G36*
X01095Y04677D02*
X01084D01*
X01075Y04674*
X01066Y04669*
X01059Y04662*
X01054Y04653*
X01051Y04644*
Y04633*
X01054Y04624*
X01059Y04615*
X01066Y04608*
X01075Y04603*
X01084Y046*
X01095*
X01104Y04603*
X01113Y04608*
X0112Y04615*
X01125Y04624*
X01128Y04633*
Y04644*
X01125Y04653*
X0112Y04662*
X01113Y04669*
X01104Y04674*
X01095Y04677*
G37*
G36*
X03875Y04683D02*
X03864D01*
X03853Y0468*
X03843Y04674*
X03835Y04666*
X03829Y04656*
X03826Y04645*
Y04634*
X03829Y04623*
X03835Y04613*
X03843Y04605*
X03853Y04599*
X03864Y04596*
X03875*
X03886Y04599*
X03896Y04605*
X03904Y04613*
X0391Y04623*
X03913Y04634*
Y04645*
X0391Y04656*
X03904Y04666*
X03896Y04674*
X03886Y0468*
X03875Y04683*
G37*
G36*
X03717Y04635D02*
X03675D01*
Y04592*
X03717*
Y04635*
G37*
G36*
X04464Y04616D02*
X04458D01*
X04453Y04614*
X04449Y0461*
X04447Y04605*
Y046*
X04449Y04595*
X04453Y04591*
X04458Y04589*
X04464*
X04469Y04591*
X04473Y04595*
X04475Y046*
Y04605*
X04473Y0461*
X04469Y04614*
X04464Y04616*
G37*
G36*
X04602Y04546D02*
X04596D01*
X04591Y04544*
X04587Y0454*
X04585Y04535*
Y04529*
X04587Y04524*
X04591Y0452*
X04596Y04518*
X04602*
X04607Y0452*
X04611Y04524*
X04613Y04529*
Y04535*
X04611Y0454*
X04607Y04544*
X04602Y04546*
G37*
G36*
X04694Y04536D02*
X04688D01*
X04683Y04534*
X04679Y0453*
X04677Y04525*
Y0452*
X04679Y04515*
X04683Y04511*
X04688Y04509*
X04694*
X04699Y04511*
X04703Y04515*
X04705Y0452*
Y04525*
X04703Y0453*
X04699Y04534*
X04694Y04536*
G37*
G36*
X04897Y04528D02*
X04892D01*
X04887Y04526*
X04883Y04522*
X04881Y04517*
Y04512*
X04883Y04507*
X04887Y04503*
X04892Y04501*
X04897*
X04902Y04503*
X04906Y04507*
X04908Y04512*
Y04517*
X04906Y04522*
X04902Y04526*
X04897Y04528*
G37*
G36*
X04254Y04528D02*
X04248D01*
X04243Y04525*
X04239Y04522*
X04237Y04516*
Y04511*
X04239Y04506*
X04243Y04502*
X04248Y045*
X04254*
X04259Y04502*
X04263Y04506*
X04265Y04511*
Y04516*
X04263Y04522*
X04259Y04525*
X04254Y04528*
G37*
G36*
X03137Y04503D02*
X03132D01*
X03127Y04501*
X03123Y04497*
X03121Y04492*
Y04487*
X03123Y04482*
X03127Y04478*
X03132Y04476*
X03137*
X03142Y04478*
X03146Y04482*
X03148Y04487*
Y04492*
X03146Y04497*
X03142Y04501*
X03137Y04503*
G37*
G36*
X04649Y04501D02*
X04643D01*
X04638Y04499*
X04634Y04495*
X04632Y0449*
Y04485*
X04634Y0448*
X04638Y04476*
X04643Y04474*
X04649*
X04654Y04476*
X04658Y0448*
X0466Y04485*
Y0449*
X04658Y04495*
X04654Y04499*
X04649Y04501*
G37*
G36*
X03676Y04507D02*
X03675D01*
Y04465*
X03717*
Y04466*
X03714Y04478*
X03708Y04489*
X03699Y04498*
X03688Y04504*
X03676Y04507*
G37*
G36*
X01095Y04539D02*
X01084D01*
X01075Y04537*
X01066Y04532*
X01059Y04524*
X01054Y04516*
X01051Y04506*
Y04496*
X01054Y04486*
X01059Y04477*
X01066Y0447*
X01075Y04465*
X01084Y04462*
X01095*
X01104Y04465*
X01113Y0447*
X0112Y04477*
X01125Y04486*
X01128Y04496*
Y04506*
X01125Y04516*
X0112Y04524*
X01113Y04532*
X01104Y04537*
X01095Y04539*
G37*
G36*
X04079Y04466D02*
X04073D01*
X04068Y04464*
X04064Y0446*
X04062Y04455*
Y0445*
X04064Y04445*
X04068Y04441*
X04073Y04439*
X04079*
X04084Y04441*
X04088Y04445*
X0409Y0445*
Y04455*
X04088Y0446*
X04084Y04464*
X04079Y04466*
G37*
G36*
X04259Y04465D02*
X04253D01*
X04248Y04462*
X04244Y04459*
X04242Y04453*
Y04448*
X04244Y04443*
X04248Y04439*
X04253Y04437*
X04259*
X04264Y04439*
X04268Y04443*
X0427Y04448*
Y04453*
X04268Y04459*
X04264Y04462*
X04259Y04465*
G37*
G36*
X03875Y04503D02*
X03864D01*
X03853Y045*
X03843Y04494*
X03835Y04486*
X03829Y04476*
X03826Y04465*
Y04454*
X03829Y04443*
X03835Y04433*
X03843Y04425*
X03853Y04419*
X03864Y04416*
X03875*
X03886Y04419*
X03896Y04425*
X03904Y04433*
X0391Y04443*
X03913Y04454*
Y04465*
X0391Y04476*
X03904Y04486*
X03896Y04494*
X03886Y045*
X03875Y04503*
G37*
G36*
X03717Y04455D02*
X03675D01*
Y04412*
X03676*
X03688Y04415*
X03699Y04422*
X03708Y0443*
X03714Y04441*
X03717Y04453*
Y04455*
G37*
G36*
X04539Y04426D02*
X04533D01*
X04528Y04424*
X04524Y0442*
X04522Y04415*
Y0441*
X04524Y04405*
X04528Y04401*
X04533Y04399*
X04539*
X04544Y04401*
X04548Y04405*
X0455Y0441*
Y04415*
X04548Y0442*
X04544Y04424*
X04539Y04426*
G37*
G36*
X04569Y04406D02*
X04563D01*
X04558Y04404*
X04554Y044*
X04552Y04395*
Y0439*
X04554Y04385*
X04558Y04381*
X04563Y04379*
X04569*
X04574Y04381*
X04578Y04385*
X0458Y0439*
Y04395*
X04578Y044*
X04574Y04404*
X04569Y04406*
G37*
G36*
X04694Y04396D02*
X04688D01*
X04683Y04394*
X04679Y0439*
X04677Y04385*
Y0438*
X04679Y04375*
X04683Y04371*
X04688Y04369*
X04694*
X04699Y04371*
X04703Y04375*
X04705Y0438*
Y04385*
X04703Y0439*
X04699Y04394*
X04694Y04396*
G37*
G36*
X04602Y04387D02*
X04596D01*
X04591Y04385*
X04587Y04381*
X04585Y04376*
Y04371*
X04587Y04366*
X04591Y04362*
X04596Y0436*
X04602*
X04607Y04362*
X04611Y04366*
X04613Y04371*
Y04376*
X04611Y04381*
X04607Y04385*
X04602Y04387*
G37*
G36*
X01095Y04401D02*
X01084D01*
X01075Y04399*
X01066Y04394*
X01059Y04387*
X01054Y04378*
X01051Y04368*
Y04358*
X01054Y04348*
X01059Y04339*
X01066Y04332*
X01075Y04327*
X01084Y04324*
X01095*
X01104Y04327*
X01113Y04332*
X0112Y04339*
X01125Y04348*
X01128Y04358*
Y04368*
X01125Y04378*
X0112Y04387*
X01113Y04394*
X01104Y04399*
X01095Y04401*
G37*
G36*
X04649Y04346D02*
X04643D01*
X04638Y04344*
X04634Y0434*
X04632Y04335*
Y0433*
X04634Y04325*
X04638Y04321*
X04643Y04319*
X04649*
X04654Y04321*
X04658Y04325*
X0466Y0433*
Y04335*
X04658Y0434*
X04654Y04344*
X04649Y04346*
G37*
G36*
X04537Y04343D02*
X04532D01*
X04527Y04341*
X04523Y04337*
X04521Y04332*
Y04327*
X04523Y04322*
X04527Y04318*
X04532Y04316*
X04537*
X04542Y04318*
X04546Y04322*
X04548Y04327*
Y04332*
X04546Y04337*
X04542Y04341*
X04537Y04343*
G37*
G36*
X04259Y04341D02*
X04253D01*
X04248Y04339*
X04244Y04335*
X04242Y0433*
Y04325*
X04244Y0432*
X04248Y04316*
X04253Y04314*
X04259*
X04264Y04316*
X04268Y0432*
X0427Y04325*
Y0433*
X04268Y04335*
X04264Y04339*
X04259Y04341*
G37*
G36*
X02972Y04323D02*
X02967D01*
X02962Y04321*
X02958Y04317*
X02956Y04312*
Y04307*
X02958Y04302*
X02962Y04298*
X02967Y04296*
X02972*
X02977Y04298*
X02981Y04302*
X02983Y04307*
Y04312*
X02981Y04317*
X02977Y04321*
X02972Y04323*
G37*
G36*
X04567Y04303D02*
X04562D01*
X04557Y04301*
X04553Y04297*
X04551Y04292*
Y04287*
X04553Y04282*
X04557Y04278*
X04562Y04276*
X04567*
X04572Y04278*
X04576Y04282*
X04578Y04287*
Y04292*
X04576Y04297*
X04572Y04301*
X04567Y04303*
G37*
G36*
X03717Y04257D02*
X03675D01*
Y04215*
X03717*
Y04257*
G37*
G36*
X01095Y04264D02*
X01084D01*
X01075Y04261*
X01066Y04256*
X01059Y04249*
X01054Y0424*
X01051Y0423*
Y0422*
X01054Y0421*
X01059Y04202*
X01066Y04194*
X01075Y04189*
X01084Y04187*
X01095*
X01104Y04189*
X01113Y04194*
X0112Y04202*
X01125Y0421*
X01128Y0422*
Y0423*
X01125Y0424*
X0112Y04249*
X01113Y04256*
X01104Y04261*
X01095Y04264*
G37*
G36*
X02982Y04211D02*
X02977D01*
X02972Y04209*
X02968Y04205*
X02966Y042*
Y04194*
X02968Y04189*
X02972Y04185*
X02977Y04183*
X02982*
X02987Y04185*
X02991Y04189*
X02993Y04194*
Y042*
X02991Y04205*
X02987Y04209*
X02982Y04211*
G37*
G36*
X03875Y04253D02*
X03864D01*
X03853Y0425*
X03843Y04244*
X03835Y04236*
X03829Y04226*
X03826Y04215*
Y04204*
X03829Y04193*
X03835Y04183*
X03843Y04175*
X03853Y04169*
X03864Y04166*
X03875*
X03886Y04169*
X03896Y04175*
X03904Y04183*
X0391Y04193*
X03913Y04204*
Y04215*
X0391Y04226*
X03904Y04236*
X03896Y04244*
X03886Y0425*
X03875Y04253*
G37*
G36*
X03717Y04205D02*
X03675D01*
Y04162*
X03717*
Y04205*
G37*
G36*
X0307Y04143D02*
X03065D01*
X03059Y04141*
X03056Y04137*
X03053Y04132*
Y04127*
X03056Y04122*
X03059Y04118*
X03065Y04116*
X0307*
X03075Y04118*
X03079Y04122*
X03081Y04127*
Y04132*
X03079Y04137*
X03075Y04141*
X0307Y04143*
G37*
G36*
X02907D02*
X02902D01*
X02897Y04141*
X02893Y04137*
X02891Y04132*
Y04127*
X02893Y04122*
X02897Y04118*
X02902Y04116*
X02907*
X02912Y04118*
X02916Y04122*
X02918Y04127*
Y04132*
X02916Y04137*
X02912Y04141*
X02907Y04143*
G37*
G36*
X04242Y04113D02*
X04237D01*
X04232Y04111*
X04228Y04107*
X04226Y04102*
Y04097*
X04228Y04092*
X04232Y04088*
X04237Y04086*
X04242*
X04247Y04088*
X04251Y04092*
X04253Y04097*
Y04102*
X04251Y04107*
X04247Y04111*
X04242Y04113*
G37*
G36*
X01095Y04126D02*
X01084D01*
X01075Y04123*
X01066Y04118*
X01059Y04111*
X01054Y04102*
X01051Y04092*
Y04082*
X01054Y04072*
X01059Y04064*
X01066Y04057*
X01075Y04051*
X01084Y04049*
X01095*
X01104Y04051*
X01113Y04057*
X0112Y04064*
X01125Y04072*
X01128Y04082*
Y04092*
X01125Y04102*
X0112Y04111*
X01113Y04118*
X01104Y04123*
X01095Y04126*
G37*
G36*
X04833Y04118D02*
X04762D01*
Y04047*
X04833*
Y04118*
G37*
G36*
X04372Y04021D02*
X04367D01*
X04362Y04019*
X04358Y04015*
X04356Y0401*
Y04005*
X04358Y04*
X04362Y03996*
X04367Y03993*
X04372*
X04377Y03996*
X04381Y04*
X04383Y04005*
Y0401*
X04381Y04015*
X04377Y04019*
X04372Y04021*
G37*
G36*
X04803Y04018D02*
X04793D01*
X04784Y04016*
X04776Y04011*
X0477Y04005*
X04765Y03997*
X04762Y03988*
Y03978*
X04765Y03969*
X0477Y03961*
X04776Y03955*
X04784Y0395*
X04793Y03947*
X04803*
X04812Y0395*
X0482Y03955*
X04826Y03961*
X04831Y03969*
X04833Y03978*
Y03988*
X04831Y03997*
X04826Y04005*
X0482Y04011*
X04812Y04016*
X04803Y04018*
G37*
G36*
X02407Y03968D02*
X02402D01*
X02397Y03966*
X02393Y03962*
X02391Y03957*
Y03952*
X02393Y03947*
X02397Y03943*
X02402Y03941*
X02407*
X02412Y03943*
X02416Y03947*
X02418Y03952*
Y03957*
X02416Y03962*
X02412Y03966*
X02407Y03968*
G37*
G36*
X01095Y03988D02*
X01084D01*
X01075Y03985*
X01066Y0398*
X01059Y03973*
X01054Y03964*
X01051Y03955*
Y03944*
X01054Y03935*
X01059Y03926*
X01066Y03919*
X01075Y03914*
X01084Y03911*
X01095*
X01104Y03914*
X01113Y03919*
X0112Y03926*
X01125Y03935*
X01128Y03944*
Y03955*
X01125Y03964*
X0112Y03973*
X01113Y0398*
X01104Y03985*
X01095Y03988*
G37*
G36*
X02467Y03863D02*
X02462D01*
X02457Y03861*
X02453Y03857*
X02451Y03852*
Y03847*
X02453Y03842*
X02457Y03838*
X02462Y03836*
X02467*
X02472Y03838*
X02476Y03842*
X02478Y03847*
Y03852*
X02476Y03857*
X02472Y03861*
X02467Y03863*
G37*
G36*
X04373Y03847D02*
X04367D01*
X04362Y03845*
X04358Y03841*
X04356Y03836*
Y0383*
X04358Y03825*
X04362Y03821*
X04367Y03819*
X04373*
X04378Y03821*
X04382Y03825*
X04384Y0383*
Y03836*
X04382Y03841*
X04378Y03845*
X04373Y03847*
G37*
G36*
X04833Y03878D02*
X04762D01*
Y03807*
X04833*
Y03878*
G37*
G36*
X01095Y0385D02*
X01084D01*
X01075Y03848*
X01066Y03843*
X01059Y03835*
X01054Y03827*
X01051Y03817*
Y03807*
X01054Y03797*
X01059Y03788*
X01066Y03781*
X01075Y03776*
X01084Y03773*
X01095*
X01104Y03776*
X01113Y03781*
X0112Y03788*
X01125Y03797*
X01128Y03807*
Y03817*
X01125Y03827*
X0112Y03835*
X01113Y03843*
X01104Y03848*
X01095Y0385*
G37*
G36*
X04803Y03778D02*
X04793D01*
X04784Y03776*
X04776Y03771*
X0477Y03765*
X04765Y03757*
X04762Y03748*
Y03738*
X04765Y03729*
X0477Y03721*
X04776Y03715*
X04784Y0371*
X04793Y03707*
X04803*
X04812Y0371*
X0482Y03715*
X04826Y03721*
X04831Y03729*
X04833Y03738*
Y03748*
X04831Y03757*
X04826Y03765*
X0482Y03771*
X04812Y03776*
X04803Y03778*
G37*
G36*
X01095Y03712D02*
X01084D01*
X01075Y0371*
X01066Y03705*
X01059Y03698*
X01054Y03689*
X01051Y03679*
Y03669*
X01054Y03659*
X01059Y0365*
X01066Y03643*
X01075Y03638*
X01084Y03635*
X01095*
X01104Y03638*
X01113Y03643*
X0112Y0365*
X01125Y03659*
X01128Y03669*
Y03679*
X01125Y03689*
X0112Y03698*
X01113Y03705*
X01104Y0371*
X01095Y03712*
G37*
G36*
X0173Y0373D02*
X015D01*
Y0348*
X0173*
Y0373*
G37*
G36*
X01122Y03453D02*
X01117D01*
X01112Y03451*
X01108Y03447*
X01106Y03442*
Y03437*
X01108Y03432*
X01112Y03428*
X01117Y03426*
X01122*
X01127Y03428*
X01131Y03432*
X01133Y03437*
Y03442*
X01131Y03447*
X01127Y03451*
X01122Y03453*
G37*
G36*
X01887Y03318D02*
X01882D01*
X01877Y03316*
X01873Y03312*
X01871Y03307*
Y03302*
X01873Y03297*
X01877Y03293*
X01882Y03291*
X01887*
X01892Y03293*
X01896Y03297*
X01898Y03302*
Y03307*
X01896Y03312*
X01892Y03316*
X01887Y03318*
G37*
G36*
X01125Y033D02*
Y03275D01*
X0115*
X01149Y03276*
X01144Y03286*
X01136Y03294*
X01126Y03299*
X01125Y033*
G37*
G36*
X01095D02*
X01093Y03299D01*
X01083Y03294*
X01076Y03286*
X0107Y03276*
X0107Y03275*
X01095*
Y033*
G37*
G36*
X03632Y03273D02*
X03627D01*
X03622Y03271*
X03618Y03267*
X03616Y03262*
Y03257*
X03618Y03252*
X03622Y03248*
X03627Y03246*
X03632*
X03637Y03248*
X03641Y03252*
X03643Y03257*
Y03262*
X03641Y03267*
X03637Y03271*
X03632Y03273*
G37*
G36*
X01015Y03298D02*
X01004D01*
X00995Y03295*
X00986Y0329*
X00979Y03283*
X00974Y03274*
X00971Y03265*
Y03254*
X00974Y03245*
X00979Y03236*
X00986Y03229*
X00995Y03224*
X01004Y03221*
X01015*
X01024Y03224*
X01033Y03229*
X0104Y03236*
X01045Y03245*
X01048Y03254*
Y03265*
X01045Y03274*
X0104Y03283*
X01033Y0329*
X01024Y03295*
X01015Y03298*
G37*
G36*
X0115Y03245D02*
X01125D01*
Y0322*
X01126Y0322*
X01136Y03226*
X01144Y03233*
X01149Y03243*
X0115Y03245*
G37*
G36*
X01095D02*
X0107D01*
X0107Y03243*
X01076Y03233*
X01083Y03226*
X01093Y0322*
X01095Y0322*
Y03245*
G37*
G36*
X02125Y03385D02*
X01915D01*
Y03195*
X02125*
Y03385*
G37*
G36*
X01125Y032D02*
Y03175D01*
X0115*
X01149Y03176*
X01144Y03186*
X01136Y03194*
X01126Y03199*
X01125Y032*
G37*
G36*
X01095D02*
X01093Y03199D01*
X01083Y03194*
X01076Y03186*
X0107Y03176*
X0107Y03175*
X01095*
Y032*
G37*
G36*
X01048Y03198D02*
X00971D01*
Y03121*
X01048*
Y03198*
G37*
G36*
X0115Y03145D02*
X01125D01*
Y0312*
X01126Y0312*
X01136Y03126*
X01144Y03133*
X01149Y03143*
X0115Y03145*
G37*
G36*
X01095D02*
X0107D01*
X0107Y03143*
X01076Y03133*
X01083Y03126*
X01093Y0312*
X01095Y0312*
Y03145*
G37*
G36*
X02942Y03128D02*
X02937D01*
X02932Y03126*
X02928Y03122*
X02926Y03117*
Y03112*
X02928Y03107*
X02932Y03103*
X02937Y03101*
X02942*
X02947Y03103*
X02951Y03107*
X02953Y03112*
Y03117*
X02951Y03122*
X02947Y03126*
X02942Y03128*
G37*
G36*
X01125Y02975D02*
Y0295D01*
X0115*
X01149Y02951*
X01144Y02961*
X01136Y02969*
X01126Y02974*
X01125Y02975*
G37*
G36*
X01025D02*
Y0295D01*
X0105*
X01049Y02951*
X01044Y02961*
X01036Y02969*
X01026Y02974*
X01025Y02975*
G37*
G36*
X01095D02*
X01093Y02974D01*
X01083Y02969*
X01076Y02961*
X0107Y02951*
X0107Y0295*
X01095*
Y02975*
G37*
G36*
X00995D02*
X00993Y02974D01*
X00983Y02969*
X00976Y02961*
X0097Y02951*
X0097Y0295*
X00995*
Y02975*
G37*
G36*
X0115Y0292D02*
X01125D01*
Y02895*
X01126Y02895*
X01136Y02901*
X01144Y02908*
X01149Y02918*
X0115Y0292*
G37*
G36*
X0105D02*
X01025D01*
Y02895*
X01026Y02895*
X01036Y02901*
X01044Y02908*
X01049Y02918*
X0105Y0292*
G37*
G36*
X01095D02*
X0107D01*
X0107Y02918*
X01076Y02908*
X01083Y02901*
X01093Y02895*
X01095Y02895*
Y0292*
G37*
G36*
X00995D02*
X0097D01*
X0097Y02918*
X00976Y02908*
X00983Y02901*
X00993Y02895*
X00995Y02895*
Y0292*
G37*
G36*
X01125Y02875D02*
Y0285D01*
X0115*
X01149Y02851*
X01144Y02861*
X01136Y02869*
X01126Y02874*
X01125Y02875*
G37*
G36*
X01025D02*
Y0285D01*
X0105*
X01049Y02851*
X01044Y02861*
X01036Y02869*
X01026Y02874*
X01025Y02875*
G37*
G36*
X01095D02*
X01093Y02874D01*
X01083Y02869*
X01076Y02861*
X0107Y02851*
X0107Y0285*
X01095*
Y02875*
G37*
G36*
X00995D02*
X00993Y02874D01*
X00983Y02869*
X00976Y02861*
X0097Y02851*
X0097Y0285*
X00995*
Y02875*
G37*
G36*
X0115Y0282D02*
X01125D01*
Y02795*
X01126Y02795*
X01136Y02801*
X01144Y02808*
X01149Y02818*
X0115Y0282*
G37*
G36*
X0105D02*
X01025D01*
Y02795*
X01026Y02795*
X01036Y02801*
X01044Y02808*
X01049Y02818*
X0105Y0282*
G37*
G36*
X01095D02*
X0107D01*
X0107Y02818*
X01076Y02808*
X01083Y02801*
X01093Y02795*
X01095Y02795*
Y0282*
G37*
G36*
X00995D02*
X0097D01*
X0097Y02818*
X00976Y02808*
X00983Y02801*
X00993Y02795*
X00995Y02795*
Y0282*
G37*
G36*
X01782Y02818D02*
X01777D01*
X01772Y02816*
X01768Y02812*
X01766Y02807*
Y02802*
X01768Y02797*
X01772Y02793*
X01777Y02791*
X01782*
X01787Y02793*
X01791Y02797*
X01793Y02802*
Y02807*
X01791Y02812*
X01787Y02816*
X01782Y02818*
G37*
G36*
X01115Y02773D02*
X01104D01*
X01095Y0277*
X01086Y02765*
X01079Y02758*
X01074Y02749*
X01071Y0274*
Y02729*
X01074Y0272*
X01079Y02711*
X01086Y02704*
X01095Y02699*
X01104Y02696*
X01115*
X01124Y02699*
X01133Y02704*
X0114Y02711*
X01145Y0272*
X01148Y02729*
Y0274*
X01145Y02749*
X0114Y02758*
X01133Y02765*
X01124Y0277*
X01115Y02773*
G37*
G36*
X01015D02*
X01004D01*
X00995Y0277*
X00986Y02765*
X00979Y02758*
X00974Y02749*
X00971Y0274*
Y02729*
X00974Y0272*
X00979Y02711*
X00986Y02704*
X00995Y02699*
X01004Y02696*
X01015*
X01024Y02699*
X01033Y02704*
X0104Y02711*
X01045Y0272*
X01048Y02729*
Y0274*
X01045Y02749*
X0104Y02758*
X01033Y02765*
X01024Y0277*
X01015Y02773*
G37*
G36*
X01115Y02673D02*
X01104D01*
X01095Y0267*
X01086Y02665*
X01079Y02658*
X01077Y02656*
X01048*
Y02673*
X00971*
Y02596*
X01048*
Y02613*
X01077*
X01079Y02611*
X01086Y02604*
X01095Y02599*
X01104Y02596*
X01115*
X01124Y02599*
X01133Y02604*
X0114Y02611*
X01145Y0262*
X01148Y02629*
Y0264*
X01145Y02649*
X0114Y02658*
X01133Y02665*
X01124Y0267*
X01115Y02673*
G37*
G36*
X01782Y02523D02*
X01777D01*
X01772Y02521*
X01768Y02517*
X01766Y02512*
Y02507*
X01768Y02502*
X01772Y02498*
X01777Y02496*
X01782*
X01787Y02498*
X01791Y02502*
X01793Y02507*
Y02512*
X01791Y02517*
X01787Y02521*
X01782Y02523*
G37*
G36*
X03102Y02513D02*
X03097D01*
X03092Y02511*
X03088Y02507*
X03086Y02502*
Y02497*
X03088Y02492*
X03092Y02488*
X03097Y02486*
X03102*
X03107Y02488*
X03111Y02492*
X03113Y02497*
Y02502*
X03111Y02507*
X03107Y02511*
X03102Y02513*
G37*
G36*
X01623Y02541D02*
X01618D01*
X01613Y02539*
X01609Y02535*
X01607Y0253*
Y02524*
X01609Y02519*
X01613Y02515*
X01617Y02513*
Y02509*
X01617Y02508*
X01612Y02506*
X01608Y02502*
X01606Y02497*
Y02492*
X01608Y02487*
X01612Y02483*
X01617Y02481*
X01622*
X01627Y02483*
X01631Y02487*
X01633Y02492*
Y02497*
X01631Y02502*
X01627Y02506*
X01623Y02508*
Y02512*
X01624Y02513*
X01628Y02515*
X01632Y02519*
X01634Y02524*
Y0253*
X01632Y02535*
X01628Y02539*
X01623Y02541*
G37*
G36*
X01622Y02473D02*
X01617D01*
X01612Y02471*
X01608Y02467*
X01606Y02462*
Y02457*
X01608Y02452*
X01612Y02448*
X01617Y02446*
X01622*
X01627Y02448*
X01631Y02452*
X01633Y02457*
Y02462*
X01631Y02467*
X01627Y02471*
X01622Y02473*
G37*
G36*
X0117Y02458D02*
X01069D01*
Y02358*
X0117*
Y02458*
G37*
G36*
X04067Y02317D02*
X0404D01*
Y0229*
X04067*
Y02317*
G37*
G36*
X0394Y02315D02*
Y0229D01*
X03965*
X03964Y02291*
X03959Y02301*
X03951Y02309*
X03941Y02314*
X0394Y02315*
G37*
G36*
X0374D02*
Y0229D01*
X03765*
X03764Y02291*
X03759Y02301*
X03751Y02309*
X03741Y02314*
X0374Y02315*
G37*
G36*
X0384D02*
Y0229D01*
X03865*
X03864Y02291*
X03859Y02301*
X03851Y02309*
X03841Y02314*
X0384Y02315*
G37*
G36*
X0391D02*
X03908Y02314D01*
X03898Y02309*
X03891Y02301*
X03885Y02291*
X03885Y0229*
X0391*
Y02315*
G37*
G36*
X0371D02*
X03708Y02314D01*
X03698Y02309*
X03691Y02301*
X03685Y02291*
X03685Y0229*
X0371*
Y02315*
G37*
G36*
X0381D02*
X03808Y02314D01*
X03798Y02309*
X03791Y02301*
X03785Y02291*
X03785Y0229*
X0381*
Y02315*
G37*
G36*
X0401Y02317D02*
X03982D01*
Y0229*
X0401*
Y02317*
G37*
G36*
X03965Y0226D02*
X0394D01*
Y02235*
X03941Y02235*
X03951Y02241*
X03959Y02248*
X03964Y02258*
X03965Y0226*
G37*
G36*
X03865D02*
X0384D01*
Y02235*
X03841Y02235*
X03851Y02241*
X03859Y02248*
X03864Y02258*
X03865Y0226*
G37*
G36*
X03765D02*
X0374D01*
Y02235*
X03741Y02235*
X03751Y02241*
X03759Y02248*
X03764Y02258*
X03765Y0226*
G37*
G36*
X0391D02*
X03885D01*
X03885Y02258*
X03891Y02248*
X03898Y02241*
X03908Y02235*
X0391Y02235*
Y0226*
G37*
G36*
X0381D02*
X03785D01*
X03785Y02258*
X03791Y02248*
X03798Y02241*
X03808Y02235*
X0381Y02235*
Y0226*
G37*
G36*
X0371D02*
X03685D01*
X03685Y02258*
X03691Y02248*
X03698Y02241*
X03708Y02235*
X0371Y02235*
Y0226*
G37*
G36*
X04067D02*
X0404D01*
Y02232*
X04067*
Y0226*
G37*
G36*
X0401D02*
X03982D01*
Y02232*
X0401*
Y0226*
G37*
G36*
X03064Y02268D02*
X03053D01*
X03044Y02265*
X03035Y0226*
X03028Y02253*
X03023Y02244*
X0302Y02235*
Y02224*
X03023Y02215*
X03028Y02206*
X03035Y02199*
X03044Y02194*
X03053Y02191*
X03064*
X03073Y02194*
X03082Y02199*
X03089Y02206*
X03094Y02215*
X03097Y02224*
Y02235*
X03094Y02244*
X03089Y02253*
X03082Y0226*
X03073Y02265*
X03064Y02268*
G37*
G36*
X02926D02*
X02916D01*
X02906Y02265*
X02897Y0226*
X0289Y02253*
X02885Y02244*
X02882Y02235*
Y02224*
X02885Y02215*
X0289Y02206*
X02897Y02199*
X02906Y02194*
X02916Y02191*
X02926*
X02936Y02194*
X02944Y02199*
X02952Y02206*
X02957Y02215*
X02959Y02224*
Y02235*
X02957Y02244*
X02952Y02253*
X02944Y0226*
X02936Y02265*
X02926Y02268*
G37*
G36*
X02788D02*
X02778D01*
X02768Y02265*
X02759Y0226*
X02752Y02253*
X02747Y02244*
X02744Y02235*
Y02224*
X02747Y02215*
X02752Y02206*
X02759Y02199*
X02768Y02194*
X02778Y02191*
X02788*
X02798Y02194*
X02807Y02199*
X02814Y02206*
X02819Y02215*
X02821Y02224*
Y02235*
X02819Y02244*
X02814Y02253*
X02807Y0226*
X02798Y02265*
X02788Y02268*
G37*
G36*
X0265D02*
X0264D01*
X0263Y02265*
X02622Y0226*
X02614Y02253*
X02609Y02244*
X02607Y02235*
Y02224*
X02609Y02215*
X02614Y02206*
X02622Y02199*
X0263Y02194*
X0264Y02191*
X0265*
X0266Y02194*
X02669Y02199*
X02676Y02206*
X02681Y02215*
X02684Y02224*
Y02235*
X02681Y02244*
X02676Y02253*
X02669Y0226*
X0266Y02265*
X0265Y02268*
G37*
G36*
X02512D02*
X02502D01*
X02492Y02265*
X02484Y0226*
X02477Y02253*
X02471Y02244*
X02469Y02235*
Y02224*
X02471Y02215*
X02477Y02206*
X02484Y02199*
X02492Y02194*
X02502Y02191*
X02512*
X02522Y02194*
X02531Y02199*
X02538Y02206*
X02543Y02215*
X02546Y02224*
Y02235*
X02543Y02244*
X02538Y02253*
X02531Y0226*
X02522Y02265*
X02512Y02268*
G37*
G36*
X02375D02*
X02364D01*
X02355Y02265*
X02346Y0226*
X02339Y02253*
X02334Y02244*
X02331Y02235*
Y02224*
X02334Y02215*
X02339Y02206*
X02346Y02199*
X02355Y02194*
X02364Y02191*
X02375*
X02384Y02194*
X02393Y02199*
X024Y02206*
X02405Y02215*
X02408Y02224*
Y02235*
X02405Y02244*
X024Y02253*
X02393Y0226*
X02384Y02265*
X02375Y02268*
G37*
G36*
X02237D02*
X02227D01*
X02217Y02265*
X02208Y0226*
X02201Y02253*
X02196Y02244*
X02193Y02235*
Y02224*
X02196Y02215*
X02201Y02206*
X02208Y02199*
X02217Y02194*
X02227Y02191*
X02237*
X02247Y02194*
X02255Y02199*
X02263Y02206*
X02268Y02215*
X0227Y02224*
Y02235*
X02268Y02244*
X02263Y02253*
X02255Y0226*
X02247Y02265*
X02237Y02268*
G37*
G36*
X02099D02*
X02089D01*
X02079Y02265*
X0207Y0226*
X02063Y02253*
X02058Y02244*
X02055Y02235*
Y02224*
X02058Y02215*
X02063Y02206*
X0207Y02199*
X02079Y02194*
X02089Y02191*
X02099*
X02109Y02194*
X02118Y02199*
X02125Y02206*
X0213Y02215*
X02132Y02224*
Y02235*
X0213Y02244*
X02125Y02253*
X02118Y0226*
X02109Y02265*
X02099Y02268*
G37*
G36*
X01961D02*
X01951D01*
X01941Y02265*
X01933Y0226*
X01925Y02253*
X0192Y02244*
X01918Y02235*
Y02224*
X0192Y02215*
X01925Y02206*
X01933Y02199*
X01941Y02194*
X01951Y02191*
X01961*
X01971Y02194*
X0198Y02199*
X01987Y02206*
X01992Y02215*
X01995Y02224*
Y02235*
X01992Y02244*
X01987Y02253*
X0198Y0226*
X01971Y02265*
X01961Y02268*
G37*
G36*
X01857D02*
X0178D01*
Y02191*
X01857*
Y02268*
G37*
G36*
X04822Y0227D02*
X04807D01*
X04793Y02267*
X04779Y02261*
X04767Y02253*
X04756Y02242*
X04748Y0223*
X04742Y02216*
X0474Y02202*
Y02187*
X04742Y02173*
X04748Y02159*
X04756Y02147*
X04767Y02136*
X04779Y02128*
X04793Y02122*
X04807Y0212*
X04822*
X04836Y02122*
X0485Y02128*
X04862Y02136*
X04873Y02147*
X04881Y02159*
X04887Y02173*
X0489Y02187*
Y02202*
X04887Y02216*
X04881Y0223*
X04873Y02242*
X04862Y02253*
X0485Y02261*
X04836Y02267*
X04822Y0227*
G37*
G36*
X03047Y04883D02*
X03042D01*
X03037Y04881*
X03033Y04877*
X03031Y04872*
Y04867*
X03033Y04862*
X03037Y04858*
X03042Y04856*
X03047*
X03052Y04858*
X03056Y04862*
X03058Y04867*
Y04872*
X03056Y04877*
X03052Y04881*
X03047Y04883*
G37*
G36*
X02047Y04853D02*
X02042D01*
X02037Y04851*
X02033Y04847*
X02031Y04842*
Y04837*
X02033Y04832*
X02037Y04828*
X02042Y04826*
X02047*
X02052Y04828*
X02056Y04832*
X02058Y04837*
Y04842*
X02056Y04847*
X02052Y04851*
X02047Y04853*
G37*
G36*
X03102Y04828D02*
X03097D01*
X03092Y04826*
X03088Y04822*
X03086Y04817*
Y04812*
X03088Y04807*
X03092Y04803*
X03097Y04801*
X03102*
X03107Y04803*
X03111Y04807*
X03113Y04812*
Y04817*
X03111Y04822*
X03107Y04826*
X03102Y04828*
G37*
G36*
X03322Y04793D02*
X03317D01*
X03312Y04791*
X03308Y04787*
X03306Y04782*
Y04777*
X03308Y04772*
X03312Y04768*
X03317Y04766*
X03322*
X03327Y04768*
X03331Y04772*
X03333Y04777*
Y04782*
X03331Y04787*
X03327Y04791*
X03322Y04793*
G37*
G36*
X03085Y03169D02*
X03079Y03168D01*
X03075Y03165*
X03071Y0316*
X0307Y03155*
X03071Y03149*
X03075Y03145*
X03079Y03141*
X03085Y0314*
X0309Y03141*
X03095Y03145*
X03098Y03149*
X03099Y03155*
X03098Y0316*
X03095Y03165*
X0309Y03168*
X03085Y03169*
G37*
G36*
X03895Y03084D02*
X03889Y03083D01*
X03885Y0308*
X03881Y03075*
X0388Y0307*
X03881Y03064*
X03885Y0306*
X03889Y03056*
X03895Y03055*
X039Y03056*
X03905Y0306*
X03908Y03064*
X03909Y0307*
X03908Y03075*
X03905Y0308*
X039Y03083*
X03895Y03084*
G37*
G36*
Y02904D02*
X03889Y02903D01*
X03885Y029*
X03881Y02895*
X0388Y0289*
X03881Y02884*
X03885Y0288*
X03889Y02876*
X03895Y02875*
X039Y02876*
X03905Y0288*
X03908Y02884*
X03909Y0289*
X03908Y02895*
X03905Y029*
X039Y02903*
X03895Y02904*
G37*
G36*
X04394Y03246D02*
Y03204D01*
X04436*
X04435Y03206*
X04431Y03217*
X04425Y03227*
X04417Y03235*
X04407Y03241*
X04396Y03245*
X04394Y03246*
G37*
G36*
X04364D02*
X04363Y03245D01*
X04352Y03241*
X04342Y03235*
X04334Y03227*
X04328Y03217*
X04324Y03206*
X04323Y03204*
X04364*
Y03246*
G37*
G36*
Y03174D02*
X04323D01*
X04324Y03173*
X04328Y03162*
X04334Y03152*
X04342Y03144*
X04352Y03138*
X04363Y03134*
X04364Y03133*
Y03174*
G37*
G36*
X04436D02*
X04394D01*
Y03133*
X04396Y03134*
X04407Y03138*
X04417Y03144*
X04425Y03152*
X04431Y03162*
X04435Y03173*
X04436Y03174*
G37*
G36*
X04697Y03181D02*
X04688D01*
X04679Y03179*
X0467Y03174*
X04664Y03168*
X04659Y03159*
X04656Y0315*
Y03141*
X04659Y03131*
X04664Y03123*
X0467Y03116*
X04679Y03112*
X04688Y03109*
X04697*
X04706Y03112*
X04715Y03116*
X04721Y03123*
X04726Y03131*
X04729Y03141*
Y0315*
X04726Y03159*
X04721Y03168*
X04715Y03174*
X04706Y03179*
X04697Y03181*
G37*
G36*
X04155Y03097D02*
Y03064D01*
X04187*
X04185Y03074*
X0418Y03082*
X04173Y03089*
X04164Y03094*
X04155Y03097*
G37*
G36*
X04145D02*
X04135Y03094D01*
X04127Y03089*
X0412Y03082*
X04115Y03074*
X04112Y03064*
X04145*
Y03097*
G37*
G36*
X04506Y0318D02*
X04493D01*
X04479Y03177*
X04466Y03172*
X04455Y03164*
X04445Y03154*
X04438Y03143*
X04432Y0313*
X0443Y03116*
Y03103*
X04432Y03089*
X04438Y03076*
X04445Y03065*
X04455Y03055*
X04466Y03048*
X04479Y03042*
X04493Y0304*
X04506*
X0452Y03042*
X04533Y03048*
X04544Y03055*
X04554Y03065*
X04562Y03076*
X04567Y03089*
X0457Y03103*
Y03116*
X04567Y0313*
X04562Y03143*
X04554Y03154*
X04544Y03164*
X04533Y03172*
X0452Y03177*
X04506Y0318*
G37*
G36*
X04187Y03054D02*
X04155D01*
Y03022*
X04164Y03024*
X04173Y03029*
X0418Y03036*
X04185Y03045*
X04187Y03054*
G37*
G36*
X04145D02*
X04112D01*
X04115Y03045*
X0412Y03036*
X04127Y03029*
X04135Y03024*
X04145Y03022*
Y03054*
G37*
G36*
X04697Y03081D02*
X04688D01*
X04679Y03079*
X0467Y03074*
X04664Y03068*
X04659Y03059*
X04656Y0305*
Y03041*
X04659Y03031*
X04664Y03023*
X0467Y03016*
X04679Y03012*
X04688Y03009*
X04697*
X04706Y03012*
X04715Y03016*
X04721Y03023*
X04726Y03031*
X04729Y03041*
Y0305*
X04726Y03059*
X04721Y03068*
X04715Y03074*
X04706Y03079*
X04697Y03081*
G37*
G36*
X04254Y03043D02*
X04245D01*
X04237Y03041*
X04229Y03036*
X04223Y0303*
X04218Y03022*
X04216Y03014*
Y03005*
X04218Y02996*
X04223Y02989*
X04229Y02983*
X04237Y02978*
X04245Y02976*
X04254*
X04262Y02978*
X0427Y02983*
X04276Y02989*
X04281Y02996*
X04283Y03005*
Y03014*
X04281Y03022*
X04276Y0303*
X0427Y03036*
X04262Y03041*
X04254Y03043*
G37*
G36*
X04154Y02993D02*
X04145D01*
X04137Y02991*
X04129Y02986*
X04123Y0298*
X04118Y02972*
X04116Y02964*
Y02955*
X04118Y02946*
X04123Y02939*
X04129Y02933*
X04137Y02928*
X04145Y02926*
X04154*
X04162Y02928*
X0417Y02933*
X04176Y02939*
X04181Y02946*
X04183Y02955*
Y02964*
X04181Y02972*
X04176Y0298*
X0417Y02986*
X04162Y02991*
X04154Y02993*
G37*
G36*
X04254Y02943D02*
X04245D01*
X04237Y02941*
X04229Y02936*
X04223Y0293*
X04218Y02922*
X04216Y02914*
Y02905*
X04218Y02896*
X04223Y02889*
X04229Y02883*
X04237Y02878*
X04245Y02876*
X04254*
X04262Y02878*
X0427Y02883*
X04276Y02889*
X04281Y02896*
X04283Y02905*
Y02914*
X04281Y02922*
X04276Y0293*
X0427Y02936*
X04262Y02941*
X04254Y02943*
G37*
G36*
X04154Y02893D02*
X04145D01*
X04137Y02891*
X04129Y02886*
X04123Y0288*
X04118Y02872*
X04116Y02864*
Y02855*
X04118Y02846*
X04123Y02839*
X04129Y02833*
X04137Y02828*
X04145Y02826*
X04154*
X04162Y02828*
X0417Y02833*
X04176Y02839*
X04181Y02846*
X04183Y02855*
Y02864*
X04181Y02872*
X04176Y0288*
X0417Y02886*
X04162Y02891*
X04154Y02893*
G37*
G36*
X04254Y02843D02*
X04245D01*
X04237Y02841*
X04229Y02836*
X04223Y0283*
X04218Y02822*
X04216Y02814*
Y02805*
X04218Y02796*
X04223Y02789*
X04229Y02783*
X04237Y02778*
X04245Y02776*
X04254*
X04262Y02778*
X0427Y02783*
X04276Y02789*
X04281Y02796*
X04283Y02805*
Y02814*
X04281Y02822*
X04276Y0283*
X0427Y02836*
X04262Y02841*
X04254Y02843*
G37*
G36*
X04154Y02793D02*
X04145D01*
X04137Y02791*
X04129Y02786*
X04123Y0278*
X04118Y02772*
X04116Y02764*
Y02755*
X04118Y02746*
X04123Y02739*
X04129Y02733*
X04137Y02728*
X04145Y02726*
X04154*
X04162Y02728*
X0417Y02733*
X04176Y02739*
X04181Y02746*
X04183Y02755*
Y02764*
X04181Y02772*
X04176Y0278*
X0417Y02786*
X04162Y02791*
X04154Y02793*
G37*
G36*
X04697Y0276D02*
X04688D01*
X04679Y02757*
X0467Y02753*
X04664Y02746*
X04659Y02738*
X04656Y02728*
Y02719*
X04659Y0271*
X04664Y02702*
X0467Y02695*
X04679Y0269*
X04688Y02688*
X04697*
X04706Y0269*
X04715Y02695*
X04721Y02702*
X04726Y0271*
X04729Y02719*
Y02728*
X04726Y02738*
X04721Y02746*
X04715Y02753*
X04706Y02757*
X04697Y0276*
G37*
G36*
X04254Y02743D02*
X04245D01*
X04237Y02741*
X04229Y02736*
X04223Y0273*
X04218Y02722*
X04216Y02714*
Y02705*
X04218Y02696*
X04223Y02689*
X04229Y02683*
X04237Y02678*
X04245Y02676*
X04254*
X04262Y02678*
X0427Y02683*
X04276Y02689*
X04281Y02696*
X04283Y02705*
Y02714*
X04281Y02722*
X04276Y0273*
X0427Y02736*
X04262Y02741*
X04254Y02743*
G37*
G36*
X04394Y02636D02*
Y02595D01*
X04436*
X04435Y02597*
X04431Y02607*
X04425Y02617*
X04417Y02625*
X04407Y02631*
X04396Y02636*
X04394Y02636*
G37*
G36*
X04364D02*
X04363Y02636D01*
X04352Y02631*
X04342Y02625*
X04334Y02617*
X04328Y02607*
X04324Y02597*
X04323Y02595*
X04364*
Y02636*
G37*
G36*
X04506Y0273D02*
X04493D01*
X04479Y02727*
X04466Y02722*
X04455Y02714*
X04445Y02704*
X04438Y02693*
X04432Y0268*
X0443Y02666*
Y02653*
X04432Y02639*
X04438Y02626*
X04445Y02615*
X04455Y02605*
X04466Y02598*
X04479Y02592*
X04493Y0259*
X04506*
X0452Y02592*
X04533Y02598*
X04544Y02605*
X04554Y02615*
X04562Y02626*
X04567Y02639*
X0457Y02653*
Y02666*
X04567Y0268*
X04562Y02693*
X04554Y02704*
X04544Y02714*
X04533Y02722*
X0452Y02727*
X04506Y0273*
G37*
G36*
X04697Y0266D02*
X04688D01*
X04679Y02657*
X0467Y02653*
X04664Y02646*
X04659Y02638*
X04656Y02628*
Y02619*
X04659Y0261*
X04664Y02602*
X0467Y02595*
X04679Y0259*
X04688Y02588*
X04697*
X04706Y0259*
X04715Y02595*
X04721Y02602*
X04726Y0261*
X04729Y02619*
Y02628*
X04726Y02638*
X04721Y02646*
X04715Y02653*
X04706Y02657*
X04697Y0266*
G37*
G36*
X04364Y02565D02*
X04323D01*
X04324Y02563*
X04328Y02552*
X04334Y02543*
X04342Y02534*
X04352Y02528*
X04363Y02524*
X04364Y02523*
Y02565*
G37*
G36*
X04436D02*
X04394D01*
Y02523*
X04396Y02524*
X04407Y02528*
X04417Y02534*
X04425Y02543*
X04431Y02552*
X04435Y02563*
X04436Y02565*
G37*
%LNv1.0-3*%
%LPD*%
G54D10*
X03155Y03265D02*
X03265D01*
X03515*
Y0341*
Y032D02*
Y03265D01*
X03785Y0265D02*
Y0283D01*
X03515Y02845D02*
X0353Y0283D01*
X03785*
X03515Y0308D02*
Y032D01*
Y02845D02*
Y0308D01*
X03505Y0342D02*
X03515Y0341D01*
X0343Y0342D02*
X03505D01*
G54D106*
X0101Y02635D02*
X0111D01*
X0148Y028D02*
X01501Y02778D01*
Y02752D02*
X01523Y0273D01*
X0155*
X01501Y02752D02*
Y02778D01*
X01195Y0286D02*
Y04915D01*
X01255Y028D02*
X0148D01*
X01195Y0286D02*
X01255Y028D01*
X0304Y049D02*
X0311D01*
X0182D02*
X0304D01*
X03906Y04974D02*
X03985Y04895D01*
X01254Y04974D02*
X03906D01*
X01195Y04915D02*
X01254Y04974D01*
X03575Y0481D02*
X0369D01*
X0357Y02175D02*
X03725D01*
X03405Y0234D02*
X0357Y02175D01*
X025Y0234D02*
X03405D01*
X02475Y02365D02*
X025Y0234D01*
X02475Y02365D02*
Y0368D01*
X0241Y03745D02*
X02475Y0368D01*
X02055Y03745D02*
X0208D01*
X0203D02*
X02055D01*
X02005D02*
X0203D01*
X0194D02*
X02005D01*
X0208D02*
X0241D01*
X03925Y02275D02*
X04025D01*
X03825D02*
X03925D01*
X03725D02*
X03825D01*
X03925Y02175D02*
X04025D01*
X03825D02*
X03925D01*
X03725D02*
X03825D01*
X01765Y04845D02*
X0182Y049D01*
X0311D02*
X0319Y0482D01*
X03575Y04365D02*
Y0482D01*
Y04365D02*
D01*
X03695*
X03575Y0411D02*
Y04365D01*
Y039D02*
Y0411D01*
Y03595D02*
Y039D01*
Y03595D02*
X0373Y0344D01*
X01765Y0392D02*
Y04845D01*
Y0392D02*
X0194Y03745D01*
X0354Y0482D02*
X03575D01*
X03365D02*
X0354D01*
X0319D02*
X03365D01*
X03985Y04605D02*
X04025Y04565D01*
X03985Y04605D02*
Y04895D01*
X04025Y04565D02*
X04419D01*
G54D108*
X0415Y03059D03*
G54D111*
X04379Y03189D03*
Y0258D03*
G54D113*
X0112Y02211D03*
G54D114*
X0111Y0326D03*
Y0316D03*
Y02635D03*
X0101Y02835D03*
Y02935D03*
X0111Y02835D03*
Y02935D03*
X03725Y02175D03*
X03825D03*
X03725Y02275D03*
X03825D03*
X04025Y02175D03*
X03925Y02275D03*
Y02175D03*
G54D115*
X0101Y02635D03*
G54D116*
X04025Y02275D03*
G54D117*
X04523Y04783D03*
X0423D03*
G54D118*
X04529Y04933D03*
X04224D03*
G54D121*
X0367Y0489D03*
Y0446D03*
G54D122*
X0367Y0464D03*
Y0421D03*
G54D125*
X01339Y03389D03*
X015Y03286D03*
X0185Y034D03*
X018Y035D03*
X0195Y034D03*
X017Y039D03*
X019D03*
X015D03*
X016D03*
X0335Y0467D03*
X0175Y024D03*
X0115Y026D03*
X014Y029D03*
X03413Y047D03*
X03Y043D03*
X03567Y02217D03*
X035Y023D03*
X0365Y02203D03*
X03602Y02302D03*
X0355Y024D03*
X034Y023D03*
X02446Y03599D03*
X02503Y035D03*
X02446Y034D03*
Y026D03*
Y024D03*
X025Y037D03*
X024D03*
Y035D03*
Y033D03*
Y031D03*
X0255Y034D03*
Y036D03*
X0275D03*
X0485Y048D03*
X048Y047D03*
X0485Y046D03*
X048Y043D03*
X0485Y042D03*
Y04D03*
X048Y039D03*
X0485Y038D03*
X048Y037D03*
X0485Y036D03*
X048Y035D03*
Y023D03*
Y021D03*
X047Y049D03*
X0475Y048D03*
X047Y047D03*
X0475Y042D03*
X047Y041D03*
X0475Y04D03*
X047Y037D03*
X0475Y036D03*
X047Y035D03*
X0475Y034D03*
X047Y023D03*
Y021D03*
X046Y049D03*
X0465Y048D03*
X046Y047D03*
Y043D03*
X0465Y042D03*
X046Y041D03*
X0465Y038D03*
X046Y037D03*
X0465Y036D03*
X046Y035D03*
X0465Y034D03*
X046Y023D03*
X0465Y022D03*
X046Y021D03*
X045Y047D03*
X0455Y046D03*
X045Y045D03*
Y043D03*
X0455Y042D03*
X045Y041D03*
X0455Y038D03*
X045Y037D03*
X0455Y036D03*
X045Y035D03*
X0455Y034D03*
Y022D03*
X045Y021D03*
X044Y049D03*
X0445Y042D03*
X044Y041D03*
X0445Y04D03*
Y038D03*
X044Y037D03*
X0445Y036D03*
X044Y035D03*
X0445Y034D03*
X044Y023D03*
X0445Y022D03*
X044Y021D03*
X043Y049D03*
Y047D03*
Y045D03*
Y043D03*
X0435Y042D03*
X043Y041D03*
X0435Y038D03*
X043Y037D03*
X0435Y036D03*
X043Y035D03*
X0435Y034D03*
X043Y023D03*
X0435Y022D03*
X043Y021D03*
X042Y047D03*
X0425Y046D03*
Y042D03*
X042Y037D03*
X0425Y036D03*
X042Y035D03*
X0425Y034D03*
X042Y023D03*
X0425Y022D03*
X042Y021D03*
X041Y049D03*
X0415Y048D03*
X041Y047D03*
X0415Y046D03*
X041Y043D03*
X0415Y042D03*
Y038D03*
X041Y037D03*
X0415Y036D03*
X041Y035D03*
X0415Y034D03*
X041Y023D03*
X0415Y022D03*
X041Y021D03*
X0405Y048D03*
Y046D03*
X04Y045D03*
X0405Y044D03*
X04Y043D03*
X0405Y042D03*
X04Y039D03*
X0405Y038D03*
X04Y037D03*
X0405Y036D03*
X04Y035D03*
X0405Y034D03*
X04Y021D03*
X039Y047D03*
X0395Y044D03*
X039Y043D03*
X0395Y04D03*
Y038D03*
X039Y037D03*
X0395Y036D03*
X039Y035D03*
X0395Y034D03*
X039Y021D03*
X038Y049D03*
X0385Y048D03*
X038Y047D03*
Y045D03*
X0385Y044D03*
Y038D03*
X038Y037D03*
X0385Y036D03*
X038Y035D03*
X0385Y034D03*
Y032D03*
Y024D03*
X038Y021D03*
X037Y047D03*
X0375Y046D03*
Y044D03*
X037Y043D03*
X0375Y042D03*
X037Y037D03*
X0375Y036D03*
Y024D03*
X037Y021D03*
X036Y049D03*
X0365Y044D03*
Y036D03*
Y024D03*
X036Y021D03*
X035Y049D03*
Y047D03*
Y045D03*
Y043D03*
Y041D03*
Y039D03*
Y037D03*
Y035D03*
Y021D03*
X034Y049D03*
X0345Y046D03*
Y044D03*
Y042D03*
X034Y041D03*
X0345Y04D03*
X034Y039D03*
Y037D03*
X0345Y036D03*
X034Y035D03*
Y025D03*
X0345Y024D03*
Y022D03*
X034Y021D03*
X0335Y046D03*
X033Y043D03*
Y041D03*
Y039D03*
X0335Y038D03*
X033Y037D03*
X0335Y036D03*
X033Y035D03*
X0335Y024D03*
Y022D03*
X033Y021D03*
X032Y047D03*
Y045D03*
X0325Y044D03*
X032Y043D03*
X0325Y042D03*
X032Y041D03*
X0325Y04D03*
X032Y039D03*
X0325Y038D03*
X032Y037D03*
X0325Y036D03*
X032Y035D03*
X0325Y026D03*
Y024D03*
X032Y023D03*
Y021D03*
X031Y047D03*
X0315Y044D03*
X031Y043D03*
X0315Y042D03*
X031Y041D03*
X0315Y04D03*
X031Y039D03*
X0315Y038D03*
X031Y037D03*
X0315Y036D03*
X031Y035D03*
X0315Y024D03*
X031Y023D03*
X0315Y022D03*
X031Y021D03*
X03Y047D03*
X0305Y044D03*
Y042D03*
X03Y035D03*
X0305Y026D03*
X03Y025D03*
Y023D03*
Y021D03*
X029Y047D03*
X0295Y044D03*
X029Y041D03*
Y033D03*
Y031D03*
Y027D03*
Y025D03*
X0295Y024D03*
X029Y023D03*
Y021D03*
X028Y047D03*
Y045D03*
Y043D03*
Y041D03*
X0285Y04D03*
X028Y039D03*
X0285Y038D03*
X028Y037D03*
X0285Y036D03*
X028Y033D03*
X0285Y032D03*
X028Y031D03*
X0285Y028D03*
X028Y027D03*
X0285Y024D03*
Y022D03*
X028Y021D03*
X027Y047D03*
X0275Y046D03*
X027Y045D03*
X0275Y044D03*
X027Y043D03*
X0275Y042D03*
X027Y041D03*
X0275Y038D03*
Y034D03*
Y032D03*
X027Y031D03*
X0275Y028D03*
X027Y027D03*
X0275Y026D03*
X027Y025D03*
X0275Y024D03*
X027Y023D03*
Y021D03*
X026Y047D03*
X0265Y046D03*
X026Y045D03*
X0265Y044D03*
X026Y043D03*
X0265Y042D03*
X026Y041D03*
X0265Y028D03*
X026Y027D03*
Y025D03*
Y023D03*
Y021D03*
X0255Y046D03*
X025Y045D03*
X0255Y044D03*
X025Y043D03*
X0255Y042D03*
X025Y041D03*
Y039D03*
X0255Y038D03*
Y032D03*
Y024D03*
Y022D03*
X025Y021D03*
X024Y045D03*
X0245Y044D03*
X024Y043D03*
X0245Y042D03*
X024Y041D03*
X0245Y038D03*
X024Y029D03*
Y027D03*
Y025D03*
Y023D03*
X0245Y022D03*
X024Y021D03*
X023Y047D03*
X0235Y046D03*
X023Y045D03*
X0235Y044D03*
X023Y043D03*
X0235Y042D03*
X023Y041D03*
Y021D03*
X022Y047D03*
X0225Y046D03*
X022Y045D03*
X0225Y044D03*
X022Y043D03*
X0225Y042D03*
X022Y041D03*
Y039D03*
X0225Y038D03*
X022Y037D03*
Y035D03*
Y033D03*
Y031D03*
Y029D03*
Y027D03*
Y023D03*
Y021D03*
X0215Y04D03*
Y036D03*
Y034D03*
Y032D03*
X021Y031D03*
X0215Y03D03*
X021Y029D03*
X0215Y028D03*
X021Y027D03*
X0215Y026D03*
X021Y023D03*
X0215Y022D03*
X021Y021D03*
X02Y047D03*
X0205Y044D03*
X02Y041D03*
Y039D03*
Y031D03*
X0205Y03D03*
X02Y029D03*
X0205Y028D03*
X02Y027D03*
X0205Y026D03*
X02Y025D03*
X0205Y024D03*
Y022D03*
X02Y021D03*
X0195Y048D03*
X019Y047D03*
X0195Y044D03*
X019Y041D03*
X0195Y04D03*
Y036D03*
X019Y035D03*
Y031D03*
X0195Y03D03*
X019Y029D03*
X0195Y028D03*
X019Y027D03*
X0195Y026D03*
X019Y025D03*
X0195Y024D03*
X019Y021D03*
X018Y037D03*
Y031D03*
X0185Y03D03*
X018Y029D03*
Y027D03*
X0185Y026D03*
Y024D03*
X018Y023D03*
Y021D03*
X017Y047D03*
Y041D03*
X0175Y038D03*
Y036D03*
X017Y029D03*
Y027D03*
X0175Y026D03*
X017Y025D03*
Y023D03*
X0175Y022D03*
X017Y021D03*
X0165Y048D03*
X016Y047D03*
X0165Y044D03*
X016Y041D03*
X0165Y04D03*
Y038D03*
Y032D03*
X016Y031D03*
X0165Y03D03*
X016Y029D03*
Y023D03*
Y021D03*
X0155Y048D03*
X015Y047D03*
X0155Y044D03*
Y042D03*
Y04D03*
Y038D03*
Y032D03*
X015Y031D03*
X0155Y03D03*
X015Y029D03*
Y023D03*
X0145Y048D03*
X014Y047D03*
X0145Y044D03*
X014Y043D03*
X0145Y042D03*
Y04D03*
Y038D03*
Y036D03*
Y026D03*
X014Y021D03*
X0135Y044D03*
Y04D03*
X013Y021D03*
X0125Y022D03*
X012Y021D03*
X0115Y048D03*
X011Y047D03*
Y043D03*
X0115Y042D03*
X011Y039D03*
X0115Y038D03*
Y034D03*
Y032D03*
X011Y031D03*
X0115Y03D03*
X011Y025D03*
Y023D03*
Y021D03*
X01Y049D03*
Y047D03*
X0105Y046D03*
X01Y045D03*
X0105Y044D03*
X01Y043D03*
X0105Y042D03*
X01Y041D03*
X0105Y04D03*
X01Y039D03*
Y037D03*
X0105Y036D03*
X01Y031D03*
X0105Y03D03*
Y028D03*
X01Y025D03*
Y023D03*
X0105Y022D03*
X01Y021D03*
X01522Y02731D03*
X01577D03*
X0155D03*
X03365Y0482D03*
X0304Y049D03*
X03045Y03965D03*
X0296D03*
X03D03*
X02905Y0416D03*
X03045Y04095D03*
Y0364D03*
X03Y0361D03*
X0296Y0359D03*
X02945Y04335D03*
Y04285D03*
X0292Y0422D03*
X0369Y0481D03*
X04916Y03294D03*
X04914Y03213D03*
Y03071D03*
Y02858D03*
X04915Y02575D03*
X0436Y02465D03*
X04498Y02465D03*
X04619Y0246D03*
X04775Y0246D03*
X04894Y02467D03*
X04206Y0246D03*
X0408Y0246D03*
X04Y0253D03*
X04005Y02915D03*
Y0298D03*
X04002Y02825D03*
X04005Y0274D03*
X04003Y02636D03*
Y03071D03*
X04005Y0318D03*
Y0331D03*
X03925Y02665D03*
X03928Y02614D03*
X03927Y02567D03*
X03888Y02609D03*
X03552Y0263D03*
X03462Y02634D03*
X0355Y02553D03*
X03145Y0288D03*
X0301Y0309D03*
X03002Y03189D03*
X03005Y0326D03*
X03003Y03335D03*
X03005Y0338D03*
X0359Y0304D03*
X03495Y0275D03*
X03455Y0288D03*
X0347Y0297D03*
X03795Y0298D03*
X0368Y0274D03*
X03685Y02445D03*
X0355Y03265D03*
X0368Y03132D03*
X03745Y0313D03*
X03895D03*
X03925Y0304D03*
X0392Y02979D03*
X03921Y02918D03*
X03925Y02835D03*
Y028D03*
Y0274D03*
X03355Y0262D03*
X0342Y02545D03*
X0352Y0245D03*
X03855Y02445D03*
X0318Y02685D03*
X0313D03*
X03025D03*
X0306D03*
X03005Y02715D03*
Y0278D03*
X0268Y0283D03*
X02715D03*
X02825Y02835D03*
X0286Y0287D03*
X0287Y0303D03*
X0264D03*
X0268Y03065D03*
X0264Y0306D03*
Y02855D03*
X0265Y0283D03*
X0208Y0377D03*
X02055D03*
X0203D03*
X02005D03*
Y03745D03*
X0203D03*
X02055D03*
X0267Y0286D03*
X03245Y0297D03*
X03415Y0285D03*
X03245Y0314D03*
X03305Y02675D03*
X0348Y0289D03*
X03185Y0314D03*
X03285D03*
X0337Y03283D03*
X0321Y0396D03*
X046Y03845D03*
X0449Y04065D03*
Y0378D03*
X04285D03*
X0304Y04765D03*
X0276Y0396D03*
X0337D03*
X042Y0463D03*
X043D03*
X03685Y0396D03*
X0385Y0407D03*
X03575Y0411D03*
Y039D03*
X0373Y0344D03*
X0241Y03745D03*
X01765Y04845D03*
X03695Y04365D03*
X0354Y0482D03*
X0319D03*
X0208Y03745D03*
X03875Y0247D03*
X04025Y04565D03*
X04421Y04566D03*
X03155Y03265D03*
X03785Y0283D03*
Y0265D03*
X03515Y0308D03*
Y032D03*
Y02845D03*
X0343Y0342D03*
X03265Y03265D03*
G54D126*
X04435Y04349D03*
X04348D03*
X04435Y04436D03*
Y04392D03*
X04348Y04436D03*
Y04392D03*
X04392Y04349D03*
Y04436D03*
Y04392D03*
M02*