%FSTAX23Y23*%
%MOIN*%
%SFA1B1*%

%IPPOS*%
%ADD20C,0.063000*%
%ADD21R,0.052800X0.031500*%
%ADD22R,0.015700X0.031500*%
%ADD23R,0.031500X0.037400*%
%ADD24R,0.157500X0.157500*%
%ADD25R,0.059100X0.039400*%
%ADD26R,0.039400X0.059100*%
%ADD27R,0.031500X0.031500*%
%ADD28R,0.017700X0.051200*%
%ADD29R,0.021700X0.035400*%
%ADD30R,0.035400X0.021700*%
%ADD31R,0.031500X0.031500*%
%ADD32R,0.216500X0.084600*%
%ADD33R,0.124000X0.063000*%
%ADD34R,0.068900X0.177200*%
%ADD35R,0.070900X0.173200*%
%ADD36R,0.076800X0.049200*%
%ADD37R,0.061000X0.126400*%
%ADD38R,0.049200X0.031500*%
%ADD39O,0.023600X0.057100*%
%ADD40R,0.037400X0.031500*%
%ADD41O,0.059100X0.023600*%
%ADD42O,0.057100X0.011800*%
%ADD43O,0.011800X0.057100*%
%ADD44R,0.039400X0.023600*%
%ADD45R,0.061000X0.082700*%
%ADD46R,0.050000X0.055000*%
%ADD47R,0.082700X0.061000*%
%ADD48O,0.041300X0.009800*%
%ADD49O,0.009800X0.041300*%
%ADD50R,0.123200X0.123200*%
%ADD51R,0.031500X0.015700*%
%ADD52R,0.045300X0.055100*%
%LNv1.0-1*%
%LPD*%
G54D20*
X01485Y0216D03*
X01445Y0491D03*
X0167D03*
X01835Y0251D03*
X04505Y02255D03*
X01835Y0281D03*
X03305Y0226D03*
X0465Y0472D03*
G54D21*
X0356Y03385D03*
Y03304D03*
G54D22*
X04584Y03965D03*
X0461D03*
X04635D03*
Y03881D03*
X04584D03*
X0461D03*
X04076Y04593D03*
Y04502D03*
G54D23*
X02409Y039D03*
X02465D03*
X03Y049D03*
X02945D03*
X01862Y0484D03*
X01917D03*
X03Y0478D03*
X02945D03*
X04377Y03893D03*
X04432D03*
X04377Y03953D03*
X04432D03*
X04144Y04447D03*
X04199D03*
X04144Y04327D03*
X04199D03*
X01009Y03439D03*
X01065D03*
G54D24*
X02447Y04642D03*
G54D25*
X02849Y0496D03*
X0214D03*
Y049D03*
Y04841D03*
Y04782D03*
Y04723D03*
Y04664D03*
Y04605D03*
Y04546D03*
Y04487D03*
Y04428D03*
Y04369D03*
Y0431D03*
Y04251D03*
Y04192D03*
Y04133D03*
Y04074D03*
X02849Y049D03*
Y04841D03*
Y04782D03*
Y04723D03*
Y04664D03*
Y04605D03*
Y04546D03*
Y04487D03*
Y04428D03*
Y04369D03*
Y0431D03*
Y04251D03*
Y04192D03*
Y04133D03*
Y04074D03*
G54D26*
X02229Y0403D03*
X02288D03*
X02347D03*
X02406D03*
X0276D03*
X02701D03*
X02642D03*
X02583D03*
X02524D03*
X02465D03*
G54D27*
X03795Y0313D03*
X03855D03*
X03739Y0295D03*
X0368D03*
X03619Y0319D03*
X0356D03*
X03619Y0283D03*
X0356D03*
X03935Y0247D03*
X03995D03*
X01853Y04775D03*
X01916D03*
X03004Y0484D03*
X02945D03*
X04115Y0412D03*
X04174D03*
X03619Y0289D03*
X0356D03*
X03619Y0307D03*
X0356D03*
X03739Y0301D03*
X0368D03*
X02716Y02855D03*
X02775D03*
X04199Y04387D03*
X04136D03*
X01338Y0356D03*
X01279D03*
X01401Y03096D03*
X01342D03*
X01007Y0351D03*
X0107D03*
G54D28*
X04325Y04783D03*
X04351D03*
X04376D03*
X04402D03*
X04427D03*
G54D29*
X0356Y0301D03*
X0362D03*
X0356Y0295D03*
X03619D03*
X0368Y0289D03*
X03739D03*
X0356Y0277D03*
X0362D03*
X0356Y0271D03*
X0362D03*
X03619Y0313D03*
X0356D03*
X03854Y0307D03*
X03795D03*
X03854Y0289D03*
X03795D03*
X03739Y0283D03*
X0368D03*
X03739Y0265D03*
X0368D03*
G54D30*
X03288Y02558D03*
Y02499D03*
X03224Y02558D03*
Y02499D03*
X03161Y02558D03*
Y02499D03*
X0285Y02964D03*
Y02905D03*
X0337Y0331D03*
Y03369D03*
X0486Y03464D03*
Y03405D03*
X048D03*
Y03464D03*
G54D31*
X03255Y03374D03*
Y03315D03*
X032Y03374D03*
Y03315D03*
X0309Y03315D03*
Y03374D03*
X0294Y03049D03*
Y0299D03*
X0204Y04959D03*
Y049D03*
X0186Y04959D03*
Y049D03*
X0192Y04959D03*
Y049D03*
X0198Y04959D03*
Y049D03*
X03795Y03957D03*
Y03898D03*
X03735Y03957D03*
Y03898D03*
X0424Y03778D03*
Y03837D03*
X0449Y03839D03*
Y03898D03*
X03795Y04072D03*
Y04013D03*
X0449Y04007D03*
Y03948D03*
X0331Y03315D03*
Y03374D03*
X03685D03*
Y03315D03*
X0266Y02905D03*
Y02964D03*
X0363Y03373D03*
Y03314D03*
X0349Y03374D03*
Y03315D03*
X0343Y03374D03*
Y03315D03*
X03145Y03374D03*
Y03315D03*
X03099Y04953D03*
Y0489D03*
X03273Y04953D03*
Y0489D03*
X03447Y04953D03*
Y0489D03*
X04201Y04567D03*
Y04507D03*
X04146Y04567D03*
Y04507D03*
G54D32*
X01615Y0368D03*
Y03529D03*
G54D33*
X0185Y0362D03*
X02042D03*
X01576Y0279D03*
X01383D03*
G54D34*
X02084Y0329D03*
X01956D03*
G54D35*
X01705Y03345D03*
Y03054D03*
G54D36*
X01361Y0301D03*
X01458D03*
G54D37*
X01382Y02535D03*
X01547D03*
G54D38*
X0375Y03389D03*
Y0331D03*
G54D39*
X01288Y03262D03*
X01338D03*
X01388D03*
X01438D03*
X01288Y03477D03*
X01338D03*
X01388D03*
X01438D03*
G54D40*
X0367Y04071D03*
Y04015D03*
X03735Y04071D03*
Y04015D03*
X03795Y03785D03*
Y03841D03*
X04175Y04005D03*
Y04061D03*
X04315Y03893D03*
Y03838D03*
Y04006D03*
Y0395D03*
X0424Y04005D03*
Y04061D03*
Y03895D03*
Y03951D03*
X04896Y0456D03*
Y04615D03*
Y0441D03*
Y04465D03*
X04646Y04535D03*
Y0459D03*
Y04382D03*
Y04438D03*
X03189Y04898D03*
Y04953D03*
X03363Y04898D03*
Y04953D03*
X03536Y04898D03*
Y04953D03*
X0121Y03282D03*
Y03337D03*
Y03402D03*
Y03457D03*
G54D41*
X03878Y03953D03*
Y04003D03*
Y03903D03*
Y03853D03*
X04091Y04003D03*
Y03953D03*
Y03903D03*
Y03853D03*
G54D42*
X03361Y02811D03*
Y02831D03*
Y02851D03*
Y0287D03*
Y0289D03*
Y0291D03*
Y02929D03*
Y02949D03*
Y02969D03*
Y02988D03*
Y03008D03*
Y03028D03*
X03028D03*
Y03008D03*
Y02988D03*
Y02969D03*
Y02949D03*
Y02929D03*
Y0291D03*
Y0289D03*
Y0287D03*
Y02851D03*
Y02831D03*
Y02811D03*
G54D43*
X03303Y03086D03*
X03283D03*
X03263D03*
X03244D03*
X03224D03*
X03204D03*
X03185D03*
X03165D03*
X03145D03*
X03126D03*
X03106D03*
X03086D03*
Y02753D03*
X03106D03*
X03126D03*
X03145D03*
X03165D03*
X03185D03*
X03204D03*
X03224D03*
X03244D03*
X03263D03*
X03283D03*
X03303D03*
G54D44*
X04829Y04559D03*
X04735Y04522D03*
Y04597D03*
X04828Y04407D03*
X04734Y0437D03*
Y04445D03*
G54D45*
X0139Y03823D03*
Y0365D03*
G54D46*
X01428Y0318D03*
X01338D03*
G54D47*
X01501Y0237D03*
X01328D03*
G54D48*
X04482Y04452D03*
Y04432D03*
Y04412D03*
Y04392D03*
Y04373D03*
Y04353D03*
Y04333D03*
X04301D03*
Y04353D03*
Y04373D03*
Y04392D03*
Y04412D03*
Y04432D03*
Y04452D03*
G54D49*
X04451Y04302D03*
X04431D03*
X04411D03*
X04392D03*
X04372D03*
X04352D03*
X04332D03*
Y04483D03*
X04352D03*
X04372D03*
X04392D03*
X04431D03*
X04451D03*
X04411D03*
G54D50*
X04392Y04392D03*
G54D51*
X04424Y04653D03*
Y04627D03*
Y04602D03*
X04339D03*
Y04653D03*
Y04627D03*
G54D52*
X02723Y0292D03*
X02786Y03007D03*
Y0292D03*
X02723Y03007D03*
M02*