%FSTAX23Y23*%
%MOIN*%
%SFA1B1*%

%IPPOS*%
%ADD53C,0.071000*%
%ADD54R,0.060800X0.039500*%
%ADD55R,0.023700X0.039500*%
%ADD56R,0.039500X0.045400*%
%ADD57R,0.165500X0.165500*%
%ADD58R,0.067100X0.047400*%
%ADD59R,0.047400X0.067100*%
%ADD60R,0.039500X0.039500*%
%ADD61R,0.025700X0.059200*%
%ADD62R,0.029700X0.043400*%
%ADD63R,0.043400X0.029700*%
%ADD64R,0.039500X0.039500*%
%ADD65R,0.224500X0.092600*%
%ADD66R,0.132000X0.071000*%
%ADD67R,0.076900X0.185200*%
%ADD68R,0.078900X0.181200*%
%ADD69R,0.084800X0.057200*%
%ADD70R,0.069000X0.134400*%
%ADD71R,0.057200X0.039500*%
%ADD72O,0.031600X0.065100*%
%ADD73R,0.045400X0.039500*%
%ADD74O,0.067100X0.031600*%
%ADD75O,0.065100X0.019800*%
%ADD76O,0.019800X0.065100*%
%ADD77R,0.047400X0.031600*%
%ADD78R,0.069000X0.090700*%
%ADD79R,0.058000X0.063000*%
%ADD80R,0.090700X0.069000*%
%ADD81O,0.049300X0.017800*%
%ADD82O,0.017800X0.049300*%
%ADD83R,0.131200X0.131200*%
%ADD84R,0.039500X0.023700*%
%ADD85R,0.053300X0.063100*%
%ADD86R,0.063000X0.063000*%
%ADD87C,0.063000*%
%ADD88C,0.068200*%
%ADD89C,0.136000*%
%ADD90C,0.104300*%
%ADD91R,0.096600X0.096600*%
%ADD92C,0.096600*%
%ADD93C,0.073000*%
%ADD94R,0.073000X0.073000*%
%ADD95R,0.073000X0.073000*%
%ADD96O,0.065100X0.086700*%
%ADD97O,0.053300X0.078900*%
%ADD98C,0.039500*%
%ADD99C,0.146000*%
%ADD100C,0.083000*%
%ADD101R,0.083000X0.083000*%
%ADD102R,0.067100X0.067100*%
%ADD103C,0.067100*%
%ADD104C,0.023700*%
%ADD105C,0.027700*%
%LNv1.0-1*%
%LPD*%
G54D53*
X01485Y0216D03*
X01445Y0491D03*
X0167D03*
X01835Y0251D03*
X04505Y02255D03*
X01835Y0281D03*
X03305Y0226D03*
X0465Y0472D03*
G54D54*
X0356Y03385D03*
Y03304D03*
G54D55*
X04584Y03965D03*
X0461D03*
X04635D03*
Y03881D03*
X04584D03*
X0461D03*
X04076Y04593D03*
Y04502D03*
G54D56*
X02409Y039D03*
X02465D03*
X03Y049D03*
X02945D03*
X01862Y0484D03*
X01917D03*
X03Y0478D03*
X02945D03*
X04377Y03893D03*
X04432D03*
X04377Y03953D03*
X04432D03*
X04144Y04447D03*
X04199D03*
X04144Y04327D03*
X04199D03*
X01009Y03439D03*
X01065D03*
G54D57*
X02447Y04642D03*
G54D58*
X02849Y0496D03*
X0214D03*
Y049D03*
Y04841D03*
Y04782D03*
Y04723D03*
Y04664D03*
Y04605D03*
Y04546D03*
Y04487D03*
Y04428D03*
Y04369D03*
Y0431D03*
Y04251D03*
Y04192D03*
Y04133D03*
Y04074D03*
X02849Y049D03*
Y04841D03*
Y04782D03*
Y04723D03*
Y04664D03*
Y04605D03*
Y04546D03*
Y04487D03*
Y04428D03*
Y04369D03*
Y0431D03*
Y04251D03*
Y04192D03*
Y04133D03*
Y04074D03*
G54D59*
X02229Y0403D03*
X02288D03*
X02347D03*
X02406D03*
X0276D03*
X02701D03*
X02642D03*
X02583D03*
X02524D03*
X02465D03*
G54D60*
X03795Y0313D03*
X03855D03*
X03739Y0295D03*
X0368D03*
X03619Y0319D03*
X0356D03*
X03619Y0283D03*
X0356D03*
X03935Y0247D03*
X03995D03*
X01853Y04775D03*
X01916D03*
X03004Y0484D03*
X02945D03*
X04115Y0412D03*
X04174D03*
X03619Y0289D03*
X0356D03*
X03619Y0307D03*
X0356D03*
X03739Y0301D03*
X0368D03*
X02716Y02855D03*
X02775D03*
X04199Y04387D03*
X04136D03*
X01338Y0356D03*
X01279D03*
X01401Y03096D03*
X01342D03*
X01007Y0351D03*
X0107D03*
G54D61*
X04325Y04783D03*
X04351D03*
X04376D03*
X04402D03*
X04427D03*
G54D62*
X0356Y0301D03*
X0362D03*
X0356Y0295D03*
X03619D03*
X0368Y0289D03*
X03739D03*
X0356Y0277D03*
X0362D03*
X0356Y0271D03*
X0362D03*
X03619Y0313D03*
X0356D03*
X03854Y0307D03*
X03795D03*
X03854Y0289D03*
X03795D03*
X03739Y0283D03*
X0368D03*
X03739Y0265D03*
X0368D03*
G54D63*
X03288Y02558D03*
Y02499D03*
X03224Y02558D03*
Y02499D03*
X03161Y02558D03*
Y02499D03*
X0285Y02964D03*
Y02905D03*
X0337Y0331D03*
Y03369D03*
X0486Y03464D03*
Y03405D03*
X048D03*
Y03464D03*
G54D64*
X03255Y03374D03*
Y03315D03*
X032Y03374D03*
Y03315D03*
X0309Y03315D03*
Y03374D03*
X0294Y03049D03*
Y0299D03*
X0204Y04959D03*
Y049D03*
X0186Y04959D03*
Y049D03*
X0192Y04959D03*
Y049D03*
X0198Y04959D03*
Y049D03*
X03795Y03957D03*
Y03898D03*
X03735Y03957D03*
Y03898D03*
X0424Y03778D03*
Y03837D03*
X0449Y03839D03*
Y03898D03*
X03795Y04072D03*
Y04013D03*
X0449Y04007D03*
Y03948D03*
X0331Y03315D03*
Y03374D03*
X03685D03*
Y03315D03*
X0266Y02905D03*
Y02964D03*
X0363Y03373D03*
Y03314D03*
X0349Y03374D03*
Y03315D03*
X0343Y03374D03*
Y03315D03*
X03145Y03374D03*
Y03315D03*
X03099Y04953D03*
Y0489D03*
X03273Y04953D03*
Y0489D03*
X03447Y04953D03*
Y0489D03*
X04201Y04567D03*
Y04507D03*
X04146Y04567D03*
Y04507D03*
G54D65*
X01615Y0368D03*
Y03529D03*
G54D66*
X0185Y0362D03*
X02042D03*
X01576Y0279D03*
X01383D03*
G54D67*
X02084Y0329D03*
X01956D03*
G54D68*
X01705Y03345D03*
Y03054D03*
G54D69*
X01361Y0301D03*
X01458D03*
G54D70*
X01382Y02535D03*
X01547D03*
G54D71*
X0375Y03389D03*
Y0331D03*
G54D72*
X01288Y03262D03*
X01338D03*
X01388D03*
X01438D03*
X01288Y03477D03*
X01338D03*
X01388D03*
X01438D03*
G54D73*
X0367Y04071D03*
Y04015D03*
X03735Y04071D03*
Y04015D03*
X03795Y03785D03*
Y03841D03*
X04175Y04005D03*
Y04061D03*
X04315Y03893D03*
Y03838D03*
Y04006D03*
Y0395D03*
X0424Y04005D03*
Y04061D03*
Y03895D03*
Y03951D03*
X04896Y0456D03*
Y04615D03*
Y0441D03*
Y04465D03*
X04646Y04535D03*
Y0459D03*
Y04382D03*
Y04438D03*
X03189Y04898D03*
Y04953D03*
X03363Y04898D03*
Y04953D03*
X03536Y04898D03*
Y04953D03*
X0121Y03282D03*
Y03337D03*
Y03402D03*
Y03457D03*
G54D74*
X03878Y03953D03*
Y04003D03*
Y03903D03*
Y03853D03*
X04091Y04003D03*
Y03953D03*
Y03903D03*
Y03853D03*
G54D75*
X03361Y02811D03*
Y02831D03*
Y02851D03*
Y0287D03*
Y0289D03*
Y0291D03*
Y02929D03*
Y02949D03*
Y02969D03*
Y02988D03*
Y03008D03*
Y03028D03*
X03028D03*
Y03008D03*
Y02988D03*
Y02969D03*
Y02949D03*
Y02929D03*
Y0291D03*
Y0289D03*
Y0287D03*
Y02851D03*
Y02831D03*
Y02811D03*
G54D76*
X03303Y03086D03*
X03283D03*
X03263D03*
X03244D03*
X03224D03*
X03204D03*
X03185D03*
X03165D03*
X03145D03*
X03126D03*
X03106D03*
X03086D03*
Y02753D03*
X03106D03*
X03126D03*
X03145D03*
X03165D03*
X03185D03*
X03204D03*
X03224D03*
X03244D03*
X03263D03*
X03283D03*
X03303D03*
G54D77*
X04829Y04559D03*
X04735Y04522D03*
Y04597D03*
X04828Y04407D03*
X04734Y0437D03*
Y04445D03*
G54D78*
X0139Y03823D03*
Y0365D03*
G54D79*
X01428Y0318D03*
X01338D03*
G54D80*
X01501Y0237D03*
X01328D03*
G54D81*
X04482Y04452D03*
Y04432D03*
Y04412D03*
Y04392D03*
Y04373D03*
Y04353D03*
Y04333D03*
X04301D03*
Y04353D03*
Y04373D03*
Y04392D03*
Y04412D03*
Y04432D03*
Y04452D03*
G54D82*
X04451Y04302D03*
X04431D03*
X04411D03*
X04392D03*
X04372D03*
X04352D03*
X04332D03*
Y04483D03*
X04352D03*
X04372D03*
X04392D03*
X04431D03*
X04451D03*
X04411D03*
G54D83*
X04392Y04392D03*
G54D84*
X04424Y04653D03*
Y04627D03*
Y04602D03*
X04339D03*
Y04653D03*
Y04627D03*
G54D85*
X02723Y0292D03*
X02786Y03007D03*
Y0292D03*
X02723Y03007D03*
G54D86*
X0425Y02709D03*
G54D87*
X0415Y02759D03*
X0425Y02809D03*
X0415Y02859D03*
X0425Y02909D03*
X0415Y02959D03*
X0425Y03009D03*
X0415Y03059D03*
G54D88*
X04692Y02624D03*
Y02724D03*
Y03145D03*
Y03045D03*
G54D89*
X045Y0311D03*
Y0266D03*
G54D90*
X04379Y03189D03*
Y0258D03*
G54D91*
X0112Y02408D03*
G54D92*
X0112Y02211D03*
G54D93*
X0111Y0326D03*
X0101D03*
X0111Y0316D03*
Y02735D03*
X0101D03*
X0111Y02635D03*
X0101Y02835D03*
Y02935D03*
X0111Y02835D03*
Y02935D03*
X03725Y02175D03*
X03825D03*
X03725Y02275D03*
X03825D03*
X04025Y02175D03*
X03925Y02275D03*
Y02175D03*
X0109Y03674D03*
Y03812D03*
Y0395D03*
Y04363D03*
Y04776D03*
Y04639D03*
Y04501D03*
Y04225D03*
Y04087D03*
X02645Y0223D03*
X02507D03*
X02232D03*
X02094D03*
X01956D03*
X0237D03*
X02783D03*
X02921D03*
X03059D03*
G54D94*
X0101Y0316D03*
Y02635D03*
X0109Y04914D03*
G54D95*
X04025Y02275D03*
X01818Y0223D03*
G54D96*
X04523Y04783D03*
X0423D03*
G54D97*
X04529Y04933D03*
X04224D03*
G54D98*
X04278Y04825D03*
X04475D03*
G54D99*
X04815Y02195D03*
Y0488D03*
G54D100*
X0387Y0464D03*
X0367Y0489D03*
X0387D03*
Y0421D03*
X0367Y0446D03*
X0387D03*
G54D101*
X0367Y0464D03*
Y0421D03*
G54D102*
X04798Y03843D03*
Y04083D03*
G54D103*
X04798Y03743D03*
Y03983D03*
G54D104*
X01885Y03305D03*
X0335Y0467D03*
X01522Y02731D03*
X01577D03*
X0162Y0246D03*
X01621Y02527D03*
X0162Y02495D03*
X0155Y02731D03*
X0332Y0487D03*
Y0478D03*
X03045Y0487D03*
X0304Y049D03*
G54D105*
X04435Y04349D03*
X04348D03*
X04435Y04436D03*
Y04392D03*
X04348Y04436D03*
Y04392D03*
X04392Y04349D03*
Y04436D03*
Y04392D03*
M02*