%FSTAX23Y23*%
%MOIN*%
%SFA1B1*%

%IPPOS*%
%ADD9500C,0.007900*%
%ADD9501C,0.031000*%
%ADD9502C,0.035000*%
%ADD9503C,0.039400*%
%ADD9504C,0.040200*%
%ADD9505C,0.043300*%
%ADD9506C,0.059100*%
%ADD9507C,0.064200*%
%ADD9508C,0.118100*%
%ADD9509C,0.031500*%
%ADD9510C,0.128000*%
%LNv1.0-roundholes-1*%
%LPD*%
G54D9500*
X047Y021D03*
X048D03*
Y023D03*
X047D03*
X04775Y0246D03*
X04894Y02467D03*
X04915Y02575D03*
X04914Y02858D03*
Y03071D03*
X04619Y0246D03*
X04498Y02465D03*
X0436Y02465D03*
X04206Y0246D03*
X0408Y0246D03*
X04Y0253D03*
X03927Y02567D03*
X03928Y02614D03*
X03888Y02609D03*
X03925Y02665D03*
Y0274D03*
Y028D03*
Y02835D03*
X03895Y0289D03*
X03921Y02918D03*
X0392Y02979D03*
X03925Y0304D03*
X03895Y0307D03*
X04003Y03071D03*
X04005Y0298D03*
Y02915D03*
X04002Y02825D03*
X04005Y0274D03*
X04003Y02636D03*
X03785Y0265D03*
Y0283D03*
X03795Y0298D03*
X0359Y0304D03*
X03515Y0308D03*
X0347Y0297D03*
X0348Y0289D03*
X03455Y0288D03*
X03415Y0285D03*
X03515Y02845D03*
X03495Y0275D03*
X03462Y02634D03*
X03552Y0263D03*
X0355Y02553D03*
X0352Y0245D03*
X0355Y024D03*
X0365D03*
X03685Y02445D03*
X0375Y024D03*
X0385D03*
X03855Y02445D03*
X03875Y0247D03*
X041Y023D03*
X042D03*
X043D03*
X044D03*
X0445Y022D03*
X0455D03*
X0465D03*
X046Y023D03*
Y021D03*
X045D03*
X044D03*
X043D03*
X042D03*
X041D03*
X04D03*
X039D03*
X038D03*
X037D03*
X036D03*
X035D03*
X034D03*
X033D03*
X032D03*
X0315Y022D03*
X032Y023D03*
X0325Y024D03*
X0335D03*
X0345D03*
X035Y023D03*
X034D03*
X0345Y022D03*
X0335D03*
X03567Y02217D03*
X0365Y02203D03*
X03602Y02302D03*
X034Y025D03*
X0342Y02545D03*
X03355Y0262D03*
X03305Y02675D03*
X0325Y026D03*
X0318Y02685D03*
X0313D03*
X03145Y0288D03*
X03245Y0297D03*
X0365Y0286D03*
X0368Y0274D03*
X0315Y024D03*
X0415Y022D03*
X0425D03*
X0435D03*
X031Y023D03*
X03D03*
X029D03*
X0295Y024D03*
X0285D03*
X0275D03*
X027Y025D03*
X026D03*
X0255Y024D03*
X02446D03*
X024Y025D03*
X02446Y026D03*
X024Y027D03*
X026D03*
X027D03*
X028D03*
X029D03*
X03005Y02715D03*
X03025Y02685D03*
X0306D03*
X0305Y026D03*
X03Y025D03*
X029D03*
X031D03*
X03005Y0278D03*
X0285Y028D03*
X02825Y02835D03*
X0286Y0287D03*
X0287Y0303D03*
X029Y031D03*
X0294Y03115D03*
X02985D03*
X0301Y0309D03*
X028Y031D03*
X027D03*
X0268Y03065D03*
X0264Y0306D03*
Y0303D03*
Y02855D03*
X0265Y0283D03*
Y028D03*
X0268Y0283D03*
X02715D03*
X0275Y028D03*
X0267Y0286D03*
X024Y029D03*
Y031D03*
X022D03*
X021D03*
X02D03*
X019D03*
X018D03*
X0185Y03D03*
X0195D03*
X0205D03*
X0215D03*
X022Y029D03*
X021D03*
X02D03*
X019D03*
X018D03*
X017D03*
X016D03*
X0165Y03D03*
X016Y031D03*
X01577Y02731D03*
X017Y027D03*
X018D03*
X019D03*
X02D03*
X021D03*
X022D03*
X0215Y028D03*
X0205D03*
X0195D03*
X0178Y02805D03*
X0175Y026D03*
X0185D03*
X0195D03*
X0205D03*
X0215D03*
X02Y025D03*
X019D03*
X0178Y0251D03*
X017Y025D03*
X0162Y02495D03*
X01621Y02527D03*
X0162Y0246D03*
X016Y023D03*
X017D03*
X018D03*
X0175Y024D03*
X0185D03*
X0195D03*
X0205D03*
X021Y023D03*
X022D03*
X0215Y022D03*
X0205D03*
X021Y021D03*
X022D03*
X023D03*
X024D03*
X025D03*
X026D03*
X027D03*
X028D03*
X029D03*
X03D03*
X031D03*
X0285Y022D03*
X027Y023D03*
X026D03*
X0255Y022D03*
X0245D03*
X024Y023D03*
X02Y021D03*
X019D03*
X018D03*
X017D03*
X016D03*
X0175Y022D03*
X0275Y026D03*
X0145D03*
X01522Y02731D03*
X0155D03*
X015Y029D03*
X014D03*
X0155Y03D03*
X015Y031D03*
X011D03*
X01D03*
X0105Y03D03*
X0115D03*
X0105Y028D03*
X0115Y026D03*
X011Y025D03*
X01D03*
Y023D03*
X011D03*
X0105Y022D03*
X011Y021D03*
X012D03*
X013D03*
X014D03*
X0125Y022D03*
X015Y023D03*
X01Y021D03*
X0115Y032D03*
Y034D03*
X0112Y0344D03*
X01225Y0353D03*
X0105Y036D03*
X01Y037D03*
Y039D03*
X011D03*
X0115Y038D03*
X0145D03*
X0155D03*
X015Y039D03*
X0155Y04D03*
X0145D03*
X0135D03*
X0145Y042D03*
X0155D03*
Y044D03*
X0145D03*
X0135D03*
X014Y043D03*
X011D03*
X01D03*
X0105Y044D03*
X01Y045D03*
X0105Y046D03*
Y042D03*
X0115D03*
X01Y041D03*
X0105Y04D03*
X0145Y036D03*
X01339Y03389D03*
X015Y03286D03*
X0155Y032D03*
X0165D03*
X01885Y03305D03*
X0185Y034D03*
X0195D03*
X019Y035D03*
X018D03*
X0175Y036D03*
X018Y037D03*
X0175Y038D03*
X0165D03*
X017Y039D03*
X016D03*
X0165Y04D03*
X017Y041D03*
X016D03*
X019D03*
X02D03*
X0195Y04D03*
X019Y039D03*
X02D03*
X02005Y0377D03*
X0203D03*
X02055D03*
X0208D03*
Y03745D03*
X02055D03*
X0203D03*
X02005D03*
X0195Y036D03*
X0215D03*
X022Y037D03*
X0225Y038D03*
X022Y039D03*
X0215Y04D03*
X022Y041D03*
X023D03*
X024D03*
X025D03*
X026D03*
X027D03*
X028D03*
X029D03*
X02905Y0413D03*
Y0416D03*
X0292Y0422D03*
X0298Y04197D03*
X0305Y042D03*
X03067Y0413D03*
X03045Y04095D03*
X031Y041D03*
X03045Y03965D03*
X03D03*
X0296D03*
X0285Y04D03*
X0276Y0396D03*
X028Y039D03*
X0285Y038D03*
X0275D03*
X028Y037D03*
X0275Y036D03*
X0285D03*
X0296Y0359D03*
X03Y0361D03*
X03045Y0364D03*
X031Y037D03*
Y039D03*
Y043D03*
X03Y043D03*
X0297Y0431D03*
X02945Y04335D03*
Y04285D03*
X0295Y044D03*
X0305D03*
X0275D03*
X0265D03*
X0255D03*
X0245D03*
X0235D03*
X0225D03*
X023Y045D03*
X024D03*
X025D03*
X026D03*
X027D03*
X028D03*
X0275Y046D03*
X0265D03*
X0255D03*
X0235D03*
X0225D03*
X022Y045D03*
Y043D03*
X023D03*
X024D03*
X025D03*
X026D03*
X027D03*
X028D03*
X0275Y042D03*
X0265D03*
X0255D03*
X0245D03*
X0235D03*
X0225D03*
X0205Y044D03*
X0195D03*
X0165D03*
X02405Y03955D03*
X025Y039D03*
X02465Y0385D03*
X0245Y038D03*
X0241Y03745D03*
X024Y037D03*
X025D03*
X0255Y036D03*
X02446Y03599D03*
X024Y035D03*
X02503D03*
X0255Y034D03*
X02446D03*
X024Y033D03*
X022D03*
X0215Y034D03*
X022Y035D03*
X0215Y032D03*
X0255D03*
X0275D03*
X0285D03*
X029Y033D03*
X028D03*
X0275Y034D03*
X03005Y0338D03*
X03003Y03335D03*
X03005Y0326D03*
X03002Y03189D03*
X03085Y03155D03*
X031Y035D03*
X03D03*
X0255Y038D03*
X0315D03*
X0325D03*
X0335D03*
X034Y039D03*
X0337Y0396D03*
X0345Y04D03*
X035Y041D03*
X03575Y0411D03*
X034Y041D03*
X033D03*
X032D03*
X0325Y042D03*
X0315D03*
X032Y043D03*
X033D03*
X0325Y044D03*
X0315D03*
X03135Y0449D03*
X032Y045D03*
X0335Y046D03*
Y0467D03*
X0345Y046D03*
X035Y045D03*
X0345Y044D03*
X035Y043D03*
X0345Y042D03*
X0375D03*
X037Y043D03*
X03695Y04365D03*
X0365Y044D03*
X0375D03*
X0385D03*
X0395D03*
X0405D03*
X04076Y04452D03*
X04Y045D03*
X04025Y04565D03*
X0405Y046D03*
X0415D03*
X042Y0463D03*
X0425Y046D03*
X043Y0463D03*
X043Y045D03*
X04251Y04514D03*
X04256Y04451D03*
X04348Y04436D03*
Y04392D03*
Y04349D03*
X04392D03*
X04435D03*
Y04392D03*
Y04436D03*
X04392D03*
Y04392D03*
X04371Y04527D03*
X04421Y04566D03*
X04461Y04602D03*
X04481Y04632D03*
X04461Y04682D03*
X0455Y046D03*
X04599Y04532D03*
X04646Y04487D03*
Y04332D03*
X046Y043D03*
X04565Y0429D03*
X04535Y0433D03*
X045Y043D03*
X04536Y04412D03*
X04566Y04392D03*
X04599Y04374D03*
X0455Y042D03*
X0465D03*
X046Y041D03*
X045D03*
X0449Y04065D03*
X0445Y04D03*
X04369Y04007D03*
X044Y041D03*
X043D03*
X0424D03*
X0425Y042D03*
X0435D03*
X0445D03*
X043Y043D03*
X04256Y04327D03*
X041Y043D03*
X04D03*
X039D03*
X0405Y042D03*
X0415D03*
Y038D03*
X0405D03*
X0395D03*
X0385D03*
X039Y037D03*
X04D03*
X041D03*
X042D03*
X043D03*
X04285Y0378D03*
X0435Y038D03*
X0437Y03833D03*
X0445Y038D03*
X0449Y0378D03*
X0455Y038D03*
X046Y03845D03*
X0465Y038D03*
X046Y037D03*
X045D03*
X044D03*
X0445Y036D03*
X0455D03*
X0465D03*
X046Y035D03*
X045D03*
X044D03*
X043D03*
X042D03*
X041D03*
X04D03*
X039D03*
X038D03*
X0373Y0344D03*
X0385Y034D03*
X0395D03*
X0405D03*
X0415D03*
X0425D03*
X0435D03*
X0445D03*
X0455D03*
X0465D03*
X0435Y036D03*
X0425D03*
X0415D03*
X0405D03*
X0395D03*
X0385D03*
X0375D03*
X0365D03*
X037Y037D03*
X038D03*
X035D03*
X034D03*
X033D03*
X032D03*
X0325Y036D03*
X0335D03*
X0345D03*
X035Y035D03*
X034D03*
X033D03*
X032D03*
X0315Y036D03*
X03155Y03265D03*
X03265D03*
X0337Y03283D03*
X0343Y0342D03*
X0355Y03265D03*
X0363Y0326D03*
X03515Y032D03*
X0368Y03132D03*
X03745Y0313D03*
X03895D03*
X0385Y032D03*
X04005Y0318D03*
Y0331D03*
X04Y039D03*
X0395Y04D03*
X0385Y0407D03*
X03685Y0396D03*
X03575Y039D03*
X035D03*
X033D03*
X032D03*
X0321Y0396D03*
X0325Y04D03*
X0315D03*
X03185Y0314D03*
X03245D03*
X03285D03*
X038Y045D03*
X0375Y046D03*
X045Y045D03*
X04691Y04522D03*
Y04382D03*
X048Y043D03*
X0485Y042D03*
X0475D03*
X047Y041D03*
X0475Y04D03*
X0485D03*
X048Y039D03*
X0485Y038D03*
X048Y037D03*
X047D03*
X0475Y036D03*
X0485D03*
X048Y035D03*
X047D03*
X0475Y034D03*
X04916Y03294D03*
X04914Y03213D03*
X04895Y04515D03*
X0485Y046D03*
X04895Y0467D03*
X048Y047D03*
X047D03*
X0475Y048D03*
X0485D03*
X047Y049D03*
X046D03*
X0465Y048D03*
X046Y047D03*
X045D03*
X043D03*
X042D03*
X041D03*
X0415Y048D03*
X0405D03*
X041Y049D03*
X043D03*
X044D03*
X038D03*
X0385Y048D03*
X039Y047D03*
X038D03*
X037D03*
X0369Y0481D03*
X0354Y0482D03*
X035Y049D03*
X036D03*
X034D03*
X0332Y0487D03*
Y0478D03*
X03365Y0482D03*
X03413Y047D03*
X035D03*
X032D03*
X03135Y04755D03*
X0319Y0482D03*
X031Y04815D03*
X03045Y0487D03*
X0304Y049D03*
Y04765D03*
X03Y047D03*
X031D03*
X029D03*
X028D03*
X027D03*
X026D03*
X023D03*
X022D03*
X02D03*
X019D03*
X0195Y048D03*
X0204Y04785D03*
X02045Y0484D03*
X01765Y04845D03*
X0175Y0493D03*
X01595Y0491D03*
X0165Y048D03*
X017Y047D03*
X016D03*
X015D03*
X014D03*
X0145Y048D03*
X0155D03*
X01365Y0491D03*
X0115Y048D03*
X011Y047D03*
X01D03*
Y049D03*
G54D9501*
X0367Y0421D03*
X0387D03*
Y0446D03*
Y0464D03*
X0367D03*
Y0446D03*
Y0489D03*
X0387D03*
G54D9502*
X0415Y02759D03*
Y02859D03*
Y02959D03*
Y03059D03*
X0425Y03009D03*
Y02909D03*
Y02809D03*
Y02709D03*
G54D9503*
X04798Y03743D03*
Y03843D03*
Y03983D03*
Y04083D03*
G54D9504*
X04692Y02624D03*
Y02724D03*
Y03045D03*
Y03145D03*
G54D9505*
X03725Y02175D03*
X03825D03*
Y02275D03*
X03725D03*
X03925D03*
X04025D03*
Y02175D03*
X03925D03*
X03059Y0223D03*
X02921D03*
X02783D03*
X02645D03*
X02507D03*
X0237D03*
X02232D03*
X02094D03*
X01956D03*
X01818D03*
X0111Y02635D03*
Y02735D03*
X0101D03*
Y02635D03*
Y02835D03*
Y02935D03*
X0111D03*
Y02835D03*
Y0316D03*
Y0326D03*
X0101D03*
Y0316D03*
X0109Y03674D03*
Y03812D03*
Y0395D03*
Y04087D03*
Y04225D03*
Y04363D03*
Y04501D03*
Y04639D03*
Y04776D03*
Y04914D03*
G54D9506*
X0112Y02211D03*
Y02408D03*
G54D9507*
X04379Y0258D03*
Y03189D03*
G54D9508*
X04815Y02195D03*
Y0488D03*
G54D9509*
X04278Y04825D03*
X04475D03*
G54D9510*
X045Y0266D03*
Y0311D03*
M02*