%FSTAX23Y23*%
%MOIN*%
%SFA1B1*%

%IPPOS*%
%ADD11C,0.010000*%
%ADD15C,0.006000*%
%ADD20R,0.124000X0.063000*%
%ADD21R,0.061000X0.126400*%
%ADD22C,0.063000*%
%ADD23R,0.052800X0.031500*%
%ADD24R,0.015700X0.031500*%
%ADD25R,0.031500X0.037400*%
%ADD26R,0.157500X0.157500*%
%ADD27R,0.059100X0.039400*%
%ADD28R,0.039400X0.059100*%
%ADD29R,0.031500X0.031500*%
%ADD30R,0.017700X0.051200*%
%ADD31R,0.021700X0.035400*%
%ADD32R,0.035400X0.021700*%
%ADD33R,0.031500X0.031500*%
%ADD34R,0.216500X0.084600*%
%ADD35R,0.068900X0.177200*%
%ADD36R,0.070900X0.173200*%
%ADD37R,0.076800X0.049200*%
%ADD38R,0.049200X0.031500*%
%ADD39O,0.023600X0.057100*%
%ADD40R,0.037400X0.031500*%
%ADD41O,0.059100X0.023600*%
%ADD42O,0.057100X0.011800*%
%ADD43O,0.011800X0.057100*%
%ADD44R,0.039400X0.023600*%
%ADD45R,0.061000X0.082700*%
%ADD46R,0.050000X0.055000*%
%ADD47R,0.082700X0.061000*%
%ADD48O,0.041300X0.009800*%
%ADD49O,0.009800X0.041300*%
%ADD50R,0.123200X0.123200*%
%ADD51R,0.031500X0.015700*%
%ADD52R,0.045300X0.055100*%
%ADD105C,0.030000*%
%ADD106C,0.065000*%
%ADD107R,0.065000X0.065000*%
%ADD108R,0.055000X0.055000*%
%ADD109C,0.055000*%
%ADD110C,0.060200*%
%ADD111C,0.128000*%
%ADD112C,0.096300*%
%ADD113R,0.088600X0.088600*%
%ADD114C,0.088600*%
%ADD115R,0.065000X0.065000*%
%ADD116O,0.057100X0.078700*%
%ADD117O,0.045300X0.070900*%
%ADD118C,0.031500*%
%ADD119C,0.138000*%
%ADD120C,0.075000*%
%ADD121R,0.075000X0.075000*%
%ADD122R,0.059100X0.059100*%
%ADD123C,0.059100*%
%ADD124C,0.015700*%
%ADD125C,0.019700*%
%LNv1.0-1*%
%LPD*%
G36*
X04933Y0337D02*
X04869D01*
Y03388*
X04883*
Y03422*
X04836*
Y03388*
X0485*
Y0337*
X04809*
Y03388*
X04823*
Y03422*
X04776*
Y03388*
X0479*
Y0337*
X0394*
Y0312*
X03935Y03118*
X03899Y03154*
X03895Y03156*
X03876*
X03872Y03154*
X03871Y03151*
X03839*
X03837Y03154*
X03833Y03156*
X03675*
X03661Y0317*
Y03185*
X03659Y03189*
X03641Y03207*
Y03211*
X03637*
X03571Y03277*
X03573Y03282*
X03592*
Y03301*
X03608*
Y03292*
X03618*
Y03268*
X03618Y03267*
X03616Y03262*
Y03257*
X03618Y03252*
X03622Y03248*
X03627Y03246*
X03632*
X03637Y03248*
X03641Y03252*
X03643Y03257*
Y03262*
X03641Y03267*
X03641Y03268*
Y03292*
X03651*
Y03301*
X03663*
Y03293*
X03706*
Y03301*
X03719*
Y03288*
X0378*
Y03299*
X038*
X03804Y033*
X03808Y03302*
X03959Y03453*
X04776*
Y03447*
X04823*
Y03453*
X04836*
Y03447*
X04883*
Y03481*
X04836*
Y03475*
X04823*
Y03481*
X04776*
Y03475*
X03954*
X0395Y03474*
X03946Y03472*
X03796Y03321*
X0378*
Y03332*
X03719*
Y03323*
X03706*
Y03337*
X03663*
Y03323*
X03651*
Y03336*
X03608*
Y03323*
X03592*
Y03326*
X03531*
Y03335*
X03529Y0334*
X03519Y03349*
X03516Y03351*
X03515Y03351*
X03511Y03354*
Y03368*
X03527*
Y03363*
X03592*
Y03407*
X03527*
Y03391*
X03511*
Y03395*
X03468*
Y03381*
X03451*
Y03395*
X03441*
Y03411*
X03441Y03412*
X03443Y03417*
Y03422*
X03441Y03427*
X03437Y03431*
X03432Y03433*
X03427*
X03422Y03431*
X03418Y03427*
X03416Y03422*
Y03417*
X03418Y03412*
X03418Y03411*
Y03395*
X03408*
Y03352*
X03403Y03351*
X03356*
X03352Y03354*
Y03388*
X0335Y03393*
X03339Y03404*
X03335Y03406*
X03005*
X03Y03404*
X02985Y03389*
X02983Y03385*
Y03324*
X02985Y03319*
X03107Y03197*
X03108Y03197*
X03108Y03196*
X0311Y03196*
X03111Y03195*
X03116Y03193*
X03116Y03193*
Y03126*
X03115Y03125*
X03111Y03124*
X03111Y03124*
Y03086*
X03101*
Y03124*
X031Y03124*
X03097Y03125*
X03095Y03126*
Y03146*
X03096Y03147*
X03098Y03152*
Y03157*
X03097Y03162*
X031Y03163*
X031Y03164*
X03101Y03164*
X03102Y03166*
X03103Y03167*
X03103Y03168*
X03103Y03169*
Y0319*
X03101Y03195*
X02999Y03298*
X02998Y03298*
X02997Y03299*
X02995*
X02994Y033*
X02993Y03299*
X02992*
X02987Y03297*
X02986Y03296*
X02985Y03296*
X02984Y03295*
X02984Y03294*
Y03292*
X02983Y03291*
Y03128*
X02982*
X02977Y03126*
X02973Y03122*
X02971Y03117*
Y03112*
X02973Y03107*
X02975Y03104*
Y03057*
X02973Y03056*
X0297Y03056*
X02968Y03058*
X02964Y03058*
X02961*
Y03071*
X02951*
Y03106*
X02951Y03107*
X02953Y03112*
Y03117*
X02951Y03122*
X02947Y03126*
X02942Y03128*
X02937*
X02932Y03126*
X02928Y03122*
X02926Y03117*
Y03112*
X02928Y03107*
X02928Y03106*
Y03071*
X02918*
Y03027*
X02961*
X02963Y03023*
Y03016*
X02945*
Y0299*
X0294*
Y02985*
X02914*
Y02967*
X02909Y02965*
X02895Y0298*
Y0305*
X02855Y0309*
X0263*
X02615Y03075*
Y0283*
X0264Y02805*
X0283*
X0292Y02895*
X0296*
X02962Y0289*
X02856Y02784*
X02618*
X02599Y02803*
Y03146*
X03074Y03621*
X03076Y03624*
X03076Y03627*
Y04119*
X03079Y04122*
X03081Y04127*
Y04132*
X03079Y04137*
X03075Y04141*
X0307Y04143*
X03065*
X03059Y04141*
X03056Y04137*
X03053Y04132*
Y04127*
X03056Y04122*
X03058Y04119*
Y03631*
X03033Y03606*
X03029Y03608*
Y0421*
X03028Y04213*
X03026Y04216*
X02986Y04256*
X02983Y04258*
X0298Y04259*
X02884*
Y04277*
X02813*
Y04225*
X02884*
Y0424*
X02976*
X0301Y04206*
Y03603*
X02993Y03586*
X02989Y03588*
Y04187*
X02991Y04189*
X02993Y04194*
Y042*
X02991Y04205*
X02987Y04209*
X02982Y04211*
X02977*
X02972Y04209*
X02968Y04205*
X02966Y042*
Y04194*
X02968Y04189*
X0297Y04187*
Y03583*
X02953Y03566*
X02949Y03568*
Y0416*
X02948Y04163*
X02946Y04166*
X02916Y04196*
X02913Y04198*
X0291Y04199*
X02884*
Y04218*
X02813*
Y04166*
X02884*
Y0418*
X02906*
X0293Y04156*
Y03563*
X02538Y03171*
X02536Y03168*
X02535Y03165*
Y02785*
X02536Y02781*
X02538Y02778*
X02593Y02723*
X02596Y02721*
X026Y0272*
X02875*
X02878Y02721*
X02881Y02723*
X0298Y02822*
X02992*
X02995Y02817*
X02995Y02816*
X02994Y02816*
X02994Y02815*
X02993Y02812*
X02991Y02812*
X02987Y0281*
X02986Y02809*
X02985Y02809*
X02984Y02807*
X02983Y02806*
X02983Y02805*
X02983Y02804*
Y02685*
X02985Y0268*
X03Y02665*
X03005Y02663*
X03188*
X0319Y02658*
X03154Y02623*
X03152Y0262*
X03152Y02616*
Y02575*
X03137*
Y02542*
X03185*
Y02575*
X0317*
Y02612*
X0321Y02652*
X03214Y02651*
X03215Y0265*
Y02575*
X03201*
Y02542*
X03248*
Y02575*
X03233*
Y02651*
X03234Y02652*
X03238Y02653*
X03279Y02612*
Y02575*
X03264*
Y02542*
X03312*
Y02575*
X03297*
Y02616*
X03296Y0262*
X03294Y02623*
X03259Y02658*
X03261Y02663*
X03272*
X0351Y02425*
X03515Y02423*
X0394*
Y02395*
X04933*
Y02071*
X01021*
Y04988*
X04933*
Y0337*
G37*
G36*
X03346Y03388D02*
Y03352D01*
X03353Y03345*
X03515*
X03524Y03335*
Y03292*
X03526Y0329*
X03527*
Y03282*
X03557*
X03655Y03185*
Y03167*
X03672Y0315*
X03833*
Y03108*
X03845*
Y03093*
X03837*
Y03046*
X03871*
Y0306*
X03884*
X03885Y0306*
X03889Y03056*
X03895Y03055*
X039Y03056*
X03905Y0306*
X03908Y03064*
X03909Y0307*
X03908Y03075*
X03905Y0308*
X039Y03083*
X03895Y03084*
X03889Y03083*
X03885Y0308*
X03884Y03079*
X03871*
Y03093*
X03863*
Y03108*
X03876*
Y0315*
X03895*
X0394Y03105*
Y03019*
X03823*
X0381Y03032*
Y03046*
X03812*
Y03093*
X03778*
Y03046*
X0378*
Y03033*
X03766Y03019*
X03761Y03019*
Y03031*
X03717*
Y02988*
X03761*
Y03*
X0377*
X03773Y03001*
X03776Y03003*
X03795Y03022*
X03813Y03003*
X03816Y03001*
X0382Y03*
X0394*
Y02959*
X03825*
X03821Y02958*
X03818Y02956*
X03798Y02936*
X03795Y02934*
X03791Y02936*
X03771Y02956*
X03768Y02958*
X03765Y02959*
X03761*
Y02971*
X03717*
Y02928*
X03761*
Y02934*
X03765Y02936*
X03778Y02923*
Y02913*
X03778*
Y02866*
X03811*
Y02896*
X03812Y02897*
Y02924*
X03828Y0294*
X0394*
Y02779*
X03718*
X03697Y02801*
Y02822*
X03696Y02823*
Y02853*
X03683*
X03682Y02856*
X03681Y02858*
X03683Y02861*
X03684Y02865*
Y02866*
X03697*
Y02913*
X03663*
Y02899*
X03641*
Y02911*
X03597*
Y02868*
X03633*
X03636Y02863*
X03635Y0286*
X03636Y02854*
X0364Y0285*
X03644Y02846*
X0365Y02845*
X03655Y02846*
X03658Y02848*
X03663Y02846*
Y02823*
X03663Y02822*
Y02801*
X03641Y02779*
X03636Y0278*
Y02793*
X03603*
Y02746*
X03636*
Y0276*
X03645*
X03648Y02761*
X03651Y02763*
X03676Y02788*
X0368Y0279*
X03683Y02788*
X03708Y02763*
X03711Y02761*
X03715Y0276*
X0394*
Y02719*
X03715*
X03711Y02718*
X03708Y02716*
X03683Y02691*
X03681Y0269*
X03676Y02691*
X03651Y02716*
X03648Y02718*
X03645Y02719*
X03636*
Y02733*
X03603*
Y02686*
X03636*
Y02699*
X03641Y027*
X03663Y02678*
Y0265*
X03663Y02649*
Y02626*
X03697*
Y02656*
X03697Y02657*
Y02679*
X03718Y027*
X0394*
Y0243*
X03515*
X03275Y0267*
X03253*
Y02717*
X03258Y0272*
X03259Y02719*
X03263Y02718*
X03268Y02719*
X03272Y02722*
X03275*
X03278Y02719*
X03283Y02718*
X03288Y02719*
X03292Y02722*
X03294Y02726*
X03295Y02731*
Y02776*
X03294Y0278*
X03292Y02784*
X03288Y02787*
X03283Y02788*
X03278Y02787*
X03275Y02784*
X03272*
X03268Y02787*
X03263Y02788*
X03259Y02787*
X03255Y02784*
X03252*
X03248Y02787*
X03244Y02788*
X03239Y02787*
X03235Y02784*
X03233*
X03229Y02787*
X03224Y02788*
X03219Y02787*
X03215Y02784*
X03213*
X03209Y02787*
X03204Y02788*
X032Y02787*
X03196Y02784*
X03193*
X03189Y02787*
X03185Y02788*
X0318Y02787*
X03176Y02784*
X03174*
X0317Y02787*
X03165Y02788*
X0316Y02787*
X03156Y02784*
X03154*
X0315Y02787*
X03145Y02788*
X03141Y02787*
X03137Y02784*
X03134*
X0313Y02787*
X03126Y02788*
X03121Y02787*
X03117Y02784*
X03115*
X03111Y02787*
X03106Y02788*
X03101Y02787*
X03097Y02784*
X03095*
X03091Y02787*
X03086Y02788*
X03082Y02787*
X03078Y02784*
X03075Y0278*
X03074Y02776*
Y02731*
X03075Y02726*
X03078Y02722*
X03082Y02719*
X03086Y02718*
X03091Y02719*
X03095Y02722*
X03097*
X03101Y02719*
X03106Y02718*
X03111Y02719*
X03115Y02722*
X03117*
X03121Y02719*
X03126Y02718*
X0313Y02719*
X03134Y02722*
X03137*
X03141Y02719*
X03145Y02718*
X0315Y02719*
X03154Y02722*
X03156*
X0316Y02719*
X03165Y02718*
X0317Y02719*
X03174Y02722*
X03176*
X0318Y02719*
X03185Y02718*
X03189Y02719*
X0319Y0272*
X03195Y02717*
Y0267*
X03005*
X0299Y02685*
Y02804*
X02994Y02806*
X02995Y02806*
X02997Y02803*
X03001Y028*
X03006Y02799*
X03051*
X03055Y028*
X03059Y02803*
X03062Y02807*
X03063Y02811*
X03062Y02816*
X03059Y0282*
Y02822*
X03062Y02826*
X03063Y02831*
X03062Y02836*
X03059Y0284*
Y02842*
X03062Y02846*
X03063Y02851*
X03062Y02855*
X03059Y02859*
Y02862*
X03062Y02866*
X03063Y0287*
X03062Y02875*
X03059Y02879*
Y02881*
X03062Y02885*
X03063Y0289*
X03062Y02895*
X03059Y02899*
Y02901*
X03062Y02905*
X03063Y0291*
X03062Y02914*
X03059Y02918*
Y02921*
X03062Y02925*
X03063Y02929*
X03062Y02934*
X03059Y02938*
Y0294*
X03062Y02944*
X03063Y02949*
X03062Y02954*
X03059Y02958*
Y0296*
X03062Y02964*
X03063Y02969*
X03062Y02973*
X03059Y02977*
Y0298*
X03062Y02984*
X03063Y02988*
X03062Y02993*
X03059Y02997*
Y03*
X03062Y03003*
X03063Y03008*
X03062Y03013*
X03059Y03017*
Y03019*
X03062Y03023*
X03063Y03028*
X03062Y03032*
X03059Y03036*
X03055Y03039*
X03051Y0304*
X03006*
X03001Y03039*
X02998Y03037*
X02994Y03039*
Y03104*
X02995Y03105*
X02998Y03109*
X02999Y03115*
X02998Y0312*
X02995Y03125*
X0299Y03128*
X0299Y03128*
Y03291*
X02994Y03293*
X03097Y0319*
Y03169*
X03092Y03166*
X0309Y03168*
X03085Y03169*
X03079Y03168*
X03075Y03165*
X03071Y0316*
X0307Y03155*
X03071Y03149*
X03075Y03145*
X03077Y03143*
Y03116*
X03075Y03113*
X03074Y03109*
Y03063*
X03075Y03059*
X03078Y03055*
X03082Y03052*
X03086Y03051*
X03091Y03052*
X03095Y03055*
X03097*
X03101Y03052*
X03106Y03051*
X03111Y03052*
X03115Y03055*
X03117*
X03121Y03052*
X03126Y03051*
X0313Y03052*
X03134Y03055*
X03137*
X03141Y03052*
X03145Y03051*
X0315Y03052*
X03154Y03055*
X03156*
X0316Y03052*
X03165Y03051*
X0317Y03052*
X03174Y03055*
X03176Y03059*
X03177Y03063*
Y03109*
X03176Y03113*
X03174Y03116*
Y03221*
X03206Y03253*
X03208Y03256*
X03209Y0326*
Y03293*
X03221*
Y03336*
X03188*
X03187Y03337*
X03166*
X03123*
X03068*
Y03293*
X0308*
Y0326*
X03081Y03256*
X03083Y03253*
X03116Y0322*
Y03204*
X03115Y03203*
X03111Y03202*
X0299Y03324*
Y03385*
X03005Y034*
X03335*
X03346Y03388*
G37*
G36*
X02885Y03042D02*
Y02977D01*
X0288Y02973*
X02874*
Y02981*
X0286*
Y03049*
X02859Y03052*
X02857Y03055*
X02846Y03066*
X02843Y03068*
X0284Y03069*
X0273*
X02726Y03068*
X02723Y03066*
X02716Y03059*
X02714Y03056*
X02713Y03052*
Y03044*
X02709Y0304*
X02694*
Y03016*
X0267*
X02666Y03015*
X02663Y03013*
X0266Y0301*
X02658Y03007*
X02657Y03003*
Y02985*
X02639*
Y02942*
X02682*
Y0297*
X02686Y02973*
X02694*
X02751*
Y0304*
X02732*
Y03043*
X02731Y03046*
X02734Y0305*
X02836*
X02841Y03045*
Y02981*
X02827*
Y02947*
X02874*
Y0295*
X02879Y02952*
X02907Y02924*
X02906Y0292*
X02905Y02919*
X02874*
Y02922*
X02816*
X02814Y02922*
Y02954*
X02757*
Y02886*
X02753Y02883*
Y02833*
X02797*
Y02886*
X02814*
X02827Y02888*
X02874*
Y02901*
X02904*
X02906Y02896*
X02825Y02815*
X02645*
X02625Y02835*
Y0307*
X02635Y0308*
X02847*
X02885Y03042*
G37*
G36*
X04126Y02783D02*
X04123Y0278D01*
X04118Y02772*
X04116Y02764*
Y02755*
X04118Y02746*
X0412Y02743*
X04096Y02719*
X0399*
Y0276*
X04087*
X0409Y02761*
X04093Y02763*
X04118Y02788*
X04124*
X04126Y02783*
G37*
G36*
X04933Y02445D02*
X0399D01*
Y027*
X041*
X04103Y02701*
X04106Y02703*
X04133Y0273*
X04137Y02728*
X04145Y02726*
X04154*
X04162Y02728*
X0417Y02733*
X04176Y02739*
X04181Y02746*
X04183Y02755*
Y02764*
X04181Y02772*
X04176Y0278*
X04173Y02783*
X04175Y02788*
X04188*
X04216Y0276*
Y02734*
X04216Y02733*
Y02676*
X04283*
Y02743*
X04234*
Y02764*
X04234Y02768*
X04232Y02771*
X04198Y02804*
X04195Y02806*
X04192Y02807*
X04115*
X04111Y02806*
X04108Y02804*
X04083Y02779*
X0399*
Y0294*
X04122*
X04122Y0294*
X04123Y02939*
X04129Y02933*
X04137Y02928*
X04145Y02926*
X04154*
X04162Y02928*
X0417Y02933*
X04176Y02939*
X04181Y02946*
X04183Y02955*
Y02964*
X04181Y02972*
X04176Y0298*
X0417Y02986*
X04162Y02991*
X04154Y02993*
X04145*
X04137Y02991*
X04129Y02986*
X04123Y0298*
X04118Y02972*
X04116Y02964*
Y02959*
X0399*
Y03*
X04171*
X04195Y02976*
Y02854*
X04196Y02851*
X04198Y02848*
X0422Y02826*
X04218Y02822*
X04216Y02814*
Y02805*
X04218Y02796*
X04223Y02789*
X04229Y02783*
X04237Y02778*
X04245Y02776*
X04254*
X04262Y02778*
X0427Y02783*
X04276Y02789*
X04281Y02796*
X04283Y02805*
Y02814*
X04281Y02822*
X04276Y0283*
X0427Y02836*
X04262Y02841*
X04254Y02843*
X04245*
X04237Y02841*
X04233Y02839*
X04214Y02858*
Y02892*
X04215Y02893*
X04221Y02892*
X04223Y02889*
X04229Y02883*
X04237Y02878*
X04245Y02876*
X04254*
X04262Y02878*
X0427Y02883*
X04276Y02889*
X04281Y02896*
X04283Y02905*
Y02914*
X04281Y02922*
X04276Y0293*
X0427Y02936*
X04262Y02941*
X04254Y02943*
X04245*
X04237Y02941*
X04229Y02936*
X04223Y0293*
X04221Y02927*
X04215Y02926*
X04214Y02927*
Y0298*
X04213Y02983*
X04211Y02986*
X04181Y03016*
X04178Y03018*
X04175Y03019*
X04162*
X04162Y03024*
X04164Y03024*
X04173Y03029*
X0418Y03036*
X04185Y03045*
X04187Y03054*
X0415*
X04112*
X04115Y03045*
X0412Y03036*
X04127Y03029*
X04135Y03024*
X04138Y03024*
X04137Y03019*
X0399*
Y0332*
X0479*
Y03168*
X04777Y03155*
X04727*
X04726Y03159*
X04721Y03168*
X04715Y03174*
X04706Y03179*
X04697Y03181*
X04688*
X04679Y03179*
X0467Y03174*
X04664Y03168*
X04659Y03159*
X04656Y0315*
Y03141*
X04659Y03131*
X04664Y03123*
X0467Y03116*
X04679Y03112*
X04688Y03109*
X04697*
X04706Y03112*
X04715Y03116*
X04721Y03123*
X04726Y03131*
X04727Y03136*
X0478*
X04784Y03137*
X04787Y03139*
X04806Y03158*
X04808Y03161*
X04809Y03165*
Y0332*
X0485*
Y02678*
X04805Y02633*
X04727*
X04726Y02638*
X04721Y02646*
X04715Y02653*
X04706Y02657*
X04697Y0266*
X04688*
X04679Y02657*
X0467Y02653*
X04664Y02646*
X04659Y02638*
X04656Y02628*
Y02619*
X04659Y0261*
X04664Y02602*
X0467Y02595*
X04679Y0259*
X04688Y02588*
X04697*
X04706Y0259*
X04715Y02595*
X04721Y02602*
X04726Y0261*
X04727Y02615*
X04809*
X04812Y02615*
X04815Y02617*
X04866Y02668*
X04868Y02671*
X04869Y02675*
Y0332*
X04933*
Y02445*
G37*
%LNv1.0-2*%
%LPC*%
G36*
X03561Y04975D02*
X03512D01*
Y04962*
X03468*
Y04974*
X03425*
Y04931*
X03468*
Y04944*
X03512*
Y04931*
X03561*
Y04975*
G37*
G36*
X03387D02*
X03338D01*
Y04962*
X03294*
Y04974*
X03251*
Y04931*
X03294*
Y04944*
X03338*
Y04931*
X03387*
Y04975*
G37*
G36*
X03214D02*
X03164D01*
Y04962*
X03121*
Y04974*
X03077*
Y04931*
X03121*
Y04944*
X03164*
Y04931*
X03214*
Y04975*
G37*
G36*
X04534Y04978D02*
Y04938D01*
X04562*
Y04946*
X04561Y04954*
X04557Y04962*
X04552Y04969*
X04545Y04974*
X04537Y04977*
X04534Y04978*
G37*
G36*
X04229D02*
Y04938D01*
X04257*
Y04946*
X04255Y04954*
X04252Y04962*
X04247Y04969*
X0424Y04974*
X04232Y04977*
X04229Y04978*
G37*
G36*
X04219D02*
X04215Y04977D01*
X04207Y04974*
X042Y04969*
X04195Y04962*
X04192Y04954*
X04191Y04946*
Y04938*
X04219*
Y04978*
G37*
G36*
X04524D02*
X0452Y04977D01*
X04512Y04974*
X04506Y04969*
X045Y04962*
X04497Y04954*
X04496Y04946*
Y04938*
X04524*
Y04978*
G37*
G36*
X0145Y04951D02*
X0145D01*
Y04915*
X01486*
Y04915*
X01483Y04926*
X01478Y04935*
X0147Y04943*
X01461Y04948*
X0145Y04951*
G37*
G36*
X0144D02*
X01439D01*
X01429Y04948*
X01419Y04943*
X01411Y04935*
X01406Y04926*
X01403Y04915*
Y04915*
X0144*
Y04951*
G37*
G36*
X0368Y04936D02*
Y049D01*
X03716*
X03714Y04908*
X03708Y04919*
X03699Y04928*
X03688Y04934*
X0368Y04936*
G37*
G36*
X0366D02*
X03651Y04934D01*
X0364Y04928*
X03632Y04919*
X03625Y04908*
X03623Y049*
X0366*
Y04936*
G37*
G36*
X03024Y04929D02*
X0298D01*
Y04891*
X02975Y04889*
X02969Y04896*
Y04929*
X02925*
Y04912*
X02884*
Y04926*
X02813*
Y04875*
Y04816*
Y04757*
Y04741*
Y04698*
X02884*
Y04712*
X03326*
X03383Y04655*
Y04629*
X03378Y04627*
X03333Y04672*
X03329Y04675*
X03325Y04675*
X02884*
Y0469*
X02813*
Y04639*
X02884*
Y04653*
X0332*
X03363Y0461*
Y04562*
X03358Y0456*
X03305Y04613*
X03302Y04616*
X03297Y04616*
X02884*
Y04631*
X02813*
Y0458*
Y0452*
X02884*
Y04535*
X03268*
X03323Y0448*
Y0387*
X03324Y03865*
X03327Y03862*
X03411Y03777*
X03414Y03775*
X03419Y03774*
X0377*
Y03764*
X03819*
Y03807*
X0377*
Y03797*
X03423*
X03346Y03874*
Y04185*
X03351Y04187*
X03476Y04063*
X03479Y0406*
X03484Y04059*
X03645*
Y04049*
X03694*
Y04092*
X03645*
Y04082*
X03488*
X03452Y04118*
X03454Y04123*
X03562*
X03564Y04118*
X03563Y04117*
X03561Y04112*
Y04107*
X03563Y04102*
X03567Y04098*
X03572Y04096*
X03577*
X03582Y04098*
X03583Y04098*
X03724*
Y04092*
X0371*
Y04049*
X03759*
Y04092*
X03746*
Y04098*
X0402*
X04024Y04099*
X04027Y04102*
X04079Y04153*
X0421*
X04228Y04135*
Y04082*
X04215*
Y04039*
X04264*
Y04082*
X04251*
Y0414*
X0425Y04144*
X04247Y04147*
X04222Y04172*
X04219Y04175*
X04215Y04176*
X04075*
X0407Y04175*
X04067Y04172*
X04015Y04121*
X03948*
X03946Y04126*
X03947Y04127*
X04039Y04218*
X0452*
X04524Y04219*
X04527Y04222*
X04572Y04267*
X04575Y0427*
X04576Y04275*
Y04281*
X04576Y04282*
X04578Y04287*
Y04292*
X04576Y04297*
X04572Y04301*
X04567Y04303*
X04562*
X04557Y04301*
X04553Y04297*
X04551Y04292*
X04546Y04293*
Y04321*
X04546Y04322*
X04548Y04327*
Y04332*
X04546Y04337*
X04542Y04341*
X04537Y04343*
X04532*
X04527Y04341*
X04523Y04337*
X04521Y04332*
Y04327*
X04523Y04322*
X04523Y04321*
Y04279*
X04505Y04261*
X04025*
X0402Y0426*
X04017Y04257*
X03925Y04166*
X03891*
X03889Y04171*
X03896Y04175*
X03904Y04183*
X0391Y04193*
X03913Y04204*
Y04215*
X0391Y04226*
X03904Y04236*
X03896Y04244*
X03886Y0425*
X03875Y04253*
X03864*
X03853Y0425*
X03843Y04244*
X03835Y04236*
X03829Y04226*
X03826Y04215*
Y04204*
X03829Y04193*
X03835Y04183*
X03843Y04175*
X0385Y04171*
X03848Y04166*
X03717*
Y04205*
X0367*
X03622*
Y04166*
X03459*
X03406Y04219*
Y0466*
X03405Y04664*
X03402Y04667*
X03339Y04731*
X03335Y04734*
X03331Y04735*
X03092*
X0309Y0474*
X03134Y04783*
X0325*
X03254Y04784*
X03257Y04787*
X03281Y0481*
X03283Y04813*
X03284Y04818*
Y04868*
X03294*
Y04911*
X03251*
Y04868*
X03262*
Y04822*
X03245Y04806*
X03202*
X032Y04811*
X03201Y04812*
X03203Y04817*
Y04822*
X03201Y04827*
X03201Y04828*
Y04876*
X03214*
Y04919*
X03164*
Y04876*
X03178*
Y04828*
X03178Y04827*
X03176Y04822*
Y04817*
X03178Y04812*
X03179Y04811*
X03177Y04806*
X0313*
X03125Y04805*
X03122Y04802*
X03115Y04796*
X03111Y04798*
X03111Y048*
Y04868*
X03121*
Y04911*
X03077*
Y04892*
X03073Y0489*
X03056Y04907*
Y04907*
X03054Y04912*
X0305Y04916*
X03045Y04918*
X03039*
X03034Y04916*
X03034Y04916*
X03024*
Y04929*
G37*
G36*
X04562Y04928D02*
X04534D01*
Y04888*
X04537Y04888*
X04545Y04892*
X04552Y04897*
X04557Y04904*
X04561Y04912*
X04562Y0492*
Y04928*
G37*
G36*
X04219D02*
X04191D01*
Y0492*
X04192Y04912*
X04195Y04904*
X042Y04897*
X04207Y04892*
X04215Y04888*
X04219Y04888*
Y04928*
G37*
G36*
X04257D02*
X04229D01*
Y04888*
X04232Y04888*
X0424Y04892*
X04247Y04897*
X04252Y04904*
X04255Y04912*
X04257Y0492*
Y04928*
G37*
G36*
X04524D02*
X04496D01*
Y0492*
X04497Y04912*
X045Y04904*
X04506Y04897*
X04512Y04892*
X0452Y04888*
X04524Y04888*
Y04928*
G37*
G36*
X01674Y04947D02*
X01665D01*
X01655Y04944*
X01647Y0494*
X0164Y04933*
X01635Y04924*
X01632Y04914*
Y04905*
X01635Y04895*
X0164Y04887*
X01647Y0488*
X01655Y04875*
X01665Y04872*
X01674*
X01684Y04875*
X01693Y0488*
X017Y04887*
X01704Y04895*
X01705Y04898*
X01735*
X01737Y04896*
X01742Y04896*
X01838*
Y04878*
X01853*
Y04864*
X0184*
Y04851*
X01781*
X01777Y0485*
X01773Y04847*
X01759Y04833*
X01757*
X01752Y04831*
X01748Y04827*
X01746Y04822*
Y04817*
X01748Y04812*
X01752Y04808*
X01757Y04806*
X01762*
X01767Y04808*
X01771Y04812*
X01773Y04815*
X01786Y04828*
X0184*
Y04815*
X01884*
Y04864*
X01871*
Y04878*
X01881*
Y04891*
X01898*
Y04878*
X01941*
Y04891*
X01958*
Y04878*
X02001*
Y04891*
X02018*
Y04878*
X02061*
Y04891*
X02105*
Y04875*
X02176*
Y04926*
X02105*
Y0491*
X02061*
Y04922*
X02018*
Y0491*
X02001*
Y04922*
X01958*
Y0491*
X01941*
Y04922*
X01898*
Y0491*
X01881*
Y04922*
X01838*
Y04918*
X01746*
X01743Y0492*
X01739Y04921*
X01705*
X01704Y04924*
X017Y04933*
X01693Y0494*
X01684Y04944*
X01674Y04947*
G37*
G36*
X01486Y04905D02*
X0145D01*
Y04868*
X0145*
X01461Y04871*
X0147Y04876*
X01478Y04884*
X01483Y04894*
X01486Y04904*
Y04905*
G37*
G36*
X0144D02*
X01403D01*
Y04904*
X01406Y04894*
X01411Y04884*
X01419Y04876*
X01429Y04871*
X01439Y04868*
X0144*
Y04905*
G37*
G36*
X02176Y04867D02*
X02105D01*
Y04851*
X0206*
X02058Y04853*
X02056Y04856*
X02052Y0486*
X02047Y04862*
X02042*
X02037Y0486*
X02033Y04856*
X02031Y04851*
Y04846*
X02033Y04841*
X02037Y04837*
X02042Y04835*
X02044*
X02047Y04832*
X02051Y04829*
X02055Y04828*
X02105*
Y04816*
X02176*
Y04867*
G37*
G36*
X03875Y04933D02*
X03864D01*
X03853Y0493*
X03843Y04924*
X03835Y04916*
X03829Y04906*
X03826Y04895*
Y04884*
X03829Y04873*
X03835Y04863*
X03843Y04855*
X03853Y04849*
X03864Y04846*
X03875*
X03886Y04849*
X03896Y04855*
X03904Y04863*
X0391Y04873*
X03913Y04884*
Y04895*
X0391Y04906*
X03904Y04916*
X03896Y04924*
X03886Y0493*
X03875Y04933*
G37*
G36*
X03716Y0488D02*
X0368D01*
Y04843*
X03688Y04845*
X03699Y04852*
X03708Y0486*
X03714Y04871*
X03716Y0488*
G37*
G36*
X0366D02*
X03623D01*
X03625Y04871*
X03632Y0486*
X0364Y04852*
X03651Y04845*
X0366Y04843*
Y0488*
G37*
G36*
X04282Y04846D02*
X04273D01*
X04265Y04843*
X04259Y04837*
X04256Y04829*
Y04828*
X04252Y04826*
X04249Y04828*
X0424Y04832*
X04235Y04832*
Y04788*
X04268*
Y04794*
X04268Y048*
X04272Y04803*
X04273Y04803*
X04282*
X0429Y04806*
X04296Y04812*
X043Y0482*
Y04829*
X04296Y04837*
X0429Y04843*
X04282Y04846*
G37*
G36*
X03561Y04919D02*
X03512D01*
Y04876*
X03528*
Y04828*
X03528Y04827*
X03526Y04822*
Y04817*
X03528Y04812*
X03532Y04808*
X03537Y04806*
X03542*
X03547Y04808*
X03551Y04812*
X03553Y04817*
Y04822*
X03551Y04827*
X03551Y04828*
Y04876*
X03561*
Y04919*
G37*
G36*
X03387D02*
X03338D01*
Y04876*
X03353*
Y04828*
X03353Y04827*
X03351Y04822*
Y04817*
X03353Y04812*
X03357Y04808*
X03362Y04806*
X03367*
X03372Y04808*
X03376Y04812*
X03378Y04817*
Y04822*
X03376Y04827*
X03376Y04828*
Y04876*
X03387*
Y04919*
G37*
G36*
X04822Y04955D02*
X04807D01*
X04793Y04952*
X04779Y04946*
X04767Y04938*
X04756Y04927*
X04748Y04915*
X04742Y04901*
X0474Y04887*
Y04872*
X04742Y04858*
X04748Y04844*
X04756Y04832*
X04767Y04821*
X04779Y04813*
X04793Y04807*
X04807Y04805*
X04822*
X04836Y04807*
X0485Y04813*
X04862Y04821*
X04873Y04832*
X04881Y04844*
X04887Y04858*
X0489Y04872*
Y04887*
X04887Y04901*
X04881Y04915*
X04873Y04927*
X04862Y04938*
X0485Y04946*
X04836Y04952*
X04822Y04955*
G37*
G36*
X03692Y04823D02*
X03687D01*
X03682Y04821*
X03678Y04817*
X03676Y04812*
Y04807*
X03678Y04802*
X03682Y04798*
X03687Y04796*
X03692*
X03697Y04798*
X03701Y04802*
X03703Y04807*
Y04812*
X03701Y04817*
X03697Y04821*
X03692Y04823*
G37*
G36*
X02176Y04808D02*
X02105D01*
Y04794*
X0205*
X02047Y04796*
X02042Y04798*
X02037*
X02032Y04796*
X02028Y04792*
X02026Y04787*
Y04782*
X02028Y04777*
X02032Y04773*
X02037Y04771*
X02042*
X02044Y04771*
X02105*
Y04757*
X02176*
Y04808*
G37*
G36*
X04528Y04832D02*
Y04788D01*
X04562*
Y04794*
X0456Y04804*
X04557Y04814*
X0455Y04822*
X04542Y04828*
X04533Y04832*
X04528Y04832*
G37*
G36*
X04225D02*
X0422Y04832D01*
X0421Y04828*
X04202Y04822*
X04196Y04814*
X04192Y04804*
X04191Y04794*
Y04788*
X04225*
Y04832*
G37*
G36*
X04479Y04846D02*
X0447D01*
X04462Y04843*
X04456Y04837*
X04453Y04829*
Y0482*
X04456Y04812*
X04462Y04806*
X0447Y04803*
X04479*
X0448Y04803*
X04485Y048*
X04484Y04794*
Y04788*
X04518*
Y04832*
X04513Y04832*
X04503Y04828*
X04501Y04826*
X04496Y04828*
Y04829*
X04493Y04837*
X04487Y04843*
X04479Y04846*
G37*
G36*
X01879Y048D02*
X01858D01*
Y0478*
X01879*
Y048*
G37*
G36*
X01848D02*
X01827D01*
Y0478*
X01848*
Y048*
G37*
G36*
X03468Y04911D02*
X03425D01*
Y04868*
X03435*
Y04796*
X03405Y04766*
X03332*
X0333Y04771*
X03331Y04772*
X03333Y04777*
Y04782*
X03331Y04787*
X03331Y04788*
Y04861*
X03331Y04862*
X03333Y04867*
Y04872*
X03331Y04877*
X03327Y04881*
X03322Y04883*
X03317*
X03312Y04881*
X03308Y04877*
X03306Y04872*
Y04867*
X03308Y04862*
X03308Y04861*
Y04788*
X03308Y04787*
X03306Y04782*
Y04777*
X03308Y04772*
X03309Y04771*
X03307Y04766*
X03143*
X03142Y04766*
X03137Y04768*
X03132*
X03127Y04766*
X03123Y04762*
X03121Y04757*
Y04752*
X03123Y04747*
X03127Y04743*
X03132Y04741*
X03137*
X03142Y04743*
X03143Y04743*
X0341*
X03414Y04744*
X03417Y04747*
X03454Y04784*
X03457Y04787*
X03458Y04792*
Y04868*
X03468*
Y04911*
G37*
G36*
X01939Y04864D02*
X01895D01*
Y04815*
X01908*
Y04796*
X01894*
Y04753*
X01938*
Y04796*
X01926*
Y04815*
X01939*
Y04864*
G37*
G36*
X01879Y0477D02*
X01858D01*
Y04749*
X01879*
Y0477*
G37*
G36*
X01848D02*
X01827D01*
Y04749*
X01848*
Y0477*
G37*
G36*
X04665Y04758D02*
Y04735D01*
X04688*
X04688Y04736*
X04683Y04745*
X04675Y04753*
X04666Y04758*
X04665Y04758*
G37*
G36*
X04635D02*
X04634Y04758D01*
X04624Y04753*
X04616Y04745*
X04611Y04736*
X04611Y04735*
X04635*
Y04758*
G37*
G36*
X04562Y04778D02*
X04528D01*
Y04734*
X04533Y04735*
X04542Y04739*
X0455Y04745*
X04557Y04753*
X0456Y04762*
X04562Y04772*
Y04778*
G37*
G36*
X04225D02*
X04191D01*
Y04772*
X04192Y04762*
X04196Y04753*
X04202Y04745*
X0421Y04739*
X0422Y04735*
X04225Y04734*
Y04778*
G37*
G36*
X04268D02*
X04235D01*
Y04734*
X0424Y04735*
X04249Y04739*
X04257Y04745*
X04263Y04753*
X04267Y04762*
X04268Y04772*
Y04778*
G37*
G36*
X04518D02*
X04484D01*
Y04772*
X04485Y04762*
X04489Y04753*
X04495Y04745*
X04503Y04739*
X04513Y04735*
X04518Y04734*
Y04778*
G37*
G36*
X01198Y04953D02*
X01121D01*
Y04876*
X01182*
X01346Y04712*
X0135Y04709*
X01354Y04708*
X02105*
Y04698*
X02176*
Y04749*
X02105*
Y04731*
X01359*
X01198Y04891*
Y04953*
G37*
G36*
X04688Y04705D02*
X04665D01*
Y04681*
X04666Y04681*
X04675Y04686*
X04683Y04694*
X04688Y04704*
X04688Y04705*
G37*
G36*
X04635D02*
X04611D01*
X04611Y04704*
X04616Y04694*
X04624Y04686*
X04634Y04681*
X04635Y04681*
Y04705*
G37*
G36*
X02536Y04731D02*
X02462D01*
Y04657*
X02536*
Y04731*
G37*
G36*
X02432D02*
X02359D01*
Y04657*
X02432*
Y04731*
G37*
G36*
X04065Y04646D02*
D01*
X04036*
X04032Y04645*
X04028Y04642*
X04017Y04631*
X04014Y04627*
X04013Y04623*
Y04573*
X04013Y04572*
X04011Y04567*
Y04562*
X04013Y04557*
X04017Y04553*
X04022Y04551*
X04027*
X04032Y04553*
X04036Y04557*
X04038Y04562*
Y04567*
X04036Y04572*
X04036Y04573*
Y04618*
X04041Y04623*
X0406*
X04064Y04619*
X04062Y04614*
Y04571*
X0409*
Y04614*
X04087*
Y04623*
X04087Y04627*
X04084Y04631*
X04072Y04642*
X04069Y04645*
X04065Y04646*
G37*
G36*
X03717Y04687D02*
X03675D01*
Y04645*
X03717*
Y04687*
G37*
G36*
X03665D02*
X03622D01*
Y04645*
X03665*
Y04687*
G37*
G36*
X01165Y04815D02*
X01154D01*
X01145Y04812*
X01136Y04807*
X01129Y048*
X01124Y04791*
X01121Y04781*
Y04771*
X01124Y04761*
X01129Y04753*
X01136Y04746*
X01145Y0474*
X01154Y04738*
X01165*
X01174Y0474*
X01178Y04742*
X01264Y04656*
X01267Y04654*
X01272Y04653*
X02105*
Y04639*
X02176*
Y0469*
X02105*
Y04675*
X01276*
X01194Y04758*
X01195Y04761*
X01198Y04771*
Y04781*
X01195Y04791*
X0119Y048*
X01183Y04807*
X01174Y04812*
X01165Y04815*
G37*
G36*
X04442D02*
X04336D01*
Y04752*
X04365*
Y04727*
X04331Y04693*
X04329Y04689*
X04328Y04685*
Y04667*
X04317*
Y04664*
X04295*
X04291Y04663*
X04287Y04661*
X04273Y04647*
X04271Y04643*
X0427Y04639*
Y04577*
X04271Y04573*
X04273Y0457*
X04275Y04568*
Y04531*
X04272Y0453*
X04268Y04527*
X04265Y04525*
X0426*
X04259Y04525*
X04254Y04528*
X04248*
X04243Y04525*
X04243Y04525*
X04223*
Y04529*
X04179*
Y04519*
X04168*
Y04529*
X04124*
Y04519*
X0411*
X04106Y04518*
X04102Y04515*
X04097Y0451*
X04095Y04507*
X0409Y04509*
Y04524*
X04062*
Y0448*
X04065*
Y04461*
X04064Y0446*
X04062Y04455*
Y0445*
X04064Y04445*
X04068Y04441*
X04073Y04439*
X04079*
X04084Y04441*
X04088Y04445*
X04088Y04445*
X04093Y04444*
Y04429*
X0404Y04376*
X03703*
X03702Y04376*
X03697Y04378*
X03692*
X03687Y04376*
X03683Y04372*
X03681Y04367*
Y04362*
X03683Y04357*
X03687Y04353*
X03692Y04351*
X03697*
X03702Y04353*
X03703Y04353*
X04045*
X04049Y04354*
X04052Y04357*
X04112Y04417*
X04115Y0442*
X04116Y04425*
Y04496*
X04124*
Y04486*
X04135*
Y04472*
X04122*
Y04423*
X04165*
Y04472*
X04157*
Y04486*
X04168*
Y04496*
X04179*
Y04486*
X04223*
Y04502*
X04243*
X04243Y04502*
X04248Y045*
X04254*
X04259Y04502*
X0426Y04502*
X0427*
X04274Y04503*
X04278Y04506*
X0428Y04508*
X04321*
Y04483*
X04321Y04483*
Y04467*
X04322Y04467*
X04317Y04462*
X04317Y04463*
X04301*
X04301Y04463*
X04263*
X04259Y04465*
X04253*
X04248Y04462*
X04244Y04459*
X04244Y04458*
X04242Y04457*
X04238Y04456*
X04236Y04458*
X04231Y04459*
X04221*
Y04472*
X04177*
Y04443*
X04177*
Y04409*
Y04366*
Y04352*
X04177Y04352*
Y04303*
X04221*
Y04316*
X04248*
X04248Y04316*
X04253Y04314*
X04259*
X04264Y04316*
X04268Y0432*
X0427Y04325*
Y04327*
X0427*
X04275Y04329*
X04275*
X04275Y04329*
X04277Y04326*
X04281Y04323*
X04285Y04322*
X04317*
X04317Y04322*
X04322Y04318*
X04321Y04318*
Y04286*
X04322Y04282*
X04325Y04278*
X04328Y04276*
X04332Y04275*
X04337Y04276*
X04339Y04277*
X04342Y04278*
X04346Y04277*
X04348Y04276*
X04352Y04275*
X04356Y04276*
X04359Y04277*
X04362Y04278*
X04365Y04277*
X04368Y04276*
X04372Y04275*
X04376Y04276*
X04378Y04277*
X04382Y04278*
X04385Y04277*
X04387Y04276*
X04392Y04275*
X04396Y04276*
X04398Y04277*
X04401Y04278*
X04405Y04277*
X04407Y04276*
X04411Y04275*
X04415Y04276*
X04418Y04277*
X04421Y04278*
X04424Y04277*
X04427Y04276*
X04431Y04275*
X04435Y04276*
X04439Y04278*
X04443*
X04446Y04276*
X04451Y04275*
X04455Y04276*
X04458Y04278*
X04461Y04282*
X04462Y04286*
Y04318*
X04462Y04318*
X04466Y04322*
X04466Y04322*
X04498*
X04502Y04323*
X04506Y04326*
X04508Y04329*
X04509Y04333*
X04508Y04338*
X04506Y04341*
Y04345*
X04508Y04349*
X04509Y04353*
X04508Y04356*
X0451Y0436*
X04511Y04361*
X04592*
X04596Y0436*
X04602*
X04607Y04362*
X04611Y04366*
X04613Y04371*
X04618Y04374*
X04618Y04374*
X04622Y04371*
Y04361*
X04671*
Y04371*
X04683*
X04683Y04371*
X04688Y04369*
X04694*
X04699Y04371*
X04703Y04375*
X04703Y04375*
X04708Y04374*
Y04352*
X04723*
Y04345*
X04722Y04344*
X04655*
X04654Y04344*
X04649Y04346*
X04643*
X04638Y04344*
X04634Y0434*
X04632Y04335*
Y0433*
X04634Y04325*
X04638Y04321*
X04643Y04319*
X04649*
X04654Y04321*
X04655Y04321*
X04726*
X04731Y04322*
X04734Y04325*
X04742Y04332*
X04744Y04336*
X04745Y0434*
Y04352*
X0476*
Y04388*
X04709*
X04708*
X04704Y04389*
X04703Y0439*
X04699Y04394*
X04694Y04396*
X04688*
X04683Y04394*
X04683Y04394*
X04671*
Y04404*
X04622*
X04617Y04402*
X04612Y04407*
Y04446*
X04612Y0445*
X04609Y04454*
X04603Y04459*
X046Y04462*
X04595Y04463*
X04482*
X04482Y04463*
X04466*
X04466Y04462*
X04462Y04467*
X04462Y04467*
Y04499*
X04461Y04503*
X04458Y04507*
X04455Y04509*
X04451Y0451*
X04446Y04509*
X04443Y04507*
X04439*
X04435Y04509*
X04431Y0451*
X04427Y04509*
X04423Y04507*
X04421Y04503*
X0442Y04499*
Y04467*
X04417Y04464*
X04405*
X04403Y04467*
Y04483*
X04403Y04483*
Y04542*
X04402Y04546*
X04399Y0455*
X04389Y0456*
X04386Y04563*
X04381Y04564*
X04311*
X04292Y04582*
Y04634*
X043Y04642*
X04313*
Y04632*
X04339*
X04365*
Y04645*
X04361*
Y04667*
X0435*
Y0468*
X04384Y04715*
X04386Y04718*
X04388Y04718*
X04389Y04718*
X04392Y04718*
X04394Y04714*
X04412Y04696*
Y04667*
X04402*
Y04639*
Y04614*
Y04588*
X04412*
Y04577*
X04409Y04574*
X04407Y04569*
Y04564*
X04409Y04558*
X04413Y04555*
X04418Y04552*
X04424*
X04429Y04555*
X04433Y04558*
X04435Y04564*
Y04569*
X04435Y0457*
Y04588*
X04445*
Y04591*
X04453*
X04453Y04591*
X04458Y04589*
X04464*
X04469Y04591*
X04473Y04595*
X04475Y046*
Y04605*
X04473Y0461*
X04469Y04614*
X04464Y04616*
X04458*
X04453Y04614*
X04453Y04613*
X04445*
Y04642*
X04456*
X04467Y0463*
Y0463*
X04469Y04625*
X04473Y04621*
X04478Y04619*
X04484*
X04489Y04621*
X04493Y04625*
X04495Y0463*
Y04635*
X04493Y0464*
X04489Y04644*
X04484Y04646*
X04483*
X04469Y04661*
X04465Y04663*
X04464Y04664*
X04464Y04668*
X04464Y04669*
X04469Y04671*
X04473Y04675*
X04475Y0468*
Y04685*
X04473Y0469*
X04471Y04692*
Y04704*
X0447Y04708*
X04468Y04711*
X04439Y04741*
Y04752*
X04442*
Y04815*
G37*
G36*
X04761Y04615D02*
X04709D01*
Y04608*
X04671*
Y04612*
X04622*
Y04568*
X04671*
Y04586*
X04709*
Y04579*
X04761*
Y04615*
G37*
G36*
X03875Y04683D02*
X03864D01*
X03853Y0468*
X03843Y04674*
X03835Y04666*
X03829Y04656*
X03826Y04645*
Y04634*
X03829Y04623*
X03835Y04613*
X03843Y04605*
X03853Y04599*
X03864Y04596*
X03875*
X03886Y04599*
X03896Y04605*
X03904Y04613*
X0391Y04623*
X03913Y04634*
Y04645*
X0391Y04656*
X03904Y04666*
X03896Y04674*
X03886Y0468*
X03875Y04683*
G37*
G36*
X04897Y04683D02*
X04892D01*
X04887Y04681*
X04883Y04677*
X04881Y04672*
Y04667*
X04883Y04662*
X04883Y04661*
Y04637*
X04872*
Y04593*
X04921*
Y04637*
X04906*
Y04661*
X04906Y04662*
X04908Y04667*
Y04672*
X04906Y04677*
X04902Y04681*
X04897Y04683*
G37*
G36*
X03717Y04635D02*
X03675D01*
Y04592*
X03717*
Y04635*
G37*
G36*
X03665D02*
X03622D01*
Y04592*
X03665*
Y04635*
G37*
G36*
X04365Y04622D02*
X04339D01*
X04313*
Y0461*
X04317*
Y04588*
X04361*
Y0461*
X04365*
Y04622*
G37*
G36*
X01165Y04677D02*
X01154D01*
X01145Y04674*
X01136Y04669*
X01129Y04662*
X01124Y04653*
X01121Y04644*
Y04633*
X01124Y04624*
X01129Y04615*
X01136Y04608*
X01145Y04603*
X01154Y046*
X01165*
X01174Y04603*
X01178Y04605*
X01185Y04597*
X01189Y04595*
X01193Y04594*
X02105*
Y0458*
X02176*
Y04631*
X02105*
Y04616*
X01198*
X01194Y04621*
X01195Y04624*
X01198Y04633*
Y04644*
X01195Y04653*
X0119Y04662*
X01183Y04669*
X01174Y04674*
X01165Y04677*
G37*
G36*
X04921Y04582D02*
X04872D01*
Y04571*
X04855*
Y04577*
X04804*
Y04542*
X04855*
Y04548*
X04872*
Y04538*
X04921*
Y04582*
G37*
G36*
X02176Y04572D02*
X02105D01*
Y04557*
X01205*
X01201Y04557*
X01197Y04554*
X01178Y04535*
X01174Y04537*
X01165Y04539*
X01154*
X01145Y04537*
X01136Y04532*
X01129Y04524*
X01124Y04516*
X01121Y04506*
Y04496*
X01124Y04486*
X01129Y04477*
X01136Y0447*
X01145Y04465*
X01154Y04462*
X01165*
X01174Y04465*
X01183Y0447*
X0119Y04477*
X01195Y04486*
X01198Y04496*
Y04506*
X01195Y04516*
X01194Y04519*
X0121Y04535*
X02105*
Y0452*
X02176*
Y04572*
G37*
G36*
X02536Y04627D02*
X02462D01*
Y04553*
X02536*
Y04627*
G37*
G36*
X02432D02*
X02359D01*
Y04553*
X02432*
Y04627*
G37*
G36*
X04671Y04557D02*
X04622D01*
Y04543*
X04607*
X04607Y04544*
X04602Y04546*
X04596*
X04591Y04544*
X04587Y0454*
X04585Y04535*
Y04529*
X04587Y04524*
X04591Y0452*
X04596Y04518*
X04602*
X04607Y0452*
X04607Y04521*
X04622*
Y04513*
X04635*
Y04496*
X04634Y04495*
X04632Y0449*
Y04485*
X04634Y0448*
X04638Y04476*
X04643Y04474*
X04649*
X04654Y04476*
X04658Y0448*
X0466Y04485*
Y0449*
X04658Y04495*
X04657Y04496*
Y04513*
X04671*
Y04557*
G37*
G36*
X04761Y0454D02*
X04709D01*
Y04533*
X047*
X04699Y04534*
X04694Y04536*
X04688*
X04683Y04534*
X04679Y0453*
X04677Y04525*
Y0452*
X04679Y04515*
X04683Y04511*
X04688Y04509*
X04694*
X04699Y04511*
X04699Y04511*
X04709*
Y04504*
X04761*
Y0454*
G37*
G36*
X02176Y04513D02*
X02105D01*
Y04498*
X01284*
X01279Y04497*
X01276Y04495*
X01178Y04397*
X01174Y04399*
X01165Y04401*
X01154*
X01145Y04399*
X01136Y04394*
X01129Y04387*
X01124Y04378*
X01121Y04368*
Y04358*
X01124Y04348*
X01129Y04339*
X01136Y04332*
X01145Y04327*
X01154Y04324*
X01165*
X01174Y04327*
X01183Y04332*
X0119Y04339*
X01195Y04348*
X01198Y04358*
Y04368*
X01195Y04378*
X01194Y04381*
X01288Y04476*
X02105*
Y04461*
X02176*
Y04513*
G37*
G36*
X02884D02*
X02813D01*
Y04461*
X02884*
Y04476*
X03131*
X03131Y04476*
X03132Y04476*
X03137*
X03142Y04478*
X03146Y04482*
X03148Y04487*
Y04492*
X03146Y04497*
X03142Y04501*
X03137Y04503*
X03132*
X03127Y04501*
X03124Y04498*
X02884*
Y04513*
G37*
G36*
X03676Y04507D02*
X03675D01*
Y04465*
X03717*
Y04466*
X03714Y04478*
X03708Y04489*
X03699Y04498*
X03688Y04504*
X03676Y04507*
G37*
G36*
X03665D02*
X03663D01*
X03651Y04504*
X0364Y04498*
X03632Y04489*
X03625Y04478*
X03622Y04466*
Y04465*
X03665*
Y04507*
G37*
G36*
X0476Y04463D02*
X04708D01*
Y04456*
X04671*
Y04459*
X04622*
Y04416*
X04671*
Y04434*
X04708*
Y04427*
X0476*
Y04463*
G37*
G36*
X04897Y04528D02*
X04892D01*
X04887Y04526*
X04883Y04522*
X04881Y04517*
Y04512*
X04883Y04507*
X04883Y04506*
Y04487*
X04872*
Y04443*
X04921*
Y04487*
X04906*
Y04506*
X04906Y04507*
X04908Y04512*
Y04517*
X04906Y04522*
X04902Y04526*
X04897Y04528*
G37*
G36*
X02176Y04454D02*
X02105D01*
Y04439*
X01362*
X01358Y04438*
X01355Y04436*
X01178Y04259*
X01174Y04261*
X01165Y04264*
X01154*
X01145Y04261*
X01136Y04256*
X01129Y04249*
X01124Y0424*
X01121Y0423*
Y0422*
X01124Y0421*
X01129Y04202*
X01136Y04194*
X01145Y04189*
X01154Y04187*
X01165*
X01174Y04189*
X01183Y04194*
X0119Y04202*
X01195Y0421*
X01198Y0422*
Y0423*
X01195Y0424*
X01194Y04243*
X01367Y04417*
X02105*
Y04402*
X02176*
Y04454*
G37*
G36*
X04921Y04432D02*
X04872D01*
Y04419*
X04854*
Y04425*
X04803*
Y0439*
X04854*
Y04396*
X04872*
Y04388*
X04921*
Y04432*
G37*
G36*
X03875Y04503D02*
X03864D01*
X03853Y045*
X03843Y04494*
X03835Y04486*
X03829Y04476*
X03826Y04465*
Y04454*
X03829Y04443*
X03835Y04433*
X03843Y04425*
X03853Y04419*
X03864Y04416*
X03875*
X03886Y04419*
X03896Y04425*
X03904Y04433*
X0391Y04443*
X03913Y04454*
Y04465*
X0391Y04476*
X03904Y04486*
X03896Y04494*
X03886Y045*
X03875Y04503*
G37*
G36*
X03717Y04455D02*
X03675D01*
Y04412*
X03676*
X03688Y04415*
X03699Y04422*
X03708Y0443*
X03714Y04441*
X03717Y04453*
Y04455*
G37*
G36*
X03665D02*
X03622D01*
Y04453*
X03625Y04441*
X03632Y0443*
X0364Y04422*
X03651Y04415*
X03663Y04412*
X03665*
Y04455*
G37*
G36*
X02884Y04454D02*
X02813D01*
Y04402*
X02884*
Y04454*
G37*
G36*
X02176Y04395D02*
X02105D01*
Y0438*
X01441*
X01437Y04379*
X01433Y04377*
X01178Y04121*
X01174Y04123*
X01165Y04126*
X01154*
X01145Y04123*
X01136Y04118*
X01129Y04111*
X01124Y04102*
X01121Y04092*
Y04082*
X01124Y04072*
X01129Y04064*
X01136Y04057*
X01145Y04051*
X01154Y04049*
X01165*
X01174Y04051*
X01183Y04057*
X0119Y04064*
X01195Y04072*
X01198Y04082*
Y04092*
X01195Y04102*
X01194Y04105*
X01446Y04358*
X02105*
Y04343*
X02176*
Y04395*
G37*
G36*
X02884D02*
X02813D01*
Y04343*
X02884*
Y04395*
G37*
G36*
X02176Y04336D02*
X02105D01*
Y04321*
X0152*
X01516Y0432*
X01512Y04318*
X01178Y03984*
X01174Y03985*
X01165Y03988*
X01154*
X01145Y03985*
X01136Y0398*
X01129Y03973*
X01124Y03964*
X01121Y03955*
Y03944*
X01124Y03935*
X01129Y03926*
X01136Y03919*
X01145Y03914*
X01154Y03911*
X01165*
X01174Y03914*
X01183Y03919*
X0119Y03926*
X01195Y03935*
X01198Y03944*
Y03955*
X01195Y03964*
X01194Y03968*
X01525Y04299*
X02105*
Y04284*
X02176*
Y04336*
G37*
G36*
X04157Y04409D02*
X04114D01*
Y04366*
X04132*
Y04352*
X04122*
Y04303*
X04165*
Y04352*
X04155*
Y04366*
X04157*
Y04409*
G37*
G36*
X02884Y04336D02*
X02813D01*
Y04284*
X02884*
Y043*
X02959*
X02962Y04298*
X02967Y04296*
X02972*
X02977Y04298*
X02981Y04302*
X02983Y04307*
Y04312*
X02981Y04317*
X02977Y04321*
X02972Y04323*
X02967*
X02962Y04321*
X02959Y04319*
X02884*
Y04336*
G37*
G36*
X02176Y04277D02*
X02105D01*
Y04262*
X01599*
X01594Y04261*
X01591Y04259*
X01178Y03846*
X01174Y03848*
X01165Y0385*
X01154*
X01145Y03848*
X01136Y03843*
X01129Y03835*
X01124Y03827*
X01121Y03817*
Y03807*
X01124Y03797*
X01129Y03788*
X01136Y03781*
X01145Y03776*
X01154Y03773*
X01165*
X01174Y03776*
X01183Y03781*
X0119Y03788*
X01195Y03797*
X01198Y03807*
Y03817*
X01195Y03827*
X01194Y0383*
X01603Y0424*
X02105*
Y04225*
X02176*
Y04277*
G37*
G36*
X03717Y04257D02*
X03675D01*
Y04215*
X03717*
Y04257*
G37*
G36*
X03665D02*
X03622D01*
Y04215*
X03665*
Y04257*
G37*
G36*
X02176Y04218D02*
X02105D01*
Y04203*
X01677*
X01673Y04202*
X01669Y042*
X01178Y03708*
X01174Y0371*
X01165Y03712*
X01154*
X01145Y0371*
X01136Y03705*
X01129Y03698*
X01124Y03689*
X01121Y03679*
Y03669*
X01124Y03659*
X01129Y0365*
X01136Y03643*
X01145Y03638*
X01154Y03635*
X01165*
X01174Y03638*
X01183Y03643*
X0119Y0365*
X01195Y03659*
X01198Y03669*
Y03679*
X01195Y03689*
X01194Y03692*
X01682Y04181*
X02105*
Y04166*
X02176*
Y04218*
G37*
G36*
X04141Y04145D02*
X0412D01*
Y04125*
X04141*
Y04145*
G37*
G36*
X0411D02*
X04089D01*
Y04125*
X0411*
Y04145*
G37*
G36*
X02884Y04158D02*
X02813D01*
Y04107*
X02884*
Y0412*
X02894*
X02897Y04118*
X02902Y04116*
X02907*
X02912Y04118*
X02916Y04122*
X02918Y04127*
Y04132*
X02916Y04137*
X02912Y04141*
X02907Y04143*
X02902*
X02897Y04141*
X02894Y04139*
X02884*
Y04158*
G37*
G36*
X02176D02*
X02105D01*
Y04144*
X02068*
X02063Y04143*
X0206Y04141*
X02022Y04102*
X02019Y04099*
X02018Y04095*
Y0394*
X02019Y03935*
X02022Y03932*
X02148Y03806*
X02146Y03801*
X02055*
X0205Y03799*
X02045Y03794*
X02043Y0379*
Y0346*
X02045Y03455*
X02111Y03389*
X02109Y03385*
X02071*
X02069Y03389*
X02065Y03391*
X01852*
X01831Y03412*
Y0346*
X01829Y03464*
X01811Y03482*
Y0357*
X01809Y03574*
X01805Y03576*
Y03633*
X01809Y03635*
X01811Y0364*
Y0373*
X01809Y03734*
X01805Y03736*
X0144*
X01435Y03734*
X01425Y03724*
X01423Y0372*
Y036*
X01425Y03595*
X01434Y03586*
X01432Y03581*
X01391*
Y03538*
X01402*
Y03507*
X014Y03506*
X01396Y03501*
X01395Y03494*
Y0346*
X01396Y03453*
X014Y03447*
X01406Y03443*
X01413Y03442*
X0142Y03443*
X01426Y03447*
X0143Y03453*
X01431Y0346*
Y03494*
X0143Y03501*
X01426Y03506*
X01424Y03507*
Y03538*
X01433*
X01434*
X01438Y03535*
Y0344*
X0144Y03435*
X01445Y03433*
X0148*
X01484Y0343*
X01484Y03429*
X01445Y03389*
X01443Y03385*
Y0336*
Y0323*
X01445Y03225*
X01463Y03207*
Y03145*
X01465Y0314*
X0147Y03138*
X01535*
X01539Y0314*
X01541Y03145*
Y0351*
X01539Y03514*
X01535Y03516*
X01495*
X01491Y03515*
X01486Y03517*
Y03577*
X01542Y03633*
X01575*
Y03576*
X0157Y03574*
X01568Y0357*
Y03375*
X0157Y0337*
X0175Y0319*
X01755Y03188*
X02065*
X02069Y0319*
X02071Y03195*
X02118*
X0212Y0319*
X02125Y03188*
X022*
X02204Y0319*
X02206Y03195*
Y03741*
X02211Y03743*
X02218Y03735*
Y02645*
X01841Y02268*
X0178*
Y02191*
X01857*
Y02252*
X02233Y02629*
X02238Y02627*
Y02528*
X01974Y02264*
X01971Y02265*
X01961Y02268*
X01951*
X01941Y02265*
X01933Y0226*
X01925Y02253*
X0192Y02244*
X01918Y02235*
Y02224*
X0192Y02215*
X01925Y02206*
X01933Y02199*
X01941Y02194*
X01951Y02191*
X01961*
X01971Y02194*
X0198Y02199*
X01987Y02206*
X01992Y02215*
X01995Y02224*
Y02235*
X01992Y02244*
X0199Y02248*
X02253Y02511*
X02258Y02509*
Y0241*
X02112Y02264*
X02109Y02265*
X02099Y02268*
X02089*
X02079Y02265*
X0207Y0226*
X02063Y02253*
X02058Y02244*
X02055Y02235*
Y02224*
X02058Y02215*
X02063Y02206*
X0207Y02199*
X02079Y02194*
X02089Y02191*
X02099*
X02109Y02194*
X02118Y02199*
X02125Y02206*
X0213Y02215*
X02132Y02224*
Y02235*
X0213Y02244*
X02128Y02248*
X02272Y02392*
X02277Y0239*
Y0229*
X0225Y02264*
X02247Y02265*
X02237Y02268*
X02227*
X02217Y02265*
X02208Y0226*
X02201Y02253*
X02196Y02244*
X02193Y02235*
Y02224*
X02196Y02215*
X02201Y02206*
X02208Y02199*
X02217Y02194*
X02227Y02191*
X02237*
X02247Y02194*
X02255Y02199*
X02263Y02206*
X02268Y02215*
X0227Y02224*
Y02235*
X02268Y02244*
X02266Y02248*
X02296Y02278*
X02298Y02281*
X02299Y02286*
Y03994*
X02314*
Y04065*
X02262*
Y03994*
X02277*
Y03765*
X02272Y03763*
X0224Y03795*
Y03994*
X02254*
Y04065*
X02203*
Y03994*
X02218*
Y03799*
X02213Y03797*
X02071Y03939*
Y0405*
X02083Y04063*
X02105*
Y04048*
X02176*
Y04099*
X02105*
Y04085*
X02079*
X02074Y04084*
X02071Y04082*
X02052Y04062*
X02049Y04059*
X02048Y04055*
Y03945*
X02044Y03943*
X02041Y03945*
Y0409*
X02072Y04122*
X02105*
Y04107*
X02176*
Y04158*
G37*
G36*
X04141Y04115D02*
X0412D01*
Y04094*
X04141*
Y04115*
G37*
G36*
X0411D02*
X04089D01*
Y04094*
X0411*
Y04115*
G37*
G36*
X04196Y04141D02*
X04152D01*
Y04098*
X04163*
Y04082*
X0415*
Y04039*
X04199*
Y04082*
X04185*
Y04098*
X04196*
Y04141*
G37*
G36*
X03759Y04037D02*
X0371D01*
Y04027*
X03694*
Y04037*
X03645*
Y03994*
X03694*
Y04004*
X0371*
Y03994*
X03759*
Y04004*
X03773*
Y03992*
X03817*
Y03992*
X03847*
X03848Y0399*
X03854Y03986*
X03861Y03985*
X03896*
X03903Y03986*
X03909Y0399*
X03913Y03996*
X03914Y04003*
X03913Y0401*
X03909Y04016*
X03903Y0402*
X03896Y04021*
X03861*
X03854Y0402*
X03848Y04016*
X03847Y04014*
X03817*
Y04035*
X03773*
Y04027*
X03759*
Y04037*
G37*
G36*
X04264Y04027D02*
X04215D01*
Y04014*
X04199*
Y04027*
X0415*
Y04014*
X04123*
X04122Y04016*
X04116Y0402*
X04109Y04021*
X04073*
X04066Y0402*
X04061Y04016*
X04057Y0401*
X04055Y04003*
X04057Y03996*
X04061Y0399*
X04066Y03986*
X04073Y03985*
X04109*
X04116Y03986*
X04122Y0399*
X04123Y03992*
X0415*
Y03984*
X04199*
Y03992*
X04215*
Y03984*
X04264*
Y04027*
G37*
G36*
X04516Y04033D02*
X04495D01*
Y04012*
X04516*
Y04033*
G37*
G36*
X04485D02*
X04464D01*
Y04012*
X04485*
Y04033*
G37*
G36*
X04339Y04027D02*
X0429D01*
Y03984*
X04339*
Y03996*
X04361*
X04362Y03996*
X04367Y03993*
X04372*
X04377Y03996*
X04381Y04*
X04383Y04005*
Y0401*
X04381Y04015*
X04377Y04019*
X04372Y04021*
X04367*
X04362Y04019*
X04361Y04019*
X04339*
Y04027*
G37*
G36*
X04516Y04002D02*
X04495D01*
Y03982*
X04516*
Y04002*
G37*
G36*
X04485D02*
X04464D01*
Y03982*
X04485*
Y04002*
G37*
G36*
X04399Y03978D02*
X04355D01*
Y03964*
X04339*
Y03972*
X0429*
Y03964*
X04264*
Y03972*
X04215*
Y03964*
X04123*
X04122Y03966*
X04116Y0397*
X04109Y03971*
X04073*
X04066Y0397*
X04061Y03966*
X04057Y0396*
X04055Y03953*
X04057Y03946*
X04061Y0394*
X04066Y03936*
X04073Y03935*
X04109*
X04116Y03936*
X04122Y0394*
X04123Y03942*
X04215*
Y03929*
X04264*
Y03942*
X0429*
Y03929*
X04339*
Y03942*
X04355*
Y03928*
X04399*
Y03978*
G37*
G36*
X04803Y04018D02*
X04793D01*
X04784Y04016*
X04776Y04011*
X0477Y04005*
X04765Y03997*
X04764Y03992*
X04763*
X04759Y03991*
X04756Y03989*
X04657Y0389*
X04649*
Y03902*
X04628*
Y03906*
X04615*
Y03881*
Y03855*
X04617*
X04619Y0385*
X04606Y03837*
X04564*
X04512Y03889*
Y0392*
X04468*
Y03904*
X04454*
Y03918*
X04411*
Y03868*
X04454*
Y03882*
X04468*
Y03876*
X04499*
X04505Y03869*
X04504Y03865*
X04495*
Y03844*
X04516*
Y03853*
X0452Y03855*
X04554Y03821*
X04557Y03819*
X0456Y03818*
X04609*
X04613Y03819*
X04616Y03821*
X04642Y03847*
X04644Y0385*
X04645Y03854*
Y03859*
X04649*
Y03871*
X04661*
X04664Y03872*
X04667Y03874*
X04758Y03965*
X04763Y03963*
X04764Y03962*
X04723Y03921*
X04721Y03918*
X04721Y03915*
Y03811*
X04721Y03808*
X04723Y03805*
X04767Y03761*
X04765Y03757*
X04762Y03748*
Y03738*
X04765Y03729*
X0477Y03721*
X04776Y03715*
X04784Y0371*
X04793Y03707*
X04803*
X04812Y0371*
X0482Y03715*
X04826Y03721*
X04831Y03729*
X04833Y03738*
Y03748*
X04831Y03757*
X04826Y03765*
X0482Y03771*
X04812Y03776*
X04803Y03778*
X04793*
X04784Y03776*
X0478Y03774*
X04739Y03815*
Y03911*
X0478Y03952*
X04784Y0395*
X04793Y03947*
X04803*
X04812Y0395*
X0482Y03955*
X04826Y03961*
X04831Y03969*
X04833Y03978*
Y03988*
X04831Y03997*
X04826Y04005*
X0482Y04011*
X04812Y04016*
X04803Y04018*
G37*
G36*
X02432Y04065D02*
X0238D01*
Y03994*
X02393*
Y03963*
X02393Y03962*
X02391Y03957*
Y03952*
X02393Y03947*
X02397Y03943*
X02402Y03941*
X02407*
X02412Y03943*
X02416Y03947*
X02418Y03952*
Y03957*
X02416Y03962*
X02416Y03963*
Y03994*
X02432*
Y04065*
G37*
G36*
X03896Y03921D02*
X03861D01*
X03854Y0392*
X03848Y03916*
X03847Y03914*
X03817*
Y0392*
X03773*
Y03914*
X03757*
Y0392*
X03713*
Y03911*
X03583*
X03582Y03911*
X03577Y03913*
X03572*
X03567Y03911*
X03563Y03907*
X03561Y03902*
Y03897*
X03563Y03892*
X03567Y03888*
X03572Y03886*
X03577*
X03582Y03888*
X03583Y03888*
X03713*
Y03877*
X03757*
Y03892*
X03773*
Y03877*
X03817*
Y03892*
X03847*
X03848Y0389*
X03854Y03886*
X03861Y03885*
X03896*
X03903Y03886*
X03909Y0389*
X03913Y03896*
X03914Y03903*
X03913Y0391*
X03909Y03916*
X03903Y0392*
X03896Y03921*
G37*
G36*
X04109D02*
X04073D01*
X04066Y0392*
X04061Y03916*
X04057Y0391*
X04055Y03903*
X04057Y03896*
X04061Y0389*
X04066Y03886*
X04073Y03885*
X04109*
X04116Y03886*
X04122Y0389*
X04123Y03892*
X04161*
X04165Y03887*
X04169Y03885*
X04173Y03884*
X04215*
Y03874*
X04264*
Y03884*
X0429*
Y03871*
X04339*
Y03882*
X04355*
Y03868*
X04399*
Y03918*
X04355*
Y03904*
X04339*
Y03915*
X0429*
Y03907*
X04264*
Y03917*
X04215*
Y03907*
X04178*
X04173Y03911*
X0417Y03913*
X04165Y03914*
X04123*
X04122Y03916*
X04116Y0392*
X04109Y03921*
G37*
G36*
X03896Y03871D02*
X03861D01*
X03854Y0387*
X03848Y03866*
X03847Y03864*
X03832*
X03828Y03863*
X03824Y03861*
X03824Y0386*
X03819Y03862*
X0377*
Y03819*
X03819*
Y03829*
X03823Y03832*
X03827Y03833*
X03831Y03835*
X03837Y03842*
X03847*
X03848Y0384*
X03854Y03836*
X03861Y03835*
X03896*
X03903Y03836*
X03909Y0384*
X03913Y03846*
X03914Y03853*
X03913Y0386*
X03909Y03866*
X03903Y0387*
X03896Y03871*
G37*
G36*
X04605Y03906D02*
X04592D01*
Y03902*
X0457*
Y03859*
X04592*
Y03855*
X04605*
Y03881*
Y03906*
G37*
G36*
X04833Y04118D02*
X04762D01*
Y04075*
X04759Y04075*
X04756Y04073*
X04658Y03974*
X04649*
Y03987*
X04645*
Y03997*
X04644Y04001*
X04642Y04004*
X04636Y04009*
X04633Y04011*
X0463Y04012*
X04575*
X04571Y04011*
X04568Y04009*
X04517Y03958*
X04512Y03958*
Y0397*
X04468*
Y0396*
X04454*
Y03978*
X04411*
Y03928*
X04454*
Y03937*
X04468*
Y03927*
X04512*
Y03939*
X0452*
X04524Y0394*
X04527Y03942*
X04566Y03981*
X0457Y03979*
Y03944*
X04649*
Y03956*
X04662*
X04666Y03957*
X04669Y03959*
X04759Y04049*
X04762Y04047*
X04833*
Y04074*
X04841*
X04871Y04044*
Y03887*
X04838Y03855*
X04833Y03857*
Y03878*
X04762*
Y03807*
X04833*
Y03834*
X0484*
X04843Y03834*
X04846Y03836*
X04886Y03876*
X04888Y03879*
X04889Y03883*
Y04048*
X04888Y04051*
X04886Y04054*
X04851Y04089*
X04848Y04091*
X04845Y04092*
X04833*
Y04118*
G37*
G36*
X04485Y03865D02*
X04464D01*
Y03844*
X04485*
Y03865*
G37*
G36*
X02491Y04065D02*
X02439D01*
Y03994*
X02453*
Y03924*
X02443*
Y03875*
X02453*
Y03858*
X02453Y03857*
X02451Y03852*
Y03847*
X02453Y03842*
X02457Y03838*
X02462Y03836*
X02467*
X02472Y03838*
X02476Y03842*
X02478Y03847*
Y03852*
X02476Y03857*
X02476Y03858*
Y03875*
X02486*
Y03924*
X02476*
Y03994*
X02491*
Y04065*
G37*
G36*
X04109Y03871D02*
X04073D01*
X04066Y0387*
X04061Y03866*
X04057Y0386*
X04055Y03853*
X04057Y03846*
X04061Y0384*
X04066Y03836*
X04073Y03835*
X04109*
X04116Y03836*
X04122Y0384*
X04123Y03842*
X04195*
X04206Y0383*
X0421Y03827*
X04214Y03827*
X04218*
Y03816*
X04262*
Y03827*
X0429*
Y03816*
X04339*
Y03822*
X04361*
X04362Y03821*
X04367Y03819*
X04373*
X04378Y03821*
X04382Y03825*
X04384Y0383*
Y03836*
X04382Y03841*
X04378Y03845*
X04373Y03847*
X04367*
X04362Y03845*
X04361Y03844*
X04339*
Y0386*
X0429*
Y03849*
X04262*
Y03859*
X04218*
Y03857*
X04213Y03855*
X04207Y03861*
X04204Y03863*
X04199Y03864*
X04123*
X04122Y03866*
X04116Y0387*
X04109Y03871*
G37*
G36*
X04516Y03834D02*
X04495D01*
Y03813*
X04516*
Y03834*
G37*
G36*
X04485D02*
X04464D01*
Y03813*
X04485*
Y03834*
G37*
G36*
X04266Y03804D02*
X04245D01*
Y03783*
X04266*
Y03804*
G37*
G36*
X04235D02*
X04214D01*
Y03783*
X04235*
Y03804*
G37*
G36*
X04266Y03773D02*
X04245D01*
Y03753*
X04266*
Y03773*
G37*
G36*
X04235D02*
X04214D01*
Y03753*
X04235*
Y03773*
G37*
G36*
X02431Y03924D02*
X02388D01*
Y03875*
X02398*
Y03753*
X02398Y03752*
X02396Y03747*
Y03742*
X02398Y03737*
X02402Y03733*
X02407Y03731*
X02412*
X02417Y03733*
X02421Y03737*
X02423Y03742*
Y03747*
X02421Y03752*
X02421Y03753*
Y03875*
X02431*
Y03924*
G37*
G36*
X01302Y03543D02*
X01297D01*
X01292Y03541*
X01288Y03537*
X01286Y03532*
Y0353*
X01277Y03521*
X01274Y03517*
X01273Y03513*
Y03479*
X0126*
Y03435*
X01309*
Y03479*
X01296*
Y03508*
X01304Y03516*
X01307Y03518*
X01311Y03522*
X01313Y03527*
Y03532*
X01311Y03537*
X01307Y03541*
X01302Y03543*
G37*
G36*
X01161Y03464D02*
X01118D01*
Y03415*
X01161*
Y03428*
X01186*
X01187Y03428*
X01192Y03426*
X01197*
X01202Y03428*
X01206Y03432*
X01208Y03437*
Y03442*
X01206Y03447*
X01202Y03451*
X01197Y03453*
X01192*
X01187Y03451*
X01186Y03451*
X01161*
Y03464*
G37*
G36*
X01103Y03531D02*
X0106D01*
Y03488*
X0107*
Y03464*
X01063*
Y03415*
X01106*
Y03464*
X01093*
Y03488*
X01103*
Y03531*
G37*
G36*
X02884Y04099D02*
X02813D01*
Y04048*
X02884*
Y04063*
X02898*
Y03594*
X02717Y03413*
X02712Y03415*
Y03994*
X02727*
Y04065*
X02676*
Y04065*
X02668*
Y04065*
X02617*
Y04065*
X02609*
Y04065*
X02557*
Y03994*
X02572*
Y03343*
X0254Y03311*
X02535Y03313*
Y03994*
X0255*
Y04065*
X02498*
Y03994*
X02513*
Y03309*
X02433Y03228*
X0243Y03225*
X02429Y03221*
Y02706*
X0243Y02701*
X02433Y02698*
X02496Y02634*
Y02266*
X02492Y02265*
X02484Y0226*
X02477Y02253*
X02471Y02244*
X02469Y02235*
Y02224*
X02471Y02215*
X02477Y02206*
X02484Y02199*
X02492Y02194*
X02502Y02191*
X02512*
X02522Y02194*
X02531Y02199*
X02538Y02206*
X02543Y02215*
X02546Y02224*
Y02235*
X02543Y02244*
X02538Y02253*
X02531Y0226*
X02522Y02265*
X02519Y02266*
Y02628*
X02523Y0263*
X02634Y02519*
Y02266*
X0263Y02265*
X02622Y0226*
X02614Y02253*
X02609Y02244*
X02607Y02235*
Y02224*
X02609Y02215*
X02614Y02206*
X02622Y02199*
X0263Y02194*
X0264Y02191*
X0265*
X0266Y02194*
X02669Y02199*
X02676Y02206*
X02681Y02215*
X02684Y02224*
Y02235*
X02681Y02244*
X02676Y02253*
X02669Y0226*
X0266Y02265*
X02656Y02266*
Y02524*
X02656Y02528*
X02653Y02531*
X02596Y02589*
X02598Y02593*
X02695*
X02772Y02517*
Y02266*
X02768Y02265*
X02759Y0226*
X02752Y02253*
X02747Y02244*
X02744Y02235*
Y02224*
X02747Y02215*
X02752Y02206*
X02759Y02199*
X02768Y02194*
X02778Y02191*
X02788*
X02798Y02194*
X02807Y02199*
X02814Y02206*
X02819Y02215*
X02821Y02224*
Y02235*
X02819Y02244*
X02814Y02253*
X02807Y0226*
X02798Y02265*
X02794Y02266*
Y02521*
X02793Y02525*
X02791Y02529*
X02713Y02607*
X02715Y02612*
X02827*
X0291Y02529*
Y02266*
X02906Y02265*
X02897Y0226*
X0289Y02253*
X02885Y02244*
X02882Y02235*
Y02224*
X02885Y02215*
X0289Y02206*
X02897Y02199*
X02906Y02194*
X02916Y02191*
X02926*
X02936Y02194*
X02944Y02199*
X02952Y02206*
X02957Y02215*
X02959Y02224*
Y02235*
X02957Y02244*
X02952Y02253*
X02944Y0226*
X02936Y02265*
X02932Y02266*
Y02533*
X02931Y02538*
X02929Y02541*
X02839Y02631*
X02836Y02633*
X02831Y02634*
X02596*
X02586Y02644*
X02588Y02648*
X02875*
X03047Y02476*
Y02266*
X03044Y02265*
X03035Y0226*
X03028Y02253*
X03023Y02244*
X0302Y02235*
Y02224*
X03023Y02215*
X03028Y02206*
X03035Y02199*
X03044Y02194*
X03053Y02191*
X03064*
X03073Y02194*
X03082Y02199*
X03089Y02206*
X03094Y02215*
X03097Y02224*
Y02235*
X03094Y02244*
X03089Y02253*
X03082Y0226*
X03073Y02265*
X0307Y02266*
Y02481*
X03069Y02485*
X03066Y02489*
X02887Y02667*
X02884Y0267*
X0288Y02671*
X02584*
X02516Y02739*
Y0318*
X02917Y03582*
X0292Y03585*
X02921Y0359*
Y04068*
X0292Y04072*
X02917Y04076*
X02912Y04082*
X02908Y04084*
X02904Y04085*
X02884*
Y04099*
G37*
G36*
X03732Y03453D02*
X03727D01*
X03722Y03451*
X03718Y03447*
X03716Y03442*
Y03437*
X03718Y03432*
X03718Y03431*
Y03389*
X03719Y03386*
Y03367*
X0378*
Y03411*
X03741*
Y03431*
X03741Y03432*
X03743Y03437*
Y03442*
X03741Y03447*
X03737Y03451*
X03732Y03453*
G37*
G36*
X012Y033D02*
Y03275D01*
X01225*
X01224Y03276*
X01219Y03286*
X01211Y03294*
X01201Y03299*
X012Y033*
G37*
G36*
X0117D02*
X01168Y03299D01*
X01158Y03294*
X01151Y03286*
X01145Y03276*
X01145Y03275*
X0117*
Y033*
G37*
G36*
X01309Y03424D02*
X0126D01*
Y0338*
X01273*
Y03359*
X0126*
Y03315*
X01309*
Y03326*
X01342*
X01352Y03316*
Y03293*
X0135Y03292*
X01346Y03286*
X01345Y03279*
Y03246*
X01346Y03239*
X0135Y03233*
X01356Y03229*
X01363Y03227*
X0137Y03229*
X01376Y03233*
X0138Y03239*
X01381Y03246*
Y03279*
X0138Y03286*
X01376Y03292*
X01374Y03293*
Y03321*
X01373Y03325*
X01371Y03329*
X01355Y03345*
X01351Y03347*
X01347Y03348*
X01309*
Y03359*
X01296*
Y0338*
X01309*
Y03424*
G37*
G36*
X0109Y03298D02*
X01079D01*
X0107Y03295*
X01061Y0329*
X01054Y03283*
X01049Y03274*
X01046Y03265*
Y03254*
X01049Y03245*
X01054Y03236*
X01061Y03229*
X0107Y03224*
X01079Y03221*
X0109*
X01099Y03224*
X01108Y03229*
X01115Y03236*
X0112Y03245*
X01123Y03254*
Y03265*
X0112Y03274*
X01115Y03283*
X01108Y0329*
X01099Y03295*
X0109Y03298*
G37*
G36*
X01225Y03245D02*
X012D01*
Y0322*
X01201Y0322*
X01211Y03226*
X01219Y03233*
X01224Y03243*
X01225Y03245*
G37*
G36*
X0117D02*
X01145D01*
X01145Y03243*
X01151Y03233*
X01158Y03226*
X01168Y0322*
X0117Y0322*
Y03245*
G37*
G36*
X012Y032D02*
Y03175D01*
X01225*
X01224Y03176*
X01219Y03186*
X01211Y03194*
X01201Y03199*
X012Y032*
G37*
G36*
X0117D02*
X01168Y03199D01*
X01158Y03194*
X01151Y03186*
X01145Y03176*
X01145Y03175*
X0117*
Y032*
G37*
G36*
X01123Y03198D02*
X01046D01*
Y03121*
X01123*
Y03198*
G37*
G36*
X01225Y03145D02*
X012D01*
Y0312*
X01201Y0312*
X01211Y03126*
X01219Y03133*
X01224Y03143*
X01225Y03145*
G37*
G36*
X0117D02*
X01145D01*
X01145Y03143*
X01151Y03133*
X01158Y03126*
X01168Y0312*
X0117Y0312*
Y03145*
G37*
G36*
X02935Y03016D02*
X02914D01*
Y02995*
X02935*
Y03016*
G37*
G36*
X012Y02975D02*
Y0295D01*
X01225*
X01224Y02951*
X01219Y02961*
X01211Y02969*
X01201Y02974*
X012Y02975*
G37*
G36*
X011D02*
Y0295D01*
X01125*
X01124Y02951*
X01119Y02961*
X01111Y02969*
X01101Y02974*
X011Y02975*
G37*
G36*
X0117D02*
X01168Y02974D01*
X01158Y02969*
X01151Y02961*
X01145Y02951*
X01145Y0295*
X0117*
Y02975*
G37*
G36*
X0107D02*
X01068Y02974D01*
X01058Y02969*
X01051Y02961*
X01045Y02951*
X01045Y0295*
X0107*
Y02975*
G37*
G36*
X01225Y0292D02*
X012D01*
Y02895*
X01201Y02895*
X01211Y02901*
X01219Y02908*
X01224Y02918*
X01225Y0292*
G37*
G36*
X01125D02*
X011D01*
Y02895*
X01101Y02895*
X01111Y02901*
X01119Y02908*
X01124Y02918*
X01125Y0292*
G37*
G36*
X0117D02*
X01145D01*
X01145Y02918*
X01151Y02908*
X01158Y02901*
X01168Y02895*
X0117Y02895*
Y0292*
G37*
G36*
X0107D02*
X01045D01*
X01045Y02918*
X01051Y02908*
X01058Y02901*
X01068Y02895*
X0107Y02895*
Y0292*
G37*
G36*
X012Y02875D02*
Y0285D01*
X01225*
X01224Y02851*
X01219Y02861*
X01211Y02869*
X01201Y02874*
X012Y02875*
G37*
G36*
X011D02*
Y0285D01*
X01125*
X01124Y02851*
X01119Y02861*
X01111Y02869*
X01101Y02874*
X011Y02875*
G37*
G36*
X0117D02*
X01168Y02874D01*
X01158Y02869*
X01151Y02861*
X01145Y02851*
X01145Y0285*
X0117*
Y02875*
G37*
G36*
X0107D02*
X01068Y02874D01*
X01058Y02869*
X01051Y02861*
X01045Y02851*
X01045Y0285*
X0107*
Y02875*
G37*
G36*
X01839Y02847D02*
X0183D01*
X0182Y02844*
X01812Y0284*
X01805Y02833*
X018Y02824*
X01798Y02817*
X01786*
X01782Y02818*
X01777*
X01772Y02816*
X01768Y02812*
X01766Y02807*
Y02802*
X01768Y02797*
X01772Y02793*
X01777Y02791*
X01782*
X01787Y02793*
X01789Y02794*
X018*
X01805Y02787*
X01812Y0278*
X0182Y02775*
X0183Y02772*
X01839*
X01849Y02775*
X01858Y0278*
X01865Y02787*
X01869Y02795*
X01872Y02805*
Y02814*
X01869Y02824*
X01865Y02833*
X01858Y0284*
X01849Y02844*
X01839Y02847*
G37*
G36*
X01225Y0282D02*
X012D01*
Y02795*
X01201Y02795*
X01211Y02801*
X01219Y02808*
X01224Y02818*
X01225Y0282*
G37*
G36*
X01125D02*
X011D01*
Y02795*
X01101Y02795*
X01111Y02801*
X01119Y02808*
X01124Y02818*
X01125Y0282*
G37*
G36*
X0117D02*
X01145D01*
X01145Y02818*
X01151Y02808*
X01158Y02801*
X01168Y02795*
X0117Y02795*
Y0282*
G37*
G36*
X0107D02*
X01045D01*
X01045Y02818*
X01051Y02808*
X01058Y02801*
X01068Y02795*
X0107Y02795*
Y0282*
G37*
G36*
X0119Y02773D02*
X01179D01*
X0117Y0277*
X01161Y02765*
X01154Y02758*
X01149Y02749*
X01146Y0274*
Y02729*
X01149Y0272*
X01154Y02711*
X01161Y02704*
X0117Y02699*
X01179Y02696*
X0119*
X01199Y02699*
X01208Y02704*
X01215Y02711*
X0122Y0272*
X01223Y02729*
Y0274*
X0122Y02749*
X01215Y02758*
X01208Y02765*
X01199Y0277*
X0119Y02773*
G37*
G36*
X0109D02*
X01079D01*
X0107Y0277*
X01061Y02765*
X01054Y02758*
X01049Y02749*
X01046Y0274*
Y02729*
X01049Y0272*
X01054Y02711*
X01061Y02704*
X0107Y02699*
X01079Y02696*
X0109*
X01099Y02699*
X01108Y02704*
X01115Y02711*
X0112Y0272*
X01123Y02729*
Y0274*
X0112Y02749*
X01115Y02758*
X01108Y02765*
X01099Y0277*
X0109Y02773*
G37*
G36*
X01797Y02683D02*
X01792D01*
X01787Y02681*
X01783Y02677*
X01781Y02672*
Y02667*
X01783Y02662*
X01787Y02658*
X01792Y02656*
X01797*
X01802Y02658*
X01806Y02662*
X01808Y02667*
Y02672*
X01806Y02677*
X01802Y02681*
X01797Y02683*
G37*
G36*
X0119Y02673D02*
X01179D01*
X0117Y0267*
X01161Y02665*
X01154Y02658*
X01149Y02649*
X01146Y0264*
Y02629*
X01149Y0262*
X01154Y02611*
X01161Y02604*
X0117Y02599*
X01179Y02596*
X0119*
X01199Y02599*
X01208Y02604*
X01215Y02611*
X0122Y0262*
X01223Y02629*
Y0264*
X0122Y02649*
X01215Y02658*
X01208Y02665*
X01199Y0267*
X0119Y02673*
G37*
G36*
X01123D02*
X01046D01*
Y02596*
X01123*
Y02673*
G37*
G36*
X01839Y02547D02*
X0183D01*
X0182Y02544*
X01812Y0254*
X01805Y02533*
X018Y02524*
X01799Y02521*
X01788*
X01787Y02521*
X01782Y02523*
X01777*
X01772Y02521*
X01768Y02517*
X01766Y02512*
Y02507*
X01768Y02502*
X01772Y02498*
X01777Y02496*
X01782*
X01787Y02498*
X01788Y02498*
X01799*
X018Y02495*
X01805Y02487*
X01812Y0248*
X0182Y02475*
X0183Y02472*
X01839*
X01849Y02475*
X01858Y0248*
X01865Y02487*
X01869Y02495*
X01872Y02505*
Y02514*
X01869Y02524*
X01865Y02533*
X01858Y0254*
X01849Y02544*
X01839Y02547*
G37*
G36*
X03312Y02516D02*
X03264D01*
Y02511*
X03248*
Y02516*
X03201*
Y02511*
X03185*
Y02516*
X03137*
Y02511*
X03108*
X03107Y02511*
X03102Y02513*
X03097*
X03092Y02511*
X03088Y02507*
X03086Y02502*
Y02497*
X03088Y02492*
X03092Y02488*
X03097Y02486*
X03102*
X03107Y02488*
X03108Y02488*
X03137*
Y02483*
X03185*
Y02488*
X03201*
Y02483*
X03248*
Y02488*
X03264*
Y02483*
X03312*
Y02516*
G37*
G36*
X01413Y03297D02*
X01406Y03296D01*
X014Y03292*
X01396Y03286*
X01396Y03285*
X01395Y03284*
X01393Y0328*
Y03269*
X01392Y03262*
Y03232*
X0131Y0315*
X01308Y03145*
Y02575*
X0131Y0257*
X01345Y02535*
X0135Y02533*
X0142*
Y02465*
X01493*
Y02604*
X01486*
Y02615*
X01484Y02619*
X01478Y02625*
Y02752*
X01526*
Y02827*
X01478*
Y02894*
X01477Y02902*
X01472Y02909*
X01451Y0293*
Y02979*
X01481*
Y0304*
X01451*
Y03209*
X01449Y03213*
X01434Y03228*
Y03262*
X01433Y0327*
X01431Y03273*
Y03279*
X0143Y03286*
X01426Y03292*
X0142Y03296*
X01413Y03297*
G37*
G36*
X01714Y02616D02*
X0156D01*
X01555Y02614*
X01553Y0261*
Y02502*
X01535Y02484*
X01533Y0248*
Y02422*
X01525Y02414*
X01523Y0241*
Y02335*
X01525Y0233*
X0153Y02328*
X01644*
X01648Y0233*
X01719Y02401*
X01721Y02405*
Y02473*
X01728Y02475*
X01735Y02479*
X01739Y02486*
X01741Y02495*
X01739Y02503*
X01735Y0251*
X01728Y02514*
X01721Y02516*
Y02609*
X01719Y02613*
X01718Y02614*
X01714Y02616*
G37*
G36*
X01395Y02466D02*
X01135D01*
X0113Y02464*
X01128Y0246*
Y0233*
X0113Y02325*
X01135Y02323*
X0145*
X01454Y02325*
X01456Y0233*
Y02333*
X01475*
Y02406*
X01455*
X01454Y02409*
X01399Y02464*
X01395Y02466*
G37*
G36*
X04067Y02317D02*
X0404D01*
Y0229*
X04067*
Y02317*
G37*
G36*
X0394Y02315D02*
Y0229D01*
X03965*
X03964Y02291*
X03959Y02301*
X03951Y02309*
X03941Y02314*
X0394Y02315*
G37*
G36*
X0374D02*
Y0229D01*
X03765*
X03764Y02291*
X03759Y02301*
X03751Y02309*
X03741Y02314*
X0374Y02315*
G37*
G36*
X0384D02*
Y0229D01*
X03865*
X03864Y02291*
X03859Y02301*
X03851Y02309*
X03841Y02314*
X0384Y02315*
G37*
G36*
X0391D02*
X03908Y02314D01*
X03898Y02309*
X03891Y02301*
X03885Y02291*
X03885Y0229*
X0391*
Y02315*
G37*
G36*
X0371D02*
X03708Y02314D01*
X03698Y02309*
X03691Y02301*
X03685Y02291*
X03685Y0229*
X0371*
Y02315*
G37*
G36*
X0381D02*
X03808Y02314D01*
X03798Y02309*
X03791Y02301*
X03785Y02291*
X03785Y0229*
X0381*
Y02315*
G37*
G36*
X0401Y02317D02*
X03982D01*
Y0229*
X0401*
Y02317*
G37*
G36*
X0331Y02301D02*
X0331D01*
Y02265*
X03346*
Y02265*
X03343Y02276*
X03338Y02285*
X0333Y02293*
X03321Y02298*
X0331Y02301*
G37*
G36*
X033D02*
X03299D01*
X03289Y02298*
X03279Y02293*
X03271Y02285*
X03266Y02276*
X03263Y02265*
Y02265*
X033*
Y02301*
G37*
G36*
X0451Y02296D02*
X0451D01*
Y0226*
X04546*
Y0226*
X04543Y02271*
X04538Y0228*
X0453Y02288*
X04521Y02293*
X0451Y02296*
G37*
G36*
X045D02*
X04499D01*
X04489Y02293*
X04479Y02288*
X04471Y0228*
X04466Y02271*
X04463Y0226*
Y0226*
X045*
Y02296*
G37*
G36*
X03965Y0226D02*
X0394D01*
Y02235*
X03941Y02235*
X03951Y02241*
X03959Y02248*
X03964Y02258*
X03965Y0226*
G37*
G36*
X03865D02*
X0384D01*
Y02235*
X03841Y02235*
X03851Y02241*
X03859Y02248*
X03864Y02258*
X03865Y0226*
G37*
G36*
X03765D02*
X0374D01*
Y02235*
X03741Y02235*
X03751Y02241*
X03759Y02248*
X03764Y02258*
X03765Y0226*
G37*
G36*
X0391D02*
X03885D01*
X03885Y02258*
X03891Y02248*
X03898Y02241*
X03908Y02235*
X0391Y02235*
Y0226*
G37*
G36*
X0381D02*
X03785D01*
X03785Y02258*
X03791Y02248*
X03798Y02241*
X03808Y02235*
X0381Y02235*
Y0226*
G37*
G36*
X0371D02*
X03685D01*
X03685Y02258*
X03691Y02248*
X03698Y02241*
X03708Y02235*
X0371Y02235*
Y0226*
G37*
G36*
X04067D02*
X0404D01*
Y02232*
X04067*
Y0226*
G37*
G36*
X0401D02*
X03982D01*
Y02232*
X0401*
Y0226*
G37*
G36*
X03346Y02255D02*
X0331D01*
Y02218*
X0331*
X03321Y02221*
X0333Y02226*
X03338Y02234*
X03343Y02244*
X03346Y02254*
Y02255*
G37*
G36*
X033D02*
X03263D01*
Y02254*
X03266Y02244*
X03271Y02234*
X03279Y02226*
X03289Y02221*
X03299Y02218*
X033*
Y02255*
G37*
G36*
X04546Y0225D02*
X0451D01*
Y02213*
X0451*
X04521Y02216*
X0453Y02221*
X04538Y02229*
X04543Y02239*
X04546Y02249*
Y0225*
G37*
G36*
X045D02*
X04463D01*
Y02249*
X04466Y02239*
X04471Y02229*
X04479Y02221*
X04489Y02216*
X04499Y02213*
X045*
Y0225*
G37*
G36*
X02373Y04065D02*
X02321D01*
Y03994*
X02336*
Y02263*
X02337Y02259*
X02339Y02255*
X0234Y02254*
X02339Y02253*
X02334Y02244*
X02331Y02235*
Y02224*
X02334Y02215*
X02339Y02206*
X02346Y02199*
X02355Y02194*
X02364Y02191*
X02375*
X02384Y02194*
X02393Y02199*
X024Y02206*
X02405Y02215*
X02408Y02224*
Y02235*
X02405Y02244*
X024Y02253*
X02393Y0226*
X02384Y02265*
X02375Y02268*
X02364*
X02363Y02268*
X02358Y02272*
Y03994*
X02373*
Y04065*
G37*
G36*
X0149Y02201D02*
X0149D01*
Y02165*
X01526*
Y02165*
X01523Y02176*
X01518Y02185*
X0151Y02193*
X01501Y02198*
X0149Y02201*
G37*
G36*
X0148D02*
X01479D01*
X01469Y02198*
X01459Y02193*
X01451Y02185*
X01446Y02176*
X01443Y02165*
Y02165*
X0148*
Y02201*
G37*
G36*
X0403Y02213D02*
X04019D01*
X0401Y0221*
X04001Y02205*
X03994Y02198*
X03989Y02189*
X03986Y0218*
Y02169*
X03989Y0216*
X03994Y02151*
X04001Y02144*
X0401Y02139*
X04019Y02136*
X0403*
X04039Y02139*
X04048Y02144*
X04055Y02151*
X0406Y0216*
X04063Y02169*
Y0218*
X0406Y02189*
X04055Y02198*
X04048Y02205*
X04039Y0221*
X0403Y02213*
G37*
G36*
X0393D02*
X03919D01*
X0391Y0221*
X03901Y02205*
X03894Y02198*
X03889Y02189*
X03886Y0218*
Y02169*
X03889Y0216*
X03894Y02151*
X03901Y02144*
X0391Y02139*
X03919Y02136*
X0393*
X03939Y02139*
X03948Y02144*
X03955Y02151*
X0396Y0216*
X03963Y02169*
Y0218*
X0396Y02189*
X03955Y02198*
X03948Y02205*
X03939Y0221*
X0393Y02213*
G37*
G36*
X0383D02*
X03819D01*
X0381Y0221*
X03801Y02205*
X03794Y02198*
X03789Y02189*
X03786Y0218*
Y02169*
X03789Y0216*
X03794Y02151*
X03801Y02144*
X0381Y02139*
X03819Y02136*
X0383*
X03839Y02139*
X03848Y02144*
X03855Y02151*
X0386Y0216*
X03863Y02169*
Y0218*
X0386Y02189*
X03855Y02198*
X03848Y02205*
X03839Y0221*
X0383Y02213*
G37*
G36*
X0373D02*
X03719D01*
X0371Y0221*
X03701Y02205*
X03694Y02198*
X03689Y02189*
X03686Y0218*
Y02169*
X03689Y0216*
X03694Y02151*
X03701Y02144*
X0371Y02139*
X03719Y02136*
X0373*
X03739Y02139*
X03748Y02144*
X03755Y02151*
X0376Y0216*
X03763Y02169*
Y0218*
X0376Y02189*
X03755Y02198*
X03748Y02205*
X03739Y0221*
X0373Y02213*
G37*
G36*
X04822Y0227D02*
X04807D01*
X04793Y02267*
X04779Y02261*
X04767Y02253*
X04756Y02242*
X04748Y0223*
X04742Y02216*
X0474Y02202*
Y02187*
X04742Y02173*
X04748Y02159*
X04756Y02147*
X04767Y02136*
X04779Y02128*
X04793Y02122*
X04807Y0212*
X04822*
X04836Y02122*
X0485Y02128*
X04862Y02136*
X04873Y02147*
X04881Y02159*
X04887Y02173*
X0489Y02187*
Y02202*
X04887Y02216*
X04881Y0223*
X04873Y02242*
X04862Y02253*
X0485Y02261*
X04836Y02267*
X04822Y0227*
G37*
G36*
X01526Y02155D02*
X0149D01*
Y02118*
X0149*
X01501Y02121*
X0151Y02126*
X01518Y02134*
X01523Y02144*
X01526Y02154*
Y02155*
G37*
G36*
X0148D02*
X01443D01*
Y02154*
X01446Y02144*
X01451Y02134*
X01459Y02126*
X01469Y02121*
X01479Y02118*
X0148*
Y02155*
G37*
%LNv1.0-3*%
%LPD*%
G36*
X03058Y04871D02*
Y04828D01*
X03058Y04827*
X03056Y04822*
Y04817*
X03058Y04812*
X03062Y04808*
X03067Y04806*
X03072*
X03077Y04808*
X03081Y04812*
X03083Y04817*
X03088Y04817*
Y04804*
X03081Y04797*
X03081*
X03077Y04798*
X03072*
X03067Y04796*
X03063Y04792*
X03061Y04787*
Y04782*
X03063Y04777*
X03067Y04773*
X03072Y04771*
X03077*
X03082Y04773*
X03085Y04773*
X03086Y04767*
X03075Y04756*
X02966*
Y04804*
Y0486*
X02968Y04862*
X0297Y04864*
X02974Y04863*
X03029*
X03029Y04863*
X03034Y04861*
X0304*
X03045Y04863*
X03049Y04867*
X03051Y04871*
X03054Y04872*
X03056Y04873*
X03058Y04871*
G37*
G36*
X01805Y0364D02*
X0154D01*
X0148Y0358*
Y0344*
X01445*
Y03585*
X0143Y036*
Y0372*
X0144Y0373*
X01805*
Y0364*
G37*
G36*
X022Y03754D02*
Y03195D01*
X02125*
Y03385*
X0205Y0346*
Y0379*
X02055Y03795*
X02159*
X022Y03754*
G37*
G36*
X01805Y0348D02*
X01825Y0346D01*
Y0341*
X0185Y03385*
X02065*
Y03195*
X01755*
X01575Y03375*
Y0357*
X01805*
Y0348*
G37*
G36*
X01535Y03145D02*
X0147D01*
Y0321*
X0145Y0323*
Y0336*
Y03385*
X01495Y0343*
Y0351*
X01535*
Y03145*
G37*
G36*
X01425Y0328D02*
Y03229D01*
X01445Y03209*
Y0265*
X0148Y02615*
Y0254*
X0135*
X01315Y02575*
Y03145*
X014Y0323*
Y0328*
X01405Y03285*
X0142*
X01425Y0328*
G37*
G36*
X01715Y02609D02*
Y02405D01*
X01644Y02335*
X0153*
Y0241*
X0154Y0242*
Y0248*
X0156Y025*
Y0261*
X01714*
X01715Y02609*
G37*
G36*
X0145Y02405D02*
Y0233D01*
X01135*
Y0246*
X01395*
X0145Y02405*
G37*
%LNv1.0-4*%
%LPC*%
G36*
X03303Y03121D02*
X03298Y0312D01*
X03294Y03117*
X03292Y03113*
X03291Y03109*
Y03063*
X03292Y03059*
X03294Y03055*
X03298Y03052*
X03303Y03051*
X03307Y03052*
X03311Y03055*
X03314Y03059*
X03315Y03063*
Y03109*
X03314Y03113*
X03311Y03117*
X03307Y0312*
X03303Y03121*
G37*
G36*
X03331Y03337D02*
X03233D01*
Y03293*
X03235*
Y03238*
X03218Y03221*
X03216Y03218*
X03215Y03214*
Y03122*
X0321Y03119*
X03209Y0312*
X03204Y03121*
X032Y0312*
X03196Y03117*
X03193Y03113*
X03192Y03109*
Y03063*
X03193Y03059*
X03196Y03055*
X032Y03052*
X03204Y03051*
X03209Y03052*
X03213Y03055*
X03215*
X03219Y03052*
X03224Y03051*
X03229Y03052*
X03233Y03055*
X03235Y03059*
X03236Y03063*
Y03109*
X03235Y03113*
X03233Y03116*
Y03154*
X03235Y03155*
X03254*
Y03116*
X03252Y03113*
X03251Y03109*
Y03063*
X03252Y03059*
X03255Y03055*
X03259Y03052*
X03263Y03051*
X03268Y03052*
X03272Y03055*
X03275Y03059*
X03276Y03063*
Y03109*
X03275Y03113*
X03273Y03116*
Y03205*
X03316Y03248*
X03318Y03251*
X03319Y03255*
Y03293*
X03331*
Y03337*
G37*
G36*
X03515Y03214D02*
X03509Y03213D01*
X03505Y0321*
X03501Y03205*
X035Y032*
X03501Y03194*
X03502Y03194*
X03499Y03189*
X0348*
X03476Y03188*
X03473Y03186*
X03458Y03171*
X03456Y03168*
X03455Y03165*
Y03068*
X03404Y03017*
X03397*
X03394Y03022*
X03395Y03023*
X03396Y03028*
X03395Y03032*
X03392Y03036*
X03388Y03039*
X03384Y0304*
X03338*
X03334Y03039*
X0333Y03036*
X03327Y03032*
X03326Y03028*
X03327Y03023*
X0333Y03019*
Y03017*
X03327Y03013*
X03326Y03008*
X03327Y03003*
X0333Y03*
Y02997*
X03327Y02993*
X03326Y02988*
X03327Y02984*
X0333Y0298*
X03334Y02977*
X03338Y02976*
X03384*
Y02961*
X03338*
X03334Y0296*
X0333Y02958*
X03327Y02954*
X03326Y02949*
X03327Y02944*
X0333Y0294*
Y02938*
X03327Y02934*
X03326Y02929*
X03327Y02925*
X0333Y02921*
Y02918*
X03327Y02914*
X03326Y0291*
X03327Y02905*
X0333Y02901*
Y02899*
X03327Y02895*
X03326Y0289*
X03327Y02885*
X0333Y02881*
Y02879*
X03327Y02875*
X03326Y0287*
X03327Y02866*
X0333Y02862*
X03334Y02859*
X03338Y02858*
X03384*
X03388Y02859*
X03391Y02861*
X0343*
X03478Y02813*
X03481Y02811*
X03485Y0281*
X03538*
Y02808*
X03582*
Y02851*
X03548*
X03547Y02851*
X03527*
X03525Y02855*
X0352Y02858*
X03515Y02859*
X03509Y02858*
X03505Y02855*
X03501Y0285*
X035Y02845*
X03501Y02839*
X03505Y02835*
X03506Y02834*
X03504Y02829*
X03488*
X0344Y02877*
X0344Y02877*
X0344Y02877*
X0344Y02883*
X03442Y02884*
X03461Y02903*
X03463Y02906*
X03464Y0291*
Y02931*
X03473Y0294*
X03543*
Y02926*
X03577*
Y02973*
X03543*
Y02959*
X0347*
X03466Y02958*
X03463Y02956*
X03453Y02946*
X03449Y02948*
Y02961*
X03488Y03*
X03544*
Y02986*
X03577*
Y03033*
X03544*
Y03019*
X03485*
X03484Y03019*
X03481Y03023*
X03508Y0305*
X03538*
Y03048*
X03582*
Y03091*
Y03168*
Y03211*
X03538*
Y03209*
X03525*
X03525Y0321*
X0352Y03213*
X03515Y03214*
G37*
G36*
X03636Y03033D02*
X03603D01*
Y02986*
X03636*
Y03*
X03658*
Y02988*
X03702*
Y03031*
X03658*
Y03019*
X03636*
Y03033*
G37*
G36*
X03636Y02973D02*
X03602D01*
Y02926*
X03636*
Y0294*
X03658*
Y02928*
X03702*
Y02971*
X03658*
Y02959*
X03636*
Y02973*
G37*
G36*
X0387Y02913D02*
X03837D01*
Y02866*
X0387*
Y0288*
X03884*
X03885Y0288*
X03889Y02876*
X03895Y02875*
X039Y02876*
X03905Y0288*
X03908Y02884*
X03909Y0289*
X03908Y02895*
X03905Y029*
X039Y02903*
X03895Y02904*
X03889Y02903*
X03885Y029*
X03884Y02899*
X0387*
Y02913*
G37*
G36*
X03756D02*
X03722D01*
Y02866*
X0373*
Y02853*
X03722*
Y02806*
X03755*
Y0282*
X03774*
X03775Y0282*
X03779Y02816*
X03785Y02815*
X0379Y02816*
X03795Y0282*
X03798Y02824*
X03799Y0283*
X03798Y02835*
X03795Y0284*
X0379Y02843*
X03785Y02844*
X03779Y02843*
X03775Y0284*
X03774Y02839*
X03755*
Y02853*
X03748*
Y02866*
X03756*
Y02913*
G37*
G36*
X03384Y02843D02*
X03338D01*
X03334Y02842*
X0333Y0284*
X03327Y02836*
X03326Y02831*
X03327Y02826*
X0333Y02822*
Y0282*
X03327Y02816*
X03326Y02811*
X03327Y02807*
X0333Y02803*
X03334Y028*
X03338Y02799*
X03384*
X03388Y028*
X03391Y02802*
X03399*
X03498Y02703*
X03501Y02701*
X03505Y027*
X03544*
Y02686*
X03577*
Y02733*
X03544*
Y02719*
X03508*
X03471Y02756*
X03474Y02761*
X03475Y0276*
X03544*
Y02746*
X03577*
Y02793*
X03544*
Y02779*
X03478*
X0342Y02837*
X03417Y02839*
X03413Y0284*
X03391*
X03388Y02842*
X03384Y02843*
G37*
G36*
X03756Y02673D02*
X03722D01*
Y02626*
X03756*
Y0264*
X03774*
X03775Y0264*
X03779Y02636*
X03785Y02635*
X0379Y02636*
X03795Y0264*
X03798Y02644*
X03799Y0265*
X03798Y02655*
X03795Y0266*
X0379Y02663*
X03785Y02664*
X03779Y02663*
X03775Y0266*
X03774Y02659*
X03756*
Y02673*
G37*
G36*
X04394Y03246D02*
Y03204D01*
X04436*
X04435Y03206*
X04431Y03217*
X04425Y03227*
X04417Y03235*
X04407Y03241*
X04396Y03245*
X04394Y03246*
G37*
G36*
X04364D02*
X04363Y03245D01*
X04352Y03241*
X04342Y03235*
X04334Y03227*
X04328Y03217*
X04324Y03206*
X04323Y03204*
X04364*
Y03246*
G37*
G36*
Y03174D02*
X04323D01*
X04324Y03173*
X04328Y03162*
X04334Y03152*
X04342Y03144*
X04352Y03138*
X04363Y03134*
X04364Y03133*
Y03174*
G37*
G36*
X04436D02*
X04394D01*
Y03133*
X04396Y03134*
X04407Y03138*
X04417Y03144*
X04425Y03152*
X04431Y03162*
X04435Y03173*
X04436Y03174*
G37*
G36*
X04155Y03097D02*
Y03064D01*
X04187*
X04185Y03074*
X0418Y03082*
X04173Y03089*
X04164Y03094*
X04155Y03097*
G37*
G36*
X04145D02*
X04135Y03094D01*
X04127Y03089*
X0412Y03082*
X04115Y03074*
X04112Y03064*
X04145*
Y03097*
G37*
G36*
X04506Y0318D02*
X04493D01*
X04479Y03177*
X04466Y03172*
X04455Y03164*
X04445Y03154*
X04438Y03143*
X04432Y0313*
X0443Y03116*
Y03103*
X04432Y03089*
X04438Y03076*
X04445Y03065*
X04455Y03055*
X04466Y03048*
X04479Y03042*
X04493Y0304*
X04506*
X0452Y03042*
X04533Y03048*
X04544Y03055*
X04554Y03065*
X04562Y03076*
X04567Y03089*
X0457Y03103*
Y03116*
X04567Y0313*
X04562Y03143*
X04554Y03154*
X04544Y03164*
X04533Y03172*
X0452Y03177*
X04506Y0318*
G37*
G36*
X04697Y03081D02*
X04688D01*
X04679Y03079*
X0467Y03074*
X04664Y03068*
X04659Y03059*
X04656Y0305*
Y03041*
X04659Y03031*
X04664Y03023*
X0467Y03016*
X04679Y03012*
X04688Y03009*
X04697*
X04706Y03012*
X04715Y03016*
X04721Y03023*
X04726Y03031*
X04729Y03041*
Y0305*
X04726Y03059*
X04721Y03068*
X04715Y03074*
X04706Y03079*
X04697Y03081*
G37*
G36*
X04254Y03043D02*
X04245D01*
X04237Y03041*
X04229Y03036*
X04223Y0303*
X04218Y03022*
X04216Y03014*
Y03005*
X04218Y02996*
X04223Y02989*
X04229Y02983*
X04237Y02978*
X04245Y02976*
X04254*
X04262Y02978*
X0427Y02983*
X04276Y02989*
X04281Y02996*
X04283Y03005*
Y03014*
X04281Y03022*
X04276Y0303*
X0427Y03036*
X04262Y03041*
X04254Y03043*
G37*
G36*
X04154Y02893D02*
X04145D01*
X04137Y02891*
X04129Y02886*
X04123Y0288*
X04118Y02872*
X04116Y02864*
Y02855*
X04118Y02846*
X04123Y02839*
X04129Y02833*
X04137Y02828*
X04145Y02826*
X04154*
X04162Y02828*
X0417Y02833*
X04176Y02839*
X04181Y02846*
X04183Y02855*
Y02864*
X04181Y02872*
X04176Y0288*
X0417Y02886*
X04162Y02891*
X04154Y02893*
G37*
G36*
X04697Y0276D02*
X04688D01*
X04679Y02757*
X0467Y02753*
X04664Y02746*
X04659Y02738*
X04656Y02728*
Y02719*
X04659Y0271*
X04664Y02702*
X0467Y02695*
X04679Y0269*
X04688Y02688*
X04697*
X04706Y0269*
X04715Y02695*
X04721Y02702*
X04726Y0271*
X04729Y02719*
Y02728*
X04726Y02738*
X04721Y02746*
X04715Y02753*
X04706Y02757*
X04697Y0276*
G37*
G36*
X04394Y02636D02*
Y02595D01*
X04436*
X04435Y02597*
X04431Y02607*
X04425Y02617*
X04417Y02625*
X04407Y02631*
X04396Y02636*
X04394Y02636*
G37*
G36*
X04364D02*
X04363Y02636D01*
X04352Y02631*
X04342Y02625*
X04334Y02617*
X04328Y02607*
X04324Y02597*
X04323Y02595*
X04364*
Y02636*
G37*
G36*
X04506Y0273D02*
X04493D01*
X04479Y02727*
X04466Y02722*
X04455Y02714*
X04445Y02704*
X04438Y02693*
X04432Y0268*
X0443Y02666*
Y02653*
X04432Y02639*
X04438Y02626*
X04445Y02615*
X04455Y02605*
X04466Y02598*
X04479Y02592*
X04493Y0259*
X04506*
X0452Y02592*
X04533Y02598*
X04544Y02605*
X04554Y02615*
X04562Y02626*
X04567Y02639*
X0457Y02653*
Y02666*
X04567Y0268*
X04562Y02693*
X04554Y02704*
X04544Y02714*
X04533Y02722*
X0452Y02727*
X04506Y0273*
G37*
G36*
X04364Y02565D02*
X04323D01*
X04324Y02563*
X04328Y02552*
X04334Y02543*
X04342Y02534*
X04352Y02528*
X04363Y02524*
X04364Y02523*
Y02565*
G37*
G36*
X04436D02*
X04394D01*
Y02523*
X04396Y02524*
X04407Y02528*
X04417Y02534*
X04425Y02543*
X04431Y02552*
X04435Y02563*
X04436Y02565*
G37*
%LNv1.0-5*%
%LPD*%
G54D11*
X02016Y03305D02*
X02031Y0329D01*
X0196Y03305D02*
X02016D01*
X013Y03528D02*
Y0353D01*
X01285Y03513D02*
X013Y03528D01*
X01145Y0351D02*
X01155Y0352D01*
Y03554*
X0116Y0356*
X01354*
X01259Y0326D02*
X01282Y03282D01*
X01185Y0326D02*
X01259D01*
X01282Y03282D02*
X01285D01*
X01185Y0326D02*
X01235Y0331D01*
Y03475*
X012Y0351D02*
X01235Y03475D01*
X01145Y0351D02*
X012D01*
X01485Y0216D02*
X03165D01*
X01231D02*
X01485D01*
X01185Y02206D02*
X01231Y0216D01*
X0175Y02425D02*
Y0259D01*
X01485Y0216D02*
X0175Y02425D01*
X01651Y02688D02*
Y0279D01*
Y02688D02*
X0175Y0259D01*
X01547Y0301D02*
X01749D01*
X01547D02*
X01566Y0299D01*
X01533Y0301D02*
X01547D01*
X01566Y02945D02*
Y0299D01*
Y02945D02*
X01651Y02861D01*
Y0279D02*
Y02861D01*
X01749Y0301D02*
X0178Y0304D01*
Y03054*
X01501Y03029D02*
Y03072D01*
Y03029D02*
X0152Y0301D01*
X01476Y03096D02*
X01501Y03072D01*
X0152Y0301D02*
X01533D01*
X01739Y0491D02*
X01742Y04907D01*
X01853*
X0167Y0491D02*
X01739D01*
X01853Y04907D02*
X0186Y049D01*
X01781Y0484D02*
X01862D01*
X01761Y0482D02*
X01781Y0484D01*
X0176Y0482D02*
X01761D01*
X02055Y0484D02*
X02138D01*
X02046Y04848D02*
X02055Y0484D01*
X02045Y04848D02*
X02046D01*
X02043Y04782D02*
X0214D01*
X02041Y04785D02*
X02043Y04782D01*
X0204Y04785D02*
X02041D01*
X03042Y04905D02*
X0307Y04877D01*
Y0482D02*
Y04877D01*
X02974Y04875D02*
X03037D01*
X02947Y04902D02*
X02974Y04875D01*
X03075Y04785D02*
X03076Y04786D01*
X0308*
Y04786*
X03086*
X031Y048*
Y04889*
X0313Y04795D02*
X0325D01*
X0292Y04745D02*
X0308D01*
X0313Y04795*
X01354Y03507D02*
Y0356D01*
X01363Y03477D02*
Y03497D01*
X01354Y03507D02*
X01363Y03497D01*
X0116Y04914D02*
X01354Y0472D01*
X02136D02*
X0214Y04723D01*
X01354Y0472D02*
X02136D01*
X0116Y03674D02*
X01677Y04192D01*
X0214*
X01599Y04251D02*
X0214D01*
X0116Y03812D02*
X01599Y04251D01*
X0152Y0431D02*
X0214D01*
X0116Y0395D02*
X0152Y0431D01*
X01441Y04369D02*
X0214D01*
X0116Y04087D02*
X01441Y04369D01*
X01362Y04428D02*
X0214D01*
X0116Y04225D02*
X01362Y04428D01*
X01284Y04487D02*
X0214D01*
X0116Y04363D02*
X01284Y04487D01*
X0116Y04501D02*
X01205Y04546D01*
X0214*
X0116Y04639D02*
X01193Y04605D01*
X0214*
X0116Y04639D02*
X0116D01*
X0116Y04776D02*
X01272Y04664D01*
X0214*
X03685Y03312D02*
X0373D01*
X0363Y0326D02*
Y03312D01*
X03685*
X0375Y0331D02*
X038D01*
X0373D02*
X0375D01*
X03553Y03312D02*
X0363D01*
X0355Y03309D02*
X03553Y03312D01*
X0361Y03373D02*
X0363D01*
X03685Y03374D02*
Y0351D01*
X03665Y0353D02*
X03685Y0351D01*
X03684Y03373D02*
X03685Y03374D01*
X0363Y03373D02*
X03684D01*
X03433Y0337D02*
X0349D01*
Y03374D02*
X03495Y0338D01*
X03549*
X0332Y0478D02*
Y0487D01*
X03365Y0482D02*
Y04897D01*
X03364Y04898D02*
X03365Y04897D01*
X02945Y0484D02*
Y04897D01*
X02947Y04902D02*
X02947D01*
X02945Y04897D02*
Y049D01*
X03002Y04905D02*
X03042D01*
X02944Y049D02*
X02945Y049D01*
X02849Y049D02*
X02944D01*
X04251Y04514D02*
X0427D01*
X04207D02*
X04251D01*
X04276Y0452D02*
X04332D01*
X0427Y04514D02*
X04276Y0452D01*
X04201Y04507D02*
X04207Y04514D01*
X04146Y04507D02*
X04201D01*
X02524Y03304D02*
Y0403D01*
X02441Y03221D02*
X02524Y03304D01*
X02031Y0329D02*
Y03316D01*
X04332Y04483D02*
Y0452D01*
X04349*
X04352Y04516*
Y04483D02*
Y04516D01*
X03335Y0387D02*
Y04485D01*
X03273Y04546D02*
X03335Y04485D01*
X02849Y04546D02*
X03273D01*
X04201Y04567D02*
Y04739D01*
X043Y0463D02*
X04301Y04628D01*
X04338D02*
X04339Y04627D01*
X04301Y04628D02*
X04338D01*
X04295Y04653D02*
X04339D01*
X04281Y04577D02*
Y04639D01*
X04295Y04653*
X04281Y04577D02*
X04306Y04552D01*
X04201Y04739D02*
X0423Y04768D01*
Y04783*
X04146Y04567D02*
X04201D01*
X03739Y03953D02*
X03878D01*
X03686Y0396D02*
X03688Y03957D01*
X03685Y0396D02*
X03686D01*
X03688Y03957D02*
X03735D01*
X03739Y03953*
X03575Y0411D02*
X03735D01*
Y04071D02*
Y0411D01*
X0402D01*
X03735D02*
D01*
X03695Y04365D02*
X04045D01*
X04105Y04425D02*
Y04502D01*
X04045Y04365D02*
X04105Y04425D01*
X0411Y04507D02*
X04146D01*
X04105Y04502D02*
X0411Y04507D01*
X04215Y04165D02*
X0424Y0414D01*
Y04061D02*
Y0414D01*
X04075Y04165D02*
X04215D01*
X0402Y0411D02*
X04075Y04165D01*
X03375Y0421D02*
X0345Y04135D01*
X0394*
X03455Y04155D02*
X0393D01*
X03395Y04215D02*
X03455Y04155D01*
X0394Y04135D02*
X04035Y0423D01*
X0393Y04155D02*
X04025Y0425D01*
X03845Y04072D02*
X03848Y0407D01*
X03795Y04072D02*
X03845D01*
X03848Y0407D02*
X0385D01*
X04144Y04447D02*
X04146Y0445D01*
Y04507*
X03575Y039D02*
X03734D01*
X03739Y03903D02*
X03878D01*
X03734Y039D02*
X03735Y03898D01*
X0373Y03389D02*
Y0344D01*
X0241Y03745D02*
Y03899D01*
X02409Y039D02*
X0241Y03899D01*
X03539Y04898D02*
X0354Y04897D01*
Y0482D02*
Y04897D01*
X0319Y0482D02*
Y04897D01*
X03189Y04898D02*
X0319Y04897D01*
X0367Y0446D02*
Y0464D01*
X03718Y04938D02*
X04026D01*
X0367Y0489D02*
X03718Y04938D01*
X04031Y04933D02*
X04224D01*
X04026Y04938D02*
X04031Y04933D01*
X04523Y04783D02*
X04586D01*
X0465Y0472*
X04526Y04786D02*
Y0493D01*
X04529Y04933*
X04523Y04783D02*
X04526Y04786D01*
X04224Y04933D02*
X04529D01*
X04227Y04786D02*
Y0493D01*
Y04786D02*
X0423Y04783D01*
X04224Y04933D02*
X04227Y0493D01*
X0423Y04783D02*
X04325D01*
X0114Y03439D02*
X0114Y0344D01*
X01195*
X01082Y03442D02*
Y0351D01*
Y03442D02*
X01084Y03439D01*
X01689Y0353D02*
X0169Y03529D01*
X01285Y03457D02*
Y03513D01*
X02905Y0476D02*
X0292Y04745D01*
X02855Y04777D02*
X02888D01*
X02905Y0476D02*
D01*
X02849Y04782D02*
X02855Y04777D01*
X02888D02*
X02905Y0476D01*
X03273Y04818D02*
Y0489D01*
X0325Y04795D02*
X03273Y04818D01*
X0341Y04755D02*
X03447Y04792D01*
Y0489*
X03135Y04755D02*
X0341D01*
X02849Y04723D02*
X03331D01*
X03395Y0466*
X02849Y04487D02*
X03131D01*
X03133Y0449*
X03135*
X03099Y0489D02*
X031Y04889D01*
X01781Y02806D02*
X01831D01*
X01835Y0281*
X0178Y02805D02*
X01781Y02806D01*
X0178Y0251D02*
X01835D01*
X02465Y0385D02*
Y039D01*
Y04029D02*
X02465Y0403D01*
X02465Y039D02*
Y04029D01*
X02405Y03955D02*
Y04028D01*
X02406Y0403*
X0206Y03935D02*
X0225Y03745D01*
Y02523D02*
Y03745D01*
X0206Y03935D02*
Y04055D01*
X0223Y02641D02*
Y0374D01*
X0203Y0394D02*
X0223Y0374D01*
X0203Y0394D02*
Y04095D01*
X01818Y0223D02*
X0223Y02641D01*
X01956Y0223D02*
X0225Y02523D01*
X02094Y0223D02*
X0227Y02405D01*
Y0375*
X02229Y03791D02*
X0227Y0375D01*
X02229Y03791D02*
Y0403D01*
X02232Y0223D02*
X02288Y02286D01*
Y0403*
X02441Y02706D02*
X02507Y02639D01*
Y0223D02*
Y02639D01*
X02457Y02712D02*
X02645Y02524D01*
Y0223D02*
Y02524D01*
X02587Y02605D02*
X027D01*
X02783Y0223D02*
Y02521D01*
X027Y02605D02*
X02783Y02521D01*
X02473Y02719D02*
X02587Y02605D01*
X0258Y0266D02*
X0288D01*
X02505Y02735D02*
Y03185D01*
Y02735D02*
X0258Y0266D01*
X0237Y0223D02*
Y0224D01*
X02347Y02263D02*
X0237Y0224D01*
X02347Y02263D02*
Y0403D01*
X0206Y04055D02*
X02079Y04074D01*
X0214*
X02441Y02706D02*
Y03221D01*
X02457Y03212D02*
X02583Y03338D01*
Y0403*
X02457Y02712D02*
Y03212D01*
X02473Y02719D02*
Y03203D01*
X02642Y03372D02*
Y0403D01*
X02473Y03203D02*
X02642Y03372D01*
X02489Y02725D02*
Y03194D01*
X02701Y03406D02*
Y0403D01*
X02489Y03194D02*
X02701Y03406D01*
X0203Y04095D02*
X02068Y04133D01*
X0214*
X02591Y02623D02*
X02831D01*
X02489Y02725D02*
X02591Y02623D01*
X02831D02*
X02921Y02533D01*
Y0223D02*
Y02533D01*
X03059Y0223D02*
Y02481D01*
X0288Y0266D02*
X03059Y02481D01*
X02904Y04074D02*
X0291Y04068D01*
X02505Y03185D02*
X0291Y0359D01*
X02849Y04074D02*
X02904D01*
X0291Y0359D02*
Y04068D01*
X03355Y042D02*
X03484Y04071D01*
X03355Y042D02*
Y04548D01*
X03484Y04071D02*
X0367D01*
X03375Y0421D02*
Y04615D01*
X03395Y04215D02*
Y0466D01*
X03335Y0387D02*
X03419Y03785D01*
X03297Y04605D02*
X03355Y04548D01*
X03419Y03785D02*
X03795D01*
X02849Y04605D02*
X03297D01*
X02849Y04664D02*
X03325D01*
X03375Y04615*
X03875Y0247D02*
X03935D01*
X03995D02*
X04105Y0258D01*
X04379*
X048Y03464D02*
X0486D01*
X03954D02*
X048D01*
X038Y0331D02*
X03954Y03464D01*
X04895Y04467D02*
Y04515D01*
Y04467D02*
X04896Y04465D01*
X02138Y0484D02*
X0214Y04841D01*
X0452Y0423D02*
X04565Y04275D01*
Y0429*
X04035Y0423D02*
X0452D01*
X04025Y0425D02*
X0451D01*
X04535Y04275*
Y0433*
X04025Y04623D02*
X04036Y04635D01*
X04025Y04565D02*
Y04623D01*
X04036Y04635D02*
X04065D01*
X04076Y04623*
Y04593D02*
Y04623D01*
X04372Y04483D02*
Y04527D01*
X04371Y04527D02*
X04372Y04527D01*
X04424Y04569D02*
Y04602D01*
X04421Y04566D02*
X04424Y04569D01*
X04372Y04483D02*
X04372Y04483D01*
X04306Y04552D02*
X04381D01*
X031Y025D02*
X031Y02499D01*
X03161D02*
X03161Y02499D01*
X031Y02499D02*
X03161D01*
X03224Y02499D02*
X03288D01*
X03161D02*
X03224D01*
X0343Y03374D02*
Y0342D01*
Y03374D02*
X03433Y0337D01*
X0294Y03049D02*
Y03115D01*
X0178Y03345D02*
X02001D01*
X02031Y03316*
X0178Y03345D02*
Y03524D01*
X01465Y0365D02*
X0149Y03675D01*
X01465Y0365D02*
Y0365D01*
X0149Y03675D02*
X0178D01*
X01484Y03198D02*
Y0322D01*
X01463Y03242D02*
X01484Y0322D01*
X01463Y03242D02*
Y03262D01*
X01484Y03198D02*
X01503Y0318D01*
X01513Y03262D02*
Y03477D01*
Y0319D02*
Y03262D01*
X01503Y0318D02*
X01513Y0319D01*
X01463Y03648D02*
X01465Y0365D01*
X01463Y03477D02*
Y03648D01*
X01413Y03477D02*
Y03559D01*
X01413Y0356D02*
X01413Y03559D01*
X01285Y03337D02*
Y03402D01*
X01347Y03337D02*
X01363Y03321D01*
X01285Y03337D02*
X01347D01*
X01363Y03262D02*
Y03321D01*
X04536Y04412D02*
X04536Y04412D01*
X04598Y04373D02*
X04599Y04374D01*
X04595Y04452D02*
X04601Y04446D01*
X04646Y04382D02*
X04691D01*
X04646Y04438D02*
X04654Y04445D01*
X04691Y04522D02*
X04691Y04522D01*
X04646Y04487D02*
Y04535D01*
X04734Y0434D02*
Y0437D01*
X04726Y04332D02*
X04734Y0434D01*
X04735Y04522D02*
X04735Y04522D01*
X04601Y04402D02*
Y04446D01*
Y04402D02*
X04618Y04385D01*
X04482Y04373D02*
Y04373D01*
Y04412D02*
Y04412D01*
X04643Y04385D02*
X04646Y04382D01*
X04618Y04385D02*
X04643D01*
X04646Y04332D02*
X04726D01*
X04654Y04445D02*
X04734D01*
X04644Y04532D02*
X04646Y04535D01*
X04599Y04532D02*
X04644D01*
X04691Y04522D02*
X04735D01*
X04482Y04392D02*
X04566D01*
X04482Y04373D02*
X04598D01*
X04482Y04412D02*
X04536D01*
X04482Y04452D02*
X04595D01*
X04895Y04617D02*
X04896Y04615D01*
X04895Y04617D02*
Y0467D01*
X04646Y0459D02*
X04653Y04597D01*
X04894Y04407D02*
X04896Y0441D01*
X04896Y04559D02*
X04896Y0456D01*
X04653Y04597D02*
X04735D01*
X04828Y04407D02*
X04894D01*
X04829Y04559D02*
X04896D01*
X03735Y03898D02*
X03739Y03903D01*
X03795Y03841D02*
X03798Y03843D01*
X03823*
X04165Y03903D02*
X04173Y03895D01*
X04174Y04061D02*
X04175Y04061D01*
X04174Y04115D02*
X04175Y04115D01*
X0424Y03951D02*
X04242Y03953D01*
X04237D02*
X0424Y03951D01*
X0424Y04061D02*
X0424Y04061D01*
X04315Y03838D02*
X0432Y03833D01*
X04312Y03895D02*
X04315Y03893D01*
X04485D02*
X0449Y03898D01*
X04432Y03893D02*
X04485D01*
X04432Y03953D02*
X04437Y03948D01*
X0449*
X03793Y04015D02*
X03795Y04013D01*
X03823Y03843D02*
X03832Y03853D01*
X03795Y04013D02*
X03805Y04003D01*
X04174Y04061D02*
Y04115D01*
X04237Y04003D02*
X0424Y04005D01*
X04199Y03853D02*
X04214Y03838D01*
X04315Y04006D02*
X04317Y04008D01*
X04318Y04007*
X03805Y04003D02*
X03878D01*
X03735Y04015D02*
X03793D01*
X0367D02*
X03735D01*
X04091Y03903D02*
X04165D01*
X0432Y03833D02*
X0437D01*
X0424Y03895D02*
X04312D01*
X04315Y03893D02*
X04377D01*
X04242Y03953D02*
X04377D01*
X03832Y03853D02*
X03878D01*
X04091D02*
X04199D01*
X04318Y04007D02*
X04369D01*
X04214Y03838D02*
X04315D01*
X04173Y03895D02*
X0424D01*
X04091Y03953D02*
X04237D01*
X04091Y04003D02*
X04237D01*
X04076Y04452D02*
Y04502D01*
X04144Y04327D02*
Y0438D01*
X04136Y04387D02*
X04144Y0438D01*
X04199Y04447D02*
X04231D01*
X04246Y04392D02*
X04301D01*
X04256Y04451D02*
X04257Y04452D01*
X04301*
X04247Y04432D02*
X04301D01*
X04381Y04552D02*
X04392Y04542D01*
X04339Y04653D02*
Y04685D01*
X04424Y04602D02*
X04424Y04602D01*
X04461*
X04461Y04602*
X04424Y04653D02*
Y047D01*
X0446Y04684D02*
X04461Y04682D01*
X0446Y04684D02*
Y04704D01*
X04424Y04653D02*
X04461D01*
X04427Y04736D02*
Y04783D01*
X04339Y04685D02*
X04376Y04722D01*
Y04783*
X04427Y04736D02*
X0446Y04704D01*
X04392Y04483D02*
Y04542D01*
X04241Y04387D02*
X04246Y04392D01*
X04231Y04447D02*
X04247Y04432D01*
X04481Y04632D02*
D01*
X04402Y04722D02*
Y04783D01*
Y04722D02*
X04424Y047D01*
X04461Y04653D02*
X04481Y04632D01*
X04199Y04387D02*
X04241D01*
X04199Y04327D02*
X04256D01*
G54D15*
X0175Y04926D02*
X01762Y04938D01*
X0186Y049D02*
X0214D01*
X01762Y04942D02*
X01779Y04959D01*
X01762Y04938D02*
Y04942D01*
X01595Y04805D02*
Y0491D01*
X01862Y0484D02*
Y04899D01*
X0304Y04765D02*
Y04804D01*
X03307Y02257D02*
X04502D01*
X04505Y02255*
X03613Y03195D02*
Y03211D01*
X03525Y0323D02*
X03595D01*
X03613Y03195D02*
X03619Y0319D01*
X03595Y0323D02*
X03613Y03211D01*
X03619Y0307D02*
Y0313D01*
Y0319*
X02905Y0332D02*
X03015Y0343D01*
X03106Y03086D02*
Y03194D01*
X02943Y03358D02*
X03106Y03194D01*
X03085Y03155D02*
X03086Y03153D01*
Y03086D02*
Y03153D01*
X048Y03165D02*
Y03405D01*
X04692Y03145D02*
X0478D01*
X048Y03165*
X0302Y036D02*
Y0421D01*
X02575Y03155D02*
X0302Y036D01*
X0298Y0425D02*
X0302Y0421D01*
X03067Y03627D02*
Y0413D01*
X0259Y0315D02*
X03067Y03627D01*
X0298Y0358D02*
Y04197D01*
X0256Y0316D02*
X0298Y0358D01*
X04411Y04412D02*
Y04483D01*
X04392Y04392D02*
X04411Y04412D01*
X01595Y04805D02*
X01625Y04775D01*
X01853*
X0356Y0289D02*
X03606Y02843D01*
Y02842D02*
Y02843D01*
Y02842D02*
X03619Y0283D01*
X03745Y0313D02*
X03795D01*
X03685Y0307D02*
X03745Y0313D01*
X03619Y0307D02*
X03685D01*
X02672Y0286D02*
X02677Y02855D01*
X0267Y0286D02*
X02672D01*
X02677Y02855D02*
X02716D01*
X04115Y04085D02*
Y0412D01*
X041Y0407D02*
X04115Y04085D01*
X0385Y0407D02*
X041D01*
X02905Y02995D02*
Y0332D01*
Y02995D02*
X0291Y0299D01*
X0294*
X03245Y02969D02*
X0336D01*
X03361Y02969*
X03245Y0297D02*
X03245Y02969D01*
X03425Y0296D02*
Y0298D01*
X03505Y0306*
X03414Y02949D02*
X03425Y0296D01*
X03361Y0285D02*
X03414D01*
X03415Y0285*
X03361Y02851D02*
X03361Y0285D01*
X03244Y03086D02*
Y03139D01*
X03245Y0314*
X03244Y03086D02*
X03244Y03086D01*
X03304Y02675D02*
X03305Y02675D01*
X03303Y02753D02*
X03304Y02752D01*
Y02675D02*
Y02752D01*
X0348Y0289D02*
X0356D01*
X0349Y03265D02*
X03525Y0323D01*
X0349Y03265D02*
Y03315D01*
X03015Y0343D02*
X0337D01*
X0338Y0344*
X03185Y03086D02*
Y03139D01*
X03185Y0314D02*
X03185Y03139D01*
Y03086D02*
X03185Y03086D01*
X03283D02*
X03284Y03087D01*
Y03139*
X03285Y0314*
X03263Y03086D02*
Y03208D01*
X0331Y03255*
X0337Y03283D02*
Y0331D01*
X03355Y03317D02*
Y03329D01*
Y03317D02*
X03363Y0331D01*
X0337*
X0331Y03374D02*
X03355Y03329D01*
X0321Y03725D02*
X03265Y0367D01*
X0321Y03725D02*
Y0396D01*
X03265Y0367D02*
X03525D01*
X03665Y0353*
X0359Y0344D02*
X0361Y0342D01*
Y03373D02*
Y0342D01*
X0338Y0344D02*
X0359D01*
X0337Y03369D02*
Y0343D01*
X0456Y03828D02*
X04609D01*
X046Y03846D02*
X0461Y03856D01*
X046Y03845D02*
Y03846D01*
X0461Y03856D02*
Y03881D01*
X04609Y03828D02*
X04635Y03854D01*
X0449Y03898D02*
X0456Y03828D01*
X04635Y03854D02*
Y03881D01*
X0449Y04008D02*
Y04065D01*
Y04008D02*
X0449Y04007D01*
X0449Y0378D02*
Y03839D01*
X0449Y03839*
X0424Y03778D02*
X04241Y0378D01*
X04285*
X03004Y0484D02*
X0304Y04804D01*
X0276Y04029D02*
X0276Y0403D01*
X0276Y0396D02*
Y04029D01*
X0337Y0396D02*
X03685D01*
X0276Y0496D02*
X02849D01*
X02445D02*
X0276D01*
X0276Y0403D02*
Y04959D01*
X0276Y0496D02*
X0276Y04959D01*
X0367Y0489D02*
Y0494D01*
X0363Y04979D02*
X0367Y0494D01*
X02927Y04979D02*
X0363D01*
X02907Y0496D02*
X02927Y04979D01*
X02849Y0496D02*
X02907D01*
X01779Y04959D02*
X0186D01*
X0186Y049D02*
X01862Y04899D01*
X02666Y02969D02*
Y03003D01*
X0267Y03007D02*
X02723D01*
X02666Y03003D02*
X0267Y03007D01*
X0266Y02964D02*
X02666Y02969D01*
X0291Y0419D02*
X0294Y0416D01*
Y0356D02*
Y0416D01*
X02545Y03165D02*
X0294Y0356D01*
X0285Y0425D02*
X0298D01*
X02851Y0419D02*
X0291D01*
X02545Y02785D02*
Y03165D01*
X0256Y0279D02*
Y0316D01*
X02575Y02795D02*
Y03155D01*
X02545Y02785D02*
X026Y0273D01*
X0256Y0279D02*
X02605Y02745D01*
X0259Y028D02*
Y0315D01*
Y028D02*
X02615Y02775D01*
X0286*
X0261Y0276D02*
X02865D01*
X02575Y02795D02*
X0261Y0276D01*
X02605Y02745D02*
X0287D01*
X02875Y0273D02*
X02976Y02831D01*
X03028*
X026Y0273D02*
X02875D01*
X0287Y02745D02*
X02976Y02851D01*
X03028*
X02975Y0287D02*
X03028D01*
X02865Y0276D02*
X02975Y0287D01*
X0286Y02775D02*
X02975Y0289D01*
X02849Y0431D02*
X02849Y0431D01*
X0297*
X02852Y0413D02*
X02905D01*
X02849Y04133D02*
X02852Y0413D01*
X02849Y04192D02*
X02851Y0419D01*
X02849Y04251D02*
X0285Y0425D01*
X02975Y0289D02*
X03028D01*
X0473Y03811D02*
Y03915D01*
X04798Y03983*
X04635Y03881D02*
X04661D01*
X04763Y03983D02*
X04798D01*
X04661Y03881D02*
X04763Y03983D01*
X03145Y03086D02*
Y03229D01*
X03135Y0324D02*
Y03305D01*
Y0324D02*
X03145Y03229D01*
X03135Y03305D02*
X03145Y03315D01*
X03155Y03305*
Y03265D02*
Y03305D01*
X02985Y03035D02*
Y03115D01*
X02964Y03049D02*
X02972Y03041D01*
X0294Y03049D02*
X02964D01*
X02991Y03028D02*
X03028D01*
X02985Y03035D02*
X02991Y03028D01*
X02972Y02987D02*
Y03041D01*
Y02987D02*
X0299Y02969D01*
X0288Y02964D02*
X02915Y02929D01*
X03028*
X0285Y02905D02*
X02855Y0291D01*
X03028*
X02801Y02905D02*
X0285D01*
X0365Y0286D02*
X0367D01*
X03739Y0283D02*
X03785D01*
X03739Y0265D02*
X03785D01*
X03675Y02865D02*
Y02884D01*
X0368Y0289*
X0367Y0286D02*
X03675Y02865D01*
X03854Y03129D02*
X03855Y0313D01*
X03854Y0307D02*
Y03129D01*
Y0307D02*
X03895D01*
X03854Y0289D02*
X03895D01*
X03739Y0283D02*
X03739Y0283D01*
Y0289*
X03619D02*
X0368D01*
X0355Y0306D02*
X0356Y0307D01*
X03505Y0306D02*
X0355D01*
Y0308D02*
X0356Y0307D01*
X03515Y0308D02*
X0355D01*
X03515Y032D02*
X0355D01*
X0356Y0319*
X0355Y0318D02*
X0356Y0319D01*
X03465Y03165D02*
X0348Y0318D01*
X0355*
X03515Y02845D02*
X03517D01*
X03519Y02842D02*
X03547D01*
X03517Y02845D02*
X03519Y02842D01*
X0355Y0282D02*
X0356Y0283D01*
X03434Y0287D02*
X03485Y0282D01*
X0355*
X03547Y02842D02*
X0356Y0283D01*
X03099Y04953D02*
X03189D01*
X03099Y04953D02*
X03099Y04953D01*
X03273D02*
X03363D01*
X03273Y04953D02*
X03273Y04953D01*
X03447D02*
X03536D01*
X03447Y04953D02*
Y04953D01*
X0214Y0496D02*
X02445D01*
X02447Y04957*
Y04642D02*
Y04957D01*
X0214Y04959D02*
X0214Y0496D01*
X03004Y04783D02*
Y0484D01*
X03Y0478D02*
X03004Y04783D01*
X02893Y04841D02*
X02905Y0483D01*
X02849Y04841D02*
X02893D01*
X02905Y0479D02*
X02915Y0478D01*
X02905Y0479D02*
Y0483D01*
X02915Y0478D02*
X02945D01*
X01916Y04775D02*
X01917Y04776D01*
Y0484*
X0204Y04959D02*
X0214D01*
X0198D02*
X0204D01*
X0192D02*
X0198D01*
X0186D02*
X0192D01*
X02786Y0292D02*
X02801Y02905D01*
X02775Y02855D02*
Y02909D01*
X02786Y0292*
X02766Y02968D02*
Y02987D01*
X02786Y03007*
X02723Y02925D02*
X02766Y02968D01*
X02723Y0292D02*
Y02925D01*
X0266Y02905D02*
X02707D01*
X02723Y0292*
X02716Y02855D02*
X02723Y02861D01*
Y0292*
X02722Y03044D02*
Y03052D01*
X0273Y0306*
X02723Y03007D02*
Y03043D01*
X02722Y03044D02*
X02723Y03043D01*
X0273Y0306D02*
X0284D01*
X0285Y02964D02*
Y03049D01*
X0284Y0306D02*
X0285Y03049D01*
Y02964D02*
X0288D01*
X02955Y02949D02*
X03028D01*
X0294Y02965D02*
Y0299D01*
Y02965D02*
X02955Y02949D01*
X0299Y02969D02*
X03028D01*
X03161Y02558D02*
Y02616D01*
X03204Y0266*
Y02753*
X03288Y02558D02*
Y02616D01*
X03244Y0266D02*
X03288Y02616D01*
X03244Y0266D02*
Y02753D01*
X03224Y02559D02*
Y02753D01*
Y02559D02*
X03224Y02558D01*
X04692Y02624D02*
X04809D01*
X0486Y02675*
Y03405*
X0309Y03374D02*
X03255D01*
X0331*
X03255Y03315D02*
X0331D01*
Y03255D02*
Y03315D01*
X03265Y03265D02*
Y03305D01*
X03255Y03315D02*
X03265Y03305D01*
X03245D02*
X03255Y03315D01*
X03224Y03214D02*
X03245Y03235D01*
Y03305*
X0309Y0326D02*
X03126Y03223D01*
Y03086D02*
Y03223D01*
X0309Y0326D02*
Y03315D01*
X032Y0326D02*
Y03315D01*
X03165Y03225D02*
X032Y0326D01*
X03165Y03086D02*
Y03225D01*
X03224Y03086D02*
Y03214D01*
X0343Y03315D02*
X0349D01*
X03375D02*
X0343D01*
X0337Y0331D02*
X03375Y03315D01*
X0344Y02925D02*
Y02965D01*
X03485Y0301D02*
X0356D01*
X03455Y02935D02*
X0347Y0295D01*
X0356*
X0344Y02965D02*
X03485Y0301D01*
X03455Y0291D02*
Y02935D01*
X03361Y02949D02*
X03414D01*
X0348Y0311D02*
X035Y0313D01*
X0348Y03055D02*
Y0311D01*
X035Y0313D02*
X0356D01*
X03465Y03065D02*
Y03165D01*
X03408Y03008D02*
X03465Y03065D01*
X03413Y02988D02*
X0348Y03055D01*
X03361Y03008D02*
X03408D01*
X03361Y02988D02*
X03413D01*
X03801Y03028D02*
Y03064D01*
X0382Y0301D02*
X04175D01*
X03801Y03028D02*
X0382Y0301D01*
X0414Y0295D02*
X0415Y02959D01*
X04122Y0295D02*
X0414D01*
X03825Y0295D02*
X04122D01*
X03802Y02927D02*
X03825Y0295D01*
X04122D02*
X04122Y0295D01*
X03687Y02797D02*
X03715Y0277D01*
X03687Y02797D02*
Y02822D01*
X03715Y0277D02*
X04087D01*
X0362D02*
X03645D01*
X03672Y02797*
Y02822*
X04205Y02854D02*
X0425Y02809D01*
X04205Y02854D02*
Y0298D01*
X04175Y0301D02*
X04205Y0298D01*
X04225Y02734D02*
Y02764D01*
Y02734D02*
X0425Y02709D01*
X04115Y02797D02*
X04192D01*
X04225Y02764*
X04087Y0277D02*
X04115Y02797D01*
X0368Y0283D02*
X03687Y02822D01*
X03672D02*
X0368Y0283D01*
X041Y0271D02*
X0415Y02759D01*
X03688Y02683D02*
X03715Y0271D01*
X041*
X03688Y02657D02*
Y02683D01*
X0368Y0265D02*
X03688Y02657D01*
X03672Y0265D02*
Y02682D01*
Y0265D02*
X03673Y02649D01*
X03645Y0271D02*
X03672Y02682D01*
X0362Y0271D02*
X03645D01*
X03505D02*
X0356D01*
X03403Y02811D02*
X03505Y0271D01*
X03361Y02811D02*
X03403D01*
X03413Y02831D02*
X03475Y0277D01*
X0356*
X03361Y02831D02*
X03413D01*
X03361Y0287D02*
X03434D01*
X03802Y02897D02*
Y02927D01*
X03795Y0307D02*
X03801Y03064D01*
X03795Y0289D02*
X03802Y02897D01*
X03787Y02897D02*
X03795Y0289D01*
X03787Y02897D02*
Y02927D01*
X03765Y0295D02*
X03787Y02927D01*
X03739Y0295D02*
X03765D01*
X0379Y03064D02*
X03795Y0307D01*
X0379Y0303D02*
Y03064D01*
X0377Y0301D02*
X0379Y0303D01*
X03739Y0301D02*
X0377D01*
X03619Y0295D02*
X0368D01*
X0362Y0301D02*
X0368D01*
X03425Y0291D02*
X0344Y02925D01*
X03435Y0289D02*
X03455Y0291D01*
X03361Y0289D02*
X03435D01*
X03361Y0291D02*
X03425D01*
X0452Y03948D02*
X04575Y04003D01*
X0463D02*
X04635Y03997D01*
Y03965D02*
Y03997D01*
X04781Y04066D02*
X04798Y04083D01*
X04763Y04066D02*
X04781D01*
X04845Y04083D02*
X0488Y04048D01*
X0484Y03843D02*
X0488Y03883D01*
X0449Y03948D02*
X0452D01*
X04798Y03843D02*
X0484D01*
X04635Y03965D02*
X04662D01*
X04575Y04003D02*
X0463D01*
X04798Y04083D02*
X04845D01*
X04662Y03965D02*
X04763Y04066D01*
X0473Y03811D02*
X04798Y03743D01*
X0488Y03883D02*
Y04048D01*
G54D20*
X01458Y0279D03*
X01651D03*
X01925Y0362D03*
X02117D03*
G54D21*
X01622Y02535D03*
X01457D03*
G54D22*
X01485Y0216D03*
X01445Y0491D03*
X0167D03*
X01835Y0251D03*
X04505Y02255D03*
X01835Y0281D03*
X03305Y0226D03*
X0465Y0472D03*
G54D23*
X0356Y03385D03*
Y03304D03*
G54D24*
X04584Y03965D03*
X0461D03*
X04635D03*
Y03881D03*
X04584D03*
X0461D03*
X04076Y04593D03*
Y04502D03*
G54D25*
X02409Y039D03*
X02465D03*
X03002Y04905D03*
X02947D03*
X01862Y0484D03*
X01917D03*
X03Y0478D03*
X02945D03*
X04377Y03893D03*
X04432D03*
X04377Y03953D03*
X04432D03*
X04144Y04447D03*
X04199D03*
X04144Y04327D03*
X04199D03*
X01084Y03439D03*
X0114D03*
G54D26*
X02447Y04642D03*
G54D27*
X02849Y0496D03*
X0214D03*
Y049D03*
Y04841D03*
Y04782D03*
Y04723D03*
Y04664D03*
Y04605D03*
Y04546D03*
Y04487D03*
Y04428D03*
Y04369D03*
Y0431D03*
Y04251D03*
Y04192D03*
Y04133D03*
Y04074D03*
X02849Y049D03*
Y04841D03*
Y04782D03*
Y04723D03*
Y04664D03*
Y04605D03*
Y04546D03*
Y04487D03*
Y04428D03*
Y04369D03*
Y0431D03*
Y04251D03*
Y04192D03*
Y04133D03*
Y04074D03*
G54D28*
X02229Y0403D03*
X02288D03*
X02347D03*
X02406D03*
X0276D03*
X02701D03*
X02642D03*
X02583D03*
X02524D03*
X02465D03*
G54D29*
X03795Y0313D03*
X03855D03*
X03739Y0295D03*
X0368D03*
X03619Y0319D03*
X0356D03*
X03619Y0283D03*
X0356D03*
X03935Y0247D03*
X03995D03*
X01853Y04775D03*
X01916D03*
X03004Y0484D03*
X02945D03*
X04115Y0412D03*
X04174D03*
X03619Y0289D03*
X0356D03*
X03619Y0307D03*
X0356D03*
X03739Y0301D03*
X0368D03*
X02716Y02855D03*
X02775D03*
X04199Y04387D03*
X04136D03*
X01413Y0356D03*
X01354D03*
X01476Y03096D03*
X01417D03*
X01082Y0351D03*
X01145D03*
G54D30*
X04325Y04783D03*
X04351D03*
X04376D03*
X04402D03*
X04427D03*
G54D31*
X0356Y0301D03*
X0362D03*
X0356Y0295D03*
X03619D03*
X0368Y0289D03*
X03739D03*
X0356Y0277D03*
X0362D03*
X0356Y0271D03*
X0362D03*
X03619Y0313D03*
X0356D03*
X03854Y0307D03*
X03795D03*
X03854Y0289D03*
X03795D03*
X03739Y0283D03*
X0368D03*
X03739Y0265D03*
X0368D03*
G54D32*
X03288Y02558D03*
Y02499D03*
X03224Y02558D03*
Y02499D03*
X03161Y02558D03*
Y02499D03*
X0285Y02964D03*
Y02905D03*
X0337Y0331D03*
Y03369D03*
X0486Y03464D03*
Y03405D03*
X048D03*
Y03464D03*
G54D33*
X03255Y03374D03*
Y03315D03*
X032Y03374D03*
Y03315D03*
X0309Y03315D03*
Y03374D03*
X0294Y03049D03*
Y0299D03*
X0204Y04959D03*
Y049D03*
X0186Y04959D03*
Y049D03*
X0192Y04959D03*
Y049D03*
X0198Y04959D03*
Y049D03*
X03795Y03957D03*
Y03898D03*
X03735Y03957D03*
Y03898D03*
X0424Y03778D03*
Y03837D03*
X0449Y03839D03*
Y03898D03*
X03795Y04072D03*
Y04013D03*
X0449Y04007D03*
Y03948D03*
X0331Y03315D03*
Y03374D03*
X03685D03*
Y03315D03*
X0266Y02905D03*
Y02964D03*
X0363Y03373D03*
Y03314D03*
X0349Y03374D03*
Y03315D03*
X0343Y03374D03*
Y03315D03*
X03145Y03374D03*
Y03315D03*
X03099Y04953D03*
Y0489D03*
X03273Y04953D03*
Y0489D03*
X03447Y04953D03*
Y0489D03*
X04201Y04567D03*
Y04507D03*
X04146Y04567D03*
Y04507D03*
G54D34*
X0169Y0368D03*
Y03529D03*
G54D35*
X02159Y0329D03*
X02031D03*
G54D36*
X0178Y03345D03*
Y03054D03*
G54D37*
X01436Y0301D03*
X01533D03*
G54D38*
X0375Y03389D03*
Y0331D03*
G54D39*
X01363Y03262D03*
X01413D03*
X01463D03*
X01513D03*
X01363Y03477D03*
X01413D03*
X01463D03*
X01513D03*
G54D40*
X0367Y04071D03*
Y04015D03*
X03735Y04071D03*
Y04015D03*
X03795Y03785D03*
Y03841D03*
X04175Y04005D03*
Y04061D03*
X04315Y03893D03*
Y03838D03*
Y04006D03*
Y0395D03*
X0424Y04005D03*
Y04061D03*
Y03895D03*
Y03951D03*
X04896Y0456D03*
Y04615D03*
Y0441D03*
Y04465D03*
X04646Y04535D03*
Y0459D03*
Y04382D03*
Y04438D03*
X03189Y04898D03*
Y04953D03*
X03363Y04898D03*
Y04953D03*
X03536Y04898D03*
Y04953D03*
X01285Y03282D03*
Y03337D03*
Y03402D03*
Y03457D03*
G54D41*
X03878Y03953D03*
Y04003D03*
Y03903D03*
Y03853D03*
X04091Y04003D03*
Y03953D03*
Y03903D03*
Y03853D03*
G54D42*
X03361Y02811D03*
Y02831D03*
Y02851D03*
Y0287D03*
Y0289D03*
Y0291D03*
Y02929D03*
Y02949D03*
Y02969D03*
Y02988D03*
Y03008D03*
Y03028D03*
X03028D03*
Y03008D03*
Y02988D03*
Y02969D03*
Y02949D03*
Y02929D03*
Y0291D03*
Y0289D03*
Y0287D03*
Y02851D03*
Y02831D03*
Y02811D03*
G54D43*
X03303Y03086D03*
X03283D03*
X03263D03*
X03244D03*
X03224D03*
X03204D03*
X03185D03*
X03165D03*
X03145D03*
X03126D03*
X03106D03*
X03086D03*
Y02753D03*
X03106D03*
X03126D03*
X03145D03*
X03165D03*
X03185D03*
X03204D03*
X03224D03*
X03244D03*
X03263D03*
X03283D03*
X03303D03*
G54D44*
X04829Y04559D03*
X04735Y04522D03*
Y04597D03*
X04828Y04407D03*
X04734Y0437D03*
Y04445D03*
G54D45*
X01465Y03823D03*
Y0365D03*
G54D46*
X01503Y0318D03*
X01413D03*
G54D47*
X01601Y0237D03*
X01428D03*
G54D48*
X04482Y04452D03*
Y04432D03*
Y04412D03*
Y04392D03*
Y04373D03*
Y04353D03*
Y04333D03*
X04301D03*
Y04353D03*
Y04373D03*
Y04392D03*
Y04412D03*
Y04432D03*
Y04452D03*
G54D49*
X04451Y04302D03*
X04431D03*
X04411D03*
X04392D03*
X04372D03*
X04352D03*
X04332D03*
Y04483D03*
X04352D03*
X04372D03*
X04392D03*
X04431D03*
X04451D03*
X04411D03*
G54D50*
X04392Y04392D03*
G54D51*
X04424Y04653D03*
Y04627D03*
Y04602D03*
X04339D03*
Y04653D03*
Y04627D03*
G54D52*
X02723Y0292D03*
X02786Y03007D03*
Y0292D03*
X02723Y03007D03*
G54D105*
X01638Y02495D02*
X0172D01*
X0212Y03636D02*
X02136Y0362D01*
X02117D02*
X02143D01*
X0212Y03636D02*
Y03745D01*
X02159Y0329D02*
Y03603D01*
X02142Y0362D02*
X02159Y03603D01*
X01622Y02385D02*
Y0251D01*
Y02535*
Y0251D02*
X01638Y02495D01*
X01413Y0318D02*
Y03262D01*
Y02938D02*
Y0318D01*
X01457Y02535D02*
Y02894D01*
X01413Y02938D02*
X01457Y02894D01*
X01607Y0237D02*
X01622Y02385D01*
X01601Y0237D02*
X01607D01*
X0131D02*
X01428D01*
X01185Y02403D02*
X01276D01*
X0131Y0237*
X03165Y0216D02*
X0326Y02255D01*
X03305*
X03307Y02257*
G54D106*
X0116Y04087D03*
Y04225D03*
Y04501D03*
Y04639D03*
Y04776D03*
Y04363D03*
Y0395D03*
Y03812D03*
Y03674D03*
X01185Y0326D03*
X01085D03*
X01185Y0316D03*
Y02735D03*
X01085D03*
X01185Y02635D03*
X01085Y02835D03*
Y02935D03*
X01185Y02835D03*
Y02935D03*
X03725Y02175D03*
X03825D03*
X03725Y02275D03*
X03825D03*
X04025Y02175D03*
X03925Y02275D03*
Y02175D03*
X02645Y0223D03*
X02507D03*
X02232D03*
X02094D03*
X01956D03*
X0237D03*
X02783D03*
X02921D03*
X03059D03*
G54D107*
X0116Y04914D03*
X01085Y0316D03*
Y02635D03*
G54D108*
X0425Y02709D03*
G54D109*
X0415Y02759D03*
X0425Y02809D03*
X0415Y02859D03*
X0425Y02909D03*
X0415Y02959D03*
X0425Y03009D03*
X0415Y03059D03*
G54D110*
X04692Y02624D03*
Y02724D03*
Y03145D03*
Y03045D03*
G54D111*
X045Y0311D03*
Y0266D03*
G54D112*
X04379Y03189D03*
Y0258D03*
G54D113*
X01185Y02403D03*
G54D114*
X01185Y02206D03*
G54D115*
X04025Y02275D03*
X01818Y0223D03*
G54D116*
X04523Y04783D03*
X0423D03*
G54D117*
X04529Y04933D03*
X04224D03*
G54D118*
X04278Y04825D03*
X04475D03*
G54D119*
X04815Y02195D03*
Y0488D03*
G54D120*
X0387Y0464D03*
X0367Y0489D03*
X0387D03*
Y0421D03*
X0367Y0446D03*
X0387D03*
G54D121*
X0367Y0464D03*
Y0421D03*
G54D122*
X04798Y03843D03*
Y04083D03*
G54D123*
X04798Y03743D03*
Y03983D03*
G54D124*
X0485Y048D03*
X048Y047D03*
X0485Y046D03*
X048Y043D03*
X0485Y042D03*
Y04D03*
X048Y039D03*
X0485Y038D03*
Y036D03*
X048Y035D03*
Y023D03*
Y021D03*
X047Y049D03*
X0475Y048D03*
X047Y047D03*
X0475Y042D03*
X047Y041D03*
X0475Y04D03*
X047Y037D03*
X0475Y036D03*
X047Y035D03*
X0475Y034D03*
X047Y023D03*
Y021D03*
X046Y049D03*
X0465Y048D03*
X046Y047D03*
Y043D03*
X0465Y042D03*
X046Y041D03*
X0465Y038D03*
X046Y037D03*
X0465Y036D03*
X046Y035D03*
X0465Y034D03*
X046Y023D03*
X0465Y022D03*
X046Y021D03*
X045Y047D03*
X0455Y046D03*
X045Y045D03*
Y043D03*
X0455Y042D03*
X045Y041D03*
X0455Y038D03*
X045Y037D03*
X0455Y036D03*
X045Y035D03*
X0455Y034D03*
Y022D03*
X045Y021D03*
X044Y049D03*
X0445Y042D03*
X044Y041D03*
X0445Y04D03*
Y038D03*
X044Y037D03*
X0445Y036D03*
X044Y035D03*
X0445Y034D03*
X044Y023D03*
X0445Y022D03*
X044Y021D03*
X043Y049D03*
Y047D03*
Y045D03*
Y043D03*
X0435Y042D03*
X043Y041D03*
X0435Y038D03*
X043Y037D03*
X0435Y036D03*
X043Y035D03*
X0435Y034D03*
X043Y023D03*
X0435Y022D03*
X043Y021D03*
X042Y047D03*
X0425Y042D03*
X042Y037D03*
X0425Y036D03*
X042Y035D03*
X0425Y034D03*
X042Y023D03*
X0425Y022D03*
X042Y021D03*
X041Y049D03*
X0415Y048D03*
X041Y047D03*
Y043D03*
X0415Y042D03*
Y038D03*
X041Y037D03*
X0415Y036D03*
X041Y035D03*
X0415Y034D03*
X041Y023D03*
X0415Y022D03*
X041Y021D03*
X0405Y048D03*
X04Y045D03*
X0405Y044D03*
X04Y043D03*
X0405Y042D03*
X04Y039D03*
X0405Y038D03*
X04Y037D03*
X0405Y036D03*
X04Y035D03*
X0405Y034D03*
X04Y021D03*
X039Y047D03*
X0395Y044D03*
X039Y043D03*
X0395Y04D03*
Y038D03*
X039Y037D03*
X0395Y036D03*
X039Y035D03*
X0395Y034D03*
X039Y021D03*
X0385Y048D03*
X038Y047D03*
Y045D03*
X0385Y044D03*
Y038D03*
X038Y037D03*
X0385Y036D03*
X038Y035D03*
X0385Y034D03*
Y032D03*
Y024D03*
X038Y021D03*
X037Y047D03*
X0375Y046D03*
Y044D03*
X037Y043D03*
X0375Y042D03*
X037Y037D03*
X0375Y036D03*
Y024D03*
X037Y021D03*
X0365Y044D03*
Y024D03*
X036Y023D03*
Y021D03*
X035Y047D03*
Y045D03*
Y043D03*
Y041D03*
Y039D03*
Y035D03*
X0355Y024D03*
X035Y021D03*
X0345Y046D03*
Y044D03*
Y042D03*
X034Y041D03*
X0345Y04D03*
X034Y039D03*
Y037D03*
X0345Y036D03*
X034Y035D03*
Y025D03*
X0345Y022D03*
X034Y021D03*
X033Y047D03*
X0335Y046D03*
X033Y043D03*
Y041D03*
Y039D03*
Y037D03*
X0335Y036D03*
X033Y035D03*
X0335Y022D03*
X033Y021D03*
X032Y047D03*
Y045D03*
X0325Y044D03*
X032Y043D03*
X0325Y042D03*
X032Y041D03*
X0325Y04D03*
X032Y039D03*
Y037D03*
X0325Y036D03*
X032Y035D03*
X0325Y026D03*
Y022D03*
X032Y021D03*
X031Y047D03*
X0315Y044D03*
X031Y043D03*
X0315Y042D03*
X031Y041D03*
X0315Y04D03*
X031Y039D03*
Y037D03*
X0315Y036D03*
X031Y035D03*
X0315Y022D03*
X031Y021D03*
X03Y047D03*
X0305Y044D03*
X03Y043D03*
X0305Y042D03*
X03Y041D03*
X0305Y04D03*
X03Y039D03*
Y037D03*
Y035D03*
X0305Y026D03*
X03Y025D03*
Y021D03*
X029Y047D03*
X0295Y044D03*
Y042D03*
X029Y041D03*
Y033D03*
Y031D03*
Y027D03*
Y025D03*
Y021D03*
X028Y047D03*
Y045D03*
Y043D03*
Y041D03*
X0285Y04D03*
X028Y039D03*
Y037D03*
X0285Y036D03*
X028Y033D03*
X0285Y032D03*
X028Y031D03*
X0285Y028D03*
X028Y027D03*
X0285Y022D03*
X028Y021D03*
X027Y047D03*
X0275Y046D03*
X027Y045D03*
X0275Y044D03*
X027Y043D03*
X0275Y042D03*
X027Y041D03*
X0275Y036D03*
Y034D03*
Y032D03*
X027Y031D03*
Y027D03*
X0275Y026D03*
X027Y025D03*
Y021D03*
X026Y047D03*
X0265Y046D03*
X026Y045D03*
X0265Y044D03*
X026Y043D03*
X0265Y042D03*
X026Y041D03*
Y027D03*
Y025D03*
Y021D03*
X0255Y046D03*
X025Y045D03*
X0255Y044D03*
X025Y043D03*
X0255Y042D03*
X025Y041D03*
Y039D03*
X0255Y036D03*
Y034D03*
Y032D03*
Y022D03*
X025Y021D03*
X024Y045D03*
X0245Y044D03*
X024Y043D03*
X0245Y042D03*
X024Y041D03*
Y023D03*
X0245Y022D03*
X024Y021D03*
X023Y047D03*
X0235Y046D03*
X023Y045D03*
X0235Y044D03*
X023Y043D03*
X0235Y042D03*
X023Y041D03*
Y021D03*
X022Y047D03*
X0225Y046D03*
X022Y045D03*
X0225Y044D03*
X022Y043D03*
X0225Y042D03*
X022Y041D03*
Y039D03*
Y031D03*
Y029D03*
Y027D03*
Y023D03*
Y021D03*
X0215Y04D03*
X021Y031D03*
X0215Y03D03*
X021Y029D03*
X0215Y028D03*
X021Y027D03*
X0215Y026D03*
X021Y023D03*
X0215Y022D03*
X021Y021D03*
X02Y047D03*
X0205Y044D03*
X02Y041D03*
Y039D03*
Y037D03*
Y035D03*
X0205Y034D03*
X02Y031D03*
X0205Y03D03*
X02Y029D03*
X0205Y028D03*
X02Y027D03*
X0205Y026D03*
X02Y025D03*
X0205Y024D03*
Y022D03*
X02Y021D03*
X019Y047D03*
X0195Y044D03*
X019Y041D03*
X0195Y04D03*
X019Y039D03*
X0195Y038D03*
X019Y037D03*
Y035D03*
X0195Y034D03*
X019Y031D03*
X0195Y03D03*
X019Y029D03*
X0195Y028D03*
X019Y027D03*
X0195Y026D03*
X019Y025D03*
X0195Y024D03*
X019Y021D03*
X018Y047D03*
X0185Y044D03*
X018Y041D03*
X0185Y04D03*
X018Y039D03*
X0185Y038D03*
Y036D03*
Y03D03*
X018Y029D03*
X0185Y026D03*
Y024D03*
X018Y023D03*
Y021D03*
X017Y047D03*
X0175Y044D03*
X017Y041D03*
X0175Y04D03*
X017Y039D03*
X0175Y038D03*
X017Y031D03*
Y029D03*
X0175Y026D03*
Y024D03*
X017Y023D03*
X0175Y022D03*
X017Y021D03*
X0165Y048D03*
X016Y047D03*
X0165Y044D03*
Y042D03*
Y04D03*
X016Y039D03*
X0165Y038D03*
Y032D03*
X016Y031D03*
X0165Y03D03*
X016Y029D03*
Y023D03*
X0165Y022D03*
X016Y021D03*
X0155Y044D03*
Y04D03*
Y038D03*
Y036D03*
Y034D03*
Y032D03*
Y028D03*
X015Y023D03*
X0155Y022D03*
X015Y021D03*
X014Y023D03*
X0145Y022D03*
X014Y021D03*
X013Y049D03*
X0135Y048D03*
X013Y047D03*
Y043D03*
X0135Y042D03*
X013Y039D03*
Y037D03*
X0135Y036D03*
Y034D03*
X013Y031D03*
Y029D03*
Y027D03*
Y023D03*
X0135Y022D03*
X013Y021D03*
X012Y047D03*
X0125Y044D03*
X012Y043D03*
X0125Y04D03*
X012Y039D03*
X0125Y038D03*
Y034D03*
Y032D03*
X012Y031D03*
X0125Y03D03*
Y028D03*
Y026D03*
X012Y025D03*
Y023D03*
X0125Y022D03*
X012Y021D03*
X011Y049D03*
Y047D03*
Y045D03*
Y043D03*
Y041D03*
X0115Y04D03*
X011Y039D03*
Y037D03*
X0115Y036D03*
X011Y031D03*
X0115Y03D03*
Y026D03*
X011Y025D03*
Y023D03*
Y021D03*
X0215Y03775D03*
X0212D03*
X02085D03*
Y03745D03*
X0215D03*
X013Y0353D03*
X0172Y02495D03*
X01795Y0267D03*
X0175Y04926D03*
X01595Y0491D03*
X0212Y03745D03*
X0176Y0482D03*
X02045Y04848D03*
X0204Y04785D03*
X0307Y0482D03*
X03037Y04875D03*
X03075Y04785D03*
X0304Y04765D03*
X0196Y03305D03*
X0335Y0467D03*
X0363Y0326D03*
X03085Y03155D03*
X0332Y0487D03*
Y0478D03*
X03365Y0482D03*
X03042Y04905D03*
X04251Y04514D03*
X03045Y03965D03*
X0296D03*
X03D03*
X02905Y0416D03*
X03045Y04095D03*
X03067Y0413D03*
X03045Y0364D03*
X03Y0361D03*
X0296Y0359D03*
X0298Y04197D03*
X02945Y04335D03*
Y04285D03*
X0292Y0422D03*
X0369Y0481D03*
X04916Y03294D03*
X04914Y03213D03*
Y03071D03*
Y02858D03*
X04915Y02575D03*
X0436Y02465D03*
X04498Y02465D03*
X04619Y0246D03*
X04775Y0246D03*
X04894Y02467D03*
X04206Y0246D03*
X0408Y0246D03*
X04Y0253D03*
X04005Y02915D03*
Y0298D03*
X04002Y02825D03*
X04005Y0274D03*
X04003Y02636D03*
Y03071D03*
X04005Y0318D03*
Y0331D03*
X03925Y02665D03*
X03928Y02614D03*
X03927Y02567D03*
X03888Y02609D03*
X03552Y0263D03*
X03462Y02634D03*
X0355Y02553D03*
X03145Y0288D03*
X0301Y0309D03*
X03002Y03189D03*
X03005Y0326D03*
X03003Y03335D03*
X03005Y0338D03*
X0359Y0304D03*
X03495Y0275D03*
X03455Y0288D03*
X0347Y0297D03*
X03795Y0298D03*
X0368Y0274D03*
X03685Y02445D03*
X0355Y03265D03*
X0368Y03132D03*
X03745Y0313D03*
X03895D03*
X03925Y0304D03*
X0392Y02979D03*
X03921Y02918D03*
X03925Y02835D03*
Y028D03*
Y0274D03*
X03355Y0262D03*
X0342Y02545D03*
X0352Y0245D03*
X03855Y02445D03*
X0318Y02685D03*
X0313D03*
X03025D03*
X0306D03*
X03005Y02715D03*
Y0278D03*
X0268Y0283D03*
X02715D03*
X02825Y02835D03*
X0286Y0287D03*
X0287Y0303D03*
X0264D03*
X0268Y03065D03*
X0264Y0306D03*
Y02855D03*
X0265Y0283D03*
X0267Y0286D03*
X03245Y0297D03*
X03415Y0285D03*
X03245Y0314D03*
X03305Y02675D03*
X0348Y0289D03*
X03185Y0314D03*
X03285D03*
X0337Y03283D03*
X0321Y0396D03*
X046Y03845D03*
X0449Y04065D03*
Y0378D03*
X04285D03*
X0276Y0396D03*
X0337D03*
X042Y0463D03*
X043D03*
X03685Y0396D03*
X0385Y0407D03*
X03575Y0411D03*
Y039D03*
X0373Y0344D03*
X0241Y03745D03*
X03695Y04365D03*
X0354Y0482D03*
X0319D03*
X01195Y0344D03*
X03135Y04755D03*
Y0449D03*
X0178Y02805D03*
Y0251D03*
X02465Y0385D03*
X02405Y03955D03*
X03875Y0247D03*
X04895Y04515D03*
X0297Y0431D03*
X02905Y0413D03*
X04025Y04565D03*
X04371Y04527D03*
X04421Y04566D03*
X03155Y03265D03*
X02985Y03115D03*
X031Y025D03*
X0365Y0286D03*
X03785Y0283D03*
Y0265D03*
X03895Y0307D03*
Y0289D03*
X03515Y0308D03*
Y032D03*
Y02845D03*
X0343Y0342D03*
X0294Y03115D03*
X03265Y03265D03*
X04565Y0429D03*
X04535Y0433D03*
X04536Y04412D03*
X04599Y04374D03*
X04599Y04532D03*
X04691Y04382D03*
Y04522D03*
X04646Y04332D03*
X04566Y04392D03*
X04646Y04487D03*
X04895Y0467D03*
X0437Y03833D03*
X04369Y04007D03*
X04076Y04452D03*
X04256Y04451D03*
X04461Y04602D03*
Y04682D03*
X04256Y04327D03*
X04481Y04632D03*
G54D125*
X04435Y04349D03*
X04348D03*
X04435Y04436D03*
Y04392D03*
X04348Y04436D03*
Y04392D03*
X04392Y04349D03*
Y04436D03*
Y04392D03*
M02*