%FSTAX23Y23*%
%MOIN*%
%SFA1B1*%

%IPPOS*%
%ADD10C,0.009800*%
%ADD13C,0.007900*%
%ADD15C,0.006000*%
%ADD17C,0.005000*%
%LNv1.0-1*%
%LPD*%
G54D10*
X01307Y02713D02*
D01*
D01*
G75*
G03X01298I-00004J0D01*
G74*G01*
D01*
G75*
G03X01307I00004J0D01*
G74*G01*
X01582Y02712D02*
D01*
D01*
G75*
G03X01573I-00004J0D01*
G74*G01*
D01*
G75*
G03X01582I00004J0D01*
G74*G01*
X01447Y02713D02*
D01*
D01*
G75*
G03X01438I-00004J0D01*
G74*G01*
D01*
G75*
G03X01447I00004J0D01*
G74*G01*
G54D13*
X01401Y02471D02*
X0141D01*
X01401Y02688D02*
X0141D01*
X01299Y02471D02*
X01308D01*
X01299Y02688D02*
X01308D01*
X0141Y02471D02*
Y02688D01*
X01299Y02471D02*
Y02688D01*
X01676Y0247D02*
X01685D01*
X01676Y02686D02*
X01685D01*
X01574Y0247D02*
X01583D01*
X01574Y02686D02*
X01583D01*
X01685Y0247D02*
Y02686D01*
X01574Y0247D02*
Y02686D01*
X01541Y02471D02*
X0155D01*
X01541Y02688D02*
X0155D01*
X01439Y02471D02*
X01448D01*
X01439Y02688D02*
X01448D01*
X0155Y02471D02*
Y02688D01*
X01439Y02471D02*
Y02688D01*
X01032Y03104D02*
X01238D01*
X01032D02*
Y03315D01*
X01238Y03104D02*
Y03315D01*
X01032D02*
X01238D01*
X01032Y02579D02*
X01238D01*
X01032D02*
Y0299D01*
X01238Y02579D02*
Y0299D01*
X01032D02*
X01238D01*
G54D15*
X03812Y04821D02*
X03816D01*
Y04769D02*
Y04821D01*
X03714Y04769D02*
X03816D01*
X03714D02*
Y04821D01*
X03812*
X03712Y04712D02*
X03719D01*
X03712D02*
Y04758D01*
X03818*
Y04712D02*
Y04758D01*
X03719Y04712D02*
X03818D01*
X03817Y04391D02*
X03821D01*
Y04339D02*
Y04391D01*
X03719Y04339D02*
X03821D01*
X03719D02*
Y04391D01*
X03817*
X03715Y04277D02*
X03722D01*
X03715D02*
Y04323D01*
X03821*
Y04277D02*
Y04323D01*
X03722Y04277D02*
X03821D01*
X01336Y02834D02*
X01316D01*
X01326Y02844D02*
Y02824D01*
X01286Y02849D02*
X01306D01*
Y02834*
X01296Y02839*
X01291*
X01286Y02834*
Y02824*
X01291Y02819*
X01301*
X01306Y02824*
X01316Y02933D02*
X01321Y02938D01*
X01331*
X01336Y02933*
Y02913*
X01331Y02908*
X01321*
X01316Y02913*
Y02923*
X01326*
X01306Y02908D02*
Y02938D01*
X01286Y02908*
Y02938*
X01276D02*
Y02908D01*
X01261*
X01256Y02913*
Y02933*
X01261Y02938*
X01276*
X01316Y02888D02*
X01321Y02893D01*
X01331*
X01336Y02888*
Y02868*
X01331Y02863*
X01321*
X01316Y02868*
Y02878*
X01326*
X01306Y02863D02*
Y02893D01*
X01286Y02863*
Y02893*
X01276D02*
Y02863D01*
X01261*
X01256Y02868*
Y02888*
X01261Y02893*
X01276*
X01336Y02788D02*
X01316D01*
X01326Y02798D02*
Y02778D01*
X01306Y02773D02*
X01296D01*
X01301*
Y02803*
X01306Y02798*
X01261Y02773D02*
X01281D01*
X01261Y02793*
Y02798*
X01266Y02803*
X01276*
X01281Y02798*
X01064Y03076D02*
Y03089D01*
Y03082*
X01104*
X01097Y03076*
X0117Y03091D02*
Y03064D01*
X01197Y03091*
X01203*
X0121Y03084*
Y03071*
X01203Y03064*
X01097Y03328D02*
X01104Y03334D01*
Y03348*
X01097Y03354*
X0109*
X01084Y03348*
Y03341*
Y03348*
X01077Y03354*
X0107*
X01064Y03348*
Y03334*
X0107Y03328*
X0117Y03348D02*
X0121D01*
X0119Y03328*
Y03354*
X01064Y02551D02*
Y02564D01*
Y02557*
X01104*
X01097Y02551*
X0117Y02566D02*
Y02539D01*
X01197Y02566*
X01203*
X0121Y02559*
Y02546*
X01203Y02539*
X01104Y03003D02*
Y03029D01*
X01097*
X0107Y03003*
X01064*
X01203D02*
X0121Y03009D01*
Y03023*
X01203Y03029*
X01197*
X0119Y03023*
X01183Y03029*
X01177*
X0117Y03023*
Y03009*
X01177Y03003*
X01183*
X0119Y03009*
X01197Y03003*
X01203*
X0119Y03009D02*
Y03023D01*
G54D17*
X01416Y02769D02*
Y02749D01*
X01406*
X01402Y02752*
Y02765*
X01406Y02769*
X01416*
X01396Y02749D02*
X01389D01*
X01392*
Y02769*
X01396Y02765*
X01379Y02749D02*
X01372D01*
X01376*
Y02769*
X01379Y02765*
X01691Y02767D02*
Y02747D01*
X01681*
X01677Y0275*
Y02763*
X01681Y02767*
X01691*
X01671Y0275D02*
X01667Y02747D01*
X01661*
X01657Y0275*
Y02763*
X01661Y02767*
X01667*
X01671Y02763*
Y0276*
X01667Y02757*
X01657*
X01556Y02769D02*
Y02749D01*
X01546*
X01542Y02752*
Y02765*
X01546Y02769*
X01556*
X01536Y02765D02*
X01532Y02769D01*
X01526*
X01522Y02765*
Y02762*
X01526Y02759*
X01522Y02755*
Y02752*
X01526Y02749*
X01532*
X01536Y02752*
Y02755*
X01532Y02759*
X01536Y02762*
Y02765*
X01532Y02759D02*
X01526D01*
X01293Y033D02*
Y0332D01*
X01283*
X0128Y03316*
Y0331*
X01283Y03306*
X01293*
X01273Y033D02*
X01266D01*
X0127*
Y0332*
X01273Y03316*
X01296Y0297D02*
Y0299D01*
X01286*
X01283Y02986*
Y0298*
X01286Y02976*
X01296*
X01276Y02986D02*
X01273Y0299D01*
X01266*
X01263Y02986*
Y02983*
X01266Y0298*
X0127*
X01266*
X01263Y02976*
Y02973*
X01266Y0297*
X01273*
X01276Y02973*
X03691Y04785D02*
Y04805D01*
X03681*
X03678Y04801*
Y04795*
X03681Y04791*
X03691*
X03685D02*
X03678Y04785D01*
X03671Y04801D02*
X03668Y04805D01*
X03661*
X03658Y04801*
Y04798*
X03661Y04795*
X03665*
X03661*
X03658Y04791*
Y04788*
X03661Y04785*
X03668*
X03671Y04788*
X03678Y04741D02*
X03681Y04745D01*
X03688*
X03691Y04741*
Y04728*
X03688Y04725*
X03681*
X03678Y04728*
X03658Y04725D02*
X03671D01*
X03658Y04738*
Y04741*
X03661Y04745*
X03668*
X03671Y04741*
X03693Y04355D02*
Y04375D01*
X03683*
X0368Y04371*
Y04365*
X03683Y04361*
X03693*
X03686D02*
X0368Y04355D01*
X03673D02*
X03666D01*
X0367*
Y04375*
X03673Y04371*
X0368Y04306D02*
X03683Y0431D01*
X0369*
X03693Y04306*
Y04293*
X0369Y0429*
X03683*
X0368Y04293*
X03673Y0429D02*
X03666D01*
X0367*
Y0431*
X03673Y04306*
M02*