%FSTAX23Y23*%
%MOIN*%
%SFA1B1*%

%IPPOS*%
%ADD58R,0.039500X0.045400*%
%ADD62R,0.039500X0.039500*%
%ADD78R,0.069000X0.090700*%
%ADD86C,0.073000*%
%ADD87R,0.073000X0.073000*%
%ADD88R,0.063000X0.063000*%
%ADD89C,0.063000*%
%ADD90C,0.068200*%
%ADD91C,0.136000*%
%ADD92C,0.104300*%
%ADD93R,0.096600X0.096600*%
%ADD94C,0.096600*%
%ADD95R,0.073000X0.073000*%
%ADD96O,0.065100X0.086700*%
%ADD97O,0.053300X0.078900*%
%ADD98C,0.039500*%
%ADD99C,0.146000*%
%ADD100C,0.083000*%
%ADD101R,0.083000X0.083000*%
%ADD102R,0.067100X0.067100*%
%ADD103C,0.067100*%
%ADD104C,0.027700*%
%LNv1.0-1*%
%LPD*%
G54D58*
X03737Y04795D03*
X03792D03*
X03742Y04365D03*
X03797D03*
G54D62*
X03794Y04735D03*
X03735D03*
X03797Y043D03*
X03738D03*
G54D78*
X01355Y02493D03*
Y02666D03*
X0163Y02491D03*
Y02665D03*
X01495Y02493D03*
Y02666D03*
G54D86*
X0116Y04087D03*
Y04225D03*
Y04501D03*
Y04639D03*
Y04776D03*
Y04363D03*
Y0395D03*
Y03812D03*
Y03674D03*
X01185Y0326D03*
X01085D03*
X01185Y0316D03*
Y02735D03*
X01085D03*
X01185Y02635D03*
X01085Y02835D03*
Y02935D03*
X01185Y02835D03*
Y02935D03*
X03725Y02175D03*
X03825D03*
X03725Y02275D03*
X03825D03*
X04025Y02175D03*
X03925Y02275D03*
Y02175D03*
X02645Y0223D03*
X02507D03*
X02232D03*
X02094D03*
X01956D03*
X0237D03*
X02783D03*
X02921D03*
X03059D03*
G54D87*
X0116Y04914D03*
X01085Y0316D03*
Y02635D03*
G54D88*
X0425Y02709D03*
G54D89*
X0415Y02759D03*
X0425Y02809D03*
X0415Y02859D03*
X0425Y02909D03*
X0415Y02959D03*
X0425Y03009D03*
X0415Y03059D03*
G54D90*
X04692Y02624D03*
Y02724D03*
Y03145D03*
Y03045D03*
G54D91*
X045Y0311D03*
Y0266D03*
G54D92*
X04379Y03189D03*
Y0258D03*
G54D93*
X01185Y02403D03*
G54D94*
X01185Y02206D03*
G54D95*
X04025Y02275D03*
X01818Y0223D03*
G54D96*
X04523Y04783D03*
X0423D03*
G54D97*
X04529Y04933D03*
X04224D03*
G54D98*
X04278Y04825D03*
X04475D03*
G54D99*
X04815Y02195D03*
Y0488D03*
G54D100*
X0387Y0464D03*
X0367Y0489D03*
X0387D03*
Y0421D03*
X0367Y0446D03*
X0387D03*
G54D101*
X0367Y0464D03*
Y0421D03*
G54D102*
X04798Y03843D03*
Y04083D03*
G54D103*
X04798Y03743D03*
Y03983D03*
G54D104*
X04435Y04349D03*
X04348D03*
X04435Y04436D03*
Y04392D03*
X04348Y04436D03*
Y04392D03*
X04392Y04349D03*
Y04436D03*
Y04392D03*
M02*