G04*
G04 #@! TF.GenerationSoftware,Altium Limited,Altium Designer,22.11.1 (43)*
G04*
G04 Layer_Physical_Order=3*
G04 Layer_Color=16440176*
%FSLAX24Y24*%
%MOIN*%
G70*
G04*
G04 #@! TF.SameCoordinates,87D651DC-2D2C-43A3-A13A-F7E35A12DA3B*
G04*
G04*
G04 #@! TF.FilePolarity,Positive*
G04*
G01*
G75*
%ADD11C,0.0100*%
%ADD105C,0.0300*%
%ADD106C,0.0650*%
%ADD109C,0.0550*%
%ADD112C,0.0963*%
%ADD114C,0.0886*%
%ADD115R,0.0650X0.0650*%
%ADD116O,0.0571X0.0787*%
%ADD117O,0.0453X0.0709*%
%ADD120C,0.0750*%
%ADD121R,0.0750X0.0750*%
%ADD124C,0.0177*%
%ADD125C,0.0197*%
G36*
X40350Y48550D02*
X40350Y46750D01*
X41000Y46100D01*
X44300D01*
X44450Y45950D01*
Y45550D01*
X44350Y45450D01*
X43769D01*
X43730Y45466D01*
X43670D01*
X43631Y45450D01*
X39500Y45450D01*
X39250Y45700D01*
Y47500D01*
X38350Y48400D01*
X36192D01*
X36146Y48446D01*
X36100Y48465D01*
X20604D01*
X20577Y48507D01*
X20582Y48519D01*
Y48578D01*
X20559Y48633D01*
X20517Y48675D01*
X20463Y48697D01*
X20404D01*
X20349Y48675D01*
X20307Y48633D01*
X20285Y48578D01*
Y48519D01*
X20290Y48507D01*
X20262Y48465D01*
X17400D01*
X17354Y48446D01*
X17308Y48400D01*
X15750D01*
X15350Y48000D01*
Y27400D01*
X15750Y27000D01*
X18200D01*
Y26400D01*
X14500D01*
X13800Y27100D01*
Y49150D01*
X14500Y49850D01*
X17439D01*
X17451Y49831D01*
Y49772D01*
X17474Y49717D01*
X17516Y49675D01*
X17570Y49653D01*
X17630D01*
X17684Y49675D01*
X17726Y49717D01*
X17749Y49772D01*
Y49831D01*
X17761Y49850D01*
X39050D01*
X40350Y48550D01*
D02*
G37*
G36*
X49338Y33700D02*
X39400D01*
Y31207D01*
X39354Y31188D01*
X38996Y31546D01*
X38950Y31565D01*
X36752D01*
X36615Y31702D01*
Y31850D01*
X36596Y31896D01*
X35546Y32946D01*
X35500Y32965D01*
X35268D01*
X35262Y32969D01*
Y34100D01*
X35262Y34100D01*
X35254Y34143D01*
X35229Y34179D01*
X35229Y34179D01*
X35029Y34379D01*
X34993Y34404D01*
X34950Y34412D01*
X34950Y34412D01*
X34398D01*
X34384Y34426D01*
X34330Y34449D01*
X34270D01*
X34216Y34426D01*
X34174Y34384D01*
X34151Y34330D01*
Y34270D01*
X34174Y34216D01*
X34216Y34174D01*
X34270Y34151D01*
X34330D01*
X34384Y34174D01*
X34398Y34188D01*
X34904D01*
X35038Y34054D01*
Y33515D01*
X33562D01*
X33528Y33549D01*
Y33887D01*
X33509Y33933D01*
X33396Y34046D01*
X33350Y34065D01*
X30050D01*
X30004Y34046D01*
X29854Y33896D01*
X29835Y33850D01*
Y31337D01*
X29804D01*
X29749Y31315D01*
X29707Y31273D01*
X29685Y31218D01*
Y31159D01*
X29707Y31104D01*
X29749Y31063D01*
X29804Y31040D01*
X29835D01*
Y29450D01*
X29300D01*
X28950Y29800D01*
Y30500D01*
X28550Y30900D01*
X26300D01*
X26150Y30750D01*
Y28300D01*
X26400Y28050D01*
X28300D01*
X29200Y28950D01*
X29835D01*
Y26850D01*
X29854Y26804D01*
X30004Y26654D01*
X30050Y26635D01*
X32723D01*
X35104Y24254D01*
X35150Y24235D01*
X39400D01*
Y23950D01*
X49338D01*
Y20712D01*
X10212D01*
X10212Y49888D01*
X14381D01*
X14400Y49842D01*
X13754Y49196D01*
X13735Y49150D01*
Y27100D01*
X13754Y27054D01*
X14454Y26354D01*
X14500Y26335D01*
X18200D01*
X18246Y26354D01*
X18265Y26400D01*
Y27000D01*
X18246Y27046D01*
X18200Y27065D01*
X15777D01*
X15415Y27427D01*
Y47973D01*
X15777Y48335D01*
X17212D01*
X17235Y48300D01*
Y48000D01*
X17254Y47954D01*
X17404Y47804D01*
X17450Y47785D01*
X20229D01*
X20235Y47788D01*
X20241Y47786D01*
X20257Y47797D01*
X20262Y47799D01*
X20299Y47763D01*
X20354Y47740D01*
X20413D01*
X20467Y47763D01*
X20504Y47799D01*
X20509Y47797D01*
X20525Y47786D01*
X20532Y47788D01*
X20538Y47785D01*
X30579D01*
X30585Y47788D01*
X30591Y47786D01*
X30607Y47797D01*
X30612Y47799D01*
X30649Y47763D01*
X30704Y47740D01*
X30763D01*
X30817Y47763D01*
X30854Y47799D01*
X30859Y47797D01*
X30875Y47786D01*
X30882Y47788D01*
X30888Y47785D01*
X33035D01*
X33047Y47780D01*
X33057Y47754D01*
X33099Y47713D01*
X33154Y47690D01*
X33213D01*
X33267Y47713D01*
X33309Y47754D01*
X33320Y47780D01*
X33332Y47785D01*
X34723D01*
X35085Y47423D01*
X35085Y38727D01*
X34873Y38515D01*
X24799D01*
Y38530D01*
X24776Y38584D01*
X24734Y38626D01*
X24680Y38649D01*
X24620D01*
X24566Y38626D01*
X24524Y38584D01*
X24501Y38530D01*
Y38515D01*
X21050D01*
X21004Y38496D01*
X20804Y38296D01*
X20785Y38250D01*
Y37929D01*
X20749Y37915D01*
X20707Y37873D01*
X20685Y37818D01*
Y37759D01*
X20707Y37704D01*
X20745Y37667D01*
X20747Y37639D01*
X20745Y37610D01*
X20707Y37573D01*
X20685Y37518D01*
Y37459D01*
X20707Y37404D01*
X20749Y37363D01*
X20804Y37340D01*
X20863D01*
X20867Y37342D01*
X21004Y37204D01*
X21050Y37185D01*
X23773D01*
X23835Y37123D01*
Y24100D01*
X23854Y24054D01*
X24904Y23004D01*
X24950Y22985D01*
X33773D01*
X35504Y21254D01*
X35550Y21235D01*
X40650D01*
X40696Y21254D01*
X40715Y21300D01*
Y22100D01*
X40696Y22146D01*
X40596Y22246D01*
X40550Y22265D01*
X36327D01*
X34246Y24346D01*
X34200Y24365D01*
X25627D01*
X25115Y24877D01*
Y37023D01*
X25227Y37135D01*
X34823D01*
X35085Y36873D01*
X35085Y35800D01*
X35104Y35754D01*
X36804Y34054D01*
X36850Y34035D01*
X37700D01*
X37746Y34054D01*
X37896Y34204D01*
X37915Y34250D01*
Y34750D01*
X37896Y34796D01*
X36265Y36427D01*
Y41625D01*
X36650D01*
Y42100D01*
Y42575D01*
X36265D01*
Y43436D01*
X36950D01*
X37032Y43452D01*
X37101Y43499D01*
X37148Y43568D01*
X37164Y43650D01*
X37148Y43732D01*
X37101Y43801D01*
X37032Y43848D01*
X36950Y43864D01*
X36265D01*
Y44307D01*
X36313Y44320D01*
X36320Y44308D01*
X36408Y44220D01*
X36517Y44157D01*
X36637Y44125D01*
X36650D01*
Y44600D01*
Y45075D01*
X36637D01*
X36517Y45043D01*
X36408Y44980D01*
X36320Y44892D01*
X36313Y44880D01*
X36265Y44893D01*
Y45925D01*
X36650D01*
Y46400D01*
Y46875D01*
X36265D01*
Y47523D01*
X36346Y47604D01*
X36365Y47650D01*
Y47886D01*
X36850D01*
X36932Y47902D01*
X37001Y47949D01*
X37048Y48018D01*
X37064Y48100D01*
X37048Y48182D01*
X37001Y48251D01*
X36951Y48285D01*
X36966Y48335D01*
X38323D01*
X39185Y47473D01*
Y45700D01*
X39204Y45654D01*
X39454Y45404D01*
X39500Y45385D01*
X43526Y45385D01*
X43551Y45347D01*
Y45288D01*
X43574Y45233D01*
X43616Y45192D01*
X43670Y45169D01*
X43730D01*
X43784Y45192D01*
X43826Y45233D01*
X43849Y45288D01*
Y45347D01*
X43874Y45385D01*
X44350D01*
X44396Y45404D01*
X44496Y45504D01*
X44515Y45550D01*
Y45870D01*
X44565Y45904D01*
X44570Y45901D01*
X44630D01*
X44684Y45924D01*
X44726Y45966D01*
X44749Y46020D01*
Y46080D01*
X44726Y46134D01*
X44684Y46176D01*
X44630Y46199D01*
X44570D01*
X44516Y46176D01*
X44474Y46134D01*
X44461Y46102D01*
X44405Y46087D01*
X44346Y46146D01*
X44300Y46165D01*
X41027D01*
X40415Y46777D01*
X40415Y48550D01*
X40396Y48596D01*
X39150Y49842D01*
X39169Y49888D01*
X49338D01*
X49338Y33700D01*
D02*
G37*
G36*
X36300Y48200D02*
Y47650D01*
X36200Y47550D01*
Y36400D01*
X37850Y34750D01*
Y34250D01*
X37700Y34100D01*
X36850D01*
X35150Y35800D01*
X35150Y36900D01*
X34850Y37200D01*
X25200D01*
X25050Y37050D01*
Y24850D01*
X25600Y24300D01*
X34200D01*
X36300Y22200D01*
X40550D01*
X40650Y22100D01*
Y21300D01*
X35550D01*
X33800Y23050D01*
X24950D01*
X23900Y24100D01*
Y37150D01*
X23800Y37250D01*
X21050D01*
X20850Y37450D01*
Y38250D01*
X21050Y38450D01*
X24510D01*
X24524Y38416D01*
X24566Y38374D01*
X24620Y38351D01*
X24680D01*
X24734Y38374D01*
X24776Y38416D01*
X24790Y38450D01*
X34900D01*
X35150Y38700D01*
X35150Y47450D01*
X34750Y47850D01*
X33332D01*
Y47868D01*
X33309Y47923D01*
X33267Y47965D01*
X33213Y47987D01*
X33154D01*
X33099Y47965D01*
X33057Y47923D01*
X33035Y47868D01*
Y47850D01*
X30888D01*
X30882Y47859D01*
Y47918D01*
X30859Y47973D01*
X30817Y48015D01*
X30763Y48037D01*
X30704D01*
X30649Y48015D01*
X30607Y47973D01*
X30585Y47918D01*
Y47859D01*
X30579Y47850D01*
X20538D01*
X20532Y47859D01*
Y47918D01*
X20509Y47973D01*
X20467Y48015D01*
X20413Y48037D01*
X20354D01*
X20299Y48015D01*
X20257Y47973D01*
X20235Y47918D01*
Y47859D01*
X20229Y47850D01*
X17450D01*
X17300Y48000D01*
Y48300D01*
X17400Y48400D01*
X36100D01*
X36300Y48200D01*
D02*
G37*
G36*
X33463Y33887D02*
Y33522D01*
X33535Y33450D01*
X35038D01*
Y32762D01*
X32763D01*
X32740Y32796D01*
X32691Y32829D01*
X32633Y32840D01*
X32575Y32829D01*
X32526Y32796D01*
X32504Y32762D01*
X31663D01*
X31640Y32796D01*
X31591Y32829D01*
X31533Y32840D01*
X31475Y32829D01*
X31426Y32796D01*
X31393Y32747D01*
X31382Y32689D01*
X31393Y32631D01*
X31426Y32581D01*
X31475Y32549D01*
X31533Y32537D01*
X31543Y32539D01*
X31550Y32538D01*
X32629D01*
X32633Y32537D01*
X32637Y32538D01*
X35038D01*
Y32154D01*
X35026Y32146D01*
X34993Y32097D01*
X34982Y32039D01*
X34993Y31981D01*
X35026Y31931D01*
X35038Y31924D01*
Y30954D01*
X35026Y30946D01*
X34993Y30897D01*
X34982Y30839D01*
X34993Y30781D01*
X35026Y30731D01*
X35038Y30724D01*
Y28550D01*
X35010Y28508D01*
X34999Y28450D01*
X35010Y28392D01*
X35043Y28343D01*
X35092Y28310D01*
X35141Y28300D01*
X35221Y28221D01*
X35257Y28196D01*
X35300Y28188D01*
X35300Y28188D01*
X37738D01*
Y26600D01*
X37710Y26558D01*
X37699Y26500D01*
X37710Y26442D01*
X37743Y26393D01*
X37792Y26360D01*
X37850Y26349D01*
X37908Y26360D01*
X37957Y26393D01*
X37990Y26442D01*
X38001Y26500D01*
X37990Y26558D01*
X37962Y26600D01*
Y28200D01*
X37990Y28242D01*
X38001Y28300D01*
X37990Y28358D01*
X37957Y28407D01*
X37908Y28440D01*
X37850Y28451D01*
X37792Y28440D01*
X37750Y28412D01*
X36588D01*
X36561Y28458D01*
X36561Y28462D01*
X36607Y28493D01*
X36640Y28542D01*
X36651Y28600D01*
X36640Y28658D01*
X36607Y28707D01*
X36558Y28740D01*
X36500Y28751D01*
X36442Y28740D01*
X36393Y28707D01*
X36360Y28658D01*
X36349Y28600D01*
X36360Y28542D01*
X36393Y28493D01*
X36439Y28462D01*
X36439Y28458D01*
X36412Y28412D01*
X35346D01*
X35300Y28459D01*
X35290Y28508D01*
X35262Y28550D01*
Y30764D01*
X35273Y30781D01*
X35285Y30839D01*
X35273Y30897D01*
X35262Y30913D01*
Y31964D01*
X35273Y31981D01*
X35285Y32039D01*
X35273Y32097D01*
X35262Y32113D01*
Y32650D01*
Y32898D01*
X35268Y32900D01*
X35500D01*
X36550Y31850D01*
Y31675D01*
X36725Y31500D01*
X38950D01*
X39400Y31050D01*
Y24300D01*
X35150D01*
X32750Y26700D01*
X30050D01*
X29900Y26850D01*
Y29050D01*
X29150D01*
X28250Y28150D01*
X26450D01*
X26250Y28350D01*
Y30700D01*
X26350Y30800D01*
X28475D01*
X28850Y30425D01*
Y29750D01*
X29250Y29350D01*
X29900D01*
Y29400D01*
Y31055D01*
X29940Y31081D01*
X29973Y31131D01*
X29985Y31189D01*
X29973Y31247D01*
X29940Y31296D01*
X29900Y31323D01*
Y33850D01*
X30050Y34000D01*
X33350D01*
X33463Y33887D01*
D02*
G37*
G36*
X49338Y24450D02*
X39900D01*
Y33200D01*
X49338D01*
X49338Y24450D01*
D02*
G37*
%LPC*%
G36*
X15963Y49287D02*
X15904D01*
X15849Y49265D01*
X15807Y49223D01*
X15785Y49168D01*
Y49109D01*
X15807Y49054D01*
X15849Y49013D01*
X15904Y48990D01*
X15963D01*
X16017Y49013D01*
X16059Y49054D01*
X16082Y49109D01*
Y49168D01*
X16059Y49223D01*
X16017Y49265D01*
X15963Y49287D01*
D02*
G37*
G36*
X30430Y49199D02*
X30370D01*
X30316Y49176D01*
X30274Y49134D01*
X30251Y49080D01*
Y49020D01*
X30274Y48966D01*
X30304Y48936D01*
X30301Y48891D01*
X30296Y48878D01*
X30291Y48876D01*
X30249Y48834D01*
X30226Y48780D01*
Y48720D01*
X30249Y48666D01*
X30291Y48624D01*
X30345Y48601D01*
X30404D01*
X30459Y48624D01*
X30501Y48666D01*
X30523Y48720D01*
Y48780D01*
X30501Y48834D01*
X30471Y48864D01*
X30473Y48909D01*
X30478Y48922D01*
X30484Y48924D01*
X30526Y48966D01*
X30549Y49020D01*
Y49080D01*
X30526Y49134D01*
X30484Y49176D01*
X30430Y49199D01*
D02*
G37*
G36*
X33213Y48887D02*
X33154D01*
X33099Y48865D01*
X33057Y48823D01*
X33035Y48768D01*
Y48709D01*
X33057Y48654D01*
X33099Y48613D01*
X33154Y48590D01*
X33213D01*
X33267Y48613D01*
X33309Y48654D01*
X33332Y48709D01*
Y48768D01*
X33309Y48823D01*
X33267Y48865D01*
X33213Y48887D01*
D02*
G37*
G36*
X38757Y49335D02*
X38643D01*
X38532Y49305D01*
X38433Y49248D01*
X38352Y49167D01*
X38295Y49068D01*
X38265Y48957D01*
Y48843D01*
X38295Y48732D01*
X38352Y48633D01*
X38433Y48552D01*
X38532Y48495D01*
X38643Y48465D01*
X38757D01*
X38868Y48495D01*
X38967Y48552D01*
X39048Y48633D01*
X39105Y48732D01*
X39135Y48843D01*
Y48957D01*
X39105Y49068D01*
X39048Y49167D01*
X38967Y49248D01*
X38868Y49305D01*
X38757Y49335D01*
D02*
G37*
G36*
X36757D02*
X36643D01*
X36532Y49305D01*
X36433Y49248D01*
X36352Y49167D01*
X36295Y49068D01*
X36265Y48957D01*
Y48843D01*
X36295Y48732D01*
X36352Y48633D01*
X36433Y48552D01*
X36532Y48495D01*
X36643Y48465D01*
X36757D01*
X36868Y48495D01*
X36967Y48552D01*
X37048Y48633D01*
X37105Y48732D01*
X37135Y48843D01*
Y48957D01*
X37105Y49068D01*
X37048Y49167D01*
X36967Y49248D01*
X36868Y49305D01*
X36757Y49335D01*
D02*
G37*
G36*
X45342Y49784D02*
Y49383D01*
X45622D01*
Y49461D01*
X45610Y49546D01*
X45578Y49626D01*
X45525Y49694D01*
X45457Y49746D01*
X45378Y49779D01*
X45342Y49784D01*
D02*
G37*
G36*
X42291Y49784D02*
Y49383D01*
X42570D01*
Y49461D01*
X42559Y49546D01*
X42526Y49626D01*
X42474Y49694D01*
X42406Y49746D01*
X42326Y49779D01*
X42291Y49784D01*
D02*
G37*
G36*
X42191Y49784D02*
X42156Y49779D01*
X42077Y49746D01*
X42009Y49694D01*
X41956Y49626D01*
X41923Y49546D01*
X41912Y49461D01*
Y49383D01*
X42191D01*
Y49784D01*
D02*
G37*
G36*
X45242Y49784D02*
X45207Y49779D01*
X45128Y49746D01*
X45060Y49694D01*
X45007Y49626D01*
X44974Y49546D01*
X44963Y49461D01*
Y49383D01*
X45242D01*
Y49784D01*
D02*
G37*
G36*
X45622Y49283D02*
X45342D01*
Y48883D01*
X45378Y48887D01*
X45457Y48920D01*
X45525Y48973D01*
X45578Y49041D01*
X45610Y49120D01*
X45622Y49205D01*
Y49283D01*
D02*
G37*
G36*
X42191D02*
X41912D01*
Y49205D01*
X41923Y49120D01*
X41956Y49041D01*
X42009Y48973D01*
X42077Y48920D01*
X42156Y48887D01*
X42191Y48883D01*
Y49283D01*
D02*
G37*
G36*
X42570D02*
X42291D01*
Y48883D01*
X42326Y48887D01*
X42406Y48920D01*
X42474Y48973D01*
X42526Y49041D01*
X42559Y49120D01*
X42570Y49205D01*
Y49283D01*
D02*
G37*
G36*
X45242D02*
X44963D01*
Y49205D01*
X44974Y49120D01*
X45007Y49041D01*
X45060Y48973D01*
X45128Y48920D01*
X45207Y48887D01*
X45242Y48883D01*
Y49283D01*
D02*
G37*
G36*
X11985Y49530D02*
X11215D01*
Y48761D01*
X11985D01*
Y49530D01*
D02*
G37*
G36*
X42826Y48468D02*
X42739D01*
X42659Y48435D01*
X42598Y48374D01*
X42565Y48294D01*
Y48285D01*
X42520Y48263D01*
X42495Y48282D01*
X42401Y48321D01*
X42350Y48328D01*
Y47887D01*
X42689D01*
Y47946D01*
X42682Y48003D01*
X42727Y48038D01*
X42739Y48033D01*
X42826D01*
X42906Y48066D01*
X42967Y48127D01*
X43000Y48207D01*
Y48294D01*
X42967Y48374D01*
X42906Y48435D01*
X42826Y48468D01*
D02*
G37*
G36*
X48224Y49550D02*
X48076D01*
X47931Y49521D01*
X47795Y49465D01*
X47672Y49383D01*
X47567Y49278D01*
X47485Y49155D01*
X47429Y49019D01*
X47400Y48874D01*
Y48726D01*
X47429Y48581D01*
X47485Y48445D01*
X47567Y48322D01*
X47672Y48217D01*
X47795Y48135D01*
X47931Y48079D01*
X48076Y48050D01*
X48224D01*
X48369Y48079D01*
X48505Y48135D01*
X48628Y48217D01*
X48733Y48322D01*
X48815Y48445D01*
X48871Y48581D01*
X48900Y48726D01*
Y48874D01*
X48871Y49019D01*
X48815Y49155D01*
X48733Y49278D01*
X48628Y49383D01*
X48505Y49465D01*
X48369Y49521D01*
X48224Y49550D01*
D02*
G37*
G36*
X45283Y48328D02*
Y47887D01*
X45622D01*
Y47946D01*
X45609Y48046D01*
X45570Y48140D01*
X45508Y48220D01*
X45428Y48282D01*
X45334Y48321D01*
X45283Y48328D01*
D02*
G37*
G36*
X42250D02*
X42200Y48321D01*
X42106Y48282D01*
X42025Y48220D01*
X41964Y48140D01*
X41925Y48046D01*
X41912Y47946D01*
Y47887D01*
X42250D01*
Y48328D01*
D02*
G37*
G36*
X44794Y48468D02*
X44708D01*
X44628Y48435D01*
X44567Y48374D01*
X44534Y48294D01*
Y48207D01*
X44567Y48127D01*
X44628Y48066D01*
X44708Y48033D01*
X44794D01*
X44806Y48038D01*
X44852Y48003D01*
X44845Y47946D01*
Y47887D01*
X45183D01*
Y48328D01*
X45133Y48321D01*
X45039Y48282D01*
X45013Y48263D01*
X44969Y48285D01*
Y48294D01*
X44935Y48374D01*
X44874Y48435D01*
X44794Y48468D01*
D02*
G37*
G36*
X31380Y47699D02*
X31320D01*
X31266Y47676D01*
X31224Y47634D01*
X31201Y47580D01*
Y47520D01*
X31224Y47466D01*
X31266Y47424D01*
X31320Y47401D01*
X31380D01*
X31434Y47424D01*
X31476Y47466D01*
X31499Y47520D01*
Y47580D01*
X31476Y47634D01*
X31434Y47676D01*
X31380Y47699D01*
D02*
G37*
G36*
X11651Y48153D02*
X11549D01*
X11451Y48126D01*
X11364Y48076D01*
X11292Y48004D01*
X11241Y47916D01*
X11215Y47818D01*
Y47717D01*
X11241Y47619D01*
X11292Y47531D01*
X11364Y47460D01*
X11451Y47409D01*
X11549Y47383D01*
X11651D01*
X11749Y47409D01*
X11836Y47460D01*
X11908Y47531D01*
X11959Y47619D01*
X11985Y47717D01*
Y47818D01*
X11959Y47916D01*
X11908Y48004D01*
X11836Y48076D01*
X11749Y48126D01*
X11651Y48153D01*
D02*
G37*
G36*
X45622Y47787D02*
X45283D01*
Y47347D01*
X45334Y47353D01*
X45428Y47392D01*
X45508Y47454D01*
X45570Y47535D01*
X45609Y47628D01*
X45622Y47729D01*
Y47787D01*
D02*
G37*
G36*
X42250D02*
X41912D01*
Y47729D01*
X41925Y47628D01*
X41964Y47535D01*
X42025Y47454D01*
X42106Y47392D01*
X42200Y47353D01*
X42250Y47347D01*
Y47787D01*
D02*
G37*
G36*
X42689D02*
X42350D01*
Y47347D01*
X42401Y47353D01*
X42495Y47392D01*
X42575Y47454D01*
X42637Y47535D01*
X42676Y47628D01*
X42689Y47729D01*
Y47787D01*
D02*
G37*
G36*
X45183D02*
X44845D01*
Y47729D01*
X44858Y47628D01*
X44897Y47535D01*
X44959Y47454D01*
X45039Y47392D01*
X45133Y47353D01*
X45183Y47347D01*
Y47787D01*
D02*
G37*
G36*
X44630Y47049D02*
X44570D01*
X44516Y47026D01*
X44474Y46984D01*
X44451Y46930D01*
Y46870D01*
X44474Y46816D01*
X44516Y46774D01*
X44570Y46751D01*
X44630D01*
X44684Y46774D01*
X44726Y46816D01*
X44749Y46870D01*
Y46930D01*
X44726Y46984D01*
X44684Y47026D01*
X44630Y47049D01*
D02*
G37*
G36*
X48963Y46887D02*
X48904D01*
X48849Y46865D01*
X48807Y46823D01*
X48785Y46768D01*
Y46709D01*
X48807Y46654D01*
X48849Y46613D01*
X48904Y46590D01*
X48963D01*
X49017Y46613D01*
X49059Y46654D01*
X49082Y46709D01*
Y46768D01*
X49059Y46823D01*
X49017Y46865D01*
X48963Y46887D01*
D02*
G37*
G36*
X37175Y46875D02*
X36750D01*
Y46450D01*
X37175D01*
Y46875D01*
D02*
G37*
G36*
X44846Y46478D02*
X44787D01*
X44733Y46455D01*
X44691Y46413D01*
X44668Y46359D01*
Y46299D01*
X44691Y46245D01*
X44733Y46203D01*
X44787Y46180D01*
X44846D01*
X44901Y46203D01*
X44943Y46245D01*
X44965Y46299D01*
Y46359D01*
X44943Y46413D01*
X44901Y46455D01*
X44846Y46478D01*
D02*
G37*
G36*
X11651Y46775D02*
X11549D01*
X11451Y46748D01*
X11364Y46698D01*
X11292Y46626D01*
X11241Y46538D01*
X11215Y46440D01*
Y46339D01*
X11241Y46241D01*
X11292Y46153D01*
X11364Y46082D01*
X11451Y46031D01*
X11549Y46005D01*
X11651D01*
X11749Y46031D01*
X11836Y46082D01*
X11908Y46153D01*
X11959Y46241D01*
X11985Y46339D01*
Y46440D01*
X11959Y46538D01*
X11908Y46626D01*
X11836Y46698D01*
X11749Y46748D01*
X11651Y46775D01*
D02*
G37*
G36*
X38757Y46835D02*
X38643D01*
X38532Y46805D01*
X38433Y46748D01*
X38352Y46667D01*
X38295Y46568D01*
X38265Y46457D01*
Y46343D01*
X38295Y46232D01*
X38352Y46133D01*
X38433Y46052D01*
X38532Y45995D01*
X38643Y45965D01*
X38757D01*
X38868Y45995D01*
X38967Y46052D01*
X39048Y46133D01*
X39105Y46232D01*
X39135Y46343D01*
Y46457D01*
X39105Y46568D01*
X39048Y46667D01*
X38967Y46748D01*
X38868Y46805D01*
X38757Y46835D01*
D02*
G37*
G36*
X37175Y46350D02*
X36750D01*
Y45925D01*
X37175D01*
Y46350D01*
D02*
G37*
G36*
X46005Y45513D02*
X45946D01*
X45891Y45491D01*
X45849Y45449D01*
X45827Y45394D01*
Y45335D01*
X45849Y45280D01*
X45891Y45239D01*
X45946Y45216D01*
X46005D01*
X46059Y45239D01*
X46101Y45280D01*
X46124Y45335D01*
Y45394D01*
X46101Y45449D01*
X46059Y45491D01*
X46005Y45513D01*
D02*
G37*
G36*
X46930Y45416D02*
X46870D01*
X46816Y45394D01*
X46774Y45352D01*
X46751Y45297D01*
Y45238D01*
X46774Y45183D01*
X46816Y45142D01*
X46870Y45119D01*
X46930D01*
X46984Y45142D01*
X47026Y45183D01*
X47049Y45238D01*
Y45297D01*
X47026Y45352D01*
X46984Y45394D01*
X46930Y45416D01*
D02*
G37*
G36*
X48963Y45337D02*
X48904D01*
X48849Y45315D01*
X48807Y45273D01*
X48785Y45218D01*
Y45159D01*
X48807Y45104D01*
X48849Y45063D01*
X48904Y45040D01*
X48963D01*
X49017Y45063D01*
X49059Y45104D01*
X49082Y45159D01*
Y45218D01*
X49059Y45273D01*
X49017Y45315D01*
X48963Y45337D01*
D02*
G37*
G36*
X42530Y45329D02*
X42470D01*
X42416Y45306D01*
X42374Y45264D01*
X42351Y45210D01*
Y45151D01*
X42374Y45096D01*
X42416Y45054D01*
X42470Y45032D01*
X42530D01*
X42584Y45054D01*
X42626Y45096D01*
X42649Y45151D01*
Y45210D01*
X42626Y45264D01*
X42584Y45306D01*
X42530Y45329D01*
D02*
G37*
G36*
X46480Y45066D02*
X46420D01*
X46366Y45044D01*
X46324Y45002D01*
X46301Y44947D01*
Y44888D01*
X46324Y44833D01*
X46366Y44792D01*
X46420Y44769D01*
X46480D01*
X46534Y44792D01*
X46576Y44833D01*
X46599Y44888D01*
Y44947D01*
X46576Y45002D01*
X46534Y45044D01*
X46480Y45066D01*
D02*
G37*
G36*
X31380Y45049D02*
X31320D01*
X31266Y45026D01*
X31224Y44984D01*
X31201Y44930D01*
Y44870D01*
X31224Y44816D01*
X31266Y44774D01*
X31320Y44751D01*
X31380D01*
X31434Y44774D01*
X31476Y44816D01*
X31499Y44870D01*
Y44930D01*
X31476Y44984D01*
X31434Y45026D01*
X31380Y45049D01*
D02*
G37*
G36*
X36763Y45075D02*
X36750D01*
Y44650D01*
X37175D01*
Y44663D01*
X37143Y44783D01*
X37080Y44892D01*
X36992Y44980D01*
X36883Y45043D01*
X36763Y45075D01*
D02*
G37*
G36*
X11651Y45397D02*
X11549D01*
X11451Y45370D01*
X11364Y45320D01*
X11292Y45248D01*
X11241Y45160D01*
X11215Y45062D01*
Y44961D01*
X11241Y44863D01*
X11292Y44776D01*
X11364Y44704D01*
X11451Y44653D01*
X11549Y44627D01*
X11651D01*
X11749Y44653D01*
X11836Y44704D01*
X11908Y44776D01*
X11959Y44863D01*
X11985Y44961D01*
Y45062D01*
X11959Y45160D01*
X11908Y45248D01*
X11836Y45320D01*
X11749Y45370D01*
X11651Y45397D01*
D02*
G37*
G36*
X40780Y44716D02*
X40720D01*
X40666Y44694D01*
X40624Y44652D01*
X40601Y44597D01*
Y44538D01*
X40624Y44483D01*
X40666Y44442D01*
X40720Y44419D01*
X40780D01*
X40834Y44442D01*
X40876Y44483D01*
X40899Y44538D01*
Y44597D01*
X40876Y44652D01*
X40834Y44694D01*
X40780Y44716D01*
D02*
G37*
G36*
X42580Y44699D02*
X42520D01*
X42466Y44676D01*
X42424Y44634D01*
X42401Y44580D01*
Y44520D01*
X42424Y44466D01*
X42466Y44424D01*
X42520Y44401D01*
X42580D01*
X42634Y44424D01*
X42676Y44466D01*
X42699Y44520D01*
Y44580D01*
X42676Y44634D01*
X42634Y44676D01*
X42580Y44699D01*
D02*
G37*
G36*
X38757Y45035D02*
X38643D01*
X38532Y45005D01*
X38433Y44948D01*
X38352Y44867D01*
X38295Y44768D01*
X38265Y44657D01*
Y44543D01*
X38295Y44432D01*
X38352Y44333D01*
X38433Y44252D01*
X38532Y44195D01*
X38643Y44165D01*
X38757D01*
X38868Y44195D01*
X38967Y44252D01*
X39048Y44333D01*
X39105Y44432D01*
X39135Y44543D01*
Y44657D01*
X39105Y44768D01*
X39048Y44867D01*
X38967Y44948D01*
X38868Y45005D01*
X38757Y45035D01*
D02*
G37*
G36*
X37175Y44550D02*
X36750D01*
Y44125D01*
X36763D01*
X36883Y44157D01*
X36992Y44220D01*
X37080Y44308D01*
X37143Y44417D01*
X37175Y44537D01*
Y44550D01*
D02*
G37*
G36*
X45380Y44316D02*
X45320D01*
X45266Y44294D01*
X45224Y44252D01*
X45201Y44197D01*
Y44138D01*
X45224Y44083D01*
X45266Y44042D01*
X45320Y44019D01*
X45380D01*
X45434Y44042D01*
X45476Y44083D01*
X45499Y44138D01*
Y44197D01*
X45476Y44252D01*
X45434Y44294D01*
X45380Y44316D01*
D02*
G37*
G36*
X45680Y44116D02*
X45620D01*
X45566Y44094D01*
X45524Y44052D01*
X45501Y43997D01*
Y43938D01*
X45524Y43883D01*
X45566Y43842D01*
X45620Y43819D01*
X45680D01*
X45734Y43842D01*
X45776Y43883D01*
X45799Y43938D01*
Y43997D01*
X45776Y44052D01*
X45734Y44094D01*
X45680Y44116D01*
D02*
G37*
G36*
X46930Y44016D02*
X46870D01*
X46816Y43994D01*
X46774Y43952D01*
X46751Y43897D01*
Y43838D01*
X46774Y43783D01*
X46816Y43742D01*
X46870Y43719D01*
X46930D01*
X46984Y43742D01*
X47026Y43783D01*
X47049Y43838D01*
Y43897D01*
X47026Y43952D01*
X46984Y43994D01*
X46930Y44016D01*
D02*
G37*
G36*
X46008Y43927D02*
X45949D01*
X45894Y43904D01*
X45852Y43863D01*
X45830Y43808D01*
Y43749D01*
X45852Y43694D01*
X45894Y43652D01*
X45949Y43630D01*
X46008D01*
X46062Y43652D01*
X46104Y43694D01*
X46127Y43749D01*
Y43808D01*
X46104Y43863D01*
X46062Y43904D01*
X46008Y43927D01*
D02*
G37*
G36*
X11651Y44019D02*
X11549D01*
X11451Y43992D01*
X11364Y43942D01*
X11292Y43870D01*
X11241Y43782D01*
X11215Y43685D01*
Y43583D01*
X11241Y43485D01*
X11292Y43398D01*
X11364Y43326D01*
X11451Y43275D01*
X11549Y43249D01*
X11651D01*
X11749Y43275D01*
X11836Y43326D01*
X11908Y43398D01*
X11959Y43485D01*
X11985Y43583D01*
Y43685D01*
X11959Y43782D01*
X11908Y43870D01*
X11836Y43942D01*
X11749Y43992D01*
X11651Y44019D01*
D02*
G37*
G36*
X46480Y43516D02*
X46420D01*
X46366Y43494D01*
X46324Y43452D01*
X46301Y43397D01*
Y43338D01*
X46324Y43283D01*
X46366Y43242D01*
X46420Y43219D01*
X46480D01*
X46534Y43242D01*
X46576Y43283D01*
X46599Y43338D01*
Y43397D01*
X46576Y43452D01*
X46534Y43494D01*
X46480Y43516D01*
D02*
G37*
G36*
X45363Y43487D02*
X45304D01*
X45249Y43465D01*
X45207Y43423D01*
X45185Y43368D01*
Y43309D01*
X45207Y43254D01*
X45249Y43213D01*
X45304Y43190D01*
X45363D01*
X45417Y43213D01*
X45459Y43254D01*
X45482Y43309D01*
Y43368D01*
X45459Y43423D01*
X45417Y43465D01*
X45363Y43487D01*
D02*
G37*
G36*
X42580Y43466D02*
X42520D01*
X42466Y43444D01*
X42424Y43402D01*
X42401Y43347D01*
Y43288D01*
X42424Y43233D01*
X42466Y43192D01*
X42520Y43169D01*
X42580D01*
X42634Y43192D01*
X42676Y43233D01*
X42699Y43288D01*
Y43347D01*
X42676Y43402D01*
X42634Y43444D01*
X42580Y43466D01*
D02*
G37*
G36*
X29713Y43287D02*
X29654D01*
X29599Y43265D01*
X29557Y43223D01*
X29535Y43168D01*
Y43109D01*
X29557Y43054D01*
X29599Y43013D01*
X29654Y42990D01*
X29713D01*
X29767Y43013D01*
X29809Y43054D01*
X29832Y43109D01*
Y43168D01*
X29809Y43223D01*
X29767Y43265D01*
X29713Y43287D01*
D02*
G37*
G36*
X45663Y43087D02*
X45604D01*
X45549Y43065D01*
X45507Y43023D01*
X45485Y42968D01*
Y42909D01*
X45507Y42854D01*
X45549Y42813D01*
X45604Y42790D01*
X45663D01*
X45717Y42813D01*
X45759Y42854D01*
X45782Y42909D01*
Y42968D01*
X45759Y43023D01*
X45717Y43065D01*
X45663Y43087D01*
D02*
G37*
G36*
X37175Y42575D02*
X36750D01*
Y42150D01*
X37175D01*
Y42575D01*
D02*
G37*
G36*
X11651Y42641D02*
X11549D01*
X11451Y42614D01*
X11364Y42564D01*
X11292Y42492D01*
X11241Y42404D01*
X11215Y42307D01*
Y42205D01*
X11241Y42107D01*
X11292Y42020D01*
X11364Y41948D01*
X11451Y41897D01*
X11549Y41871D01*
X11651D01*
X11749Y41897D01*
X11836Y41948D01*
X11908Y42020D01*
X11959Y42107D01*
X11985Y42205D01*
Y42307D01*
X11959Y42404D01*
X11908Y42492D01*
X11836Y42564D01*
X11749Y42614D01*
X11651Y42641D01*
D02*
G37*
G36*
X29813Y42162D02*
X29754D01*
X29699Y42140D01*
X29657Y42098D01*
X29635Y42043D01*
Y41984D01*
X29657Y41929D01*
X29699Y41888D01*
X29754Y41865D01*
X29813D01*
X29867Y41888D01*
X29909Y41929D01*
X29932Y41984D01*
Y42043D01*
X29909Y42098D01*
X29867Y42140D01*
X29813Y42162D01*
D02*
G37*
G36*
X38757Y42535D02*
X38643D01*
X38532Y42505D01*
X38433Y42448D01*
X38352Y42367D01*
X38295Y42268D01*
X38265Y42157D01*
Y42043D01*
X38295Y41932D01*
X38352Y41833D01*
X38433Y41752D01*
X38532Y41695D01*
X38643Y41665D01*
X38757D01*
X38868Y41695D01*
X38967Y41752D01*
X39048Y41833D01*
X39105Y41932D01*
X39135Y42043D01*
Y42157D01*
X39105Y42268D01*
X39048Y42367D01*
X38967Y42448D01*
X38868Y42505D01*
X38757Y42535D01*
D02*
G37*
G36*
X37175Y42050D02*
X36750D01*
Y41625D01*
X37175D01*
Y42050D01*
D02*
G37*
G36*
X30730Y41449D02*
X30670D01*
X30616Y41426D01*
X30574Y41384D01*
X30551Y41330D01*
Y41270D01*
X30574Y41216D01*
X30616Y41174D01*
X30670Y41151D01*
X30730D01*
X30784Y41174D01*
X30826Y41216D01*
X30849Y41270D01*
Y41330D01*
X30826Y41384D01*
X30784Y41426D01*
X30730Y41449D01*
D02*
G37*
G36*
X29080D02*
X29020D01*
X28966Y41426D01*
X28924Y41384D01*
X28901Y41330D01*
Y41270D01*
X28924Y41216D01*
X28966Y41174D01*
X29020Y41151D01*
X29080D01*
X29134Y41174D01*
X29176Y41216D01*
X29199Y41270D01*
Y41330D01*
X29176Y41384D01*
X29134Y41426D01*
X29080Y41449D01*
D02*
G37*
G36*
X11651Y41263D02*
X11549D01*
X11451Y41237D01*
X11364Y41186D01*
X11292Y41114D01*
X11241Y41026D01*
X11215Y40929D01*
Y40827D01*
X11241Y40729D01*
X11292Y40642D01*
X11364Y40570D01*
X11451Y40519D01*
X11549Y40493D01*
X11651D01*
X11749Y40519D01*
X11836Y40570D01*
X11908Y40642D01*
X11959Y40729D01*
X11985Y40827D01*
Y40929D01*
X11959Y41026D01*
X11908Y41114D01*
X11836Y41186D01*
X11749Y41237D01*
X11651Y41263D01*
D02*
G37*
G36*
X48339Y41189D02*
X47629D01*
Y40479D01*
X48339D01*
Y41189D01*
D02*
G37*
G36*
X43711Y40265D02*
X43652D01*
X43597Y40243D01*
X43555Y40201D01*
X43533Y40146D01*
Y40087D01*
X43555Y40033D01*
X43597Y39991D01*
X43652Y39968D01*
X43711D01*
X43766Y39991D01*
X43807Y40033D01*
X43830Y40087D01*
Y40146D01*
X43807Y40201D01*
X43766Y40243D01*
X43711Y40265D01*
D02*
G37*
G36*
X48031Y40189D02*
X47937D01*
X47847Y40165D01*
X47766Y40118D01*
X47700Y40052D01*
X47653Y39971D01*
X47629Y39881D01*
Y39787D01*
X47653Y39697D01*
X47700Y39616D01*
X47766Y39550D01*
X47847Y39503D01*
X47937Y39479D01*
X48031D01*
X48121Y39503D01*
X48202Y39550D01*
X48268Y39616D01*
X48315Y39697D01*
X48339Y39787D01*
Y39881D01*
X48315Y39971D01*
X48268Y40052D01*
X48202Y40118D01*
X48121Y40165D01*
X48031Y40189D01*
D02*
G37*
G36*
X24063Y39737D02*
X24004D01*
X23949Y39715D01*
X23907Y39673D01*
X23885Y39618D01*
Y39559D01*
X23907Y39504D01*
X23949Y39463D01*
X24004Y39440D01*
X24063D01*
X24117Y39463D01*
X24159Y39504D01*
X24182Y39559D01*
Y39618D01*
X24159Y39673D01*
X24117Y39715D01*
X24063Y39737D01*
D02*
G37*
G36*
X11651Y39885D02*
X11549D01*
X11451Y39859D01*
X11364Y39808D01*
X11292Y39736D01*
X11241Y39649D01*
X11215Y39551D01*
Y39449D01*
X11241Y39351D01*
X11292Y39264D01*
X11364Y39192D01*
X11451Y39141D01*
X11549Y39115D01*
X11651D01*
X11749Y39141D01*
X11836Y39192D01*
X11908Y39264D01*
X11959Y39351D01*
X11985Y39449D01*
Y39551D01*
X11959Y39649D01*
X11908Y39736D01*
X11836Y39808D01*
X11749Y39859D01*
X11651Y39885D01*
D02*
G37*
G36*
X43715Y38521D02*
X43656D01*
X43601Y38499D01*
X43559Y38457D01*
X43537Y38402D01*
Y38343D01*
X43559Y38289D01*
X43601Y38247D01*
X43656Y38224D01*
X43715D01*
X43770Y38247D01*
X43811Y38289D01*
X43834Y38343D01*
Y38402D01*
X43811Y38457D01*
X43770Y38499D01*
X43715Y38521D01*
D02*
G37*
G36*
X48339Y38789D02*
X47629D01*
Y38079D01*
X48339D01*
Y38789D01*
D02*
G37*
G36*
X11651Y38507D02*
X11549D01*
X11451Y38481D01*
X11364Y38430D01*
X11292Y38358D01*
X11241Y38271D01*
X11215Y38173D01*
Y38071D01*
X11241Y37974D01*
X11292Y37886D01*
X11364Y37814D01*
X11451Y37763D01*
X11549Y37737D01*
X11651D01*
X11749Y37763D01*
X11836Y37814D01*
X11908Y37886D01*
X11959Y37974D01*
X11985Y38071D01*
Y38173D01*
X11959Y38271D01*
X11908Y38358D01*
X11836Y38430D01*
X11749Y38481D01*
X11651Y38507D01*
D02*
G37*
G36*
X48031Y37789D02*
X47937D01*
X47847Y37765D01*
X47766Y37718D01*
X47700Y37652D01*
X47653Y37571D01*
X47629Y37481D01*
Y37387D01*
X47653Y37297D01*
X47700Y37216D01*
X47766Y37150D01*
X47847Y37103D01*
X47937Y37079D01*
X48031D01*
X48121Y37103D01*
X48202Y37150D01*
X48268Y37216D01*
X48315Y37297D01*
X48339Y37387D01*
Y37481D01*
X48315Y37571D01*
X48268Y37652D01*
X48202Y37718D01*
X48121Y37765D01*
X48031Y37789D01*
D02*
G37*
G36*
X11651Y37129D02*
X11549D01*
X11451Y37103D01*
X11364Y37052D01*
X11292Y36980D01*
X11241Y36893D01*
X11215Y36795D01*
Y36693D01*
X11241Y36596D01*
X11292Y36508D01*
X11364Y36436D01*
X11451Y36386D01*
X11549Y36359D01*
X11651D01*
X11749Y36386D01*
X11836Y36436D01*
X11908Y36508D01*
X11959Y36596D01*
X11985Y36693D01*
Y36795D01*
X11959Y36893D01*
X11908Y36980D01*
X11836Y37052D01*
X11749Y37103D01*
X11651Y37129D01*
D02*
G37*
G36*
X13013Y35487D02*
X12954D01*
X12899Y35465D01*
X12857Y35423D01*
X12835Y35368D01*
Y35309D01*
X12857Y35254D01*
X12899Y35213D01*
X12954Y35190D01*
X13013D01*
X13067Y35213D01*
X13109Y35254D01*
X13132Y35309D01*
Y35368D01*
X13109Y35423D01*
X13067Y35465D01*
X13013Y35487D01*
D02*
G37*
G36*
X18050Y37300D02*
X15750D01*
Y34800D01*
X18050D01*
Y37300D01*
D02*
G37*
G36*
X11963Y34587D02*
X11904D01*
X11849Y34565D01*
X11807Y34523D01*
X11785Y34468D01*
Y34409D01*
X11807Y34354D01*
X11849Y34313D01*
X11904Y34290D01*
X11963D01*
X12017Y34313D01*
X12059Y34354D01*
X12082Y34409D01*
Y34468D01*
X12059Y34523D01*
X12017Y34565D01*
X11963Y34587D01*
D02*
G37*
G36*
X19613Y33237D02*
X19554D01*
X19499Y33215D01*
X19457Y33173D01*
X19435Y33118D01*
Y33059D01*
X19457Y33004D01*
X19499Y32963D01*
X19554Y32940D01*
X19613D01*
X19667Y32963D01*
X19709Y33004D01*
X19732Y33059D01*
Y33118D01*
X19709Y33173D01*
X19667Y33215D01*
X19613Y33237D01*
D02*
G37*
G36*
X12000Y33000D02*
Y32750D01*
X12250D01*
X12246Y32764D01*
X12190Y32861D01*
X12111Y32940D01*
X12014Y32996D01*
X12000Y33000D01*
D02*
G37*
G36*
X11700D02*
X11686Y32996D01*
X11589Y32940D01*
X11510Y32861D01*
X11454Y32764D01*
X11450Y32750D01*
X11700D01*
Y33000D01*
D02*
G37*
G36*
X36313Y32787D02*
X36254D01*
X36199Y32765D01*
X36157Y32723D01*
X36135Y32668D01*
Y32609D01*
X36157Y32554D01*
X36199Y32513D01*
X36254Y32490D01*
X36313D01*
X36367Y32513D01*
X36409Y32554D01*
X36432Y32609D01*
Y32668D01*
X36409Y32723D01*
X36367Y32765D01*
X36313Y32787D01*
D02*
G37*
G36*
X10901Y32985D02*
X10799D01*
X10701Y32959D01*
X10614Y32908D01*
X10542Y32836D01*
X10491Y32749D01*
X10465Y32651D01*
Y32549D01*
X10491Y32451D01*
X10542Y32364D01*
X10614Y32292D01*
X10701Y32241D01*
X10799Y32215D01*
X10901D01*
X10999Y32241D01*
X11086Y32292D01*
X11158Y32364D01*
X11209Y32451D01*
X11235Y32549D01*
Y32651D01*
X11209Y32749D01*
X11158Y32836D01*
X11086Y32908D01*
X10999Y32959D01*
X10901Y32985D01*
D02*
G37*
G36*
X12250Y32450D02*
X12000D01*
Y32200D01*
X12014Y32204D01*
X12111Y32260D01*
X12190Y32339D01*
X12246Y32436D01*
X12250Y32450D01*
D02*
G37*
G36*
X11700D02*
X11450D01*
X11454Y32436D01*
X11510Y32339D01*
X11589Y32260D01*
X11686Y32204D01*
X11700Y32200D01*
Y32450D01*
D02*
G37*
G36*
X22000Y33850D02*
X19900D01*
Y31950D01*
X22000D01*
Y33850D01*
D02*
G37*
G36*
X12000Y32000D02*
Y31750D01*
X12250D01*
X12246Y31764D01*
X12190Y31861D01*
X12111Y31940D01*
X12014Y31996D01*
X12000Y32000D01*
D02*
G37*
G36*
X11700D02*
X11686Y31996D01*
X11589Y31940D01*
X11510Y31861D01*
X11454Y31764D01*
X11450Y31750D01*
X11700D01*
Y32000D01*
D02*
G37*
G36*
X11235Y31985D02*
X10465D01*
Y31215D01*
X11235D01*
Y31985D01*
D02*
G37*
G36*
X12250Y31450D02*
X12000D01*
Y31200D01*
X12014Y31204D01*
X12111Y31260D01*
X12190Y31339D01*
X12246Y31436D01*
X12250Y31450D01*
D02*
G37*
G36*
X11700D02*
X11450D01*
X11454Y31436D01*
X11510Y31339D01*
X11589Y31260D01*
X11686Y31204D01*
X11700Y31200D01*
Y31450D01*
D02*
G37*
G36*
X29413Y31337D02*
X29354D01*
X29299Y31315D01*
X29257Y31273D01*
X29235Y31218D01*
Y31159D01*
X29257Y31104D01*
X29299Y31063D01*
X29354Y31040D01*
X29413D01*
X29467Y31063D01*
X29509Y31104D01*
X29532Y31159D01*
Y31218D01*
X29509Y31273D01*
X29467Y31315D01*
X29413Y31337D01*
D02*
G37*
G36*
X12000Y29750D02*
Y29500D01*
X12250D01*
X12246Y29514D01*
X12190Y29611D01*
X12111Y29690D01*
X12014Y29746D01*
X12000Y29750D01*
D02*
G37*
G36*
X11000D02*
Y29500D01*
X11250D01*
X11246Y29514D01*
X11190Y29611D01*
X11111Y29690D01*
X11014Y29746D01*
X11000Y29750D01*
D02*
G37*
G36*
X11700D02*
X11686Y29746D01*
X11589Y29690D01*
X11510Y29611D01*
X11454Y29514D01*
X11450Y29500D01*
X11700D01*
Y29750D01*
D02*
G37*
G36*
X10700D02*
X10686Y29746D01*
X10589Y29690D01*
X10510Y29611D01*
X10454Y29514D01*
X10450Y29500D01*
X10700D01*
Y29750D01*
D02*
G37*
G36*
X12250Y29200D02*
X12000D01*
Y28950D01*
X12014Y28954D01*
X12111Y29010D01*
X12190Y29089D01*
X12246Y29186D01*
X12250Y29200D01*
D02*
G37*
G36*
X11250D02*
X11000D01*
Y28950D01*
X11014Y28954D01*
X11111Y29010D01*
X11190Y29089D01*
X11246Y29186D01*
X11250Y29200D01*
D02*
G37*
G36*
X11700D02*
X11450D01*
X11454Y29186D01*
X11510Y29089D01*
X11589Y29010D01*
X11686Y28954D01*
X11700Y28950D01*
Y29200D01*
D02*
G37*
G36*
X10700D02*
X10450D01*
X10454Y29186D01*
X10510Y29089D01*
X10589Y29010D01*
X10686Y28954D01*
X10700Y28950D01*
Y29200D01*
D02*
G37*
G36*
X12000Y28750D02*
Y28500D01*
X12250D01*
X12246Y28514D01*
X12190Y28611D01*
X12111Y28690D01*
X12014Y28746D01*
X12000Y28750D01*
D02*
G37*
G36*
X11000D02*
Y28500D01*
X11250D01*
X11246Y28514D01*
X11190Y28611D01*
X11111Y28690D01*
X11014Y28746D01*
X11000Y28750D01*
D02*
G37*
G36*
X11700D02*
X11686Y28746D01*
X11589Y28690D01*
X11510Y28611D01*
X11454Y28514D01*
X11450Y28500D01*
X11700D01*
Y28750D01*
D02*
G37*
G36*
X10700D02*
X10686Y28746D01*
X10589Y28690D01*
X10510Y28611D01*
X10454Y28514D01*
X10450Y28500D01*
X10700D01*
Y28750D01*
D02*
G37*
G36*
X12250Y28200D02*
X12000D01*
Y27950D01*
X12014Y27954D01*
X12111Y28010D01*
X12190Y28089D01*
X12246Y28186D01*
X12250Y28200D01*
D02*
G37*
G36*
X11250D02*
X11000D01*
Y27950D01*
X11014Y27954D01*
X11111Y28010D01*
X11190Y28089D01*
X11246Y28186D01*
X11250Y28200D01*
D02*
G37*
G36*
X11700D02*
X11450D01*
X11454Y28186D01*
X11510Y28089D01*
X11589Y28010D01*
X11686Y27954D01*
X11700Y27950D01*
Y28200D01*
D02*
G37*
G36*
X10700D02*
X10450D01*
X10454Y28186D01*
X10510Y28089D01*
X10589Y28010D01*
X10686Y27954D01*
X10700Y27950D01*
Y28200D01*
D02*
G37*
G36*
X17813Y28237D02*
X17754D01*
X17699Y28215D01*
X17657Y28173D01*
X17635Y28118D01*
Y28059D01*
X17657Y28004D01*
X17699Y27963D01*
X17754Y27940D01*
X17813D01*
X17867Y27963D01*
X17909Y28004D01*
X17932Y28059D01*
Y28118D01*
X17909Y28173D01*
X17867Y28215D01*
X17813Y28237D01*
D02*
G37*
G36*
X11901Y27735D02*
X11799D01*
X11701Y27709D01*
X11614Y27658D01*
X11542Y27586D01*
X11491Y27499D01*
X11465Y27401D01*
Y27299D01*
X11491Y27201D01*
X11542Y27114D01*
X11614Y27042D01*
X11701Y26991D01*
X11799Y26965D01*
X11901D01*
X11999Y26991D01*
X12086Y27042D01*
X12158Y27114D01*
X12209Y27201D01*
X12235Y27299D01*
Y27401D01*
X12209Y27499D01*
X12158Y27586D01*
X12086Y27658D01*
X11999Y27709D01*
X11901Y27735D01*
D02*
G37*
G36*
X10901D02*
X10799D01*
X10701Y27709D01*
X10614Y27658D01*
X10542Y27586D01*
X10491Y27499D01*
X10465Y27401D01*
Y27299D01*
X10491Y27201D01*
X10542Y27114D01*
X10614Y27042D01*
X10701Y26991D01*
X10799Y26965D01*
X10901D01*
X10999Y26991D01*
X11086Y27042D01*
X11158Y27114D01*
X11209Y27201D01*
X11235Y27299D01*
Y27401D01*
X11209Y27499D01*
X11158Y27586D01*
X11086Y27658D01*
X10999Y27709D01*
X10901Y27735D01*
D02*
G37*
G36*
X11901Y26735D02*
X11799D01*
X11701Y26709D01*
X11614Y26658D01*
X11542Y26586D01*
X11491Y26499D01*
X11465Y26401D01*
Y26299D01*
X11491Y26201D01*
X11542Y26114D01*
X11614Y26042D01*
X11701Y25991D01*
X11799Y25965D01*
X11901D01*
X11999Y25991D01*
X12086Y26042D01*
X12158Y26114D01*
X12209Y26201D01*
X12235Y26299D01*
Y26401D01*
X12209Y26499D01*
X12158Y26586D01*
X12086Y26658D01*
X11999Y26709D01*
X11901Y26735D01*
D02*
G37*
G36*
X11235D02*
X10465D01*
Y25965D01*
X11235D01*
Y26735D01*
D02*
G37*
G36*
X17830Y25249D02*
X17770D01*
X17716Y25226D01*
X17674Y25184D01*
X17651Y25130D01*
Y25070D01*
X17674Y25016D01*
X17716Y24974D01*
X17770Y24951D01*
X17830D01*
X17884Y24974D01*
X17926Y25016D01*
X17949Y25070D01*
Y25130D01*
X17926Y25184D01*
X17884Y25226D01*
X17830Y25249D01*
D02*
G37*
G36*
X31013Y25187D02*
X30954D01*
X30899Y25165D01*
X30857Y25123D01*
X30835Y25068D01*
Y25009D01*
X30857Y24954D01*
X30899Y24913D01*
X30954Y24890D01*
X31013D01*
X31067Y24913D01*
X31109Y24954D01*
X31132Y25009D01*
Y25068D01*
X31109Y25123D01*
X31067Y25165D01*
X31013Y25187D01*
D02*
G37*
G36*
X17330Y25099D02*
X17270D01*
X17216Y25076D01*
X17174Y25034D01*
X17151Y24980D01*
Y24920D01*
X17174Y24866D01*
X17216Y24824D01*
X17270Y24801D01*
X17330D01*
X17384Y24824D01*
X17426Y24866D01*
X17449Y24920D01*
Y24980D01*
X17426Y25034D01*
X17384Y25076D01*
X17330Y25099D01*
D02*
G37*
G36*
X12353Y24537D02*
X11347D01*
Y23531D01*
X12353D01*
Y24537D01*
D02*
G37*
G36*
X40675Y23175D02*
X40400D01*
Y22900D01*
X40675D01*
Y23175D01*
D02*
G37*
G36*
X39400Y23150D02*
Y22900D01*
X39650D01*
X39646Y22914D01*
X39590Y23011D01*
X39511Y23090D01*
X39414Y23146D01*
X39400Y23150D01*
D02*
G37*
G36*
X37400D02*
Y22900D01*
X37650D01*
X37646Y22914D01*
X37590Y23011D01*
X37511Y23090D01*
X37414Y23146D01*
X37400Y23150D01*
D02*
G37*
G36*
X38400D02*
Y22900D01*
X38650D01*
X38646Y22914D01*
X38590Y23011D01*
X38511Y23090D01*
X38414Y23146D01*
X38400Y23150D01*
D02*
G37*
G36*
X39100D02*
X39086Y23146D01*
X38989Y23090D01*
X38910Y23011D01*
X38854Y22914D01*
X38850Y22900D01*
X39100D01*
Y23150D01*
D02*
G37*
G36*
X37100D02*
X37086Y23146D01*
X36989Y23090D01*
X36910Y23011D01*
X36854Y22914D01*
X36850Y22900D01*
X37100D01*
Y23150D01*
D02*
G37*
G36*
X38100D02*
X38086Y23146D01*
X37989Y23090D01*
X37910Y23011D01*
X37854Y22914D01*
X37850Y22900D01*
X38100D01*
Y23150D01*
D02*
G37*
G36*
X40100Y23175D02*
X39825D01*
Y22900D01*
X40100D01*
Y23175D01*
D02*
G37*
G36*
X39650Y22600D02*
X39400D01*
Y22350D01*
X39414Y22354D01*
X39511Y22410D01*
X39590Y22489D01*
X39646Y22586D01*
X39650Y22600D01*
D02*
G37*
G36*
X38650D02*
X38400D01*
Y22350D01*
X38414Y22354D01*
X38511Y22410D01*
X38590Y22489D01*
X38646Y22586D01*
X38650Y22600D01*
D02*
G37*
G36*
X37650D02*
X37400D01*
Y22350D01*
X37414Y22354D01*
X37511Y22410D01*
X37590Y22489D01*
X37646Y22586D01*
X37650Y22600D01*
D02*
G37*
G36*
X39100D02*
X38850D01*
X38854Y22586D01*
X38910Y22489D01*
X38989Y22410D01*
X39086Y22354D01*
X39100Y22350D01*
Y22600D01*
D02*
G37*
G36*
X38100D02*
X37850D01*
X37854Y22586D01*
X37910Y22489D01*
X37989Y22410D01*
X38086Y22354D01*
X38100Y22350D01*
Y22600D01*
D02*
G37*
G36*
X37100D02*
X36850D01*
X36854Y22586D01*
X36910Y22489D01*
X36989Y22410D01*
X37086Y22354D01*
X37100Y22350D01*
Y22600D01*
D02*
G37*
G36*
X40675D02*
X40400D01*
Y22325D01*
X40675D01*
Y22600D01*
D02*
G37*
G36*
X40100D02*
X39825D01*
Y22325D01*
X40100D01*
Y22600D01*
D02*
G37*
G36*
X30640Y22685D02*
X30539D01*
X30441Y22659D01*
X30353Y22608D01*
X30282Y22536D01*
X30231Y22449D01*
X30205Y22351D01*
Y22249D01*
X30231Y22151D01*
X30282Y22064D01*
X30353Y21992D01*
X30441Y21941D01*
X30539Y21915D01*
X30640D01*
X30738Y21941D01*
X30826Y21992D01*
X30898Y22064D01*
X30948Y22151D01*
X30975Y22249D01*
Y22351D01*
X30948Y22449D01*
X30898Y22536D01*
X30826Y22608D01*
X30738Y22659D01*
X30640Y22685D01*
D02*
G37*
G36*
X29262D02*
X29161D01*
X29063Y22659D01*
X28976Y22608D01*
X28904Y22536D01*
X28853Y22449D01*
X28827Y22351D01*
Y22249D01*
X28853Y22151D01*
X28904Y22064D01*
X28976Y21992D01*
X29063Y21941D01*
X29161Y21915D01*
X29262D01*
X29360Y21941D01*
X29448Y21992D01*
X29520Y22064D01*
X29570Y22151D01*
X29597Y22249D01*
Y22351D01*
X29570Y22449D01*
X29520Y22536D01*
X29448Y22608D01*
X29360Y22659D01*
X29262Y22685D01*
D02*
G37*
G36*
X27885D02*
X27783D01*
X27685Y22659D01*
X27598Y22608D01*
X27526Y22536D01*
X27475Y22449D01*
X27449Y22351D01*
Y22249D01*
X27475Y22151D01*
X27526Y22064D01*
X27598Y21992D01*
X27685Y21941D01*
X27783Y21915D01*
X27885D01*
X27982Y21941D01*
X28070Y21992D01*
X28142Y22064D01*
X28192Y22151D01*
X28219Y22249D01*
Y22351D01*
X28192Y22449D01*
X28142Y22536D01*
X28070Y22608D01*
X27982Y22659D01*
X27885Y22685D01*
D02*
G37*
G36*
X26507D02*
X26405D01*
X26307Y22659D01*
X26220Y22608D01*
X26148Y22536D01*
X26097Y22449D01*
X26071Y22351D01*
Y22249D01*
X26097Y22151D01*
X26148Y22064D01*
X26220Y21992D01*
X26307Y21941D01*
X26405Y21915D01*
X26507D01*
X26604Y21941D01*
X26692Y21992D01*
X26764Y22064D01*
X26814Y22151D01*
X26841Y22249D01*
Y22351D01*
X26814Y22449D01*
X26764Y22536D01*
X26692Y22608D01*
X26604Y22659D01*
X26507Y22685D01*
D02*
G37*
G36*
X25129D02*
X25027D01*
X24929Y22659D01*
X24842Y22608D01*
X24770Y22536D01*
X24719Y22449D01*
X24693Y22351D01*
Y22249D01*
X24719Y22151D01*
X24770Y22064D01*
X24842Y21992D01*
X24929Y21941D01*
X25027Y21915D01*
X25129D01*
X25226Y21941D01*
X25314Y21992D01*
X25386Y22064D01*
X25437Y22151D01*
X25463Y22249D01*
Y22351D01*
X25437Y22449D01*
X25386Y22536D01*
X25314Y22608D01*
X25226Y22659D01*
X25129Y22685D01*
D02*
G37*
G36*
X23751D02*
X23649D01*
X23551Y22659D01*
X23464Y22608D01*
X23392Y22536D01*
X23341Y22449D01*
X23315Y22351D01*
Y22249D01*
X23341Y22151D01*
X23392Y22064D01*
X23464Y21992D01*
X23551Y21941D01*
X23649Y21915D01*
X23751D01*
X23849Y21941D01*
X23936Y21992D01*
X24008Y22064D01*
X24059Y22151D01*
X24085Y22249D01*
Y22351D01*
X24059Y22449D01*
X24008Y22536D01*
X23936Y22608D01*
X23849Y22659D01*
X23751Y22685D01*
D02*
G37*
G36*
X22373D02*
X22271D01*
X22174Y22659D01*
X22086Y22608D01*
X22014Y22536D01*
X21963Y22449D01*
X21937Y22351D01*
Y22249D01*
X21963Y22151D01*
X22014Y22064D01*
X22086Y21992D01*
X22174Y21941D01*
X22271Y21915D01*
X22373D01*
X22471Y21941D01*
X22558Y21992D01*
X22630Y22064D01*
X22681Y22151D01*
X22707Y22249D01*
Y22351D01*
X22681Y22449D01*
X22630Y22536D01*
X22558Y22608D01*
X22471Y22659D01*
X22373Y22685D01*
D02*
G37*
G36*
X20995D02*
X20893D01*
X20796Y22659D01*
X20708Y22608D01*
X20636Y22536D01*
X20586Y22449D01*
X20559Y22351D01*
Y22249D01*
X20586Y22151D01*
X20636Y22064D01*
X20708Y21992D01*
X20796Y21941D01*
X20893Y21915D01*
X20995D01*
X21093Y21941D01*
X21180Y21992D01*
X21252Y22064D01*
X21303Y22151D01*
X21329Y22249D01*
Y22351D01*
X21303Y22449D01*
X21252Y22536D01*
X21180Y22608D01*
X21093Y22659D01*
X20995Y22685D01*
D02*
G37*
G36*
X19617D02*
X19515D01*
X19418Y22659D01*
X19330Y22608D01*
X19258Y22536D01*
X19208Y22449D01*
X19181Y22351D01*
Y22249D01*
X19208Y22151D01*
X19258Y22064D01*
X19330Y21992D01*
X19418Y21941D01*
X19515Y21915D01*
X19617D01*
X19715Y21941D01*
X19802Y21992D01*
X19874Y22064D01*
X19925Y22151D01*
X19951Y22249D01*
Y22351D01*
X19925Y22449D01*
X19874Y22536D01*
X19802Y22608D01*
X19715Y22659D01*
X19617Y22685D01*
D02*
G37*
G36*
X18573D02*
X17803D01*
Y21915D01*
X18573D01*
Y22685D01*
D02*
G37*
G36*
X48224Y22700D02*
X48076D01*
X47931Y22671D01*
X47795Y22615D01*
X47672Y22533D01*
X47567Y22428D01*
X47485Y22305D01*
X47429Y22169D01*
X47400Y22024D01*
Y21876D01*
X47429Y21731D01*
X47485Y21595D01*
X47567Y21472D01*
X47672Y21367D01*
X47795Y21285D01*
X47931Y21229D01*
X48076Y21200D01*
X48224D01*
X48369Y21229D01*
X48505Y21285D01*
X48628Y21367D01*
X48733Y21472D01*
X48815Y21595D01*
X48871Y21731D01*
X48900Y21876D01*
Y22024D01*
X48871Y22169D01*
X48815Y22305D01*
X48733Y22428D01*
X48628Y22533D01*
X48505Y22615D01*
X48369Y22671D01*
X48224Y22700D01*
D02*
G37*
G36*
X30750Y31851D02*
X30692Y31840D01*
X30643Y31807D01*
X30610Y31758D01*
X30599Y31700D01*
X30610Y31642D01*
X30643Y31593D01*
X30692Y31560D01*
X30750Y31549D01*
X30808Y31560D01*
X30857Y31593D01*
X30890Y31642D01*
X30901Y31700D01*
X30890Y31758D01*
X30857Y31807D01*
X30808Y31840D01*
X30750Y31851D01*
D02*
G37*
G36*
X38933Y30890D02*
X38875Y30879D01*
X38826Y30846D01*
X38793Y30797D01*
X38782Y30739D01*
X38793Y30681D01*
X38826Y30631D01*
X38875Y30599D01*
X38933Y30587D01*
X38991Y30599D01*
X39040Y30631D01*
X39073Y30681D01*
X39085Y30739D01*
X39073Y30797D01*
X39040Y30846D01*
X38991Y30879D01*
X38933Y30890D01*
D02*
G37*
G36*
X38950Y29051D02*
X38892Y29040D01*
X38843Y29007D01*
X38810Y28958D01*
X38799Y28900D01*
X38810Y28842D01*
X38843Y28793D01*
X38892Y28760D01*
X38950Y28749D01*
X39008Y28760D01*
X39057Y28793D01*
X39090Y28842D01*
X39101Y28900D01*
X39090Y28958D01*
X39057Y29007D01*
X39008Y29040D01*
X38950Y29051D01*
D02*
G37*
G36*
X43949Y32462D02*
Y32049D01*
X44362D01*
X44358Y32069D01*
X44314Y32175D01*
X44251Y32270D01*
X44170Y32351D01*
X44075Y32414D01*
X43969Y32458D01*
X43949Y32462D01*
D02*
G37*
G36*
X43649Y32462D02*
X43630Y32458D01*
X43524Y32414D01*
X43429Y32351D01*
X43348Y32270D01*
X43284Y32175D01*
X43240Y32069D01*
X43236Y32049D01*
X43649D01*
Y32462D01*
D02*
G37*
G36*
Y31749D02*
X43236D01*
X43240Y31730D01*
X43284Y31624D01*
X43348Y31529D01*
X43429Y31448D01*
X43524Y31384D01*
X43630Y31340D01*
X43649Y31336D01*
Y31749D01*
D02*
G37*
G36*
X44362D02*
X43949D01*
Y31336D01*
X43969Y31340D01*
X44075Y31384D01*
X44170Y31448D01*
X44251Y31529D01*
X44314Y31624D01*
X44358Y31730D01*
X44362Y31749D01*
D02*
G37*
G36*
X46977Y31819D02*
X46882D01*
X46790Y31795D01*
X46707Y31747D01*
X46640Y31680D01*
X46593Y31598D01*
X46568Y31506D01*
Y31411D01*
X46593Y31319D01*
X46640Y31237D01*
X46707Y31169D01*
X46790Y31122D01*
X46882Y31097D01*
X46977D01*
X47069Y31122D01*
X47151Y31169D01*
X47218Y31237D01*
X47266Y31319D01*
X47290Y31411D01*
Y31506D01*
X47266Y31598D01*
X47218Y31680D01*
X47151Y31747D01*
X47069Y31795D01*
X46977Y31819D01*
D02*
G37*
G36*
X41550Y30973D02*
Y30648D01*
X41875D01*
X41850Y30743D01*
X41800Y30828D01*
X41730Y30898D01*
X41645Y30948D01*
X41550Y30973D01*
D02*
G37*
G36*
X41450D02*
X41355Y30948D01*
X41270Y30898D01*
X41200Y30828D01*
X41150Y30743D01*
X41125Y30648D01*
X41450D01*
Y30973D01*
D02*
G37*
G36*
X45069Y31800D02*
X44931D01*
X44796Y31773D01*
X44669Y31720D01*
X44554Y31644D01*
X44456Y31546D01*
X44380Y31431D01*
X44327Y31304D01*
X44300Y31169D01*
Y31031D01*
X44327Y30896D01*
X44380Y30769D01*
X44456Y30654D01*
X44554Y30556D01*
X44669Y30480D01*
X44796Y30427D01*
X44931Y30400D01*
X45069D01*
X45204Y30427D01*
X45331Y30480D01*
X45446Y30556D01*
X45544Y30654D01*
X45620Y30769D01*
X45673Y30896D01*
X45700Y31031D01*
Y31169D01*
X45673Y31304D01*
X45620Y31431D01*
X45544Y31546D01*
X45446Y31644D01*
X45331Y31720D01*
X45204Y31773D01*
X45069Y31800D01*
D02*
G37*
G36*
X41875Y30548D02*
X41550D01*
Y30223D01*
X41645Y30248D01*
X41730Y30298D01*
X41800Y30368D01*
X41850Y30453D01*
X41875Y30548D01*
D02*
G37*
G36*
X41450D02*
X41125D01*
X41150Y30453D01*
X41200Y30368D01*
X41270Y30298D01*
X41355Y30248D01*
X41450Y30223D01*
Y30548D01*
D02*
G37*
G36*
X46977Y30819D02*
X46882D01*
X46790Y30795D01*
X46707Y30747D01*
X46640Y30680D01*
X46593Y30598D01*
X46568Y30506D01*
Y30411D01*
X46593Y30319D01*
X46640Y30236D01*
X46707Y30169D01*
X46790Y30122D01*
X46882Y30097D01*
X46977D01*
X47069Y30122D01*
X47151Y30169D01*
X47218Y30236D01*
X47266Y30319D01*
X47290Y30411D01*
Y30506D01*
X47266Y30598D01*
X47218Y30680D01*
X47151Y30747D01*
X47069Y30795D01*
X46977Y30819D01*
D02*
G37*
G36*
X42544Y30433D02*
X42456D01*
X42371Y30410D01*
X42294Y30366D01*
X42232Y30304D01*
X42188Y30227D01*
X42165Y30142D01*
Y30054D01*
X42188Y29969D01*
X42232Y29892D01*
X42294Y29830D01*
X42371Y29786D01*
X42456Y29763D01*
X42544D01*
X42629Y29786D01*
X42706Y29830D01*
X42768Y29892D01*
X42812Y29969D01*
X42835Y30054D01*
Y30142D01*
X42812Y30227D01*
X42768Y30304D01*
X42706Y30366D01*
X42629Y30410D01*
X42544Y30433D01*
D02*
G37*
G36*
X41544Y29933D02*
X41456D01*
X41371Y29910D01*
X41294Y29866D01*
X41232Y29804D01*
X41188Y29727D01*
X41165Y29642D01*
Y29554D01*
X41188Y29469D01*
X41232Y29392D01*
X41294Y29330D01*
X41371Y29286D01*
X41456Y29263D01*
X41544D01*
X41629Y29286D01*
X41706Y29330D01*
X41768Y29392D01*
X41812Y29469D01*
X41835Y29554D01*
Y29642D01*
X41812Y29727D01*
X41768Y29804D01*
X41706Y29866D01*
X41629Y29910D01*
X41544Y29933D01*
D02*
G37*
G36*
X42544Y29433D02*
X42456D01*
X42371Y29410D01*
X42294Y29366D01*
X42232Y29304D01*
X42188Y29227D01*
X42165Y29142D01*
Y29054D01*
X42188Y28969D01*
X42232Y28892D01*
X42294Y28830D01*
X42371Y28786D01*
X42456Y28763D01*
X42544D01*
X42629Y28786D01*
X42706Y28830D01*
X42768Y28892D01*
X42812Y28969D01*
X42835Y29054D01*
Y29142D01*
X42812Y29227D01*
X42768Y29304D01*
X42706Y29366D01*
X42629Y29410D01*
X42544Y29433D01*
D02*
G37*
G36*
X41544Y28933D02*
X41456D01*
X41371Y28910D01*
X41294Y28866D01*
X41232Y28804D01*
X41188Y28727D01*
X41165Y28642D01*
Y28554D01*
X41188Y28469D01*
X41232Y28392D01*
X41294Y28330D01*
X41371Y28286D01*
X41456Y28263D01*
X41544D01*
X41629Y28286D01*
X41706Y28330D01*
X41768Y28392D01*
X41812Y28469D01*
X41835Y28554D01*
Y28642D01*
X41812Y28727D01*
X41768Y28804D01*
X41706Y28866D01*
X41629Y28910D01*
X41544Y28933D01*
D02*
G37*
G36*
X42544Y28433D02*
X42456D01*
X42371Y28410D01*
X42294Y28366D01*
X42232Y28304D01*
X42188Y28227D01*
X42165Y28142D01*
Y28054D01*
X42188Y27969D01*
X42232Y27892D01*
X42294Y27830D01*
X42371Y27786D01*
X42456Y27763D01*
X42544D01*
X42629Y27786D01*
X42706Y27830D01*
X42768Y27892D01*
X42812Y27969D01*
X42835Y28054D01*
Y28142D01*
X42812Y28227D01*
X42768Y28304D01*
X42706Y28366D01*
X42629Y28410D01*
X42544Y28433D01*
D02*
G37*
G36*
X41544Y27933D02*
X41456D01*
X41371Y27910D01*
X41294Y27866D01*
X41232Y27804D01*
X41188Y27727D01*
X41165Y27642D01*
Y27554D01*
X41188Y27469D01*
X41232Y27392D01*
X41294Y27330D01*
X41371Y27286D01*
X41456Y27263D01*
X41544D01*
X41629Y27286D01*
X41706Y27330D01*
X41768Y27392D01*
X41812Y27469D01*
X41835Y27554D01*
Y27642D01*
X41812Y27727D01*
X41768Y27804D01*
X41706Y27866D01*
X41629Y27910D01*
X41544Y27933D01*
D02*
G37*
G36*
X46977Y27603D02*
X46882D01*
X46790Y27578D01*
X46707Y27531D01*
X46640Y27464D01*
X46593Y27381D01*
X46568Y27289D01*
Y27194D01*
X46593Y27102D01*
X46640Y27020D01*
X46707Y26953D01*
X46790Y26905D01*
X46882Y26881D01*
X46977D01*
X47069Y26905D01*
X47151Y26953D01*
X47218Y27020D01*
X47266Y27102D01*
X47290Y27194D01*
Y27289D01*
X47266Y27381D01*
X47218Y27464D01*
X47151Y27531D01*
X47069Y27578D01*
X46977Y27603D01*
D02*
G37*
G36*
X42544Y27433D02*
X42456D01*
X42371Y27410D01*
X42294Y27366D01*
X42232Y27304D01*
X42188Y27227D01*
X42165Y27142D01*
Y27054D01*
X42188Y26969D01*
X42232Y26892D01*
X42294Y26830D01*
X42371Y26786D01*
X42456Y26763D01*
X42544D01*
X42629Y26786D01*
X42706Y26830D01*
X42768Y26892D01*
X42812Y26969D01*
X42835Y27054D01*
Y27142D01*
X42812Y27227D01*
X42768Y27304D01*
X42706Y27366D01*
X42629Y27410D01*
X42544Y27433D01*
D02*
G37*
G36*
X43949Y26364D02*
Y25951D01*
X44362D01*
X44358Y25970D01*
X44314Y26076D01*
X44251Y26171D01*
X44170Y26252D01*
X44075Y26316D01*
X43969Y26360D01*
X43949Y26364D01*
D02*
G37*
G36*
X43649Y26364D02*
X43630Y26360D01*
X43524Y26316D01*
X43429Y26252D01*
X43348Y26171D01*
X43284Y26076D01*
X43240Y25970D01*
X43236Y25951D01*
X43649D01*
Y26364D01*
D02*
G37*
G36*
X45069Y27300D02*
X44931D01*
X44796Y27273D01*
X44669Y27220D01*
X44554Y27144D01*
X44456Y27046D01*
X44380Y26931D01*
X44327Y26804D01*
X44300Y26669D01*
Y26531D01*
X44327Y26396D01*
X44380Y26269D01*
X44456Y26154D01*
X44554Y26056D01*
X44669Y25980D01*
X44796Y25927D01*
X44931Y25900D01*
X45069D01*
X45204Y25927D01*
X45331Y25980D01*
X45446Y26056D01*
X45544Y26154D01*
X45620Y26269D01*
X45673Y26396D01*
X45700Y26531D01*
Y26669D01*
X45673Y26804D01*
X45620Y26931D01*
X45544Y27046D01*
X45446Y27144D01*
X45331Y27220D01*
X45204Y27273D01*
X45069Y27300D01*
D02*
G37*
G36*
X46977Y26603D02*
X46882D01*
X46790Y26578D01*
X46707Y26531D01*
X46640Y26463D01*
X46593Y26381D01*
X46568Y26289D01*
Y26194D01*
X46593Y26102D01*
X46640Y26020D01*
X46707Y25953D01*
X46790Y25905D01*
X46882Y25881D01*
X46977D01*
X47069Y25905D01*
X47151Y25953D01*
X47218Y26020D01*
X47266Y26102D01*
X47290Y26194D01*
Y26289D01*
X47266Y26381D01*
X47218Y26463D01*
X47151Y26531D01*
X47069Y26578D01*
X46977Y26603D01*
D02*
G37*
G36*
X43649Y25651D02*
X43236D01*
X43240Y25631D01*
X43284Y25525D01*
X43348Y25430D01*
X43429Y25349D01*
X43524Y25286D01*
X43630Y25242D01*
X43649Y25238D01*
Y25651D01*
D02*
G37*
G36*
X44362D02*
X43949D01*
Y25238D01*
X43969Y25242D01*
X44075Y25286D01*
X44170Y25349D01*
X44251Y25430D01*
X44314Y25525D01*
X44358Y25631D01*
X44362Y25651D01*
D02*
G37*
%LPD*%
D11*
X37850Y26500D02*
Y28300D01*
X35300D02*
X37850D01*
X35150Y30800D02*
Y32000D01*
Y32650D01*
X34300Y34300D02*
X34950D01*
X35150Y34100D01*
X31550Y32650D02*
X32650D01*
X35150D01*
Y34100D01*
Y28450D02*
X35300Y28300D01*
X35150Y28450D02*
Y30800D01*
D105*
X17616Y48200D02*
X17666Y48250D01*
X30700D01*
X31850D01*
X15503Y49503D02*
X39097D01*
X14750Y48750D02*
X15503Y49503D01*
X39097D02*
X39900Y48700D01*
X31900Y48200D02*
X33650D01*
X35750Y48100D02*
X36850D01*
X35400Y48200D02*
X35650D01*
X33650D02*
X35400D01*
X35650D02*
X35750Y48100D01*
X31850Y48250D02*
X31900Y48200D01*
X21200Y37450D02*
X24100D01*
X40250Y45650D02*
X40300Y45700D01*
X44250D01*
X39900Y46000D02*
Y48700D01*
X15300Y26700D02*
X17950D01*
X14750Y27250D02*
X15300Y26700D01*
X14750Y27250D02*
Y48750D01*
X39900Y46000D02*
X40250Y45650D01*
X24100Y24300D02*
Y37450D01*
Y24300D02*
X25000Y23400D01*
X24100Y37450D02*
X35725D01*
X35750Y37475D02*
Y39000D01*
Y35950D02*
Y37475D01*
X35725Y37450D02*
X35750Y37475D01*
Y43650D02*
Y48100D01*
Y41100D02*
Y43650D01*
X35750D01*
X39250Y22750D02*
X40250D01*
X38250D02*
X39250D01*
X37250D02*
X38250D01*
X35700Y21750D02*
X37250D01*
X34050Y23400D02*
X35700Y21750D01*
X25000Y23400D02*
X34050D01*
X39250Y21750D02*
X40250D01*
X38250D02*
X39250D01*
X37250D02*
X38250D01*
X35750Y43650D02*
X35750Y43650D01*
X36950D01*
X35750Y39000D02*
Y41100D01*
Y35950D02*
X37300Y34400D01*
D106*
X11850Y32600D02*
D03*
Y31600D02*
D03*
X10850Y28350D02*
D03*
Y29350D02*
D03*
X11850Y28350D02*
D03*
Y29350D02*
D03*
X37250Y21750D02*
D03*
X38250D02*
D03*
X37250Y22750D02*
D03*
X38250D02*
D03*
X40250Y21750D02*
D03*
X39250Y22750D02*
D03*
Y21750D02*
D03*
D109*
X41500Y30598D02*
D03*
D112*
X43799Y31899D02*
D03*
Y25801D02*
D03*
D114*
X11850Y22066D02*
D03*
D115*
X40250Y22750D02*
D03*
D116*
X45233Y47837D02*
D03*
X42300D02*
D03*
D117*
X45292Y49333D02*
D03*
X42241D02*
D03*
D120*
X36700Y44600D02*
D03*
D121*
Y46400D02*
D03*
Y42100D02*
D03*
D124*
X48500Y48000D02*
D03*
X48000Y47000D02*
D03*
X48500Y46000D02*
D03*
X48000Y43000D02*
D03*
X48500Y42000D02*
D03*
Y40000D02*
D03*
X48000Y39000D02*
D03*
X48500Y38000D02*
D03*
Y36000D02*
D03*
X48000Y35000D02*
D03*
Y23000D02*
D03*
Y21000D02*
D03*
X47000Y49000D02*
D03*
X47500Y48000D02*
D03*
X47000Y47000D02*
D03*
X47500Y42000D02*
D03*
X47000Y41000D02*
D03*
X47500Y40000D02*
D03*
X47000Y37000D02*
D03*
X47500Y36000D02*
D03*
X47000Y35000D02*
D03*
X47500Y34000D02*
D03*
X47000Y23000D02*
D03*
Y21000D02*
D03*
X46000Y49000D02*
D03*
X46500Y48000D02*
D03*
X46000Y47000D02*
D03*
Y43000D02*
D03*
X46500Y42000D02*
D03*
X46000Y41000D02*
D03*
X46500Y38000D02*
D03*
X46000Y37000D02*
D03*
X46500Y36000D02*
D03*
X46000Y35000D02*
D03*
X46500Y34000D02*
D03*
X46000Y23000D02*
D03*
X46500Y22000D02*
D03*
X46000Y21000D02*
D03*
X45000Y47000D02*
D03*
X45500Y46000D02*
D03*
X45000Y45000D02*
D03*
Y43000D02*
D03*
X45500Y42000D02*
D03*
X45000Y41000D02*
D03*
X45500Y38000D02*
D03*
X45000Y37000D02*
D03*
X45500Y36000D02*
D03*
X45000Y35000D02*
D03*
X45500Y34000D02*
D03*
Y22000D02*
D03*
X45000Y21000D02*
D03*
X44000Y49000D02*
D03*
X44500Y42000D02*
D03*
X44000Y41000D02*
D03*
X44500Y40000D02*
D03*
Y38000D02*
D03*
X44000Y37000D02*
D03*
X44500Y36000D02*
D03*
X44000Y35000D02*
D03*
X44500Y34000D02*
D03*
X44000Y23000D02*
D03*
X44500Y22000D02*
D03*
X44000Y21000D02*
D03*
X43000Y49000D02*
D03*
Y47000D02*
D03*
Y45000D02*
D03*
Y43000D02*
D03*
X43500Y42000D02*
D03*
X43000Y41000D02*
D03*
X43500Y38000D02*
D03*
X43000Y37000D02*
D03*
X43500Y36000D02*
D03*
X43000Y35000D02*
D03*
X43500Y34000D02*
D03*
X43000Y23000D02*
D03*
X43500Y22000D02*
D03*
X43000Y21000D02*
D03*
X42000Y47000D02*
D03*
X42500Y42000D02*
D03*
X42000Y37000D02*
D03*
X42500Y36000D02*
D03*
X42000Y35000D02*
D03*
X42500Y34000D02*
D03*
X42000Y23000D02*
D03*
X42500Y22000D02*
D03*
X42000Y21000D02*
D03*
X41000Y49000D02*
D03*
X41500Y48000D02*
D03*
X41000Y47000D02*
D03*
Y43000D02*
D03*
X41500Y42000D02*
D03*
Y38000D02*
D03*
X41000Y37000D02*
D03*
X41500Y36000D02*
D03*
X41000Y35000D02*
D03*
X41500Y34000D02*
D03*
X41000Y23000D02*
D03*
X41500Y22000D02*
D03*
X41000Y21000D02*
D03*
X40500Y48000D02*
D03*
X40000Y45000D02*
D03*
X40500Y44000D02*
D03*
X40000Y43000D02*
D03*
X40500Y42000D02*
D03*
X40000Y39000D02*
D03*
X40500Y38000D02*
D03*
X40000Y37000D02*
D03*
X40500Y36000D02*
D03*
X40000Y35000D02*
D03*
X40500Y34000D02*
D03*
X40000Y21000D02*
D03*
X39000Y47000D02*
D03*
X39500Y44000D02*
D03*
X39000Y43000D02*
D03*
X39500Y40000D02*
D03*
Y38000D02*
D03*
X39000Y37000D02*
D03*
X39500Y36000D02*
D03*
X39000Y35000D02*
D03*
X39500Y34000D02*
D03*
X39000Y21000D02*
D03*
X38500Y48000D02*
D03*
X38000Y47000D02*
D03*
Y45000D02*
D03*
X38500Y44000D02*
D03*
Y38000D02*
D03*
X38000Y37000D02*
D03*
X38500Y36000D02*
D03*
X38000Y35000D02*
D03*
X38500Y34000D02*
D03*
Y32000D02*
D03*
Y24000D02*
D03*
X38000Y21000D02*
D03*
X37000Y47000D02*
D03*
X37500Y46000D02*
D03*
Y44000D02*
D03*
X37000Y43000D02*
D03*
X37500Y42000D02*
D03*
X37000Y37000D02*
D03*
X37500Y36000D02*
D03*
Y24000D02*
D03*
X37000Y21000D02*
D03*
X36500Y44000D02*
D03*
Y24000D02*
D03*
X36000Y23000D02*
D03*
Y21000D02*
D03*
X35000Y47000D02*
D03*
Y45000D02*
D03*
Y43000D02*
D03*
Y41000D02*
D03*
Y39000D02*
D03*
Y35000D02*
D03*
X35500Y24000D02*
D03*
X35000Y21000D02*
D03*
X34500Y46000D02*
D03*
Y44000D02*
D03*
Y42000D02*
D03*
X34000Y41000D02*
D03*
X34500Y40000D02*
D03*
X34000Y39000D02*
D03*
Y37000D02*
D03*
X34500Y36000D02*
D03*
X34000Y35000D02*
D03*
Y25000D02*
D03*
X34500Y22000D02*
D03*
X34000Y21000D02*
D03*
X33000Y47000D02*
D03*
X33500Y46000D02*
D03*
X33000Y43000D02*
D03*
Y41000D02*
D03*
Y39000D02*
D03*
Y37000D02*
D03*
X33500Y36000D02*
D03*
X33000Y35000D02*
D03*
X33500Y22000D02*
D03*
X33000Y21000D02*
D03*
X32000Y47000D02*
D03*
Y45000D02*
D03*
X32500Y44000D02*
D03*
X32000Y43000D02*
D03*
X32500Y42000D02*
D03*
X32000Y41000D02*
D03*
X32500Y40000D02*
D03*
X32000Y39000D02*
D03*
Y37000D02*
D03*
X32500Y36000D02*
D03*
X32000Y35000D02*
D03*
X32500Y26000D02*
D03*
Y22000D02*
D03*
X32000Y21000D02*
D03*
X31000Y47000D02*
D03*
X31500Y44000D02*
D03*
X31000Y43000D02*
D03*
X31500Y42000D02*
D03*
X31000Y41000D02*
D03*
X31500Y40000D02*
D03*
X31000Y39000D02*
D03*
Y37000D02*
D03*
X31500Y36000D02*
D03*
X31000Y35000D02*
D03*
X31500Y22000D02*
D03*
X31000Y21000D02*
D03*
X30000Y47000D02*
D03*
X30500Y44000D02*
D03*
X30000Y43000D02*
D03*
X30500Y42000D02*
D03*
X30000Y41000D02*
D03*
X30500Y40000D02*
D03*
X30000Y39000D02*
D03*
Y37000D02*
D03*
Y35000D02*
D03*
X30500Y26000D02*
D03*
X30000Y25000D02*
D03*
Y21000D02*
D03*
X29000Y47000D02*
D03*
X29500Y44000D02*
D03*
Y42000D02*
D03*
X29000Y41000D02*
D03*
Y33000D02*
D03*
Y31000D02*
D03*
Y27000D02*
D03*
Y25000D02*
D03*
Y21000D02*
D03*
X28000Y47000D02*
D03*
Y45000D02*
D03*
Y43000D02*
D03*
Y41000D02*
D03*
X28500Y40000D02*
D03*
X28000Y39000D02*
D03*
Y37000D02*
D03*
X28500Y36000D02*
D03*
X28000Y33000D02*
D03*
X28500Y32000D02*
D03*
X28000Y31000D02*
D03*
X28500Y28000D02*
D03*
X28000Y27000D02*
D03*
X28500Y22000D02*
D03*
X28000Y21000D02*
D03*
X27000Y47000D02*
D03*
X27500Y46000D02*
D03*
X27000Y45000D02*
D03*
X27500Y44000D02*
D03*
X27000Y43000D02*
D03*
X27500Y42000D02*
D03*
X27000Y41000D02*
D03*
X27500Y36000D02*
D03*
Y34000D02*
D03*
Y32000D02*
D03*
X27000Y31000D02*
D03*
Y27000D02*
D03*
X27500Y26000D02*
D03*
X27000Y25000D02*
D03*
Y21000D02*
D03*
X26000Y47000D02*
D03*
X26500Y46000D02*
D03*
X26000Y45000D02*
D03*
X26500Y44000D02*
D03*
X26000Y43000D02*
D03*
X26500Y42000D02*
D03*
X26000Y41000D02*
D03*
Y27000D02*
D03*
Y25000D02*
D03*
Y21000D02*
D03*
X25500Y46000D02*
D03*
X25000Y45000D02*
D03*
X25500Y44000D02*
D03*
X25000Y43000D02*
D03*
X25500Y42000D02*
D03*
X25000Y41000D02*
D03*
Y39000D02*
D03*
X25500Y36000D02*
D03*
Y34000D02*
D03*
Y32000D02*
D03*
Y22000D02*
D03*
X25000Y21000D02*
D03*
X24000Y45000D02*
D03*
X24500Y44000D02*
D03*
X24000Y43000D02*
D03*
X24500Y42000D02*
D03*
X24000Y41000D02*
D03*
Y23000D02*
D03*
X24500Y22000D02*
D03*
X24000Y21000D02*
D03*
X23000Y47000D02*
D03*
X23500Y46000D02*
D03*
X23000Y45000D02*
D03*
X23500Y44000D02*
D03*
X23000Y43000D02*
D03*
X23500Y42000D02*
D03*
X23000Y41000D02*
D03*
Y21000D02*
D03*
X22000Y47000D02*
D03*
X22500Y46000D02*
D03*
X22000Y45000D02*
D03*
X22500Y44000D02*
D03*
X22000Y43000D02*
D03*
X22500Y42000D02*
D03*
X22000Y41000D02*
D03*
Y39000D02*
D03*
Y31000D02*
D03*
Y29000D02*
D03*
Y27000D02*
D03*
Y23000D02*
D03*
Y21000D02*
D03*
X21500Y40000D02*
D03*
X21000Y31000D02*
D03*
X21500Y30000D02*
D03*
X21000Y29000D02*
D03*
X21500Y28000D02*
D03*
X21000Y27000D02*
D03*
X21500Y26000D02*
D03*
X21000Y23000D02*
D03*
X21500Y22000D02*
D03*
X21000Y21000D02*
D03*
X20000Y47000D02*
D03*
X20500Y44000D02*
D03*
X20000Y41000D02*
D03*
Y39000D02*
D03*
Y37000D02*
D03*
Y35000D02*
D03*
X20500Y34000D02*
D03*
X20000Y31000D02*
D03*
X20500Y30000D02*
D03*
X20000Y29000D02*
D03*
X20500Y28000D02*
D03*
X20000Y27000D02*
D03*
X20500Y26000D02*
D03*
X20000Y25000D02*
D03*
X20500Y24000D02*
D03*
Y22000D02*
D03*
X20000Y21000D02*
D03*
X19000Y47000D02*
D03*
X19500Y44000D02*
D03*
X19000Y41000D02*
D03*
X19500Y40000D02*
D03*
X19000Y39000D02*
D03*
X19500Y38000D02*
D03*
X19000Y37000D02*
D03*
Y35000D02*
D03*
X19500Y34000D02*
D03*
X19000Y31000D02*
D03*
X19500Y30000D02*
D03*
X19000Y29000D02*
D03*
X19500Y28000D02*
D03*
X19000Y27000D02*
D03*
X19500Y26000D02*
D03*
X19000Y25000D02*
D03*
X19500Y24000D02*
D03*
X19000Y21000D02*
D03*
X18000Y47000D02*
D03*
X18500Y44000D02*
D03*
X18000Y41000D02*
D03*
X18500Y40000D02*
D03*
X18000Y39000D02*
D03*
X18500Y38000D02*
D03*
Y30000D02*
D03*
X18000Y29000D02*
D03*
X18500Y26000D02*
D03*
Y24000D02*
D03*
X18000Y23000D02*
D03*
Y21000D02*
D03*
X17000Y47000D02*
D03*
X17500Y44000D02*
D03*
X17000Y41000D02*
D03*
X17500Y40000D02*
D03*
X17000Y39000D02*
D03*
X17500Y38000D02*
D03*
X17000Y31000D02*
D03*
Y29000D02*
D03*
X17500Y26000D02*
D03*
Y24000D02*
D03*
X17000Y23000D02*
D03*
X17500Y22000D02*
D03*
X17000Y21000D02*
D03*
X16500Y48000D02*
D03*
X16000Y47000D02*
D03*
X16500Y44000D02*
D03*
Y42000D02*
D03*
Y40000D02*
D03*
X16000Y39000D02*
D03*
X16500Y38000D02*
D03*
Y32000D02*
D03*
X16000Y31000D02*
D03*
X16500Y30000D02*
D03*
X16000Y29000D02*
D03*
Y23000D02*
D03*
X16500Y22000D02*
D03*
X16000Y21000D02*
D03*
X15500Y44000D02*
D03*
Y40000D02*
D03*
Y38000D02*
D03*
Y36000D02*
D03*
Y34000D02*
D03*
Y32000D02*
D03*
Y28000D02*
D03*
X15000Y23000D02*
D03*
X15500Y22000D02*
D03*
X15000Y21000D02*
D03*
X14000Y23000D02*
D03*
X14500Y22000D02*
D03*
X14000Y21000D02*
D03*
X13000Y49000D02*
D03*
X13500Y48000D02*
D03*
X13000Y47000D02*
D03*
Y43000D02*
D03*
X13500Y42000D02*
D03*
X13000Y39000D02*
D03*
Y37000D02*
D03*
X13500Y36000D02*
D03*
Y34000D02*
D03*
X13000Y31000D02*
D03*
Y29000D02*
D03*
Y27000D02*
D03*
Y23000D02*
D03*
X13500Y22000D02*
D03*
X13000Y21000D02*
D03*
X12000Y47000D02*
D03*
X12500Y44000D02*
D03*
X12000Y43000D02*
D03*
X12500Y40000D02*
D03*
X12000Y39000D02*
D03*
X12500Y38000D02*
D03*
Y34000D02*
D03*
Y32000D02*
D03*
X12000Y31000D02*
D03*
X12500Y30000D02*
D03*
Y28000D02*
D03*
Y26000D02*
D03*
X12000Y25000D02*
D03*
Y23000D02*
D03*
X12500Y22000D02*
D03*
X12000Y21000D02*
D03*
X11000Y49000D02*
D03*
Y47000D02*
D03*
Y45000D02*
D03*
Y43000D02*
D03*
Y41000D02*
D03*
X11500Y40000D02*
D03*
X11000Y39000D02*
D03*
Y37000D02*
D03*
X11500Y36000D02*
D03*
X11000Y31000D02*
D03*
X11500Y30000D02*
D03*
Y28000D02*
D03*
Y26000D02*
D03*
X11000Y25000D02*
D03*
Y23000D02*
D03*
Y21000D02*
D03*
X17616Y48200D02*
D03*
X36850Y48100D02*
D03*
X35400Y48200D02*
D03*
X33650D02*
D03*
X31900D02*
D03*
X30700Y48250D02*
D03*
X37850Y26500D02*
D03*
X35150Y28450D02*
D03*
X37850Y28300D02*
D03*
X30450Y39650D02*
D03*
X29600D02*
D03*
X30000D02*
D03*
X24100Y37450D02*
D03*
X28200Y28250D02*
D03*
X33050Y26750D02*
D03*
X34144Y28506D02*
D03*
X35133Y32039D02*
D03*
X31900Y31450D02*
D03*
X34300Y34300D02*
D03*
X43015Y46313D02*
D03*
X44250Y45700D02*
D03*
X21483Y37789D02*
D03*
X21183D02*
D03*
X20833D02*
D03*
Y37489D02*
D03*
X21483D02*
D03*
X17933Y26739D02*
D03*
X21183Y37489D02*
D03*
X30383Y47689D02*
D03*
X33483Y46739D02*
D03*
X29033Y41639D02*
D03*
X30433Y40989D02*
D03*
X30450Y36350D02*
D03*
X30000Y36100D02*
D03*
X29600Y35900D02*
D03*
X29433Y43389D02*
D03*
Y42889D02*
D03*
X29183Y42239D02*
D03*
X49143Y32980D02*
D03*
X49125Y32173D02*
D03*
Y30755D02*
D03*
Y28627D02*
D03*
X49133Y25789D02*
D03*
X43583Y24689D02*
D03*
X44967Y24691D02*
D03*
X46182Y24646D02*
D03*
X47733Y24639D02*
D03*
X48930Y24717D02*
D03*
X42051Y24643D02*
D03*
X40783Y24639D02*
D03*
X39983Y25339D02*
D03*
X40050Y29200D02*
D03*
Y29800D02*
D03*
X40005Y28289D02*
D03*
X40033Y27439D02*
D03*
X40018Y26405D02*
D03*
Y30749D02*
D03*
X40033Y31839D02*
D03*
Y33139D02*
D03*
X39233Y26689D02*
D03*
X39269Y26183D02*
D03*
X39261Y25709D02*
D03*
X38863Y26129D02*
D03*
X35503Y26339D02*
D03*
X34607Y26383D02*
D03*
X35492Y25576D02*
D03*
X31433Y28839D02*
D03*
X30083Y30939D02*
D03*
X30010Y31934D02*
D03*
X30033Y32639D02*
D03*
X30016Y33389D02*
D03*
X30033Y33839D02*
D03*
X35883Y30439D02*
D03*
X35150Y27450D02*
D03*
X34550Y28800D02*
D03*
X34850Y29750D02*
D03*
X37933Y29839D02*
D03*
X36783Y27439D02*
D03*
X36833Y24489D02*
D03*
X35483Y32689D02*
D03*
X36789Y31363D02*
D03*
X37433Y31339D02*
D03*
X38933D02*
D03*
X39233Y30439D02*
D03*
X39200Y29800D02*
D03*
Y29200D02*
D03*
X39233Y28389D02*
D03*
Y28039D02*
D03*
Y27439D02*
D03*
X33533Y26239D02*
D03*
X34183Y25489D02*
D03*
X35183Y24539D02*
D03*
X38533Y24489D02*
D03*
X31800Y26800D02*
D03*
X31350D02*
D03*
X30250D02*
D03*
X30650D02*
D03*
X30033Y27189D02*
D03*
X30000Y27800D02*
D03*
X26800Y28250D02*
D03*
X28450Y28500D02*
D03*
X28700Y28750D02*
D03*
X28750Y30350D02*
D03*
X26383Y30339D02*
D03*
X26783Y30689D02*
D03*
X26383Y30639D02*
D03*
X26350Y28600D02*
D03*
X26450Y28300D02*
D03*
X26683Y28639D02*
D03*
X32433Y29739D02*
D03*
Y31439D02*
D03*
X34783Y28939D02*
D03*
X32833Y31439D02*
D03*
X33683Y32877D02*
D03*
X32083Y39639D02*
D03*
X45983Y38489D02*
D03*
X44883Y40689D02*
D03*
Y37839D02*
D03*
X42833D02*
D03*
X27583Y39639D02*
D03*
X33683D02*
D03*
X41983Y46339D02*
D03*
X36833Y39639D02*
D03*
X38483Y40739D02*
D03*
X35733Y41139D02*
D03*
Y39039D02*
D03*
X37283Y34439D02*
D03*
X36933Y43689D02*
D03*
X38733Y24739D02*
D03*
X40233Y45689D02*
D03*
X31533Y32689D02*
D03*
X35133Y30839D02*
D03*
X32633Y32689D02*
D03*
D125*
X44353Y43496D02*
D03*
X43487D02*
D03*
X44353Y44362D02*
D03*
Y43929D02*
D03*
X43487Y44362D02*
D03*
Y43929D02*
D03*
X43920Y43496D02*
D03*
Y44362D02*
D03*
Y43929D02*
D03*
M02*
