G04*
G04 #@! TF.GenerationSoftware,Altium Limited,Altium Designer,22.11.1 (43)*
G04*
G04 Layer_Color=16711935*
%FSLAX24Y24*%
%MOIN*%
G70*
G04*
G04 #@! TF.SameCoordinates,95904809-8EA0-40D1-BC7C-4500F6FC4EB7*
G04*
G04*
G04 #@! TF.FilePolarity,Negative*
G04*
G01*
G75*
%ADD58R,0.0395X0.0454*%
%ADD62R,0.0395X0.0395*%
%ADD78R,0.0690X0.0907*%
%ADD86C,0.0730*%
%ADD87R,0.0730X0.0730*%
%ADD88R,0.0630X0.0630*%
%ADD89C,0.0630*%
%ADD90C,0.0682*%
%ADD91C,0.1360*%
%ADD92C,0.1043*%
%ADD93R,0.0966X0.0966*%
%ADD94C,0.0966*%
%ADD95R,0.0730X0.0730*%
%ADD96O,0.0651X0.0867*%
%ADD97O,0.0533X0.0789*%
%ADD98C,0.0395*%
%ADD99C,0.1460*%
%ADD100C,0.0830*%
%ADD101R,0.0830X0.0830*%
%ADD102R,0.0671X0.0671*%
%ADD103C,0.0671*%
%ADD104C,0.0277*%
D58*
X37374Y47950D02*
D03*
X37926D02*
D03*
X37424Y43650D02*
D03*
X37976D02*
D03*
D62*
X37945Y47350D02*
D03*
X37355D02*
D03*
X37976Y43000D02*
D03*
X37385D02*
D03*
D78*
X13550Y24934D02*
D03*
Y26666D02*
D03*
X16300Y24918D02*
D03*
Y26650D02*
D03*
X14950Y24934D02*
D03*
Y26666D02*
D03*
D86*
X11600Y40878D02*
D03*
Y42256D02*
D03*
Y45012D02*
D03*
Y46390D02*
D03*
Y47768D02*
D03*
Y43634D02*
D03*
Y39500D02*
D03*
Y38122D02*
D03*
Y36744D02*
D03*
X11850Y32600D02*
D03*
X10850D02*
D03*
X11850Y31600D02*
D03*
Y27350D02*
D03*
X10850D02*
D03*
X11850Y26350D02*
D03*
X10850Y28350D02*
D03*
Y29350D02*
D03*
X11850Y28350D02*
D03*
Y29350D02*
D03*
X37250Y21750D02*
D03*
X38250D02*
D03*
X37250Y22750D02*
D03*
X38250D02*
D03*
X40250Y21750D02*
D03*
X39250Y22750D02*
D03*
Y21750D02*
D03*
X26456Y22300D02*
D03*
X25078D02*
D03*
X22322D02*
D03*
X20944D02*
D03*
X19566D02*
D03*
X23700D02*
D03*
X27834D02*
D03*
X29212D02*
D03*
X30590D02*
D03*
D87*
X11600Y49146D02*
D03*
X10850Y31600D02*
D03*
Y26350D02*
D03*
D88*
X42500Y27098D02*
D03*
D89*
X41500Y27598D02*
D03*
X42500Y28098D02*
D03*
X41500Y28598D02*
D03*
X42500Y29098D02*
D03*
X41500Y29598D02*
D03*
X42500Y30098D02*
D03*
X41500Y30598D02*
D03*
D90*
X46929Y26242D02*
D03*
Y27242D02*
D03*
Y31458D02*
D03*
Y30458D02*
D03*
D91*
X45000Y31100D02*
D03*
Y26600D02*
D03*
D92*
X43799Y31899D02*
D03*
Y25801D02*
D03*
D93*
X11850Y24034D02*
D03*
D94*
Y22066D02*
D03*
D95*
X40250Y22750D02*
D03*
X18188Y22300D02*
D03*
D96*
X45233Y47837D02*
D03*
X42300D02*
D03*
D97*
X45292Y49333D02*
D03*
X42241D02*
D03*
D98*
X42783Y48251D02*
D03*
X44751D02*
D03*
D99*
X48150Y21950D02*
D03*
Y48800D02*
D03*
D100*
X38700Y46400D02*
D03*
X36700Y48900D02*
D03*
X38700D02*
D03*
Y42100D02*
D03*
X36700Y44600D02*
D03*
X38700D02*
D03*
D101*
X36700Y46400D02*
D03*
Y42100D02*
D03*
D102*
X47984Y38434D02*
D03*
Y40834D02*
D03*
D103*
Y37434D02*
D03*
Y39834D02*
D03*
D104*
X44353Y43496D02*
D03*
X43487D02*
D03*
X44353Y44362D02*
D03*
Y43929D02*
D03*
X43487Y44362D02*
D03*
Y43929D02*
D03*
X43920Y43496D02*
D03*
Y44362D02*
D03*
Y43929D02*
D03*
M02*
