G04*
G04 #@! TF.GenerationSoftware,Altium Limited,Altium Designer,22.11.1 (43)*
G04*
G04 Layer_Color=8388736*
%FSLAX24Y24*%
%MOIN*%
G70*
G04*
G04 #@! TF.SameCoordinates,95904809-8EA0-40D1-BC7C-4500F6FC4EB7*
G04*
G04*
G04 #@! TF.FilePolarity,Negative*
G04*
G01*
G75*
%ADD53R,0.1320X0.0710*%
%ADD54R,0.0690X0.1344*%
%ADD55C,0.0710*%
%ADD56R,0.0608X0.0395*%
%ADD57R,0.0237X0.0395*%
%ADD58R,0.0395X0.0454*%
%ADD59R,0.1655X0.1655*%
%ADD60R,0.0671X0.0474*%
%ADD61R,0.0474X0.0671*%
%ADD62R,0.0395X0.0395*%
%ADD63R,0.0257X0.0592*%
%ADD64R,0.0297X0.0434*%
%ADD65R,0.0434X0.0297*%
%ADD66R,0.0395X0.0395*%
%ADD67R,0.2245X0.0926*%
%ADD68R,0.0769X0.1852*%
%ADD69R,0.0789X0.1812*%
%ADD70R,0.0848X0.0572*%
%ADD71R,0.0572X0.0395*%
%ADD72O,0.0316X0.0651*%
%ADD73R,0.0454X0.0395*%
%ADD74O,0.0671X0.0316*%
%ADD75O,0.0651X0.0198*%
%ADD76O,0.0198X0.0651*%
%ADD77R,0.0474X0.0316*%
%ADD78R,0.0690X0.0907*%
%ADD79R,0.0580X0.0630*%
%ADD80R,0.0907X0.0690*%
%ADD81O,0.0493X0.0178*%
%ADD82O,0.0178X0.0493*%
%ADD83R,0.1312X0.1312*%
%ADD84R,0.0395X0.0237*%
%ADD85R,0.0533X0.0631*%
%ADD86C,0.0730*%
%ADD87R,0.0730X0.0730*%
%ADD88R,0.0630X0.0630*%
%ADD89C,0.0630*%
%ADD90C,0.0682*%
%ADD91C,0.1360*%
%ADD92C,0.1043*%
%ADD93R,0.0966X0.0966*%
%ADD94C,0.0966*%
%ADD95R,0.0730X0.0730*%
%ADD96O,0.0651X0.0867*%
%ADD97O,0.0533X0.0789*%
%ADD98C,0.0395*%
%ADD99C,0.1460*%
%ADD100C,0.0830*%
%ADD101R,0.0830X0.0830*%
%ADD102R,0.0671X0.0671*%
%ADD103C,0.0671*%
%ADD104C,0.0277*%
D53*
X14585Y27900D02*
D03*
X16515D02*
D03*
X19250Y36200D02*
D03*
X21179D02*
D03*
D54*
X16227Y25350D02*
D03*
X14573D02*
D03*
D55*
X14850Y21600D02*
D03*
X14450Y49100D02*
D03*
X16700D02*
D03*
X18350Y25100D02*
D03*
X45050Y22550D02*
D03*
X18350Y28100D02*
D03*
X33050Y22600D02*
D03*
X46500Y47200D02*
D03*
D56*
X35600Y33854D02*
D03*
Y33043D02*
D03*
D57*
X45846Y39657D02*
D03*
X46102D02*
D03*
X46358D02*
D03*
Y38811D02*
D03*
X45846D02*
D03*
X46102D02*
D03*
X40767Y45932D02*
D03*
Y45026D02*
D03*
D58*
X24099Y39000D02*
D03*
X24650D02*
D03*
X30026Y49050D02*
D03*
X29474D02*
D03*
X18624Y48400D02*
D03*
X19176D02*
D03*
X30001Y47800D02*
D03*
X29450D02*
D03*
X43777Y38934D02*
D03*
X44328D02*
D03*
X43777Y39534D02*
D03*
X44328D02*
D03*
X41441Y44479D02*
D03*
X41992D02*
D03*
X41441Y43279D02*
D03*
X41992D02*
D03*
X10849Y34398D02*
D03*
X11401D02*
D03*
D59*
X24478Y46426D02*
D03*
D60*
X28493Y49600D02*
D03*
X21407Y49600D02*
D03*
Y49009D02*
D03*
Y48419D02*
D03*
Y47828D02*
D03*
Y47238D02*
D03*
Y46647D02*
D03*
Y46057D02*
D03*
Y45466D02*
D03*
Y44876D02*
D03*
Y44285D02*
D03*
Y43694D02*
D03*
Y43104D02*
D03*
Y42513D02*
D03*
Y41923D02*
D03*
Y41332D02*
D03*
Y40742D02*
D03*
X28493Y49009D02*
D03*
Y48419D02*
D03*
Y47828D02*
D03*
Y47238D02*
D03*
Y46647D02*
D03*
Y46057D02*
D03*
Y45466D02*
D03*
Y44876D02*
D03*
Y44285D02*
D03*
Y43694D02*
D03*
Y43104D02*
D03*
Y42513D02*
D03*
Y41923D02*
D03*
Y41332D02*
D03*
Y40742D02*
D03*
D61*
X22293Y40300D02*
D03*
X22883D02*
D03*
X23474D02*
D03*
X24064D02*
D03*
X27607D02*
D03*
X27017D02*
D03*
X26426D02*
D03*
X25836D02*
D03*
X25245D02*
D03*
X24655D02*
D03*
D62*
X37959Y31300D02*
D03*
X38550D02*
D03*
X37395Y29500D02*
D03*
X36805D02*
D03*
X36195Y31900D02*
D03*
X35605D02*
D03*
X36195Y28300D02*
D03*
X35605D02*
D03*
X39359Y24700D02*
D03*
X39950D02*
D03*
X18535Y47750D02*
D03*
X19165D02*
D03*
X30041Y48400D02*
D03*
X29450D02*
D03*
X41155Y41200D02*
D03*
X41745D02*
D03*
X36195Y28900D02*
D03*
X35605D02*
D03*
X36195Y30700D02*
D03*
X35605D02*
D03*
X37395Y30100D02*
D03*
X36805D02*
D03*
X27163Y28550D02*
D03*
X27754D02*
D03*
X41992Y43879D02*
D03*
X41362D02*
D03*
X14130Y35600D02*
D03*
X13540D02*
D03*
X14764Y30969D02*
D03*
X14173D02*
D03*
X10820Y35100D02*
D03*
X11450D02*
D03*
D63*
X43255Y47837D02*
D03*
X43511D02*
D03*
X43767D02*
D03*
X44023D02*
D03*
X44279D02*
D03*
D64*
X35609Y30100D02*
D03*
X36200D02*
D03*
X35605Y29500D02*
D03*
X36195D02*
D03*
X36805Y28900D02*
D03*
X37395D02*
D03*
X35609Y27700D02*
D03*
X36200D02*
D03*
X35609Y27100D02*
D03*
X36200D02*
D03*
X36195Y31300D02*
D03*
X35605D02*
D03*
X38545Y30700D02*
D03*
X37955D02*
D03*
X38541Y28900D02*
D03*
X37950D02*
D03*
X37391Y28300D02*
D03*
X36800D02*
D03*
X37395Y26500D02*
D03*
X36805D02*
D03*
D65*
X32883Y25589D02*
D03*
Y24998D02*
D03*
X32249Y25589D02*
D03*
Y24998D02*
D03*
X31614Y25589D02*
D03*
Y24998D02*
D03*
X28509Y29645D02*
D03*
Y29055D02*
D03*
X33700Y33100D02*
D03*
Y33691D02*
D03*
X48600Y34645D02*
D03*
Y34055D02*
D03*
X48000D02*
D03*
Y34645D02*
D03*
D66*
X32550Y33745D02*
D03*
Y33155D02*
D03*
X32000Y33741D02*
D03*
Y33150D02*
D03*
X30900Y33155D02*
D03*
Y33745D02*
D03*
X29400Y30495D02*
D03*
Y29905D02*
D03*
X20400Y49595D02*
D03*
Y49005D02*
D03*
X18600Y49595D02*
D03*
Y49005D02*
D03*
X19200Y49595D02*
D03*
Y49005D02*
D03*
X19800Y49595D02*
D03*
Y49005D02*
D03*
X37952Y39579D02*
D03*
Y38989D02*
D03*
X37352Y39579D02*
D03*
Y38989D02*
D03*
X42402Y37789D02*
D03*
Y38379D02*
D03*
X44902Y38394D02*
D03*
Y38984D02*
D03*
X37952Y40729D02*
D03*
Y40139D02*
D03*
X44902Y40079D02*
D03*
Y39489D02*
D03*
X33100Y33155D02*
D03*
Y33745D02*
D03*
X36850D02*
D03*
Y33155D02*
D03*
X26609Y29050D02*
D03*
Y29641D02*
D03*
X36300Y33736D02*
D03*
Y33145D02*
D03*
X34900Y33741D02*
D03*
Y33150D02*
D03*
X34300Y33741D02*
D03*
Y33150D02*
D03*
X31450Y33745D02*
D03*
Y33155D02*
D03*
X30994Y49532D02*
D03*
Y48902D02*
D03*
X32732Y49532D02*
D03*
Y48902D02*
D03*
X34470Y49532D02*
D03*
Y48902D02*
D03*
X42017Y45670D02*
D03*
Y45079D02*
D03*
X41467Y45670D02*
D03*
Y45079D02*
D03*
D67*
X16900Y36808D02*
D03*
Y35292D02*
D03*
D68*
X21590Y32900D02*
D03*
X20310D02*
D03*
D69*
X17800Y33457D02*
D03*
Y30543D02*
D03*
D70*
X14368Y30100D02*
D03*
X15332D02*
D03*
D71*
X37500Y33894D02*
D03*
Y33106D02*
D03*
D72*
X13635Y32627D02*
D03*
X14135D02*
D03*
X14635D02*
D03*
X15135D02*
D03*
X13635Y34773D02*
D03*
X14135D02*
D03*
X14635D02*
D03*
X15135D02*
D03*
D73*
X36702Y40710D02*
D03*
Y40159D02*
D03*
X37352Y40710D02*
D03*
Y40159D02*
D03*
X37952Y37859D02*
D03*
Y38410D02*
D03*
X41752Y40059D02*
D03*
Y40610D02*
D03*
X43152Y38934D02*
D03*
Y38383D02*
D03*
Y40060D02*
D03*
Y39509D02*
D03*
X42402Y40059D02*
D03*
Y40610D02*
D03*
Y38959D02*
D03*
Y39510D02*
D03*
X48967Y45603D02*
D03*
Y46155D02*
D03*
Y44103D02*
D03*
Y44655D02*
D03*
X46467Y45353D02*
D03*
Y45905D02*
D03*
Y43829D02*
D03*
Y44380D02*
D03*
X31893Y48981D02*
D03*
Y49533D02*
D03*
X33631Y48981D02*
D03*
Y49533D02*
D03*
X35369Y48981D02*
D03*
Y49533D02*
D03*
X12850Y32824D02*
D03*
Y33376D02*
D03*
Y34024D02*
D03*
Y34576D02*
D03*
D74*
X38789Y39534D02*
D03*
Y40034D02*
D03*
Y39034D02*
D03*
Y38534D02*
D03*
X40915Y40034D02*
D03*
Y39534D02*
D03*
Y39034D02*
D03*
Y38534D02*
D03*
D75*
X33613Y28117D02*
D03*
Y28314D02*
D03*
Y28511D02*
D03*
Y28708D02*
D03*
Y28905D02*
D03*
Y29102D02*
D03*
Y29298D02*
D03*
Y29495D02*
D03*
Y29692D02*
D03*
Y29889D02*
D03*
Y30086D02*
D03*
Y30283D02*
D03*
X30287D02*
D03*
Y30086D02*
D03*
Y29889D02*
D03*
Y29692D02*
D03*
Y29495D02*
D03*
Y29298D02*
D03*
Y29102D02*
D03*
Y28905D02*
D03*
Y28708D02*
D03*
Y28511D02*
D03*
Y28314D02*
D03*
Y28117D02*
D03*
D76*
X33033Y30863D02*
D03*
X32836D02*
D03*
X32639D02*
D03*
X32442D02*
D03*
X32245D02*
D03*
X32048D02*
D03*
X31852D02*
D03*
X31655D02*
D03*
X31458D02*
D03*
X31261D02*
D03*
X31064D02*
D03*
X30867D02*
D03*
Y27537D02*
D03*
X31064D02*
D03*
X31261D02*
D03*
X31458D02*
D03*
X31655D02*
D03*
X31852D02*
D03*
X32048D02*
D03*
X32245D02*
D03*
X32442D02*
D03*
X32639D02*
D03*
X32836D02*
D03*
X33033D02*
D03*
D77*
X48299Y45599D02*
D03*
X47354Y45225D02*
D03*
Y45973D02*
D03*
X48289Y44079D02*
D03*
X47344Y43705D02*
D03*
Y44453D02*
D03*
D78*
X14650Y38232D02*
D03*
Y36500D02*
D03*
D79*
X15035Y31800D02*
D03*
X14135D02*
D03*
D80*
X16016Y23700D02*
D03*
X14284D02*
D03*
D81*
X44826Y44520D02*
D03*
Y44323D02*
D03*
Y44126D02*
D03*
Y43929D02*
D03*
Y43732D02*
D03*
Y43535D02*
D03*
Y43338D02*
D03*
X43014D02*
D03*
Y43535D02*
D03*
Y43732D02*
D03*
Y43929D02*
D03*
Y44126D02*
D03*
Y44323D02*
D03*
Y44520D02*
D03*
D82*
X44511Y43023D02*
D03*
X44314D02*
D03*
X44117D02*
D03*
X43920D02*
D03*
X43723D02*
D03*
X43526D02*
D03*
X43329D02*
D03*
Y44834D02*
D03*
X43526D02*
D03*
X43723D02*
D03*
X43920D02*
D03*
X44314D02*
D03*
X44511D02*
D03*
X44117D02*
D03*
D83*
X43920Y43929D02*
D03*
D84*
X44240Y46535D02*
D03*
Y46279D02*
D03*
Y46023D02*
D03*
X43394D02*
D03*
Y46535D02*
D03*
Y46279D02*
D03*
D85*
X27232Y29205D02*
D03*
X27862Y30071D02*
D03*
Y29205D02*
D03*
X27232Y30071D02*
D03*
D86*
X11600Y40878D02*
D03*
Y42256D02*
D03*
Y45012D02*
D03*
Y46390D02*
D03*
Y47768D02*
D03*
Y43634D02*
D03*
Y39500D02*
D03*
Y38122D02*
D03*
Y36744D02*
D03*
X11850Y32600D02*
D03*
X10850D02*
D03*
X11850Y31600D02*
D03*
Y27350D02*
D03*
X10850D02*
D03*
X11850Y26350D02*
D03*
X10850Y28350D02*
D03*
Y29350D02*
D03*
X11850Y28350D02*
D03*
Y29350D02*
D03*
X37250Y21750D02*
D03*
X38250D02*
D03*
X37250Y22750D02*
D03*
X38250D02*
D03*
X40250Y21750D02*
D03*
X39250Y22750D02*
D03*
Y21750D02*
D03*
X26456Y22300D02*
D03*
X25078D02*
D03*
X22322D02*
D03*
X20944D02*
D03*
X19566D02*
D03*
X23700D02*
D03*
X27834D02*
D03*
X29212D02*
D03*
X30590D02*
D03*
D87*
X11600Y49146D02*
D03*
X10850Y31600D02*
D03*
Y26350D02*
D03*
D88*
X42500Y27098D02*
D03*
D89*
X41500Y27598D02*
D03*
X42500Y28098D02*
D03*
X41500Y28598D02*
D03*
X42500Y29098D02*
D03*
X41500Y29598D02*
D03*
X42500Y30098D02*
D03*
X41500Y30598D02*
D03*
D90*
X46929Y26242D02*
D03*
Y27242D02*
D03*
Y31458D02*
D03*
Y30458D02*
D03*
D91*
X45000Y31100D02*
D03*
Y26600D02*
D03*
D92*
X43799Y31899D02*
D03*
Y25801D02*
D03*
D93*
X11850Y24034D02*
D03*
D94*
Y22066D02*
D03*
D95*
X40250Y22750D02*
D03*
X18188Y22300D02*
D03*
D96*
X45233Y47837D02*
D03*
X42300D02*
D03*
D97*
X45292Y49333D02*
D03*
X42241D02*
D03*
D98*
X42783Y48251D02*
D03*
X44751D02*
D03*
D99*
X48150Y21950D02*
D03*
Y48800D02*
D03*
D100*
X38700Y46400D02*
D03*
X36700Y48900D02*
D03*
X38700D02*
D03*
Y42100D02*
D03*
X36700Y44600D02*
D03*
X38700D02*
D03*
D101*
X36700Y46400D02*
D03*
Y42100D02*
D03*
D102*
X47984Y38434D02*
D03*
Y40834D02*
D03*
D103*
Y37434D02*
D03*
Y39834D02*
D03*
D104*
X44353Y43496D02*
D03*
X43487D02*
D03*
X44353Y44362D02*
D03*
Y43929D02*
D03*
X43487Y44362D02*
D03*
Y43929D02*
D03*
X43920Y43496D02*
D03*
Y44362D02*
D03*
Y43929D02*
D03*
M02*
