G04*
G04 #@! TF.GenerationSoftware,Altium Limited,Altium Designer,20.2.7 (254)*
G04*
G04 Layer_Color=255*
%FSLAX24Y24*%
%MOIN*%
G70*
G04*
G04 #@! TF.SameCoordinates,06D2D76E-F920-4485-92C8-392B035063E4*
G04*
G04*
G04 #@! TF.FilePolarity,Positive*
G04*
G01*
G75*
%ADD20R,0.0217X0.0354*%
%ADD21R,0.0315X0.0315*%
%ADD22R,0.0315X0.0315*%
%ADD23R,0.0315X0.0374*%
%ADD24R,0.0354X0.0217*%
%ADD25R,0.0390X0.0224*%
%ADD26R,0.0512X0.0354*%
%ADD27R,0.0374X0.0315*%
%ADD28R,0.0157X0.0315*%
%ADD29R,0.0394X0.0236*%
%ADD30R,0.0709X0.1732*%
%ADD31R,0.0610X0.0827*%
%ADD32O,0.0571X0.0236*%
%ADD33R,0.0550X0.0500*%
%ADD34R,0.0492X0.0768*%
%ADD35C,0.0630*%
%ADD36O,0.0591X0.0236*%
%ADD37O,0.0413X0.0098*%
%ADD38O,0.0098X0.0413*%
%ADD39R,0.1232X0.1232*%
%ADD40R,0.0315X0.0157*%
%ADD41R,0.0177X0.0512*%
%ADD42R,0.0591X0.0394*%
%ADD43R,0.0394X0.0591*%
%ADD44O,0.0551X0.0098*%
%ADD45O,0.0098X0.0551*%
%ADD46R,0.0551X0.0453*%
%ADD47R,0.1772X0.0689*%
%ADD48R,0.2165X0.0846*%
%ADD49R,0.0610X0.1264*%
%ADD50R,0.1240X0.0630*%
%ADD104C,0.0591*%
%ADD105R,0.0591X0.0591*%
%ADD106R,0.0750X0.0750*%
%ADD107C,0.0750*%
%ADD108R,0.1600X0.1000*%
%ADD109R,0.1000X0.1600*%
%ADD110C,0.0650*%
%ADD111R,0.0650X0.0650*%
%ADD112C,0.0315*%
%ADD113O,0.0453X0.0709*%
%ADD114O,0.0571X0.0787*%
%ADD115R,0.0650X0.0650*%
%ADD116R,0.0550X0.0550*%
%ADD117C,0.0550*%
%ADD118C,0.0602*%
%ADD119C,0.1280*%
%ADD120C,0.0963*%
%ADD121C,0.1380*%
D20*
X38295Y24250D02*
D03*
X37705D02*
D03*
X37705Y24850D02*
D03*
X38295D02*
D03*
X37705Y25450D02*
D03*
X38295D02*
D03*
X38295Y26050D02*
D03*
X37705D02*
D03*
X38295Y27250D02*
D03*
X37705D02*
D03*
X38295Y29050D02*
D03*
X37705D02*
D03*
X38295Y30250D02*
D03*
X37705D02*
D03*
X31805Y24600D02*
D03*
X32395D02*
D03*
X38345Y33250D02*
D03*
X37755D02*
D03*
D21*
Y26650D02*
D03*
X38345D02*
D03*
X38345Y27850D02*
D03*
X37755D02*
D03*
X38345Y28450D02*
D03*
X37755D02*
D03*
X38345Y29650D02*
D03*
X37755D02*
D03*
X38341Y30850D02*
D03*
X37750D02*
D03*
X38345Y31450D02*
D03*
X37755D02*
D03*
X38345Y32050D02*
D03*
X37755D02*
D03*
X38345Y32650D02*
D03*
X37755D02*
D03*
X32495Y22650D02*
D03*
X31905D02*
D03*
X25105Y36600D02*
D03*
X25695D02*
D03*
X41992Y43879D02*
D03*
X41362D02*
D03*
X14615Y35300D02*
D03*
X13985D02*
D03*
D22*
X33550Y23305D02*
D03*
Y23895D02*
D03*
X34150Y35191D02*
D03*
Y34600D02*
D03*
X32950Y35195D02*
D03*
Y34605D02*
D03*
X32350Y35195D02*
D03*
Y34605D02*
D03*
X30500Y35195D02*
D03*
Y34605D02*
D03*
X29120Y35205D02*
D03*
Y34615D02*
D03*
X27900Y35195D02*
D03*
Y34605D02*
D03*
X37702Y40839D02*
D03*
Y41429D02*
D03*
Y39689D02*
D03*
Y40279D02*
D03*
X37102Y39689D02*
D03*
Y40279D02*
D03*
X48824Y36135D02*
D03*
Y36765D02*
D03*
X47087Y36135D02*
D03*
Y36765D02*
D03*
X45349Y36135D02*
D03*
Y36765D02*
D03*
X44652Y39684D02*
D03*
Y39094D02*
D03*
Y40189D02*
D03*
Y40779D02*
D03*
X41500Y41855D02*
D03*
Y42445D02*
D03*
X42152Y39079D02*
D03*
Y38489D02*
D03*
X23650Y46900D02*
D03*
Y47491D02*
D03*
X19119Y46321D02*
D03*
Y46912D02*
D03*
X19250Y49015D02*
D03*
Y48385D02*
D03*
X14047Y38456D02*
D03*
Y37826D02*
D03*
X15850Y36555D02*
D03*
Y37145D02*
D03*
X15250Y36555D02*
D03*
Y37145D02*
D03*
X14650Y36555D02*
D03*
Y37145D02*
D03*
X14050Y36555D02*
D03*
Y37145D02*
D03*
X42017Y45670D02*
D03*
Y45079D02*
D03*
X41467Y45670D02*
D03*
Y45079D02*
D03*
X27350Y30845D02*
D03*
Y30255D02*
D03*
X30100Y23845D02*
D03*
Y23255D02*
D03*
X30700Y23845D02*
D03*
Y23255D02*
D03*
D23*
X25124Y35950D02*
D03*
X25676D02*
D03*
X41441Y44479D02*
D03*
X41992D02*
D03*
X41441Y43279D02*
D03*
X41992D02*
D03*
X44078Y39634D02*
D03*
X43527D02*
D03*
X44078Y40234D02*
D03*
X43527D02*
D03*
X15850Y35950D02*
D03*
X15299D02*
D03*
X14626D02*
D03*
X14074D02*
D03*
X19549Y26800D02*
D03*
X20100D02*
D03*
D24*
X34800Y35195D02*
D03*
Y34605D02*
D03*
X31750Y35145D02*
D03*
Y34555D02*
D03*
X31100Y34555D02*
D03*
Y35145D02*
D03*
D25*
X33550Y35156D02*
D03*
Y34550D02*
D03*
X28500Y35156D02*
D03*
Y34550D02*
D03*
D26*
X29800Y35374D02*
D03*
Y34626D02*
D03*
D27*
X36452Y40859D02*
D03*
Y41410D02*
D03*
X37102Y40859D02*
D03*
Y41410D02*
D03*
X37702Y39110D02*
D03*
Y38559D02*
D03*
X48967Y45603D02*
D03*
Y46155D02*
D03*
Y44103D02*
D03*
Y44655D02*
D03*
X46467Y45353D02*
D03*
Y45905D02*
D03*
Y43829D02*
D03*
Y44380D02*
D03*
X47926Y36686D02*
D03*
Y36134D02*
D03*
X46188Y36686D02*
D03*
Y36134D02*
D03*
X44450Y36686D02*
D03*
Y36134D02*
D03*
X42902Y40209D02*
D03*
Y40760D02*
D03*
Y39083D02*
D03*
Y39634D02*
D03*
X42152Y41310D02*
D03*
Y40759D02*
D03*
X41502Y41310D02*
D03*
Y40759D02*
D03*
X42152Y40210D02*
D03*
Y39659D02*
D03*
X21450Y48124D02*
D03*
Y48676D02*
D03*
X22100Y48676D02*
D03*
Y48124D02*
D03*
X18548Y48986D02*
D03*
Y48434D02*
D03*
X14759Y38377D02*
D03*
Y37826D02*
D03*
X25150Y37726D02*
D03*
Y37174D02*
D03*
X25800Y37726D02*
D03*
Y37174D02*
D03*
D28*
X40767Y45932D02*
D03*
Y45026D02*
D03*
X45596Y40357D02*
D03*
X45852D02*
D03*
X46108D02*
D03*
Y39511D02*
D03*
X45596D02*
D03*
X45852D02*
D03*
D29*
X48299Y45599D02*
D03*
X47354Y45225D02*
D03*
Y45973D02*
D03*
X48289Y44079D02*
D03*
X47344Y43705D02*
D03*
Y44453D02*
D03*
D30*
X29950Y45793D02*
D03*
Y48707D02*
D03*
D31*
X24800Y48166D02*
D03*
Y46434D02*
D03*
X17100Y47066D02*
D03*
Y45334D02*
D03*
X33500Y42066D02*
D03*
Y40334D02*
D03*
D32*
X22823Y45950D02*
D03*
Y46450D02*
D03*
Y46950D02*
D03*
Y47450D02*
D03*
X20677Y45950D02*
D03*
Y46450D02*
D03*
Y46950D02*
D03*
Y47450D02*
D03*
D33*
X19850Y46050D02*
D03*
Y46950D02*
D03*
D34*
X18300Y47082D02*
D03*
Y46118D02*
D03*
D35*
X10800Y46050D02*
D03*
X13600Y41050D02*
D03*
Y43150D02*
D03*
X40906Y22457D02*
D03*
X39286Y22457D02*
D03*
X32300Y39300D02*
D03*
X13446Y22692D02*
D03*
X33500Y44600D02*
D03*
X46500Y47200D02*
D03*
D36*
X40665Y39234D02*
D03*
Y39734D02*
D03*
Y40234D02*
D03*
Y40734D02*
D03*
X38539Y39234D02*
D03*
Y39734D02*
D03*
Y40734D02*
D03*
Y40234D02*
D03*
D37*
X44826Y44520D02*
D03*
Y44323D02*
D03*
Y44126D02*
D03*
Y43929D02*
D03*
Y43732D02*
D03*
Y43535D02*
D03*
Y43338D02*
D03*
X43014D02*
D03*
Y43535D02*
D03*
Y43732D02*
D03*
Y43929D02*
D03*
Y44126D02*
D03*
Y44323D02*
D03*
Y44520D02*
D03*
D38*
X44511Y43023D02*
D03*
X44314D02*
D03*
X44117D02*
D03*
X43920D02*
D03*
X43723D02*
D03*
X43526D02*
D03*
X43329D02*
D03*
Y44834D02*
D03*
X43526D02*
D03*
X43723D02*
D03*
X43920D02*
D03*
X44314D02*
D03*
X44511D02*
D03*
X44117D02*
D03*
D39*
X43920Y43929D02*
D03*
D40*
X44240Y46535D02*
D03*
Y46279D02*
D03*
Y46023D02*
D03*
X43394D02*
D03*
Y46535D02*
D03*
Y46279D02*
D03*
D41*
X44279Y47837D02*
D03*
X44023D02*
D03*
X43767D02*
D03*
X43511D02*
D03*
X43255D02*
D03*
D42*
X16850Y37156D02*
D03*
X23937Y37156D02*
D03*
X16850Y36565D02*
D03*
Y35974D02*
D03*
Y35384D02*
D03*
Y34793D02*
D03*
Y34203D02*
D03*
Y33612D02*
D03*
Y33022D02*
D03*
Y32431D02*
D03*
Y31841D02*
D03*
Y31250D02*
D03*
Y30659D02*
D03*
Y30069D02*
D03*
Y29478D02*
D03*
Y28888D02*
D03*
Y28297D02*
D03*
X23937Y36565D02*
D03*
Y35974D02*
D03*
Y35384D02*
D03*
Y34793D02*
D03*
Y34203D02*
D03*
Y33612D02*
D03*
Y33022D02*
D03*
Y32431D02*
D03*
Y31841D02*
D03*
Y31250D02*
D03*
Y30659D02*
D03*
Y30069D02*
D03*
Y29478D02*
D03*
Y28888D02*
D03*
Y28297D02*
D03*
D43*
X23051Y27856D02*
D03*
X17736D02*
D03*
X18326D02*
D03*
X18917D02*
D03*
X19507D02*
D03*
X22460D02*
D03*
X21870D02*
D03*
X21279D02*
D03*
X20689D02*
D03*
X20098D02*
D03*
D44*
X33594Y29844D02*
D03*
Y30001D02*
D03*
Y30474D02*
D03*
X29106Y30631D02*
D03*
X33594Y27954D02*
D03*
Y28111D02*
D03*
Y28269D02*
D03*
Y28426D02*
D03*
Y28584D02*
D03*
Y28741D02*
D03*
Y28899D02*
D03*
Y29056D02*
D03*
Y29214D02*
D03*
Y29371D02*
D03*
Y29529D02*
D03*
Y29686D02*
D03*
Y30159D02*
D03*
Y30316D02*
D03*
Y30631D02*
D03*
Y30789D02*
D03*
Y30946D02*
D03*
X29106D02*
D03*
Y30789D02*
D03*
Y30474D02*
D03*
Y30316D02*
D03*
Y30159D02*
D03*
Y30001D02*
D03*
Y29844D02*
D03*
Y29686D02*
D03*
Y29529D02*
D03*
Y29371D02*
D03*
Y29214D02*
D03*
Y29056D02*
D03*
Y28899D02*
D03*
Y28741D02*
D03*
Y28584D02*
D03*
Y28426D02*
D03*
Y28269D02*
D03*
Y28111D02*
D03*
Y27954D02*
D03*
D45*
X31114Y31694D02*
D03*
X30799D02*
D03*
X30641D02*
D03*
X30484D02*
D03*
X30326D02*
D03*
X30169Y27206D02*
D03*
X30326D02*
D03*
X30484D02*
D03*
X30956D02*
D03*
X32846Y31694D02*
D03*
X32689D02*
D03*
X32531D02*
D03*
X32374D02*
D03*
X32216D02*
D03*
X32059D02*
D03*
X31901D02*
D03*
X31744D02*
D03*
X31586D02*
D03*
X31429D02*
D03*
X31271D02*
D03*
X30956D02*
D03*
X30169D02*
D03*
X30011D02*
D03*
X29854D02*
D03*
Y27206D02*
D03*
X30011D02*
D03*
X30641D02*
D03*
X30799D02*
D03*
X31114D02*
D03*
X31271D02*
D03*
X31429D02*
D03*
X31586D02*
D03*
X31744D02*
D03*
X31901D02*
D03*
X32059D02*
D03*
X32216D02*
D03*
X32374D02*
D03*
X32531D02*
D03*
X32689D02*
D03*
X32846D02*
D03*
D46*
X31867Y23915D02*
D03*
X32733Y23285D02*
D03*
X31867D02*
D03*
X32733Y23915D02*
D03*
D47*
X33500Y48690D02*
D03*
Y47410D02*
D03*
D48*
X26750Y47958D02*
D03*
Y46442D02*
D03*
D49*
X16577Y43550D02*
D03*
X14923D02*
D03*
D50*
X30965Y43000D02*
D03*
X29035D02*
D03*
D104*
X47734Y40534D02*
D03*
Y38134D02*
D03*
D105*
Y41534D02*
D03*
Y39134D02*
D03*
D106*
X38700Y43550D02*
D03*
Y47150D02*
D03*
D107*
X36200Y45550D02*
D03*
Y43550D02*
D03*
X38700Y45550D02*
D03*
X36200Y49150D02*
D03*
Y47150D02*
D03*
X38700Y49150D02*
D03*
D108*
X14350Y45050D02*
D03*
Y47550D02*
D03*
D109*
X12350Y46050D02*
D03*
D110*
X11650Y26498D02*
D03*
Y27876D02*
D03*
Y29254D02*
D03*
Y33388D02*
D03*
Y37522D02*
D03*
Y36144D02*
D03*
Y34766D02*
D03*
Y32010D02*
D03*
Y30632D02*
D03*
X11800Y25000D02*
D03*
X10800D02*
D03*
X11800Y24000D02*
D03*
X10800Y40450D02*
D03*
Y41450D02*
D03*
X11800Y40450D02*
D03*
Y41450D02*
D03*
X10800Y43450D02*
D03*
X11800Y42450D02*
D03*
X10800D02*
D03*
X27968Y23400D02*
D03*
X26590D02*
D03*
X25212D02*
D03*
X21078D02*
D03*
X16944D02*
D03*
X18322D02*
D03*
X19700D02*
D03*
X22456D02*
D03*
X23834D02*
D03*
D111*
X11650Y38900D02*
D03*
X10800Y24000D02*
D03*
X11800Y43450D02*
D03*
D112*
X44751Y48251D02*
D03*
X42783D02*
D03*
D113*
X42241Y49333D02*
D03*
X45292D02*
D03*
D114*
X42300Y47837D02*
D03*
X45233D02*
D03*
D115*
X15566Y23400D02*
D03*
D116*
X42500Y27098D02*
D03*
D117*
X41500Y27598D02*
D03*
X42500Y28098D02*
D03*
X41500Y28598D02*
D03*
X42500Y29098D02*
D03*
X41500Y29598D02*
D03*
X42500Y30098D02*
D03*
X41500Y30598D02*
D03*
D118*
X46929Y26242D02*
D03*
Y27242D02*
D03*
Y31458D02*
D03*
Y30458D02*
D03*
D119*
X45000Y31100D02*
D03*
Y26600D02*
D03*
D120*
X43799Y31899D02*
D03*
Y25801D02*
D03*
D121*
X48150Y22600D02*
D03*
Y48800D02*
D03*
X11200D02*
D03*
Y22600D02*
D03*
M02*
