G04*
G04 #@! TF.GenerationSoftware,Altium Limited,Altium Designer,22.11.1 (43)*
G04*
G04 Layer_Color=65535*
%FSLAX24Y24*%
%MOIN*%
G70*
G04*
G04 #@! TF.SameCoordinates,87D651DC-2D2C-43A3-A13A-F7E35A12DA3B*
G04*
G04*
G04 #@! TF.FilePolarity,Positive*
G04*
G01*
G75*
%ADD10C,0.0098*%
%ADD11C,0.0100*%
%ADD12C,0.0118*%
%ADD13C,0.0079*%
%ADD14C,0.0039*%
%ADD15C,0.0060*%
%ADD16C,0.0236*%
%ADD17C,0.0050*%
%ADD18C,0.0070*%
%ADD19C,0.0040*%
D10*
X14093Y28412D02*
G03*
X14093Y28412I-49J0D01*
G01*
X45600Y38811D02*
G03*
X45600Y38811I-49J0D01*
G01*
X21770Y35688D02*
G03*
X21770Y35688I-49J0D01*
G01*
X18420Y33880D02*
G03*
X18420Y33880I-49J0D01*
G01*
X15519Y34773D02*
G03*
X15519Y34773I-49J0D01*
G01*
X38838Y40369D02*
G03*
X38838Y40369I-49J0D01*
G01*
X49490Y38434D02*
G03*
X49490Y38434I-49J0D01*
G01*
Y40834D02*
G03*
X49490Y40834I-49J0D01*
G01*
X33663Y27842D02*
G03*
X33663Y27842I-49J0D01*
G01*
X47403Y44890D02*
G03*
X47403Y44890I-49J0D01*
G01*
X47394Y43370D02*
G03*
X47394Y43370I-49J0D01*
G01*
X15221Y38705D02*
G03*
X15221Y38705I-49J0D01*
G01*
X13861Y24222D02*
G03*
X13861Y24222I-49J0D01*
G01*
X44953Y45228D02*
G03*
X44953Y45228I-49J0D01*
G01*
X43443Y46830D02*
G03*
X43443Y46830I-49J0D01*
G01*
D11*
X15559Y21600D02*
G03*
X15559Y21600I-709J0D01*
G01*
X15159Y49100D02*
G03*
X15159Y49100I-709J0D01*
G01*
X17409D02*
G03*
X17409Y49100I-709J0D01*
G01*
X19059Y25100D02*
G03*
X19059Y25100I-709J0D01*
G01*
X45759Y22550D02*
G03*
X45759Y22550I-709J0D01*
G01*
X19059Y28100D02*
G03*
X19059Y28100I-709J0D01*
G01*
X33759Y22600D02*
G03*
X33759Y22600I-709J0D01*
G01*
X47209Y47200D02*
G03*
X47209Y47200I-709J0D01*
G01*
X10300Y29900D02*
X12400D01*
X10300Y25800D02*
Y29900D01*
Y25800D02*
X12400D01*
Y29900D01*
X10300Y33150D02*
X12400D01*
Y31050D02*
Y33150D01*
X10300Y31050D02*
X12400D01*
X10300D02*
Y33150D01*
X44650Y36100D02*
Y37400D01*
X40550Y36100D02*
X44650D01*
X40550D02*
Y37400D01*
X42000D01*
X40800Y41600D02*
X45300D01*
Y37400D02*
Y41600D01*
X42000Y37400D02*
X45300D01*
X42000D02*
Y39650D01*
X41350D02*
X42000D01*
X41350D02*
Y40750D01*
X40800D02*
X41350D01*
X40800D02*
Y41600D01*
X35900Y37450D02*
X36250D01*
X35900Y35850D02*
Y37450D01*
Y35850D02*
X38350D01*
Y37450D01*
Y41000D02*
Y41100D01*
X36250D02*
X38350D01*
X36250Y37450D02*
Y41100D01*
Y37450D02*
X38350D01*
Y41000D01*
X20950Y24300D02*
X27050D01*
Y27150D01*
X26650D02*
X27050D01*
X20950Y23800D02*
Y24300D01*
X20300D02*
X20950D01*
X13600Y47350D02*
Y48000D01*
X13100Y47350D02*
X13600D01*
X15750Y41250D02*
Y41650D01*
X13600Y41250D02*
X16450D01*
X13600D02*
Y47350D01*
X28021Y49964D02*
X28523D01*
X28021Y40830D02*
Y49964D01*
X22647Y51116D02*
Y52120D01*
X22667D01*
X23454D01*
Y50309D02*
Y52120D01*
Y50309D02*
X24163D01*
Y52159D01*
X24920D01*
Y50309D02*
Y52159D01*
Y50309D02*
X25757D01*
Y52139D01*
X26574D01*
Y50299D02*
Y52139D01*
Y50299D02*
X27263D01*
Y52100D01*
X28277D01*
Y49964D02*
Y52100D01*
X21919Y49964D02*
X28021D01*
X21919Y40830D02*
Y49964D01*
X21446D02*
X21919D01*
X21446D02*
Y52572D01*
X28523D01*
Y49964D02*
Y52572D01*
X21919Y40830D02*
X28021D01*
X20300Y46000D02*
Y47300D01*
X18150Y46000D02*
X20300D01*
X18150D02*
Y47350D01*
X20800D02*
Y49900D01*
X18150Y47350D02*
X20800D01*
X18150D02*
Y49900D01*
X20800D01*
X30050Y46100D02*
Y47300D01*
X29050Y46100D02*
X30050D01*
X29050D02*
Y47350D01*
X30600D02*
Y49900D01*
X29050Y47350D02*
X30600D01*
X29050D02*
Y49900D01*
X30600D01*
D12*
X42579Y25307D02*
G03*
X42579Y25307I-59J0D01*
G01*
D13*
X21269Y50102D02*
G03*
X21269Y50102I-98J0D01*
G01*
X27291Y30524D02*
G03*
X27291Y30524I-39J0D01*
G01*
X14251Y27191D02*
X14841Y26601D01*
X14251Y28609D02*
X14841Y29199D01*
X16849Y28392D02*
Y29199D01*
Y26601D02*
Y27447D01*
X14841Y29199D02*
X16849D01*
X14841Y26601D02*
X16849D01*
X14251Y28353D02*
Y28609D01*
Y27191D02*
Y27447D01*
X14869Y24757D02*
X15932D01*
X14869Y25943D02*
X15932D01*
X13096Y36055D02*
Y49835D01*
X10222Y36055D02*
Y49835D01*
X13096D01*
X10222Y36055D02*
X13096D01*
X10817Y20845D02*
X11210D01*
X11122Y21082D02*
X11210Y20845D01*
X10817D02*
X10905Y21082D01*
X12978Y25255D02*
X13372D01*
X13283Y25018D02*
X13372Y25255D01*
X12978D02*
X13067Y25018D01*
X13425Y21082D02*
Y25018D01*
X10275Y21082D02*
Y25018D01*
X13283D02*
X13425D01*
X10275D02*
X13067D01*
X10275Y21082D02*
X10905D01*
X11122D02*
X13425D01*
X35824Y33350D02*
Y33547D01*
X35376Y33350D02*
Y33547D01*
X45689Y39352D02*
X46516D01*
X45689Y39116D02*
X46516D01*
Y39352D01*
X45689Y39116D02*
Y39352D01*
X36691Y21220D02*
Y23280D01*
Y21220D02*
X40809D01*
X36691Y23280D02*
X40809D01*
Y21220D02*
Y23280D01*
X42704Y47680D02*
X43039D01*
X42192Y48329D02*
Y48861D01*
X45342Y48329D02*
Y48861D01*
X44495Y47680D02*
X44830D01*
X35865Y30238D02*
X35944D01*
X35865Y29962D02*
X35944D01*
X35861Y29638D02*
X35939D01*
X35861Y29362D02*
X35939D01*
X37061Y29038D02*
X37139D01*
X37061Y28762D02*
X37139D01*
X35865Y27838D02*
X35944D01*
X35865Y27562D02*
X35944D01*
X35865Y27238D02*
X35944D01*
X35865Y26962D02*
X35944D01*
X33021Y25254D02*
Y25333D01*
X32745Y25254D02*
Y25333D01*
X32386Y25254D02*
Y25333D01*
X32111Y25254D02*
Y25333D01*
X31752Y25254D02*
Y25333D01*
X31476Y25254D02*
Y25333D01*
X28647Y29311D02*
Y29389D01*
X28371Y29311D02*
Y29389D01*
X15817Y35833D02*
Y36267D01*
X17983Y35833D02*
Y36267D01*
X21514Y36653D02*
Y36909D01*
Y35491D02*
Y35747D01*
X18915Y37499D02*
X20923D01*
X18915Y34901D02*
X20923D01*
X18915Y36653D02*
Y37499D01*
Y34901D02*
Y35708D01*
X20923Y34901D02*
X21514Y35491D01*
X20923Y37499D02*
X21514Y36909D01*
X20773Y33746D02*
X21127D01*
X20773Y32054D02*
X21127D01*
X18292Y30366D02*
X19434D01*
X16166D02*
X17347D01*
X19434D02*
Y32846D01*
X16166Y30366D02*
Y32846D01*
X18253Y33634D02*
X18646D01*
X16954D02*
X17347D01*
X18646D02*
X19434Y32846D01*
X16166D02*
X16954Y33634D01*
X33562Y33356D02*
Y33435D01*
X33838Y33356D02*
Y33435D01*
X37707Y33421D02*
Y33579D01*
X37293Y33421D02*
Y33579D01*
X13401Y33070D02*
Y34330D01*
X15369Y33070D02*
Y34330D01*
X13401Y33070D02*
X15369D01*
X13401Y34330D02*
X15369D01*
X39242Y38300D02*
Y40268D01*
X40462Y38300D02*
Y40268D01*
X39242D02*
X40462D01*
X39242Y38300D02*
X40462D01*
X46931Y36867D02*
X49273D01*
X46931D02*
Y39001D01*
X49273D01*
Y36867D02*
Y39001D01*
X46931Y39267D02*
X49273D01*
X46931D02*
Y41401D01*
X49273D01*
Y39267D02*
Y41401D01*
X17499Y23796D02*
X31279D01*
X17499Y20922D02*
X31279D01*
X17499D02*
Y23796D01*
X31279Y20922D02*
Y23796D01*
X33170Y27980D02*
Y30420D01*
X30730Y27980D02*
Y30420D01*
Y27980D02*
X33170D01*
X30730Y30420D02*
X33170D01*
X35861Y31162D02*
X35939D01*
X35861Y31438D02*
X35939D01*
X48738Y34311D02*
Y34389D01*
X48462Y34311D02*
Y34389D01*
X38211Y30562D02*
X38289D01*
X38211Y30838D02*
X38289D01*
X38206Y28762D02*
X38285D01*
X38206Y29038D02*
X38285D01*
X37056Y28162D02*
X37135D01*
X37056Y28438D02*
X37135D01*
X37061Y26362D02*
X37139D01*
X37061Y26638D02*
X37139D01*
X40964Y45833D02*
X41042D01*
X40964Y45125D02*
X41042D01*
X40491Y45833D02*
X40570D01*
X40491Y45125D02*
X40570D01*
X41042D02*
Y45833D01*
X40491Y45125D02*
Y45833D01*
X48102Y45009D02*
Y45323D01*
X47708Y45009D02*
X48102D01*
Y45875D02*
Y46190D01*
X47708D02*
X48102D01*
X48092Y43488D02*
Y43803D01*
X47699Y43488D02*
X48092D01*
Y44355D02*
Y44670D01*
X47699D02*
X48092D01*
X15201Y36283D02*
Y38449D01*
X14099Y36283D02*
Y38449D01*
X15113D02*
X15201D01*
X15113Y36283D02*
X15201D01*
X14099Y38449D02*
X14187D01*
X14099Y36283D02*
X14187D01*
X16233Y23149D02*
Y23237D01*
X14067Y23149D02*
Y23237D01*
X16233Y24163D02*
Y24251D01*
X14067Y24163D02*
Y24251D01*
Y23149D02*
X16233D01*
X14067Y24251D02*
X16233D01*
X42877Y44726D02*
Y44972D01*
X43123D01*
X42877Y42886D02*
Y43132D01*
Y42886D02*
X43123D01*
X44717D02*
X44963D01*
Y43132D01*
Y44726D02*
Y44972D01*
X44717D02*
X44963D01*
X43935Y45866D02*
Y46692D01*
X43699Y45866D02*
Y46692D01*
Y45866D02*
X43935D01*
X43699Y46692D02*
X43935D01*
X47862Y34311D02*
Y34389D01*
X48138Y34311D02*
Y34389D01*
D14*
X13942Y30546D02*
G03*
X13942Y30546I-20J0D01*
G01*
X40590Y44908D02*
G03*
X40590Y44908I-20J0D01*
G01*
D15*
X38150Y47650D02*
G03*
X38150Y47650I-500J0D01*
G01*
Y43350D02*
G03*
X38150Y43350I-500J0D01*
G01*
X24844Y38740D02*
X24884D01*
Y39260D01*
X23864D02*
X24884D01*
X23864Y38740D02*
Y39260D01*
Y38740D02*
X24844D01*
X37795Y31530D02*
X38785D01*
Y31070D02*
Y31530D01*
X37725Y31070D02*
X38785D01*
X37725D02*
Y31530D01*
X37795D01*
X29240Y49310D02*
X29280D01*
X29240Y48790D02*
Y49310D01*
Y48790D02*
X30260D01*
Y49310D01*
X29280D02*
X30260D01*
X36570Y29270D02*
X37560D01*
X36570D02*
Y29730D01*
X37629D01*
Y29270D02*
Y29730D01*
X37560Y29270D02*
X37629D01*
X35370Y31670D02*
X36360D01*
X35370D02*
Y32130D01*
X36429D01*
Y31670D02*
Y32130D01*
X36360Y31670D02*
X36429D01*
X36360Y28070D02*
X36429D01*
Y28530D01*
X35370D02*
X36429D01*
X35370Y28070D02*
Y28530D01*
Y28070D02*
X36360D01*
X32780Y32920D02*
Y33910D01*
X32320Y32920D02*
X32780D01*
X32320D02*
Y33979D01*
X32780D01*
Y33910D02*
Y33979D01*
X32230Y32915D02*
Y33905D01*
X31770Y32915D02*
X32230D01*
X31770D02*
Y33975D01*
X32230D01*
Y33905D02*
Y33975D01*
X30670Y32990D02*
Y33980D01*
X31130D01*
Y32921D02*
Y33980D01*
X30670Y32921D02*
X31130D01*
X30670D02*
Y32990D01*
X29170Y29740D02*
Y30730D01*
X29630D01*
Y29671D02*
Y30730D01*
X29170Y29671D02*
X29630D01*
X29170D02*
Y29740D01*
X13910Y29780D02*
Y30420D01*
Y29780D02*
X15790D01*
Y30420D01*
X13910D02*
X15790D01*
X40115Y24470D02*
X40184D01*
Y24930D01*
X39125D02*
X40184D01*
X39125Y24470D02*
Y24930D01*
Y24470D02*
X40115D01*
X18300Y47980D02*
X18350D01*
X18300Y47630D02*
Y47980D01*
Y47520D02*
Y47630D01*
Y47520D02*
X19400D01*
Y47980D01*
X18350D02*
X19400D01*
X19370Y48140D02*
X19410D01*
Y48660D01*
X18390D02*
X19410D01*
X18390Y48140D02*
Y48660D01*
Y48140D02*
X19370D01*
X20630Y49760D02*
Y49829D01*
X20170D02*
X20630D01*
X20170Y48770D02*
Y49829D01*
Y48770D02*
X20630D01*
Y49760D01*
X30205Y48170D02*
X30275D01*
Y48630D01*
X29215D02*
X30275D01*
X29215Y48170D02*
Y48630D01*
Y48170D02*
X30205D01*
X29216Y48060D02*
X29256D01*
X29216Y47540D02*
Y48060D01*
Y47540D02*
X30236D01*
Y48060D01*
X29256D02*
X30236D01*
X18830Y49760D02*
Y49829D01*
X18370D02*
X18830D01*
X18370Y48770D02*
Y49829D01*
Y48770D02*
X18830D01*
Y49760D01*
X19430D02*
Y49829D01*
X18970D02*
X19430D01*
X18970Y48770D02*
Y49829D01*
Y48770D02*
X19430D01*
Y49760D01*
X20030D02*
Y49829D01*
X19570D02*
X20030D01*
X19570Y48770D02*
Y49829D01*
Y48770D02*
X20030D01*
Y49760D01*
X36700Y46850D02*
Y48400D01*
X37250Y48800D02*
X38200D01*
X38700Y46860D02*
Y48400D01*
X37250Y46550D02*
X38200D01*
X36700Y42550D02*
Y44100D01*
X37250Y44500D02*
X38200D01*
X38700Y42560D02*
Y44100D01*
X37250Y42250D02*
X38200D01*
X36442Y39924D02*
Y39964D01*
Y39924D02*
X36962D01*
Y40944D01*
X36442D02*
X36962D01*
X36442Y39964D02*
Y40944D01*
X37722Y38755D02*
Y38824D01*
Y38755D02*
X38182D01*
Y39814D01*
X37722D02*
X38182D01*
X37722Y38824D02*
Y39814D01*
X37122Y38755D02*
Y38824D01*
Y38755D02*
X37582D01*
Y39814D01*
X37122D02*
X37582D01*
X37122Y38824D02*
Y39814D01*
X37092Y39924D02*
Y39964D01*
Y39924D02*
X37612D01*
Y40944D01*
X37092D02*
X37612D01*
X37092Y39964D02*
Y40944D01*
X38212Y38604D02*
Y38644D01*
X37692D02*
X38212D01*
X37692Y37624D02*
Y38644D01*
Y37624D02*
X38212D01*
Y38604D01*
X42172Y37555D02*
Y37624D01*
Y37555D02*
X42632D01*
Y38614D01*
X42172D02*
X42632D01*
X42172Y37624D02*
Y38614D01*
X42012Y40804D02*
Y40844D01*
X41492D02*
X42012D01*
X41492Y39824D02*
Y40844D01*
Y39824D02*
X42012D01*
Y40804D01*
X42892Y38149D02*
Y38189D01*
Y38149D02*
X43412D01*
Y39169D01*
X42892D02*
X43412D01*
X42892Y38189D02*
Y39169D01*
Y39274D02*
Y39314D01*
Y39274D02*
X43412D01*
Y40294D01*
X42892D02*
X43412D01*
X42892Y39314D02*
Y40294D01*
X44522Y38674D02*
X44562D01*
Y39194D01*
X43542D02*
X44562D01*
X43542Y38674D02*
Y39194D01*
Y38674D02*
X44522D01*
X44672Y38160D02*
Y38229D01*
Y38160D02*
X45132D01*
Y39219D01*
X44672D02*
X45132D01*
X44672Y38229D02*
Y39219D01*
X38182Y40894D02*
Y40963D01*
X37722D02*
X38182D01*
X37722Y39904D02*
Y40963D01*
Y39904D02*
X38182D01*
Y40894D01*
X42662Y40804D02*
Y40844D01*
X42142D02*
X42662D01*
X42142Y39824D02*
Y40844D01*
Y39824D02*
X42662D01*
Y40804D01*
Y39704D02*
Y39744D01*
X42142D02*
X42662D01*
X42142Y38724D02*
Y39744D01*
Y38724D02*
X42662D01*
Y39704D01*
X44522Y39274D02*
X44562D01*
Y39794D01*
X43542D02*
X44562D01*
X43542Y39274D02*
Y39794D01*
Y39274D02*
X44522D01*
X44672Y39255D02*
Y39324D01*
Y39255D02*
X45132D01*
Y40314D01*
X44672D02*
X45132D01*
X44672Y39324D02*
Y40314D01*
X40921Y41430D02*
X40990D01*
X40921Y40970D02*
Y41430D01*
Y40970D02*
X41980D01*
Y41430D01*
X40990D02*
X41980D01*
X33330Y33910D02*
Y33979D01*
X32870D02*
X33330D01*
X32870Y32920D02*
Y33979D01*
Y32920D02*
X33330D01*
Y33910D01*
X35371Y29130D02*
X35440D01*
X35371Y28670D02*
Y29130D01*
Y28670D02*
X36430D01*
Y29130D01*
X35440D02*
X36430D01*
X36360Y30470D02*
X36429D01*
Y30930D01*
X35370D02*
X36429D01*
X35370Y30470D02*
Y30930D01*
Y30470D02*
X36360D01*
X36570Y29870D02*
X37560D01*
X36570D02*
Y30330D01*
X37629D01*
Y29870D02*
Y30330D01*
X37560Y29870D02*
X37629D01*
X37080Y33910D02*
Y33979D01*
X36620D02*
X37080D01*
X36620Y32920D02*
Y33979D01*
Y32920D02*
X37080D01*
Y33910D01*
X26379Y28816D02*
Y28885D01*
Y28816D02*
X26839D01*
Y29875D01*
X26379D02*
X26839D01*
X26379Y28885D02*
Y29875D01*
X26930Y28780D02*
X26999D01*
X26930Y28320D02*
Y28780D01*
Y28320D02*
X27989D01*
Y28780D01*
X26999D02*
X27989D01*
X36530Y33901D02*
Y33970D01*
X36070D02*
X36530D01*
X36070Y32911D02*
Y33970D01*
Y32911D02*
X36530D01*
Y33901D01*
X34670Y32916D02*
Y32985D01*
Y32916D02*
X35130D01*
Y33975D01*
X34670D02*
X35130D01*
X34670Y32985D02*
Y33975D01*
X34070Y32916D02*
Y32985D01*
Y32916D02*
X34530D01*
Y33975D01*
X34070D02*
X34530D01*
X34070Y32985D02*
Y33975D01*
X31680Y33910D02*
Y33979D01*
X31220D02*
X31680D01*
X31220Y32920D02*
Y33979D01*
Y32920D02*
X31680D01*
Y33910D01*
X42187Y44219D02*
X42227D01*
Y44739D01*
X41207D02*
X42227D01*
X41207Y44219D02*
Y44739D01*
Y44219D02*
X42187D01*
X41127Y43649D02*
X42177D01*
X41127D02*
Y44109D01*
X42227D01*
Y43999D02*
Y44109D01*
Y43649D02*
Y43999D01*
X42177Y43649D02*
X42227D01*
X41247Y43539D02*
X42227D01*
Y43019D02*
Y43539D01*
X41207Y43019D02*
X42227D01*
X41207D02*
Y43539D01*
X41247D01*
X48707Y45409D02*
Y46389D01*
X49227D01*
Y45369D02*
Y46389D01*
X48707Y45369D02*
X49227D01*
X48707D02*
Y45409D01*
Y43909D02*
Y44889D01*
X49227D01*
Y43869D02*
Y44889D01*
X48707Y43869D02*
X49227D01*
X48707D02*
Y43909D01*
X46207Y45159D02*
Y46139D01*
X46727D01*
Y45119D02*
Y46139D01*
X46207Y45119D02*
X46727D01*
X46207D02*
Y45159D01*
Y43635D02*
Y44615D01*
X46727D01*
Y43595D02*
Y44615D01*
X46207Y43595D02*
X46727D01*
X46207D02*
Y43635D01*
X30764Y48667D02*
Y48717D01*
Y48667D02*
X31114D01*
X31224D01*
Y49767D01*
X30764D02*
X31224D01*
X30764Y48717D02*
Y49767D01*
X32153Y49727D02*
Y49767D01*
X31633D02*
X32153D01*
X31633Y48747D02*
Y49767D01*
Y48747D02*
X32153D01*
Y49727D01*
X32502Y48667D02*
Y48717D01*
Y48667D02*
X32852D01*
X32962D01*
Y49767D01*
X32502D02*
X32962D01*
X32502Y48717D02*
Y49767D01*
X33891Y49727D02*
Y49767D01*
X33371D02*
X33891D01*
X33371Y48747D02*
Y49767D01*
Y48747D02*
X33891D01*
Y49727D01*
X34240Y48667D02*
Y48717D01*
Y48667D02*
X34590D01*
X34700D01*
Y49767D01*
X34240D02*
X34700D01*
X34240Y48717D02*
Y49767D01*
X35629Y49727D02*
Y49767D01*
X35109D02*
X35629D01*
X35109Y48747D02*
Y49767D01*
Y48747D02*
X35629D01*
Y49727D01*
X13305Y35370D02*
X14295D01*
X13305D02*
Y35830D01*
X14364D01*
Y35370D02*
Y35830D01*
X14295Y35370D02*
X14364D01*
X12590Y32630D02*
Y33610D01*
X13110D01*
Y32590D02*
Y33610D01*
X12590Y32590D02*
X13110D01*
X12590D02*
Y32630D01*
Y33830D02*
Y34810D01*
X13110D01*
Y33790D02*
Y34810D01*
X12590Y33790D02*
X13110D01*
X12590D02*
Y33830D01*
X13938Y30739D02*
X14928D01*
X13938D02*
Y31199D01*
X14998D01*
Y30739D02*
Y31199D01*
X14928Y30739D02*
X14998D01*
X10655Y34658D02*
X11635D01*
Y34138D02*
Y34658D01*
X10615Y34138D02*
X11635D01*
X10615D02*
Y34658D01*
X10655D01*
X10585Y34870D02*
X11635D01*
X10585D02*
Y35330D01*
X11685D01*
Y35220D02*
Y35330D01*
Y34870D02*
Y35220D01*
X11635Y34870D02*
X11685D01*
X42247Y45834D02*
Y45904D01*
X41787D02*
X42247D01*
X41787Y44844D02*
Y45904D01*
Y44844D02*
X42247D01*
Y45834D01*
X41697D02*
Y45904D01*
X41237D02*
X41697D01*
X41237Y44844D02*
Y45904D01*
Y44844D02*
X41697D01*
Y45834D01*
X46560Y38310D02*
X46660D01*
X46610D01*
Y38610D01*
X46560Y38560D01*
Y40710D02*
X46660D01*
X46610D01*
Y41010D01*
X46560Y40960D01*
X12619Y26310D02*
X12819D01*
X12719Y26410D02*
Y26210D01*
X12919Y26160D02*
X13019D01*
X12969D01*
Y26460D01*
X12919Y26410D01*
X13369Y26160D02*
X13169D01*
X13369Y26360D01*
Y26410D01*
X13319Y26460D01*
X13219D01*
X13169Y26410D01*
X12819Y29460D02*
X12769Y29510D01*
X12669D01*
X12619Y29460D01*
Y29260D01*
X12669Y29210D01*
X12769D01*
X12819Y29260D01*
Y29360D01*
X12719D01*
X12919Y29210D02*
Y29510D01*
X13119Y29210D01*
Y29510D01*
X13219D02*
Y29210D01*
X13369D01*
X13419Y29260D01*
Y29460D01*
X13369Y29510D01*
X13219D01*
X12619Y27327D02*
X12819D01*
X12719Y27427D02*
Y27227D01*
X13119Y27477D02*
X12919D01*
Y27327D01*
X13019Y27377D01*
X13069D01*
X13119Y27327D01*
Y27227D01*
X13069Y27177D01*
X12969D01*
X12919Y27227D01*
X11689Y30838D02*
X11639Y30888D01*
X11539D01*
X11489Y30838D01*
Y30638D01*
X11539Y30588D01*
X11639D01*
X11689Y30638D01*
Y30738D01*
X11589D01*
X11789Y30588D02*
Y30888D01*
X11989Y30588D01*
Y30888D01*
X12089D02*
Y30588D01*
X12239D01*
X12289Y30638D01*
Y30838D01*
X12239Y30888D01*
X12089D01*
X11739Y33588D02*
X11689Y33638D01*
X11589D01*
X11539Y33588D01*
Y33388D01*
X11589Y33338D01*
X11689D01*
X11739Y33388D01*
Y33488D01*
X11639D01*
X11839Y33338D02*
Y33638D01*
X12039Y33338D01*
Y33638D01*
X12139D02*
Y33338D01*
X12289D01*
X12339Y33388D01*
Y33588D01*
X12289Y33638D01*
X12139D01*
X10590Y33620D02*
X10790D01*
X10690D01*
Y33320D01*
X10890Y33620D02*
X11090Y33320D01*
Y33620D02*
X10890Y33320D01*
X10560Y30560D02*
Y30860D01*
X10710D01*
X10760Y30810D01*
Y30710D01*
X10710Y30660D01*
X10560D01*
X10660D02*
X10760Y30560D01*
X10860Y30860D02*
X11060Y30560D01*
Y30860D02*
X10860Y30560D01*
X12819Y28443D02*
X12769Y28493D01*
X12669D01*
X12619Y28443D01*
Y28243D01*
X12669Y28193D01*
X12769D01*
X12819Y28243D01*
Y28343D01*
X12719D01*
X12919Y28193D02*
Y28493D01*
X13119Y28193D01*
Y28493D01*
X13219D02*
Y28193D01*
X13369D01*
X13419Y28243D01*
Y28443D01*
X13369Y28493D01*
X13219D01*
X12810Y25760D02*
Y25560D01*
X12910Y25460D01*
X13010Y25560D01*
Y25760D01*
X13310Y25710D02*
X13260Y25760D01*
X13160D01*
X13110Y25710D01*
Y25510D01*
X13160Y25460D01*
X13260D01*
X13310Y25510D01*
X13610Y25710D02*
X13560Y25760D01*
X13460D01*
X13410Y25710D01*
Y25510D01*
X13460Y25460D01*
X13560D01*
X13610Y25510D01*
X11560Y20960D02*
X11510Y21010D01*
X11410D01*
X11360Y20960D01*
Y20760D01*
X11410Y20710D01*
X11510D01*
X11560Y20760D01*
Y20860D01*
X11460D01*
X11660Y20710D02*
Y21010D01*
X11860Y20710D01*
Y21010D01*
X11960D02*
Y20710D01*
X12110D01*
X12160Y20760D01*
Y20960D01*
X12110Y21010D01*
X11960D01*
X10310Y25310D02*
Y25610D01*
X10460D01*
X10510Y25560D01*
Y25460D01*
X10460Y25410D01*
X10310D01*
X10610Y25610D02*
Y25310D01*
X10710Y25410D01*
X10810Y25310D01*
Y25610D01*
X10910Y25310D02*
Y25610D01*
X11060D01*
X11110Y25560D01*
Y25460D01*
X11060Y25410D01*
X10910D01*
X11010D02*
X11110Y25310D01*
X47710Y47310D02*
X47660Y47360D01*
X47560D01*
X47510Y47310D01*
Y47110D01*
X47560Y47060D01*
X47660D01*
X47710Y47110D01*
Y47210D01*
X47610D01*
X47810Y47060D02*
Y47360D01*
X48010Y47060D01*
Y47360D01*
X48110D02*
Y47060D01*
X48260D01*
X48310Y47110D01*
Y47310D01*
X48260Y47360D01*
X48110D01*
X16310Y47710D02*
X16360Y47760D01*
X16460D01*
X16510Y47710D01*
Y47660D01*
X16460Y47610D01*
X16410D01*
X16460D01*
X16510Y47560D01*
Y47510D01*
X16460Y47460D01*
X16360D01*
X16310Y47510D01*
X16610Y47760D02*
Y47560D01*
X16710Y47460D01*
X16810Y47560D01*
Y47760D01*
X16910Y47710D02*
X16960Y47760D01*
X17060D01*
X17110Y47710D01*
Y47660D01*
X17060Y47610D01*
X17010D01*
X17060D01*
X17110Y47560D01*
Y47510D01*
X17060Y47460D01*
X16960D01*
X16910Y47510D01*
X14260Y47760D02*
X14210Y47810D01*
X14110D01*
X14060Y47760D01*
Y47560D01*
X14110Y47510D01*
X14210D01*
X14260Y47560D01*
Y47660D01*
X14160D01*
X14360Y47510D02*
Y47810D01*
X14560Y47510D01*
Y47810D01*
X14660D02*
Y47510D01*
X14810D01*
X14860Y47560D01*
Y47760D01*
X14810Y47810D01*
X14660D01*
X19260Y25010D02*
X19360D01*
X19310D01*
Y25310D01*
X19260Y25260D01*
X19710Y25010D02*
X19510D01*
X19710Y25210D01*
Y25260D01*
X19660Y25310D01*
X19560D01*
X19510Y25260D01*
X19810Y25310D02*
Y25110D01*
X19910Y25010D01*
X20010Y25110D01*
Y25310D01*
X20110Y24960D02*
X20310D01*
X20410Y25310D02*
Y25010D01*
Y25160D01*
X20610D01*
Y25310D01*
Y25010D01*
X19460Y28310D02*
X19260D01*
Y28160D01*
X19360Y28210D01*
X19410D01*
X19460Y28160D01*
Y28060D01*
X19410Y28010D01*
X19310D01*
X19260Y28060D01*
X19560Y28310D02*
Y28110D01*
X19660Y28010D01*
X19760Y28110D01*
Y28310D01*
X19860Y27960D02*
X20060D01*
X20160Y28310D02*
Y28010D01*
Y28160D01*
X20360D01*
Y28310D01*
Y28010D01*
X15960Y21710D02*
X15910Y21760D01*
X15810D01*
X15760Y21710D01*
Y21510D01*
X15810Y21460D01*
X15910D01*
X15960Y21510D01*
Y21610D01*
X15860D01*
X16060Y21460D02*
Y21760D01*
X16260Y21460D01*
Y21760D01*
X16360D02*
Y21460D01*
X16510D01*
X16560Y21510D01*
Y21710D01*
X16510Y21760D01*
X16360D01*
X32860Y21560D02*
X32810Y21610D01*
X32710D01*
X32660Y21560D01*
Y21360D01*
X32710Y21310D01*
X32810D01*
X32860Y21360D01*
Y21460D01*
X32760D01*
X32960Y21310D02*
Y21610D01*
X33160Y21310D01*
Y21610D01*
X33260D02*
Y21310D01*
X33410D01*
X33460Y21360D01*
Y21560D01*
X33410Y21610D01*
X33260D01*
X44810Y21560D02*
X44760Y21610D01*
X44660D01*
X44610Y21560D01*
Y21360D01*
X44660Y21310D01*
X44760D01*
X44810Y21360D01*
Y21460D01*
X44710D01*
X44910Y21310D02*
Y21610D01*
X45110Y21310D01*
Y21610D01*
X45210D02*
Y21310D01*
X45360D01*
X45410Y21360D01*
Y21560D01*
X45360Y21610D01*
X45210D01*
X41210Y21860D02*
X41260Y21910D01*
X41360D01*
X41410Y21860D01*
Y21810D01*
X41360Y21760D01*
X41310D01*
X41360D01*
X41410Y21710D01*
Y21660D01*
X41360Y21610D01*
X41260D01*
X41210Y21660D01*
X41510Y21910D02*
Y21710D01*
X41610Y21610D01*
X41710Y21710D01*
Y21910D01*
X41810Y21860D02*
X41860Y21910D01*
X41960D01*
X42010Y21860D01*
Y21810D01*
X41960Y21760D01*
X41910D01*
X41960D01*
X42010Y21710D01*
Y21660D01*
X41960Y21610D01*
X41860D01*
X41810Y21660D01*
X41410Y22810D02*
X41360Y22860D01*
X41260D01*
X41210Y22810D01*
Y22610D01*
X41260Y22560D01*
X41360D01*
X41410Y22610D01*
Y22710D01*
X41310D01*
X41510Y22560D02*
Y22860D01*
X41710Y22560D01*
Y22860D01*
X41810D02*
Y22560D01*
X41960D01*
X42010Y22610D01*
Y22810D01*
X41960Y22860D01*
X41810D01*
X40460Y42460D02*
X40410Y42510D01*
X40310D01*
X40260Y42460D01*
Y42410D01*
X40310Y42360D01*
X40410D01*
X40460Y42310D01*
Y42260D01*
X40410Y42210D01*
X40310D01*
X40260Y42260D01*
X40560Y42510D02*
Y42260D01*
X40610Y42210D01*
X40710D01*
X40760Y42260D01*
Y42510D01*
X40860Y42210D02*
Y42510D01*
X41010D01*
X41060Y42460D01*
Y42360D01*
X41010Y42310D01*
X40860D01*
X41160Y42210D02*
Y42510D01*
X41310D01*
X41360Y42460D01*
Y42360D01*
X41310Y42310D01*
X41160D01*
X41660Y42510D02*
X41460D01*
Y42210D01*
X41660D01*
X41460Y42360D02*
X41560D01*
X41760Y42210D02*
Y42510D01*
X41959Y42210D01*
Y42510D01*
X42059D02*
Y42210D01*
X42209D01*
X42259Y42260D01*
Y42460D01*
X42209Y42510D01*
X42059D01*
X42659D02*
Y42210D01*
X42859D01*
X43159Y42510D02*
X42959D01*
Y42210D01*
X43159D01*
X42959Y42360D02*
X43059D01*
X43259Y42510D02*
Y42210D01*
X43409D01*
X43459Y42260D01*
Y42460D01*
X43409Y42510D01*
X43259D01*
X37010Y49460D02*
Y49760D01*
X37160D01*
X37210Y49710D01*
Y49610D01*
X37160Y49560D01*
X37010D01*
X37110D02*
X37210Y49460D01*
X37510Y49760D02*
X37310D01*
Y49460D01*
X37510D01*
X37310Y49610D02*
X37410D01*
X37810Y49710D02*
X37760Y49760D01*
X37660D01*
X37610Y49710D01*
Y49660D01*
X37660Y49610D01*
X37760D01*
X37810Y49560D01*
Y49510D01*
X37760Y49460D01*
X37660D01*
X37610Y49510D01*
X38110Y49760D02*
X37910D01*
Y49460D01*
X38110D01*
X37910Y49610D02*
X38010D01*
X38210Y49760D02*
X38410D01*
X38310D01*
Y49460D01*
X37110Y45460D02*
X37060Y45510D01*
X36960D01*
X36910Y45460D01*
Y45260D01*
X36960Y45210D01*
X37060D01*
X37110Y45260D01*
Y45360D01*
X37010D01*
X37210Y45210D02*
Y45510D01*
X37360D01*
X37410Y45460D01*
Y45360D01*
X37360Y45310D01*
X37210D01*
X37510Y45510D02*
X37610D01*
X37560D01*
Y45210D01*
X37510D01*
X37610D01*
X37910Y45510D02*
X37810D01*
X37760Y45460D01*
Y45260D01*
X37810Y45210D01*
X37910D01*
X37960Y45260D01*
Y45460D01*
X37910Y45510D01*
X38360Y45460D02*
X38410Y45510D01*
X38509D01*
X38559Y45460D01*
Y45260D01*
X38509Y45210D01*
X38410D01*
X38360Y45260D01*
Y45460D01*
X34340Y46110D02*
X34290Y46060D01*
Y45960D01*
X34340Y45910D01*
X34540D01*
X34590Y45960D01*
Y46060D01*
X34540Y46110D01*
X34440D01*
Y46010D01*
X34590Y46210D02*
X34290D01*
Y46360D01*
X34340Y46410D01*
X34440D01*
X34490Y46360D01*
Y46210D01*
X34290Y46510D02*
Y46610D01*
Y46560D01*
X34590D01*
Y46510D01*
Y46610D01*
X34290Y46910D02*
Y46810D01*
X34340Y46760D01*
X34540D01*
X34590Y46810D01*
Y46910D01*
X34540Y46960D01*
X34340D01*
X34290Y46910D01*
X34590Y47509D02*
X34290D01*
X34440Y47360D01*
Y47559D01*
X34340Y47659D02*
X34290Y47709D01*
Y47809D01*
X34340Y47859D01*
X34540D01*
X34590Y47809D01*
Y47709D01*
X34540Y47659D01*
X34340D01*
X32622Y46160D02*
X32572Y46110D01*
Y46010D01*
X32622Y45960D01*
X32822D01*
X32872Y46010D01*
Y46110D01*
X32822Y46160D01*
X32722D01*
Y46060D01*
X32872Y46260D02*
X32572D01*
Y46410D01*
X32622Y46460D01*
X32722D01*
X32772Y46410D01*
Y46260D01*
X32572Y46560D02*
Y46660D01*
Y46610D01*
X32872D01*
Y46560D01*
Y46660D01*
X32572Y46960D02*
Y46860D01*
X32622Y46810D01*
X32822D01*
X32872Y46860D01*
Y46960D01*
X32822Y47010D01*
X32622D01*
X32572Y46960D01*
X32872Y47559D02*
X32572D01*
X32722Y47410D01*
Y47609D01*
X32572Y47909D02*
Y47709D01*
X32722D01*
X32672Y47809D01*
Y47859D01*
X32722Y47909D01*
X32822D01*
X32872Y47859D01*
Y47759D01*
X32822Y47709D01*
X30922Y46110D02*
X30872Y46060D01*
Y45960D01*
X30922Y45910D01*
X31122D01*
X31172Y45960D01*
Y46060D01*
X31122Y46110D01*
X31022D01*
Y46010D01*
X31172Y46210D02*
X30872D01*
Y46360D01*
X30922Y46410D01*
X31022D01*
X31072Y46360D01*
Y46210D01*
X30872Y46510D02*
Y46610D01*
Y46560D01*
X31172D01*
Y46510D01*
Y46610D01*
X30872Y46910D02*
Y46810D01*
X30922Y46760D01*
X31122D01*
X31172Y46810D01*
Y46910D01*
X31122Y46960D01*
X30922D01*
X30872Y46910D01*
X31172Y47360D02*
Y47460D01*
Y47410D01*
X30872D01*
X30922Y47360D01*
X20922Y24860D02*
X20872Y24810D01*
Y24710D01*
X20922Y24660D01*
X21122D01*
X21172Y24710D01*
Y24810D01*
X21122Y24860D01*
X21022D01*
Y24760D01*
X21172Y24960D02*
X20872D01*
Y25110D01*
X20922Y25160D01*
X21022D01*
X21072Y25110D01*
Y24960D01*
X20872Y25260D02*
Y25360D01*
Y25310D01*
X21172D01*
Y25260D01*
Y25360D01*
X20872Y25660D02*
Y25560D01*
X20922Y25510D01*
X21122D01*
X21172Y25560D01*
Y25660D01*
X21122Y25710D01*
X20922D01*
X20872Y25660D01*
X21172Y26110D02*
Y26209D01*
Y26160D01*
X20872D01*
X20922Y26110D01*
X21172Y26559D02*
Y26359D01*
X20972Y26559D01*
X20922D01*
X20872Y26509D01*
Y26409D01*
X20922Y26359D01*
X21524Y24860D02*
X21474Y24810D01*
Y24710D01*
X21524Y24660D01*
X21724D01*
X21774Y24710D01*
Y24810D01*
X21724Y24860D01*
X21624D01*
Y24760D01*
X21774Y24960D02*
X21474D01*
Y25110D01*
X21524Y25160D01*
X21624D01*
X21674Y25110D01*
Y24960D01*
X21474Y25260D02*
Y25360D01*
Y25310D01*
X21774D01*
Y25260D01*
Y25360D01*
X21474Y25660D02*
Y25560D01*
X21524Y25510D01*
X21724D01*
X21774Y25560D01*
Y25660D01*
X21724Y25710D01*
X21524D01*
X21474Y25660D01*
X21774Y26110D02*
Y26209D01*
Y26160D01*
X21474D01*
X21524Y26110D01*
Y26359D02*
X21474Y26409D01*
Y26509D01*
X21524Y26559D01*
X21574D01*
X21624Y26509D01*
Y26459D01*
Y26509D01*
X21674Y26559D01*
X21724D01*
X21774Y26509D01*
Y26409D01*
X21724Y26359D01*
X22126Y24860D02*
X22076Y24810D01*
Y24710D01*
X22126Y24660D01*
X22326D01*
X22376Y24710D01*
Y24810D01*
X22326Y24860D01*
X22226D01*
Y24760D01*
X22376Y24960D02*
X22076D01*
Y25110D01*
X22126Y25160D01*
X22226D01*
X22276Y25110D01*
Y24960D01*
X22076Y25260D02*
Y25360D01*
Y25310D01*
X22376D01*
Y25260D01*
Y25360D01*
X22076Y25660D02*
Y25560D01*
X22126Y25510D01*
X22326D01*
X22376Y25560D01*
Y25660D01*
X22326Y25710D01*
X22126D01*
X22076Y25660D01*
X22376Y26110D02*
Y26209D01*
Y26160D01*
X22076D01*
X22126Y26110D01*
X22376Y26509D02*
X22076D01*
X22226Y26359D01*
Y26559D01*
X23932Y24860D02*
X23882Y24810D01*
Y24710D01*
X23932Y24660D01*
X24132D01*
X24182Y24710D01*
Y24810D01*
X24132Y24860D01*
X24032D01*
Y24760D01*
X24182Y24960D02*
X23882D01*
Y25110D01*
X23932Y25160D01*
X24032D01*
X24082Y25110D01*
Y24960D01*
X23882Y25260D02*
Y25360D01*
Y25310D01*
X24182D01*
Y25260D01*
Y25360D01*
X23882Y25660D02*
Y25560D01*
X23932Y25510D01*
X24132D01*
X24182Y25560D01*
Y25660D01*
X24132Y25710D01*
X23932D01*
X23882Y25660D01*
X24182Y26110D02*
Y26209D01*
Y26160D01*
X23882D01*
X23932Y26110D01*
X24132Y26359D02*
X24182Y26409D01*
Y26509D01*
X24132Y26559D01*
X23932D01*
X23882Y26509D01*
Y26409D01*
X23932Y26359D01*
X23982D01*
X24032Y26409D01*
Y26559D01*
X23330Y24860D02*
X23280Y24810D01*
Y24710D01*
X23330Y24660D01*
X23530D01*
X23580Y24710D01*
Y24810D01*
X23530Y24860D01*
X23430D01*
Y24760D01*
X23580Y24960D02*
X23280D01*
Y25110D01*
X23330Y25160D01*
X23430D01*
X23480Y25110D01*
Y24960D01*
X23280Y25260D02*
Y25360D01*
Y25310D01*
X23580D01*
Y25260D01*
Y25360D01*
X23280Y25660D02*
Y25560D01*
X23330Y25510D01*
X23530D01*
X23580Y25560D01*
Y25660D01*
X23530Y25710D01*
X23330D01*
X23280Y25660D01*
X23580Y26110D02*
Y26209D01*
Y26160D01*
X23280D01*
X23330Y26110D01*
X23280Y26559D02*
X23330Y26459D01*
X23430Y26359D01*
X23530D01*
X23580Y26409D01*
Y26509D01*
X23530Y26559D01*
X23480D01*
X23430Y26509D01*
Y26359D01*
X22728Y24860D02*
X22678Y24810D01*
Y24710D01*
X22728Y24660D01*
X22928D01*
X22978Y24710D01*
Y24810D01*
X22928Y24860D01*
X22828D01*
Y24760D01*
X22978Y24960D02*
X22678D01*
Y25110D01*
X22728Y25160D01*
X22828D01*
X22878Y25110D01*
Y24960D01*
X22678Y25260D02*
Y25360D01*
Y25310D01*
X22978D01*
Y25260D01*
Y25360D01*
X22678Y25660D02*
Y25560D01*
X22728Y25510D01*
X22928D01*
X22978Y25560D01*
Y25660D01*
X22928Y25710D01*
X22728D01*
X22678Y25660D01*
X22978Y26110D02*
Y26209D01*
Y26160D01*
X22678D01*
X22728Y26110D01*
X22678Y26559D02*
Y26359D01*
X22828D01*
X22778Y26459D01*
Y26509D01*
X22828Y26559D01*
X22928D01*
X22978Y26509D01*
Y26409D01*
X22928Y26359D01*
X26340Y24860D02*
X26290Y24810D01*
Y24710D01*
X26340Y24660D01*
X26540D01*
X26590Y24710D01*
Y24810D01*
X26540Y24860D01*
X26440D01*
Y24760D01*
X26590Y24960D02*
X26290D01*
Y25110D01*
X26340Y25160D01*
X26440D01*
X26490Y25110D01*
Y24960D01*
X26290Y25260D02*
Y25360D01*
Y25310D01*
X26590D01*
Y25260D01*
Y25360D01*
X26290Y25660D02*
Y25560D01*
X26340Y25510D01*
X26540D01*
X26590Y25560D01*
Y25660D01*
X26540Y25710D01*
X26340D01*
X26290Y25660D01*
X26340Y26110D02*
X26290Y26160D01*
Y26259D01*
X26340Y26309D01*
X26390D01*
X26440Y26259D01*
Y26209D01*
Y26259D01*
X26490Y26309D01*
X26540D01*
X26590Y26259D01*
Y26160D01*
X26540Y26110D01*
X26340Y26409D02*
X26290Y26459D01*
Y26559D01*
X26340Y26609D01*
X26390D01*
X26440Y26559D01*
Y26509D01*
Y26559D01*
X26490Y26609D01*
X26540D01*
X26590Y26559D01*
Y26459D01*
X26540Y26409D01*
X25738Y24860D02*
X25688Y24810D01*
Y24710D01*
X25738Y24660D01*
X25938D01*
X25988Y24710D01*
Y24810D01*
X25938Y24860D01*
X25838D01*
Y24760D01*
X25988Y24960D02*
X25688D01*
Y25110D01*
X25738Y25160D01*
X25838D01*
X25888Y25110D01*
Y24960D01*
X25688Y25260D02*
Y25360D01*
Y25310D01*
X25988D01*
Y25260D01*
Y25360D01*
X25688Y25660D02*
Y25560D01*
X25738Y25510D01*
X25938D01*
X25988Y25560D01*
Y25660D01*
X25938Y25710D01*
X25738D01*
X25688Y25660D01*
X25988Y26309D02*
Y26110D01*
X25788Y26309D01*
X25738D01*
X25688Y26259D01*
Y26160D01*
X25738Y26110D01*
X25688Y26609D02*
X25738Y26509D01*
X25838Y26409D01*
X25938D01*
X25988Y26459D01*
Y26559D01*
X25938Y26609D01*
X25888D01*
X25838Y26559D01*
Y26409D01*
X25136Y24860D02*
X25086Y24810D01*
Y24710D01*
X25136Y24660D01*
X25336D01*
X25386Y24710D01*
Y24810D01*
X25336Y24860D01*
X25236D01*
Y24760D01*
X25386Y24960D02*
X25086D01*
Y25110D01*
X25136Y25160D01*
X25236D01*
X25286Y25110D01*
Y24960D01*
X25086Y25260D02*
Y25360D01*
Y25310D01*
X25386D01*
Y25260D01*
Y25360D01*
X25086Y25660D02*
Y25560D01*
X25136Y25510D01*
X25336D01*
X25386Y25560D01*
Y25660D01*
X25336Y25710D01*
X25136D01*
X25086Y25660D01*
X25386Y26309D02*
Y26110D01*
X25186Y26309D01*
X25136D01*
X25086Y26259D01*
Y26160D01*
X25136Y26110D01*
X25386Y26409D02*
Y26509D01*
Y26459D01*
X25086D01*
X25136Y26409D01*
X24534Y24860D02*
X24484Y24810D01*
Y24710D01*
X24534Y24660D01*
X24734D01*
X24784Y24710D01*
Y24810D01*
X24734Y24860D01*
X24634D01*
Y24760D01*
X24784Y24960D02*
X24484D01*
Y25110D01*
X24534Y25160D01*
X24634D01*
X24684Y25110D01*
Y24960D01*
X24484Y25260D02*
Y25360D01*
Y25310D01*
X24784D01*
Y25260D01*
Y25360D01*
X24484Y25660D02*
Y25560D01*
X24534Y25510D01*
X24734D01*
X24784Y25560D01*
Y25660D01*
X24734Y25710D01*
X24534D01*
X24484Y25660D01*
X24784Y26309D02*
Y26110D01*
X24584Y26309D01*
X24534D01*
X24484Y26259D01*
Y26160D01*
X24534Y26110D01*
Y26409D02*
X24484Y26459D01*
Y26559D01*
X24534Y26609D01*
X24734D01*
X24784Y26559D01*
Y26459D01*
X24734Y26409D01*
X24534D01*
X14160Y43616D02*
X14110Y43666D01*
X14010D01*
X13960Y43616D01*
Y43416D01*
X14010Y43366D01*
X14110D01*
X14160Y43416D01*
Y43516D01*
X14060D01*
X14260Y43366D02*
Y43666D01*
X14410D01*
X14460Y43616D01*
Y43516D01*
X14410Y43466D01*
X14260D01*
X14560Y43666D02*
X14660D01*
X14610D01*
Y43366D01*
X14560D01*
X14660D01*
X14960Y43666D02*
X14860D01*
X14810Y43616D01*
Y43416D01*
X14860Y43366D01*
X14960D01*
X15010Y43416D01*
Y43616D01*
X14960Y43666D01*
X15410Y43616D02*
X15460Y43666D01*
X15559D01*
X15609Y43616D01*
Y43566D01*
X15559Y43516D01*
X15609Y43466D01*
Y43416D01*
X15559Y43366D01*
X15460D01*
X15410Y43416D01*
Y43466D01*
X15460Y43516D01*
X15410Y43566D01*
Y43616D01*
X15460Y43516D02*
X15559D01*
X14160Y43014D02*
X14110Y43064D01*
X14010D01*
X13960Y43014D01*
Y42814D01*
X14010Y42764D01*
X14110D01*
X14160Y42814D01*
Y42914D01*
X14060D01*
X14260Y42764D02*
Y43064D01*
X14410D01*
X14460Y43014D01*
Y42914D01*
X14410Y42864D01*
X14260D01*
X14560Y43064D02*
X14660D01*
X14610D01*
Y42764D01*
X14560D01*
X14660D01*
X14960Y43064D02*
X14860D01*
X14810Y43014D01*
Y42814D01*
X14860Y42764D01*
X14960D01*
X15010Y42814D01*
Y43014D01*
X14960Y43064D01*
X15410Y42814D02*
X15460Y42764D01*
X15559D01*
X15609Y42814D01*
Y43014D01*
X15559Y43064D01*
X15460D01*
X15410Y43014D01*
Y42964D01*
X15460Y42914D01*
X15609D01*
X14160Y42412D02*
X14110Y42462D01*
X14010D01*
X13960Y42412D01*
Y42212D01*
X14010Y42162D01*
X14110D01*
X14160Y42212D01*
Y42312D01*
X14060D01*
X14260Y42162D02*
Y42462D01*
X14410D01*
X14460Y42412D01*
Y42312D01*
X14410Y42262D01*
X14260D01*
X14560Y42462D02*
X14660D01*
X14610D01*
Y42162D01*
X14560D01*
X14660D01*
X14960Y42462D02*
X14860D01*
X14810Y42412D01*
Y42212D01*
X14860Y42162D01*
X14960D01*
X15010Y42212D01*
Y42412D01*
X14960Y42462D01*
X15410Y42162D02*
X15510D01*
X15460D01*
Y42462D01*
X15410Y42412D01*
X15659D02*
X15709Y42462D01*
X15809D01*
X15859Y42412D01*
Y42212D01*
X15809Y42162D01*
X15709D01*
X15659Y42212D01*
Y42412D01*
X14160Y41810D02*
X14110Y41860D01*
X14010D01*
X13960Y41810D01*
Y41610D01*
X14010Y41560D01*
X14110D01*
X14160Y41610D01*
Y41710D01*
X14060D01*
X14260Y41560D02*
Y41860D01*
X14410D01*
X14460Y41810D01*
Y41710D01*
X14410Y41660D01*
X14260D01*
X14560Y41860D02*
X14660D01*
X14610D01*
Y41560D01*
X14560D01*
X14660D01*
X14960Y41860D02*
X14860D01*
X14810Y41810D01*
Y41610D01*
X14860Y41560D01*
X14960D01*
X15010Y41610D01*
Y41810D01*
X14960Y41860D01*
X15410Y41560D02*
X15510D01*
X15460D01*
Y41860D01*
X15410Y41810D01*
X15659Y41560D02*
X15759D01*
X15709D01*
Y41860D01*
X15659Y41810D01*
X14160Y45422D02*
X14110Y45472D01*
X14010D01*
X13960Y45422D01*
Y45222D01*
X14010Y45172D01*
X14110D01*
X14160Y45222D01*
Y45322D01*
X14060D01*
X14260Y45172D02*
Y45472D01*
X14410D01*
X14460Y45422D01*
Y45322D01*
X14410Y45272D01*
X14260D01*
X14560Y45472D02*
X14660D01*
X14610D01*
Y45172D01*
X14560D01*
X14660D01*
X14960Y45472D02*
X14860D01*
X14810Y45422D01*
Y45222D01*
X14860Y45172D01*
X14960D01*
X15010Y45222D01*
Y45422D01*
X14960Y45472D01*
X15609D02*
X15410D01*
Y45322D01*
X15510Y45372D01*
X15559D01*
X15609Y45322D01*
Y45222D01*
X15559Y45172D01*
X15460D01*
X15410Y45222D01*
X14160Y44820D02*
X14110Y44870D01*
X14010D01*
X13960Y44820D01*
Y44620D01*
X14010Y44570D01*
X14110D01*
X14160Y44620D01*
Y44720D01*
X14060D01*
X14260Y44570D02*
Y44870D01*
X14410D01*
X14460Y44820D01*
Y44720D01*
X14410Y44670D01*
X14260D01*
X14560Y44870D02*
X14660D01*
X14610D01*
Y44570D01*
X14560D01*
X14660D01*
X14960Y44870D02*
X14860D01*
X14810Y44820D01*
Y44620D01*
X14860Y44570D01*
X14960D01*
X15010Y44620D01*
Y44820D01*
X14960Y44870D01*
X15609D02*
X15510Y44820D01*
X15410Y44720D01*
Y44620D01*
X15460Y44570D01*
X15559D01*
X15609Y44620D01*
Y44670D01*
X15559Y44720D01*
X15410D01*
X14160Y44218D02*
X14110Y44268D01*
X14010D01*
X13960Y44218D01*
Y44018D01*
X14010Y43968D01*
X14110D01*
X14160Y44018D01*
Y44118D01*
X14060D01*
X14260Y43968D02*
Y44268D01*
X14410D01*
X14460Y44218D01*
Y44118D01*
X14410Y44068D01*
X14260D01*
X14560Y44268D02*
X14660D01*
X14610D01*
Y43968D01*
X14560D01*
X14660D01*
X14960Y44268D02*
X14860D01*
X14810Y44218D01*
Y44018D01*
X14860Y43968D01*
X14960D01*
X15010Y44018D01*
Y44218D01*
X14960Y44268D01*
X15410D02*
X15609D01*
Y44218D01*
X15410Y44018D01*
Y43968D01*
X14160Y46024D02*
X14110Y46074D01*
X14010D01*
X13960Y46024D01*
Y45824D01*
X14010Y45774D01*
X14110D01*
X14160Y45824D01*
Y45924D01*
X14060D01*
X14260Y45774D02*
Y46074D01*
X14410D01*
X14460Y46024D01*
Y45924D01*
X14410Y45874D01*
X14260D01*
X14560Y46074D02*
X14660D01*
X14610D01*
Y45774D01*
X14560D01*
X14660D01*
X14960Y46074D02*
X14860D01*
X14810Y46024D01*
Y45824D01*
X14860Y45774D01*
X14960D01*
X15010Y45824D01*
Y46024D01*
X14960Y46074D01*
X15559Y45774D02*
Y46074D01*
X15410Y45924D01*
X15609D01*
X14160Y46626D02*
X14110Y46676D01*
X14010D01*
X13960Y46626D01*
Y46426D01*
X14010Y46376D01*
X14110D01*
X14160Y46426D01*
Y46526D01*
X14060D01*
X14260Y46376D02*
Y46676D01*
X14410D01*
X14460Y46626D01*
Y46526D01*
X14410Y46476D01*
X14260D01*
X14560Y46676D02*
X14660D01*
X14610D01*
Y46376D01*
X14560D01*
X14660D01*
X14960Y46676D02*
X14860D01*
X14810Y46626D01*
Y46426D01*
X14860Y46376D01*
X14960D01*
X15010Y46426D01*
Y46626D01*
X14960Y46676D01*
X15410Y46626D02*
X15460Y46676D01*
X15559D01*
X15609Y46626D01*
Y46576D01*
X15559Y46526D01*
X15510D01*
X15559D01*
X15609Y46476D01*
Y46426D01*
X15559Y46376D01*
X15460D01*
X15410Y46426D01*
X14160Y47228D02*
X14110Y47278D01*
X14010D01*
X13960Y47228D01*
Y47028D01*
X14010Y46978D01*
X14110D01*
X14160Y47028D01*
Y47128D01*
X14060D01*
X14260Y46978D02*
Y47278D01*
X14410D01*
X14460Y47228D01*
Y47128D01*
X14410Y47078D01*
X14260D01*
X14560Y47278D02*
X14660D01*
X14610D01*
Y46978D01*
X14560D01*
X14660D01*
X14960Y47278D02*
X14860D01*
X14810Y47228D01*
Y47028D01*
X14860Y46978D01*
X14960D01*
X15010Y47028D01*
Y47228D01*
X14960Y47278D01*
X15609Y46978D02*
X15410D01*
X15609Y47178D01*
Y47228D01*
X15559Y47278D01*
X15460D01*
X15410Y47228D01*
D16*
X15094Y33936D02*
G03*
X15094Y33936I-118J0D01*
G01*
X39754Y39875D02*
G03*
X39754Y39875I-118J0D01*
G01*
X32895Y28373D02*
G03*
X32895Y28373I-118J0D01*
G01*
D17*
X40874Y25700D02*
Y32000D01*
X49299Y25700D02*
Y32000D01*
X44409D02*
X49299D01*
X40874D02*
X43189D01*
X44409Y25700D02*
X49299D01*
X40874D02*
X43189D01*
X13815Y31460D02*
X15345D01*
Y32130D01*
X13815D02*
X15345D01*
X13815Y31460D02*
Y32130D01*
X19493Y47779D02*
X19750D01*
X19621Y47650D02*
Y47907D01*
X41034Y43850D02*
X40777D01*
X40905Y43979D02*
Y43722D01*
X31421Y49643D02*
Y49900D01*
X31550Y49771D02*
X31293D01*
X33171Y49643D02*
Y49900D01*
X33300Y49771D02*
X33043D01*
X34921Y49643D02*
Y49900D01*
X35050Y49771D02*
X34793D01*
X10492Y35071D02*
X10235D01*
X10364Y35200D02*
Y34943D01*
X15733Y21100D02*
X15867D01*
X15800D01*
Y20900D01*
X15933D02*
Y21100D01*
X16033D01*
X16067Y21067D01*
Y21000D01*
X16033Y20967D01*
X15933D01*
X16133Y21100D02*
X16267D01*
Y21067D01*
X16133Y20933D01*
Y20900D01*
X13767Y21350D02*
X13700D01*
X13733D01*
Y21183D01*
X13700Y21150D01*
X13667D01*
X13633Y21183D01*
X13933Y21150D02*
Y21350D01*
X13833Y21250D01*
X13967D01*
X36683Y23500D02*
Y23700D01*
X36783D01*
X36817Y23667D01*
Y23600D01*
X36783Y23567D01*
X36683D01*
X36983Y23500D02*
Y23700D01*
X36883Y23600D01*
X37017D01*
X40820Y32750D02*
Y32950D01*
X40920D01*
X40953Y32917D01*
Y32850D01*
X40920Y32817D01*
X40820D01*
X41153Y32750D02*
X41020D01*
X41153Y32883D01*
Y32917D01*
X41120Y32950D01*
X41053D01*
X41020Y32917D01*
X16217Y29967D02*
X16183Y30000D01*
X16117D01*
X16083Y29967D01*
Y29833D01*
X16117Y29800D01*
X16183D01*
X16217Y29833D01*
X16283Y29967D02*
X16317Y30000D01*
X16383D01*
X16417Y29967D01*
Y29933D01*
X16383Y29900D01*
X16350D01*
X16383D01*
X16417Y29867D01*
Y29833D01*
X16383Y29800D01*
X16317D01*
X16283Y29833D01*
X16483Y29967D02*
X16517Y30000D01*
X16583D01*
X16617Y29967D01*
Y29933D01*
X16583Y29900D01*
X16550D01*
X16583D01*
X16617Y29867D01*
Y29833D01*
X16583Y29800D01*
X16517D01*
X16483Y29833D01*
X17467Y26767D02*
X17433Y26800D01*
X17367D01*
X17333Y26767D01*
Y26633D01*
X17367Y26600D01*
X17433D01*
X17467Y26633D01*
X17533Y26767D02*
X17567Y26800D01*
X17633D01*
X17667Y26767D01*
Y26733D01*
X17633Y26700D01*
X17600D01*
X17633D01*
X17667Y26667D01*
Y26633D01*
X17633Y26600D01*
X17567D01*
X17533Y26633D01*
X17867Y26600D02*
X17733D01*
X17867Y26733D01*
Y26767D01*
X17833Y26800D01*
X17767D01*
X17733Y26767D01*
X39283Y25267D02*
X39250Y25300D01*
X39183D01*
X39150Y25267D01*
Y25133D01*
X39183Y25100D01*
X39250D01*
X39283Y25133D01*
X39350Y25100D02*
X39417D01*
X39383D01*
Y25300D01*
X39350Y25267D01*
X39650Y25300D02*
X39583Y25267D01*
X39517Y25200D01*
Y25133D01*
X39550Y25100D01*
X39617D01*
X39650Y25133D01*
Y25167D01*
X39617Y25200D01*
X39517D01*
X34583Y29400D02*
Y29600D01*
X34683D01*
X34717Y29567D01*
Y29500D01*
X34683Y29467D01*
X34583D01*
X34650D02*
X34717Y29400D01*
X34917D02*
X34783D01*
X34917Y29533D01*
Y29567D01*
X34883Y29600D01*
X34817D01*
X34783Y29567D01*
X35083Y29400D02*
Y29600D01*
X34983Y29500D01*
X35117D01*
X34583Y30000D02*
Y30200D01*
X34683D01*
X34717Y30167D01*
Y30100D01*
X34683Y30067D01*
X34583D01*
X34650D02*
X34717Y30000D01*
X34917D02*
X34783D01*
X34917Y30133D01*
Y30167D01*
X34883Y30200D01*
X34817D01*
X34783Y30167D01*
X35117Y30000D02*
X34983D01*
X35117Y30133D01*
Y30167D01*
X35083Y30200D01*
X35017D01*
X34983Y30167D01*
X34550Y27000D02*
Y27200D01*
X34650D01*
X34683Y27167D01*
Y27100D01*
X34650Y27067D01*
X34550D01*
X34617D02*
X34683Y27000D01*
X34883D02*
X34750D01*
X34883Y27133D01*
Y27167D01*
X34850Y27200D01*
X34783D01*
X34750Y27167D01*
X34950D02*
X34983Y27200D01*
X35050D01*
X35083Y27167D01*
Y27033D01*
X35050Y27000D01*
X34983D01*
X34950Y27033D01*
Y27167D01*
X38842Y28800D02*
Y29000D01*
X38942D01*
X38975Y28967D01*
Y28900D01*
X38942Y28867D01*
X38842D01*
X38908D02*
X38975Y28800D01*
X39041D02*
X39108D01*
X39075D01*
Y29000D01*
X39041Y28967D01*
X39208Y29000D02*
X39341D01*
Y28967D01*
X39208Y28833D01*
Y28800D01*
X34583Y27600D02*
Y27800D01*
X34683D01*
X34717Y27767D01*
Y27700D01*
X34683Y27667D01*
X34583D01*
X34650D02*
X34717Y27600D01*
X34783D02*
X34850D01*
X34817D01*
Y27800D01*
X34783Y27767D01*
X35083Y27800D02*
X35017Y27767D01*
X34950Y27700D01*
Y27633D01*
X34983Y27600D01*
X35050D01*
X35083Y27633D01*
Y27667D01*
X35050Y27700D01*
X34950D01*
X37833Y31867D02*
X37800Y31900D01*
X37733D01*
X37700Y31867D01*
Y31733D01*
X37733Y31700D01*
X37800D01*
X37833Y31733D01*
X37900Y31700D02*
X37967D01*
X37933D01*
Y31900D01*
X37900Y31867D01*
X38200Y31900D02*
X38067D01*
Y31800D01*
X38133Y31833D01*
X38167D01*
X38200Y31800D01*
Y31733D01*
X38167Y31700D01*
X38100D01*
X38067Y31733D01*
X37983Y29567D02*
X37950Y29600D01*
X37883D01*
X37850Y29567D01*
Y29433D01*
X37883Y29400D01*
X37950D01*
X37983Y29433D01*
X38050Y29400D02*
X38117D01*
X38083D01*
Y29600D01*
X38050Y29567D01*
X38217Y29400D02*
X38283D01*
X38250D01*
Y29600D01*
X38217Y29567D01*
X21367Y40200D02*
Y40033D01*
X21400Y40000D01*
X21467D01*
X21500Y40033D01*
Y40200D01*
X21567Y40000D02*
X21633D01*
X21600D01*
Y40200D01*
X21567Y40167D01*
X31700Y24183D02*
X31500D01*
Y24283D01*
X31533Y24317D01*
X31600D01*
X31633Y24283D01*
Y24183D01*
Y24250D02*
X31700Y24317D01*
X31533Y24383D02*
X31500Y24417D01*
Y24483D01*
X31533Y24517D01*
X31567D01*
X31600Y24483D01*
Y24450D01*
Y24483D01*
X31633Y24517D01*
X31667D01*
X31700Y24483D01*
Y24417D01*
X31667Y24383D01*
X31533Y24583D02*
X31500Y24617D01*
Y24683D01*
X31533Y24717D01*
X31667D01*
X31700Y24683D01*
Y24617D01*
X31667Y24583D01*
X31533D01*
X32350Y24183D02*
X32150D01*
Y24283D01*
X32183Y24317D01*
X32250D01*
X32283Y24283D01*
Y24183D01*
Y24250D02*
X32350Y24317D01*
Y24517D02*
Y24383D01*
X32217Y24517D01*
X32183D01*
X32150Y24483D01*
Y24417D01*
X32183Y24383D01*
X32317Y24583D02*
X32350Y24617D01*
Y24683D01*
X32317Y24717D01*
X32183D01*
X32150Y24683D01*
Y24617D01*
X32183Y24583D01*
X32217D01*
X32250Y24617D01*
Y24717D01*
X33000Y24183D02*
X32800D01*
Y24283D01*
X32833Y24317D01*
X32900D01*
X32933Y24283D01*
Y24183D01*
Y24250D02*
X33000Y24317D01*
Y24517D02*
Y24383D01*
X32867Y24517D01*
X32833D01*
X32800Y24483D01*
Y24417D01*
X32833Y24383D01*
Y24583D02*
X32800Y24617D01*
Y24683D01*
X32833Y24717D01*
X32867D01*
X32900Y24683D01*
X32933Y24717D01*
X32967D01*
X33000Y24683D01*
Y24617D01*
X32967Y24583D01*
X32933D01*
X32900Y24617D01*
X32867Y24583D01*
X32833D01*
X32900Y24617D02*
Y24683D01*
X34717Y31967D02*
X34683Y32000D01*
X34617D01*
X34583Y31967D01*
Y31833D01*
X34617Y31800D01*
X34683D01*
X34717Y31833D01*
X34917Y31800D02*
X34783D01*
X34917Y31933D01*
Y31967D01*
X34883Y32000D01*
X34817D01*
X34783Y31967D01*
X35083Y31800D02*
Y32000D01*
X34983Y31900D01*
X35117D01*
X32483Y34317D02*
X32450Y34283D01*
Y34217D01*
X32483Y34183D01*
X32617D01*
X32650Y34217D01*
Y34283D01*
X32617Y34317D01*
X32650Y34517D02*
Y34383D01*
X32517Y34517D01*
X32483D01*
X32450Y34483D01*
Y34417D01*
X32483Y34383D01*
Y34583D02*
X32450Y34617D01*
Y34683D01*
X32483Y34717D01*
X32517D01*
X32550Y34683D01*
Y34650D01*
Y34683D01*
X32583Y34717D01*
X32617D01*
X32650Y34683D01*
Y34617D01*
X32617Y34583D01*
X30833Y34317D02*
X30800Y34283D01*
Y34217D01*
X30833Y34183D01*
X30967D01*
X31000Y34217D01*
Y34283D01*
X30967Y34317D01*
X31000Y34383D02*
Y34450D01*
Y34417D01*
X30800D01*
X30833Y34383D01*
X31000Y34650D02*
X30800D01*
X30900Y34550D01*
Y34683D01*
X31933Y34317D02*
X31900Y34283D01*
Y34217D01*
X31933Y34183D01*
X32067D01*
X32100Y34217D01*
Y34283D01*
X32067Y34317D01*
X32100Y34383D02*
Y34450D01*
Y34417D01*
X31900D01*
X31933Y34383D01*
Y34550D02*
X31900Y34583D01*
Y34650D01*
X31933Y34683D01*
X31967D01*
X32000Y34650D01*
Y34617D01*
Y34650D01*
X32033Y34683D01*
X32067D01*
X32100Y34650D01*
Y34583D01*
X32067Y34550D01*
X37600Y34183D02*
X37400D01*
Y34283D01*
X37433Y34317D01*
X37500D01*
X37533Y34283D01*
Y34183D01*
Y34250D02*
X37600Y34317D01*
X37433Y34383D02*
X37400Y34417D01*
Y34483D01*
X37433Y34517D01*
X37467D01*
X37500Y34483D01*
Y34450D01*
Y34483D01*
X37533Y34517D01*
X37567D01*
X37600Y34483D01*
Y34417D01*
X37567Y34383D01*
X37433Y34583D02*
X37400Y34617D01*
Y34683D01*
X37433Y34717D01*
X37467D01*
X37500Y34683D01*
Y34650D01*
Y34683D01*
X37533Y34717D01*
X37567D01*
X37600Y34683D01*
Y34617D01*
X37567Y34583D01*
X14190Y48110D02*
X14323D01*
X14257D01*
Y47910D01*
X14390D02*
Y48110D01*
X14490D01*
X14523Y48077D01*
Y48010D01*
X14490Y47977D01*
X14390D01*
X14690Y47910D02*
Y48110D01*
X14590Y48010D01*
X14723D01*
X32340Y23810D02*
X32473D01*
X32407D01*
Y23610D01*
X32540D02*
Y23810D01*
X32640D01*
X32673Y23777D01*
Y23710D01*
X32640Y23677D01*
X32540D01*
X32740Y23777D02*
X32773Y23810D01*
X32840D01*
X32873Y23777D01*
Y23743D01*
X32840Y23710D01*
X32807D01*
X32840D01*
X32873Y23677D01*
Y23643D01*
X32840Y23610D01*
X32773D01*
X32740Y23643D01*
X17640Y29310D02*
X17773D01*
X17707D01*
Y29110D01*
X17840D02*
Y29310D01*
X17940D01*
X17973Y29277D01*
Y29210D01*
X17940Y29177D01*
X17840D01*
X18173Y29110D02*
X18040D01*
X18173Y29243D01*
Y29277D01*
X18140Y29310D01*
X18073D01*
X18040Y29277D01*
X17640Y26310D02*
X17773D01*
X17707D01*
Y26110D01*
X17840D02*
Y26310D01*
X17940D01*
X17973Y26277D01*
Y26210D01*
X17940Y26177D01*
X17840D01*
X18040Y26110D02*
X18107D01*
X18073D01*
Y26310D01*
X18040Y26277D01*
X39450Y44617D02*
X39417Y44650D01*
X39350D01*
X39317Y44617D01*
Y44583D01*
X39350Y44550D01*
X39417D01*
X39450Y44517D01*
Y44483D01*
X39417Y44450D01*
X39350D01*
X39317Y44483D01*
X39517Y44650D02*
Y44450D01*
X39583Y44517D01*
X39650Y44450D01*
Y44650D01*
X39717Y44450D02*
X39783D01*
X39750D01*
Y44650D01*
X39717Y44617D01*
X39467Y48917D02*
X39433Y48950D01*
X39367D01*
X39333Y48917D01*
Y48883D01*
X39367Y48850D01*
X39433D01*
X39467Y48817D01*
Y48783D01*
X39433Y48750D01*
X39367D01*
X39333Y48783D01*
X39533Y48950D02*
Y48750D01*
X39600Y48817D01*
X39667Y48750D01*
Y48950D01*
X39867Y48750D02*
X39733D01*
X39867Y48883D01*
Y48917D01*
X39833Y48950D01*
X39767D01*
X39733Y48917D01*
X40350Y43200D02*
Y43400D01*
X40450D01*
X40483Y43367D01*
Y43300D01*
X40450Y43267D01*
X40350D01*
X40417D02*
X40483Y43200D01*
X40550D02*
X40617D01*
X40583D01*
Y43400D01*
X40550Y43367D01*
X40817Y43200D02*
Y43400D01*
X40717Y43300D01*
X40850D01*
X48100Y34983D02*
X47900D01*
Y35083D01*
X47933Y35117D01*
X48000D01*
X48033Y35083D01*
Y34983D01*
Y35050D02*
X48100Y35117D01*
Y35317D02*
Y35183D01*
X47967Y35317D01*
X47933D01*
X47900Y35283D01*
Y35217D01*
X47933Y35183D01*
Y35383D02*
X47900Y35417D01*
Y35483D01*
X47933Y35517D01*
X47967D01*
X48000Y35483D01*
Y35450D01*
Y35483D01*
X48033Y35517D01*
X48067D01*
X48100Y35483D01*
Y35417D01*
X48067Y35383D01*
X48700Y35017D02*
X48500D01*
Y35117D01*
X48533Y35150D01*
X48600D01*
X48633Y35117D01*
Y35017D01*
Y35083D02*
X48700Y35150D01*
Y35350D02*
Y35217D01*
X48567Y35350D01*
X48533D01*
X48500Y35317D01*
Y35250D01*
X48533Y35217D01*
X48700Y35417D02*
Y35483D01*
Y35450D01*
X48500D01*
X48533Y35417D01*
X27517Y30750D02*
Y30717D01*
X27583Y30650D01*
X27650Y30717D01*
Y30750D01*
X27583Y30650D02*
Y30550D01*
X27717D02*
X27783D01*
X27750D01*
Y30750D01*
X27717Y30717D01*
X38440Y40920D02*
Y40753D01*
X38473Y40720D01*
X38540D01*
X38573Y40753D01*
Y40920D01*
X38773D02*
X38640D01*
Y40820D01*
X38707Y40853D01*
X38740D01*
X38773Y40820D01*
Y40753D01*
X38740Y40720D01*
X38673D01*
X38640Y40753D01*
X15533Y33250D02*
Y33083D01*
X15567Y33050D01*
X15633D01*
X15667Y33083D01*
Y33250D01*
X15833Y33050D02*
Y33250D01*
X15733Y33150D01*
X15867D01*
X29940Y31710D02*
Y31543D01*
X29973Y31510D01*
X30040D01*
X30073Y31543D01*
Y31710D01*
X30140Y31677D02*
X30173Y31710D01*
X30240D01*
X30273Y31677D01*
Y31643D01*
X30240Y31610D01*
X30207D01*
X30240D01*
X30273Y31577D01*
Y31543D01*
X30240Y31510D01*
X30173D01*
X30140Y31543D01*
X42750Y45780D02*
Y45613D01*
X42783Y45580D01*
X42850D01*
X42883Y45613D01*
Y45780D01*
X43083Y45580D02*
X42950D01*
X43083Y45713D01*
Y45747D01*
X43050Y45780D01*
X42983D01*
X42950Y45747D01*
X44783Y23700D02*
X44917D01*
X44850D01*
Y23500D01*
X44983D02*
Y23700D01*
X45083D01*
X45117Y23667D01*
Y23600D01*
X45083Y23567D01*
X44983D01*
X45183Y23667D02*
X45217Y23700D01*
X45283D01*
X45317Y23667D01*
Y23633D01*
X45283Y23600D01*
X45317Y23567D01*
Y23533D01*
X45283Y23500D01*
X45217D01*
X45183Y23533D01*
Y23567D01*
X45217Y23600D01*
X45183Y23633D01*
Y23667D01*
X45217Y23600D02*
X45283D01*
X45790Y48410D02*
X45923D01*
X45857D01*
Y48210D01*
X45990D02*
Y48410D01*
X46090D01*
X46123Y48377D01*
Y48310D01*
X46090Y48277D01*
X45990D01*
X46323Y48410D02*
X46257Y48377D01*
X46190Y48310D01*
Y48243D01*
X46223Y48210D01*
X46290D01*
X46323Y48243D01*
Y48277D01*
X46290Y48310D01*
X46190D01*
X16440Y48110D02*
X16573D01*
X16507D01*
Y47910D01*
X16640D02*
Y48110D01*
X16740D01*
X16773Y48077D01*
Y48010D01*
X16740Y47977D01*
X16640D01*
X16973Y48110D02*
X16840D01*
Y48010D01*
X16907Y48043D01*
X16940D01*
X16973Y48010D01*
Y47943D01*
X16940Y47910D01*
X16873D01*
X16840Y47943D01*
X40733Y36600D02*
Y36800D01*
X40833D01*
X40867Y36767D01*
Y36700D01*
X40833Y36667D01*
X40733D01*
X40800D02*
X40867Y36600D01*
X41033D02*
Y36800D01*
X40933Y36700D01*
X41067D01*
X41133Y36800D02*
X41267D01*
Y36767D01*
X41133Y36633D01*
Y36600D01*
X41483Y36950D02*
Y37150D01*
X41583D01*
X41617Y37117D01*
Y37050D01*
X41583Y37017D01*
X41483D01*
X41550D02*
X41617Y36950D01*
X41783D02*
Y37150D01*
X41683Y37050D01*
X41817D01*
X42017Y37150D02*
X41950Y37117D01*
X41883Y37050D01*
Y36983D01*
X41917Y36950D01*
X41983D01*
X42017Y36983D01*
Y37017D01*
X41983Y37050D01*
X41883D01*
X43083Y36600D02*
Y36800D01*
X43183D01*
X43217Y36767D01*
Y36700D01*
X43183Y36667D01*
X43083D01*
X43150D02*
X43217Y36600D01*
X43383D02*
Y36800D01*
X43283Y36700D01*
X43417D01*
X43617Y36800D02*
X43483D01*
Y36700D01*
X43550Y36733D01*
X43583D01*
X43617Y36700D01*
Y36633D01*
X43583Y36600D01*
X43517D01*
X43483Y36633D01*
X37633Y36050D02*
Y36250D01*
X37733D01*
X37767Y36217D01*
Y36150D01*
X37733Y36117D01*
X37633D01*
X37700D02*
X37767Y36050D01*
X37933D02*
Y36250D01*
X37833Y36150D01*
X37967D01*
X38133Y36050D02*
Y36250D01*
X38033Y36150D01*
X38167D01*
X42283Y36600D02*
Y36800D01*
X42383D01*
X42417Y36767D01*
Y36700D01*
X42383Y36667D01*
X42283D01*
X42350D02*
X42417Y36600D01*
X42583D02*
Y36800D01*
X42483Y36700D01*
X42617D01*
X42683Y36767D02*
X42717Y36800D01*
X42783D01*
X42817Y36767D01*
Y36733D01*
X42783Y36700D01*
X42750D01*
X42783D01*
X42817Y36667D01*
Y36633D01*
X42783Y36600D01*
X42717D01*
X42683Y36633D01*
X42317Y36950D02*
Y37150D01*
X42417D01*
X42450Y37117D01*
Y37050D01*
X42417Y37017D01*
X42317D01*
X42383D02*
X42450Y36950D01*
X42617D02*
Y37150D01*
X42517Y37050D01*
X42650D01*
X42717Y36950D02*
X42783D01*
X42750D01*
Y37150D01*
X42717Y37117D01*
X41483Y36600D02*
Y36800D01*
X41583D01*
X41617Y36767D01*
Y36700D01*
X41583Y36667D01*
X41483D01*
X41550D02*
X41617Y36600D01*
X41783D02*
Y36800D01*
X41683Y36700D01*
X41817D01*
X42017Y36600D02*
X41883D01*
X42017Y36733D01*
Y36767D01*
X41983Y36800D01*
X41917D01*
X41883Y36767D01*
X43083Y36950D02*
Y37150D01*
X43183D01*
X43217Y37117D01*
Y37050D01*
X43183Y37017D01*
X43083D01*
X43150D02*
X43217Y36950D01*
X43383D02*
Y37150D01*
X43283Y37050D01*
X43417D01*
X43483Y37117D02*
X43517Y37150D01*
X43583D01*
X43617Y37117D01*
Y36983D01*
X43583Y36950D01*
X43517D01*
X43483Y36983D01*
Y37117D01*
X36133Y36850D02*
Y37050D01*
X36233D01*
X36267Y37017D01*
Y36950D01*
X36233Y36917D01*
X36133D01*
X36200D02*
X36267Y36850D01*
X36333Y37017D02*
X36367Y37050D01*
X36433D01*
X36467Y37017D01*
Y36983D01*
X36433Y36950D01*
X36400D01*
X36433D01*
X36467Y36917D01*
Y36883D01*
X36433Y36850D01*
X36367D01*
X36333Y36883D01*
X36533D02*
X36567Y36850D01*
X36633D01*
X36667Y36883D01*
Y37017D01*
X36633Y37050D01*
X36567D01*
X36533Y37017D01*
Y36983D01*
X36567Y36950D01*
X36667D01*
X36883Y36850D02*
Y37050D01*
X36983D01*
X37017Y37017D01*
Y36950D01*
X36983Y36917D01*
X36883D01*
X36950D02*
X37017Y36850D01*
X37083Y37017D02*
X37117Y37050D01*
X37183D01*
X37217Y37017D01*
Y36983D01*
X37183Y36950D01*
X37150D01*
X37183D01*
X37217Y36917D01*
Y36883D01*
X37183Y36850D01*
X37117D01*
X37083Y36883D01*
X37283Y37017D02*
X37317Y37050D01*
X37383D01*
X37417Y37017D01*
Y36983D01*
X37383Y36950D01*
X37417Y36917D01*
Y36883D01*
X37383Y36850D01*
X37317D01*
X37283Y36883D01*
Y36917D01*
X37317Y36950D01*
X37283Y36983D01*
Y37017D01*
X37317Y36950D02*
X37383D01*
X11822Y34272D02*
Y34472D01*
X11922D01*
X11955Y34439D01*
Y34372D01*
X11922Y34339D01*
X11822D01*
X11889D02*
X11955Y34272D01*
X12022Y34439D02*
X12055Y34472D01*
X12122D01*
X12155Y34439D01*
Y34406D01*
X12122Y34372D01*
X12089D01*
X12122D01*
X12155Y34339D01*
Y34306D01*
X12122Y34272D01*
X12055D01*
X12022Y34306D01*
X12355Y34472D02*
X12222D01*
Y34372D01*
X12289Y34406D01*
X12322D01*
X12355Y34372D01*
Y34306D01*
X12322Y34272D01*
X12255D01*
X12222Y34306D01*
X15468Y31700D02*
Y31900D01*
X15568D01*
X15602Y31867D01*
Y31800D01*
X15568Y31767D01*
X15468D01*
X15535D02*
X15602Y31700D01*
X15668Y31867D02*
X15702Y31900D01*
X15768D01*
X15802Y31867D01*
Y31833D01*
X15768Y31800D01*
X15735D01*
X15768D01*
X15802Y31767D01*
Y31733D01*
X15768Y31700D01*
X15702D01*
X15668Y31733D01*
X15868Y31900D02*
X16002D01*
Y31867D01*
X15868Y31733D01*
Y31700D01*
X12950Y31933D02*
X12750D01*
Y32033D01*
X12783Y32067D01*
X12850D01*
X12883Y32033D01*
Y31933D01*
Y32000D02*
X12950Y32067D01*
X12783Y32133D02*
X12750Y32167D01*
Y32233D01*
X12783Y32267D01*
X12817D01*
X12850Y32233D01*
Y32200D01*
Y32233D01*
X12883Y32267D01*
X12917D01*
X12950Y32233D01*
Y32167D01*
X12917Y32133D01*
X12750Y32467D02*
X12783Y32400D01*
X12850Y32333D01*
X12917D01*
X12950Y32367D01*
Y32433D01*
X12917Y32467D01*
X12883D01*
X12850Y32433D01*
Y32333D01*
X12961Y35006D02*
X12761D01*
Y35106D01*
X12795Y35139D01*
X12861D01*
X12895Y35106D01*
Y35006D01*
Y35072D02*
X12961Y35139D01*
X12795Y35206D02*
X12761Y35239D01*
Y35306D01*
X12795Y35339D01*
X12828D01*
X12861Y35306D01*
Y35272D01*
Y35306D01*
X12895Y35339D01*
X12928D01*
X12961Y35306D01*
Y35239D01*
X12928Y35206D01*
X12961Y35506D02*
X12761D01*
X12861Y35406D01*
Y35539D01*
X28600Y29983D02*
X28400D01*
Y30083D01*
X28433Y30117D01*
X28500D01*
X28533Y30083D01*
Y29983D01*
Y30050D02*
X28600Y30117D01*
X28433Y30183D02*
X28400Y30217D01*
Y30283D01*
X28433Y30317D01*
X28467D01*
X28500Y30283D01*
Y30250D01*
Y30283D01*
X28533Y30317D01*
X28567D01*
X28600Y30283D01*
Y30217D01*
X28567Y30183D01*
X28600Y30517D02*
Y30383D01*
X28467Y30517D01*
X28433D01*
X28400Y30483D01*
Y30417D01*
X28433Y30383D01*
X33800Y34217D02*
X33600D01*
Y34317D01*
X33633Y34350D01*
X33700D01*
X33733Y34317D01*
Y34217D01*
Y34283D02*
X33800Y34350D01*
X33633Y34417D02*
X33600Y34450D01*
Y34517D01*
X33633Y34550D01*
X33667D01*
X33700Y34517D01*
Y34483D01*
Y34517D01*
X33733Y34550D01*
X33767D01*
X33800Y34517D01*
Y34450D01*
X33767Y34417D01*
X33800Y34617D02*
Y34683D01*
Y34650D01*
X33600D01*
X33633Y34617D01*
X39533Y28800D02*
Y29000D01*
X39633D01*
X39667Y28967D01*
Y28900D01*
X39633Y28867D01*
X39533D01*
X39600D02*
X39667Y28800D01*
X39867D02*
X39733D01*
X39867Y28933D01*
Y28967D01*
X39833Y29000D01*
X39767D01*
X39733Y28967D01*
X39933Y29000D02*
X40067D01*
Y28967D01*
X39933Y28833D01*
Y28800D01*
X38883Y30600D02*
Y30800D01*
X38983D01*
X39017Y30767D01*
Y30700D01*
X38983Y30667D01*
X38883D01*
X38950D02*
X39017Y30600D01*
X39217D02*
X39083D01*
X39217Y30733D01*
Y30767D01*
X39183Y30800D01*
X39117D01*
X39083Y30767D01*
X39417Y30800D02*
X39350Y30767D01*
X39283Y30700D01*
Y30633D01*
X39317Y30600D01*
X39383D01*
X39417Y30633D01*
Y30667D01*
X39383Y30700D01*
X39283D01*
X34583Y31200D02*
Y31400D01*
X34683D01*
X34717Y31367D01*
Y31300D01*
X34683Y31267D01*
X34583D01*
X34650D02*
X34717Y31200D01*
X34917D02*
X34783D01*
X34917Y31333D01*
Y31367D01*
X34883Y31400D01*
X34817D01*
X34783Y31367D01*
X35117Y31400D02*
X34983D01*
Y31300D01*
X35050Y31333D01*
X35083D01*
X35117Y31300D01*
Y31233D01*
X35083Y31200D01*
X35017D01*
X34983Y31233D01*
X36850Y25950D02*
Y26150D01*
X36950D01*
X36983Y26117D01*
Y26050D01*
X36950Y26017D01*
X36850D01*
X36917D02*
X36983Y25950D01*
X37050D02*
X37117D01*
X37083D01*
Y26150D01*
X37050Y26117D01*
X37217Y25983D02*
X37250Y25950D01*
X37317D01*
X37350Y25983D01*
Y26117D01*
X37317Y26150D01*
X37250D01*
X37217Y26117D01*
Y26083D01*
X37250Y26050D01*
X37350D01*
X37750Y28200D02*
Y28400D01*
X37850D01*
X37883Y28367D01*
Y28300D01*
X37850Y28267D01*
X37750D01*
X37817D02*
X37883Y28200D01*
X37950D02*
X38017D01*
X37983D01*
Y28400D01*
X37950Y28367D01*
X38117D02*
X38150Y28400D01*
X38217D01*
X38250Y28367D01*
Y28333D01*
X38217Y28300D01*
X38250Y28267D01*
Y28233D01*
X38217Y28200D01*
X38150D01*
X38117Y28233D01*
Y28267D01*
X38150Y28300D01*
X38117Y28333D01*
Y28367D01*
X38150Y28300D02*
X38217D01*
X49100Y46550D02*
X48900D01*
Y46650D01*
X48933Y46683D01*
X49000D01*
X49033Y46650D01*
Y46550D01*
Y46617D02*
X49100Y46683D01*
Y46750D02*
Y46817D01*
Y46783D01*
X48900D01*
X48933Y46750D01*
X48900Y47050D02*
Y46917D01*
X49000D01*
X48967Y46983D01*
Y47017D01*
X49000Y47050D01*
X49067D01*
X49100Y47017D01*
Y46950D01*
X49067Y46917D01*
X45950Y45400D02*
X45750D01*
Y45500D01*
X45783Y45533D01*
X45850D01*
X45883Y45500D01*
Y45400D01*
Y45467D02*
X45950Y45533D01*
Y45600D02*
Y45667D01*
Y45633D01*
X45750D01*
X45783Y45600D01*
Y45767D02*
X45750Y45800D01*
Y45867D01*
X45783Y45900D01*
X45817D01*
X45850Y45867D01*
Y45833D01*
Y45867D01*
X45883Y45900D01*
X45917D01*
X45950Y45867D01*
Y45800D01*
X45917Y45767D01*
X45950Y43850D02*
X45750D01*
Y43950D01*
X45783Y43983D01*
X45850D01*
X45883Y43950D01*
Y43850D01*
Y43917D02*
X45950Y43983D01*
Y44050D02*
Y44117D01*
Y44083D01*
X45750D01*
X45783Y44050D01*
X45950Y44350D02*
Y44217D01*
X45817Y44350D01*
X45783D01*
X45750Y44317D01*
Y44250D01*
X45783Y44217D01*
X40383Y44350D02*
Y44550D01*
X40483D01*
X40517Y44517D01*
Y44450D01*
X40483Y44417D01*
X40383D01*
X40450D02*
X40517Y44350D01*
X40583D02*
X40650D01*
X40617D01*
Y44550D01*
X40583Y44517D01*
X40750Y44350D02*
X40817D01*
X40783D01*
Y44550D01*
X40750Y44517D01*
X49050Y43150D02*
X48850D01*
Y43250D01*
X48883Y43283D01*
X48950D01*
X48983Y43250D01*
Y43150D01*
Y43217D02*
X49050Y43283D01*
Y43350D02*
Y43417D01*
Y43383D01*
X48850D01*
X48883Y43350D01*
Y43517D02*
X48850Y43550D01*
Y43617D01*
X48883Y43650D01*
X49017D01*
X49050Y43617D01*
Y43550D01*
X49017Y43517D01*
X48883D01*
X18383Y46550D02*
Y46750D01*
X18483D01*
X18517Y46717D01*
Y46650D01*
X18483Y46617D01*
X18383D01*
X18450D02*
X18517Y46550D01*
X18583Y46583D02*
X18617Y46550D01*
X18683D01*
X18717Y46583D01*
Y46717D01*
X18683Y46750D01*
X18617D01*
X18583Y46717D01*
Y46683D01*
X18617Y46650D01*
X18717D01*
X29258Y47000D02*
Y47200D01*
X29358D01*
X29391Y47167D01*
Y47100D01*
X29358Y47067D01*
X29258D01*
X29325D02*
X29391Y47000D01*
X29591Y47200D02*
X29458D01*
Y47100D01*
X29525Y47133D01*
X29558D01*
X29591Y47100D01*
Y47033D01*
X29558Y47000D01*
X29491D01*
X29458Y47033D01*
X25033Y38900D02*
Y39100D01*
X25133D01*
X25167Y39067D01*
Y39000D01*
X25133Y38967D01*
X25033D01*
X25100D02*
X25167Y38900D01*
X25333D02*
Y39100D01*
X25233Y39000D01*
X25367D01*
X35500Y48183D02*
X35300D01*
Y48283D01*
X35333Y48317D01*
X35400D01*
X35433Y48283D01*
Y48183D01*
Y48250D02*
X35500Y48317D01*
X35300Y48517D02*
X35333Y48450D01*
X35400Y48383D01*
X35467D01*
X35500Y48417D01*
Y48483D01*
X35467Y48517D01*
X35433D01*
X35400Y48483D01*
Y48383D01*
X33750Y48183D02*
X33550D01*
Y48283D01*
X33583Y48317D01*
X33650D01*
X33683Y48283D01*
Y48183D01*
Y48250D02*
X33750Y48317D01*
X33550Y48383D02*
Y48517D01*
X33583D01*
X33717Y48383D01*
X33750D01*
X32000Y48183D02*
X31800D01*
Y48283D01*
X31833Y48317D01*
X31900D01*
X31933Y48283D01*
Y48183D01*
Y48250D02*
X32000Y48317D01*
X31833Y48383D02*
X31800Y48417D01*
Y48483D01*
X31833Y48517D01*
X31867D01*
X31900Y48483D01*
X31933Y48517D01*
X31967D01*
X32000Y48483D01*
Y48417D01*
X31967Y48383D01*
X31933D01*
X31900Y48417D01*
X31867Y48383D01*
X31833D01*
X31900Y48417D02*
Y48483D01*
X29233Y46250D02*
Y46450D01*
X29333D01*
X29367Y46417D01*
Y46350D01*
X29333Y46317D01*
X29233D01*
X29300D02*
X29367Y46250D01*
X29567D02*
X29433D01*
X29567Y46383D01*
Y46417D01*
X29533Y46450D01*
X29467D01*
X29433Y46417D01*
X47917Y46433D02*
Y46567D01*
X47883Y46600D01*
X47817D01*
X47783Y46567D01*
Y46433D01*
X47817Y46400D01*
X47883D01*
X47850Y46467D02*
X47917Y46400D01*
X47883D02*
X47917Y46433D01*
X48117Y46400D02*
X47983D01*
X48117Y46533D01*
Y46567D01*
X48083Y46600D01*
X48017D01*
X47983Y46567D01*
X47950Y43083D02*
Y43217D01*
X47917Y43250D01*
X47850D01*
X47817Y43217D01*
Y43083D01*
X47850Y43050D01*
X47917D01*
X47883Y43117D02*
X47950Y43050D01*
X47917D02*
X47950Y43083D01*
X48017Y43050D02*
X48083D01*
X48050D01*
Y43250D01*
X48017Y43217D01*
X46383Y41200D02*
Y41400D01*
X46483D01*
X46517Y41367D01*
Y41300D01*
X46483Y41267D01*
X46383D01*
X46717Y41400D02*
X46650Y41367D01*
X46583Y41300D01*
Y41233D01*
X46617Y41200D01*
X46683D01*
X46717Y41233D01*
Y41267D01*
X46683Y41300D01*
X46583D01*
X46383Y36900D02*
Y37100D01*
X46483D01*
X46517Y37067D01*
Y37000D01*
X46483Y36967D01*
X46383D01*
X46717Y37100D02*
X46583D01*
Y37000D01*
X46650Y37033D01*
X46683D01*
X46717Y37000D01*
Y36933D01*
X46683Y36900D01*
X46617D01*
X46583Y36933D01*
X20783Y31650D02*
Y31450D01*
X20917D01*
X20983Y31617D02*
X21017Y31650D01*
X21083D01*
X21117Y31617D01*
Y31583D01*
X21083Y31550D01*
X21050D01*
X21083D01*
X21117Y31517D01*
Y31483D01*
X21083Y31450D01*
X21017D01*
X20983Y31483D01*
X15833Y37800D02*
Y37600D01*
X15967D01*
X16167D02*
X16033D01*
X16167Y37733D01*
Y37767D01*
X16133Y37800D01*
X16067D01*
X16033Y37767D01*
X35500Y34233D02*
X35700D01*
Y34367D01*
Y34433D02*
Y34500D01*
Y34467D01*
X35500D01*
X35533Y34433D01*
X41467Y49750D02*
X41400D01*
X41433D01*
Y49583D01*
X41400Y49550D01*
X41367D01*
X41333Y49583D01*
X41533Y49717D02*
X41567Y49750D01*
X41633D01*
X41667Y49717D01*
Y49683D01*
X41633Y49650D01*
X41600D01*
X41633D01*
X41667Y49617D01*
Y49583D01*
X41633Y49550D01*
X41567D01*
X41533Y49583D01*
X17593Y24330D02*
X17527D01*
X17560D01*
Y24163D01*
X17527Y24130D01*
X17493D01*
X17460Y24163D01*
X17793Y24130D02*
X17660D01*
X17793Y24263D01*
Y24297D01*
X17760Y24330D01*
X17693D01*
X17660Y24297D01*
X13450Y49700D02*
X13383D01*
X13417D01*
Y49533D01*
X13383Y49500D01*
X13350D01*
X13317Y49533D01*
X13517Y49500D02*
X13583D01*
X13550D01*
Y49700D01*
X13517Y49667D01*
X17050Y25800D02*
X16917D01*
Y25700D01*
X16983D01*
X16917D01*
Y25600D01*
X17117D02*
X17183D01*
X17150D01*
Y25800D01*
X17117Y25767D01*
X45450Y40350D02*
Y40150D01*
X45550D01*
X45583Y40183D01*
Y40317D01*
X45550Y40350D01*
X45450D01*
X45650Y40150D02*
X45717D01*
X45683D01*
Y40350D01*
X45650Y40317D01*
X45917Y40150D02*
Y40350D01*
X45817Y40250D01*
X45950D01*
X11800Y35200D02*
Y35000D01*
X11900D01*
X11933Y35033D01*
Y35167D01*
X11900Y35200D01*
X11800D01*
X12000Y35000D02*
X12067D01*
X12033D01*
Y35200D01*
X12000Y35167D01*
X12300Y35000D02*
X12167D01*
X12300Y35133D01*
Y35167D01*
X12267Y35200D01*
X12200D01*
X12167Y35167D01*
X14050Y24750D02*
Y24550D01*
X14150D01*
X14183Y24583D01*
Y24717D01*
X14150Y24750D01*
X14050D01*
X14250Y24550D02*
X14317D01*
X14283D01*
Y24750D01*
X14250Y24717D01*
X14417D02*
X14450Y24750D01*
X14517D01*
X14550Y24717D01*
Y24683D01*
X14517Y24650D01*
X14483D01*
X14517D01*
X14550Y24617D01*
Y24583D01*
X14517Y24550D01*
X14450D01*
X14417Y24583D01*
X13700Y36250D02*
X13900D01*
Y36350D01*
X13867Y36383D01*
X13733D01*
X13700Y36350D01*
Y36250D01*
X13900Y36450D02*
Y36517D01*
Y36483D01*
X13700D01*
X13733Y36450D01*
Y36617D02*
X13700Y36650D01*
Y36717D01*
X13733Y36750D01*
X13867D01*
X13900Y36717D01*
Y36650D01*
X13867Y36617D01*
X13733D01*
X43180Y47380D02*
Y47180D01*
X43280D01*
X43313Y47213D01*
Y47347D01*
X43280Y47380D01*
X43180D01*
X43380D02*
X43513D01*
Y47347D01*
X43380Y47213D01*
Y47180D01*
X40433Y46500D02*
Y46300D01*
X40533D01*
X40567Y46333D01*
Y46467D01*
X40533Y46500D01*
X40433D01*
X40767D02*
X40700Y46467D01*
X40633Y46400D01*
Y46333D01*
X40667Y46300D01*
X40733D01*
X40767Y46333D01*
Y46367D01*
X40733Y46400D01*
X40633D01*
X40383Y43950D02*
Y43750D01*
X40483D01*
X40517Y43783D01*
Y43917D01*
X40483Y43950D01*
X40383D01*
X40717D02*
X40583D01*
Y43850D01*
X40650Y43883D01*
X40683D01*
X40717Y43850D01*
Y43783D01*
X40683Y43750D01*
X40617D01*
X40583Y43783D01*
X18283Y46350D02*
Y46150D01*
X18383D01*
X18417Y46183D01*
Y46317D01*
X18383Y46350D01*
X18283D01*
X18583Y46150D02*
Y46350D01*
X18483Y46250D01*
X18617D01*
X34370Y48278D02*
X34570D01*
Y48378D01*
X34536Y48411D01*
X34403D01*
X34370Y48378D01*
Y48278D01*
X34570Y48477D02*
Y48544D01*
Y48511D01*
X34370D01*
X34403Y48477D01*
X32650Y48183D02*
X32850D01*
Y48283D01*
X32817Y48317D01*
X32683D01*
X32650Y48283D01*
Y48183D01*
X32850Y48517D02*
Y48383D01*
X32717Y48517D01*
X32683D01*
X32650Y48483D01*
Y48417D01*
X32683Y48383D01*
X30900Y48133D02*
X31100D01*
Y48233D01*
X31067Y48267D01*
X30933D01*
X30900Y48233D01*
Y48133D01*
X30933Y48333D02*
X30900Y48367D01*
Y48433D01*
X30933Y48467D01*
X30967D01*
X31000Y48433D01*
Y48400D01*
Y48433D01*
X31033Y48467D01*
X31067D01*
X31100Y48433D01*
Y48367D01*
X31067Y48333D01*
X40867Y37117D02*
X40833Y37150D01*
X40767D01*
X40733Y37117D01*
Y36983D01*
X40767Y36950D01*
X40833D01*
X40867Y36983D01*
X41033Y36950D02*
Y37150D01*
X40933Y37050D01*
X41067D01*
X41267Y36950D02*
X41133D01*
X41267Y37083D01*
Y37117D01*
X41233Y37150D01*
X41167D01*
X41133Y37117D01*
X44050Y36767D02*
X44017Y36800D01*
X43950D01*
X43917Y36767D01*
Y36633D01*
X43950Y36600D01*
X44017D01*
X44050Y36633D01*
X44217Y36600D02*
Y36800D01*
X44117Y36700D01*
X44250D01*
X44317Y36600D02*
X44383D01*
X44350D01*
Y36800D01*
X44317Y36767D01*
X37017Y36617D02*
X36983Y36650D01*
X36917D01*
X36883Y36617D01*
Y36483D01*
X36917Y36450D01*
X36983D01*
X37017Y36483D01*
X37183Y36450D02*
Y36650D01*
X37083Y36550D01*
X37217D01*
X37283Y36617D02*
X37317Y36650D01*
X37383D01*
X37417Y36617D01*
Y36483D01*
X37383Y36450D01*
X37317D01*
X37283Y36483D01*
Y36617D01*
X37767D02*
X37733Y36650D01*
X37667D01*
X37633Y36617D01*
Y36483D01*
X37667Y36450D01*
X37733D01*
X37767Y36483D01*
X37833Y36617D02*
X37867Y36650D01*
X37933D01*
X37967Y36617D01*
Y36583D01*
X37933Y36550D01*
X37900D01*
X37933D01*
X37967Y36517D01*
Y36483D01*
X37933Y36450D01*
X37867D01*
X37833Y36483D01*
X38033D02*
X38067Y36450D01*
X38133D01*
X38167Y36483D01*
Y36617D01*
X38133Y36650D01*
X38067D01*
X38033Y36617D01*
Y36583D01*
X38067Y36550D01*
X38167D01*
X41617Y36417D02*
X41583Y36450D01*
X41517D01*
X41483Y36417D01*
Y36283D01*
X41517Y36250D01*
X41583D01*
X41617Y36283D01*
X41683Y36417D02*
X41717Y36450D01*
X41783D01*
X41817Y36417D01*
Y36383D01*
X41783Y36350D01*
X41750D01*
X41783D01*
X41817Y36317D01*
Y36283D01*
X41783Y36250D01*
X41717D01*
X41683Y36283D01*
X41883Y36417D02*
X41917Y36450D01*
X41983D01*
X42017Y36417D01*
Y36383D01*
X41983Y36350D01*
X42017Y36317D01*
Y36283D01*
X41983Y36250D01*
X41917D01*
X41883Y36283D01*
Y36317D01*
X41917Y36350D01*
X41883Y36383D01*
Y36417D01*
X41917Y36350D02*
X41983D01*
X37767Y37017D02*
X37733Y37050D01*
X37667D01*
X37633Y37017D01*
Y36883D01*
X37667Y36850D01*
X37733D01*
X37767Y36883D01*
X37833Y37017D02*
X37867Y37050D01*
X37933D01*
X37967Y37017D01*
Y36983D01*
X37933Y36950D01*
X37900D01*
X37933D01*
X37967Y36917D01*
Y36883D01*
X37933Y36850D01*
X37867D01*
X37833Y36883D01*
X38033Y37050D02*
X38167D01*
Y37017D01*
X38033Y36883D01*
Y36850D01*
X44017Y37117D02*
X43983Y37150D01*
X43917D01*
X43883Y37117D01*
Y36983D01*
X43917Y36950D01*
X43983D01*
X44017Y36983D01*
X44083Y37117D02*
X44117Y37150D01*
X44183D01*
X44217Y37117D01*
Y37083D01*
X44183Y37050D01*
X44150D01*
X44183D01*
X44217Y37017D01*
Y36983D01*
X44183Y36950D01*
X44117D01*
X44083Y36983D01*
X44417Y37150D02*
X44350Y37117D01*
X44283Y37050D01*
Y36983D01*
X44317Y36950D01*
X44383D01*
X44417Y36983D01*
Y37017D01*
X44383Y37050D01*
X44283D01*
X14717Y35617D02*
X14683Y35650D01*
X14617D01*
X14583Y35617D01*
Y35483D01*
X14617Y35450D01*
X14683D01*
X14717Y35483D01*
X14783Y35617D02*
X14817Y35650D01*
X14883D01*
X14917Y35617D01*
Y35583D01*
X14883Y35550D01*
X14850D01*
X14883D01*
X14917Y35517D01*
Y35483D01*
X14883Y35450D01*
X14817D01*
X14783Y35483D01*
X15117Y35650D02*
X14983D01*
Y35550D01*
X15050Y35583D01*
X15083D01*
X15117Y35550D01*
Y35483D01*
X15083Y35450D01*
X15017D01*
X14983Y35483D01*
X15352Y31067D02*
X15318Y31100D01*
X15252D01*
X15218Y31067D01*
Y30933D01*
X15252Y30900D01*
X15318D01*
X15352Y30933D01*
X15418Y31067D02*
X15452Y31100D01*
X15518D01*
X15552Y31067D01*
Y31033D01*
X15518Y31000D01*
X15485D01*
X15518D01*
X15552Y30967D01*
Y30933D01*
X15518Y30900D01*
X15452D01*
X15418Y30933D01*
X15718Y30900D02*
Y31100D01*
X15618Y31000D01*
X15752D01*
X19050Y34467D02*
X19017Y34500D01*
X18950D01*
X18917Y34467D01*
Y34333D01*
X18950Y34300D01*
X19017D01*
X19050Y34333D01*
X19117Y34467D02*
X19150Y34500D01*
X19217D01*
X19250Y34467D01*
Y34433D01*
X19217Y34400D01*
X19183D01*
X19217D01*
X19250Y34367D01*
Y34333D01*
X19217Y34300D01*
X19150D01*
X19117Y34333D01*
X19317Y34300D02*
X19383D01*
X19350D01*
Y34500D01*
X19317Y34467D01*
X19883Y30517D02*
X19850Y30483D01*
Y30417D01*
X19883Y30383D01*
X20017D01*
X20050Y30417D01*
Y30483D01*
X20017Y30517D01*
X19883Y30583D02*
X19850Y30617D01*
Y30683D01*
X19883Y30717D01*
X19917D01*
X19950Y30683D01*
Y30650D01*
Y30683D01*
X19983Y30717D01*
X20017D01*
X20050Y30683D01*
Y30617D01*
X20017Y30583D01*
X19883Y30783D02*
X19850Y30817D01*
Y30883D01*
X19883Y30917D01*
X20017D01*
X20050Y30883D01*
Y30817D01*
X20017Y30783D01*
X19883D01*
X34233Y34317D02*
X34200Y34283D01*
Y34217D01*
X34233Y34183D01*
X34367D01*
X34400Y34217D01*
Y34283D01*
X34367Y34317D01*
X34400Y34517D02*
Y34383D01*
X34267Y34517D01*
X34233D01*
X34200Y34483D01*
Y34417D01*
X34233Y34383D01*
X34367Y34583D02*
X34400Y34617D01*
Y34683D01*
X34367Y34717D01*
X34233D01*
X34200Y34683D01*
Y34617D01*
X34233Y34583D01*
X34267D01*
X34300Y34617D01*
Y34717D01*
X34833Y34317D02*
X34800Y34283D01*
Y34217D01*
X34833Y34183D01*
X34967D01*
X35000Y34217D01*
Y34283D01*
X34967Y34317D01*
X35000Y34517D02*
Y34383D01*
X34867Y34517D01*
X34833D01*
X34800Y34483D01*
Y34417D01*
X34833Y34383D01*
Y34583D02*
X34800Y34617D01*
Y34683D01*
X34833Y34717D01*
X34867D01*
X34900Y34683D01*
X34933Y34717D01*
X34967D01*
X35000Y34683D01*
Y34617D01*
X34967Y34583D01*
X34933D01*
X34900Y34617D01*
X34867Y34583D01*
X34833D01*
X34900Y34617D02*
Y34683D01*
X36233Y34317D02*
X36200Y34283D01*
Y34217D01*
X36233Y34183D01*
X36367D01*
X36400Y34217D01*
Y34283D01*
X36367Y34317D01*
X36400Y34517D02*
Y34383D01*
X36267Y34517D01*
X36233D01*
X36200Y34483D01*
Y34417D01*
X36233Y34383D01*
X36200Y34583D02*
Y34717D01*
X36233D01*
X36367Y34583D01*
X36400D01*
X31383Y34317D02*
X31350Y34283D01*
Y34217D01*
X31383Y34183D01*
X31517D01*
X31550Y34217D01*
Y34283D01*
X31517Y34317D01*
X31550Y34517D02*
Y34383D01*
X31417Y34517D01*
X31383D01*
X31350Y34483D01*
Y34417D01*
X31383Y34383D01*
X31350Y34717D02*
X31383Y34650D01*
X31450Y34583D01*
X31517D01*
X31550Y34617D01*
Y34683D01*
X31517Y34717D01*
X31483D01*
X31450Y34683D01*
Y34583D01*
X33033Y34317D02*
X33000Y34283D01*
Y34217D01*
X33033Y34183D01*
X33167D01*
X33200Y34217D01*
Y34283D01*
X33167Y34317D01*
X33200Y34517D02*
Y34383D01*
X33067Y34517D01*
X33033D01*
X33000Y34483D01*
Y34417D01*
X33033Y34383D01*
X33000Y34717D02*
Y34583D01*
X33100D01*
X33067Y34650D01*
Y34683D01*
X33100Y34717D01*
X33167D01*
X33200Y34683D01*
Y34617D01*
X33167Y34583D01*
X36783Y34317D02*
X36750Y34283D01*
Y34217D01*
X36783Y34183D01*
X36917D01*
X36950Y34217D01*
Y34283D01*
X36917Y34317D01*
X36950Y34383D02*
Y34450D01*
Y34417D01*
X36750D01*
X36783Y34383D01*
X36917Y34550D02*
X36950Y34583D01*
Y34650D01*
X36917Y34683D01*
X36783D01*
X36750Y34650D01*
Y34583D01*
X36783Y34550D01*
X36817D01*
X36850Y34583D01*
Y34683D01*
X29333Y31033D02*
X29300Y31000D01*
Y30933D01*
X29333Y30900D01*
X29467D01*
X29500Y30933D01*
Y31000D01*
X29467Y31033D01*
X29500Y31100D02*
Y31167D01*
Y31133D01*
X29300D01*
X29333Y31100D01*
Y31267D02*
X29300Y31300D01*
Y31367D01*
X29333Y31400D01*
X29367D01*
X29400Y31367D01*
X29433Y31400D01*
X29467D01*
X29500Y31367D01*
Y31300D01*
X29467Y31267D01*
X29433D01*
X29400Y31300D01*
X29367Y31267D01*
X29333D01*
X29400Y31300D02*
Y31367D01*
X27367Y28067D02*
X27333Y28100D01*
X27267D01*
X27233Y28067D01*
Y27933D01*
X27267Y27900D01*
X27333D01*
X27367Y27933D01*
X27567Y27900D02*
X27433D01*
X27567Y28033D01*
Y28067D01*
X27533Y28100D01*
X27467D01*
X27433Y28067D01*
X27633D02*
X27667Y28100D01*
X27733D01*
X27767Y28067D01*
Y27933D01*
X27733Y27900D01*
X27667D01*
X27633Y27933D01*
Y28067D01*
X34717Y30767D02*
X34683Y30800D01*
X34617D01*
X34583Y30767D01*
Y30633D01*
X34617Y30600D01*
X34683D01*
X34717Y30633D01*
X34917Y30600D02*
X34783D01*
X34917Y30733D01*
Y30767D01*
X34883Y30800D01*
X34817D01*
X34783Y30767D01*
X35117Y30600D02*
X34983D01*
X35117Y30733D01*
Y30767D01*
X35083Y30800D01*
X35017D01*
X34983Y30767D01*
X34717Y28367D02*
X34683Y28400D01*
X34617D01*
X34583Y28367D01*
Y28233D01*
X34617Y28200D01*
X34683D01*
X34717Y28233D01*
X34917Y28200D02*
X34783D01*
X34917Y28333D01*
Y28367D01*
X34883Y28400D01*
X34817D01*
X34783Y28367D01*
X34983Y28200D02*
X35050D01*
X35017D01*
Y28400D01*
X34983Y28367D01*
X26533Y30183D02*
X26500Y30150D01*
Y30083D01*
X26533Y30050D01*
X26667D01*
X26700Y30083D01*
Y30150D01*
X26667Y30183D01*
X26700Y30250D02*
Y30317D01*
Y30283D01*
X26500D01*
X26533Y30250D01*
X26500Y30417D02*
Y30550D01*
X26533D01*
X26667Y30417D01*
X26700D01*
X34717Y28967D02*
X34683Y29000D01*
X34617D01*
X34583Y28967D01*
Y28833D01*
X34617Y28800D01*
X34683D01*
X34717Y28833D01*
X34783Y28800D02*
X34850D01*
X34817D01*
Y29000D01*
X34783Y28967D01*
X35083Y28800D02*
X34950D01*
X35083Y28933D01*
Y28967D01*
X35050Y29000D01*
X34983D01*
X34950Y28967D01*
X37917Y30167D02*
X37883Y30200D01*
X37817D01*
X37783Y30167D01*
Y30033D01*
X37817Y30000D01*
X37883D01*
X37917Y30033D01*
X37983Y30000D02*
X38050D01*
X38017D01*
Y30200D01*
X37983Y30167D01*
X38150D02*
X38183Y30200D01*
X38250D01*
X38283Y30167D01*
Y30033D01*
X38250Y30000D01*
X38183D01*
X38150Y30033D01*
Y30167D01*
X41383Y46347D02*
X41350Y46380D01*
X41283D01*
X41250Y46347D01*
Y46213D01*
X41283Y46180D01*
X41350D01*
X41383Y46213D01*
X41450D02*
X41483Y46180D01*
X41550D01*
X41583Y46213D01*
Y46347D01*
X41550Y46380D01*
X41483D01*
X41450Y46347D01*
Y46313D01*
X41483Y46280D01*
X41583D01*
X41933Y46347D02*
X41900Y46380D01*
X41833D01*
X41800Y46347D01*
Y46213D01*
X41833Y46180D01*
X41900D01*
X41933Y46213D01*
X42000Y46347D02*
X42033Y46380D01*
X42100D01*
X42133Y46347D01*
Y46313D01*
X42100Y46280D01*
X42133Y46247D01*
Y46213D01*
X42100Y46180D01*
X42033D01*
X42000Y46213D01*
Y46247D01*
X42033Y46280D01*
X42000Y46313D01*
Y46347D01*
X42033Y46280D02*
X42100D01*
X18417Y47117D02*
X18383Y47150D01*
X18317D01*
X18283Y47117D01*
Y46983D01*
X18317Y46950D01*
X18383D01*
X18417Y46983D01*
X18483Y47150D02*
X18617D01*
Y47117D01*
X18483Y46983D01*
Y46950D01*
X18917Y47117D02*
X18883Y47150D01*
X18817D01*
X18783Y47117D01*
Y46983D01*
X18817Y46950D01*
X18883D01*
X18917Y46983D01*
X19117Y47150D02*
X19050Y47117D01*
X18983Y47050D01*
Y46983D01*
X19017Y46950D01*
X19083D01*
X19117Y46983D01*
Y47017D01*
X19083Y47050D01*
X18983D01*
X19467Y47117D02*
X19433Y47150D01*
X19367D01*
X19333Y47117D01*
Y46983D01*
X19367Y46950D01*
X19433D01*
X19467Y46983D01*
X19667Y47150D02*
X19533D01*
Y47050D01*
X19600Y47083D01*
X19633D01*
X19667Y47050D01*
Y46983D01*
X19633Y46950D01*
X19567D01*
X19533Y46983D01*
X20017Y47117D02*
X19983Y47150D01*
X19917D01*
X19883Y47117D01*
Y46983D01*
X19917Y46950D01*
X19983D01*
X20017Y46983D01*
X20183Y46950D02*
Y47150D01*
X20083Y47050D01*
X20217D01*
X29367Y46767D02*
X29333Y46800D01*
X29267D01*
X29233Y46767D01*
Y46633D01*
X29267Y46600D01*
X29333D01*
X29367Y46633D01*
X29433Y46767D02*
X29467Y46800D01*
X29533D01*
X29567Y46767D01*
Y46733D01*
X29533Y46700D01*
X29500D01*
X29533D01*
X29567Y46667D01*
Y46633D01*
X29533Y46600D01*
X29467D01*
X29433Y46633D01*
D18*
X38840Y48800D02*
X38850Y48790D01*
X38840Y44500D02*
X38850Y44490D01*
D19*
X14415Y32050D02*
X14755D01*
X14415Y31550D02*
X14755D01*
M02*
