G04*
G04 #@! TF.GenerationSoftware,Altium Limited,Altium Designer,22.11.1 (43)*
G04*
G04 Layer_Color=128*
%FSLAX24Y24*%
%MOIN*%
G70*
G04*
G04 #@! TF.SameCoordinates,95904809-8EA0-40D1-BC7C-4500F6FC4EB7*
G04*
G04*
G04 #@! TF.FilePolarity,Positive*
G04*
G01*
G75*
%ADD127C,0.0020*%
D127*
X11383Y40878D02*
X11817D01*
X11600Y40661D02*
Y41094D01*
X11383Y42256D02*
X11817D01*
X11600Y42039D02*
Y42472D01*
X11383Y45012D02*
X11817D01*
X11600Y44795D02*
Y45228D01*
X11383Y46390D02*
X11817D01*
X11600Y46173D02*
Y46606D01*
X11383Y47768D02*
X11817D01*
X11600Y47551D02*
Y47984D01*
X11383Y49146D02*
X11817D01*
X11600Y48929D02*
Y49362D01*
X11383Y43634D02*
X11817D01*
X11600Y43417D02*
Y43850D01*
X11383Y39500D02*
X11817D01*
X11600Y39283D02*
Y39717D01*
X11383Y38122D02*
X11817D01*
X11600Y37906D02*
Y38339D01*
X11383Y36744D02*
X11817D01*
X11600Y36528D02*
Y36961D01*
X42325Y27098D02*
X42675D01*
X42500Y26923D02*
Y27273D01*
X41325Y27598D02*
X41675D01*
X41500Y27423D02*
Y27773D01*
X42325Y28098D02*
X42675D01*
X42500Y27923D02*
Y28273D01*
X41325Y28598D02*
X41675D01*
X41500Y28423D02*
Y28773D01*
X42325Y29098D02*
X42675D01*
X42500Y28923D02*
Y29273D01*
X41325Y29598D02*
X41675D01*
X41500Y29423D02*
Y29773D01*
X42325Y30098D02*
X42675D01*
X42500Y29923D02*
Y30273D01*
X41325Y30598D02*
X41675D01*
X41500Y30423D02*
Y30773D01*
X46728Y26242D02*
X47130D01*
X46929Y26041D02*
Y26443D01*
X46728Y27242D02*
X47130D01*
X46929Y27041D02*
Y27443D01*
X46728Y31458D02*
X47130D01*
X46929Y31257D02*
Y31659D01*
X46728Y30458D02*
X47130D01*
X46929Y30257D02*
Y30659D01*
X44360Y31100D02*
X45640D01*
X45000Y30460D02*
Y31740D01*
X44360Y26600D02*
X45640D01*
X45000Y25960D02*
Y27240D01*
X43478Y31899D02*
X44120D01*
X43799Y31578D02*
Y32220D01*
X43478Y25801D02*
X44120D01*
X43799Y25480D02*
Y26122D01*
X11555Y24034D02*
X12145D01*
X11850Y23739D02*
Y24330D01*
X11555Y22066D02*
X12145D01*
X11850Y21770D02*
Y22361D01*
X11633Y32600D02*
X12067D01*
X11850Y32383D02*
Y32817D01*
X10633Y32600D02*
X11067D01*
X10850Y32383D02*
Y32817D01*
X11633Y31600D02*
X12067D01*
X11850Y31383D02*
Y31817D01*
X10633Y31600D02*
X11067D01*
X10850Y31383D02*
Y31817D01*
X11633Y27350D02*
X12067D01*
X11850Y27133D02*
Y27567D01*
X10633Y27350D02*
X11067D01*
X10850Y27133D02*
Y27567D01*
X11633Y26350D02*
X12067D01*
X11850Y26133D02*
Y26567D01*
X10633Y26350D02*
X11067D01*
X10850Y26133D02*
Y26567D01*
X10633Y28350D02*
X11067D01*
X10850Y28133D02*
Y28567D01*
X10633Y29350D02*
X11067D01*
X10850Y29133D02*
Y29567D01*
X11633Y28350D02*
X12067D01*
X11850Y28133D02*
Y28567D01*
X11633Y29350D02*
X12067D01*
X11850Y29133D02*
Y29567D01*
X37033Y21750D02*
X37467D01*
X37250Y21533D02*
Y21967D01*
X38033Y21750D02*
X38467D01*
X38250Y21533D02*
Y21967D01*
X37033Y22750D02*
X37467D01*
X37250Y22533D02*
Y22967D01*
X38033Y22750D02*
X38467D01*
X38250Y22533D02*
Y22967D01*
X40033Y22750D02*
X40467D01*
X40250Y22533D02*
Y22967D01*
X40033Y21750D02*
X40467D01*
X40250Y21533D02*
Y21967D01*
X39033Y22750D02*
X39467D01*
X39250Y22533D02*
Y22967D01*
X39033Y21750D02*
X39467D01*
X39250Y21533D02*
Y21967D01*
X45066Y47837D02*
X45401D01*
X45233Y47670D02*
Y48005D01*
X42133Y47837D02*
X42468D01*
X42300Y47670D02*
Y48005D01*
X45184Y49333D02*
X45401D01*
X45292Y49225D02*
Y49442D01*
X42133Y49333D02*
X42350D01*
X42241Y49225D02*
Y49442D01*
X42625Y48251D02*
X42940D01*
X42783Y48093D02*
Y48408D01*
X44594Y48251D02*
X44909D01*
X44751Y48093D02*
Y48408D01*
X47559Y21950D02*
X48741D01*
X48150Y21360D02*
Y22541D01*
X38545Y46400D02*
X38855D01*
X38700Y46245D02*
Y46555D01*
X36545Y48900D02*
X36855D01*
X36700Y48745D02*
Y49055D01*
X38545Y48900D02*
X38855D01*
X38700Y48745D02*
Y49055D01*
X36545Y46400D02*
X36855D01*
X36700Y46245D02*
Y46555D01*
X38545Y42100D02*
X38855D01*
X38700Y41945D02*
Y42255D01*
X36545Y44600D02*
X36855D01*
X36700Y44445D02*
Y44755D01*
X38545Y44600D02*
X38855D01*
X38700Y44445D02*
Y44755D01*
X36545Y42100D02*
X36855D01*
X36700Y41945D02*
Y42255D01*
X47787Y38434D02*
X48181D01*
X47984Y38237D02*
Y38631D01*
X47787Y37434D02*
X48181D01*
X47984Y37237D02*
Y37631D01*
X47787Y40834D02*
X48181D01*
X47984Y40637D02*
Y41031D01*
X47787Y39834D02*
X48181D01*
X47984Y39637D02*
Y40031D01*
X26239Y22300D02*
X26672D01*
X26456Y22083D02*
Y22517D01*
X24861Y22300D02*
X25294D01*
X25078Y22083D02*
Y22517D01*
X22106Y22300D02*
X22539D01*
X22322Y22083D02*
Y22517D01*
X20728Y22300D02*
X21161D01*
X20944Y22083D02*
Y22517D01*
X19350Y22300D02*
X19783D01*
X19566Y22083D02*
Y22517D01*
X17972Y22300D02*
X18405D01*
X18188Y22083D02*
Y22517D01*
X23483Y22300D02*
X23917D01*
X23700Y22083D02*
Y22517D01*
X27617Y22300D02*
X28050D01*
X27834Y22083D02*
Y22517D01*
X28995Y22300D02*
X29428D01*
X29212Y22083D02*
Y22517D01*
X30373Y22300D02*
X30806D01*
X30590Y22083D02*
Y22517D01*
X47559Y48800D02*
X48741D01*
X48150Y48210D02*
Y49391D01*
X48461Y48000D02*
X48539D01*
X48500Y47961D02*
Y48039D01*
X47961Y47000D02*
X48039D01*
X48000Y46961D02*
Y47039D01*
X48461Y46000D02*
X48539D01*
X48500Y45961D02*
Y46039D01*
X47961Y43000D02*
X48039D01*
X48000Y42961D02*
Y43039D01*
X48461Y42000D02*
X48539D01*
X48500Y41961D02*
Y42039D01*
X48461Y40000D02*
X48539D01*
X48500Y39961D02*
Y40039D01*
X47961Y39000D02*
X48039D01*
X48000Y38961D02*
Y39039D01*
X48461Y38000D02*
X48539D01*
X48500Y37961D02*
Y38039D01*
X48461Y36000D02*
X48539D01*
X48500Y35961D02*
Y36039D01*
X47961Y35000D02*
X48039D01*
X48000Y34961D02*
Y35039D01*
X47961Y23000D02*
X48039D01*
X48000Y22961D02*
Y23039D01*
X47961Y21000D02*
X48039D01*
X48000Y20961D02*
Y21039D01*
X46961Y49000D02*
X47039D01*
X47000Y48961D02*
Y49039D01*
X47461Y48000D02*
X47539D01*
X47500Y47961D02*
Y48039D01*
X46961Y47000D02*
X47039D01*
X47000Y46961D02*
Y47039D01*
X47461Y42000D02*
X47539D01*
X47500Y41961D02*
Y42039D01*
X46961Y41000D02*
X47039D01*
X47000Y40961D02*
Y41039D01*
X47461Y40000D02*
X47539D01*
X47500Y39961D02*
Y40039D01*
X46961Y37000D02*
X47039D01*
X47000Y36961D02*
Y37039D01*
X47461Y36000D02*
X47539D01*
X47500Y35961D02*
Y36039D01*
X46961Y35000D02*
X47039D01*
X47000Y34961D02*
Y35039D01*
X47461Y34000D02*
X47539D01*
X47500Y33961D02*
Y34039D01*
X46961Y23000D02*
X47039D01*
X47000Y22961D02*
Y23039D01*
X46961Y21000D02*
X47039D01*
X47000Y20961D02*
Y21039D01*
X45961Y49000D02*
X46039D01*
X46000Y48961D02*
Y49039D01*
X46461Y48000D02*
X46539D01*
X46500Y47961D02*
Y48039D01*
X45961Y47000D02*
X46039D01*
X46000Y46961D02*
Y47039D01*
X45961Y43000D02*
X46039D01*
X46000Y42961D02*
Y43039D01*
X46461Y42000D02*
X46539D01*
X46500Y41961D02*
Y42039D01*
X45961Y41000D02*
X46039D01*
X46000Y40961D02*
Y41039D01*
X46461Y38000D02*
X46539D01*
X46500Y37961D02*
Y38039D01*
X45961Y37000D02*
X46039D01*
X46000Y36961D02*
Y37039D01*
X46461Y36000D02*
X46539D01*
X46500Y35961D02*
Y36039D01*
X45961Y35000D02*
X46039D01*
X46000Y34961D02*
Y35039D01*
X46461Y34000D02*
X46539D01*
X46500Y33961D02*
Y34039D01*
X45961Y23000D02*
X46039D01*
X46000Y22961D02*
Y23039D01*
X46461Y22000D02*
X46539D01*
X46500Y21961D02*
Y22039D01*
X45961Y21000D02*
X46039D01*
X46000Y20961D02*
Y21039D01*
X44961Y47000D02*
X45039D01*
X45000Y46961D02*
Y47039D01*
X45461Y46000D02*
X45539D01*
X45500Y45961D02*
Y46039D01*
X44961Y45000D02*
X45039D01*
X45000Y44961D02*
Y45039D01*
X44961Y43000D02*
X45039D01*
X45000Y42961D02*
Y43039D01*
X45461Y42000D02*
X45539D01*
X45500Y41961D02*
Y42039D01*
X44961Y41000D02*
X45039D01*
X45000Y40961D02*
Y41039D01*
X45461Y38000D02*
X45539D01*
X45500Y37961D02*
Y38039D01*
X44961Y37000D02*
X45039D01*
X45000Y36961D02*
Y37039D01*
X45461Y36000D02*
X45539D01*
X45500Y35961D02*
Y36039D01*
X44961Y35000D02*
X45039D01*
X45000Y34961D02*
Y35039D01*
X45461Y34000D02*
X45539D01*
X45500Y33961D02*
Y34039D01*
X45461Y22000D02*
X45539D01*
X45500Y21961D02*
Y22039D01*
X44961Y21000D02*
X45039D01*
X45000Y20961D02*
Y21039D01*
X43961Y49000D02*
X44039D01*
X44000Y48961D02*
Y49039D01*
X44461Y42000D02*
X44539D01*
X44500Y41961D02*
Y42039D01*
X43961Y41000D02*
X44039D01*
X44000Y40961D02*
Y41039D01*
X44461Y40000D02*
X44539D01*
X44500Y39961D02*
Y40039D01*
X44461Y38000D02*
X44539D01*
X44500Y37961D02*
Y38039D01*
X43961Y37000D02*
X44039D01*
X44000Y36961D02*
Y37039D01*
X44461Y36000D02*
X44539D01*
X44500Y35961D02*
Y36039D01*
X43961Y35000D02*
X44039D01*
X44000Y34961D02*
Y35039D01*
X44461Y34000D02*
X44539D01*
X44500Y33961D02*
Y34039D01*
X43961Y23000D02*
X44039D01*
X44000Y22961D02*
Y23039D01*
X44461Y22000D02*
X44539D01*
X44500Y21961D02*
Y22039D01*
X43961Y21000D02*
X44039D01*
X44000Y20961D02*
Y21039D01*
X42961Y49000D02*
X43039D01*
X43000Y48961D02*
Y49039D01*
X42961Y47000D02*
X43039D01*
X43000Y46961D02*
Y47039D01*
X42961Y45000D02*
X43039D01*
X43000Y44961D02*
Y45039D01*
X42961Y43000D02*
X43039D01*
X43000Y42961D02*
Y43039D01*
X43461Y42000D02*
X43539D01*
X43500Y41961D02*
Y42039D01*
X42961Y41000D02*
X43039D01*
X43000Y40961D02*
Y41039D01*
X43461Y38000D02*
X43539D01*
X43500Y37961D02*
Y38039D01*
X42961Y37000D02*
X43039D01*
X43000Y36961D02*
Y37039D01*
X43461Y36000D02*
X43539D01*
X43500Y35961D02*
Y36039D01*
X42961Y35000D02*
X43039D01*
X43000Y34961D02*
Y35039D01*
X43461Y34000D02*
X43539D01*
X43500Y33961D02*
Y34039D01*
X42961Y23000D02*
X43039D01*
X43000Y22961D02*
Y23039D01*
X43461Y22000D02*
X43539D01*
X43500Y21961D02*
Y22039D01*
X42961Y21000D02*
X43039D01*
X43000Y20961D02*
Y21039D01*
X41961Y47000D02*
X42039D01*
X42000Y46961D02*
Y47039D01*
X42461Y42000D02*
X42539D01*
X42500Y41961D02*
Y42039D01*
X41961Y37000D02*
X42039D01*
X42000Y36961D02*
Y37039D01*
X42461Y36000D02*
X42539D01*
X42500Y35961D02*
Y36039D01*
X41961Y35000D02*
X42039D01*
X42000Y34961D02*
Y35039D01*
X42461Y34000D02*
X42539D01*
X42500Y33961D02*
Y34039D01*
X41961Y23000D02*
X42039D01*
X42000Y22961D02*
Y23039D01*
X42461Y22000D02*
X42539D01*
X42500Y21961D02*
Y22039D01*
X41961Y21000D02*
X42039D01*
X42000Y20961D02*
Y21039D01*
X40961Y49000D02*
X41039D01*
X41000Y48961D02*
Y49039D01*
X41461Y48000D02*
X41539D01*
X41500Y47961D02*
Y48039D01*
X40961Y47000D02*
X41039D01*
X41000Y46961D02*
Y47039D01*
X40961Y43000D02*
X41039D01*
X41000Y42961D02*
Y43039D01*
X41461Y42000D02*
X41539D01*
X41500Y41961D02*
Y42039D01*
X41461Y38000D02*
X41539D01*
X41500Y37961D02*
Y38039D01*
X40961Y37000D02*
X41039D01*
X41000Y36961D02*
Y37039D01*
X41461Y36000D02*
X41539D01*
X41500Y35961D02*
Y36039D01*
X40961Y35000D02*
X41039D01*
X41000Y34961D02*
Y35039D01*
X41461Y34000D02*
X41539D01*
X41500Y33961D02*
Y34039D01*
X40961Y23000D02*
X41039D01*
X41000Y22961D02*
Y23039D01*
X41461Y22000D02*
X41539D01*
X41500Y21961D02*
Y22039D01*
X40961Y21000D02*
X41039D01*
X41000Y20961D02*
Y21039D01*
X40461Y48000D02*
X40539D01*
X40500Y47961D02*
Y48039D01*
X39961Y45000D02*
X40039D01*
X40000Y44961D02*
Y45039D01*
X40461Y44000D02*
X40539D01*
X40500Y43961D02*
Y44039D01*
X39961Y43000D02*
X40039D01*
X40000Y42961D02*
Y43039D01*
X40461Y42000D02*
X40539D01*
X40500Y41961D02*
Y42039D01*
X39961Y39000D02*
X40039D01*
X40000Y38961D02*
Y39039D01*
X40461Y38000D02*
X40539D01*
X40500Y37961D02*
Y38039D01*
X39961Y37000D02*
X40039D01*
X40000Y36961D02*
Y37039D01*
X40461Y36000D02*
X40539D01*
X40500Y35961D02*
Y36039D01*
X39961Y35000D02*
X40039D01*
X40000Y34961D02*
Y35039D01*
X40461Y34000D02*
X40539D01*
X40500Y33961D02*
Y34039D01*
X39961Y21000D02*
X40039D01*
X40000Y20961D02*
Y21039D01*
X38961Y47000D02*
X39039D01*
X39000Y46961D02*
Y47039D01*
X39461Y44000D02*
X39539D01*
X39500Y43961D02*
Y44039D01*
X38961Y43000D02*
X39039D01*
X39000Y42961D02*
Y43039D01*
X39461Y40000D02*
X39539D01*
X39500Y39961D02*
Y40039D01*
X39461Y38000D02*
X39539D01*
X39500Y37961D02*
Y38039D01*
X38961Y37000D02*
X39039D01*
X39000Y36961D02*
Y37039D01*
X39461Y36000D02*
X39539D01*
X39500Y35961D02*
Y36039D01*
X38961Y35000D02*
X39039D01*
X39000Y34961D02*
Y35039D01*
X39461Y34000D02*
X39539D01*
X39500Y33961D02*
Y34039D01*
X38961Y21000D02*
X39039D01*
X39000Y20961D02*
Y21039D01*
X38461Y48000D02*
X38539D01*
X38500Y47961D02*
Y48039D01*
X37961Y47000D02*
X38039D01*
X38000Y46961D02*
Y47039D01*
X37961Y45000D02*
X38039D01*
X38000Y44961D02*
Y45039D01*
X38461Y44000D02*
X38539D01*
X38500Y43961D02*
Y44039D01*
X38461Y38000D02*
X38539D01*
X38500Y37961D02*
Y38039D01*
X37961Y37000D02*
X38039D01*
X38000Y36961D02*
Y37039D01*
X38461Y36000D02*
X38539D01*
X38500Y35961D02*
Y36039D01*
X37961Y35000D02*
X38039D01*
X38000Y34961D02*
Y35039D01*
X38461Y34000D02*
X38539D01*
X38500Y33961D02*
Y34039D01*
X38461Y32000D02*
X38539D01*
X38500Y31961D02*
Y32039D01*
X38461Y24000D02*
X38539D01*
X38500Y23961D02*
Y24039D01*
X37961Y21000D02*
X38039D01*
X38000Y20961D02*
Y21039D01*
X36961Y47000D02*
X37039D01*
X37000Y46961D02*
Y47039D01*
X37461Y46000D02*
X37539D01*
X37500Y45961D02*
Y46039D01*
X37461Y44000D02*
X37539D01*
X37500Y43961D02*
Y44039D01*
X36961Y43000D02*
X37039D01*
X37000Y42961D02*
Y43039D01*
X37461Y42000D02*
X37539D01*
X37500Y41961D02*
Y42039D01*
X36961Y37000D02*
X37039D01*
X37000Y36961D02*
Y37039D01*
X37461Y36000D02*
X37539D01*
X37500Y35961D02*
Y36039D01*
X37461Y24000D02*
X37539D01*
X37500Y23961D02*
Y24039D01*
X36961Y21000D02*
X37039D01*
X37000Y20961D02*
Y21039D01*
X36461Y44000D02*
X36539D01*
X36500Y43961D02*
Y44039D01*
X36461Y24000D02*
X36539D01*
X36500Y23961D02*
Y24039D01*
X35961Y23000D02*
X36039D01*
X36000Y22961D02*
Y23039D01*
X35961Y21000D02*
X36039D01*
X36000Y20961D02*
Y21039D01*
X34961Y47000D02*
X35039D01*
X35000Y46961D02*
Y47039D01*
X34961Y45000D02*
X35039D01*
X35000Y44961D02*
Y45039D01*
X34961Y43000D02*
X35039D01*
X35000Y42961D02*
Y43039D01*
X34961Y41000D02*
X35039D01*
X35000Y40961D02*
Y41039D01*
X34961Y39000D02*
X35039D01*
X35000Y38961D02*
Y39039D01*
X34961Y35000D02*
X35039D01*
X35000Y34961D02*
Y35039D01*
X35461Y24000D02*
X35539D01*
X35500Y23961D02*
Y24039D01*
X34961Y21000D02*
X35039D01*
X35000Y20961D02*
Y21039D01*
X34461Y46000D02*
X34539D01*
X34500Y45961D02*
Y46039D01*
X34461Y44000D02*
X34539D01*
X34500Y43961D02*
Y44039D01*
X34461Y42000D02*
X34539D01*
X34500Y41961D02*
Y42039D01*
X33961Y41000D02*
X34039D01*
X34000Y40961D02*
Y41039D01*
X34461Y40000D02*
X34539D01*
X34500Y39961D02*
Y40039D01*
X33961Y39000D02*
X34039D01*
X34000Y38961D02*
Y39039D01*
X33961Y37000D02*
X34039D01*
X34000Y36961D02*
Y37039D01*
X34461Y36000D02*
X34539D01*
X34500Y35961D02*
Y36039D01*
X33961Y35000D02*
X34039D01*
X34000Y34961D02*
Y35039D01*
X33961Y25000D02*
X34039D01*
X34000Y24961D02*
Y25039D01*
X34461Y22000D02*
X34539D01*
X34500Y21961D02*
Y22039D01*
X33961Y21000D02*
X34039D01*
X34000Y20961D02*
Y21039D01*
X32961Y47000D02*
X33039D01*
X33000Y46961D02*
Y47039D01*
X33461Y46000D02*
X33539D01*
X33500Y45961D02*
Y46039D01*
X32961Y43000D02*
X33039D01*
X33000Y42961D02*
Y43039D01*
X32961Y41000D02*
X33039D01*
X33000Y40961D02*
Y41039D01*
X32961Y39000D02*
X33039D01*
X33000Y38961D02*
Y39039D01*
X32961Y37000D02*
X33039D01*
X33000Y36961D02*
Y37039D01*
X33461Y36000D02*
X33539D01*
X33500Y35961D02*
Y36039D01*
X32961Y35000D02*
X33039D01*
X33000Y34961D02*
Y35039D01*
X33461Y22000D02*
X33539D01*
X33500Y21961D02*
Y22039D01*
X32961Y21000D02*
X33039D01*
X33000Y20961D02*
Y21039D01*
X31961Y47000D02*
X32039D01*
X32000Y46961D02*
Y47039D01*
X31961Y45000D02*
X32039D01*
X32000Y44961D02*
Y45039D01*
X32461Y44000D02*
X32539D01*
X32500Y43961D02*
Y44039D01*
X31961Y43000D02*
X32039D01*
X32000Y42961D02*
Y43039D01*
X32461Y42000D02*
X32539D01*
X32500Y41961D02*
Y42039D01*
X31961Y41000D02*
X32039D01*
X32000Y40961D02*
Y41039D01*
X32461Y40000D02*
X32539D01*
X32500Y39961D02*
Y40039D01*
X31961Y39000D02*
X32039D01*
X32000Y38961D02*
Y39039D01*
X31961Y37000D02*
X32039D01*
X32000Y36961D02*
Y37039D01*
X32461Y36000D02*
X32539D01*
X32500Y35961D02*
Y36039D01*
X31961Y35000D02*
X32039D01*
X32000Y34961D02*
Y35039D01*
X32461Y26000D02*
X32539D01*
X32500Y25961D02*
Y26039D01*
X32461Y22000D02*
X32539D01*
X32500Y21961D02*
Y22039D01*
X31961Y21000D02*
X32039D01*
X32000Y20961D02*
Y21039D01*
X30961Y47000D02*
X31039D01*
X31000Y46961D02*
Y47039D01*
X31461Y44000D02*
X31539D01*
X31500Y43961D02*
Y44039D01*
X30961Y43000D02*
X31039D01*
X31000Y42961D02*
Y43039D01*
X31461Y42000D02*
X31539D01*
X31500Y41961D02*
Y42039D01*
X30961Y41000D02*
X31039D01*
X31000Y40961D02*
Y41039D01*
X31461Y40000D02*
X31539D01*
X31500Y39961D02*
Y40039D01*
X30961Y39000D02*
X31039D01*
X31000Y38961D02*
Y39039D01*
X30961Y37000D02*
X31039D01*
X31000Y36961D02*
Y37039D01*
X31461Y36000D02*
X31539D01*
X31500Y35961D02*
Y36039D01*
X30961Y35000D02*
X31039D01*
X31000Y34961D02*
Y35039D01*
X31461Y22000D02*
X31539D01*
X31500Y21961D02*
Y22039D01*
X30961Y21000D02*
X31039D01*
X31000Y20961D02*
Y21039D01*
X29961Y47000D02*
X30039D01*
X30000Y46961D02*
Y47039D01*
X30461Y44000D02*
X30539D01*
X30500Y43961D02*
Y44039D01*
X29961Y43000D02*
X30039D01*
X30000Y42961D02*
Y43039D01*
X30461Y42000D02*
X30539D01*
X30500Y41961D02*
Y42039D01*
X29961Y41000D02*
X30039D01*
X30000Y40961D02*
Y41039D01*
X30461Y40000D02*
X30539D01*
X30500Y39961D02*
Y40039D01*
X29961Y39000D02*
X30039D01*
X30000Y38961D02*
Y39039D01*
X29961Y37000D02*
X30039D01*
X30000Y36961D02*
Y37039D01*
X29961Y35000D02*
X30039D01*
X30000Y34961D02*
Y35039D01*
X30461Y26000D02*
X30539D01*
X30500Y25961D02*
Y26039D01*
X29961Y25000D02*
X30039D01*
X30000Y24961D02*
Y25039D01*
X29961Y21000D02*
X30039D01*
X30000Y20961D02*
Y21039D01*
X28961Y47000D02*
X29039D01*
X29000Y46961D02*
Y47039D01*
X29461Y44000D02*
X29539D01*
X29500Y43961D02*
Y44039D01*
X29461Y42000D02*
X29539D01*
X29500Y41961D02*
Y42039D01*
X28961Y41000D02*
X29039D01*
X29000Y40961D02*
Y41039D01*
X28961Y33000D02*
X29039D01*
X29000Y32961D02*
Y33039D01*
X28961Y31000D02*
X29039D01*
X29000Y30961D02*
Y31039D01*
X28961Y27000D02*
X29039D01*
X29000Y26961D02*
Y27039D01*
X28961Y25000D02*
X29039D01*
X29000Y24961D02*
Y25039D01*
X28961Y21000D02*
X29039D01*
X29000Y20961D02*
Y21039D01*
X27961Y47000D02*
X28039D01*
X28000Y46961D02*
Y47039D01*
X27961Y45000D02*
X28039D01*
X28000Y44961D02*
Y45039D01*
X27961Y43000D02*
X28039D01*
X28000Y42961D02*
Y43039D01*
X27961Y41000D02*
X28039D01*
X28000Y40961D02*
Y41039D01*
X28461Y40000D02*
X28539D01*
X28500Y39961D02*
Y40039D01*
X27961Y39000D02*
X28039D01*
X28000Y38961D02*
Y39039D01*
X27961Y37000D02*
X28039D01*
X28000Y36961D02*
Y37039D01*
X28461Y36000D02*
X28539D01*
X28500Y35961D02*
Y36039D01*
X27961Y33000D02*
X28039D01*
X28000Y32961D02*
Y33039D01*
X28461Y32000D02*
X28539D01*
X28500Y31961D02*
Y32039D01*
X27961Y31000D02*
X28039D01*
X28000Y30961D02*
Y31039D01*
X28461Y28000D02*
X28539D01*
X28500Y27961D02*
Y28039D01*
X27961Y27000D02*
X28039D01*
X28000Y26961D02*
Y27039D01*
X28461Y22000D02*
X28539D01*
X28500Y21961D02*
Y22039D01*
X27961Y21000D02*
X28039D01*
X28000Y20961D02*
Y21039D01*
X26961Y47000D02*
X27039D01*
X27000Y46961D02*
Y47039D01*
X27461Y46000D02*
X27539D01*
X27500Y45961D02*
Y46039D01*
X26961Y45000D02*
X27039D01*
X27000Y44961D02*
Y45039D01*
X27461Y44000D02*
X27539D01*
X27500Y43961D02*
Y44039D01*
X26961Y43000D02*
X27039D01*
X27000Y42961D02*
Y43039D01*
X27461Y42000D02*
X27539D01*
X27500Y41961D02*
Y42039D01*
X26961Y41000D02*
X27039D01*
X27000Y40961D02*
Y41039D01*
X27461Y36000D02*
X27539D01*
X27500Y35961D02*
Y36039D01*
X27461Y34000D02*
X27539D01*
X27500Y33961D02*
Y34039D01*
X27461Y32000D02*
X27539D01*
X27500Y31961D02*
Y32039D01*
X26961Y31000D02*
X27039D01*
X27000Y30961D02*
Y31039D01*
X26961Y27000D02*
X27039D01*
X27000Y26961D02*
Y27039D01*
X27461Y26000D02*
X27539D01*
X27500Y25961D02*
Y26039D01*
X26961Y25000D02*
X27039D01*
X27000Y24961D02*
Y25039D01*
X26961Y21000D02*
X27039D01*
X27000Y20961D02*
Y21039D01*
X25961Y47000D02*
X26039D01*
X26000Y46961D02*
Y47039D01*
X26461Y46000D02*
X26539D01*
X26500Y45961D02*
Y46039D01*
X25961Y45000D02*
X26039D01*
X26000Y44961D02*
Y45039D01*
X26461Y44000D02*
X26539D01*
X26500Y43961D02*
Y44039D01*
X25961Y43000D02*
X26039D01*
X26000Y42961D02*
Y43039D01*
X26461Y42000D02*
X26539D01*
X26500Y41961D02*
Y42039D01*
X25961Y41000D02*
X26039D01*
X26000Y40961D02*
Y41039D01*
X25961Y27000D02*
X26039D01*
X26000Y26961D02*
Y27039D01*
X25961Y25000D02*
X26039D01*
X26000Y24961D02*
Y25039D01*
X25961Y21000D02*
X26039D01*
X26000Y20961D02*
Y21039D01*
X25461Y46000D02*
X25539D01*
X25500Y45961D02*
Y46039D01*
X24961Y45000D02*
X25039D01*
X25000Y44961D02*
Y45039D01*
X25461Y44000D02*
X25539D01*
X25500Y43961D02*
Y44039D01*
X24961Y43000D02*
X25039D01*
X25000Y42961D02*
Y43039D01*
X25461Y42000D02*
X25539D01*
X25500Y41961D02*
Y42039D01*
X24961Y41000D02*
X25039D01*
X25000Y40961D02*
Y41039D01*
X24961Y39000D02*
X25039D01*
X25000Y38961D02*
Y39039D01*
X25461Y36000D02*
X25539D01*
X25500Y35961D02*
Y36039D01*
X25461Y34000D02*
X25539D01*
X25500Y33961D02*
Y34039D01*
X25461Y32000D02*
X25539D01*
X25500Y31961D02*
Y32039D01*
X25461Y22000D02*
X25539D01*
X25500Y21961D02*
Y22039D01*
X24961Y21000D02*
X25039D01*
X25000Y20961D02*
Y21039D01*
X23961Y45000D02*
X24039D01*
X24000Y44961D02*
Y45039D01*
X24461Y44000D02*
X24539D01*
X24500Y43961D02*
Y44039D01*
X23961Y43000D02*
X24039D01*
X24000Y42961D02*
Y43039D01*
X24461Y42000D02*
X24539D01*
X24500Y41961D02*
Y42039D01*
X23961Y41000D02*
X24039D01*
X24000Y40961D02*
Y41039D01*
X23961Y23000D02*
X24039D01*
X24000Y22961D02*
Y23039D01*
X24461Y22000D02*
X24539D01*
X24500Y21961D02*
Y22039D01*
X23961Y21000D02*
X24039D01*
X24000Y20961D02*
Y21039D01*
X22961Y47000D02*
X23039D01*
X23000Y46961D02*
Y47039D01*
X23461Y46000D02*
X23539D01*
X23500Y45961D02*
Y46039D01*
X22961Y45000D02*
X23039D01*
X23000Y44961D02*
Y45039D01*
X23461Y44000D02*
X23539D01*
X23500Y43961D02*
Y44039D01*
X22961Y43000D02*
X23039D01*
X23000Y42961D02*
Y43039D01*
X23461Y42000D02*
X23539D01*
X23500Y41961D02*
Y42039D01*
X22961Y41000D02*
X23039D01*
X23000Y40961D02*
Y41039D01*
X22961Y21000D02*
X23039D01*
X23000Y20961D02*
Y21039D01*
X21961Y47000D02*
X22039D01*
X22000Y46961D02*
Y47039D01*
X22461Y46000D02*
X22539D01*
X22500Y45961D02*
Y46039D01*
X21961Y45000D02*
X22039D01*
X22000Y44961D02*
Y45039D01*
X22461Y44000D02*
X22539D01*
X22500Y43961D02*
Y44039D01*
X21961Y43000D02*
X22039D01*
X22000Y42961D02*
Y43039D01*
X22461Y42000D02*
X22539D01*
X22500Y41961D02*
Y42039D01*
X21961Y41000D02*
X22039D01*
X22000Y40961D02*
Y41039D01*
X21961Y39000D02*
X22039D01*
X22000Y38961D02*
Y39039D01*
X21961Y31000D02*
X22039D01*
X22000Y30961D02*
Y31039D01*
X21961Y29000D02*
X22039D01*
X22000Y28961D02*
Y29039D01*
X21961Y27000D02*
X22039D01*
X22000Y26961D02*
Y27039D01*
X21961Y23000D02*
X22039D01*
X22000Y22961D02*
Y23039D01*
X21961Y21000D02*
X22039D01*
X22000Y20961D02*
Y21039D01*
X21461Y40000D02*
X21539D01*
X21500Y39961D02*
Y40039D01*
X20961Y31000D02*
X21039D01*
X21000Y30961D02*
Y31039D01*
X21461Y30000D02*
X21539D01*
X21500Y29961D02*
Y30039D01*
X20961Y29000D02*
X21039D01*
X21000Y28961D02*
Y29039D01*
X21461Y28000D02*
X21539D01*
X21500Y27961D02*
Y28039D01*
X20961Y27000D02*
X21039D01*
X21000Y26961D02*
Y27039D01*
X21461Y26000D02*
X21539D01*
X21500Y25961D02*
Y26039D01*
X20961Y23000D02*
X21039D01*
X21000Y22961D02*
Y23039D01*
X21461Y22000D02*
X21539D01*
X21500Y21961D02*
Y22039D01*
X20961Y21000D02*
X21039D01*
X21000Y20961D02*
Y21039D01*
X19961Y47000D02*
X20039D01*
X20000Y46961D02*
Y47039D01*
X20461Y44000D02*
X20539D01*
X20500Y43961D02*
Y44039D01*
X19961Y41000D02*
X20039D01*
X20000Y40961D02*
Y41039D01*
X19961Y39000D02*
X20039D01*
X20000Y38961D02*
Y39039D01*
X19961Y37000D02*
X20039D01*
X20000Y36961D02*
Y37039D01*
X19961Y35000D02*
X20039D01*
X20000Y34961D02*
Y35039D01*
X20461Y34000D02*
X20539D01*
X20500Y33961D02*
Y34039D01*
X19961Y31000D02*
X20039D01*
X20000Y30961D02*
Y31039D01*
X20461Y30000D02*
X20539D01*
X20500Y29961D02*
Y30039D01*
X19961Y29000D02*
X20039D01*
X20000Y28961D02*
Y29039D01*
X20461Y28000D02*
X20539D01*
X20500Y27961D02*
Y28039D01*
X19961Y27000D02*
X20039D01*
X20000Y26961D02*
Y27039D01*
X20461Y26000D02*
X20539D01*
X20500Y25961D02*
Y26039D01*
X19961Y25000D02*
X20039D01*
X20000Y24961D02*
Y25039D01*
X20461Y24000D02*
X20539D01*
X20500Y23961D02*
Y24039D01*
X20461Y22000D02*
X20539D01*
X20500Y21961D02*
Y22039D01*
X19961Y21000D02*
X20039D01*
X20000Y20961D02*
Y21039D01*
X18961Y47000D02*
X19039D01*
X19000Y46961D02*
Y47039D01*
X19461Y44000D02*
X19539D01*
X19500Y43961D02*
Y44039D01*
X18961Y41000D02*
X19039D01*
X19000Y40961D02*
Y41039D01*
X19461Y40000D02*
X19539D01*
X19500Y39961D02*
Y40039D01*
X18961Y39000D02*
X19039D01*
X19000Y38961D02*
Y39039D01*
X19461Y38000D02*
X19539D01*
X19500Y37961D02*
Y38039D01*
X18961Y37000D02*
X19039D01*
X19000Y36961D02*
Y37039D01*
X18961Y35000D02*
X19039D01*
X19000Y34961D02*
Y35039D01*
X19461Y34000D02*
X19539D01*
X19500Y33961D02*
Y34039D01*
X18961Y31000D02*
X19039D01*
X19000Y30961D02*
Y31039D01*
X19461Y30000D02*
X19539D01*
X19500Y29961D02*
Y30039D01*
X18961Y29000D02*
X19039D01*
X19000Y28961D02*
Y29039D01*
X19461Y28000D02*
X19539D01*
X19500Y27961D02*
Y28039D01*
X18961Y27000D02*
X19039D01*
X19000Y26961D02*
Y27039D01*
X19461Y26000D02*
X19539D01*
X19500Y25961D02*
Y26039D01*
X18961Y25000D02*
X19039D01*
X19000Y24961D02*
Y25039D01*
X19461Y24000D02*
X19539D01*
X19500Y23961D02*
Y24039D01*
X18961Y21000D02*
X19039D01*
X19000Y20961D02*
Y21039D01*
X17961Y47000D02*
X18039D01*
X18000Y46961D02*
Y47039D01*
X18461Y44000D02*
X18539D01*
X18500Y43961D02*
Y44039D01*
X17961Y41000D02*
X18039D01*
X18000Y40961D02*
Y41039D01*
X18461Y40000D02*
X18539D01*
X18500Y39961D02*
Y40039D01*
X17961Y39000D02*
X18039D01*
X18000Y38961D02*
Y39039D01*
X18461Y38000D02*
X18539D01*
X18500Y37961D02*
Y38039D01*
X18461Y36000D02*
X18539D01*
X18500Y35961D02*
Y36039D01*
X18461Y30000D02*
X18539D01*
X18500Y29961D02*
Y30039D01*
X17961Y29000D02*
X18039D01*
X18000Y28961D02*
Y29039D01*
X18461Y26000D02*
X18539D01*
X18500Y25961D02*
Y26039D01*
X18461Y24000D02*
X18539D01*
X18500Y23961D02*
Y24039D01*
X17961Y23000D02*
X18039D01*
X18000Y22961D02*
Y23039D01*
X17961Y21000D02*
X18039D01*
X18000Y20961D02*
Y21039D01*
X16961Y47000D02*
X17039D01*
X17000Y46961D02*
Y47039D01*
X17461Y44000D02*
X17539D01*
X17500Y43961D02*
Y44039D01*
X16961Y41000D02*
X17039D01*
X17000Y40961D02*
Y41039D01*
X17461Y40000D02*
X17539D01*
X17500Y39961D02*
Y40039D01*
X16961Y39000D02*
X17039D01*
X17000Y38961D02*
Y39039D01*
X17461Y38000D02*
X17539D01*
X17500Y37961D02*
Y38039D01*
X16961Y31000D02*
X17039D01*
X17000Y30961D02*
Y31039D01*
X16961Y29000D02*
X17039D01*
X17000Y28961D02*
Y29039D01*
X17461Y26000D02*
X17539D01*
X17500Y25961D02*
Y26039D01*
X17461Y24000D02*
X17539D01*
X17500Y23961D02*
Y24039D01*
X16961Y23000D02*
X17039D01*
X17000Y22961D02*
Y23039D01*
X17461Y22000D02*
X17539D01*
X17500Y21961D02*
Y22039D01*
X16961Y21000D02*
X17039D01*
X17000Y20961D02*
Y21039D01*
X16461Y48000D02*
X16539D01*
X16500Y47961D02*
Y48039D01*
X15961Y47000D02*
X16039D01*
X16000Y46961D02*
Y47039D01*
X16461Y44000D02*
X16539D01*
X16500Y43961D02*
Y44039D01*
X16461Y42000D02*
X16539D01*
X16500Y41961D02*
Y42039D01*
X16461Y40000D02*
X16539D01*
X16500Y39961D02*
Y40039D01*
X15961Y39000D02*
X16039D01*
X16000Y38961D02*
Y39039D01*
X16461Y38000D02*
X16539D01*
X16500Y37961D02*
Y38039D01*
X16461Y32000D02*
X16539D01*
X16500Y31961D02*
Y32039D01*
X15961Y31000D02*
X16039D01*
X16000Y30961D02*
Y31039D01*
X16461Y30000D02*
X16539D01*
X16500Y29961D02*
Y30039D01*
X15961Y29000D02*
X16039D01*
X16000Y28961D02*
Y29039D01*
X15961Y23000D02*
X16039D01*
X16000Y22961D02*
Y23039D01*
X16461Y22000D02*
X16539D01*
X16500Y21961D02*
Y22039D01*
X15961Y21000D02*
X16039D01*
X16000Y20961D02*
Y21039D01*
X15461Y44000D02*
X15539D01*
X15500Y43961D02*
Y44039D01*
X15461Y40000D02*
X15539D01*
X15500Y39961D02*
Y40039D01*
X15461Y38000D02*
X15539D01*
X15500Y37961D02*
Y38039D01*
X15461Y36000D02*
X15539D01*
X15500Y35961D02*
Y36039D01*
X15461Y34000D02*
X15539D01*
X15500Y33961D02*
Y34039D01*
X15461Y32000D02*
X15539D01*
X15500Y31961D02*
Y32039D01*
X15461Y28000D02*
X15539D01*
X15500Y27961D02*
Y28039D01*
X14961Y23000D02*
X15039D01*
X15000Y22961D02*
Y23039D01*
X15461Y22000D02*
X15539D01*
X15500Y21961D02*
Y22039D01*
X14961Y21000D02*
X15039D01*
X15000Y20961D02*
Y21039D01*
X13961Y23000D02*
X14039D01*
X14000Y22961D02*
Y23039D01*
X14461Y22000D02*
X14539D01*
X14500Y21961D02*
Y22039D01*
X13961Y21000D02*
X14039D01*
X14000Y20961D02*
Y21039D01*
X12961Y49000D02*
X13039D01*
X13000Y48961D02*
Y49039D01*
X13461Y48000D02*
X13539D01*
X13500Y47961D02*
Y48039D01*
X12961Y47000D02*
X13039D01*
X13000Y46961D02*
Y47039D01*
X12961Y43000D02*
X13039D01*
X13000Y42961D02*
Y43039D01*
X13461Y42000D02*
X13539D01*
X13500Y41961D02*
Y42039D01*
X12961Y39000D02*
X13039D01*
X13000Y38961D02*
Y39039D01*
X12961Y37000D02*
X13039D01*
X13000Y36961D02*
Y37039D01*
X13461Y36000D02*
X13539D01*
X13500Y35961D02*
Y36039D01*
X13461Y34000D02*
X13539D01*
X13500Y33961D02*
Y34039D01*
X12961Y31000D02*
X13039D01*
X13000Y30961D02*
Y31039D01*
X12961Y29000D02*
X13039D01*
X13000Y28961D02*
Y29039D01*
X12961Y27000D02*
X13039D01*
X13000Y26961D02*
Y27039D01*
X12961Y23000D02*
X13039D01*
X13000Y22961D02*
Y23039D01*
X13461Y22000D02*
X13539D01*
X13500Y21961D02*
Y22039D01*
X12961Y21000D02*
X13039D01*
X13000Y20961D02*
Y21039D01*
X11961Y47000D02*
X12039D01*
X12000Y46961D02*
Y47039D01*
X12461Y44000D02*
X12539D01*
X12500Y43961D02*
Y44039D01*
X11961Y43000D02*
X12039D01*
X12000Y42961D02*
Y43039D01*
X12461Y40000D02*
X12539D01*
X12500Y39961D02*
Y40039D01*
X11961Y39000D02*
X12039D01*
X12000Y38961D02*
Y39039D01*
X12461Y38000D02*
X12539D01*
X12500Y37961D02*
Y38039D01*
X12461Y34000D02*
X12539D01*
X12500Y33961D02*
Y34039D01*
X12461Y32000D02*
X12539D01*
X12500Y31961D02*
Y32039D01*
X11961Y31000D02*
X12039D01*
X12000Y30961D02*
Y31039D01*
X12461Y30000D02*
X12539D01*
X12500Y29961D02*
Y30039D01*
X12461Y28000D02*
X12539D01*
X12500Y27961D02*
Y28039D01*
X12461Y26000D02*
X12539D01*
X12500Y25961D02*
Y26039D01*
X11961Y25000D02*
X12039D01*
X12000Y24961D02*
Y25039D01*
X11961Y23000D02*
X12039D01*
X12000Y22961D02*
Y23039D01*
X12461Y22000D02*
X12539D01*
X12500Y21961D02*
Y22039D01*
X11961Y21000D02*
X12039D01*
X12000Y20961D02*
Y21039D01*
X10961Y49000D02*
X11039D01*
X11000Y48961D02*
Y49039D01*
X10961Y47000D02*
X11039D01*
X11000Y46961D02*
Y47039D01*
X10961Y45000D02*
X11039D01*
X11000Y44961D02*
Y45039D01*
X10961Y43000D02*
X11039D01*
X11000Y42961D02*
Y43039D01*
X10961Y41000D02*
X11039D01*
X11000Y40961D02*
Y41039D01*
X11461Y40000D02*
X11539D01*
X11500Y39961D02*
Y40039D01*
X10961Y39000D02*
X11039D01*
X11000Y38961D02*
Y39039D01*
X10961Y37000D02*
X11039D01*
X11000Y36961D02*
Y37039D01*
X11461Y36000D02*
X11539D01*
X11500Y35961D02*
Y36039D01*
X10961Y31000D02*
X11039D01*
X11000Y30961D02*
Y31039D01*
X11461Y30000D02*
X11539D01*
X11500Y29961D02*
Y30039D01*
X11461Y26000D02*
X11539D01*
X11500Y25961D02*
Y26039D01*
X10961Y25000D02*
X11039D01*
X11000Y24961D02*
Y25039D01*
X10961Y23000D02*
X11039D01*
X11000Y22961D02*
Y23039D01*
X10961Y21000D02*
X11039D01*
X11000Y20961D02*
Y21039D01*
X21461Y37750D02*
X21539D01*
X21500Y37711D02*
Y37789D01*
X21161Y37750D02*
X21239D01*
X21200Y37711D02*
Y37789D01*
X20811Y37750D02*
X20889D01*
X20850Y37711D02*
Y37789D01*
X20811Y37450D02*
X20889D01*
X20850Y37411D02*
Y37489D01*
X21461Y37450D02*
X21539D01*
X21500Y37411D02*
Y37489D01*
X12961Y35300D02*
X13039D01*
X13000Y35261D02*
Y35339D01*
X17161Y24950D02*
X17239D01*
X17200Y24911D02*
Y24989D01*
X17911Y26700D02*
X17989D01*
X17950Y26661D02*
Y26739D01*
X17461Y49261D02*
X17539D01*
X17500Y49222D02*
Y49301D01*
X15911Y49100D02*
X15989D01*
X15950Y49061D02*
Y49139D01*
X21161Y37450D02*
X21239D01*
X21200Y37411D02*
Y37489D01*
X17561Y48200D02*
X17639D01*
X17600Y48161D02*
Y48239D01*
X20411Y48489D02*
X20489D01*
X20450Y48449D02*
Y48528D01*
X20361Y47850D02*
X20439D01*
X20400Y47811D02*
Y47889D01*
X30661Y48200D02*
X30739D01*
X30700Y48161D02*
Y48239D01*
X30335Y48750D02*
X30414D01*
X30375Y48711D02*
Y48789D01*
X30711Y47850D02*
X30789D01*
X30750Y47811D02*
Y47889D01*
X30361Y47650D02*
X30439D01*
X30400Y47611D02*
Y47689D01*
X19561Y33050D02*
X19639D01*
X19600Y33011D02*
Y33089D01*
X33461Y46700D02*
X33539D01*
X33500Y46661D02*
Y46739D01*
X36261Y32600D02*
X36339D01*
X36300Y32561D02*
Y32639D01*
X30811Y31550D02*
X30889D01*
X30850Y31511D02*
Y31589D01*
X33161Y48700D02*
X33239D01*
X33200Y48661D02*
Y48739D01*
X33161Y47800D02*
X33239D01*
X33200Y47761D02*
Y47839D01*
X33611Y48200D02*
X33689D01*
X33650Y48161D02*
Y48239D01*
X30385Y49050D02*
X30464D01*
X30425Y49011D02*
Y49089D01*
X42477Y45142D02*
X42556D01*
X42517Y45102D02*
Y45181D01*
X30411Y39650D02*
X30489D01*
X30450Y39611D02*
Y39689D01*
X29561Y39650D02*
X29639D01*
X29600Y39611D02*
Y39689D01*
X29961Y39650D02*
X30039D01*
X30000Y39611D02*
Y39689D01*
X29011Y41600D02*
X29089D01*
X29050Y41561D02*
Y41639D01*
X30411Y40950D02*
X30489D01*
X30450Y40911D02*
Y40989D01*
X30638Y41300D02*
X30717D01*
X30677Y41261D02*
Y41339D01*
X30411Y36400D02*
X30489D01*
X30450Y36361D02*
Y36439D01*
X29961Y36100D02*
X30039D01*
X30000Y36061D02*
Y36139D01*
X29561Y35900D02*
X29639D01*
X29600Y35861D02*
Y35939D01*
X29761Y41975D02*
X29839D01*
X29800Y41936D02*
Y42014D01*
X29411Y43350D02*
X29489D01*
X29450Y43311D02*
Y43389D01*
X29411Y42850D02*
X29489D01*
X29450Y42811D02*
Y42889D01*
X29161Y42200D02*
X29239D01*
X29200Y42161D02*
Y42239D01*
X36861Y48100D02*
X36939D01*
X36900Y48061D02*
Y48139D01*
X49120Y32942D02*
X49199D01*
X49160Y32902D02*
Y32981D01*
X49103Y32135D02*
X49181D01*
X49142Y32095D02*
Y32174D01*
X49103Y30716D02*
X49181D01*
X49142Y30677D02*
Y30756D01*
X49103Y28589D02*
X49181D01*
X49142Y28549D02*
Y28628D01*
X49111Y25750D02*
X49189D01*
X49150Y25711D02*
Y25789D01*
X43561Y24650D02*
X43639D01*
X43600Y24611D02*
Y24689D01*
X44945Y24652D02*
X45023D01*
X44984Y24613D02*
Y24691D01*
X46159Y24608D02*
X46238D01*
X46199Y24568D02*
Y24647D01*
X47711Y24600D02*
X47789D01*
X47750Y24561D02*
Y24639D01*
X48908Y24679D02*
X48986D01*
X48947Y24639D02*
Y24718D01*
X42029Y24605D02*
X42108D01*
X42068Y24565D02*
Y24644D01*
X40761Y24600D02*
X40839D01*
X40800Y24561D02*
Y24639D01*
X39961Y25300D02*
X40039D01*
X40000Y25261D02*
Y25339D01*
X40011Y29150D02*
X40089D01*
X40050Y29111D02*
Y29189D01*
X40011Y29800D02*
X40089D01*
X40050Y29761D02*
Y29839D01*
X39982Y28250D02*
X40061D01*
X40021Y28211D02*
Y28289D01*
X40011Y27400D02*
X40089D01*
X40050Y27361D02*
Y27439D01*
X39996Y26366D02*
X40074D01*
X40035Y26327D02*
Y26406D01*
X39996Y30711D02*
X40074D01*
X40035Y30672D02*
Y30750D01*
X40011Y31800D02*
X40089D01*
X40050Y31761D02*
Y31839D01*
X40011Y33100D02*
X40089D01*
X40050Y33061D02*
Y33139D01*
X39211Y26650D02*
X39289D01*
X39250Y26611D02*
Y26689D01*
X39246Y26145D02*
X39325D01*
X39286Y26106D02*
Y26184D01*
X39238Y25670D02*
X39317D01*
X39278Y25631D02*
Y25710D01*
X38840Y26090D02*
X38919D01*
X38880Y26051D02*
Y26130D01*
X35480Y26300D02*
X35559D01*
X35520Y26261D02*
Y26340D01*
X34585Y26344D02*
X34664D01*
X34624Y26305D02*
Y26384D01*
X35469Y25537D02*
X35548D01*
X35509Y25498D02*
Y25577D01*
X31411Y28800D02*
X31489D01*
X31450Y28761D02*
Y28839D01*
X30061Y30900D02*
X30139D01*
X30100Y30861D02*
Y30939D01*
X29987Y31896D02*
X30066D01*
X30027Y31856D02*
Y31935D01*
X30011Y32600D02*
X30089D01*
X30050Y32561D02*
Y32639D01*
X29993Y33351D02*
X30072D01*
X30033Y33311D02*
Y33390D01*
X30011Y33800D02*
X30089D01*
X30050Y33761D02*
Y33839D01*
X35861Y30400D02*
X35939D01*
X35900Y30361D02*
Y30439D01*
X34911Y27500D02*
X34989D01*
X34950Y27461D02*
Y27539D01*
X34511Y28800D02*
X34589D01*
X34550Y28761D02*
Y28839D01*
X34661Y29700D02*
X34739D01*
X34700Y29661D02*
Y29739D01*
X37911Y29800D02*
X37989D01*
X37950Y29761D02*
Y29839D01*
X36761Y27400D02*
X36839D01*
X36800Y27361D02*
Y27439D01*
X36811Y24450D02*
X36889D01*
X36850Y24411D02*
Y24489D01*
X35461Y32650D02*
X35539D01*
X35500Y32611D02*
Y32689D01*
X36767Y31324D02*
X36846D01*
X36806Y31285D02*
Y31364D01*
X37411Y31300D02*
X37489D01*
X37450Y31261D02*
Y31339D01*
X38911Y31300D02*
X38989D01*
X38950Y31261D02*
Y31339D01*
X39211Y30400D02*
X39289D01*
X39250Y30361D02*
Y30439D01*
X39167Y29797D02*
X39246D01*
X39207Y29758D02*
Y29837D01*
X39178Y29184D02*
X39256D01*
X39217Y29145D02*
Y29224D01*
X39211Y28350D02*
X39289D01*
X39250Y28311D02*
Y28389D01*
X39211Y28000D02*
X39289D01*
X39250Y27961D02*
Y28039D01*
X39211Y27400D02*
X39289D01*
X39250Y27361D02*
Y27439D01*
X33511Y26200D02*
X33589D01*
X33550Y26161D02*
Y26239D01*
X34161Y25450D02*
X34239D01*
X34200Y25411D02*
Y25489D01*
X35161Y24500D02*
X35239D01*
X35200Y24461D02*
Y24539D01*
X38511Y24450D02*
X38589D01*
X38550Y24411D02*
Y24489D01*
X31761Y26850D02*
X31839D01*
X31800Y26811D02*
Y26889D01*
X31261Y26850D02*
X31339D01*
X31300Y26811D02*
Y26889D01*
X30211Y26850D02*
X30289D01*
X30250Y26811D02*
Y26889D01*
X30561Y26850D02*
X30639D01*
X30600Y26811D02*
Y26889D01*
X30011Y27150D02*
X30089D01*
X30050Y27111D02*
Y27189D01*
X30011Y27800D02*
X30089D01*
X30050Y27761D02*
Y27839D01*
X26761Y28300D02*
X26839D01*
X26800Y28261D02*
Y28339D01*
X27111Y28300D02*
X27189D01*
X27150Y28261D02*
Y28339D01*
X28211Y28350D02*
X28289D01*
X28250Y28311D02*
Y28389D01*
X28561Y28700D02*
X28639D01*
X28600Y28661D02*
Y28739D01*
X28661Y30300D02*
X28739D01*
X28700Y30261D02*
Y30339D01*
X26361Y30300D02*
X26439D01*
X26400Y30261D02*
Y30339D01*
X26761Y30650D02*
X26839D01*
X26800Y30611D02*
Y30689D01*
X26361Y30600D02*
X26439D01*
X26400Y30561D02*
Y30639D01*
X26361Y28550D02*
X26439D01*
X26400Y28511D02*
Y28589D01*
X26461Y28300D02*
X26539D01*
X26500Y28261D02*
Y28339D01*
X26661Y28600D02*
X26739D01*
X26700Y28561D02*
Y28639D01*
X32411Y29700D02*
X32489D01*
X32450Y29661D02*
Y29739D01*
X34111Y28500D02*
X34189D01*
X34150Y28461D02*
Y28539D01*
X32411Y31400D02*
X32489D01*
X32450Y31361D02*
Y31439D01*
X33011Y26750D02*
X33089D01*
X33050Y26711D02*
Y26789D01*
X34761Y28900D02*
X34839D01*
X34800Y28861D02*
Y28939D01*
X31811Y31400D02*
X31889D01*
X31850Y31361D02*
Y31439D01*
X32811Y31400D02*
X32889D01*
X32850Y31361D02*
Y31439D01*
X33661Y32839D02*
X33739D01*
X33700Y32799D02*
Y32878D01*
X32061Y39600D02*
X32139D01*
X32100Y39561D02*
Y39639D01*
X45961Y38450D02*
X46039D01*
X46000Y38411D02*
Y38489D01*
X44861Y40650D02*
X44939D01*
X44900Y40611D02*
Y40689D01*
X44861Y37800D02*
X44939D01*
X44900Y37761D02*
Y37839D01*
X42811Y37800D02*
X42889D01*
X42850Y37761D02*
Y37839D01*
X27561Y39600D02*
X27639D01*
X27600Y39561D02*
Y39639D01*
X33661Y39600D02*
X33739D01*
X33700Y39561D02*
Y39639D01*
X41961Y46300D02*
X42039D01*
X42000Y46261D02*
Y46339D01*
X42966Y46300D02*
X43045D01*
X43006Y46261D02*
Y46339D01*
X36811Y39600D02*
X36889D01*
X36850Y39561D02*
Y39639D01*
X38461Y40700D02*
X38539D01*
X38500Y40661D02*
Y40739D01*
X35711Y41100D02*
X35789D01*
X35750Y41061D02*
Y41139D01*
X35711Y39000D02*
X35789D01*
X35750Y38961D02*
Y39039D01*
X37261Y34400D02*
X37339D01*
X37300Y34361D02*
Y34439D01*
X24061Y37450D02*
X24139D01*
X24100Y37411D02*
Y37489D01*
X36911Y43650D02*
X36989D01*
X36950Y43611D02*
Y43689D01*
X35361Y48200D02*
X35439D01*
X35400Y48161D02*
Y48239D01*
X31861Y48200D02*
X31939D01*
X31900Y48161D02*
Y48239D01*
X11911Y34400D02*
X11989D01*
X11950Y34361D02*
Y34439D01*
X31311Y47550D02*
X31389D01*
X31350Y47511D02*
Y47589D01*
X31311Y44900D02*
X31389D01*
X31350Y44861D02*
Y44939D01*
X17761Y28050D02*
X17839D01*
X17800Y28011D02*
Y28089D01*
X17761Y25100D02*
X17839D01*
X17800Y25061D02*
Y25139D01*
X24611Y38500D02*
X24689D01*
X24650Y38461D02*
Y38539D01*
X24011Y39550D02*
X24089D01*
X24050Y39511D02*
Y39589D01*
X38711Y24700D02*
X38789D01*
X38750Y24661D02*
Y24739D01*
X48911Y45150D02*
X48989D01*
X48950Y45111D02*
Y45189D01*
X29661Y43100D02*
X29739D01*
X29700Y43061D02*
Y43139D01*
X29011Y41300D02*
X29089D01*
X29050Y41261D02*
Y41339D01*
X40211Y45650D02*
X40289D01*
X40250Y45611D02*
Y45689D01*
X43677Y45279D02*
X43756D01*
X43717Y45240D02*
Y45318D01*
X44177Y45668D02*
X44256D01*
X44217Y45628D02*
Y45707D01*
X31511Y32650D02*
X31589D01*
X31550Y32611D02*
Y32689D01*
X29811Y31150D02*
X29889D01*
X29850Y31111D02*
Y31189D01*
X30961Y25000D02*
X31039D01*
X31000Y24961D02*
Y25039D01*
X36461Y28600D02*
X36539D01*
X36500Y28561D02*
Y28639D01*
X37811Y28300D02*
X37889D01*
X37850Y28261D02*
Y28339D01*
X37811Y26500D02*
X37889D01*
X37850Y26461D02*
Y26539D01*
X38911Y30700D02*
X38989D01*
X38950Y30661D02*
Y30739D01*
X38911Y28900D02*
X38989D01*
X38950Y28861D02*
Y28939D01*
X35111Y30800D02*
X35189D01*
X35150Y30761D02*
Y30839D01*
X35111Y32000D02*
X35189D01*
X35150Y31961D02*
Y32039D01*
X35111Y28450D02*
X35189D01*
X35150Y28411D02*
Y28489D01*
X34261Y34200D02*
X34339D01*
X34300Y34161D02*
Y34239D01*
X29361Y31150D02*
X29439D01*
X29400Y31111D02*
Y31189D01*
X32611Y32650D02*
X32689D01*
X32650Y32611D02*
Y32689D01*
X45611Y42900D02*
X45689D01*
X45650Y42861D02*
Y42939D01*
X45311Y43300D02*
X45389D01*
X45350Y43261D02*
Y43339D01*
X45327Y44129D02*
X45406D01*
X45367Y44090D02*
Y44168D01*
X45956Y43740D02*
X46034D01*
X45995Y43700D02*
Y43779D01*
X45953Y45326D02*
X46032D01*
X45992Y45287D02*
Y45365D01*
X46877Y43829D02*
X46956D01*
X46917Y43790D02*
Y43868D01*
X46877Y45229D02*
X46956D01*
X46917Y45190D02*
Y45268D01*
X46427Y43329D02*
X46506D01*
X46467Y43290D02*
Y43368D01*
X45627Y43929D02*
X45706D01*
X45667Y43890D02*
Y43968D01*
X46427Y44879D02*
X46506D01*
X46467Y44840D02*
Y44918D01*
X48911Y46700D02*
X48989D01*
X48950Y46661D02*
Y46739D01*
X43663Y38334D02*
X43742D01*
X43702Y38295D02*
Y38373D01*
X43659Y40078D02*
X43738D01*
X43698Y40039D02*
Y40118D01*
X40727Y44529D02*
X40806D01*
X40767Y44490D02*
Y44568D01*
X44314Y43496D02*
X44392D01*
X44353Y43457D02*
Y43535D01*
X43448Y43496D02*
X43526D01*
X43487Y43457D02*
Y43535D01*
X44314Y44362D02*
X44392D01*
X44353Y44323D02*
Y44401D01*
X44314Y43929D02*
X44392D01*
X44353Y43890D02*
Y43968D01*
X43448Y44362D02*
X43526D01*
X43487Y44323D02*
Y44401D01*
X43448Y43929D02*
X43526D01*
X43487Y43890D02*
Y43968D01*
X43881Y43496D02*
X43959D01*
X43920Y43457D02*
Y43535D01*
X43881Y44362D02*
X43959D01*
X43920Y44323D02*
Y44401D01*
X43881Y43929D02*
X43959D01*
X43920Y43890D02*
Y43968D01*
X42527Y44511D02*
X42606D01*
X42567Y44472D02*
Y44551D01*
X44577Y46029D02*
X44656D01*
X44617Y45990D02*
Y46068D01*
X44577Y46829D02*
X44656D01*
X44617Y46790D02*
Y46868D01*
X42527Y43279D02*
X42606D01*
X42567Y43240D02*
Y43318D01*
X44777Y46329D02*
X44856D01*
X44817Y46290D02*
Y46368D01*
M02*
