M48
;Layer_Color=9474304
;FILE_FORMAT=2:4
INCH,LZ
;TYPE=PLATED
T1F00S00C0.0079
T3F00S00C0.0310
T5F00S00C0.0350
T6F00S00C0.0394
T7F00S00C0.0402
T8F00S00C0.0433
T9F00S00C0.0591
T10F00S00C0.0642
T11F00S00C0.1181
;TYPE=NON_PLATED
T12F00S00C0.0315
T13F00S00C0.1280
%
T01
X047Y021
X048
Y023
X047
X04775Y0246
X048947Y024679
X04915Y02575
X049142Y028589
Y030716
X046199Y024608
X044984Y024652
X0436Y02465
X042068Y024605
X0408Y0246
X04Y0253
X039278Y02567
X039286Y026145
X03888Y02609
X03925Y02665
Y0274
Y028
Y02835
X03895Y0289
X039217Y029184
X039207Y029797
X03925Y0304
X03895Y0307
X040035Y030711
X04005Y0298
Y02915
X040021Y02825
X04005Y0274
X040035Y026366
X03785Y0265
Y0283
X03795Y0298
X0359Y0304
X03515Y0308
X0347Y0297
X0348Y0289
X03455Y0288
X03415Y0285
X03515Y02845
X03495Y0275
X034624Y026344
X03552Y0263
X035509Y025537
X0352Y0245
X0355Y024
X0365
X03685Y02445
X0375Y024
X0385
X03855Y02445
X03875Y0247
X041Y023
X042
X043
X044
X0445Y022
X0455
X0465
X046Y023
Y021
X045
X044
X043
X042
X041
X04
X039
X038
X037
X036
X035
X034
X033
X032
X0325Y022
X0335
X0345
X036Y023
X034Y025
X0342Y02545
X03355Y0262
X03305Y02675
X0325Y026
X0318Y02685
X0313
X03145Y0288
X03245Y0297
X0365Y0286
X0368Y0274
X0415Y022
X0425
X0435
X0315
X031Y021
X03
X029
X028
X027
X026
X025
X024
X023
X022
X021
X02
X019
X018
X017
X016
X0165Y022
X0175
X018Y023
X017
X016
X0175Y024
X0185
X0195
X0205
X021Y023
X022
X0215Y022
X0205
X02Y025
X019
X0178Y0251
X0172Y02495
X0175Y026
X0185
X0195
X0205
X0215
X022Y027
X021
X02
X019
X01795Y0267
X0178Y02805
X018Y029
X019
X02
X021
X022
X0215Y03
X0205
X0195
X0185
X019Y031
X02
X021
X022
X0215Y028
X0205
X0195
X017Y029
X016
X0165Y03
X017Y031
X016
X0264Y0306
Y0303
X0268Y03065
X027Y031
X028
X029
X0294Y03115
X02985
X0301Y0309
X0287Y0303
X0286Y0287
X02825Y02835
X0285Y028
X029Y027
X028
X027
X026
X0265Y0283
X0268
X02715
X0267Y0286
X0264Y02855
X0275Y026
X027Y025
X026
X029
X03
X031
X0305Y026
X0306Y02685
X03025
X03005Y02715
Y0278
X0285Y022
X0255
X0245
X024Y023
X015
X014
X013
X012
X011
Y025
X012
X0125Y026
X0115
X013Y027
X0125Y028
X013Y029
X0125Y03
X0115
X012Y031
X013
X011
X0155Y028
Y022
X0145
X0135
X0125
X013Y021
X014
X015
X012
X011
X0125Y032
Y034
X01195Y0344
X0135Y034
X013Y0353
X0135Y036
X013Y037
X0125Y038
X013Y039
X012
X011
X0115Y04
X0125
X011Y041
Y043
X012
X013
X0135Y042
X0125Y044
X011Y045
X0155Y044
Y04
Y038
Y036
Y034
Y032
X0115Y036
X011Y037
X0165Y038
X0175
X0185
X0195
X02Y039
X019
X018
X017
X016
X0165Y04
X0175
X0185
X0195
X02Y041
X019
X018
X017
X0165Y042
Y044
X0175
X0185
X0195
X0205
X0225
X0235
X0245
X0255
X0265
X0275
X028Y045
X027
X026
X025
X024
X023
X022
X0225Y046
X0235
X0255
X0265
X0275
X028Y043
X027
X026
X025
X024
X023
X022
X0225Y042
X0235
X0245
X0255
X0265
X0275
X028Y041
X029
X02905Y0413
Y0416
X0292Y0422
X0295Y042
X0298Y041975
X0305Y042
X030677Y0413
X03045Y04095
X03Y041
X031
X0305Y04
X03045Y03965
X03
X0296
X03Y039
X031
Y037
X03
Y0361
X0296Y0359
X0285Y036
X0275
X028Y037
Y039
X0276Y0396
X0285Y04
X027Y041
X026
X025
X024
X023
X022
X0215Y04
X022Y039
X0215Y03775
X0212
Y03745
X0215
X02085
Y03775
X02Y037
X019
X0185Y036
X019Y035
X02
X0205Y034
X0195
X0196Y03305
X0165Y032
X0255
X0275
X0285
X029Y033
X028
X0275Y034
X0255
Y036
X0241Y03745
X02465Y0385
X025Y039
X02405Y03955
X02945Y04285
Y04335
X0297Y0431
X03Y043
X031
X0305Y044
X0295
X03045Y0364
X03Y035
X031
X03005Y0338
X030033Y033351
X03005Y0326
X030027Y031896
X03085Y03155
X03185Y0314
X03245
X03285
X03265Y03265
X03155
X0337Y032839
X0343Y0342
X034Y035
X035
X0345Y036
X0335
X0325
X0315
X032Y037
X033
X034
Y039
X0337Y0396
X0345Y04
X035Y041
X03575Y0411
X034Y041
X033
X032
X0325Y042
X0315
X032Y043
X033
X0325Y044
X0315
X03135Y0449
X032Y045
X0335Y046
Y0467
X0345Y046
X035Y045
X0345Y044
X035Y043
X0345Y042
X0375
X037Y043
X03695Y04365
X0365Y044
X0375
X0385
X0395
X0405
X040767Y044529
X04Y045
X04025Y04565
X042Y0463
X043006
X043Y045
X042517Y045142
X042567Y044511
X043487Y044362
Y043929
Y043496
X04392
X044353
Y043929
Y044362
X04392
Y043929
X043717Y045279
X044217Y045668
X044617Y046029
X044817Y046329
X044617Y046829
X0455Y046
X045992Y045326
X046467Y044879
Y043329
X046Y043
X04565Y0429
X04535Y0433
X045Y043
X045367Y044129
X045667Y043929
X045995Y04374
X0455Y042
X0465
X046Y041
X045
X0449Y04065
X0445Y04
X043698Y040078
X044Y041
X043
X0435Y042
X0445
X0425
X0415
X0405
X041Y043
X04
X039
X0385Y0407
X0395Y04
X04Y039
X0405Y038
X0415
X042Y037
X043
X04285Y0378
X0435Y038
X043702Y038334
X0445Y038
X0449Y0378
X0455Y038
X046Y03845
X0465Y038
X046Y037
X045
X044
X0445Y036
X0455
X0465
X046Y035
X045
X044
X043
X042
X041
X04
X039
X038
X0373Y0344
X0385Y034
X0395
X0405
X0415
X0425
X0435
X0445
X0455
X0465
X0435Y036
X0425
X0415
X0405
X0395
X0385
X0375
X038Y037
X039
X04
X041
X0395Y038
X0385
X037Y037
X03685Y0396
X03575Y039
X035
X033
X032
X0321Y0396
X0325Y04
X0315
X032Y035
X033
X0355Y03265
X0363Y0326
X03515Y032
X036806Y031324
X03745Y0313
X03895
X0385Y032
X04005Y0318
Y0331
X042567Y043279
X043Y043
X045Y045
X038
X0375Y046
X046917Y045229
Y043829
X048Y043
X0485Y042
X0475
X047Y041
X0475Y04
X0485
X048Y039
X0485Y038
Y036
X0475
X048Y035
X047
X0475Y034
X04916Y032942
X049142Y032135
X047Y037
X04895Y04515
X0485Y046
X04895Y0467
X048Y047
X047
X0475Y048
X0485
X047Y049
X046
X0465Y048
X046Y047
X045
X043
X042
X041
X0415Y048
X0405
X041Y049
X043
X044
X0385Y048
X039Y047
X038
X037
X0369Y0481
X0354Y0482
X035Y047
X033
X032
X03135Y04755
X0319Y0482
X0332Y0478
X03365Y0482
X0332Y0487
X030375Y04875
X030425Y04905
X0307Y0482
X03075Y04785
X0304Y04765
X03Y047
X031
X029
X028
X027
X026
X023
X022
X02
X019
X018
X017
X016
X0165Y048
X0176Y0482
X0175Y049261
X01595Y0491
X02045Y048489
X0204Y04785
X0135Y048
X013Y049
Y047
X012
X011
Y049
T03
X0367Y0421
X0387
Y0446
Y0464
X0367
Y0446
Y0489
X0387
T05
X0415Y027598
Y028598
Y029598
Y030598
X0425Y030098
Y029098
Y028098
Y027098
T06
X047984Y037434
Y038434
Y039834
Y040834
T07
X046929Y026242
Y027242
Y030458
Y031458
T08
X03725Y02175
X03825
Y02275
X03725
X03925
X04025
Y02175
X03925
X03059Y0223
X029212
X027834
X026456
X025078
X0237
X022322
X020944
X019566
X018188
X01185Y02635
Y02735
X01085
Y02635
Y02835
Y02935
X01185
Y02835
Y0316
Y0326
X01085
Y0316
X0116Y036744
Y038122
Y0395
Y040878
Y042256
Y043634
Y045012
Y04639
Y047768
Y049146
T09
X01185Y022066
Y024034
T10
X043799Y025801
Y031899
T11
X04815Y02195
Y0488
T12
X042783Y048251
X044751
T13
X045Y0266
Y0311
M30
