G04*
G04 #@! TF.GenerationSoftware,Altium Limited,Altium Designer,20.2.7 (254)*
G04*
G04 Layer_Color=8388736*
%FSLAX24Y24*%
%MOIN*%
G70*
G04*
G04 #@! TF.SameCoordinates,06D2D76E-F920-4485-92C8-392B035063E4*
G04*
G04*
G04 #@! TF.FilePolarity,Negative*
G04*
G01*
G75*
%ADD51R,0.0297X0.0434*%
%ADD52R,0.0395X0.0395*%
%ADD53R,0.0395X0.0395*%
%ADD54R,0.0395X0.0454*%
%ADD55R,0.0434X0.0297*%
%ADD56R,0.0470X0.0304*%
%ADD57R,0.0592X0.0434*%
%ADD58R,0.0454X0.0395*%
%ADD59R,0.0237X0.0395*%
%ADD60R,0.0474X0.0316*%
%ADD61R,0.0789X0.1812*%
%ADD62R,0.0690X0.0907*%
%ADD63O,0.0651X0.0316*%
%ADD64R,0.0630X0.0580*%
%ADD65R,0.0572X0.0848*%
%ADD66C,0.0710*%
%ADD67O,0.0671X0.0316*%
%ADD68O,0.0493X0.0178*%
%ADD69O,0.0178X0.0493*%
%ADD70R,0.1312X0.1312*%
%ADD71R,0.0395X0.0237*%
%ADD72R,0.0257X0.0592*%
%ADD73R,0.0671X0.0474*%
%ADD74R,0.0474X0.0671*%
%ADD75O,0.0631X0.0178*%
%ADD76O,0.0178X0.0631*%
%ADD77R,0.0631X0.0533*%
%ADD78R,0.1852X0.0769*%
%ADD79R,0.2245X0.0926*%
%ADD80R,0.0690X0.1344*%
%ADD81R,0.1320X0.0710*%
%ADD82C,0.0671*%
%ADD83R,0.0671X0.0671*%
%ADD84R,0.0830X0.0830*%
%ADD85C,0.0830*%
%ADD86R,0.1680X0.1080*%
%ADD87R,0.1080X0.1680*%
%ADD88C,0.0730*%
%ADD89R,0.0730X0.0730*%
%ADD90C,0.0395*%
%ADD91O,0.0533X0.0789*%
%ADD92O,0.0651X0.0867*%
%ADD93R,0.0730X0.0730*%
%ADD94R,0.0630X0.0630*%
%ADD95C,0.0630*%
%ADD96C,0.0682*%
%ADD97C,0.1360*%
%ADD98C,0.1043*%
%ADD99C,0.1460*%
%ADD100C,0.0277*%
D51*
X38295Y24250D02*
D03*
X37705D02*
D03*
X37705Y24850D02*
D03*
X38295D02*
D03*
X37705Y25450D02*
D03*
X38295D02*
D03*
X38295Y26050D02*
D03*
X37705D02*
D03*
X38295Y27250D02*
D03*
X37705D02*
D03*
X38295Y29050D02*
D03*
X37705D02*
D03*
X38295Y30250D02*
D03*
X37705D02*
D03*
X31805Y24600D02*
D03*
X32395D02*
D03*
X38345Y33250D02*
D03*
X37755D02*
D03*
D52*
Y26650D02*
D03*
X38345D02*
D03*
X38345Y27850D02*
D03*
X37755D02*
D03*
X38345Y28450D02*
D03*
X37755D02*
D03*
X38345Y29650D02*
D03*
X37755D02*
D03*
X38341Y30850D02*
D03*
X37750D02*
D03*
X38345Y31450D02*
D03*
X37755D02*
D03*
X38345Y32050D02*
D03*
X37755D02*
D03*
X38345Y32650D02*
D03*
X37755D02*
D03*
X32495Y22650D02*
D03*
X31905D02*
D03*
X25105Y36600D02*
D03*
X25695D02*
D03*
X41992Y43879D02*
D03*
X41362D02*
D03*
X14615Y35300D02*
D03*
X13985D02*
D03*
D53*
X33550Y23305D02*
D03*
Y23895D02*
D03*
X34150Y35191D02*
D03*
Y34600D02*
D03*
X32950Y35195D02*
D03*
Y34605D02*
D03*
X32350Y35195D02*
D03*
Y34605D02*
D03*
X30500Y35195D02*
D03*
Y34605D02*
D03*
X29120Y35205D02*
D03*
Y34615D02*
D03*
X27900Y35195D02*
D03*
Y34605D02*
D03*
X37702Y40839D02*
D03*
Y41429D02*
D03*
Y39689D02*
D03*
Y40279D02*
D03*
X37102Y39689D02*
D03*
Y40279D02*
D03*
X48824Y36135D02*
D03*
Y36765D02*
D03*
X47087Y36135D02*
D03*
Y36765D02*
D03*
X45349Y36135D02*
D03*
Y36765D02*
D03*
X44652Y39684D02*
D03*
Y39094D02*
D03*
Y40189D02*
D03*
Y40779D02*
D03*
X41500Y41855D02*
D03*
Y42445D02*
D03*
X42152Y39079D02*
D03*
Y38489D02*
D03*
X23650Y46900D02*
D03*
Y47491D02*
D03*
X19119Y46321D02*
D03*
Y46912D02*
D03*
X19250Y49015D02*
D03*
Y48385D02*
D03*
X14047Y38456D02*
D03*
Y37826D02*
D03*
X15850Y36555D02*
D03*
Y37145D02*
D03*
X15250Y36555D02*
D03*
Y37145D02*
D03*
X14650Y36555D02*
D03*
Y37145D02*
D03*
X14050Y36555D02*
D03*
Y37145D02*
D03*
X42017Y45670D02*
D03*
Y45079D02*
D03*
X41467Y45670D02*
D03*
Y45079D02*
D03*
X27350Y30845D02*
D03*
Y30255D02*
D03*
X30100Y23845D02*
D03*
Y23255D02*
D03*
X30700Y23845D02*
D03*
Y23255D02*
D03*
D54*
X25124Y35950D02*
D03*
X25676D02*
D03*
X41441Y44479D02*
D03*
X41992D02*
D03*
X41441Y43279D02*
D03*
X41992D02*
D03*
X44078Y39634D02*
D03*
X43527D02*
D03*
X44078Y40234D02*
D03*
X43527D02*
D03*
X15850Y35950D02*
D03*
X15299D02*
D03*
X14626D02*
D03*
X14074D02*
D03*
X19549Y26800D02*
D03*
X20100D02*
D03*
D55*
X34800Y35195D02*
D03*
Y34605D02*
D03*
X31750Y35145D02*
D03*
Y34555D02*
D03*
X31100Y34555D02*
D03*
Y35145D02*
D03*
D56*
X33550Y35156D02*
D03*
Y34550D02*
D03*
X28500Y35156D02*
D03*
Y34550D02*
D03*
D57*
X29800Y35374D02*
D03*
Y34626D02*
D03*
D58*
X36452Y40859D02*
D03*
Y41410D02*
D03*
X37102Y40859D02*
D03*
Y41410D02*
D03*
X37702Y39110D02*
D03*
Y38559D02*
D03*
X48967Y45603D02*
D03*
Y46155D02*
D03*
Y44103D02*
D03*
Y44655D02*
D03*
X46467Y45353D02*
D03*
Y45905D02*
D03*
Y43829D02*
D03*
Y44380D02*
D03*
X47926Y36686D02*
D03*
Y36134D02*
D03*
X46188Y36686D02*
D03*
Y36134D02*
D03*
X44450Y36686D02*
D03*
Y36134D02*
D03*
X42902Y40209D02*
D03*
Y40760D02*
D03*
Y39083D02*
D03*
Y39634D02*
D03*
X42152Y41310D02*
D03*
Y40759D02*
D03*
X41502Y41310D02*
D03*
Y40759D02*
D03*
X42152Y40210D02*
D03*
Y39659D02*
D03*
X21450Y48124D02*
D03*
Y48676D02*
D03*
X22100Y48676D02*
D03*
Y48124D02*
D03*
X18548Y48986D02*
D03*
Y48434D02*
D03*
X14759Y38377D02*
D03*
Y37826D02*
D03*
X25150Y37726D02*
D03*
Y37174D02*
D03*
X25800Y37726D02*
D03*
Y37174D02*
D03*
D59*
X40767Y45932D02*
D03*
Y45026D02*
D03*
X45596Y40357D02*
D03*
X45852D02*
D03*
X46108D02*
D03*
Y39511D02*
D03*
X45596D02*
D03*
X45852D02*
D03*
D60*
X48299Y45599D02*
D03*
X47354Y45225D02*
D03*
Y45973D02*
D03*
X48289Y44079D02*
D03*
X47344Y43705D02*
D03*
Y44453D02*
D03*
D61*
X29950Y45793D02*
D03*
Y48707D02*
D03*
D62*
X24800Y48166D02*
D03*
Y46434D02*
D03*
X17100Y47066D02*
D03*
Y45334D02*
D03*
X33500Y42066D02*
D03*
Y40334D02*
D03*
D63*
X22823Y45950D02*
D03*
Y46450D02*
D03*
Y46950D02*
D03*
Y47450D02*
D03*
X20677Y45950D02*
D03*
Y46450D02*
D03*
Y46950D02*
D03*
Y47450D02*
D03*
D64*
X19850Y46050D02*
D03*
Y46950D02*
D03*
D65*
X18300Y47082D02*
D03*
Y46118D02*
D03*
D66*
X10800Y46050D02*
D03*
X13600Y41050D02*
D03*
Y43150D02*
D03*
X40906Y22457D02*
D03*
X39286Y22457D02*
D03*
X32300Y39300D02*
D03*
X13446Y22692D02*
D03*
X33500Y44600D02*
D03*
X46500Y47200D02*
D03*
D67*
X40665Y39234D02*
D03*
Y39734D02*
D03*
Y40234D02*
D03*
Y40734D02*
D03*
X38539Y39234D02*
D03*
Y39734D02*
D03*
Y40734D02*
D03*
Y40234D02*
D03*
D68*
X44826Y44520D02*
D03*
Y44323D02*
D03*
Y44126D02*
D03*
Y43929D02*
D03*
Y43732D02*
D03*
Y43535D02*
D03*
Y43338D02*
D03*
X43014D02*
D03*
Y43535D02*
D03*
Y43732D02*
D03*
Y43929D02*
D03*
Y44126D02*
D03*
Y44323D02*
D03*
Y44520D02*
D03*
D69*
X44511Y43023D02*
D03*
X44314D02*
D03*
X44117D02*
D03*
X43920D02*
D03*
X43723D02*
D03*
X43526D02*
D03*
X43329D02*
D03*
Y44834D02*
D03*
X43526D02*
D03*
X43723D02*
D03*
X43920D02*
D03*
X44314D02*
D03*
X44511D02*
D03*
X44117D02*
D03*
D70*
X43920Y43929D02*
D03*
D71*
X44240Y46535D02*
D03*
Y46279D02*
D03*
Y46023D02*
D03*
X43394D02*
D03*
Y46535D02*
D03*
Y46279D02*
D03*
D72*
X44279Y47837D02*
D03*
X44023D02*
D03*
X43767D02*
D03*
X43511D02*
D03*
X43255D02*
D03*
D73*
X16850Y37156D02*
D03*
X23937Y37156D02*
D03*
X16850Y36565D02*
D03*
Y35974D02*
D03*
Y35384D02*
D03*
Y34793D02*
D03*
Y34203D02*
D03*
Y33612D02*
D03*
Y33022D02*
D03*
Y32431D02*
D03*
Y31841D02*
D03*
Y31250D02*
D03*
Y30659D02*
D03*
Y30069D02*
D03*
Y29478D02*
D03*
Y28888D02*
D03*
Y28297D02*
D03*
X23937Y36565D02*
D03*
Y35974D02*
D03*
Y35384D02*
D03*
Y34793D02*
D03*
Y34203D02*
D03*
Y33612D02*
D03*
Y33022D02*
D03*
Y32431D02*
D03*
Y31841D02*
D03*
Y31250D02*
D03*
Y30659D02*
D03*
Y30069D02*
D03*
Y29478D02*
D03*
Y28888D02*
D03*
Y28297D02*
D03*
D74*
X23051Y27856D02*
D03*
X17736D02*
D03*
X18326D02*
D03*
X18917D02*
D03*
X19507D02*
D03*
X22460D02*
D03*
X21870D02*
D03*
X21279D02*
D03*
X20689D02*
D03*
X20098D02*
D03*
D75*
X33594Y29844D02*
D03*
Y30001D02*
D03*
Y30474D02*
D03*
X29106Y30631D02*
D03*
X33594Y27954D02*
D03*
Y28111D02*
D03*
Y28269D02*
D03*
Y28426D02*
D03*
Y28584D02*
D03*
Y28741D02*
D03*
Y28899D02*
D03*
Y29056D02*
D03*
Y29214D02*
D03*
Y29371D02*
D03*
Y29529D02*
D03*
Y29686D02*
D03*
Y30159D02*
D03*
Y30316D02*
D03*
Y30631D02*
D03*
Y30789D02*
D03*
Y30946D02*
D03*
X29106D02*
D03*
Y30789D02*
D03*
Y30474D02*
D03*
Y30316D02*
D03*
Y30159D02*
D03*
Y30001D02*
D03*
Y29844D02*
D03*
Y29686D02*
D03*
Y29529D02*
D03*
Y29371D02*
D03*
Y29214D02*
D03*
Y29056D02*
D03*
Y28899D02*
D03*
Y28741D02*
D03*
Y28584D02*
D03*
Y28426D02*
D03*
Y28269D02*
D03*
Y28111D02*
D03*
Y27954D02*
D03*
D76*
X31114Y31694D02*
D03*
X30799D02*
D03*
X30641D02*
D03*
X30484D02*
D03*
X30326D02*
D03*
X30169Y27206D02*
D03*
X30326D02*
D03*
X30484D02*
D03*
X30956D02*
D03*
X32846Y31694D02*
D03*
X32689D02*
D03*
X32531D02*
D03*
X32374D02*
D03*
X32216D02*
D03*
X32059D02*
D03*
X31901D02*
D03*
X31744D02*
D03*
X31586D02*
D03*
X31429D02*
D03*
X31271D02*
D03*
X30956D02*
D03*
X30169D02*
D03*
X30011D02*
D03*
X29854D02*
D03*
Y27206D02*
D03*
X30011D02*
D03*
X30641D02*
D03*
X30799D02*
D03*
X31114D02*
D03*
X31271D02*
D03*
X31429D02*
D03*
X31586D02*
D03*
X31744D02*
D03*
X31901D02*
D03*
X32059D02*
D03*
X32216D02*
D03*
X32374D02*
D03*
X32531D02*
D03*
X32689D02*
D03*
X32846D02*
D03*
D77*
X31867Y23915D02*
D03*
X32733Y23285D02*
D03*
X31867D02*
D03*
X32733Y23915D02*
D03*
D78*
X33500Y48690D02*
D03*
Y47410D02*
D03*
D79*
X26750Y47958D02*
D03*
Y46442D02*
D03*
D80*
X16577Y43550D02*
D03*
X14923D02*
D03*
D81*
X30965Y43000D02*
D03*
X29035D02*
D03*
D82*
X47734Y40534D02*
D03*
Y38134D02*
D03*
D83*
Y41534D02*
D03*
Y39134D02*
D03*
D84*
X38700Y43550D02*
D03*
Y47150D02*
D03*
D85*
X36200Y45550D02*
D03*
Y43550D02*
D03*
X38700Y45550D02*
D03*
X36200Y49150D02*
D03*
Y47150D02*
D03*
X38700Y49150D02*
D03*
D86*
X14350Y45050D02*
D03*
Y47550D02*
D03*
D87*
X12350Y46050D02*
D03*
D88*
X11650Y26498D02*
D03*
Y27876D02*
D03*
Y29254D02*
D03*
Y33388D02*
D03*
Y37522D02*
D03*
Y36144D02*
D03*
Y34766D02*
D03*
Y32010D02*
D03*
Y30632D02*
D03*
X11800Y25000D02*
D03*
X10800D02*
D03*
X11800Y24000D02*
D03*
X10800Y40450D02*
D03*
Y41450D02*
D03*
X11800Y40450D02*
D03*
Y41450D02*
D03*
X10800Y43450D02*
D03*
X11800Y42450D02*
D03*
X10800D02*
D03*
X27968Y23400D02*
D03*
X26590D02*
D03*
X25212D02*
D03*
X21078D02*
D03*
X16944D02*
D03*
X18322D02*
D03*
X19700D02*
D03*
X22456D02*
D03*
X23834D02*
D03*
D89*
X11650Y38900D02*
D03*
X10800Y24000D02*
D03*
X11800Y43450D02*
D03*
D90*
X44751Y48251D02*
D03*
X42783D02*
D03*
D91*
X42241Y49333D02*
D03*
X45292D02*
D03*
D92*
X42300Y47837D02*
D03*
X45233D02*
D03*
D93*
X15566Y23400D02*
D03*
D94*
X42500Y27098D02*
D03*
D95*
X41500Y27598D02*
D03*
X42500Y28098D02*
D03*
X41500Y28598D02*
D03*
X42500Y29098D02*
D03*
X41500Y29598D02*
D03*
X42500Y30098D02*
D03*
X41500Y30598D02*
D03*
D96*
X46929Y26242D02*
D03*
Y27242D02*
D03*
Y31458D02*
D03*
Y30458D02*
D03*
D97*
X45000Y31100D02*
D03*
Y26600D02*
D03*
D98*
X43799Y31899D02*
D03*
Y25801D02*
D03*
D99*
X48150Y22600D02*
D03*
Y48800D02*
D03*
X11200D02*
D03*
Y22600D02*
D03*
D100*
X44353Y43496D02*
D03*
X43487D02*
D03*
X44353Y44362D02*
D03*
Y43929D02*
D03*
X43487Y44362D02*
D03*
Y43929D02*
D03*
X43920Y43496D02*
D03*
Y44362D02*
D03*
Y43929D02*
D03*
M02*
