G04*
G04 #@! TF.GenerationSoftware,Altium Limited,Altium Designer,22.11.1 (43)*
G04*
G04 Layer_Color=8421504*
%FSLAX24Y24*%
%MOIN*%
G70*
G04*
G04 #@! TF.SameCoordinates,95904809-8EA0-40D1-BC7C-4500F6FC4EB7*
G04*
G04*
G04 #@! TF.FilePolarity,Positive*
G04*
G01*
G75*
%ADD20R,0.1240X0.0630*%
%ADD21R,0.0610X0.1264*%
%ADD22C,0.0630*%
%ADD23R,0.0528X0.0315*%
%ADD24R,0.0157X0.0315*%
%ADD25R,0.0315X0.0374*%
%ADD26R,0.1575X0.1575*%
%ADD27R,0.0591X0.0394*%
%ADD28R,0.0394X0.0591*%
%ADD29R,0.0315X0.0315*%
%ADD30R,0.0177X0.0512*%
%ADD31R,0.0217X0.0354*%
%ADD32R,0.0354X0.0217*%
%ADD33R,0.0315X0.0315*%
%ADD34R,0.2165X0.0846*%
%ADD35R,0.0689X0.1772*%
%ADD36R,0.0709X0.1732*%
%ADD37R,0.0768X0.0492*%
%ADD38R,0.0492X0.0315*%
%ADD39O,0.0236X0.0571*%
%ADD40R,0.0374X0.0315*%
%ADD41O,0.0591X0.0236*%
%ADD42O,0.0571X0.0118*%
%ADD43O,0.0118X0.0571*%
%ADD44R,0.0394X0.0236*%
%ADD45R,0.0610X0.0827*%
%ADD46R,0.0500X0.0550*%
%ADD47R,0.0827X0.0610*%
%ADD48O,0.0413X0.0098*%
%ADD49O,0.0098X0.0413*%
%ADD50R,0.1232X0.1232*%
%ADD51R,0.0315X0.0157*%
%ADD52R,0.0453X0.0551*%
D20*
X14585Y27900D02*
D03*
X16515D02*
D03*
X19250Y36200D02*
D03*
X21179D02*
D03*
D21*
X16227Y25350D02*
D03*
X14573D02*
D03*
D22*
X14850Y21600D02*
D03*
X14450Y49100D02*
D03*
X16700D02*
D03*
X18350Y25100D02*
D03*
X45050Y22550D02*
D03*
X18350Y28100D02*
D03*
X33050Y22600D02*
D03*
X46500Y47200D02*
D03*
D23*
X35600Y33854D02*
D03*
Y33043D02*
D03*
D24*
X45846Y39657D02*
D03*
X46102D02*
D03*
X46358D02*
D03*
Y38811D02*
D03*
X45846D02*
D03*
X46102D02*
D03*
X40767Y45932D02*
D03*
Y45026D02*
D03*
D25*
X24099Y39000D02*
D03*
X24650D02*
D03*
X30026Y49050D02*
D03*
X29474D02*
D03*
X18624Y48400D02*
D03*
X19176D02*
D03*
X30001Y47800D02*
D03*
X29450D02*
D03*
X43777Y38934D02*
D03*
X44328D02*
D03*
X43777Y39534D02*
D03*
X44328D02*
D03*
X41441Y44479D02*
D03*
X41992D02*
D03*
X41441Y43279D02*
D03*
X41992D02*
D03*
X10849Y34398D02*
D03*
X11401D02*
D03*
D26*
X24478Y46426D02*
D03*
D27*
X28493Y49600D02*
D03*
X21407Y49600D02*
D03*
Y49009D02*
D03*
Y48419D02*
D03*
Y47828D02*
D03*
Y47238D02*
D03*
Y46647D02*
D03*
Y46057D02*
D03*
Y45466D02*
D03*
Y44876D02*
D03*
Y44285D02*
D03*
Y43694D02*
D03*
Y43104D02*
D03*
Y42513D02*
D03*
Y41923D02*
D03*
Y41332D02*
D03*
Y40742D02*
D03*
X28493Y49009D02*
D03*
Y48419D02*
D03*
Y47828D02*
D03*
Y47238D02*
D03*
Y46647D02*
D03*
Y46057D02*
D03*
Y45466D02*
D03*
Y44876D02*
D03*
Y44285D02*
D03*
Y43694D02*
D03*
Y43104D02*
D03*
Y42513D02*
D03*
Y41923D02*
D03*
Y41332D02*
D03*
Y40742D02*
D03*
D28*
X22293Y40300D02*
D03*
X22883D02*
D03*
X23474D02*
D03*
X24064D02*
D03*
X27607D02*
D03*
X27017D02*
D03*
X26426D02*
D03*
X25836D02*
D03*
X25245D02*
D03*
X24655D02*
D03*
D29*
X37959Y31300D02*
D03*
X38550D02*
D03*
X37395Y29500D02*
D03*
X36805D02*
D03*
X36195Y31900D02*
D03*
X35605D02*
D03*
X36195Y28300D02*
D03*
X35605D02*
D03*
X39359Y24700D02*
D03*
X39950D02*
D03*
X18535Y47750D02*
D03*
X19165D02*
D03*
X30041Y48400D02*
D03*
X29450D02*
D03*
X41155Y41200D02*
D03*
X41745D02*
D03*
X36195Y28900D02*
D03*
X35605D02*
D03*
X36195Y30700D02*
D03*
X35605D02*
D03*
X37395Y30100D02*
D03*
X36805D02*
D03*
X27163Y28550D02*
D03*
X27754D02*
D03*
X41992Y43879D02*
D03*
X41362D02*
D03*
X14130Y35600D02*
D03*
X13540D02*
D03*
X14764Y30969D02*
D03*
X14173D02*
D03*
X10820Y35100D02*
D03*
X11450D02*
D03*
D30*
X43255Y47837D02*
D03*
X43511D02*
D03*
X43767D02*
D03*
X44023D02*
D03*
X44279D02*
D03*
D31*
X35609Y30100D02*
D03*
X36200D02*
D03*
X35605Y29500D02*
D03*
X36195D02*
D03*
X36805Y28900D02*
D03*
X37395D02*
D03*
X35609Y27700D02*
D03*
X36200D02*
D03*
X35609Y27100D02*
D03*
X36200D02*
D03*
X36195Y31300D02*
D03*
X35605D02*
D03*
X38545Y30700D02*
D03*
X37955D02*
D03*
X38541Y28900D02*
D03*
X37950D02*
D03*
X37391Y28300D02*
D03*
X36800D02*
D03*
X37395Y26500D02*
D03*
X36805D02*
D03*
D32*
X32883Y25589D02*
D03*
Y24998D02*
D03*
X32249Y25589D02*
D03*
Y24998D02*
D03*
X31614Y25589D02*
D03*
Y24998D02*
D03*
X28509Y29645D02*
D03*
Y29055D02*
D03*
X33700Y33100D02*
D03*
Y33691D02*
D03*
X48600Y34645D02*
D03*
Y34055D02*
D03*
X48000D02*
D03*
Y34645D02*
D03*
D33*
X32550Y33745D02*
D03*
Y33155D02*
D03*
X32000Y33741D02*
D03*
Y33150D02*
D03*
X30900Y33155D02*
D03*
Y33745D02*
D03*
X29400Y30495D02*
D03*
Y29905D02*
D03*
X20400Y49595D02*
D03*
Y49005D02*
D03*
X18600Y49595D02*
D03*
Y49005D02*
D03*
X19200Y49595D02*
D03*
Y49005D02*
D03*
X19800Y49595D02*
D03*
Y49005D02*
D03*
X37952Y39579D02*
D03*
Y38989D02*
D03*
X37352Y39579D02*
D03*
Y38989D02*
D03*
X42402Y37789D02*
D03*
Y38379D02*
D03*
X44902Y38394D02*
D03*
Y38984D02*
D03*
X37952Y40729D02*
D03*
Y40139D02*
D03*
X44902Y40079D02*
D03*
Y39489D02*
D03*
X33100Y33155D02*
D03*
Y33745D02*
D03*
X36850D02*
D03*
Y33155D02*
D03*
X26609Y29050D02*
D03*
Y29641D02*
D03*
X36300Y33736D02*
D03*
Y33145D02*
D03*
X34900Y33741D02*
D03*
Y33150D02*
D03*
X34300Y33741D02*
D03*
Y33150D02*
D03*
X31450Y33745D02*
D03*
Y33155D02*
D03*
X30994Y49532D02*
D03*
Y48902D02*
D03*
X32732Y49532D02*
D03*
Y48902D02*
D03*
X34470Y49532D02*
D03*
Y48902D02*
D03*
X42017Y45670D02*
D03*
Y45079D02*
D03*
X41467Y45670D02*
D03*
Y45079D02*
D03*
D34*
X16900Y36808D02*
D03*
Y35292D02*
D03*
D35*
X21590Y32900D02*
D03*
X20310D02*
D03*
D36*
X17800Y33457D02*
D03*
Y30543D02*
D03*
D37*
X14368Y30100D02*
D03*
X15332D02*
D03*
D38*
X37500Y33894D02*
D03*
Y33106D02*
D03*
D39*
X13635Y32627D02*
D03*
X14135D02*
D03*
X14635D02*
D03*
X15135D02*
D03*
X13635Y34773D02*
D03*
X14135D02*
D03*
X14635D02*
D03*
X15135D02*
D03*
D40*
X36702Y40710D02*
D03*
Y40159D02*
D03*
X37352Y40710D02*
D03*
Y40159D02*
D03*
X37952Y37859D02*
D03*
Y38410D02*
D03*
X41752Y40059D02*
D03*
Y40610D02*
D03*
X43152Y38934D02*
D03*
Y38383D02*
D03*
Y40060D02*
D03*
Y39509D02*
D03*
X42402Y40059D02*
D03*
Y40610D02*
D03*
Y38959D02*
D03*
Y39510D02*
D03*
X48967Y45603D02*
D03*
Y46155D02*
D03*
Y44103D02*
D03*
Y44655D02*
D03*
X46467Y45353D02*
D03*
Y45905D02*
D03*
Y43829D02*
D03*
Y44380D02*
D03*
X31893Y48981D02*
D03*
Y49533D02*
D03*
X33631Y48981D02*
D03*
Y49533D02*
D03*
X35369Y48981D02*
D03*
Y49533D02*
D03*
X12850Y32824D02*
D03*
Y33376D02*
D03*
Y34024D02*
D03*
Y34576D02*
D03*
D41*
X38789Y39534D02*
D03*
Y40034D02*
D03*
Y39034D02*
D03*
Y38534D02*
D03*
X40915Y40034D02*
D03*
Y39534D02*
D03*
Y39034D02*
D03*
Y38534D02*
D03*
D42*
X33613Y28117D02*
D03*
Y28314D02*
D03*
Y28511D02*
D03*
Y28708D02*
D03*
Y28905D02*
D03*
Y29102D02*
D03*
Y29298D02*
D03*
Y29495D02*
D03*
Y29692D02*
D03*
Y29889D02*
D03*
Y30086D02*
D03*
Y30283D02*
D03*
X30287D02*
D03*
Y30086D02*
D03*
Y29889D02*
D03*
Y29692D02*
D03*
Y29495D02*
D03*
Y29298D02*
D03*
Y29102D02*
D03*
Y28905D02*
D03*
Y28708D02*
D03*
Y28511D02*
D03*
Y28314D02*
D03*
Y28117D02*
D03*
D43*
X33033Y30863D02*
D03*
X32836D02*
D03*
X32639D02*
D03*
X32442D02*
D03*
X32245D02*
D03*
X32048D02*
D03*
X31852D02*
D03*
X31655D02*
D03*
X31458D02*
D03*
X31261D02*
D03*
X31064D02*
D03*
X30867D02*
D03*
Y27537D02*
D03*
X31064D02*
D03*
X31261D02*
D03*
X31458D02*
D03*
X31655D02*
D03*
X31852D02*
D03*
X32048D02*
D03*
X32245D02*
D03*
X32442D02*
D03*
X32639D02*
D03*
X32836D02*
D03*
X33033D02*
D03*
D44*
X48299Y45599D02*
D03*
X47354Y45225D02*
D03*
Y45973D02*
D03*
X48289Y44079D02*
D03*
X47344Y43705D02*
D03*
Y44453D02*
D03*
D45*
X14650Y38232D02*
D03*
Y36500D02*
D03*
D46*
X15035Y31800D02*
D03*
X14135D02*
D03*
D47*
X16016Y23700D02*
D03*
X14284D02*
D03*
D48*
X44826Y44520D02*
D03*
Y44323D02*
D03*
Y44126D02*
D03*
Y43929D02*
D03*
Y43732D02*
D03*
Y43535D02*
D03*
Y43338D02*
D03*
X43014D02*
D03*
Y43535D02*
D03*
Y43732D02*
D03*
Y43929D02*
D03*
Y44126D02*
D03*
Y44323D02*
D03*
Y44520D02*
D03*
D49*
X44511Y43023D02*
D03*
X44314D02*
D03*
X44117D02*
D03*
X43920D02*
D03*
X43723D02*
D03*
X43526D02*
D03*
X43329D02*
D03*
Y44834D02*
D03*
X43526D02*
D03*
X43723D02*
D03*
X43920D02*
D03*
X44314D02*
D03*
X44511D02*
D03*
X44117D02*
D03*
D50*
X43920Y43929D02*
D03*
D51*
X44240Y46535D02*
D03*
Y46279D02*
D03*
Y46023D02*
D03*
X43394D02*
D03*
Y46535D02*
D03*
Y46279D02*
D03*
D52*
X27232Y29205D02*
D03*
X27862Y30071D02*
D03*
Y29205D02*
D03*
X27232Y30071D02*
D03*
M02*
