M48
;Layer_Color=9474304
;FILE_FORMAT=2:4
INCH,LZ
;TYPE=PLATED
T1F00S00C0.0079
T2F00S00C0.0098
T4F00S00C0.0310
T6F00S00C0.0350
T7F00S00C0.0394
T8F00S00C0.0402
T9F00S00C0.0433
T10F00S00C0.0591
T11F00S00C0.0642
T12F00S00C0.1181
;TYPE=NON_PLATED
T13F00S00C0.0315
T14F00S00C0.1280
%
T01
X043487Y043496
Y043929
Y044362
X04392
X044353
Y043929
Y043496
X04392
Y043929
T02
X047Y021
X048
Y023
X047
X047733Y024639
X04893Y024717
X049133Y025789
X049125Y028627
Y030755
X046182Y024646
X044967Y024691
X043583Y024689
X042051Y024643
X040783Y024639
X039983Y025339
X039261Y025709
X039269Y026183
X038863Y026129
X039233Y026689
Y027439
Y028039
Y028389
X03895Y0289
X0392Y0292
Y0298
X039233Y030439
X038933Y030739
X040018Y030749
X04005Y0298
Y0292
X040005Y028289
X040033Y027439
X040018Y026405
X03785Y0265
Y0283
X037933Y029839
X035883Y030439
X035133Y030839
X03485Y02975
X034783Y028939
X03455Y0288
X034144Y028506
X03515Y02845
Y02745
X035503Y026339
X035492Y025576
X035183Y024539
X0355Y024
X0365
X036833Y024489
X0375Y024
X0385
X038533Y024489
X038733Y024739
X041Y023
X042
X043
X044
X0445Y022
X0455
X0465
X046Y023
Y021
X045
X044
X043
X042
X041
X04
X039
X038
X037
X036
X035
X034
X033
X032
X0325Y022
X0335
X0345
X036Y023
X034Y025
X034183Y025489
X034607Y026383
X033533Y026239
X03305Y02675
X0325Y026
X0318Y0268
X03135
X031433Y028839
X032433Y029739
X0365Y0286
X036783Y027439
X0415Y022
X0425
X0435
X0315
X031Y021
X03
X029
X028
X027
X026
X025
X024
X023
X022
X021
X02
X019
X018
X017
X016
X0165Y022
X0175
X018Y023
X017
X016
X0175Y024
X0185
X0195
X0205
X021Y023
X022
X0215Y022
X0205
X02Y025
X019
X0178Y0251
X0173Y02495
X0175Y026
X0185
X0195
X0205
X0215
X022Y027
X021
X02
X019
X017933Y026739
X017783Y028089
X018Y029
X019
X02
X021
X022
X0215Y03
X0205
X0195
X0185
X019Y031
X02
X021
X022
X0215Y028
X0205
X0195
X017Y029
X016
X0165Y03
X017Y031
X016
X026383Y030639
Y030339
X026783Y030689
X027Y031
X028
X029
X029383Y031189
X029833
X030083Y030939
X02875Y03035
X0287Y02875
X02845Y0285
X0282Y02825
X0285Y028
X029Y027
X028
X027
X026
X02645Y0283
X0268Y02825
X026683Y028639
X02635Y0286
X0275Y026
X027Y025
X026
X029
X03
X030983Y025039
X0305Y026
X03065Y0268
X03025
X030033Y027189
X03Y0278
X0285Y022
X0255
X0245
X024Y023
X015
X014
X013
X012
X011
Y025
X012
X0125Y026
X0115
Y028
X0125
X013Y029
X0125Y03
X0115
X012Y031
X013
X011
X013Y027
X0155Y028
Y022
X0145
X0135
X0125
X013Y021
X014
X015
X012
X011
X0125Y032
Y034
X0135
X012983Y035339
X0135Y036
X013Y037
X0125Y038
X013Y039
X012
X011
X0115Y04
X0125
X011Y041
Y043
X012
X013
X0135Y042
X0125Y044
X011Y045
X0155Y044
Y04
Y038
Y036
Y034
Y032
X011933Y034439
X0115Y036
X011Y037
X0165Y038
X0175
X0185
X0195
X02Y039
X019
X018
X017
X016
X0165Y04
X0175
X0185
X0195
X02Y041
X019
X018
X017
X0165Y042
Y044
X0175
X0185
X0195
X0205
X0225
X0235
X0245
X0255
X0265
X0275
X028Y045
X027
X026
X025
X024
X023
X022
X0225Y046
X0235
X0255
X0265
X0275
X028Y043
X027
X026
X025
X024
X023
X022
X0225Y042
X0235
X0245
X0255
X0265
X0275
X028Y041
X029
X02905Y0413
X029033Y041639
X029183Y042239
X0295Y042
X029783Y042014
X0305Y042
X0307Y0413
X030433Y040989
X03Y041
X031
X0305Y04
X03045Y03965
X03
X0296
X03Y039
X031
Y037
X03
Y0361
X0296Y0359
X0285Y036
X0275
X028Y037
Y039
X027583Y039639
X0285Y04
X027Y041
X026
X025
X024
X023
X022
X0215Y04
X022Y039
X021483Y037789
X021183
Y037489
X021483
X020833
Y037789
X02Y037
X019
Y035
X02
X0205Y034
X0195
X019583Y033089
X0165Y032
X0255
X0275
X0285
X029Y033
X028
X0275Y034
X0255
Y036
X0241Y03745
X02465Y0385
X025Y039
X024033Y039589
X029433Y042889
Y043389
X029683Y043139
X03Y043
X031
X0305Y044
X0295
X03045Y03635
X03Y035
X031
X030033Y033839
X030016Y033389
X030033Y032639
X03001Y031934
X03075Y0317
X0319Y03145
X032433Y031439
X032833
X032633Y032689
X031533
X033683Y032877
X035483Y032689
X036283Y032639
X035133Y032039
X036789Y031363
X037433Y031339
X038933
X0385Y032
X040033Y031839
Y033139
X0405Y034
X0415
X0425
X0435
X0445
X0455
X0465
X046Y035
X045
X044
X043
X042
X041
X04
X039
X038
X037283Y034439
X0385Y034
X0395
Y036
X0405
X0415
X0425
X0435
X0445
X0455
X0465
X046Y037
X045
X044883Y037839
X0445Y038
X0455
X045983Y038489
X0465Y038
X0435
X043685Y038373
X042833Y037839
X043Y037
X044
X042
X041
X04
X039
X038
X037
X0375Y036
X0385
Y038
X0395
X0405
X0415
X04Y039
X0395Y04
X038483Y040739
X0375Y042
X037Y043
X036933Y043689
X0365Y044
X0375
X0385
X0395
X0405
X04075Y044568
X04Y045
X040233Y045689
X041983Y046339
X043015Y046313
X043Y045
X0425Y04518
X04255Y04455
Y043318
X043Y043
X0435Y042
X0445
X0455
X0465
X04645Y043368
X046Y043
X045633Y042939
X045Y043
X045333Y043339
X04535Y044168
X04565Y043968
X045978Y043778
X045975Y045365
X04645Y044918
X045Y045
X04425Y0457
X0446Y04605
X044817Y046329
X0455Y046
X0437Y045318
X0425Y042
X0415
X0405
X041Y043
X04
X039
X038Y045
X0375Y046
X0345
X0335
X033483Y046739
X032Y045
X03135Y0449
X0315Y044
X0325
X033Y043
X032
X0325Y042
X0315
X032Y041
X033
X034
X035
X035733Y041139
X0345Y042
X035Y043
X0345Y044
X035Y045
X0345Y04
X033683Y039639
X034Y039
X035
X035733Y039039
X036833Y039639
X033Y039
X032
X032083Y039639
X0325Y04
X0315
X032Y037
X033
X034
X0345Y036
X0335
X0325
X0315
X032Y035
X033
X034
X035
X0343Y0343
X043681Y040117
X0445Y04
X044883Y040689
X045Y041
X046
X044
X043
X047
X0475Y042
X0485
X048Y043
X0469Y043868
Y045268
X048933Y045189
X0485Y046
X048933Y046739
X0485Y04
X0475
X048Y039
X0485Y038
Y036
X0475
X048Y035
X047
X0475Y034
X049143Y03298
X049125Y032173
X047Y037
Y047
X048
X0485Y048
X0475
X047Y049
X046
X0465Y048
X046Y047
X045
X0446Y0469
X043Y047
X042
X041
X0415Y048
X0405
X041Y049
X043
X044
X0385Y048
X039Y047
X038
X037
X03685Y0481
X0354Y0482
X035Y047
X033
X032
X03135Y04755
X0319Y0482
X033183Y047839
X03365Y0482
X033183Y048739
X030375Y04875
X0304Y04905
X0307Y04825
X030733Y047889
X030383Y047689
X03Y047
X031
X029
X028
X027
X026
X023
X022
X02
X019
X018
X017
X016
X0165Y048
X017616Y0482
X0176Y049801
X015933Y049139
X020433Y048549
X020383Y047889
X0135Y048
X013Y049
Y047
X012
X011
Y049
T04
X0367Y0421
X0387
Y0446
Y0464
X0367
Y0446
Y0489
X0387
T06
X0415Y027598
Y028598
Y029598
Y030598
X0425Y030098
Y029098
Y028098
Y027098
T07
X047984Y037434
Y038434
Y039834
Y040834
T08
X046929Y026242
Y027242
Y030458
Y031458
T09
X03725Y02175
X03825
Y02275
X03725
X03925
X04025
Y02175
X03925
X03059Y0223
X029212
X027834
X026456
X025078
X0237
X022322
X020944
X019566
X018188
X01185Y02635
Y02735
X01085
Y02635
Y02835
Y02935
X01185
Y02835
Y0316
Y0326
X01085
Y0316
X0116Y036744
Y038122
Y0395
Y040878
Y042256
Y043634
Y045012
Y04639
Y047768
Y049146
T10
X01185Y022066
Y024034
T11
X043799Y025801
Y031899
T12
X04815Y02195
Y0488
T13
X042783Y048251
X044751
T14
X045Y0266
Y0311
M30
