G04*
G04 #@! TF.GenerationSoftware,Altium Limited,Altium Designer,22.11.1 (43)*
G04*
G04 Layer_Color=32896*
%FSLAX24Y24*%
%MOIN*%
G70*
G04*
G04 #@! TF.SameCoordinates,95904809-8EA0-40D1-BC7C-4500F6FC4EB7*
G04*
G04*
G04 #@! TF.FilePolarity,Positive*
G04*
G01*
G75*
%ADD10C,0.0098*%
%ADD13C,0.0079*%
%ADD15C,0.0060*%
%ADD17C,0.0050*%
D10*
X13078Y27139D02*
G03*
X13078Y27139I-49J0D01*
G01*
X15828Y27122D02*
G03*
X15828Y27122I-49J0D01*
G01*
X14478Y27139D02*
G03*
X14478Y27139I-49J0D01*
G01*
D13*
X14013Y24717D02*
X14101D01*
X14013Y26883D02*
X14101D01*
X12999Y24717D02*
X13087D01*
X12999Y26883D02*
X13087D01*
X14101Y24717D02*
Y26883D01*
X12999Y24717D02*
Y26883D01*
X16763Y24701D02*
X16851D01*
X16763Y26867D02*
X16851D01*
X15749Y24701D02*
X15837D01*
X15749Y26867D02*
X15837D01*
X16851Y24701D02*
Y26867D01*
X15749Y24701D02*
Y26867D01*
X15413Y24717D02*
X15501D01*
X15413Y26883D02*
X15501D01*
X14399Y24717D02*
X14487D01*
X14399Y26883D02*
X14487D01*
X15501Y24717D02*
Y26883D01*
X14399Y24717D02*
Y26883D01*
X10320Y31041D02*
X12380D01*
X10320D02*
Y33159D01*
X12380Y31041D02*
Y33159D01*
X10320D02*
X12380D01*
X10320Y25791D02*
X12380D01*
X10320D02*
Y29909D01*
X12380Y25791D02*
Y29909D01*
X10320D02*
X12380D01*
D15*
X38120Y48210D02*
X38160D01*
Y47690D02*
Y48210D01*
X37140Y47690D02*
X38160D01*
X37140D02*
Y48210D01*
X38120D01*
X37121Y47120D02*
X37190D01*
X37121D02*
Y47580D01*
X38180D01*
Y47120D02*
Y47580D01*
X37190Y47120D02*
X38180D01*
X38170Y43910D02*
X38210D01*
Y43390D02*
Y43910D01*
X37190Y43390D02*
X38210D01*
X37190D02*
Y43910D01*
X38170D01*
X37152Y42770D02*
X37221D01*
X37152D02*
Y43230D01*
X38211D01*
Y42770D02*
Y43230D01*
X37221Y42770D02*
X38211D01*
X13366Y28343D02*
X13166D01*
X13266Y28443D02*
Y28243D01*
X12866Y28493D02*
X13066D01*
Y28343D01*
X12966Y28393D01*
X12916D01*
X12866Y28343D01*
Y28243D01*
X12916Y28193D01*
X13016D01*
X13066Y28243D01*
X13166Y29330D02*
X13216Y29380D01*
X13316D01*
X13366Y29330D01*
Y29130D01*
X13316Y29080D01*
X13216D01*
X13166Y29130D01*
Y29230D01*
X13266D01*
X13066Y29080D02*
Y29380D01*
X12866Y29080D01*
Y29380D01*
X12766D02*
Y29080D01*
X12616D01*
X12566Y29130D01*
Y29330D01*
X12616Y29380D01*
X12766D01*
X13166Y28880D02*
X13216Y28930D01*
X13316D01*
X13366Y28880D01*
Y28680D01*
X13316Y28630D01*
X13216D01*
X13166Y28680D01*
Y28780D01*
X13266D01*
X13066Y28630D02*
Y28930D01*
X12866Y28630D01*
Y28930D01*
X12766D02*
Y28630D01*
X12616D01*
X12566Y28680D01*
Y28880D01*
X12616Y28930D01*
X12766D01*
X13366Y27880D02*
X13166D01*
X13266Y27980D02*
Y27780D01*
X13066Y27730D02*
X12966D01*
X13016D01*
Y28030D01*
X13066Y27980D01*
X12616Y27730D02*
X12816D01*
X12616Y27930D01*
Y27980D01*
X12666Y28030D01*
X12766D01*
X12816Y27980D01*
X10641Y30761D02*
Y30895D01*
Y30828D01*
X11041D01*
X10975Y30761D01*
X11704Y30910D02*
Y30643D01*
X11971Y30910D01*
X12038D01*
X12104Y30843D01*
Y30710D01*
X12038Y30643D01*
X10975Y33281D02*
X11041Y33348D01*
Y33481D01*
X10975Y33548D01*
X10908D01*
X10841Y33481D01*
Y33414D01*
Y33481D01*
X10775Y33548D01*
X10708D01*
X10641Y33481D01*
Y33348D01*
X10708Y33281D01*
X11704Y33481D02*
X12104D01*
X11904Y33281D01*
Y33548D01*
X10641Y25511D02*
Y25645D01*
Y25578D01*
X11041D01*
X10975Y25511D01*
X11704Y25660D02*
Y25393D01*
X11971Y25660D01*
X12038D01*
X12104Y25593D01*
Y25460D01*
X12038Y25393D01*
X11041Y30031D02*
Y30298D01*
X10975D01*
X10708Y30031D01*
X10641D01*
X12038D02*
X12104Y30098D01*
Y30231D01*
X12038Y30298D01*
X11971D01*
X11904Y30231D01*
X11838Y30298D01*
X11771D01*
X11704Y30231D01*
Y30098D01*
X11771Y30031D01*
X11838D01*
X11904Y30098D01*
X11971Y30031D01*
X12038D01*
X11904Y30098D02*
Y30231D01*
D17*
X14160Y27690D02*
Y27490D01*
X14060D01*
X14027Y27523D01*
Y27657D01*
X14060Y27690D01*
X14160D01*
X13960Y27490D02*
X13893D01*
X13927D01*
Y27690D01*
X13960Y27657D01*
X13793Y27490D02*
X13727D01*
X13760D01*
Y27690D01*
X13793Y27657D01*
X16910Y27670D02*
Y27470D01*
X16810D01*
X16777Y27503D01*
Y27637D01*
X16810Y27670D01*
X16910D01*
X16710Y27503D02*
X16677Y27470D01*
X16610D01*
X16577Y27503D01*
Y27637D01*
X16610Y27670D01*
X16677D01*
X16710Y27637D01*
Y27603D01*
X16677Y27570D01*
X16577D01*
X15560Y27690D02*
Y27490D01*
X15460D01*
X15427Y27523D01*
Y27657D01*
X15460Y27690D01*
X15560D01*
X15360Y27657D02*
X15327Y27690D01*
X15260D01*
X15227Y27657D01*
Y27623D01*
X15260Y27590D01*
X15227Y27557D01*
Y27523D01*
X15260Y27490D01*
X15327D01*
X15360Y27523D01*
Y27557D01*
X15327Y27590D01*
X15360Y27623D01*
Y27657D01*
X15327Y27590D02*
X15260D01*
X12933Y33000D02*
Y33200D01*
X12833D01*
X12800Y33167D01*
Y33100D01*
X12833Y33067D01*
X12933D01*
X12733Y33000D02*
X12667D01*
X12700D01*
Y33200D01*
X12733Y33167D01*
X12967Y29700D02*
Y29900D01*
X12867D01*
X12833Y29867D01*
Y29800D01*
X12867Y29767D01*
X12967D01*
X12767Y29867D02*
X12733Y29900D01*
X12667D01*
X12633Y29867D01*
Y29833D01*
X12667Y29800D01*
X12700D01*
X12667D01*
X12633Y29767D01*
Y29733D01*
X12667Y29700D01*
X12733D01*
X12767Y29733D01*
X36917Y47850D02*
Y48050D01*
X36817D01*
X36783Y48017D01*
Y47950D01*
X36817Y47917D01*
X36917D01*
X36850D02*
X36783Y47850D01*
X36717Y48017D02*
X36683Y48050D01*
X36617D01*
X36583Y48017D01*
Y47983D01*
X36617Y47950D01*
X36650D01*
X36617D01*
X36583Y47917D01*
Y47883D01*
X36617Y47850D01*
X36683D01*
X36717Y47883D01*
X36783Y47417D02*
X36817Y47450D01*
X36883D01*
X36917Y47417D01*
Y47283D01*
X36883Y47250D01*
X36817D01*
X36783Y47283D01*
X36583Y47250D02*
X36717D01*
X36583Y47383D01*
Y47417D01*
X36617Y47450D01*
X36683D01*
X36717Y47417D01*
X36933Y43550D02*
Y43750D01*
X36833D01*
X36800Y43717D01*
Y43650D01*
X36833Y43617D01*
X36933D01*
X36867D02*
X36800Y43550D01*
X36733D02*
X36667D01*
X36700D01*
Y43750D01*
X36733Y43717D01*
X36800Y43067D02*
X36833Y43100D01*
X36900D01*
X36933Y43067D01*
Y42933D01*
X36900Y42900D01*
X36833D01*
X36800Y42933D01*
X36733Y42900D02*
X36667D01*
X36700D01*
Y43100D01*
X36733Y43067D01*
M02*
