G04*
G04 #@! TF.GenerationSoftware,Altium Limited,Altium Designer,20.2.7 (254)*
G04*
G04 Layer_Color=32896*
%FSLAX24Y24*%
%MOIN*%
G70*
G04*
G04 #@! TF.SameCoordinates,06D2D76E-F920-4485-92C8-392B035063E4*
G04*
G04*
G04 #@! TF.FilePolarity,Positive*
G04*
G01*
G75*
%ADD11C,0.0098*%
%ADD12C,0.0060*%
%ADD15C,0.0079*%
%ADD19C,0.0050*%
D11*
X13011Y42628D02*
G03*
X13011Y42628I-49J0D01*
G01*
X13061Y40528D02*
G03*
X13061Y40528I-49J0D01*
G01*
D12*
X36890Y48570D02*
Y48610D01*
X37410D01*
Y47590D02*
Y48610D01*
X36890Y47590D02*
X37410D01*
X36890D02*
Y48570D01*
X37980Y47571D02*
Y47640D01*
X37520Y47571D02*
X37980D01*
X37520D02*
Y48630D01*
X37980D01*
Y47640D02*
Y48630D01*
X36890Y45020D02*
Y45060D01*
X37410D01*
Y44040D02*
Y45060D01*
X36890Y44040D02*
X37410D01*
X36890D02*
Y45020D01*
X38030Y44001D02*
Y44071D01*
X37570Y44001D02*
X38030D01*
X37570D02*
Y45061D01*
X38030D01*
Y44071D02*
Y45061D01*
X10591Y23161D02*
Y23295D01*
Y23228D01*
X10991D01*
X10925Y23161D01*
X11654Y23310D02*
Y23043D01*
X11921Y23310D01*
X11988D01*
X12054Y23243D01*
Y23110D01*
X11988Y23043D01*
X10925Y25681D02*
X10991Y25748D01*
Y25881D01*
X10925Y25948D01*
X10858D01*
X10791Y25881D01*
Y25814D01*
Y25881D01*
X10725Y25948D01*
X10658D01*
X10591Y25881D01*
Y25748D01*
X10658Y25681D01*
X11654Y25881D02*
X12054D01*
X11854Y25681D01*
Y25948D01*
X10612Y39769D02*
X10546Y39702D01*
Y39569D01*
X10612Y39502D01*
X10679D01*
X10746Y39569D01*
X10812Y39502D01*
X10879D01*
X10946Y39569D01*
Y39702D01*
X10879Y39769D01*
X10812D01*
X10746Y39702D01*
X10679Y39769D01*
X10612D01*
X10746Y39702D02*
Y39569D01*
X11609Y39769D02*
Y39502D01*
X11675D01*
X11942Y39769D01*
X12009D01*
X10946Y44140D02*
Y44407D01*
X10679Y44140D01*
X10612D01*
X10546Y44207D01*
Y44340D01*
X10612Y44407D01*
X12009Y44289D02*
Y44155D01*
Y44222D01*
X11609D01*
X11675Y44289D01*
D15*
X10270Y23441D02*
X12330D01*
X10270D02*
Y25559D01*
X12330Y23441D02*
Y25559D01*
X10270D02*
X12330D01*
X10270Y39891D02*
X12330D01*
X10270D02*
Y44009D01*
X12330Y39891D02*
Y44009D01*
X10270D02*
X12330D01*
X13217Y42599D02*
X15383D01*
X13217Y43701D02*
X15383D01*
X13217Y42599D02*
Y42687D01*
X15383Y42599D02*
Y42687D01*
X13217Y43613D02*
Y43701D01*
X15383Y43613D02*
Y43701D01*
X13267Y40499D02*
X15433D01*
X13267Y41601D02*
X15433D01*
X13267Y40499D02*
Y40587D01*
X15433Y40499D02*
Y40587D01*
X13267Y41513D02*
Y41601D01*
X15433Y41513D02*
Y41601D01*
D19*
X10500Y26260D02*
Y26460D01*
X10400D01*
X10367Y26427D01*
Y26360D01*
X10400Y26327D01*
X10500D01*
X10300Y26260D02*
X10233D01*
X10267D01*
Y26460D01*
X10300Y26427D01*
X10570Y44720D02*
Y44920D01*
X10470D01*
X10437Y44887D01*
Y44820D01*
X10470Y44787D01*
X10570D01*
X10370Y44887D02*
X10337Y44920D01*
X10270D01*
X10237Y44887D01*
Y44853D01*
X10270Y44820D01*
X10303D01*
X10270D01*
X10237Y44787D01*
Y44753D01*
X10270Y44720D01*
X10337D01*
X10370Y44753D01*
X13350Y44260D02*
Y44060D01*
X13250D01*
X13217Y44093D01*
Y44227D01*
X13250Y44260D01*
X13350D01*
X13150Y44060D02*
X13083D01*
X13117D01*
Y44260D01*
X13150Y44227D01*
X12983Y44060D02*
X12917D01*
X12950D01*
Y44260D01*
X12983Y44227D01*
X13460Y42160D02*
Y41960D01*
X13360D01*
X13327Y41993D01*
Y42127D01*
X13360Y42160D01*
X13460D01*
X13260Y41960D02*
X13193D01*
X13227D01*
Y42160D01*
X13260Y42127D01*
X12960Y41960D02*
X13093D01*
X12960Y42093D01*
Y42127D01*
X12993Y42160D01*
X13060D01*
X13093Y42127D01*
X37230Y48890D02*
Y49090D01*
X37130D01*
X37097Y49057D01*
Y48990D01*
X37130Y48957D01*
X37230D01*
X37163D02*
X37097Y48890D01*
X36897Y49090D02*
X37030D01*
Y48990D01*
X36963Y49023D01*
X36930D01*
X36897Y48990D01*
Y48923D01*
X36930Y48890D01*
X36997D01*
X37030Y48923D01*
X37737Y49077D02*
X37770Y49110D01*
X37837D01*
X37870Y49077D01*
Y48943D01*
X37837Y48910D01*
X37770D01*
X37737Y48943D01*
X37537Y48910D02*
X37670D01*
X37537Y49043D01*
Y49077D01*
X37570Y49110D01*
X37637D01*
X37670Y49077D01*
X37410Y45340D02*
Y45540D01*
X37310D01*
X37277Y45507D01*
Y45440D01*
X37310Y45407D01*
X37410D01*
X37343D02*
X37277Y45340D01*
X37210D02*
X37143D01*
X37177D01*
Y45540D01*
X37210Y45507D01*
X37887D02*
X37920Y45540D01*
X37987D01*
X38020Y45507D01*
Y45373D01*
X37987Y45340D01*
X37920D01*
X37887Y45373D01*
X37820Y45340D02*
X37753D01*
X37787D01*
Y45540D01*
X37820Y45507D01*
M02*
