G04*
G04 #@! TF.GenerationSoftware,Altium Limited,Altium Designer,22.11.1 (43)*
G04*
G04 Layer_Color=128*
%FSLAX24Y24*%
%MOIN*%
G70*
G04*
G04 #@! TF.SameCoordinates,87D651DC-2D2C-43A3-A13A-F7E35A12DA3B*
G04*
G04*
G04 #@! TF.FilePolarity,Positive*
G04*
G01*
G75*
%ADD127C,0.0020*%
D127*
X11383Y40878D02*
X11817D01*
X11600Y40661D02*
Y41094D01*
X11383Y42256D02*
X11817D01*
X11600Y42039D02*
Y42472D01*
X11383Y45012D02*
X11817D01*
X11600Y44795D02*
Y45228D01*
X11383Y46390D02*
X11817D01*
X11600Y46173D02*
Y46606D01*
X11383Y47768D02*
X11817D01*
X11600Y47551D02*
Y47984D01*
X11383Y49146D02*
X11817D01*
X11600Y48929D02*
Y49362D01*
X11383Y43634D02*
X11817D01*
X11600Y43417D02*
Y43850D01*
X11383Y39500D02*
X11817D01*
X11600Y39283D02*
Y39717D01*
X11383Y38122D02*
X11817D01*
X11600Y37906D02*
Y38339D01*
X11383Y36744D02*
X11817D01*
X11600Y36528D02*
Y36961D01*
X42325Y27098D02*
X42675D01*
X42500Y26923D02*
Y27273D01*
X41325Y27598D02*
X41675D01*
X41500Y27423D02*
Y27773D01*
X42325Y28098D02*
X42675D01*
X42500Y27923D02*
Y28273D01*
X41325Y28598D02*
X41675D01*
X41500Y28423D02*
Y28773D01*
X42325Y29098D02*
X42675D01*
X42500Y28923D02*
Y29273D01*
X41325Y29598D02*
X41675D01*
X41500Y29423D02*
Y29773D01*
X42325Y30098D02*
X42675D01*
X42500Y29923D02*
Y30273D01*
X41325Y30598D02*
X41675D01*
X41500Y30423D02*
Y30773D01*
X46728Y26242D02*
X47130D01*
X46929Y26041D02*
Y26443D01*
X46728Y27242D02*
X47130D01*
X46929Y27041D02*
Y27443D01*
X46728Y31458D02*
X47130D01*
X46929Y31257D02*
Y31659D01*
X46728Y30458D02*
X47130D01*
X46929Y30257D02*
Y30659D01*
X44360Y31100D02*
X45640D01*
X45000Y30460D02*
Y31740D01*
X44360Y26600D02*
X45640D01*
X45000Y25960D02*
Y27240D01*
X43478Y31899D02*
X44120D01*
X43799Y31578D02*
Y32220D01*
X43478Y25801D02*
X44120D01*
X43799Y25480D02*
Y26122D01*
X11555Y24034D02*
X12145D01*
X11850Y23739D02*
Y24330D01*
X11555Y22066D02*
X12145D01*
X11850Y21770D02*
Y22361D01*
X11633Y32600D02*
X12067D01*
X11850Y32383D02*
Y32817D01*
X10633Y32600D02*
X11067D01*
X10850Y32383D02*
Y32817D01*
X11633Y31600D02*
X12067D01*
X11850Y31383D02*
Y31817D01*
X10633Y31600D02*
X11067D01*
X10850Y31383D02*
Y31817D01*
X11633Y27350D02*
X12067D01*
X11850Y27133D02*
Y27567D01*
X10633Y27350D02*
X11067D01*
X10850Y27133D02*
Y27567D01*
X11633Y26350D02*
X12067D01*
X11850Y26133D02*
Y26567D01*
X10633Y26350D02*
X11067D01*
X10850Y26133D02*
Y26567D01*
X10633Y28350D02*
X11067D01*
X10850Y28133D02*
Y28567D01*
X10633Y29350D02*
X11067D01*
X10850Y29133D02*
Y29567D01*
X11633Y28350D02*
X12067D01*
X11850Y28133D02*
Y28567D01*
X11633Y29350D02*
X12067D01*
X11850Y29133D02*
Y29567D01*
X37033Y21750D02*
X37467D01*
X37250Y21533D02*
Y21967D01*
X38033Y21750D02*
X38467D01*
X38250Y21533D02*
Y21967D01*
X37033Y22750D02*
X37467D01*
X37250Y22533D02*
Y22967D01*
X38033Y22750D02*
X38467D01*
X38250Y22533D02*
Y22967D01*
X40033Y22750D02*
X40467D01*
X40250Y22533D02*
Y22967D01*
X40033Y21750D02*
X40467D01*
X40250Y21533D02*
Y21967D01*
X39033Y22750D02*
X39467D01*
X39250Y22533D02*
Y22967D01*
X39033Y21750D02*
X39467D01*
X39250Y21533D02*
Y21967D01*
X45066Y47837D02*
X45401D01*
X45233Y47670D02*
Y48005D01*
X42133Y47837D02*
X42468D01*
X42300Y47670D02*
Y48005D01*
X45184Y49333D02*
X45401D01*
X45292Y49225D02*
Y49442D01*
X42133Y49333D02*
X42350D01*
X42241Y49225D02*
Y49442D01*
X42625Y48251D02*
X42940D01*
X42783Y48093D02*
Y48408D01*
X44594Y48251D02*
X44909D01*
X44751Y48093D02*
Y48408D01*
X47559Y21950D02*
X48741D01*
X48150Y21360D02*
Y22541D01*
X38545Y46400D02*
X38855D01*
X38700Y46245D02*
Y46555D01*
X36545Y48900D02*
X36855D01*
X36700Y48745D02*
Y49055D01*
X38545Y48900D02*
X38855D01*
X38700Y48745D02*
Y49055D01*
X36545Y46400D02*
X36855D01*
X36700Y46245D02*
Y46555D01*
X38545Y42100D02*
X38855D01*
X38700Y41945D02*
Y42255D01*
X36545Y44600D02*
X36855D01*
X36700Y44445D02*
Y44755D01*
X38545Y44600D02*
X38855D01*
X38700Y44445D02*
Y44755D01*
X36545Y42100D02*
X36855D01*
X36700Y41945D02*
Y42255D01*
X47787Y38434D02*
X48181D01*
X47984Y38237D02*
Y38631D01*
X47787Y37434D02*
X48181D01*
X47984Y37237D02*
Y37631D01*
X47787Y40834D02*
X48181D01*
X47984Y40637D02*
Y41031D01*
X47787Y39834D02*
X48181D01*
X47984Y39637D02*
Y40031D01*
X26239Y22300D02*
X26672D01*
X26456Y22083D02*
Y22517D01*
X24861Y22300D02*
X25294D01*
X25078Y22083D02*
Y22517D01*
X22106Y22300D02*
X22539D01*
X22322Y22083D02*
Y22517D01*
X20728Y22300D02*
X21161D01*
X20944Y22083D02*
Y22517D01*
X19350Y22300D02*
X19783D01*
X19566Y22083D02*
Y22517D01*
X17972Y22300D02*
X18405D01*
X18188Y22083D02*
Y22517D01*
X23483Y22300D02*
X23917D01*
X23700Y22083D02*
Y22517D01*
X27617Y22300D02*
X28050D01*
X27834Y22083D02*
Y22517D01*
X28995Y22300D02*
X29428D01*
X29212Y22083D02*
Y22517D01*
X30373Y22300D02*
X30806D01*
X30590Y22083D02*
Y22517D01*
X47559Y48800D02*
X48741D01*
X48150Y48210D02*
Y49391D01*
X48451Y48000D02*
X48549D01*
X48500Y47951D02*
Y48049D01*
X47951Y47000D02*
X48049D01*
X48000Y46951D02*
Y47049D01*
X48451Y46000D02*
X48549D01*
X48500Y45951D02*
Y46049D01*
X47951Y43000D02*
X48049D01*
X48000Y42951D02*
Y43049D01*
X48451Y42000D02*
X48549D01*
X48500Y41951D02*
Y42049D01*
X48451Y40000D02*
X48549D01*
X48500Y39951D02*
Y40049D01*
X47951Y39000D02*
X48049D01*
X48000Y38951D02*
Y39049D01*
X48451Y38000D02*
X48549D01*
X48500Y37951D02*
Y38049D01*
X48451Y36000D02*
X48549D01*
X48500Y35951D02*
Y36049D01*
X47951Y35000D02*
X48049D01*
X48000Y34951D02*
Y35049D01*
X47951Y23000D02*
X48049D01*
X48000Y22951D02*
Y23049D01*
X47951Y21000D02*
X48049D01*
X48000Y20951D02*
Y21049D01*
X46951Y49000D02*
X47049D01*
X47000Y48951D02*
Y49049D01*
X47451Y48000D02*
X47549D01*
X47500Y47951D02*
Y48049D01*
X46951Y47000D02*
X47049D01*
X47000Y46951D02*
Y47049D01*
X47451Y42000D02*
X47549D01*
X47500Y41951D02*
Y42049D01*
X46951Y41000D02*
X47049D01*
X47000Y40951D02*
Y41049D01*
X47451Y40000D02*
X47549D01*
X47500Y39951D02*
Y40049D01*
X46951Y37000D02*
X47049D01*
X47000Y36951D02*
Y37049D01*
X47451Y36000D02*
X47549D01*
X47500Y35951D02*
Y36049D01*
X46951Y35000D02*
X47049D01*
X47000Y34951D02*
Y35049D01*
X47451Y34000D02*
X47549D01*
X47500Y33951D02*
Y34049D01*
X46951Y23000D02*
X47049D01*
X47000Y22951D02*
Y23049D01*
X46951Y21000D02*
X47049D01*
X47000Y20951D02*
Y21049D01*
X45951Y49000D02*
X46049D01*
X46000Y48951D02*
Y49049D01*
X46451Y48000D02*
X46549D01*
X46500Y47951D02*
Y48049D01*
X45951Y47000D02*
X46049D01*
X46000Y46951D02*
Y47049D01*
X45951Y43000D02*
X46049D01*
X46000Y42951D02*
Y43049D01*
X46451Y42000D02*
X46549D01*
X46500Y41951D02*
Y42049D01*
X45951Y41000D02*
X46049D01*
X46000Y40951D02*
Y41049D01*
X46451Y38000D02*
X46549D01*
X46500Y37951D02*
Y38049D01*
X45951Y37000D02*
X46049D01*
X46000Y36951D02*
Y37049D01*
X46451Y36000D02*
X46549D01*
X46500Y35951D02*
Y36049D01*
X45951Y35000D02*
X46049D01*
X46000Y34951D02*
Y35049D01*
X46451Y34000D02*
X46549D01*
X46500Y33951D02*
Y34049D01*
X45951Y23000D02*
X46049D01*
X46000Y22951D02*
Y23049D01*
X46451Y22000D02*
X46549D01*
X46500Y21951D02*
Y22049D01*
X45951Y21000D02*
X46049D01*
X46000Y20951D02*
Y21049D01*
X44951Y47000D02*
X45049D01*
X45000Y46951D02*
Y47049D01*
X45451Y46000D02*
X45549D01*
X45500Y45951D02*
Y46049D01*
X44951Y45000D02*
X45049D01*
X45000Y44951D02*
Y45049D01*
X44951Y43000D02*
X45049D01*
X45000Y42951D02*
Y43049D01*
X45451Y42000D02*
X45549D01*
X45500Y41951D02*
Y42049D01*
X44951Y41000D02*
X45049D01*
X45000Y40951D02*
Y41049D01*
X45451Y38000D02*
X45549D01*
X45500Y37951D02*
Y38049D01*
X44951Y37000D02*
X45049D01*
X45000Y36951D02*
Y37049D01*
X45451Y36000D02*
X45549D01*
X45500Y35951D02*
Y36049D01*
X44951Y35000D02*
X45049D01*
X45000Y34951D02*
Y35049D01*
X45451Y34000D02*
X45549D01*
X45500Y33951D02*
Y34049D01*
X45451Y22000D02*
X45549D01*
X45500Y21951D02*
Y22049D01*
X44951Y21000D02*
X45049D01*
X45000Y20951D02*
Y21049D01*
X43951Y49000D02*
X44049D01*
X44000Y48951D02*
Y49049D01*
X44451Y42000D02*
X44549D01*
X44500Y41951D02*
Y42049D01*
X43951Y41000D02*
X44049D01*
X44000Y40951D02*
Y41049D01*
X44451Y40000D02*
X44549D01*
X44500Y39951D02*
Y40049D01*
X44451Y38000D02*
X44549D01*
X44500Y37951D02*
Y38049D01*
X43951Y37000D02*
X44049D01*
X44000Y36951D02*
Y37049D01*
X44451Y36000D02*
X44549D01*
X44500Y35951D02*
Y36049D01*
X43951Y35000D02*
X44049D01*
X44000Y34951D02*
Y35049D01*
X44451Y34000D02*
X44549D01*
X44500Y33951D02*
Y34049D01*
X43951Y23000D02*
X44049D01*
X44000Y22951D02*
Y23049D01*
X44451Y22000D02*
X44549D01*
X44500Y21951D02*
Y22049D01*
X43951Y21000D02*
X44049D01*
X44000Y20951D02*
Y21049D01*
X42951Y49000D02*
X43049D01*
X43000Y48951D02*
Y49049D01*
X42951Y47000D02*
X43049D01*
X43000Y46951D02*
Y47049D01*
X42951Y45000D02*
X43049D01*
X43000Y44951D02*
Y45049D01*
X42951Y43000D02*
X43049D01*
X43000Y42951D02*
Y43049D01*
X43451Y42000D02*
X43549D01*
X43500Y41951D02*
Y42049D01*
X42951Y41000D02*
X43049D01*
X43000Y40951D02*
Y41049D01*
X43451Y38000D02*
X43549D01*
X43500Y37951D02*
Y38049D01*
X42951Y37000D02*
X43049D01*
X43000Y36951D02*
Y37049D01*
X43451Y36000D02*
X43549D01*
X43500Y35951D02*
Y36049D01*
X42951Y35000D02*
X43049D01*
X43000Y34951D02*
Y35049D01*
X43451Y34000D02*
X43549D01*
X43500Y33951D02*
Y34049D01*
X42951Y23000D02*
X43049D01*
X43000Y22951D02*
Y23049D01*
X43451Y22000D02*
X43549D01*
X43500Y21951D02*
Y22049D01*
X42951Y21000D02*
X43049D01*
X43000Y20951D02*
Y21049D01*
X41951Y47000D02*
X42049D01*
X42000Y46951D02*
Y47049D01*
X42451Y42000D02*
X42549D01*
X42500Y41951D02*
Y42049D01*
X41951Y37000D02*
X42049D01*
X42000Y36951D02*
Y37049D01*
X42451Y36000D02*
X42549D01*
X42500Y35951D02*
Y36049D01*
X41951Y35000D02*
X42049D01*
X42000Y34951D02*
Y35049D01*
X42451Y34000D02*
X42549D01*
X42500Y33951D02*
Y34049D01*
X41951Y23000D02*
X42049D01*
X42000Y22951D02*
Y23049D01*
X42451Y22000D02*
X42549D01*
X42500Y21951D02*
Y22049D01*
X41951Y21000D02*
X42049D01*
X42000Y20951D02*
Y21049D01*
X40951Y49000D02*
X41049D01*
X41000Y48951D02*
Y49049D01*
X41451Y48000D02*
X41549D01*
X41500Y47951D02*
Y48049D01*
X40951Y47000D02*
X41049D01*
X41000Y46951D02*
Y47049D01*
X40951Y43000D02*
X41049D01*
X41000Y42951D02*
Y43049D01*
X41451Y42000D02*
X41549D01*
X41500Y41951D02*
Y42049D01*
X41451Y38000D02*
X41549D01*
X41500Y37951D02*
Y38049D01*
X40951Y37000D02*
X41049D01*
X41000Y36951D02*
Y37049D01*
X41451Y36000D02*
X41549D01*
X41500Y35951D02*
Y36049D01*
X40951Y35000D02*
X41049D01*
X41000Y34951D02*
Y35049D01*
X41451Y34000D02*
X41549D01*
X41500Y33951D02*
Y34049D01*
X40951Y23000D02*
X41049D01*
X41000Y22951D02*
Y23049D01*
X41451Y22000D02*
X41549D01*
X41500Y21951D02*
Y22049D01*
X40951Y21000D02*
X41049D01*
X41000Y20951D02*
Y21049D01*
X40451Y48000D02*
X40549D01*
X40500Y47951D02*
Y48049D01*
X39951Y45000D02*
X40049D01*
X40000Y44951D02*
Y45049D01*
X40451Y44000D02*
X40549D01*
X40500Y43951D02*
Y44049D01*
X39951Y43000D02*
X40049D01*
X40000Y42951D02*
Y43049D01*
X40451Y42000D02*
X40549D01*
X40500Y41951D02*
Y42049D01*
X39951Y39000D02*
X40049D01*
X40000Y38951D02*
Y39049D01*
X40451Y38000D02*
X40549D01*
X40500Y37951D02*
Y38049D01*
X39951Y37000D02*
X40049D01*
X40000Y36951D02*
Y37049D01*
X40451Y36000D02*
X40549D01*
X40500Y35951D02*
Y36049D01*
X39951Y35000D02*
X40049D01*
X40000Y34951D02*
Y35049D01*
X40451Y34000D02*
X40549D01*
X40500Y33951D02*
Y34049D01*
X39951Y21000D02*
X40049D01*
X40000Y20951D02*
Y21049D01*
X38951Y47000D02*
X39049D01*
X39000Y46951D02*
Y47049D01*
X39451Y44000D02*
X39549D01*
X39500Y43951D02*
Y44049D01*
X38951Y43000D02*
X39049D01*
X39000Y42951D02*
Y43049D01*
X39451Y40000D02*
X39549D01*
X39500Y39951D02*
Y40049D01*
X39451Y38000D02*
X39549D01*
X39500Y37951D02*
Y38049D01*
X38951Y37000D02*
X39049D01*
X39000Y36951D02*
Y37049D01*
X39451Y36000D02*
X39549D01*
X39500Y35951D02*
Y36049D01*
X38951Y35000D02*
X39049D01*
X39000Y34951D02*
Y35049D01*
X39451Y34000D02*
X39549D01*
X39500Y33951D02*
Y34049D01*
X38951Y21000D02*
X39049D01*
X39000Y20951D02*
Y21049D01*
X38451Y48000D02*
X38549D01*
X38500Y47951D02*
Y48049D01*
X37951Y47000D02*
X38049D01*
X38000Y46951D02*
Y47049D01*
X37951Y45000D02*
X38049D01*
X38000Y44951D02*
Y45049D01*
X38451Y44000D02*
X38549D01*
X38500Y43951D02*
Y44049D01*
X38451Y38000D02*
X38549D01*
X38500Y37951D02*
Y38049D01*
X37951Y37000D02*
X38049D01*
X38000Y36951D02*
Y37049D01*
X38451Y36000D02*
X38549D01*
X38500Y35951D02*
Y36049D01*
X37951Y35000D02*
X38049D01*
X38000Y34951D02*
Y35049D01*
X38451Y34000D02*
X38549D01*
X38500Y33951D02*
Y34049D01*
X38451Y32000D02*
X38549D01*
X38500Y31951D02*
Y32049D01*
X38451Y24000D02*
X38549D01*
X38500Y23951D02*
Y24049D01*
X37951Y21000D02*
X38049D01*
X38000Y20951D02*
Y21049D01*
X36951Y47000D02*
X37049D01*
X37000Y46951D02*
Y47049D01*
X37451Y46000D02*
X37549D01*
X37500Y45951D02*
Y46049D01*
X37451Y44000D02*
X37549D01*
X37500Y43951D02*
Y44049D01*
X36951Y43000D02*
X37049D01*
X37000Y42951D02*
Y43049D01*
X37451Y42000D02*
X37549D01*
X37500Y41951D02*
Y42049D01*
X36951Y37000D02*
X37049D01*
X37000Y36951D02*
Y37049D01*
X37451Y36000D02*
X37549D01*
X37500Y35951D02*
Y36049D01*
X37451Y24000D02*
X37549D01*
X37500Y23951D02*
Y24049D01*
X36951Y21000D02*
X37049D01*
X37000Y20951D02*
Y21049D01*
X36451Y44000D02*
X36549D01*
X36500Y43951D02*
Y44049D01*
X36451Y24000D02*
X36549D01*
X36500Y23951D02*
Y24049D01*
X35951Y23000D02*
X36049D01*
X36000Y22951D02*
Y23049D01*
X35951Y21000D02*
X36049D01*
X36000Y20951D02*
Y21049D01*
X34951Y47000D02*
X35049D01*
X35000Y46951D02*
Y47049D01*
X34951Y45000D02*
X35049D01*
X35000Y44951D02*
Y45049D01*
X34951Y43000D02*
X35049D01*
X35000Y42951D02*
Y43049D01*
X34951Y41000D02*
X35049D01*
X35000Y40951D02*
Y41049D01*
X34951Y39000D02*
X35049D01*
X35000Y38951D02*
Y39049D01*
X34951Y35000D02*
X35049D01*
X35000Y34951D02*
Y35049D01*
X35451Y24000D02*
X35549D01*
X35500Y23951D02*
Y24049D01*
X34951Y21000D02*
X35049D01*
X35000Y20951D02*
Y21049D01*
X34451Y46000D02*
X34549D01*
X34500Y45951D02*
Y46049D01*
X34451Y44000D02*
X34549D01*
X34500Y43951D02*
Y44049D01*
X34451Y42000D02*
X34549D01*
X34500Y41951D02*
Y42049D01*
X33951Y41000D02*
X34049D01*
X34000Y40951D02*
Y41049D01*
X34451Y40000D02*
X34549D01*
X34500Y39951D02*
Y40049D01*
X33951Y39000D02*
X34049D01*
X34000Y38951D02*
Y39049D01*
X33951Y37000D02*
X34049D01*
X34000Y36951D02*
Y37049D01*
X34451Y36000D02*
X34549D01*
X34500Y35951D02*
Y36049D01*
X33951Y35000D02*
X34049D01*
X34000Y34951D02*
Y35049D01*
X33951Y25000D02*
X34049D01*
X34000Y24951D02*
Y25049D01*
X34451Y22000D02*
X34549D01*
X34500Y21951D02*
Y22049D01*
X33951Y21000D02*
X34049D01*
X34000Y20951D02*
Y21049D01*
X32951Y47000D02*
X33049D01*
X33000Y46951D02*
Y47049D01*
X33451Y46000D02*
X33549D01*
X33500Y45951D02*
Y46049D01*
X32951Y43000D02*
X33049D01*
X33000Y42951D02*
Y43049D01*
X32951Y41000D02*
X33049D01*
X33000Y40951D02*
Y41049D01*
X32951Y39000D02*
X33049D01*
X33000Y38951D02*
Y39049D01*
X32951Y37000D02*
X33049D01*
X33000Y36951D02*
Y37049D01*
X33451Y36000D02*
X33549D01*
X33500Y35951D02*
Y36049D01*
X32951Y35000D02*
X33049D01*
X33000Y34951D02*
Y35049D01*
X33451Y22000D02*
X33549D01*
X33500Y21951D02*
Y22049D01*
X32951Y21000D02*
X33049D01*
X33000Y20951D02*
Y21049D01*
X31951Y47000D02*
X32049D01*
X32000Y46951D02*
Y47049D01*
X31951Y45000D02*
X32049D01*
X32000Y44951D02*
Y45049D01*
X32451Y44000D02*
X32549D01*
X32500Y43951D02*
Y44049D01*
X31951Y43000D02*
X32049D01*
X32000Y42951D02*
Y43049D01*
X32451Y42000D02*
X32549D01*
X32500Y41951D02*
Y42049D01*
X31951Y41000D02*
X32049D01*
X32000Y40951D02*
Y41049D01*
X32451Y40000D02*
X32549D01*
X32500Y39951D02*
Y40049D01*
X31951Y39000D02*
X32049D01*
X32000Y38951D02*
Y39049D01*
X31951Y37000D02*
X32049D01*
X32000Y36951D02*
Y37049D01*
X32451Y36000D02*
X32549D01*
X32500Y35951D02*
Y36049D01*
X31951Y35000D02*
X32049D01*
X32000Y34951D02*
Y35049D01*
X32451Y26000D02*
X32549D01*
X32500Y25951D02*
Y26049D01*
X32451Y22000D02*
X32549D01*
X32500Y21951D02*
Y22049D01*
X31951Y21000D02*
X32049D01*
X32000Y20951D02*
Y21049D01*
X30951Y47000D02*
X31049D01*
X31000Y46951D02*
Y47049D01*
X31451Y44000D02*
X31549D01*
X31500Y43951D02*
Y44049D01*
X30951Y43000D02*
X31049D01*
X31000Y42951D02*
Y43049D01*
X31451Y42000D02*
X31549D01*
X31500Y41951D02*
Y42049D01*
X30951Y41000D02*
X31049D01*
X31000Y40951D02*
Y41049D01*
X31451Y40000D02*
X31549D01*
X31500Y39951D02*
Y40049D01*
X30951Y39000D02*
X31049D01*
X31000Y38951D02*
Y39049D01*
X30951Y37000D02*
X31049D01*
X31000Y36951D02*
Y37049D01*
X31451Y36000D02*
X31549D01*
X31500Y35951D02*
Y36049D01*
X30951Y35000D02*
X31049D01*
X31000Y34951D02*
Y35049D01*
X31451Y22000D02*
X31549D01*
X31500Y21951D02*
Y22049D01*
X30951Y21000D02*
X31049D01*
X31000Y20951D02*
Y21049D01*
X29951Y47000D02*
X30049D01*
X30000Y46951D02*
Y47049D01*
X30451Y44000D02*
X30549D01*
X30500Y43951D02*
Y44049D01*
X29951Y43000D02*
X30049D01*
X30000Y42951D02*
Y43049D01*
X30451Y42000D02*
X30549D01*
X30500Y41951D02*
Y42049D01*
X29951Y41000D02*
X30049D01*
X30000Y40951D02*
Y41049D01*
X30451Y40000D02*
X30549D01*
X30500Y39951D02*
Y40049D01*
X29951Y39000D02*
X30049D01*
X30000Y38951D02*
Y39049D01*
X29951Y37000D02*
X30049D01*
X30000Y36951D02*
Y37049D01*
X29951Y35000D02*
X30049D01*
X30000Y34951D02*
Y35049D01*
X30451Y26000D02*
X30549D01*
X30500Y25951D02*
Y26049D01*
X29951Y25000D02*
X30049D01*
X30000Y24951D02*
Y25049D01*
X29951Y21000D02*
X30049D01*
X30000Y20951D02*
Y21049D01*
X28951Y47000D02*
X29049D01*
X29000Y46951D02*
Y47049D01*
X29451Y44000D02*
X29549D01*
X29500Y43951D02*
Y44049D01*
X29451Y42000D02*
X29549D01*
X29500Y41951D02*
Y42049D01*
X28951Y41000D02*
X29049D01*
X29000Y40951D02*
Y41049D01*
X28951Y33000D02*
X29049D01*
X29000Y32951D02*
Y33049D01*
X28951Y31000D02*
X29049D01*
X29000Y30951D02*
Y31049D01*
X28951Y27000D02*
X29049D01*
X29000Y26951D02*
Y27049D01*
X28951Y25000D02*
X29049D01*
X29000Y24951D02*
Y25049D01*
X28951Y21000D02*
X29049D01*
X29000Y20951D02*
Y21049D01*
X27951Y47000D02*
X28049D01*
X28000Y46951D02*
Y47049D01*
X27951Y45000D02*
X28049D01*
X28000Y44951D02*
Y45049D01*
X27951Y43000D02*
X28049D01*
X28000Y42951D02*
Y43049D01*
X27951Y41000D02*
X28049D01*
X28000Y40951D02*
Y41049D01*
X28451Y40000D02*
X28549D01*
X28500Y39951D02*
Y40049D01*
X27951Y39000D02*
X28049D01*
X28000Y38951D02*
Y39049D01*
X27951Y37000D02*
X28049D01*
X28000Y36951D02*
Y37049D01*
X28451Y36000D02*
X28549D01*
X28500Y35951D02*
Y36049D01*
X27951Y33000D02*
X28049D01*
X28000Y32951D02*
Y33049D01*
X28451Y32000D02*
X28549D01*
X28500Y31951D02*
Y32049D01*
X27951Y31000D02*
X28049D01*
X28000Y30951D02*
Y31049D01*
X28451Y28000D02*
X28549D01*
X28500Y27951D02*
Y28049D01*
X27951Y27000D02*
X28049D01*
X28000Y26951D02*
Y27049D01*
X28451Y22000D02*
X28549D01*
X28500Y21951D02*
Y22049D01*
X27951Y21000D02*
X28049D01*
X28000Y20951D02*
Y21049D01*
X26951Y47000D02*
X27049D01*
X27000Y46951D02*
Y47049D01*
X27451Y46000D02*
X27549D01*
X27500Y45951D02*
Y46049D01*
X26951Y45000D02*
X27049D01*
X27000Y44951D02*
Y45049D01*
X27451Y44000D02*
X27549D01*
X27500Y43951D02*
Y44049D01*
X26951Y43000D02*
X27049D01*
X27000Y42951D02*
Y43049D01*
X27451Y42000D02*
X27549D01*
X27500Y41951D02*
Y42049D01*
X26951Y41000D02*
X27049D01*
X27000Y40951D02*
Y41049D01*
X27451Y36000D02*
X27549D01*
X27500Y35951D02*
Y36049D01*
X27451Y34000D02*
X27549D01*
X27500Y33951D02*
Y34049D01*
X27451Y32000D02*
X27549D01*
X27500Y31951D02*
Y32049D01*
X26951Y31000D02*
X27049D01*
X27000Y30951D02*
Y31049D01*
X26951Y27000D02*
X27049D01*
X27000Y26951D02*
Y27049D01*
X27451Y26000D02*
X27549D01*
X27500Y25951D02*
Y26049D01*
X26951Y25000D02*
X27049D01*
X27000Y24951D02*
Y25049D01*
X26951Y21000D02*
X27049D01*
X27000Y20951D02*
Y21049D01*
X25951Y47000D02*
X26049D01*
X26000Y46951D02*
Y47049D01*
X26451Y46000D02*
X26549D01*
X26500Y45951D02*
Y46049D01*
X25951Y45000D02*
X26049D01*
X26000Y44951D02*
Y45049D01*
X26451Y44000D02*
X26549D01*
X26500Y43951D02*
Y44049D01*
X25951Y43000D02*
X26049D01*
X26000Y42951D02*
Y43049D01*
X26451Y42000D02*
X26549D01*
X26500Y41951D02*
Y42049D01*
X25951Y41000D02*
X26049D01*
X26000Y40951D02*
Y41049D01*
X25951Y27000D02*
X26049D01*
X26000Y26951D02*
Y27049D01*
X25951Y25000D02*
X26049D01*
X26000Y24951D02*
Y25049D01*
X25951Y21000D02*
X26049D01*
X26000Y20951D02*
Y21049D01*
X25451Y46000D02*
X25549D01*
X25500Y45951D02*
Y46049D01*
X24951Y45000D02*
X25049D01*
X25000Y44951D02*
Y45049D01*
X25451Y44000D02*
X25549D01*
X25500Y43951D02*
Y44049D01*
X24951Y43000D02*
X25049D01*
X25000Y42951D02*
Y43049D01*
X25451Y42000D02*
X25549D01*
X25500Y41951D02*
Y42049D01*
X24951Y41000D02*
X25049D01*
X25000Y40951D02*
Y41049D01*
X24951Y39000D02*
X25049D01*
X25000Y38951D02*
Y39049D01*
X25451Y36000D02*
X25549D01*
X25500Y35951D02*
Y36049D01*
X25451Y34000D02*
X25549D01*
X25500Y33951D02*
Y34049D01*
X25451Y32000D02*
X25549D01*
X25500Y31951D02*
Y32049D01*
X25451Y22000D02*
X25549D01*
X25500Y21951D02*
Y22049D01*
X24951Y21000D02*
X25049D01*
X25000Y20951D02*
Y21049D01*
X23951Y45000D02*
X24049D01*
X24000Y44951D02*
Y45049D01*
X24451Y44000D02*
X24549D01*
X24500Y43951D02*
Y44049D01*
X23951Y43000D02*
X24049D01*
X24000Y42951D02*
Y43049D01*
X24451Y42000D02*
X24549D01*
X24500Y41951D02*
Y42049D01*
X23951Y41000D02*
X24049D01*
X24000Y40951D02*
Y41049D01*
X23951Y23000D02*
X24049D01*
X24000Y22951D02*
Y23049D01*
X24451Y22000D02*
X24549D01*
X24500Y21951D02*
Y22049D01*
X23951Y21000D02*
X24049D01*
X24000Y20951D02*
Y21049D01*
X22951Y47000D02*
X23049D01*
X23000Y46951D02*
Y47049D01*
X23451Y46000D02*
X23549D01*
X23500Y45951D02*
Y46049D01*
X22951Y45000D02*
X23049D01*
X23000Y44951D02*
Y45049D01*
X23451Y44000D02*
X23549D01*
X23500Y43951D02*
Y44049D01*
X22951Y43000D02*
X23049D01*
X23000Y42951D02*
Y43049D01*
X23451Y42000D02*
X23549D01*
X23500Y41951D02*
Y42049D01*
X22951Y41000D02*
X23049D01*
X23000Y40951D02*
Y41049D01*
X22951Y21000D02*
X23049D01*
X23000Y20951D02*
Y21049D01*
X21951Y47000D02*
X22049D01*
X22000Y46951D02*
Y47049D01*
X22451Y46000D02*
X22549D01*
X22500Y45951D02*
Y46049D01*
X21951Y45000D02*
X22049D01*
X22000Y44951D02*
Y45049D01*
X22451Y44000D02*
X22549D01*
X22500Y43951D02*
Y44049D01*
X21951Y43000D02*
X22049D01*
X22000Y42951D02*
Y43049D01*
X22451Y42000D02*
X22549D01*
X22500Y41951D02*
Y42049D01*
X21951Y41000D02*
X22049D01*
X22000Y40951D02*
Y41049D01*
X21951Y39000D02*
X22049D01*
X22000Y38951D02*
Y39049D01*
X21951Y31000D02*
X22049D01*
X22000Y30951D02*
Y31049D01*
X21951Y29000D02*
X22049D01*
X22000Y28951D02*
Y29049D01*
X21951Y27000D02*
X22049D01*
X22000Y26951D02*
Y27049D01*
X21951Y23000D02*
X22049D01*
X22000Y22951D02*
Y23049D01*
X21951Y21000D02*
X22049D01*
X22000Y20951D02*
Y21049D01*
X21451Y40000D02*
X21549D01*
X21500Y39951D02*
Y40049D01*
X20951Y31000D02*
X21049D01*
X21000Y30951D02*
Y31049D01*
X21451Y30000D02*
X21549D01*
X21500Y29951D02*
Y30049D01*
X20951Y29000D02*
X21049D01*
X21000Y28951D02*
Y29049D01*
X21451Y28000D02*
X21549D01*
X21500Y27951D02*
Y28049D01*
X20951Y27000D02*
X21049D01*
X21000Y26951D02*
Y27049D01*
X21451Y26000D02*
X21549D01*
X21500Y25951D02*
Y26049D01*
X20951Y23000D02*
X21049D01*
X21000Y22951D02*
Y23049D01*
X21451Y22000D02*
X21549D01*
X21500Y21951D02*
Y22049D01*
X20951Y21000D02*
X21049D01*
X21000Y20951D02*
Y21049D01*
X19951Y47000D02*
X20049D01*
X20000Y46951D02*
Y47049D01*
X20451Y44000D02*
X20549D01*
X20500Y43951D02*
Y44049D01*
X19951Y41000D02*
X20049D01*
X20000Y40951D02*
Y41049D01*
X19951Y39000D02*
X20049D01*
X20000Y38951D02*
Y39049D01*
X19951Y37000D02*
X20049D01*
X20000Y36951D02*
Y37049D01*
X19951Y35000D02*
X20049D01*
X20000Y34951D02*
Y35049D01*
X20451Y34000D02*
X20549D01*
X20500Y33951D02*
Y34049D01*
X19951Y31000D02*
X20049D01*
X20000Y30951D02*
Y31049D01*
X20451Y30000D02*
X20549D01*
X20500Y29951D02*
Y30049D01*
X19951Y29000D02*
X20049D01*
X20000Y28951D02*
Y29049D01*
X20451Y28000D02*
X20549D01*
X20500Y27951D02*
Y28049D01*
X19951Y27000D02*
X20049D01*
X20000Y26951D02*
Y27049D01*
X20451Y26000D02*
X20549D01*
X20500Y25951D02*
Y26049D01*
X19951Y25000D02*
X20049D01*
X20000Y24951D02*
Y25049D01*
X20451Y24000D02*
X20549D01*
X20500Y23951D02*
Y24049D01*
X20451Y22000D02*
X20549D01*
X20500Y21951D02*
Y22049D01*
X19951Y21000D02*
X20049D01*
X20000Y20951D02*
Y21049D01*
X18951Y47000D02*
X19049D01*
X19000Y46951D02*
Y47049D01*
X19451Y44000D02*
X19549D01*
X19500Y43951D02*
Y44049D01*
X18951Y41000D02*
X19049D01*
X19000Y40951D02*
Y41049D01*
X19451Y40000D02*
X19549D01*
X19500Y39951D02*
Y40049D01*
X18951Y39000D02*
X19049D01*
X19000Y38951D02*
Y39049D01*
X19451Y38000D02*
X19549D01*
X19500Y37951D02*
Y38049D01*
X18951Y37000D02*
X19049D01*
X19000Y36951D02*
Y37049D01*
X18951Y35000D02*
X19049D01*
X19000Y34951D02*
Y35049D01*
X19451Y34000D02*
X19549D01*
X19500Y33951D02*
Y34049D01*
X18951Y31000D02*
X19049D01*
X19000Y30951D02*
Y31049D01*
X19451Y30000D02*
X19549D01*
X19500Y29951D02*
Y30049D01*
X18951Y29000D02*
X19049D01*
X19000Y28951D02*
Y29049D01*
X19451Y28000D02*
X19549D01*
X19500Y27951D02*
Y28049D01*
X18951Y27000D02*
X19049D01*
X19000Y26951D02*
Y27049D01*
X19451Y26000D02*
X19549D01*
X19500Y25951D02*
Y26049D01*
X18951Y25000D02*
X19049D01*
X19000Y24951D02*
Y25049D01*
X19451Y24000D02*
X19549D01*
X19500Y23951D02*
Y24049D01*
X18951Y21000D02*
X19049D01*
X19000Y20951D02*
Y21049D01*
X17951Y47000D02*
X18049D01*
X18000Y46951D02*
Y47049D01*
X18451Y44000D02*
X18549D01*
X18500Y43951D02*
Y44049D01*
X17951Y41000D02*
X18049D01*
X18000Y40951D02*
Y41049D01*
X18451Y40000D02*
X18549D01*
X18500Y39951D02*
Y40049D01*
X17951Y39000D02*
X18049D01*
X18000Y38951D02*
Y39049D01*
X18451Y38000D02*
X18549D01*
X18500Y37951D02*
Y38049D01*
X18451Y30000D02*
X18549D01*
X18500Y29951D02*
Y30049D01*
X17951Y29000D02*
X18049D01*
X18000Y28951D02*
Y29049D01*
X18451Y26000D02*
X18549D01*
X18500Y25951D02*
Y26049D01*
X18451Y24000D02*
X18549D01*
X18500Y23951D02*
Y24049D01*
X17951Y23000D02*
X18049D01*
X18000Y22951D02*
Y23049D01*
X17951Y21000D02*
X18049D01*
X18000Y20951D02*
Y21049D01*
X16951Y47000D02*
X17049D01*
X17000Y46951D02*
Y47049D01*
X17451Y44000D02*
X17549D01*
X17500Y43951D02*
Y44049D01*
X16951Y41000D02*
X17049D01*
X17000Y40951D02*
Y41049D01*
X17451Y40000D02*
X17549D01*
X17500Y39951D02*
Y40049D01*
X16951Y39000D02*
X17049D01*
X17000Y38951D02*
Y39049D01*
X17451Y38000D02*
X17549D01*
X17500Y37951D02*
Y38049D01*
X16951Y31000D02*
X17049D01*
X17000Y30951D02*
Y31049D01*
X16951Y29000D02*
X17049D01*
X17000Y28951D02*
Y29049D01*
X17451Y26000D02*
X17549D01*
X17500Y25951D02*
Y26049D01*
X17451Y24000D02*
X17549D01*
X17500Y23951D02*
Y24049D01*
X16951Y23000D02*
X17049D01*
X17000Y22951D02*
Y23049D01*
X17451Y22000D02*
X17549D01*
X17500Y21951D02*
Y22049D01*
X16951Y21000D02*
X17049D01*
X17000Y20951D02*
Y21049D01*
X16451Y48000D02*
X16549D01*
X16500Y47951D02*
Y48049D01*
X15951Y47000D02*
X16049D01*
X16000Y46951D02*
Y47049D01*
X16451Y44000D02*
X16549D01*
X16500Y43951D02*
Y44049D01*
X16451Y42000D02*
X16549D01*
X16500Y41951D02*
Y42049D01*
X16451Y40000D02*
X16549D01*
X16500Y39951D02*
Y40049D01*
X15951Y39000D02*
X16049D01*
X16000Y38951D02*
Y39049D01*
X16451Y38000D02*
X16549D01*
X16500Y37951D02*
Y38049D01*
X16451Y32000D02*
X16549D01*
X16500Y31951D02*
Y32049D01*
X15951Y31000D02*
X16049D01*
X16000Y30951D02*
Y31049D01*
X16451Y30000D02*
X16549D01*
X16500Y29951D02*
Y30049D01*
X15951Y29000D02*
X16049D01*
X16000Y28951D02*
Y29049D01*
X15951Y23000D02*
X16049D01*
X16000Y22951D02*
Y23049D01*
X16451Y22000D02*
X16549D01*
X16500Y21951D02*
Y22049D01*
X15951Y21000D02*
X16049D01*
X16000Y20951D02*
Y21049D01*
X15451Y44000D02*
X15549D01*
X15500Y43951D02*
Y44049D01*
X15451Y40000D02*
X15549D01*
X15500Y39951D02*
Y40049D01*
X15451Y38000D02*
X15549D01*
X15500Y37951D02*
Y38049D01*
X15451Y36000D02*
X15549D01*
X15500Y35951D02*
Y36049D01*
X15451Y34000D02*
X15549D01*
X15500Y33951D02*
Y34049D01*
X15451Y32000D02*
X15549D01*
X15500Y31951D02*
Y32049D01*
X15451Y28000D02*
X15549D01*
X15500Y27951D02*
Y28049D01*
X14951Y23000D02*
X15049D01*
X15000Y22951D02*
Y23049D01*
X15451Y22000D02*
X15549D01*
X15500Y21951D02*
Y22049D01*
X14951Y21000D02*
X15049D01*
X15000Y20951D02*
Y21049D01*
X13951Y23000D02*
X14049D01*
X14000Y22951D02*
Y23049D01*
X14451Y22000D02*
X14549D01*
X14500Y21951D02*
Y22049D01*
X13951Y21000D02*
X14049D01*
X14000Y20951D02*
Y21049D01*
X12951Y49000D02*
X13049D01*
X13000Y48951D02*
Y49049D01*
X13451Y48000D02*
X13549D01*
X13500Y47951D02*
Y48049D01*
X12951Y47000D02*
X13049D01*
X13000Y46951D02*
Y47049D01*
X12951Y43000D02*
X13049D01*
X13000Y42951D02*
Y43049D01*
X13451Y42000D02*
X13549D01*
X13500Y41951D02*
Y42049D01*
X12951Y39000D02*
X13049D01*
X13000Y38951D02*
Y39049D01*
X12951Y37000D02*
X13049D01*
X13000Y36951D02*
Y37049D01*
X13451Y36000D02*
X13549D01*
X13500Y35951D02*
Y36049D01*
X13451Y34000D02*
X13549D01*
X13500Y33951D02*
Y34049D01*
X12951Y31000D02*
X13049D01*
X13000Y30951D02*
Y31049D01*
X12951Y29000D02*
X13049D01*
X13000Y28951D02*
Y29049D01*
X12951Y27000D02*
X13049D01*
X13000Y26951D02*
Y27049D01*
X12951Y23000D02*
X13049D01*
X13000Y22951D02*
Y23049D01*
X13451Y22000D02*
X13549D01*
X13500Y21951D02*
Y22049D01*
X12951Y21000D02*
X13049D01*
X13000Y20951D02*
Y21049D01*
X11951Y47000D02*
X12049D01*
X12000Y46951D02*
Y47049D01*
X12451Y44000D02*
X12549D01*
X12500Y43951D02*
Y44049D01*
X11951Y43000D02*
X12049D01*
X12000Y42951D02*
Y43049D01*
X12451Y40000D02*
X12549D01*
X12500Y39951D02*
Y40049D01*
X11951Y39000D02*
X12049D01*
X12000Y38951D02*
Y39049D01*
X12451Y38000D02*
X12549D01*
X12500Y37951D02*
Y38049D01*
X12451Y34000D02*
X12549D01*
X12500Y33951D02*
Y34049D01*
X12451Y32000D02*
X12549D01*
X12500Y31951D02*
Y32049D01*
X11951Y31000D02*
X12049D01*
X12000Y30951D02*
Y31049D01*
X12451Y30000D02*
X12549D01*
X12500Y29951D02*
Y30049D01*
X12451Y28000D02*
X12549D01*
X12500Y27951D02*
Y28049D01*
X12451Y26000D02*
X12549D01*
X12500Y25951D02*
Y26049D01*
X11951Y25000D02*
X12049D01*
X12000Y24951D02*
Y25049D01*
X11951Y23000D02*
X12049D01*
X12000Y22951D02*
Y23049D01*
X12451Y22000D02*
X12549D01*
X12500Y21951D02*
Y22049D01*
X11951Y21000D02*
X12049D01*
X12000Y20951D02*
Y21049D01*
X10951Y49000D02*
X11049D01*
X11000Y48951D02*
Y49049D01*
X10951Y47000D02*
X11049D01*
X11000Y46951D02*
Y47049D01*
X10951Y45000D02*
X11049D01*
X11000Y44951D02*
Y45049D01*
X10951Y43000D02*
X11049D01*
X11000Y42951D02*
Y43049D01*
X10951Y41000D02*
X11049D01*
X11000Y40951D02*
Y41049D01*
X11451Y40000D02*
X11549D01*
X11500Y39951D02*
Y40049D01*
X10951Y39000D02*
X11049D01*
X11000Y38951D02*
Y39049D01*
X10951Y37000D02*
X11049D01*
X11000Y36951D02*
Y37049D01*
X11451Y36000D02*
X11549D01*
X11500Y35951D02*
Y36049D01*
X10951Y31000D02*
X11049D01*
X11000Y30951D02*
Y31049D01*
X11451Y30000D02*
X11549D01*
X11500Y29951D02*
Y30049D01*
X11451Y28000D02*
X11549D01*
X11500Y27951D02*
Y28049D01*
X11451Y26000D02*
X11549D01*
X11500Y25951D02*
Y26049D01*
X10951Y25000D02*
X11049D01*
X11000Y24951D02*
Y25049D01*
X10951Y23000D02*
X11049D01*
X11000Y22951D02*
Y23049D01*
X10951Y21000D02*
X11049D01*
X11000Y20951D02*
Y21049D01*
X17566Y48200D02*
X17665D01*
X17616Y48151D02*
Y48249D01*
X17551Y49801D02*
X17649D01*
X17600Y49752D02*
Y49851D01*
X36801Y48100D02*
X36899D01*
X36850Y48051D02*
Y48149D01*
X35351Y48200D02*
X35449D01*
X35400Y48151D02*
Y48249D01*
X33601Y48200D02*
X33699D01*
X33650Y48151D02*
Y48249D01*
X31851Y48200D02*
X31949D01*
X31900Y48151D02*
Y48249D01*
X30651Y48250D02*
X30749D01*
X30700Y48201D02*
Y48299D01*
X20384Y48549D02*
X20482D01*
X20433Y48499D02*
Y48598D01*
X30351Y49050D02*
X30449D01*
X30400Y49001D02*
Y49099D01*
X30326Y48750D02*
X30424D01*
X30375Y48701D02*
Y48799D01*
X37801Y26500D02*
X37899D01*
X37850Y26451D02*
Y26549D01*
X35101Y28450D02*
X35199D01*
X35150Y28401D02*
Y28499D01*
X36451Y28600D02*
X36549D01*
X36500Y28551D02*
Y28649D01*
X37801Y28300D02*
X37899D01*
X37850Y28251D02*
Y28349D01*
X38901Y28900D02*
X38999D01*
X38950Y28851D02*
Y28949D01*
X17751Y25100D02*
X17849D01*
X17800Y25051D02*
Y25149D01*
X17251Y24950D02*
X17349D01*
X17300Y24901D02*
Y24999D01*
X30401Y39650D02*
X30499D01*
X30450Y39601D02*
Y39699D01*
X29551Y39650D02*
X29649D01*
X29600Y39601D02*
Y39699D01*
X29951Y39650D02*
X30049D01*
X30000Y39601D02*
Y39699D01*
X30651Y41300D02*
X30749D01*
X30700Y41251D02*
Y41349D01*
X29001Y41300D02*
X29099D01*
X29050Y41251D02*
Y41349D01*
X31301Y47550D02*
X31399D01*
X31350Y47501D02*
Y47599D01*
X31301Y44900D02*
X31399D01*
X31350Y44851D02*
Y44949D01*
X24601Y38500D02*
X24699D01*
X24650Y38451D02*
Y38549D01*
X24051Y37450D02*
X24149D01*
X24100Y37401D02*
Y37499D01*
X28151Y28250D02*
X28249D01*
X28200Y28201D02*
Y28299D01*
X33001Y26750D02*
X33099D01*
X33050Y26701D02*
Y26799D01*
X34095Y28506D02*
X34194D01*
X34144Y28456D02*
Y28555D01*
X30701Y31700D02*
X30799D01*
X30750Y31651D02*
Y31749D01*
X35084Y32039D02*
X35182D01*
X35133Y31989D02*
Y32088D01*
X31851Y31450D02*
X31949D01*
X31900Y31401D02*
Y31499D01*
X34251Y34300D02*
X34349D01*
X34300Y34251D02*
Y34349D01*
X42965Y46313D02*
X43064D01*
X43015Y46264D02*
Y46362D01*
X44201Y45700D02*
X44299D01*
X44250Y45651D02*
Y45749D01*
X44551Y46050D02*
X44649D01*
X44600Y46001D02*
Y46099D01*
X44551Y46900D02*
X44649D01*
X44600Y46851D02*
Y46949D01*
X44768Y46329D02*
X44866D01*
X44817Y46280D02*
Y46378D01*
X21434Y37789D02*
X21532D01*
X21483Y37739D02*
Y37838D01*
X21134Y37789D02*
X21232D01*
X21183Y37739D02*
Y37838D01*
X20784Y37789D02*
X20882D01*
X20833Y37739D02*
Y37838D01*
X20784Y37489D02*
X20882D01*
X20833Y37439D02*
Y37538D01*
X21434Y37489D02*
X21532D01*
X21483Y37439D02*
Y37538D01*
X12934Y35339D02*
X13032D01*
X12983Y35289D02*
Y35388D01*
X17884Y26739D02*
X17982D01*
X17933Y26689D02*
Y26788D01*
X15884Y49139D02*
X15982D01*
X15933Y49089D02*
Y49188D01*
X21134Y37489D02*
X21232D01*
X21183Y37439D02*
Y37538D01*
X20334Y47889D02*
X20432D01*
X20383Y47839D02*
Y47938D01*
X30684Y47889D02*
X30782D01*
X30733Y47839D02*
Y47938D01*
X30334Y47689D02*
X30432D01*
X30383Y47639D02*
Y47738D01*
X19534Y33089D02*
X19632D01*
X19583Y33039D02*
Y33138D01*
X33434Y46739D02*
X33532D01*
X33483Y46689D02*
Y46788D01*
X36234Y32639D02*
X36332D01*
X36283Y32589D02*
Y32688D01*
X33134Y48739D02*
X33232D01*
X33183Y48689D02*
Y48788D01*
X33134Y47839D02*
X33232D01*
X33183Y47789D02*
Y47888D01*
X42451Y45180D02*
X42549D01*
X42500Y45131D02*
Y45229D01*
X28984Y41639D02*
X29082D01*
X29033Y41589D02*
Y41688D01*
X30384Y40989D02*
X30482D01*
X30433Y40939D02*
Y41038D01*
X30401Y36350D02*
X30499D01*
X30450Y36301D02*
Y36399D01*
X29951Y36100D02*
X30049D01*
X30000Y36051D02*
Y36149D01*
X29551Y35900D02*
X29649D01*
X29600Y35851D02*
Y35949D01*
X29734Y42014D02*
X29832D01*
X29783Y41964D02*
Y42063D01*
X29384Y43389D02*
X29482D01*
X29433Y43339D02*
Y43438D01*
X29384Y42889D02*
X29482D01*
X29433Y42839D02*
Y42938D01*
X29134Y42239D02*
X29232D01*
X29183Y42189D02*
Y42288D01*
X49094Y32980D02*
X49192D01*
X49143Y32931D02*
Y33029D01*
X49076Y32173D02*
X49174D01*
X49125Y32124D02*
Y32223D01*
X49076Y30755D02*
X49174D01*
X49125Y30706D02*
Y30804D01*
X49076Y28627D02*
X49174D01*
X49125Y28578D02*
Y28676D01*
X49084Y25789D02*
X49182D01*
X49133Y25739D02*
Y25838D01*
X43534Y24689D02*
X43632D01*
X43583Y24639D02*
Y24738D01*
X44918Y24691D02*
X45016D01*
X44967Y24641D02*
Y24740D01*
X46132Y24646D02*
X46231D01*
X46182Y24597D02*
Y24696D01*
X47684Y24639D02*
X47782D01*
X47733Y24589D02*
Y24688D01*
X48881Y24717D02*
X48979D01*
X48930Y24668D02*
Y24767D01*
X42002Y24643D02*
X42101D01*
X42051Y24594D02*
Y24692D01*
X40734Y24639D02*
X40832D01*
X40783Y24589D02*
Y24688D01*
X39934Y25339D02*
X40032D01*
X39983Y25289D02*
Y25388D01*
X40001Y29200D02*
X40099D01*
X40050Y29151D02*
Y29249D01*
X40001Y29800D02*
X40099D01*
X40050Y29751D02*
Y29849D01*
X39955Y28289D02*
X40054D01*
X40005Y28239D02*
Y28338D01*
X39984Y27439D02*
X40082D01*
X40033Y27389D02*
Y27488D01*
X39969Y26405D02*
X40067D01*
X40018Y26356D02*
Y26454D01*
X39969Y30749D02*
X40067D01*
X40018Y30700D02*
Y30799D01*
X39984Y31839D02*
X40082D01*
X40033Y31789D02*
Y31888D01*
X39984Y33139D02*
X40082D01*
X40033Y33089D02*
Y33188D01*
X39184Y26689D02*
X39282D01*
X39233Y26639D02*
Y26738D01*
X39220Y26183D02*
X39318D01*
X39269Y26134D02*
Y26233D01*
X39212Y25709D02*
X39310D01*
X39261Y25659D02*
Y25758D01*
X38814Y26129D02*
X38912D01*
X38863Y26080D02*
Y26178D01*
X35454Y26339D02*
X35552D01*
X35503Y26290D02*
Y26388D01*
X34558Y26383D02*
X34657D01*
X34607Y26334D02*
Y26432D01*
X35443Y25576D02*
X35541D01*
X35492Y25527D02*
Y25625D01*
X31384Y28839D02*
X31482D01*
X31433Y28789D02*
Y28888D01*
X30034Y30939D02*
X30132D01*
X30083Y30889D02*
Y30988D01*
X29960Y31934D02*
X30059D01*
X30010Y31885D02*
Y31983D01*
X29984Y32639D02*
X30082D01*
X30033Y32589D02*
Y32688D01*
X29967Y33389D02*
X30065D01*
X30016Y33340D02*
Y33439D01*
X29984Y33839D02*
X30082D01*
X30033Y33789D02*
Y33888D01*
X35834Y30439D02*
X35932D01*
X35883Y30389D02*
Y30488D01*
X35101Y27450D02*
X35199D01*
X35150Y27401D02*
Y27499D01*
X34501Y28800D02*
X34599D01*
X34550Y28751D02*
Y28849D01*
X34801Y29750D02*
X34899D01*
X34850Y29701D02*
Y29799D01*
X37884Y29839D02*
X37982D01*
X37933Y29789D02*
Y29888D01*
X36734Y27439D02*
X36832D01*
X36783Y27389D02*
Y27488D01*
X36784Y24489D02*
X36882D01*
X36833Y24439D02*
Y24538D01*
X35434Y32689D02*
X35532D01*
X35483Y32639D02*
Y32738D01*
X36740Y31363D02*
X36839D01*
X36789Y31314D02*
Y31412D01*
X37384Y31339D02*
X37482D01*
X37433Y31289D02*
Y31388D01*
X38884Y31339D02*
X38982D01*
X38933Y31289D02*
Y31388D01*
X39184Y30439D02*
X39282D01*
X39233Y30389D02*
Y30488D01*
X39151Y29800D02*
X39249D01*
X39200Y29751D02*
Y29849D01*
X39151Y29200D02*
X39249D01*
X39200Y29151D02*
Y29249D01*
X39184Y28389D02*
X39282D01*
X39233Y28339D02*
Y28438D01*
X39184Y28039D02*
X39282D01*
X39233Y27989D02*
Y28088D01*
X39184Y27439D02*
X39282D01*
X39233Y27389D02*
Y27488D01*
X33484Y26239D02*
X33582D01*
X33533Y26189D02*
Y26288D01*
X34134Y25489D02*
X34232D01*
X34183Y25439D02*
Y25538D01*
X35134Y24539D02*
X35232D01*
X35183Y24489D02*
Y24588D01*
X38484Y24489D02*
X38582D01*
X38533Y24439D02*
Y24538D01*
X31751Y26800D02*
X31849D01*
X31800Y26751D02*
Y26849D01*
X31301Y26800D02*
X31399D01*
X31350Y26751D02*
Y26849D01*
X30201Y26800D02*
X30299D01*
X30250Y26751D02*
Y26849D01*
X30601Y26800D02*
X30699D01*
X30650Y26751D02*
Y26849D01*
X29984Y27189D02*
X30082D01*
X30033Y27139D02*
Y27238D01*
X29951Y27800D02*
X30049D01*
X30000Y27751D02*
Y27849D01*
X26751Y28250D02*
X26849D01*
X26800Y28201D02*
Y28299D01*
X28401Y28500D02*
X28499D01*
X28450Y28451D02*
Y28549D01*
X28651Y28750D02*
X28749D01*
X28700Y28701D02*
Y28799D01*
X28701Y30350D02*
X28799D01*
X28750Y30301D02*
Y30399D01*
X26334Y30339D02*
X26432D01*
X26383Y30289D02*
Y30388D01*
X26734Y30689D02*
X26832D01*
X26783Y30639D02*
Y30738D01*
X26334Y30639D02*
X26432D01*
X26383Y30589D02*
Y30688D01*
X26301Y28600D02*
X26399D01*
X26350Y28551D02*
Y28649D01*
X26401Y28300D02*
X26499D01*
X26450Y28251D02*
Y28349D01*
X26634Y28639D02*
X26732D01*
X26683Y28589D02*
Y28688D01*
X32384Y29739D02*
X32482D01*
X32433Y29689D02*
Y29788D01*
X32384Y31439D02*
X32482D01*
X32433Y31389D02*
Y31488D01*
X34734Y28939D02*
X34832D01*
X34783Y28889D02*
Y28988D01*
X32784Y31439D02*
X32882D01*
X32833Y31389D02*
Y31488D01*
X33634Y32877D02*
X33732D01*
X33683Y32828D02*
Y32927D01*
X32034Y39639D02*
X32132D01*
X32083Y39589D02*
Y39688D01*
X45934Y38489D02*
X46032D01*
X45983Y38439D02*
Y38538D01*
X44834Y40689D02*
X44932D01*
X44883Y40639D02*
Y40738D01*
X44834Y37839D02*
X44932D01*
X44883Y37789D02*
Y37888D01*
X42784Y37839D02*
X42882D01*
X42833Y37789D02*
Y37888D01*
X27534Y39639D02*
X27632D01*
X27583Y39589D02*
Y39688D01*
X33634Y39639D02*
X33732D01*
X33683Y39589D02*
Y39688D01*
X41934Y46339D02*
X42032D01*
X41983Y46289D02*
Y46388D01*
X36784Y39639D02*
X36882D01*
X36833Y39589D02*
Y39688D01*
X38434Y40739D02*
X38532D01*
X38483Y40689D02*
Y40788D01*
X35684Y41139D02*
X35782D01*
X35733Y41089D02*
Y41188D01*
X35684Y39039D02*
X35782D01*
X35733Y38989D02*
Y39088D01*
X37234Y34439D02*
X37332D01*
X37283Y34389D02*
Y34488D01*
X36884Y43689D02*
X36982D01*
X36933Y43639D02*
Y43738D01*
X11884Y34439D02*
X11982D01*
X11933Y34389D02*
Y34488D01*
X17734Y28089D02*
X17832D01*
X17783Y28039D02*
Y28138D01*
X23984Y39589D02*
X24082D01*
X24033Y39539D02*
Y39638D01*
X38684Y24739D02*
X38782D01*
X38733Y24689D02*
Y24788D01*
X48884Y45189D02*
X48982D01*
X48933Y45139D02*
Y45238D01*
X29634Y43139D02*
X29732D01*
X29683Y43089D02*
Y43188D01*
X40184Y45689D02*
X40282D01*
X40233Y45639D02*
Y45738D01*
X43651Y45318D02*
X43749D01*
X43700Y45268D02*
Y45367D01*
X31484Y32689D02*
X31582D01*
X31533Y32639D02*
Y32738D01*
X29784Y31189D02*
X29882D01*
X29833Y31139D02*
Y31238D01*
X30934Y25039D02*
X31032D01*
X30983Y24989D02*
Y25088D01*
X38884Y30739D02*
X38982D01*
X38933Y30689D02*
Y30788D01*
X35084Y30839D02*
X35182D01*
X35133Y30789D02*
Y30888D01*
X29334Y31189D02*
X29432D01*
X29383Y31139D02*
Y31238D01*
X32584Y32689D02*
X32682D01*
X32633Y32639D02*
Y32738D01*
X45584Y42939D02*
X45682D01*
X45633Y42889D02*
Y42988D01*
X45284Y43339D02*
X45382D01*
X45333Y43289D02*
Y43388D01*
X45301Y44168D02*
X45399D01*
X45350Y44118D02*
Y44217D01*
X45929Y43778D02*
X46027D01*
X45978Y43729D02*
Y43828D01*
X45926Y45365D02*
X46025D01*
X45975Y45315D02*
Y45414D01*
X46851Y43868D02*
X46949D01*
X46900Y43818D02*
Y43917D01*
X46851Y45268D02*
X46949D01*
X46900Y45218D02*
Y45317D01*
X46401Y43368D02*
X46499D01*
X46450Y43318D02*
Y43417D01*
X45601Y43968D02*
X45699D01*
X45650Y43918D02*
Y44017D01*
X46401Y44918D02*
X46499D01*
X46450Y44868D02*
Y44967D01*
X48884Y46739D02*
X48982D01*
X48933Y46689D02*
Y46788D01*
X43636Y38373D02*
X43735D01*
X43685Y38323D02*
Y38422D01*
X43632Y40117D02*
X43731D01*
X43681Y40068D02*
Y40166D01*
X40701Y44568D02*
X40799D01*
X40750Y44518D02*
Y44617D01*
X44314Y43496D02*
X44392D01*
X44353Y43457D02*
Y43535D01*
X43448Y43496D02*
X43526D01*
X43487Y43457D02*
Y43535D01*
X44314Y44362D02*
X44392D01*
X44353Y44323D02*
Y44401D01*
X44314Y43929D02*
X44392D01*
X44353Y43890D02*
Y43968D01*
X43448Y44362D02*
X43526D01*
X43487Y44323D02*
Y44401D01*
X43448Y43929D02*
X43526D01*
X43487Y43890D02*
Y43968D01*
X43881Y43496D02*
X43959D01*
X43920Y43457D02*
Y43535D01*
X43881Y44362D02*
X43959D01*
X43920Y44323D02*
Y44401D01*
X43881Y43929D02*
X43959D01*
X43920Y43890D02*
Y43968D01*
X42501Y44550D02*
X42599D01*
X42550Y44501D02*
Y44599D01*
X42501Y43318D02*
X42599D01*
X42550Y43268D02*
Y43367D01*
M02*
