M48
;Layer_Color=9474304
;FILE_FORMAT=2:4
INCH,LZ
;TYPE=PLATED
T1F00S00C0.0079
T3F00S00C0.0310
T5F00S00C0.0350
T6F00S00C0.0394
T7F00S00C0.0402
T8F00S00C0.0433
T10F00S00C0.0642
T11F00S00C0.1181
;TYPE=NON_PLATED
T12F00S00C0.0315
T13F00S00C0.1280
%
T01
X047Y022
X04735Y02335
X04765Y02355
X0465Y023
X0455
X0445
X0435
X0425
X0415
X0405
X0395
X039286Y023094
X0385Y023
X0375
X0365
X037Y024
X036
X035
X0355Y025
X0345
X0335
X0325
X033Y026
X034
X034669Y02665
X0335Y027
X033Y028
X0326Y028426
X032374Y02775
X03235Y02655
X03255Y029349
X03305Y03
X032
X03125Y02955
X0315Y029
X03235Y0311
X03415Y03085
X03435Y029517
X03465Y0294
X03535Y0293
X0355Y02885
X0351Y02865
X034921Y02809
X03685Y0281
X03715Y02785
X0368Y0275
X037161Y02665
X03735Y02545
X0372Y02485
X0387Y02605
Y02665
Y02725
X0389Y0282
Y02845
X0387Y02875
Y02905
Y02965
Y03025
X039188Y0305
X0389Y03085
X0391Y02935
X0401Y02825
X03665Y0288
X03715Y02965
X0371Y03
X03715Y03065
X03735Y03115
X036Y03
X035
X0345Y023
X038Y022
X039
X04
X042
X043
X044
X045
X046
X03105Y02225
X0307Y0228
X0297Y02385
X029Y024
X0295Y025
X0305
X03Y026
X030326Y026523
X0295Y027
X0285
X0275
X028Y028
X027
X026
X025
X02465Y0289
Y0295
Y03005
Y03065
X0245Y031
X0235
X0225
X0215
X0205
X0195
X0185
X0175
X018Y03
X019
X02
X021
X022
X023
X0235Y029
X0225
X0215
X0205
X0195
X0185
X0175
X0195Y0273
X01915Y0268
X0201Y0263
X021Y026
X022
X023
X02305Y0273
X0235Y027
X0245
X0255
X026Y026
X027
X028
X029
X0285Y025
X0275
X0265
X0255
X0245
X025Y026
Y024
X024
X0245Y023
X0255
X026Y022
X027
X028
X029
X0285Y023
X0275
X027Y024
X025Y022
X024
X023
X022
X021
X02
X019
X018
X017
X016
X0165Y023
X0175
X018Y024
X017
X016
X0165Y025
X0175
X0205
X0215
X021Y024
X02
X0205Y023
X0215
X0235
X0225Y027
X0215
X0255Y029
X0265
X0275
X0285
X028Y03
X0273Y02985
X027Y03
X02675Y03045
X0265Y031
X026Y03
X03
X03095
X0305Y029
X031Y028
X03
X015
X0155Y029
X0145
Y031
X0155
X0125
X012Y03
X011
Y028
X0115Y027
X0125
Y029
Y025
X0135
X0145
X015Y024
X014
X013
X0125Y023
X013Y022
X014
X015
X0145Y023
X012Y022
X011Y026
Y032
Y034
X012
X0125Y035
X0145
X0153Y03535
X015Y036
Y034
X0125Y033
X011Y036
X0115Y037
X012Y038
X013
X0135Y039
X0145
X014Y04
X013
X0125Y041
X0115
X011Y042
X013
X014
X015
X0145Y041
X015226Y037826
X0135Y03655
X0125Y039
X011Y038
Y044
X012
X013
X0125Y045
X0115
X0125Y043
X014Y046
X015
X0155Y045
X016Y046
X017
X018Y044
X019
X02
X021
X022
X023
X024
X025
X026
X027
X028
X029
X03
X0305Y045
X031Y046
X029
X0285Y045
X0275
X0265
X0255
X0245
X0235
X0225
X0215
X0205
X0195
Y043
X0205
X0215
X0225
X0235
X0245
X0255
X0265
X0275
X028Y042
X029
X03
Y04
X031
X0305Y039
X0295
X0285
X0275
X0265
X0255
X0245
X02455Y03715
X0231Y03655
X0225Y037
X0215
X0205
X0195
X0185
X0175
X0174Y0354
X01585Y03535
X016Y034
X018
X019
X02
X021
X022
X0231Y0339
X0235Y033
X0225
X0215
X0205
X0195
X0185
X0175
X018Y032
X019
X02
X021
X022
X023
X025
X02505Y0342
X02475Y0348
X026Y0354
X02625Y03615
Y0366
X0265Y037
X0263Y0377
X02775Y03735
X0283Y037311
X0287Y037709
X0291Y03565
X0303
X0311Y0356
X03085Y0361
X03025Y03425
X0298Y0336
X0279Y034
Y035539
X028Y032
X029
X0265Y033
X027Y04
X028
X029
X026
X02515Y04105
X025Y042
X026
X027
X024
X023
X022
X021
X02
X019
X018
X017
X016
Y04
Y038
X0315Y039
X03205Y0401
X03255
X0323Y04035
X03205Y04065
X03255
X0335Y041
X035Y042
X0355Y043
X0365
X0375
X0371Y04375
X0375Y045
X0385
X039Y046
X04
X041
X042008Y046071
X042517Y045629
Y044829
X042567Y044511
X043487Y044362
Y043929
Y043496
X04392
X044353
Y043929
Y044362
X04392
Y043929
X043717Y045279
X044217Y045668
X044617Y046029
X044817Y046329
X044617Y046829
X04515Y04545
X0455Y045
X045992Y045326
X046Y046
X046467Y044879
Y043329
X0465Y043
X04565Y0429
X04505Y04285
X04535Y0433
X045367Y044129
X045667Y043929
X045995Y04374
X046Y042
X04565
X04535Y0422
X0455Y041
X0465
X046Y04
X045152Y039934
X044652Y038734
X045Y038
X046
X0465Y039
X043452Y039034
X044Y038
X0439Y0367
X044Y036
X043
X042
X041
X04
X039
X0395Y035
X0405
X0415
X0425
X0435
X0445
X0455
X0465
X046Y034
X045
X044
X043
X042
X041
X04
X039
X0385Y035
X0375
X0365
X0355
X036Y034
X035
X034
X03355Y0342
X03295Y034
X03245Y0335
X0325Y033
X03205Y03295
X03175Y0334
X0313Y0332
X03155Y03265
X0345Y033
X0355
X0365
X03735Y03325
X0371Y0343
X0365Y03175
X035Y032
X03425Y0319
X03875Y03265
X039Y038
X04
X041
X042
X0415Y039
X0395
X038Y038
X037
X0363Y03825
X0365Y039
X0366Y03965
X0365Y0403
X0357Y0395
X0355Y03965
Y0393
Y03895
X0357Y0391
X0343Y03845
X0341Y03865
X034697Y037709
X0355Y0365
X03235Y03565
X0371Y0418
X0377Y04175
X0395Y043
X0405
X041Y044
X040767Y044529
X0405Y045
X038Y046
X0365Y045
X035Y046
Y044
X042567Y043279
X0425Y043
X04215Y0417
X0425Y041
X0435
X043448Y040778
X044652Y041284
X0457Y0367
X043006Y046279
X046917Y045229
Y043829
X047Y042
X048
X0485Y043
X04895Y04515
Y0467
X048Y046
X0475Y041
X048Y04
X0485Y039
Y037
X04746Y036697
X0475Y035
X0485
X048Y034
X047
Y038
X0475Y047
X0485
X047Y048
X046
X0465Y049
X0445
X0435
X0415
X0405
X0395
X04Y048
X041
X0415Y047
X0425
X043267Y047229
X0455Y047
X0405
X0395
X039Y048
X0371Y0474
X0355Y047
X035Y048
X0355Y049
X032Y048
X0315Y047
X0305
X0295
X0285
X024Y048
X023
X0225Y049
X02145Y0496
X0205Y049
X021Y048
X02145Y04775
X0215Y047
X019Y048
X01855Y04795
X0178Y04785
X017Y048
X016
X0165Y049
X0175
X0165Y047
X0155
Y049
X0145
X0135
X0125
X013Y048
X012
X0115Y047
T03
X0362Y04355
Y04555
X0387
Y04355
Y04715
Y04915
X0362
Y04715
T05
X0415Y027598
Y028598
Y029598
Y030598
X0425Y030098
Y029098
Y028098
Y027098
T06
X047734Y038134
Y039134
Y040534
Y041534
T07
X046929Y026242
Y027242
Y030458
Y031458
T08
X016944Y0234
X018322
X0197
X021078
X022456
X023834
X025212
X02659
X027968
X015566
X0118Y024
Y025
X0108
Y024
X01165Y026498
Y027876
Y029254
Y030632
Y03201
Y033388
Y034766
Y036144
Y037522
Y0389
X0118Y04045
X0108
Y04145
X0118
Y04245
Y04345
X0108
Y04245
T10
X043799Y025801
Y031899
T11
X04815Y0226
X0112
X04815Y0488
X0112
T12
X042783Y048251
X044751
T13
X045Y0266
Y0311
M30
