G04*
G04 #@! TF.GenerationSoftware,Altium Limited,Altium Designer,20.2.7 (254)*
G04*
G04 Layer_Physical_Order=2*
G04 Layer_Color=16711680*
%FSLAX24Y24*%
%MOIN*%
G70*
G04*
G04 #@! TF.SameCoordinates,06D2D76E-F920-4485-92C8-392B035063E4*
G04*
G04*
G04 #@! TF.FilePolarity,Positive*
G04*
G01*
G75*
%ADD12C,0.0060*%
%ADD14C,0.0100*%
%ADD22R,0.0315X0.0315*%
%ADD27R,0.0374X0.0315*%
%ADD101C,0.0200*%
%ADD102C,0.0300*%
%ADD104C,0.0591*%
%ADD105R,0.0591X0.0591*%
%ADD106R,0.0750X0.0750*%
%ADD107C,0.0750*%
%ADD108R,0.1600X0.1000*%
%ADD109R,0.1000X0.1600*%
%ADD110C,0.0650*%
%ADD111R,0.0650X0.0650*%
%ADD112C,0.0315*%
%ADD113O,0.0453X0.0709*%
%ADD114O,0.0571X0.0787*%
%ADD115R,0.0650X0.0650*%
%ADD116R,0.0550X0.0550*%
%ADD117C,0.0550*%
%ADD118C,0.0602*%
%ADD119C,0.1280*%
%ADD120C,0.0963*%
%ADD121C,0.1380*%
%ADD122C,0.0157*%
%ADD123C,0.0197*%
%ADD124R,0.0827X0.0610*%
G36*
X49338Y33700D02*
X39400D01*
Y30519D01*
X39385Y30506D01*
X39350Y30493D01*
X39327Y30511D01*
X39318Y30555D01*
X39288Y30601D01*
X39242Y30631D01*
X39188Y30642D01*
X39134Y30631D01*
X39088Y30601D01*
X39057Y30555D01*
X39046Y30500D01*
X39057Y30446D01*
X39088Y30400D01*
X39134Y30370D01*
X39188Y30359D01*
X39208Y30313D01*
Y29505D01*
X39158Y29478D01*
X39154Y29481D01*
X39100Y29491D01*
X39046Y29481D01*
X39042Y29478D01*
X38992Y29505D01*
Y30850D01*
X38985Y30885D01*
X38965Y30915D01*
X38935Y30935D01*
X38900Y30942D01*
X38865Y30935D01*
X38835Y30915D01*
X38815Y30885D01*
X38808Y30850D01*
Y30405D01*
X38758Y30378D01*
X38754Y30381D01*
X38700Y30391D01*
X38646Y30381D01*
X38600Y30350D01*
X38569Y30304D01*
X38559Y30250D01*
X38569Y30196D01*
X38600Y30150D01*
X38608Y30144D01*
Y29756D01*
X38600Y29750D01*
X38569Y29704D01*
X38559Y29650D01*
X38569Y29596D01*
X38600Y29550D01*
X38608Y29544D01*
Y29156D01*
X38600Y29150D01*
X38569Y29104D01*
X38559Y29050D01*
X38569Y28996D01*
X38600Y28950D01*
X38610Y28944D01*
X38616Y28884D01*
X38595Y28862D01*
X38162D01*
Y35500D01*
X38154Y35543D01*
X38129Y35579D01*
X38129Y35579D01*
X37771Y35938D01*
X37791Y35988D01*
X38554D01*
X38638Y35904D01*
Y32650D01*
X38646Y32607D01*
X38671Y32571D01*
X38707Y32546D01*
X38750Y32538D01*
X38793Y32546D01*
X38829Y32571D01*
X38854Y32607D01*
X38862Y32650D01*
Y35950D01*
X38862Y35950D01*
X38854Y35993D01*
X38829Y36029D01*
X38679Y36179D01*
X38643Y36204D01*
X38600Y36212D01*
X38600Y36212D01*
X36412D01*
Y38250D01*
X36404Y38293D01*
X36379Y38329D01*
X36343Y38354D01*
X36300Y38362D01*
X36257Y38354D01*
X36221Y38329D01*
X36196Y38293D01*
X36188Y38250D01*
Y36212D01*
X35769D01*
X35763Y36224D01*
X35754Y36262D01*
X35796Y36304D01*
X35815Y36350D01*
X35815Y38973D01*
X35977Y39135D01*
X41973Y39135D01*
X42235Y38873D01*
Y37050D01*
X42254Y37004D01*
X42854Y36404D01*
X42900Y36385D01*
X47650D01*
X47696Y36404D01*
X47715Y36450D01*
Y36950D01*
X47696Y36996D01*
X47650Y37015D01*
X43227D01*
X42965Y37277D01*
Y39750D01*
X42946Y39796D01*
X42796Y39946D01*
X42750Y39965D01*
X42262D01*
Y41618D01*
X42281Y41646D01*
X42291Y41700D01*
X42281Y41754D01*
X42250Y41800D01*
X42204Y41831D01*
X42168Y41838D01*
X42173Y41888D01*
X45568D01*
X45596Y41869D01*
X45650Y41859D01*
X45704Y41869D01*
X45750Y41900D01*
X45781Y41946D01*
X45791Y42000D01*
X45781Y42054D01*
X45750Y42100D01*
X45704Y42131D01*
X45650Y42141D01*
X45596Y42131D01*
X45568Y42112D01*
X45514D01*
X45484Y42162D01*
X45491Y42200D01*
X45484Y42238D01*
X45514Y42288D01*
X47100D01*
X47100Y42288D01*
X47143Y42296D01*
X47179Y42321D01*
X48079Y43221D01*
X48079Y43221D01*
X48104Y43257D01*
X48112Y43300D01*
Y44954D01*
X48196Y45038D01*
X48868D01*
X48896Y45019D01*
X48950Y45009D01*
X49004Y45019D01*
X49050Y45050D01*
X49081Y45096D01*
X49091Y45150D01*
X49081Y45204D01*
X49050Y45250D01*
X49004Y45281D01*
X48950Y45291D01*
X48896Y45281D01*
X48868Y45262D01*
X48150D01*
X48150Y45262D01*
X48107Y45254D01*
X48071Y45229D01*
X47962Y45121D01*
X47912Y45141D01*
Y46354D01*
X48146Y46588D01*
X48868D01*
X48896Y46569D01*
X48950Y46559D01*
X49004Y46569D01*
X49050Y46600D01*
X49081Y46646D01*
X49091Y46700D01*
X49081Y46754D01*
X49050Y46800D01*
X49004Y46831D01*
X48950Y46841D01*
X48896Y46831D01*
X48868Y46812D01*
X48100D01*
X48100Y46812D01*
X48057Y46804D01*
X48021Y46779D01*
X47721Y46479D01*
X47696Y46443D01*
X47688Y46400D01*
X47688Y46400D01*
Y43396D01*
X47004Y42712D01*
X45673D01*
X45668Y42762D01*
X45679Y42764D01*
X45704Y42769D01*
X45750Y42800D01*
X45781Y42846D01*
X45791Y42900D01*
X45781Y42954D01*
X45771Y42969D01*
Y43834D01*
X45798Y43875D01*
X45808Y43929D01*
X45798Y43983D01*
X45767Y44029D01*
X45721Y44060D01*
X45667Y44070D01*
X45613Y44060D01*
X45567Y44029D01*
X45536Y43983D01*
X45525Y43929D01*
X45536Y43875D01*
X45546Y43860D01*
Y42994D01*
X45519Y42954D01*
X45509Y42900D01*
X45519Y42846D01*
X45550Y42800D01*
X45596Y42769D01*
X45621Y42764D01*
X45632Y42762D01*
X45627Y42712D01*
X45075D01*
X45070Y42762D01*
X45085Y42765D01*
X45115Y42785D01*
X45135Y42815D01*
X45139Y42835D01*
X45215Y42911D01*
X45235Y42941D01*
X45242Y42976D01*
Y43145D01*
X45292Y43172D01*
X45296Y43169D01*
X45350Y43159D01*
X45404Y43169D01*
X45450Y43200D01*
X45481Y43246D01*
X45491Y43300D01*
X45481Y43354D01*
X45471Y43369D01*
Y44034D01*
X45498Y44075D01*
X45508Y44129D01*
X45498Y44183D01*
X45467Y44229D01*
X45421Y44260D01*
X45367Y44270D01*
X45313Y44260D01*
X45292Y44246D01*
X45242Y44272D01*
Y45450D01*
X45235Y45485D01*
X45215Y45515D01*
X45185Y45535D01*
X45150Y45542D01*
X45115Y45535D01*
X45085Y45515D01*
X45065Y45485D01*
X45058Y45450D01*
Y43014D01*
X44985Y42941D01*
X44965Y42911D01*
X44958Y42876D01*
Y42850D01*
X44965Y42815D01*
X44985Y42785D01*
X45015Y42765D01*
X45030Y42762D01*
X45025Y42712D01*
X36350D01*
X36350Y42712D01*
X36307Y42704D01*
X36271Y42679D01*
X36271Y42679D01*
X34462Y40871D01*
X34412Y40891D01*
Y43604D01*
X35979Y45171D01*
X35981Y45170D01*
X36086Y45126D01*
X36200Y45111D01*
X36314Y45126D01*
X36419Y45170D01*
X36510Y45240D01*
X36580Y45331D01*
X36624Y45436D01*
X36627Y45458D01*
X37708D01*
Y45044D01*
X37583D01*
Y44917D01*
X37397D01*
Y45043D01*
X36903D01*
Y44608D01*
X37397D01*
Y44734D01*
X37583D01*
Y44609D01*
X38017D01*
Y45044D01*
X37892D01*
Y45458D01*
X38273D01*
X38276Y45436D01*
X38320Y45331D01*
X38390Y45240D01*
X38481Y45170D01*
X38586Y45126D01*
X38700Y45111D01*
X38814Y45126D01*
X38919Y45170D01*
X39010Y45240D01*
X39080Y45331D01*
X39124Y45436D01*
X39139Y45550D01*
X39124Y45664D01*
X39080Y45769D01*
X39010Y45860D01*
X38919Y45930D01*
X38814Y45974D01*
X38700Y45989D01*
X38586Y45974D01*
X38481Y45930D01*
X38390Y45860D01*
X38320Y45769D01*
X38276Y45664D01*
X38273Y45642D01*
X36627D01*
X36624Y45664D01*
X36580Y45769D01*
X36510Y45860D01*
X36419Y45930D01*
X36314Y45974D01*
X36200Y45989D01*
X36086Y45974D01*
X35981Y45930D01*
X35890Y45860D01*
X35820Y45769D01*
X35776Y45664D01*
X35761Y45550D01*
X35776Y45436D01*
X35820Y45331D01*
X35821Y45329D01*
X34262Y43771D01*
X34212Y43791D01*
Y46004D01*
X36279Y48071D01*
X36279Y48071D01*
X36304Y48107D01*
X36312Y48150D01*
Y48726D01*
X36314Y48726D01*
X36419Y48770D01*
X36510Y48840D01*
X36580Y48931D01*
X36624Y49036D01*
X36627Y49058D01*
X37658D01*
Y48613D01*
X37533D01*
Y48467D01*
X37397D01*
Y48593D01*
X36903D01*
Y48158D01*
X37397D01*
Y48284D01*
X37533D01*
Y48178D01*
X37967D01*
Y48613D01*
X37842D01*
Y49058D01*
X38273D01*
X38276Y49036D01*
X38320Y48931D01*
X38390Y48840D01*
X38481Y48770D01*
X38586Y48726D01*
X38700Y48711D01*
X38814Y48726D01*
X38919Y48770D01*
X39010Y48840D01*
X39080Y48931D01*
X39124Y49036D01*
X39139Y49150D01*
X39124Y49264D01*
X39080Y49369D01*
X39010Y49460D01*
X38919Y49530D01*
X38814Y49574D01*
X38700Y49589D01*
X38586Y49574D01*
X38481Y49530D01*
X38390Y49460D01*
X38320Y49369D01*
X38276Y49264D01*
X38273Y49242D01*
X36627D01*
X36624Y49264D01*
X36580Y49369D01*
X36510Y49460D01*
X36419Y49530D01*
X36314Y49574D01*
X36200Y49589D01*
X36086Y49574D01*
X35981Y49530D01*
X35890Y49460D01*
X35820Y49369D01*
X35776Y49264D01*
X35761Y49150D01*
X35776Y49036D01*
X35820Y48931D01*
X35890Y48840D01*
X35981Y48770D01*
X36086Y48726D01*
X36088Y48726D01*
Y48196D01*
X34021Y46129D01*
X33996Y46093D01*
X33988Y46050D01*
X33988Y46050D01*
Y38732D01*
X33969Y38704D01*
X33959Y38650D01*
X33969Y38596D01*
X34000Y38550D01*
X34046Y38519D01*
X34100Y38509D01*
X34120Y38513D01*
X34163Y38470D01*
X34159Y38450D01*
X34169Y38396D01*
X34200Y38350D01*
X34246Y38319D01*
X34300Y38309D01*
X34338Y38316D01*
X34388Y38286D01*
Y37096D01*
X34154Y36862D01*
X28150D01*
X28150Y36862D01*
X28107Y36854D01*
X28071Y36829D01*
X28071Y36829D01*
X26527Y35285D01*
X26517Y35288D01*
X26502Y35343D01*
X28335Y37177D01*
X28354Y37181D01*
X28400Y37211D01*
X28431Y37257D01*
X28441Y37311D01*
X28431Y37365D01*
X28400Y37411D01*
X28354Y37442D01*
X28300Y37453D01*
X28246Y37442D01*
X28200Y37411D01*
X28169Y37365D01*
X28160Y37319D01*
X26354Y35512D01*
X26082D01*
X26054Y35531D01*
X26000Y35541D01*
X25946Y35531D01*
X25900Y35500D01*
X25869Y35454D01*
X25859Y35400D01*
X25869Y35346D01*
X25892Y35312D01*
X25877Y35271D01*
X25870Y35262D01*
X17530D01*
X17523Y35271D01*
X17508Y35312D01*
X17531Y35346D01*
X17537Y35379D01*
X17896Y35738D01*
X26250D01*
X26250Y35738D01*
X26293Y35746D01*
X26329Y35771D01*
X27771Y37213D01*
X27804Y37219D01*
X27850Y37250D01*
X27881Y37296D01*
X27891Y37350D01*
X27881Y37404D01*
X27850Y37450D01*
X27804Y37481D01*
X27750Y37491D01*
X27696Y37481D01*
X27650Y37450D01*
X27619Y37404D01*
X27613Y37371D01*
X26429Y36188D01*
X26388Y36200D01*
X26378Y36208D01*
X26350Y36250D01*
X26304Y36281D01*
X26250Y36291D01*
X26196Y36281D01*
X26168Y36262D01*
X16650D01*
X16650Y36262D01*
X16607Y36254D01*
X16571Y36229D01*
X16571Y36229D01*
X15829Y35487D01*
X15796Y35481D01*
X15750Y35450D01*
X15719Y35404D01*
X15709Y35350D01*
X15716Y35312D01*
X15686Y35262D01*
X15546D01*
X15437Y35371D01*
X15431Y35404D01*
X15400Y35450D01*
X15354Y35481D01*
X15300Y35491D01*
X15246Y35481D01*
X15200Y35450D01*
X15169Y35404D01*
X15159Y35350D01*
X15169Y35296D01*
X15200Y35250D01*
X15246Y35219D01*
X15279Y35213D01*
X15421Y35071D01*
X15421Y35071D01*
X15457Y35046D01*
X15500Y35038D01*
X15500Y35038D01*
X26509D01*
X26529Y34988D01*
X26454Y34912D01*
X24832D01*
X24804Y34931D01*
X24750Y34941D01*
X24696Y34931D01*
X24650Y34900D01*
X24619Y34854D01*
X24609Y34800D01*
X24619Y34746D01*
X24650Y34700D01*
X24696Y34669D01*
X24750Y34659D01*
X24804Y34669D01*
X24832Y34688D01*
X26414D01*
X26433Y34642D01*
X26104Y34312D01*
X25132D01*
X25104Y34331D01*
X25050Y34341D01*
X24996Y34331D01*
X24950Y34300D01*
X24919Y34254D01*
X24909Y34200D01*
X24919Y34146D01*
X24950Y34100D01*
X24996Y34069D01*
X25032Y34062D01*
X25027Y34012D01*
X23100D01*
X23057Y34004D01*
X23021Y33979D01*
X22996Y33943D01*
X22988Y33900D01*
X22996Y33857D01*
X23021Y33821D01*
X23057Y33796D01*
X23100Y33788D01*
X26600D01*
X26600Y33788D01*
X26643Y33796D01*
X26679Y33821D01*
X27539Y34680D01*
X27585Y34661D01*
Y33848D01*
X27604Y33802D01*
X27652Y33754D01*
X27698Y33735D01*
X29668D01*
X29670Y33732D01*
X29690Y33685D01*
X29669Y33654D01*
X29659Y33600D01*
X29669Y33546D01*
X29672Y33542D01*
X29645Y33492D01*
X27400D01*
X27365Y33485D01*
X27335Y33465D01*
X24660Y30790D01*
X24650Y30791D01*
X24596Y30781D01*
X24550Y30750D01*
X24519Y30704D01*
X24509Y30650D01*
X24519Y30596D01*
X24550Y30550D01*
X24596Y30519D01*
X24650Y30509D01*
X24704Y30519D01*
X24750Y30550D01*
X24781Y30596D01*
X24791Y30650D01*
X24790Y30660D01*
X27438Y33308D01*
X27710D01*
X27723Y33285D01*
X27728Y33258D01*
X24660Y30190D01*
X24650Y30191D01*
X24596Y30181D01*
X24550Y30150D01*
X24519Y30104D01*
X24509Y30050D01*
X24519Y29996D01*
X24550Y29950D01*
X24596Y29919D01*
X24650Y29909D01*
X24704Y29919D01*
X24750Y29950D01*
X24781Y29996D01*
X24791Y30050D01*
X24790Y30060D01*
X27838Y33108D01*
X31166D01*
X31179Y33092D01*
X31155Y33042D01*
X28100D01*
X28065Y33035D01*
X28035Y33015D01*
X24660Y29640D01*
X24650Y29641D01*
X24596Y29631D01*
X24550Y29600D01*
X24519Y29554D01*
X24509Y29500D01*
X24519Y29446D01*
X24550Y29400D01*
X24596Y29369D01*
X24650Y29359D01*
X24704Y29369D01*
X24750Y29400D01*
X24781Y29446D01*
X24791Y29500D01*
X24790Y29510D01*
X28138Y32858D01*
X31944D01*
X31950Y32850D01*
X31996Y32819D01*
X32050Y32809D01*
X32104Y32819D01*
X32150Y32850D01*
X32181Y32896D01*
X32191Y32950D01*
X32181Y33004D01*
X32150Y33050D01*
X32104Y33081D01*
X32050Y33091D01*
X31996Y33081D01*
X31950Y33050D01*
X31944Y33042D01*
X31403D01*
X31388Y33092D01*
X31400Y33100D01*
X31431Y33146D01*
X31441Y33200D01*
X31431Y33254D01*
X31428Y33258D01*
X31455Y33308D01*
X31644D01*
X31650Y33300D01*
X31696Y33269D01*
X31750Y33259D01*
X31804Y33269D01*
X31850Y33300D01*
X31881Y33346D01*
X31891Y33400D01*
X31884Y33438D01*
X31914Y33488D01*
X32304D01*
X32313Y33479D01*
X32319Y33446D01*
X32350Y33400D01*
X32396Y33369D01*
X32450Y33359D01*
X32504Y33369D01*
X32550Y33400D01*
X32581Y33446D01*
X32591Y33500D01*
X32581Y33554D01*
X32550Y33600D01*
X32504Y33631D01*
X32471Y33637D01*
X32429Y33679D01*
X32421Y33685D01*
X32436Y33735D01*
X32571D01*
X33083Y33223D01*
X33083Y31377D01*
X32241Y30535D01*
X32222Y30489D01*
X32222Y28019D01*
X32172Y28004D01*
X32165Y28015D01*
X32135Y28035D01*
X32100Y28042D01*
X32065Y28035D01*
X32035Y28015D01*
X31485Y27465D01*
X31465Y27435D01*
X31458Y27400D01*
Y25688D01*
X30635Y24865D01*
X30615Y24835D01*
X30608Y24800D01*
Y23087D01*
X30562Y23068D01*
X30418Y23212D01*
Y26523D01*
X30411Y26558D01*
X30391Y26588D01*
X30361Y26608D01*
X30326Y26615D01*
X30291Y26608D01*
X30261Y26588D01*
X30242Y26558D01*
X30235Y26523D01*
Y23174D01*
X30242Y23139D01*
X30261Y23109D01*
X30635Y22735D01*
X30665Y22715D01*
X30700Y22708D01*
X30735Y22715D01*
X30765Y22735D01*
X30785Y22765D01*
X30792Y22800D01*
Y24762D01*
X31615Y25585D01*
X31635Y25615D01*
X31642Y25650D01*
Y27362D01*
X31962Y27682D01*
X32008Y27663D01*
Y26800D01*
X32015Y26765D01*
X32035Y26735D01*
X32285Y26485D01*
X32315Y26465D01*
X32350Y26458D01*
X32385Y26465D01*
X32415Y26485D01*
X32435Y26515D01*
X32442Y26550D01*
X32435Y26585D01*
X32415Y26615D01*
X32192Y26838D01*
Y27592D01*
X32241Y27604D01*
X32287Y27585D01*
X32598Y27585D01*
X32644Y27604D01*
X32894Y27854D01*
X32913Y27900D01*
Y28272D01*
X32926Y28285D01*
X34373D01*
X34485Y28173D01*
Y26600D01*
X34504Y26554D01*
X36454Y24604D01*
X36500Y24585D01*
X37250D01*
X37296Y24604D01*
X37346Y24654D01*
X37365Y24700D01*
Y25000D01*
X37346Y25046D01*
X37215Y25177D01*
Y25318D01*
X37218Y25320D01*
X37265Y25340D01*
X37296Y25319D01*
X37350Y25309D01*
X37404Y25319D01*
X37450Y25350D01*
X37481Y25396D01*
X37491Y25450D01*
X37481Y25504D01*
X37462Y25532D01*
Y31068D01*
X37481Y31096D01*
X37491Y31150D01*
X37481Y31204D01*
X37462Y31232D01*
Y33168D01*
X37481Y33196D01*
X37491Y33250D01*
X37481Y33304D01*
X37450Y33350D01*
X37404Y33381D01*
X37350Y33391D01*
X37296Y33381D01*
X37250Y33350D01*
X37219Y33304D01*
X37209Y33250D01*
X37219Y33196D01*
X37238Y33168D01*
Y31232D01*
X37219Y31204D01*
X37209Y31150D01*
X37219Y31096D01*
X37238Y31068D01*
Y29890D01*
X37200Y29865D01*
X37050D01*
X37012Y29849D01*
X36962Y29869D01*
Y34950D01*
X36962Y34950D01*
X36954Y34993D01*
X36929Y35029D01*
X36929Y35029D01*
X36229Y35729D01*
X36217Y35738D01*
X36232Y35788D01*
X37604D01*
X37938Y35454D01*
Y28750D01*
Y22570D01*
X37554Y22186D01*
X31273D01*
X31187Y22271D01*
X31181Y22304D01*
X31150Y22350D01*
X31104Y22381D01*
X31050Y22391D01*
X30996Y22381D01*
X30950Y22350D01*
X30919Y22304D01*
X30909Y22250D01*
X30919Y22196D01*
X30950Y22150D01*
X30996Y22119D01*
X31029Y22113D01*
X31147Y21994D01*
X31147Y21994D01*
X31184Y21970D01*
X31226Y21961D01*
X31226Y21961D01*
X37600D01*
X37600Y21961D01*
X37643Y21970D01*
X37679Y21994D01*
X38129Y22444D01*
X38129Y22444D01*
X38154Y22481D01*
X38162Y22524D01*
X38162Y22524D01*
Y28638D01*
X38618D01*
X38646Y28619D01*
X38700Y28609D01*
X38754Y28619D01*
X38758Y28622D01*
X38808Y28595D01*
Y28450D01*
X38815Y28415D01*
X38835Y28385D01*
X38865Y28365D01*
X38888Y28361D01*
Y28310D01*
X38857Y28304D01*
X38821Y28279D01*
X38796Y28243D01*
X38788Y28200D01*
Y27414D01*
X38738Y27384D01*
X38700Y27391D01*
X38646Y27381D01*
X38600Y27350D01*
X38569Y27304D01*
X38559Y27250D01*
X38569Y27196D01*
X38588Y27168D01*
Y26732D01*
X38569Y26704D01*
X38559Y26650D01*
X38569Y26596D01*
X38588Y26568D01*
Y26132D01*
X38569Y26104D01*
X38559Y26050D01*
X38569Y25996D01*
X38600Y25950D01*
X38646Y25919D01*
X38700Y25909D01*
X38738Y25916D01*
X38788Y25886D01*
Y23480D01*
X38788Y23480D01*
X38796Y23437D01*
X38821Y23400D01*
X39206Y23015D01*
X39243Y22991D01*
X39286Y22982D01*
X39329Y22991D01*
X39365Y23015D01*
X39389Y23051D01*
X39398Y23094D01*
X39389Y23137D01*
X39365Y23173D01*
X39012Y23526D01*
Y27787D01*
X39062Y27808D01*
X39400Y27470D01*
Y23950D01*
X47258D01*
Y23456D01*
X47250Y23450D01*
X47219Y23404D01*
X47209Y23350D01*
X47219Y23296D01*
X47250Y23250D01*
X47296Y23219D01*
X47350Y23209D01*
X47404Y23219D01*
X47450Y23250D01*
X47481Y23296D01*
X47491Y23350D01*
X47481Y23404D01*
X47450Y23450D01*
X47442Y23456D01*
Y23950D01*
X47558D01*
Y23656D01*
X47550Y23650D01*
X47519Y23604D01*
X47509Y23550D01*
X47519Y23496D01*
X47550Y23450D01*
X47596Y23419D01*
X47650Y23409D01*
X47704Y23419D01*
X47750Y23450D01*
X47781Y23496D01*
X47791Y23550D01*
X47781Y23604D01*
X47750Y23650D01*
X47742Y23656D01*
Y23950D01*
X49338D01*
Y21712D01*
X10112D01*
Y49888D01*
X49338D01*
X49338Y33700D01*
D02*
G37*
G36*
X42900Y39750D02*
Y37250D01*
X43200Y36950D01*
X47650D01*
Y36450D01*
X42900D01*
X42300Y37050D01*
Y38900D01*
X42000Y39200D01*
X35950Y39200D01*
X35750Y39000D01*
X35750Y36350D01*
X35700Y36300D01*
X35300D01*
X35250Y36350D01*
Y39700D01*
X35450Y39900D01*
X42750D01*
X42900Y39750D01*
D02*
G37*
G36*
X33248Y34700D02*
Y34050D01*
X33398Y33900D01*
Y33250D01*
X33398Y31150D01*
X32748Y30500D01*
X32748Y29400D01*
X32848Y29300D01*
Y28600D01*
X32898Y28550D01*
X34450D01*
X34750Y28250D01*
Y26850D01*
X34850Y26750D01*
X36900D01*
X37000Y26850D01*
Y29750D01*
X37050Y29800D01*
X37200D01*
X37238Y29762D01*
Y26488D01*
X37150Y26400D01*
Y25150D01*
X37300Y25000D01*
Y24700D01*
X37250Y24650D01*
X36500D01*
X34550Y26600D01*
Y28200D01*
X34400Y28350D01*
X32900D01*
X32848Y28300D01*
Y27900D01*
X32598Y27650D01*
X32287Y27650D01*
X32287Y30489D01*
X33148Y31350D01*
X33148Y33250D01*
X32598Y33800D01*
X27698D01*
X27650Y33848D01*
Y34791D01*
X27681Y34822D01*
X28100D01*
Y34248D01*
X28248Y34100D01*
X31448D01*
X31500Y34152D01*
Y34712D01*
X31638Y34850D01*
X33098D01*
X33248Y34700D01*
D02*
G37*
G36*
X32227Y35779D02*
X32242Y35738D01*
X32219Y35704D01*
X32209Y35650D01*
X32219Y35596D01*
X32250Y35550D01*
X32296Y35519D01*
X32350Y35509D01*
X32404Y35519D01*
X32432Y35538D01*
X36104D01*
X36738Y34904D01*
Y28192D01*
X35019D01*
X34975Y28221D01*
X34921Y28232D01*
X34867Y28221D01*
X34865Y28219D01*
X34815Y28246D01*
Y28250D01*
X34796Y28296D01*
X34496Y28596D01*
X34450Y28615D01*
X32925D01*
X32913Y28627D01*
Y29300D01*
X32894Y29346D01*
X32813Y29427D01*
X32813Y30473D01*
X33444Y31104D01*
X33463Y31150D01*
X33463Y33250D01*
Y33900D01*
X33444Y33946D01*
X33313Y34077D01*
Y34700D01*
X33294Y34746D01*
X33144Y34896D01*
X33098Y34915D01*
X31638D01*
X31592Y34896D01*
X31454Y34758D01*
X31435Y34712D01*
Y34179D01*
X31421Y34165D01*
X30386D01*
X30367Y34189D01*
X30355Y34215D01*
X30362Y34250D01*
Y35554D01*
X30379Y35571D01*
X30404Y35607D01*
X30412Y35650D01*
X30404Y35693D01*
X30379Y35729D01*
X30367Y35738D01*
X30382Y35788D01*
X31077D01*
X31082Y35738D01*
X31071Y35736D01*
X31046Y35731D01*
X31000Y35700D01*
X30969Y35654D01*
X30959Y35600D01*
X30969Y35546D01*
X31000Y35500D01*
X31046Y35469D01*
X31100Y35459D01*
X31154Y35469D01*
X31182Y35488D01*
X31754D01*
X32021Y35221D01*
X32057Y35196D01*
X32100Y35188D01*
X32100Y35188D01*
X33404D01*
X33438Y35154D01*
Y34282D01*
X33419Y34254D01*
X33409Y34200D01*
X33419Y34146D01*
X33450Y34100D01*
X33496Y34069D01*
X33550Y34059D01*
X33604Y34069D01*
X33650Y34100D01*
X33681Y34146D01*
X33691Y34200D01*
X33681Y34254D01*
X33662Y34282D01*
Y35200D01*
X33654Y35243D01*
X33629Y35279D01*
X33629Y35279D01*
X33529Y35379D01*
X33493Y35404D01*
X33450Y35412D01*
X33450Y35412D01*
X32146D01*
X31879Y35679D01*
X31843Y35704D01*
X31800Y35712D01*
X31800Y35712D01*
X31182D01*
X31154Y35731D01*
X31129Y35736D01*
X31118Y35738D01*
X31123Y35788D01*
X32220D01*
X32227Y35779D01*
D02*
G37*
G36*
X36750Y28000D02*
X36796Y27969D01*
X36850Y27959D01*
X36885Y27966D01*
X36935Y27934D01*
Y26877D01*
X36873Y26815D01*
X34877D01*
X34815Y26877D01*
Y27934D01*
X34865Y27961D01*
X34867Y27959D01*
X34921Y27949D01*
X34975Y27959D01*
X35021Y27990D01*
X35034Y28008D01*
X36744D01*
X36750Y28000D01*
D02*
G37*
%LPC*%
G36*
X45342Y49784D02*
Y49383D01*
X45622D01*
Y49461D01*
X45610Y49546D01*
X45578Y49626D01*
X45525Y49694D01*
X45457Y49746D01*
X45378Y49779D01*
X45342Y49784D01*
D02*
G37*
G36*
X42291Y49784D02*
Y49383D01*
X42570D01*
Y49461D01*
X42559Y49546D01*
X42526Y49626D01*
X42474Y49694D01*
X42406Y49746D01*
X42326Y49779D01*
X42291Y49784D01*
D02*
G37*
G36*
X42191Y49784D02*
X42156Y49779D01*
X42077Y49746D01*
X42009Y49694D01*
X41956Y49626D01*
X41923Y49546D01*
X41912Y49461D01*
Y49383D01*
X42191D01*
Y49784D01*
D02*
G37*
G36*
X45242Y49784D02*
X45207Y49779D01*
X45128Y49746D01*
X45060Y49694D01*
X45007Y49626D01*
X44974Y49546D01*
X44963Y49461D01*
Y49383D01*
X45242D01*
Y49784D01*
D02*
G37*
G36*
X45622Y49283D02*
X45342D01*
Y48883D01*
X45378Y48887D01*
X45457Y48920D01*
X45525Y48973D01*
X45578Y49041D01*
X45610Y49120D01*
X45622Y49205D01*
Y49283D01*
D02*
G37*
G36*
X42191D02*
X41912D01*
Y49205D01*
X41923Y49120D01*
X41956Y49041D01*
X42009Y48973D01*
X42077Y48920D01*
X42156Y48887D01*
X42191Y48883D01*
Y49283D01*
D02*
G37*
G36*
X42570D02*
X42291D01*
Y48883D01*
X42326Y48887D01*
X42406Y48920D01*
X42474Y48973D01*
X42526Y49041D01*
X42559Y49120D01*
X42570Y49205D01*
Y49283D01*
D02*
G37*
G36*
X45242D02*
X44963D01*
Y49205D01*
X44974Y49120D01*
X45007Y49041D01*
X45060Y48973D01*
X45128Y48920D01*
X45207Y48887D01*
X45242Y48883D01*
Y49283D01*
D02*
G37*
G36*
X42783Y48472D02*
X42698Y48455D01*
X42626Y48407D01*
X42578Y48335D01*
X42568Y48289D01*
X42513Y48268D01*
X42495Y48282D01*
X42401Y48321D01*
X42350Y48328D01*
Y47887D01*
X42689D01*
Y47946D01*
X42682Y48001D01*
X42727Y48040D01*
X42783Y48029D01*
X42867Y48046D01*
X42939Y48094D01*
X42987Y48166D01*
X43004Y48251D01*
X42987Y48335D01*
X42939Y48407D01*
X42867Y48455D01*
X42783Y48472D01*
D02*
G37*
G36*
X48150Y49554D02*
X48003Y49539D01*
X47862Y49496D01*
X47731Y49427D01*
X47617Y49333D01*
X47523Y49219D01*
X47454Y49088D01*
X47411Y48947D01*
X47396Y48800D01*
X47411Y48653D01*
X47454Y48512D01*
X47523Y48381D01*
X47617Y48267D01*
X47731Y48173D01*
X47862Y48104D01*
X48003Y48061D01*
X48150Y48046D01*
X48297Y48061D01*
X48438Y48104D01*
X48569Y48173D01*
X48683Y48267D01*
X48777Y48381D01*
X48846Y48512D01*
X48889Y48653D01*
X48904Y48800D01*
X48889Y48947D01*
X48846Y49088D01*
X48777Y49219D01*
X48683Y49333D01*
X48569Y49427D01*
X48438Y49496D01*
X48297Y49539D01*
X48150Y49554D01*
D02*
G37*
G36*
X11200D02*
X11053Y49539D01*
X10912Y49496D01*
X10781Y49427D01*
X10667Y49333D01*
X10573Y49219D01*
X10504Y49088D01*
X10461Y48947D01*
X10446Y48800D01*
X10461Y48653D01*
X10504Y48512D01*
X10573Y48381D01*
X10667Y48267D01*
X10781Y48173D01*
X10912Y48104D01*
X11053Y48061D01*
X11200Y48046D01*
X11347Y48061D01*
X11488Y48104D01*
X11619Y48173D01*
X11733Y48267D01*
X11827Y48381D01*
X11896Y48512D01*
X11939Y48653D01*
X11954Y48800D01*
X11939Y48947D01*
X11896Y49088D01*
X11827Y49219D01*
X11733Y49333D01*
X11619Y49427D01*
X11488Y49496D01*
X11347Y49539D01*
X11200Y49554D01*
D02*
G37*
G36*
X45283Y48328D02*
Y47887D01*
X45622D01*
Y47946D01*
X45609Y48046D01*
X45570Y48140D01*
X45508Y48220D01*
X45428Y48282D01*
X45334Y48321D01*
X45283Y48328D01*
D02*
G37*
G36*
X42250D02*
X42200Y48321D01*
X42106Y48282D01*
X42025Y48220D01*
X41964Y48140D01*
X41925Y48046D01*
X41912Y47946D01*
Y47887D01*
X42250D01*
Y48328D01*
D02*
G37*
G36*
X44751Y48472D02*
X44666Y48455D01*
X44594Y48407D01*
X44546Y48335D01*
X44529Y48251D01*
X44546Y48166D01*
X44594Y48094D01*
X44666Y48046D01*
X44751Y48029D01*
X44807Y48040D01*
X44852Y48001D01*
X44845Y47946D01*
Y47887D01*
X45183D01*
Y48328D01*
X45133Y48321D01*
X45039Y48282D01*
X45020Y48268D01*
X44965Y48289D01*
X44956Y48335D01*
X44908Y48407D01*
X44836Y48455D01*
X44751Y48472D01*
D02*
G37*
G36*
X38007Y48062D02*
X37800D01*
Y47855D01*
X38007D01*
Y48062D01*
D02*
G37*
G36*
X37700D02*
X37493D01*
Y47855D01*
X37700D01*
Y48062D01*
D02*
G37*
G36*
X21450Y49712D02*
X21407Y49704D01*
X21371Y49679D01*
X21346Y49643D01*
X21338Y49600D01*
Y47750D01*
X21346Y47707D01*
X21371Y47671D01*
X21407Y47646D01*
X21450Y47638D01*
X21493Y47646D01*
X21529Y47671D01*
X21554Y47707D01*
X21562Y47750D01*
Y49600D01*
X21554Y49643D01*
X21529Y49679D01*
X21493Y49704D01*
X21450Y49712D01*
D02*
G37*
G36*
X15250Y48150D02*
X14400D01*
Y47600D01*
X15250D01*
Y48150D01*
D02*
G37*
G36*
X14300D02*
X13450D01*
Y47600D01*
X14300D01*
Y48150D01*
D02*
G37*
G36*
X45622Y47787D02*
X45283D01*
Y47347D01*
X45334Y47353D01*
X45428Y47392D01*
X45508Y47454D01*
X45570Y47535D01*
X45609Y47628D01*
X45622Y47729D01*
Y47787D01*
D02*
G37*
G36*
X42250D02*
X41912D01*
Y47729D01*
X41925Y47628D01*
X41964Y47535D01*
X42025Y47454D01*
X42106Y47392D01*
X42200Y47353D01*
X42250Y47347D01*
Y47787D01*
D02*
G37*
G36*
X45183D02*
X44845D01*
Y47729D01*
X44858Y47628D01*
X44897Y47535D01*
X44959Y47454D01*
X45039Y47392D01*
X45133Y47353D01*
X45183Y47347D01*
Y47787D01*
D02*
G37*
G36*
X37397Y48042D02*
X36903D01*
Y47607D01*
X36988D01*
Y47482D01*
X36969Y47454D01*
X36959Y47400D01*
X36969Y47346D01*
X37000Y47300D01*
X37012Y47292D01*
X36997Y47242D01*
X36667D01*
X36663Y47274D01*
X36615Y47390D01*
X36539Y47489D01*
X36440Y47565D01*
X36324Y47613D01*
X36250Y47623D01*
Y47150D01*
Y46677D01*
X36324Y46687D01*
X36440Y46735D01*
X36539Y46811D01*
X36615Y46910D01*
X36663Y47026D01*
X36667Y47058D01*
X38225D01*
Y46675D01*
X38650D01*
Y47150D01*
X38700D01*
D01*
X38650D01*
Y47625D01*
X38225D01*
Y47242D01*
X37842D01*
Y47547D01*
X38007D01*
Y47755D01*
X37750D01*
X37493D01*
Y47547D01*
X37658D01*
Y47242D01*
X37203D01*
X37188Y47292D01*
X37200Y47300D01*
X37231Y47346D01*
X37241Y47400D01*
X37231Y47454D01*
X37212Y47482D01*
Y47607D01*
X37397D01*
Y48042D01*
D02*
G37*
G36*
X39175Y47625D02*
X38750D01*
Y47200D01*
X39175D01*
Y47625D01*
D02*
G37*
G36*
X36150Y47623D02*
X36076Y47613D01*
X35960Y47565D01*
X35861Y47489D01*
X35785Y47390D01*
X35737Y47274D01*
X35727Y47200D01*
X36150D01*
Y47623D01*
D02*
G37*
G36*
X34450Y49100D02*
X32550D01*
X32550Y47000D01*
X34450D01*
X34450Y49100D01*
D02*
G37*
G36*
X15250Y47500D02*
X14400D01*
Y46950D01*
X15250D01*
Y47500D01*
D02*
G37*
G36*
X14300D02*
X13450D01*
Y46950D01*
X14300D01*
Y47500D01*
D02*
G37*
G36*
X36150Y47100D02*
X35727D01*
X35737Y47026D01*
X35785Y46910D01*
X35861Y46811D01*
X35960Y46735D01*
X36076Y46687D01*
X36150Y46677D01*
Y47100D01*
D02*
G37*
G36*
X42689Y47787D02*
X42350D01*
Y47347D01*
X42401Y47353D01*
X42432Y47366D01*
X42685Y47114D01*
X42738Y47078D01*
X42800Y47066D01*
X42879D01*
X42905Y47016D01*
X42902Y47011D01*
X42893Y46968D01*
X42893Y46968D01*
Y46391D01*
X42217D01*
X42217Y46391D01*
X42174Y46383D01*
X42138Y46358D01*
X42138Y46358D01*
X41929Y46150D01*
X41905Y46113D01*
X41896Y46071D01*
X41905Y46028D01*
X41929Y45991D01*
X41965Y45967D01*
X42008Y45958D01*
X42051Y45967D01*
X42088Y45991D01*
X42263Y46167D01*
X42893D01*
Y45938D01*
X42893Y45938D01*
X42902Y45895D01*
X42926Y45858D01*
X42983Y45801D01*
X42983Y45795D01*
X42968Y45751D01*
X42584D01*
X42571Y45760D01*
X42517Y45770D01*
X42463Y45760D01*
X42417Y45729D01*
X42386Y45683D01*
X42375Y45629D01*
X42386Y45575D01*
X42417Y45529D01*
X42463Y45498D01*
X42517Y45488D01*
X42571Y45498D01*
X42614Y45527D01*
X43401D01*
X43420Y45481D01*
X43408Y45468D01*
X43383Y45432D01*
X43375Y45389D01*
X43375Y45389D01*
Y44362D01*
X43383Y44319D01*
X43408Y44283D01*
X43444Y44258D01*
X43487Y44250D01*
X43530Y44258D01*
X43566Y44283D01*
X43591Y44319D01*
X43599Y44362D01*
Y45131D01*
X43649Y45157D01*
X43663Y45148D01*
X43717Y45138D01*
X43771Y45148D01*
X43815Y45178D01*
X44528D01*
X44528Y45178D01*
X44571Y45186D01*
X44607Y45211D01*
X44896Y45500D01*
X44896Y45500D01*
X44920Y45536D01*
X44929Y45579D01*
X44929Y45579D01*
Y46247D01*
X44948Y46275D01*
X44958Y46329D01*
X44948Y46383D01*
X44917Y46429D01*
X44871Y46460D01*
X44817Y46470D01*
X44779Y46463D01*
X44729Y46493D01*
Y46747D01*
X44748Y46775D01*
X44758Y46829D01*
X44748Y46883D01*
X44717Y46929D01*
X44671Y46960D01*
X44617Y46970D01*
X44563Y46960D01*
X44517Y46929D01*
X44486Y46883D01*
X44475Y46829D01*
X44486Y46775D01*
X44505Y46747D01*
Y46111D01*
X44486Y46083D01*
X44475Y46029D01*
X44483Y45992D01*
X44465Y45976D01*
X44438Y45964D01*
X44410Y45983D01*
X44367Y45991D01*
X44367Y45991D01*
X43118D01*
Y46279D01*
Y46921D01*
X43262Y47066D01*
X43267D01*
X43329Y47078D01*
X43382Y47114D01*
X43418Y47167D01*
X43430Y47229D01*
X43418Y47291D01*
X43382Y47344D01*
X43329Y47380D01*
X43267Y47392D01*
X42868D01*
X42663Y47597D01*
X42676Y47628D01*
X42689Y47729D01*
Y47787D01*
D02*
G37*
G36*
X12950Y46950D02*
X12400D01*
Y46100D01*
X12950D01*
Y46950D01*
D02*
G37*
G36*
X12300D02*
X11750D01*
Y46100D01*
X12300D01*
Y46950D01*
D02*
G37*
G36*
X27900Y48450D02*
X25600D01*
Y45950D01*
X27900D01*
Y48450D01*
D02*
G37*
G36*
X12950Y46000D02*
X12400D01*
Y45150D01*
X12950D01*
Y46000D01*
D02*
G37*
G36*
X12300D02*
X11750D01*
Y45150D01*
X12300D01*
Y46000D01*
D02*
G37*
G36*
X42517Y44970D02*
X42463Y44960D01*
X42417Y44929D01*
X42386Y44883D01*
X42375Y44829D01*
X42386Y44775D01*
X42417Y44729D01*
X42463Y44698D01*
X42472Y44696D01*
X42477Y44682D01*
X42442Y44632D01*
X40862D01*
X40821Y44660D01*
X40767Y44670D01*
X40713Y44660D01*
X40667Y44629D01*
X40636Y44583D01*
X40625Y44529D01*
X40636Y44475D01*
X40667Y44429D01*
X40713Y44398D01*
X40767Y44388D01*
X40821Y44398D01*
X40836Y44408D01*
X42472D01*
X42513Y44381D01*
X42567Y44370D01*
X42621Y44381D01*
X42655Y44403D01*
X42696Y44388D01*
X42705Y44381D01*
Y43575D01*
X42545Y43416D01*
X42513Y43410D01*
X42467Y43379D01*
X42436Y43333D01*
X42425Y43279D01*
X42436Y43225D01*
X42467Y43179D01*
X42513Y43148D01*
X42567Y43138D01*
X42621Y43148D01*
X42667Y43179D01*
X42698Y43225D01*
X42704Y43258D01*
X42896Y43450D01*
X42896Y43450D01*
X42920Y43486D01*
X42929Y43529D01*
Y44529D01*
X42929Y44529D01*
X42920Y44572D01*
X42896Y44608D01*
X42654Y44850D01*
X42648Y44883D01*
X42617Y44929D01*
X42571Y44960D01*
X42517Y44970D01*
D02*
G37*
G36*
X15210Y45610D02*
X13490D01*
Y44490D01*
X15210D01*
Y45610D01*
D02*
G37*
G36*
X38057Y44493D02*
X37850D01*
Y44285D01*
X38057D01*
Y44493D01*
D02*
G37*
G36*
X37750D02*
X37543D01*
Y44285D01*
X37750D01*
Y44493D01*
D02*
G37*
G36*
X46917Y45370D02*
X46863Y45360D01*
X46817Y45329D01*
X46786Y45283D01*
X46775Y45229D01*
X46786Y45175D01*
X46805Y45147D01*
Y43911D01*
X46786Y43883D01*
X46775Y43829D01*
X46786Y43775D01*
X46817Y43729D01*
X46863Y43698D01*
X46917Y43688D01*
X46971Y43698D01*
X47017Y43729D01*
X47048Y43775D01*
X47058Y43829D01*
X47048Y43883D01*
X47029Y43911D01*
Y45147D01*
X47048Y45175D01*
X47058Y45229D01*
X47048Y45283D01*
X47017Y45329D01*
X46971Y45360D01*
X46917Y45370D01*
D02*
G37*
G36*
X37397Y44492D02*
X36903D01*
Y44057D01*
X36988D01*
Y43832D01*
X36969Y43804D01*
X36959Y43750D01*
X36969Y43696D01*
X36972Y43692D01*
X36945Y43642D01*
X36667D01*
X36663Y43674D01*
X36615Y43790D01*
X36539Y43889D01*
X36440Y43965D01*
X36324Y44013D01*
X36250Y44023D01*
Y43550D01*
Y43077D01*
X36324Y43087D01*
X36440Y43135D01*
X36539Y43211D01*
X36615Y43310D01*
X36663Y43426D01*
X36667Y43458D01*
X38225D01*
Y43075D01*
X38650D01*
Y43550D01*
Y44025D01*
X38225D01*
Y43642D01*
X37892D01*
Y43978D01*
X38057D01*
Y44185D01*
X37800D01*
X37543D01*
Y43978D01*
X37708D01*
Y43642D01*
X37255D01*
X37228Y43692D01*
X37231Y43696D01*
X37241Y43750D01*
X37231Y43804D01*
X37212Y43832D01*
Y44057D01*
X37397D01*
Y44492D01*
D02*
G37*
G36*
X39175Y47100D02*
X38750D01*
Y46675D01*
X39016D01*
X39288Y46404D01*
Y44296D01*
X39016Y44025D01*
X38750D01*
Y43600D01*
X39175D01*
Y43866D01*
X39479Y44171D01*
X39479Y44171D01*
X39504Y44207D01*
X39512Y44250D01*
Y46450D01*
X39504Y46493D01*
X39479Y46529D01*
X39479Y46529D01*
X39175Y46834D01*
Y47100D01*
D02*
G37*
G36*
X36150Y44023D02*
X36076Y44013D01*
X35960Y43965D01*
X35861Y43889D01*
X35785Y43790D01*
X35737Y43674D01*
X35727Y43600D01*
X36150D01*
Y44023D01*
D02*
G37*
G36*
X45992Y45468D02*
X45938Y45457D01*
X45892Y45426D01*
X45861Y45380D01*
X45851Y45326D01*
X45861Y45272D01*
X45883Y45240D01*
Y43822D01*
X45864Y43794D01*
X45854Y43740D01*
X45864Y43686D01*
X45895Y43640D01*
X45941Y43609D01*
X45995Y43598D01*
X46049Y43609D01*
X46095Y43640D01*
X46126Y43686D01*
X46137Y43740D01*
X46126Y43794D01*
X46107Y43822D01*
Y45249D01*
X46123Y45272D01*
X46134Y45326D01*
X46123Y45380D01*
X46092Y45426D01*
X46046Y45457D01*
X45992Y45468D01*
D02*
G37*
G36*
X46467Y45020D02*
X46413Y45010D01*
X46367Y44979D01*
X46336Y44933D01*
X46325Y44879D01*
X46336Y44825D01*
X46355Y44797D01*
Y43411D01*
X46336Y43383D01*
X46325Y43329D01*
X46336Y43275D01*
X46367Y43229D01*
X46413Y43198D01*
X46467Y43188D01*
X46521Y43198D01*
X46567Y43229D01*
X46598Y43275D01*
X46608Y43329D01*
X46598Y43383D01*
X46579Y43411D01*
Y44797D01*
X46598Y44825D01*
X46608Y44879D01*
X46598Y44933D01*
X46567Y44979D01*
X46521Y45010D01*
X46467Y45020D01*
D02*
G37*
G36*
X36150Y43500D02*
X35727D01*
X35737Y43426D01*
X35785Y43310D01*
X35861Y43211D01*
X35960Y43135D01*
X36076Y43087D01*
X36150Y43077D01*
Y43500D01*
D02*
G37*
G36*
X39175D02*
X38750D01*
Y43075D01*
X39175D01*
Y43500D01*
D02*
G37*
G36*
X17800Y48064D02*
X17718Y48048D01*
X17649Y48001D01*
X17602Y47932D01*
X17586Y47850D01*
Y45873D01*
X15278Y43565D01*
X15245Y43515D01*
X14693D01*
Y42785D01*
X15640D01*
Y43284D01*
X15644Y43305D01*
Y43325D01*
X17951Y45632D01*
X17998Y45702D01*
X18014Y45784D01*
Y47850D01*
X17998Y47932D01*
X17951Y48001D01*
X17882Y48048D01*
X17800Y48064D01*
D02*
G37*
G36*
X10800Y43838D02*
X10700Y43825D01*
X10606Y43786D01*
X10526Y43724D01*
X10464Y43644D01*
X10425Y43550D01*
X10412Y43450D01*
X10425Y43350D01*
X10464Y43256D01*
X10526Y43176D01*
X10606Y43114D01*
X10700Y43075D01*
X10800Y43062D01*
X10900Y43075D01*
X10994Y43114D01*
X11074Y43176D01*
X11121Y43236D01*
X11415D01*
Y43065D01*
X12185D01*
Y43236D01*
X12937D01*
X12960Y43212D01*
Y42785D01*
X13907D01*
Y43515D01*
X13263D01*
X13177Y43601D01*
X13108Y43648D01*
X13026Y43664D01*
X12185D01*
Y43835D01*
X11415D01*
Y43664D01*
X11121D01*
X11074Y43724D01*
X10994Y43786D01*
X10900Y43825D01*
X10800Y43838D01*
D02*
G37*
G36*
X11800Y42838D02*
X11700Y42825D01*
X11606Y42786D01*
X11526Y42724D01*
X11479Y42664D01*
X11121D01*
X11074Y42724D01*
X10994Y42786D01*
X10900Y42825D01*
X10800Y42838D01*
X10700Y42825D01*
X10606Y42786D01*
X10526Y42724D01*
X10464Y42644D01*
X10425Y42550D01*
X10412Y42450D01*
X10425Y42350D01*
X10464Y42256D01*
X10526Y42176D01*
X10606Y42114D01*
X10700Y42075D01*
X10800Y42062D01*
X10900Y42075D01*
X10994Y42114D01*
X11074Y42176D01*
X11121Y42236D01*
X11479D01*
X11526Y42176D01*
X11606Y42114D01*
X11700Y42075D01*
X11800Y42062D01*
X11875Y42072D01*
X12893Y41054D01*
X12963Y41007D01*
X13010Y40998D01*
Y40685D01*
X13957D01*
Y41415D01*
X13349D01*
X13329Y41419D01*
X13134D01*
X12178Y42375D01*
X12188Y42450D01*
X12175Y42550D01*
X12136Y42644D01*
X12074Y42724D01*
X11994Y42786D01*
X11900Y42825D01*
X11800Y42838D01*
D02*
G37*
G36*
X11850Y41872D02*
Y41500D01*
X12222D01*
X12214Y41561D01*
X12171Y41664D01*
X12103Y41753D01*
X12014Y41821D01*
X11911Y41864D01*
X11850Y41872D01*
D02*
G37*
G36*
X10850D02*
Y41500D01*
X11222D01*
X11214Y41561D01*
X11171Y41664D01*
X11103Y41753D01*
X11014Y41821D01*
X10911Y41864D01*
X10850Y41872D01*
D02*
G37*
G36*
X11750D02*
X11689Y41864D01*
X11586Y41821D01*
X11497Y41753D01*
X11429Y41664D01*
X11386Y41561D01*
X11378Y41500D01*
X11750D01*
Y41872D01*
D02*
G37*
G36*
X10750D02*
X10689Y41864D01*
X10586Y41821D01*
X10497Y41753D01*
X10429Y41664D01*
X10386Y41561D01*
X10378Y41500D01*
X10750D01*
Y41872D01*
D02*
G37*
G36*
X48089Y41889D02*
X47379D01*
Y41179D01*
X48089D01*
Y41889D01*
D02*
G37*
G36*
X12222Y41400D02*
X11850D01*
Y41028D01*
X11911Y41036D01*
X12014Y41079D01*
X12103Y41147D01*
X12171Y41236D01*
X12214Y41339D01*
X12222Y41400D01*
D02*
G37*
G36*
X11222D02*
X10850D01*
Y41028D01*
X10911Y41036D01*
X11014Y41079D01*
X11103Y41147D01*
X11171Y41236D01*
X11214Y41339D01*
X11222Y41400D01*
D02*
G37*
G36*
X11750D02*
X11378D01*
X11386Y41339D01*
X11429Y41236D01*
X11497Y41147D01*
X11586Y41079D01*
X11689Y41036D01*
X11750Y41028D01*
Y41400D01*
D02*
G37*
G36*
X10750D02*
X10378D01*
X10386Y41339D01*
X10429Y41236D01*
X10497Y41147D01*
X10586Y41079D01*
X10689Y41036D01*
X10750Y41028D01*
Y41400D01*
D02*
G37*
G36*
X11850Y40872D02*
Y40500D01*
X12222D01*
X12214Y40561D01*
X12171Y40664D01*
X12103Y40753D01*
X12014Y40821D01*
X11911Y40864D01*
X11850Y40872D01*
D02*
G37*
G36*
X10850D02*
Y40500D01*
X11222D01*
X11214Y40561D01*
X11171Y40664D01*
X11103Y40753D01*
X11014Y40821D01*
X10911Y40864D01*
X10850Y40872D01*
D02*
G37*
G36*
X11750D02*
X11689Y40864D01*
X11586Y40821D01*
X11497Y40753D01*
X11429Y40664D01*
X11386Y40561D01*
X11378Y40500D01*
X11750D01*
Y40872D01*
D02*
G37*
G36*
X10750D02*
X10689Y40864D01*
X10586Y40821D01*
X10497Y40753D01*
X10429Y40664D01*
X10386Y40561D01*
X10378Y40500D01*
X10750D01*
Y40872D01*
D02*
G37*
G36*
X47734Y40892D02*
X47641Y40880D01*
X47555Y40844D01*
X47481Y40788D01*
X47424Y40713D01*
X47388Y40627D01*
X47376Y40534D01*
X47388Y40441D01*
X47424Y40355D01*
X47481Y40281D01*
X47555Y40224D01*
X47641Y40188D01*
X47734Y40176D01*
X47827Y40188D01*
X47913Y40224D01*
X47988Y40281D01*
X48044Y40355D01*
X48080Y40441D01*
X48092Y40534D01*
X48080Y40627D01*
X48044Y40713D01*
X47988Y40788D01*
X47913Y40844D01*
X47827Y40880D01*
X47734Y40892D01*
D02*
G37*
G36*
X12222Y40400D02*
X11850D01*
Y40028D01*
X11911Y40036D01*
X12014Y40079D01*
X12103Y40147D01*
X12171Y40236D01*
X12214Y40339D01*
X12222Y40400D01*
D02*
G37*
G36*
X11222D02*
X10850D01*
Y40028D01*
X10911Y40036D01*
X11014Y40079D01*
X11103Y40147D01*
X11171Y40236D01*
X11214Y40339D01*
X11222Y40400D01*
D02*
G37*
G36*
X11750D02*
X11378D01*
X11386Y40339D01*
X11429Y40236D01*
X11497Y40147D01*
X11586Y40079D01*
X11689Y40036D01*
X11750Y40028D01*
Y40400D01*
D02*
G37*
G36*
X10750D02*
X10378D01*
X10386Y40339D01*
X10429Y40236D01*
X10497Y40147D01*
X10586Y40079D01*
X10689Y40036D01*
X10750Y40028D01*
Y40400D01*
D02*
G37*
G36*
X18550Y48091D02*
X18496Y48081D01*
X18450Y48050D01*
X18419Y48004D01*
X18409Y47950D01*
X18419Y47896D01*
X18438Y47868D01*
Y41565D01*
X14850D01*
X14804Y41546D01*
X14604Y41346D01*
X14585Y41300D01*
Y38577D01*
X14373Y38365D01*
X13800D01*
X13754Y38346D01*
X12904Y37496D01*
X12885Y37450D01*
Y27077D01*
X12854Y27046D01*
X12835Y27000D01*
X12854Y26954D01*
X13404Y26404D01*
X13450Y26385D01*
X19250D01*
X19296Y26404D01*
X19342Y26450D01*
X19388Y26431D01*
Y26146D01*
X19204Y25962D01*
X11650D01*
X11650Y25962D01*
X11607Y25954D01*
X11571Y25929D01*
X11571Y25929D01*
X10982Y25341D01*
X10900Y25375D01*
X10800Y25388D01*
X10700Y25375D01*
X10606Y25336D01*
X10526Y25274D01*
X10464Y25194D01*
X10425Y25100D01*
X10412Y25000D01*
X10425Y24900D01*
X10464Y24806D01*
X10526Y24726D01*
X10606Y24664D01*
X10700Y24625D01*
X10792Y24613D01*
X10806Y24591D01*
X10813Y24563D01*
X10771Y24521D01*
X10746Y24484D01*
X10738Y24441D01*
X10738Y24441D01*
Y24385D01*
X10415D01*
Y23615D01*
X11185D01*
Y24385D01*
X11234Y24388D01*
X11525D01*
X11542Y24338D01*
X11497Y24303D01*
X11429Y24214D01*
X11386Y24111D01*
X11378Y24050D01*
X11800D01*
X12222D01*
X12214Y24111D01*
X12171Y24214D01*
X12103Y24303D01*
X12058Y24338D01*
X12075Y24388D01*
X18300D01*
X18300Y24388D01*
X18343Y24396D01*
X18379Y24421D01*
X20121Y26163D01*
X20154Y26169D01*
X20200Y26200D01*
X20231Y26246D01*
X20241Y26300D01*
X20231Y26354D01*
X20200Y26400D01*
X20154Y26431D01*
X20100Y26441D01*
X20046Y26431D01*
X20000Y26400D01*
X19969Y26354D01*
X19963Y26321D01*
X18254Y24612D01*
X12075D01*
X12058Y24662D01*
X12103Y24697D01*
X12171Y24786D01*
X12214Y24889D01*
X12222Y24950D01*
X11800D01*
X11378D01*
X11386Y24889D01*
X11429Y24786D01*
X11497Y24697D01*
X11542Y24662D01*
X11525Y24612D01*
X11000D01*
X10990Y24662D01*
X10994Y24664D01*
X11074Y24726D01*
X11136Y24806D01*
X11175Y24900D01*
X11188Y25000D01*
X11175Y25100D01*
X11141Y25182D01*
X11696Y25738D01*
X19250D01*
X19250Y25738D01*
X19293Y25746D01*
X19329Y25771D01*
X19579Y26021D01*
X19579Y26021D01*
X19604Y26057D01*
X19612Y26100D01*
Y27218D01*
X19631Y27246D01*
X19641Y27300D01*
X19631Y27354D01*
X19600Y27400D01*
X19554Y27431D01*
X19500Y27441D01*
X19446Y27431D01*
X19400Y27400D01*
X19369Y27354D01*
X19359Y27300D01*
X19369Y27246D01*
X19388Y27218D01*
Y27169D01*
X19342Y27150D01*
X19296Y27196D01*
X19250Y27215D01*
X14577D01*
X13965Y27827D01*
Y36856D01*
X14494Y37385D01*
X15650D01*
X15696Y37404D01*
X15896Y37604D01*
X15915Y37650D01*
Y40173D01*
X16077Y40335D01*
X31623D01*
X31835Y40123D01*
Y39950D01*
X31854Y39904D01*
X31900Y39885D01*
X32650D01*
X32696Y39904D01*
X32715Y39950D01*
Y40850D01*
X32696Y40896D01*
X32046Y41546D01*
X32000Y41565D01*
X18662Y41565D01*
Y47868D01*
X18681Y47896D01*
X18691Y47950D01*
X18681Y48004D01*
X18650Y48050D01*
X18604Y48081D01*
X18550Y48091D01*
D02*
G37*
G36*
X43448Y40920D02*
X43394Y40909D01*
X43348Y40878D01*
X43318Y40832D01*
X43307Y40778D01*
X43318Y40724D01*
X43340Y40690D01*
Y39116D01*
X43322Y39088D01*
X43311Y39034D01*
X43322Y38980D01*
X43352Y38934D01*
X43398Y38903D01*
X43452Y38893D01*
X43506Y38903D01*
X43552Y38934D01*
X43583Y38980D01*
X43594Y39034D01*
X43583Y39088D01*
X43564Y39116D01*
Y40702D01*
X43579Y40724D01*
X43590Y40778D01*
X43579Y40832D01*
X43548Y40878D01*
X43502Y40909D01*
X43448Y40920D01*
D02*
G37*
G36*
X48089Y39489D02*
X47379D01*
Y38779D01*
X48089D01*
Y39489D01*
D02*
G37*
G36*
X44652Y41376D02*
X44617Y41369D01*
X44587Y41349D01*
X44567Y41319D01*
X44560Y41284D01*
Y38734D01*
X44567Y38699D01*
X44587Y38669D01*
X44617Y38649D01*
X44652Y38642D01*
X44687Y38649D01*
X44717Y38669D01*
X45217Y39169D01*
X45237Y39199D01*
X45244Y39234D01*
Y39934D01*
X45237Y39969D01*
X45217Y39999D01*
X45187Y40019D01*
X45152Y40026D01*
X45117Y40019D01*
X45087Y39999D01*
X45067Y39969D01*
X45060Y39934D01*
Y39272D01*
X44790Y39002D01*
X44744Y39021D01*
Y41284D01*
X44737Y41319D01*
X44717Y41349D01*
X44687Y41369D01*
X44652Y41376D01*
D02*
G37*
G36*
X12035Y39285D02*
X11265D01*
Y38515D01*
X12035D01*
Y39285D01*
D02*
G37*
G36*
X28700Y37850D02*
X28646Y37839D01*
X28612Y37817D01*
X26375D01*
X26354Y37831D01*
X26300Y37841D01*
X26246Y37831D01*
X26200Y37800D01*
X26169Y37754D01*
X26159Y37700D01*
X26169Y37646D01*
X26200Y37600D01*
X26246Y37569D01*
X26300Y37559D01*
X26354Y37569D01*
X26388Y37592D01*
X28625D01*
X28646Y37578D01*
X28700Y37567D01*
X28754Y37578D01*
X28800Y37609D01*
X28831Y37655D01*
X28841Y37709D01*
X28831Y37763D01*
X28800Y37809D01*
X28754Y37839D01*
X28700Y37850D01*
D02*
G37*
G36*
X47734Y38492D02*
X47641Y38480D01*
X47555Y38444D01*
X47481Y38387D01*
X47424Y38313D01*
X47388Y38227D01*
X47376Y38134D01*
X47388Y38041D01*
X47424Y37955D01*
X47481Y37881D01*
X47555Y37824D01*
X47641Y37788D01*
X47734Y37776D01*
X47827Y37788D01*
X47913Y37824D01*
X47988Y37881D01*
X48044Y37955D01*
X48080Y38041D01*
X48092Y38134D01*
X48080Y38227D01*
X48044Y38313D01*
X47988Y38387D01*
X47913Y38444D01*
X47827Y38480D01*
X47734Y38492D01*
D02*
G37*
G36*
X24250Y40262D02*
X16550D01*
X16507Y40254D01*
X16471Y40229D01*
X16446Y40193D01*
X16438Y40150D01*
Y37700D01*
X16446Y37657D01*
X16471Y37621D01*
X16507Y37596D01*
X16550Y37588D01*
X24250D01*
X24293Y37596D01*
X24329Y37621D01*
X24354Y37657D01*
X24362Y37700D01*
Y40150D01*
X24354Y40193D01*
X24329Y40229D01*
X24293Y40254D01*
X24250Y40262D01*
D02*
G37*
G36*
X26050Y37262D02*
X26050Y37262D01*
X23700D01*
X23700Y37262D01*
X23657Y37254D01*
X23621Y37229D01*
X23621Y37229D01*
X23021Y36629D01*
X22996Y36593D01*
X22988Y36550D01*
X22996Y36507D01*
X23021Y36471D01*
X23057Y36446D01*
X23100Y36438D01*
X23143Y36446D01*
X23179Y36471D01*
X23746Y37038D01*
X26004D01*
X26138Y36904D01*
Y36600D01*
X26146Y36557D01*
X26171Y36521D01*
X26207Y36496D01*
X26250Y36488D01*
X26293Y36496D01*
X26329Y36521D01*
X26354Y36557D01*
X26362Y36600D01*
Y36950D01*
X26362Y36950D01*
X26354Y36993D01*
X26329Y37029D01*
X26329Y37029D01*
X26129Y37229D01*
X26093Y37254D01*
X26050Y37262D01*
D02*
G37*
G36*
X11650Y37910D02*
X11550Y37897D01*
X11456Y37858D01*
X11376Y37796D01*
X11314Y37716D01*
X11275Y37622D01*
X11262Y37522D01*
X11275Y37422D01*
X11314Y37328D01*
X11376Y37248D01*
X11456Y37186D01*
X11550Y37147D01*
X11650Y37134D01*
X11750Y37147D01*
X11844Y37186D01*
X11924Y37248D01*
X11986Y37328D01*
X12025Y37422D01*
X12038Y37522D01*
X12025Y37622D01*
X11986Y37716D01*
X11924Y37796D01*
X11844Y37858D01*
X11750Y37897D01*
X11650Y37910D01*
D02*
G37*
G36*
Y36532D02*
X11550Y36519D01*
X11456Y36480D01*
X11376Y36419D01*
X11314Y36338D01*
X11275Y36245D01*
X11262Y36144D01*
X11275Y36044D01*
X11314Y35950D01*
X11376Y35870D01*
X11456Y35808D01*
X11550Y35769D01*
X11650Y35756D01*
X11750Y35769D01*
X11844Y35808D01*
X11924Y35870D01*
X11986Y35950D01*
X12025Y36044D01*
X12038Y36144D01*
X12025Y36245D01*
X11986Y36338D01*
X11924Y36419D01*
X11844Y36480D01*
X11750Y36519D01*
X11650Y36532D01*
D02*
G37*
G36*
Y35154D02*
X11550Y35141D01*
X11456Y35102D01*
X11376Y35041D01*
X11314Y34960D01*
X11275Y34867D01*
X11262Y34766D01*
X11275Y34666D01*
X11314Y34572D01*
X11376Y34492D01*
X11456Y34430D01*
X11550Y34391D01*
X11650Y34378D01*
X11750Y34391D01*
X11844Y34430D01*
X11924Y34492D01*
X11986Y34572D01*
X12025Y34666D01*
X12038Y34766D01*
X12025Y34867D01*
X11986Y34960D01*
X11924Y35041D01*
X11844Y35102D01*
X11750Y35141D01*
X11650Y35154D01*
D02*
G37*
G36*
Y33776D02*
X11550Y33763D01*
X11456Y33724D01*
X11376Y33663D01*
X11314Y33582D01*
X11275Y33489D01*
X11262Y33388D01*
X11275Y33288D01*
X11314Y33194D01*
X11376Y33114D01*
X11456Y33052D01*
X11550Y33013D01*
X11650Y33000D01*
X11750Y33013D01*
X11844Y33052D01*
X11924Y33114D01*
X11986Y33194D01*
X12025Y33288D01*
X12038Y33388D01*
X12025Y33489D01*
X11986Y33582D01*
X11924Y33663D01*
X11844Y33724D01*
X11750Y33763D01*
X11650Y33776D01*
D02*
G37*
G36*
X31550Y32791D02*
X31496Y32781D01*
X31450Y32750D01*
X31444Y32742D01*
X28400D01*
X28365Y32735D01*
X28335Y32715D01*
X24660Y29040D01*
X24650Y29041D01*
X24596Y29031D01*
X24550Y29000D01*
X24519Y28954D01*
X24509Y28900D01*
X24519Y28846D01*
X24550Y28800D01*
X24596Y28769D01*
X24650Y28759D01*
X24704Y28769D01*
X24750Y28800D01*
X24781Y28846D01*
X24791Y28900D01*
X24790Y28910D01*
X28438Y32558D01*
X31444D01*
X31450Y32550D01*
X31496Y32519D01*
X31550Y32509D01*
X31604Y32519D01*
X31650Y32550D01*
X31681Y32596D01*
X31691Y32650D01*
X31681Y32704D01*
X31650Y32750D01*
X31604Y32781D01*
X31550Y32791D01*
D02*
G37*
G36*
X11650Y32398D02*
X11550Y32385D01*
X11456Y32346D01*
X11376Y32285D01*
X11314Y32204D01*
X11275Y32111D01*
X11262Y32010D01*
X11275Y31910D01*
X11314Y31816D01*
X11376Y31736D01*
X11456Y31674D01*
X11550Y31635D01*
X11650Y31622D01*
X11750Y31635D01*
X11844Y31674D01*
X11924Y31736D01*
X11986Y31816D01*
X12025Y31910D01*
X12038Y32010D01*
X12025Y32111D01*
X11986Y32204D01*
X11924Y32285D01*
X11844Y32346D01*
X11750Y32385D01*
X11650Y32398D01*
D02*
G37*
G36*
X32350Y31241D02*
X32296Y31231D01*
X32250Y31200D01*
X32244Y31192D01*
X28550D01*
X28515Y31185D01*
X28485Y31165D01*
X27310Y29990D01*
X27300Y29991D01*
X27246Y29981D01*
X27200Y29950D01*
X27169Y29904D01*
X27159Y29850D01*
X27169Y29796D01*
X27200Y29750D01*
X27246Y29719D01*
X27300Y29709D01*
X27354Y29719D01*
X27400Y29750D01*
X27431Y29796D01*
X27441Y29850D01*
X27440Y29860D01*
X28588Y31008D01*
X32244D01*
X32250Y31000D01*
X32296Y30969D01*
X32350Y30959D01*
X32404Y30969D01*
X32450Y31000D01*
X32481Y31046D01*
X32491Y31100D01*
X32481Y31154D01*
X32450Y31200D01*
X32404Y31231D01*
X32350Y31241D01*
D02*
G37*
G36*
X11650Y31020D02*
X11550Y31007D01*
X11456Y30968D01*
X11376Y30907D01*
X11314Y30826D01*
X11275Y30733D01*
X11262Y30632D01*
X11275Y30532D01*
X11314Y30438D01*
X11376Y30358D01*
X11456Y30296D01*
X11550Y30257D01*
X11650Y30244D01*
X11750Y30257D01*
X11844Y30296D01*
X11924Y30358D01*
X11986Y30438D01*
X12025Y30532D01*
X12038Y30632D01*
X12025Y30733D01*
X11986Y30826D01*
X11924Y30907D01*
X11844Y30968D01*
X11750Y31007D01*
X11650Y31020D01*
D02*
G37*
G36*
X31250Y29691D02*
X31196Y29681D01*
X31150Y29650D01*
X31144Y29642D01*
X30450D01*
X30415Y29635D01*
X30385Y29615D01*
X29635Y28865D01*
X29615Y28835D01*
X29608Y28800D01*
Y23956D01*
X29600Y23950D01*
X29569Y23904D01*
X29559Y23850D01*
X29569Y23796D01*
X29600Y23750D01*
X29646Y23719D01*
X29700Y23709D01*
X29754Y23719D01*
X29800Y23750D01*
X29831Y23796D01*
X29841Y23850D01*
X29831Y23904D01*
X29800Y23950D01*
X29792Y23956D01*
Y28762D01*
X30488Y29458D01*
X31144D01*
X31150Y29450D01*
X31196Y29419D01*
X31250Y29409D01*
X31304Y29419D01*
X31350Y29450D01*
X31381Y29496D01*
X31391Y29550D01*
X31381Y29604D01*
X31350Y29650D01*
X31304Y29681D01*
X31250Y29691D01*
D02*
G37*
G36*
X11650Y29642D02*
X11550Y29629D01*
X11456Y29590D01*
X11376Y29529D01*
X11314Y29448D01*
X11275Y29355D01*
X11262Y29254D01*
X11275Y29154D01*
X11314Y29060D01*
X11376Y28980D01*
X11456Y28918D01*
X11550Y28879D01*
X11650Y28866D01*
X11750Y28879D01*
X11844Y28918D01*
X11924Y28980D01*
X11986Y29060D01*
X12025Y29154D01*
X12038Y29254D01*
X12025Y29355D01*
X11986Y29448D01*
X11924Y29529D01*
X11844Y29590D01*
X11750Y29629D01*
X11650Y29642D01*
D02*
G37*
G36*
Y28265D02*
X11550Y28251D01*
X11456Y28212D01*
X11376Y28151D01*
X11314Y28070D01*
X11275Y27977D01*
X11262Y27876D01*
X11275Y27776D01*
X11314Y27682D01*
X11376Y27602D01*
X11456Y27540D01*
X11550Y27501D01*
X11650Y27488D01*
X11750Y27501D01*
X11844Y27540D01*
X11924Y27602D01*
X11986Y27682D01*
X12025Y27776D01*
X12038Y27876D01*
X12025Y27977D01*
X11986Y28070D01*
X11924Y28151D01*
X11844Y28212D01*
X11750Y28251D01*
X11650Y28265D01*
D02*
G37*
G36*
X33350Y27850D02*
X33200D01*
X32950Y27550D01*
X32950Y27400D01*
X33100D01*
X33350Y27700D01*
X33350Y27850D01*
D02*
G37*
G36*
X26750Y30562D02*
X26707Y30554D01*
X26671Y30529D01*
X26646Y30493D01*
X26638Y30450D01*
Y27946D01*
X26104Y27412D01*
X23050D01*
X23007Y27404D01*
X22971Y27379D01*
X22946Y27343D01*
X22938Y27300D01*
X22946Y27257D01*
X22971Y27221D01*
X23007Y27196D01*
X23050Y27188D01*
X26150D01*
X26150Y27188D01*
X26193Y27196D01*
X26229Y27221D01*
X26829Y27821D01*
X26829Y27821D01*
X26854Y27857D01*
X26862Y27900D01*
X26862Y27900D01*
Y30450D01*
X26854Y30493D01*
X26829Y30529D01*
X26793Y30554D01*
X26750Y30562D01*
D02*
G37*
G36*
X11650Y26887D02*
X11550Y26873D01*
X11456Y26835D01*
X11376Y26773D01*
X11314Y26692D01*
X11275Y26599D01*
X11262Y26498D01*
X11275Y26398D01*
X11314Y26304D01*
X11376Y26224D01*
X11456Y26162D01*
X11550Y26124D01*
X11650Y26110D01*
X11750Y26124D01*
X11844Y26162D01*
X11924Y26224D01*
X11986Y26304D01*
X12025Y26398D01*
X12038Y26498D01*
X12025Y26599D01*
X11986Y26692D01*
X11924Y26773D01*
X11844Y26835D01*
X11750Y26873D01*
X11650Y26887D01*
D02*
G37*
G36*
X32600Y26850D02*
X32550D01*
Y25650D01*
X32550Y25650D01*
X32550Y25650D01*
X32635Y25565D01*
X34027Y24173D01*
X34050Y24129D01*
X34050Y24083D01*
X34050Y22417D01*
X34050Y22371D01*
X34027Y22327D01*
X34023Y22323D01*
X33979Y22300D01*
X33933Y22300D01*
X31421Y22300D01*
X31421Y22300D01*
X31421D01*
D01*
X31400Y22300D01*
X31173Y22527D01*
X31150Y22571D01*
X31150Y22617D01*
X31150Y24729D01*
X31150Y24729D01*
X31150D01*
X31173Y24773D01*
X31875Y25475D01*
X31950Y25550D01*
X31950Y25550D01*
X31950Y25550D01*
X31950D01*
X31950Y25550D01*
X31950Y25550D01*
X31950Y26850D01*
X31900D01*
Y25617D01*
X31900Y25571D01*
X31877Y25527D01*
X31175Y24825D01*
X31142Y24792D01*
X31100Y24750D01*
X31100D01*
X31100Y24750D01*
X31100Y24750D01*
Y22550D01*
X31100Y22550D01*
X31100Y22550D01*
X31400Y22250D01*
Y22250D01*
X31400Y22250D01*
X31400Y22250D01*
X34000D01*
X34000Y22250D01*
X34000D01*
X34100Y22350D01*
X34100Y22350D01*
X34100Y22396D01*
Y24150D01*
X34100Y24150D01*
X34100Y24150D01*
X34015Y24235D01*
X32623Y25627D01*
X32600Y25671D01*
X32600Y25717D01*
Y26850D01*
D02*
G37*
G36*
X11850Y25422D02*
Y25050D01*
X12222D01*
X12214Y25111D01*
X12171Y25214D01*
X12103Y25303D01*
X12014Y25371D01*
X11911Y25414D01*
X11850Y25422D01*
D02*
G37*
G36*
X11750D02*
X11689Y25414D01*
X11586Y25371D01*
X11497Y25303D01*
X11429Y25214D01*
X11386Y25111D01*
X11378Y25050D01*
X11750D01*
Y25422D01*
D02*
G37*
G36*
X12222Y23950D02*
X11850D01*
Y23578D01*
X11911Y23586D01*
X12014Y23629D01*
X12103Y23697D01*
X12171Y23786D01*
X12214Y23889D01*
X12222Y23950D01*
D02*
G37*
G36*
X11750D02*
X11378D01*
X11386Y23889D01*
X11429Y23786D01*
X11497Y23697D01*
X11586Y23629D01*
X11689Y23586D01*
X11750Y23578D01*
Y23950D01*
D02*
G37*
G36*
X15951Y23785D02*
X15181D01*
Y23015D01*
X15951D01*
Y23785D01*
D02*
G37*
G36*
X27968Y23788D02*
X27867Y23775D01*
X27774Y23736D01*
X27693Y23674D01*
X27632Y23594D01*
X27593Y23500D01*
X27580Y23400D01*
X27593Y23300D01*
X27632Y23206D01*
X27693Y23126D01*
X27774Y23064D01*
X27867Y23025D01*
X27968Y23012D01*
X28068Y23025D01*
X28162Y23064D01*
X28242Y23126D01*
X28304Y23206D01*
X28343Y23300D01*
X28356Y23400D01*
X28343Y23500D01*
X28304Y23594D01*
X28242Y23674D01*
X28162Y23736D01*
X28068Y23775D01*
X27968Y23788D01*
D02*
G37*
G36*
X26590D02*
X26489Y23775D01*
X26396Y23736D01*
X26315Y23674D01*
X26254Y23594D01*
X26215Y23500D01*
X26202Y23400D01*
X26215Y23300D01*
X26254Y23206D01*
X26315Y23126D01*
X26396Y23064D01*
X26489Y23025D01*
X26590Y23012D01*
X26690Y23025D01*
X26784Y23064D01*
X26864Y23126D01*
X26926Y23206D01*
X26965Y23300D01*
X26978Y23400D01*
X26965Y23500D01*
X26926Y23594D01*
X26864Y23674D01*
X26784Y23736D01*
X26690Y23775D01*
X26590Y23788D01*
D02*
G37*
G36*
X25212D02*
X25111Y23775D01*
X25018Y23736D01*
X24937Y23674D01*
X24876Y23594D01*
X24837Y23500D01*
X24824Y23400D01*
X24837Y23300D01*
X24876Y23206D01*
X24937Y23126D01*
X25018Y23064D01*
X25111Y23025D01*
X25212Y23012D01*
X25312Y23025D01*
X25406Y23064D01*
X25486Y23126D01*
X25548Y23206D01*
X25587Y23300D01*
X25600Y23400D01*
X25587Y23500D01*
X25548Y23594D01*
X25486Y23674D01*
X25406Y23736D01*
X25312Y23775D01*
X25212Y23788D01*
D02*
G37*
G36*
X23834D02*
X23733Y23775D01*
X23640Y23736D01*
X23559Y23674D01*
X23498Y23594D01*
X23459Y23500D01*
X23446Y23400D01*
X23459Y23300D01*
X23498Y23206D01*
X23559Y23126D01*
X23640Y23064D01*
X23733Y23025D01*
X23834Y23012D01*
X23934Y23025D01*
X24028Y23064D01*
X24108Y23126D01*
X24170Y23206D01*
X24209Y23300D01*
X24222Y23400D01*
X24209Y23500D01*
X24170Y23594D01*
X24108Y23674D01*
X24028Y23736D01*
X23934Y23775D01*
X23834Y23788D01*
D02*
G37*
G36*
X22456D02*
X22355Y23775D01*
X22262Y23736D01*
X22181Y23674D01*
X22120Y23594D01*
X22081Y23500D01*
X22068Y23400D01*
X22081Y23300D01*
X22120Y23206D01*
X22181Y23126D01*
X22262Y23064D01*
X22355Y23025D01*
X22456Y23012D01*
X22556Y23025D01*
X22650Y23064D01*
X22730Y23126D01*
X22792Y23206D01*
X22831Y23300D01*
X22844Y23400D01*
X22831Y23500D01*
X22792Y23594D01*
X22730Y23674D01*
X22650Y23736D01*
X22556Y23775D01*
X22456Y23788D01*
D02*
G37*
G36*
X21078D02*
X20977Y23775D01*
X20884Y23736D01*
X20804Y23674D01*
X20742Y23594D01*
X20703Y23500D01*
X20690Y23400D01*
X20703Y23300D01*
X20742Y23206D01*
X20804Y23126D01*
X20884Y23064D01*
X20977Y23025D01*
X21078Y23012D01*
X21178Y23025D01*
X21272Y23064D01*
X21352Y23126D01*
X21414Y23206D01*
X21453Y23300D01*
X21466Y23400D01*
X21453Y23500D01*
X21414Y23594D01*
X21352Y23674D01*
X21272Y23736D01*
X21178Y23775D01*
X21078Y23788D01*
D02*
G37*
G36*
X19700D02*
X19600Y23775D01*
X19506Y23736D01*
X19426Y23674D01*
X19364Y23594D01*
X19325Y23500D01*
X19312Y23400D01*
X19325Y23300D01*
X19364Y23206D01*
X19426Y23126D01*
X19506Y23064D01*
X19600Y23025D01*
X19700Y23012D01*
X19800Y23025D01*
X19894Y23064D01*
X19974Y23126D01*
X20036Y23206D01*
X20075Y23300D01*
X20088Y23400D01*
X20075Y23500D01*
X20036Y23594D01*
X19974Y23674D01*
X19894Y23736D01*
X19800Y23775D01*
X19700Y23788D01*
D02*
G37*
G36*
X18322D02*
X18222Y23775D01*
X18128Y23736D01*
X18048Y23674D01*
X17986Y23594D01*
X17947Y23500D01*
X17934Y23400D01*
X17947Y23300D01*
X17986Y23206D01*
X18048Y23126D01*
X18128Y23064D01*
X18222Y23025D01*
X18322Y23012D01*
X18422Y23025D01*
X18516Y23064D01*
X18596Y23126D01*
X18658Y23206D01*
X18697Y23300D01*
X18710Y23400D01*
X18697Y23500D01*
X18658Y23594D01*
X18596Y23674D01*
X18516Y23736D01*
X18422Y23775D01*
X18322Y23788D01*
D02*
G37*
G36*
X16944D02*
X16844Y23775D01*
X16750Y23736D01*
X16670Y23674D01*
X16608Y23594D01*
X16569Y23500D01*
X16556Y23400D01*
X16569Y23300D01*
X16608Y23206D01*
X16670Y23126D01*
X16750Y23064D01*
X16844Y23025D01*
X16944Y23012D01*
X17045Y23025D01*
X17138Y23064D01*
X17219Y23126D01*
X17280Y23206D01*
X17319Y23300D01*
X17332Y23400D01*
X17319Y23500D01*
X17280Y23594D01*
X17219Y23674D01*
X17138Y23736D01*
X17045Y23775D01*
X16944Y23788D01*
D02*
G37*
G36*
X48150Y23354D02*
X48003Y23339D01*
X47862Y23296D01*
X47731Y23227D01*
X47617Y23133D01*
X47523Y23019D01*
X47454Y22888D01*
X47411Y22747D01*
X47396Y22600D01*
X47411Y22453D01*
X47454Y22312D01*
X47523Y22181D01*
X47617Y22067D01*
X47731Y21973D01*
X47862Y21904D01*
X48003Y21861D01*
X48150Y21846D01*
X48297Y21861D01*
X48438Y21904D01*
X48569Y21973D01*
X48683Y22067D01*
X48777Y22181D01*
X48846Y22312D01*
X48889Y22453D01*
X48904Y22600D01*
X48889Y22747D01*
X48846Y22888D01*
X48777Y23019D01*
X48683Y23133D01*
X48569Y23227D01*
X48438Y23296D01*
X48297Y23339D01*
X48150Y23354D01*
D02*
G37*
G36*
X11200D02*
X11053Y23339D01*
X10912Y23296D01*
X10781Y23227D01*
X10667Y23133D01*
X10573Y23019D01*
X10504Y22888D01*
X10461Y22747D01*
X10446Y22600D01*
X10461Y22453D01*
X10504Y22312D01*
X10573Y22181D01*
X10667Y22067D01*
X10781Y21973D01*
X10912Y21904D01*
X11053Y21861D01*
X11200Y21846D01*
X11347Y21861D01*
X11488Y21904D01*
X11619Y21973D01*
X11733Y22067D01*
X11827Y22181D01*
X11896Y22312D01*
X11939Y22453D01*
X11954Y22600D01*
X11939Y22747D01*
X11896Y22888D01*
X11827Y23019D01*
X11733Y23133D01*
X11619Y23227D01*
X11488Y23296D01*
X11347Y23339D01*
X11200Y23354D01*
D02*
G37*
%LPD*%
G36*
X32650Y40850D02*
Y39950D01*
X31900D01*
Y40150D01*
X31650Y40400D01*
X16050D01*
X15850Y40200D01*
Y37650D01*
X15650Y37450D01*
X14450D01*
X13900Y36900D01*
Y27800D01*
X14550Y27150D01*
X19250D01*
X19350Y27050D01*
Y26550D01*
X19250Y26450D01*
X13450D01*
X12900Y27000D01*
X12950Y27050D01*
Y37450D01*
X13800Y38300D01*
X14400D01*
X14650Y38550D01*
Y41300D01*
X14850Y41500D01*
X32000Y41500D01*
X32650Y40850D01*
D02*
G37*
%LPC*%
G36*
X34250Y32041D02*
X34196Y32031D01*
X34150Y32000D01*
X34119Y31954D01*
X34109Y31900D01*
X34119Y31846D01*
X34150Y31800D01*
X34196Y31769D01*
X34208Y31767D01*
X34238Y31737D01*
Y29599D01*
X34219Y29572D01*
X34209Y29517D01*
X34219Y29463D01*
X34250Y29417D01*
X34296Y29387D01*
X34350Y29376D01*
X34404Y29387D01*
X34450Y29417D01*
X34481Y29463D01*
X34491Y29517D01*
X34481Y29572D01*
X34462Y29599D01*
Y31638D01*
X36418D01*
X36446Y31619D01*
X36500Y31609D01*
X36554Y31619D01*
X36600Y31650D01*
X36631Y31696D01*
X36641Y31750D01*
X36631Y31804D01*
X36600Y31850D01*
X36554Y31881D01*
X36500Y31891D01*
X36446Y31881D01*
X36418Y31862D01*
X34430D01*
X34429Y31863D01*
X34429Y31863D01*
X34391Y31901D01*
X34381Y31954D01*
X34350Y32000D01*
X34304Y32031D01*
X34250Y32041D01*
D02*
G37*
%LPD*%
D12*
X35500Y28850D02*
X36574D01*
X36624Y28800D01*
X36650D01*
X35100Y28650D02*
X35300D01*
X35500Y28850D01*
X34921Y28090D02*
X34931Y28100D01*
X34669Y26650D02*
X36469Y24850D01*
X37200D01*
X34669Y26650D02*
X37161D01*
X34931Y28100D02*
X36850D01*
X34669Y26650D02*
Y28181D01*
X32550Y29349D02*
Y30700D01*
Y28503D02*
Y29349D01*
X32600Y28426D02*
X34424D01*
X34669Y28181D01*
X32600Y28426D02*
Y28453D01*
X32374Y28200D02*
X32600Y28426D01*
X32550Y28503D02*
X32600Y28453D01*
X32950Y34000D02*
Y34000D01*
X33300Y31450D02*
Y33650D01*
X32950Y34000D02*
X33300Y33650D01*
X32550Y30700D02*
X33300Y31450D01*
X32374Y27750D02*
Y28200D01*
X28550Y31100D02*
X32350D01*
X27300Y29850D02*
X28550Y31100D01*
X30450Y29550D02*
X31250D01*
X29700Y28800D02*
X30450Y29550D01*
X32100Y26800D02*
Y27950D01*
X31550Y27400D02*
X32100Y27950D01*
X27400Y33400D02*
X31750D01*
X24650Y30650D02*
X27400Y33400D01*
X28400Y32650D02*
X31550D01*
X24650Y28900D02*
X28400Y32650D01*
X45150Y42976D02*
Y45450D01*
X45050Y42876D02*
X45150Y42976D01*
X45050Y42850D02*
Y42876D01*
X27800Y33200D02*
X31300D01*
X28100Y32950D02*
X32050D01*
X24650Y30050D02*
X27800Y33200D01*
X36085Y47035D02*
X36200Y47150D01*
X24650Y29500D02*
X28100Y32950D01*
X39100Y27900D02*
Y29350D01*
Y27900D02*
X39902Y27098D01*
X37750Y47150D02*
X38700D01*
X36200D02*
X37750D01*
Y47805D01*
Y49150D02*
X38700D01*
X36200D02*
X37750D01*
Y48395D02*
Y49150D01*
X37150Y48376D02*
X37730D01*
X37750Y48395D01*
X37150Y44826D02*
X37800D01*
X37800Y44826D01*
Y45550D02*
X38700D01*
X36200D02*
X37800D01*
Y44826D02*
Y45550D01*
Y43550D02*
X38700D01*
X36200D02*
X37800D01*
Y44235D01*
X38900Y28450D02*
Y30850D01*
X39188Y30500D02*
X39300Y30388D01*
Y27870D02*
X39572Y27598D01*
X39300Y27870D02*
Y30388D01*
X39572Y27598D02*
X41500D01*
X38700Y29650D02*
Y30250D01*
Y29050D02*
Y29650D01*
X45152Y39234D02*
Y39934D01*
X44652Y38734D02*
Y41284D01*
Y38734D02*
X45152Y39234D01*
X30326Y23174D02*
X30700Y22800D01*
X34350Y31784D02*
X34384Y31750D01*
X46929Y27242D02*
X47350Y26821D01*
X32100Y26800D02*
X32350Y26550D01*
X29700Y23850D02*
Y28800D01*
X30700Y22800D02*
Y24800D01*
X30326Y23174D02*
Y26523D01*
X31550Y25650D02*
Y27400D01*
X47350Y23350D02*
Y26821D01*
X30700Y24800D02*
X31550Y25650D01*
X46929Y31458D02*
X47650Y30737D01*
Y23550D02*
Y30737D01*
X39902Y27098D02*
X42500D01*
D14*
X37156Y26656D02*
Y29644D01*
X30250Y34250D02*
Y35600D01*
X30300Y35650D01*
X28350D02*
X29100D01*
X26600Y33900D02*
X28350Y35650D01*
X36150D02*
X36850Y34950D01*
X32350Y35650D02*
X36150D01*
X36850Y28100D02*
Y34950D01*
X27900Y34000D02*
X32950D01*
X29800Y33600D02*
X32350D01*
X32450Y33500D01*
X34242Y31892D02*
X34350Y31784D01*
X33550Y34200D02*
Y35200D01*
X33450Y35300D02*
X33550Y35200D01*
X32100Y35300D02*
X33450D01*
X31100Y35600D02*
X31800D01*
X32100Y35300D01*
X31100Y35600D02*
Y35600D01*
X23100Y33900D02*
X26600D01*
X27900Y35539D02*
Y35550D01*
X28250Y35900D01*
X14776Y37826D02*
X15226D01*
X13500Y36550D02*
X14776Y37826D01*
X26150Y27300D02*
X26750Y27900D01*
Y30450D01*
X21450Y47750D02*
Y49600D01*
X35100Y40600D02*
X36500Y42000D01*
X45650D01*
X36450Y42200D02*
X45350D01*
X34500Y40750D02*
X36350Y42600D01*
X34700Y40700D02*
X36400Y42400D01*
X34900Y40650D02*
X36450Y42200D01*
X36350Y42600D02*
X47050D01*
X36400Y42400D02*
X47100D01*
X23700Y37150D02*
X24550D01*
X23100Y36550D02*
X23700Y37150D01*
X36300Y36100D02*
X38600D01*
X30850D02*
X36300D01*
Y38250D01*
X42150Y39750D02*
Y41700D01*
Y39750D02*
X42250Y39650D01*
X43448Y40778D02*
X43452Y40774D01*
Y39034D02*
Y40774D01*
X36500Y40300D02*
X37700Y41500D01*
Y41750D01*
X37650Y35900D02*
X38050Y35500D01*
Y28750D02*
Y35500D01*
X40767Y44529D02*
X40776Y44520D01*
X38700Y43550D02*
X39400Y44250D01*
X38700Y47150D02*
X39400Y46450D01*
Y44250D02*
Y46450D01*
X37100Y47774D02*
X37150Y47824D01*
X37100Y47400D02*
Y47774D01*
Y44224D02*
X37150Y44274D01*
X37100Y43750D02*
Y44224D01*
X35500Y40200D02*
X37100Y41800D01*
X35500Y39650D02*
Y40200D01*
X47100Y42400D02*
X48000Y43300D01*
X47050Y42600D02*
X47800Y43350D01*
X28150Y36750D02*
X34200D01*
X34500Y37050D02*
Y40750D01*
X34200Y36750D02*
X34500Y37050D01*
X34450Y36400D02*
X35100Y37050D01*
X28350Y36400D02*
X34450D01*
X35100Y37050D02*
Y40600D01*
X34900Y37150D02*
Y40650D01*
X34340Y36590D02*
X34900Y37150D01*
X28290Y36590D02*
X34340D01*
X34700Y37712D02*
Y40700D01*
X34697Y37709D02*
X34700Y37712D01*
X34300Y38450D02*
Y43650D01*
X36200Y45550D01*
X34100Y46050D02*
X36200Y48150D01*
X34100Y38650D02*
Y46050D01*
X36200Y48150D02*
Y49150D01*
X37350Y31150D02*
Y33250D01*
Y25450D02*
Y31150D01*
X26550Y35150D02*
X28150Y36750D01*
X26500Y34800D02*
X28290Y36590D01*
X26150Y34200D02*
X28350Y36400D01*
X28696Y37704D02*
X28700Y37709D01*
X26304Y37704D02*
X28696D01*
X25050Y34200D02*
X26150D01*
X24750Y34800D02*
X26500D01*
X26000Y35400D02*
X26400D01*
X28300Y37300D02*
Y37311D01*
X26400Y35400D02*
X28300Y37300D01*
X17850Y35850D02*
X26250D01*
X27750Y37350D02*
Y37350D01*
X26250Y35850D02*
X27750Y37350D01*
X15850Y35350D02*
X16650Y36150D01*
X26250D01*
X17400Y35400D02*
X17850Y35850D01*
X15500Y35150D02*
X26550D01*
X15300Y35350D02*
X15500Y35150D01*
X26050Y37150D02*
X26250Y36950D01*
Y36600D02*
Y36950D01*
X24550Y37150D02*
X26050D01*
X26300Y37700D02*
X26304Y37704D01*
X38600Y36100D02*
X38750Y35950D01*
Y32650D02*
Y35950D01*
X28250Y35900D02*
X37650D01*
X23050Y27300D02*
X26150D01*
X18550Y41050D02*
Y47950D01*
X45658Y43921D02*
X45667Y43929D01*
X45658Y42908D02*
Y43921D01*
X45650Y42900D02*
X45658Y42908D01*
X45350Y43300D02*
X45358Y43308D01*
Y44121D01*
X45367Y44129D01*
X48000Y43300D02*
Y45000D01*
X48150Y45150D02*
X48950D01*
X48000Y45000D02*
X48150Y45150D01*
X47800Y43350D02*
Y46400D01*
X48100Y46700D01*
X48950D01*
X10800Y24000D02*
X10850Y24050D01*
Y24441D01*
X10909Y24500D01*
X18300D02*
X20100Y26300D01*
X10909Y24500D02*
X18300D01*
X10800Y25000D02*
X11650Y25850D01*
X19250D01*
X19500Y26100D01*
Y27300D01*
X38900Y23480D02*
Y28200D01*
Y23480D02*
X39286Y23094D01*
X38050Y22524D02*
Y28750D01*
X38700D01*
X31226Y22074D02*
X37600D01*
X38050Y22524D01*
X37150Y29650D02*
X37156Y29644D01*
Y26656D02*
X37161Y26650D01*
X34384Y31750D02*
X36500D01*
X42008Y46071D02*
X42217Y46279D01*
X42567Y43279D02*
X42817Y43529D01*
X42558Y44520D02*
X42567Y44511D01*
X43006Y45938D02*
X43064Y45879D01*
X43006Y45938D02*
Y46279D01*
X43487Y45389D02*
X43577Y45479D01*
X43717Y45279D02*
X43728Y45290D01*
X44367Y45879D02*
X44517Y45729D01*
X44201Y45668D02*
X44217D01*
X45992Y45326D02*
X45995Y45323D01*
X42817Y43529D02*
Y44529D01*
X42517Y44829D02*
X42817Y44529D01*
X42517Y45629D02*
X42527Y45639D01*
X43006Y46279D02*
Y46968D01*
X44417Y45479D02*
X44517Y45579D01*
Y45729D01*
X44173Y45639D02*
X44201Y45668D01*
X44617Y46029D02*
Y46829D01*
X46467Y43329D02*
Y44879D01*
X43487Y44362D02*
Y45389D01*
X45995Y43740D02*
Y45323D01*
X46917Y43829D02*
Y45229D01*
X43577Y45479D02*
X44417D01*
X43728Y45290D02*
X44528D01*
X43064Y45879D02*
X44367D01*
X42217Y46279D02*
X43006D01*
X44817Y45579D02*
Y46329D01*
X43006Y46968D02*
X43267Y47229D01*
X44528Y45290D02*
X44817Y45579D01*
X42527Y45639D02*
X44173D01*
X40776Y44520D02*
X42558D01*
X31050Y22250D02*
X31050D01*
X31226Y22074D01*
X38700Y26050D02*
Y26650D01*
X34350Y29517D02*
Y31784D01*
X38700Y26650D02*
Y27250D01*
X40448Y28598D02*
X41500D01*
X40100Y28250D02*
X40448Y28598D01*
D22*
X37750Y48395D02*
D03*
Y47805D02*
D03*
X37800Y44826D02*
D03*
Y44235D02*
D03*
D27*
X37150Y47824D02*
D03*
Y48376D02*
D03*
Y44274D02*
D03*
Y44826D02*
D03*
D101*
X42300Y47729D02*
Y47837D01*
Y47729D02*
X42800Y47229D01*
X43267D01*
D102*
X11800Y42450D02*
X13045Y41205D01*
X13329D01*
X13484Y41050D01*
X10800Y42450D02*
X11800D01*
X43799Y25801D02*
Y31899D01*
X35500Y39650D02*
X36600D01*
X43100Y36700D02*
X45700D01*
X36600Y39650D02*
X42250D01*
X45700Y36700D02*
X47457D01*
X47460Y36697D01*
X42700Y37100D02*
X43100Y36700D01*
X42700Y37100D02*
Y39200D01*
X42250Y39650D02*
X42700Y39200D01*
X35500Y36500D02*
Y39650D01*
X18550Y41050D02*
X25150D01*
X15295D02*
X18550D01*
X13500Y27100D02*
Y36550D01*
Y27100D02*
X13800Y26800D01*
X25150Y41050D02*
X31600D01*
X32300Y40350D01*
X15216Y41050D02*
X15295D01*
X15226Y37826D02*
X15450Y38050D01*
X15295Y41050D02*
X15450Y40895D01*
Y38050D02*
Y40895D01*
X13800Y26800D02*
X19150D01*
X15166Y43150D02*
X15274D01*
X15430Y43305D01*
Y43413D01*
X17800Y45784D01*
Y47850D01*
X11800Y43450D02*
X13026D01*
X10800D02*
X11800D01*
X13026D02*
X13326Y43150D01*
X13434D01*
D104*
X47734Y40534D02*
D03*
Y38134D02*
D03*
D105*
Y41534D02*
D03*
Y39134D02*
D03*
D106*
X38700Y43550D02*
D03*
Y47150D02*
D03*
D107*
X36200Y45550D02*
D03*
Y43550D02*
D03*
X38700Y45550D02*
D03*
X36200Y49150D02*
D03*
Y47150D02*
D03*
X38700Y49150D02*
D03*
D108*
X14350Y45050D02*
D03*
Y47550D02*
D03*
D109*
X12350Y46050D02*
D03*
D110*
X11650Y26498D02*
D03*
Y27876D02*
D03*
Y29254D02*
D03*
Y33388D02*
D03*
Y37522D02*
D03*
Y36144D02*
D03*
Y34766D02*
D03*
Y32010D02*
D03*
Y30632D02*
D03*
X11800Y25000D02*
D03*
X10800D02*
D03*
X11800Y24000D02*
D03*
X10800Y40450D02*
D03*
Y41450D02*
D03*
X11800Y40450D02*
D03*
Y41450D02*
D03*
X10800Y43450D02*
D03*
X11800Y42450D02*
D03*
X10800D02*
D03*
X27968Y23400D02*
D03*
X26590D02*
D03*
X25212D02*
D03*
X21078D02*
D03*
X16944D02*
D03*
X18322D02*
D03*
X19700D02*
D03*
X22456D02*
D03*
X23834D02*
D03*
D111*
X11650Y38900D02*
D03*
X10800Y24000D02*
D03*
X11800Y43450D02*
D03*
D112*
X44751Y48251D02*
D03*
X42783D02*
D03*
D113*
X42241Y49333D02*
D03*
X45292D02*
D03*
D114*
X42300Y47837D02*
D03*
X45233D02*
D03*
D115*
X15566Y23400D02*
D03*
D116*
X42500Y27098D02*
D03*
D117*
X41500Y27598D02*
D03*
X42500Y28098D02*
D03*
X41500Y28598D02*
D03*
X42500Y29098D02*
D03*
X41500Y29598D02*
D03*
X42500Y30098D02*
D03*
X41500Y30598D02*
D03*
D118*
X46929Y26242D02*
D03*
Y27242D02*
D03*
Y31458D02*
D03*
Y30458D02*
D03*
D119*
X45000Y31100D02*
D03*
Y26600D02*
D03*
D120*
X43799Y31899D02*
D03*
Y25801D02*
D03*
D121*
X48150Y22600D02*
D03*
Y48800D02*
D03*
X11200D02*
D03*
Y22600D02*
D03*
D122*
X34921Y28090D02*
D03*
X35500Y28850D02*
D03*
X35100Y28650D02*
D03*
X48500Y47000D02*
D03*
X48000Y46000D02*
D03*
X48500Y43000D02*
D03*
X48000Y42000D02*
D03*
Y40000D02*
D03*
X48500Y39000D02*
D03*
Y37000D02*
D03*
Y35000D02*
D03*
X48000Y34000D02*
D03*
X47000Y48000D02*
D03*
X47500Y47000D02*
D03*
X47000Y42000D02*
D03*
X47500Y41000D02*
D03*
X47000Y38000D02*
D03*
X47500Y35000D02*
D03*
X47000Y34000D02*
D03*
Y22000D02*
D03*
X46500Y49000D02*
D03*
X46000Y48000D02*
D03*
Y46000D02*
D03*
X46500Y43000D02*
D03*
X46000Y42000D02*
D03*
X46500Y41000D02*
D03*
X46000Y40000D02*
D03*
X46500Y39000D02*
D03*
X46000Y38000D02*
D03*
X46500Y35000D02*
D03*
X46000Y34000D02*
D03*
X46500Y23000D02*
D03*
X46000Y22000D02*
D03*
X45500Y47000D02*
D03*
Y45000D02*
D03*
Y41000D02*
D03*
X45000Y38000D02*
D03*
X45500Y35000D02*
D03*
X45000Y34000D02*
D03*
X45500Y23000D02*
D03*
X45000Y22000D02*
D03*
X44500Y49000D02*
D03*
X44000Y38000D02*
D03*
Y36000D02*
D03*
X44500Y35000D02*
D03*
X44000Y34000D02*
D03*
X44500Y23000D02*
D03*
X44000Y22000D02*
D03*
X43500Y49000D02*
D03*
Y41000D02*
D03*
X43000Y36000D02*
D03*
X43500Y35000D02*
D03*
X43000Y34000D02*
D03*
X43500Y23000D02*
D03*
X43000Y22000D02*
D03*
X42500Y47000D02*
D03*
Y43000D02*
D03*
Y41000D02*
D03*
X42000Y38000D02*
D03*
Y36000D02*
D03*
X42500Y35000D02*
D03*
X42000Y34000D02*
D03*
X42500Y23000D02*
D03*
X42000Y22000D02*
D03*
X41500Y49000D02*
D03*
X41000Y48000D02*
D03*
X41500Y47000D02*
D03*
X41000Y46000D02*
D03*
Y44000D02*
D03*
X41500Y39000D02*
D03*
X41000Y38000D02*
D03*
Y36000D02*
D03*
X41500Y35000D02*
D03*
X41000Y34000D02*
D03*
X41500Y23000D02*
D03*
X40500Y49000D02*
D03*
X40000Y48000D02*
D03*
X40500Y47000D02*
D03*
X40000Y46000D02*
D03*
X40500Y45000D02*
D03*
Y43000D02*
D03*
X40000Y38000D02*
D03*
Y36000D02*
D03*
X40500Y35000D02*
D03*
X40000Y34000D02*
D03*
X40500Y23000D02*
D03*
X40000Y22000D02*
D03*
X39500Y49000D02*
D03*
X39000Y48000D02*
D03*
X39500Y47000D02*
D03*
X39000Y46000D02*
D03*
X39500Y43000D02*
D03*
Y39000D02*
D03*
X39000Y38000D02*
D03*
Y36000D02*
D03*
X39500Y35000D02*
D03*
X39000Y34000D02*
D03*
X39500Y23000D02*
D03*
X39000Y22000D02*
D03*
X38000Y46000D02*
D03*
X38500Y45000D02*
D03*
X38000Y38000D02*
D03*
X38500Y35000D02*
D03*
Y23000D02*
D03*
X38000Y22000D02*
D03*
X37500Y45000D02*
D03*
Y43000D02*
D03*
X37000Y38000D02*
D03*
X37500Y35000D02*
D03*
X37000Y24000D02*
D03*
X37500Y23000D02*
D03*
X36500Y45000D02*
D03*
Y43000D02*
D03*
Y39000D02*
D03*
Y35000D02*
D03*
X36000Y34000D02*
D03*
X36500Y33000D02*
D03*
X36000Y30000D02*
D03*
Y24000D02*
D03*
X36500Y23000D02*
D03*
X35500Y49000D02*
D03*
X35000Y48000D02*
D03*
X35500Y47000D02*
D03*
X35000Y46000D02*
D03*
Y44000D02*
D03*
X35500Y43000D02*
D03*
X35000Y42000D02*
D03*
X35500Y35000D02*
D03*
X35000Y34000D02*
D03*
X35500Y33000D02*
D03*
X35000Y32000D02*
D03*
Y30000D02*
D03*
X35500Y25000D02*
D03*
X35000Y24000D02*
D03*
X34000Y34000D02*
D03*
X34500Y33000D02*
D03*
X34000Y26000D02*
D03*
X34500Y25000D02*
D03*
Y23000D02*
D03*
X33500Y41000D02*
D03*
X33000Y28000D02*
D03*
X33500Y27000D02*
D03*
X33000Y26000D02*
D03*
X33500Y25000D02*
D03*
X32000Y48000D02*
D03*
X32500Y33000D02*
D03*
X32000Y30000D02*
D03*
X32500Y25000D02*
D03*
X31500Y47000D02*
D03*
X31000Y46000D02*
D03*
Y40000D02*
D03*
X31500Y39000D02*
D03*
Y29000D02*
D03*
X31000Y28000D02*
D03*
X30500Y47000D02*
D03*
Y45000D02*
D03*
X30000Y44000D02*
D03*
Y42000D02*
D03*
Y40000D02*
D03*
X30500Y39000D02*
D03*
X30000Y30000D02*
D03*
X30500Y29000D02*
D03*
X30000Y28000D02*
D03*
Y26000D02*
D03*
X30500Y25000D02*
D03*
X29500Y47000D02*
D03*
X29000Y46000D02*
D03*
Y44000D02*
D03*
Y42000D02*
D03*
Y40000D02*
D03*
X29500Y39000D02*
D03*
X29000Y32000D02*
D03*
X29500Y27000D02*
D03*
X29000Y26000D02*
D03*
X29500Y25000D02*
D03*
X29000Y24000D02*
D03*
Y22000D02*
D03*
X28500Y47000D02*
D03*
Y45000D02*
D03*
X28000Y44000D02*
D03*
Y42000D02*
D03*
Y40000D02*
D03*
X28500Y39000D02*
D03*
X28000Y32000D02*
D03*
Y30000D02*
D03*
X28500Y29000D02*
D03*
X28000Y28000D02*
D03*
X28500Y27000D02*
D03*
X28000Y26000D02*
D03*
X28500Y25000D02*
D03*
Y23000D02*
D03*
X28000Y22000D02*
D03*
X27500Y45000D02*
D03*
X27000Y44000D02*
D03*
X27500Y43000D02*
D03*
X27000Y42000D02*
D03*
Y40000D02*
D03*
X27500Y39000D02*
D03*
X27000Y30000D02*
D03*
X27500Y29000D02*
D03*
X27000Y28000D02*
D03*
X27500Y27000D02*
D03*
X27000Y26000D02*
D03*
X27500Y25000D02*
D03*
X27000Y24000D02*
D03*
X27500Y23000D02*
D03*
X27000Y22000D02*
D03*
X26500Y45000D02*
D03*
X26000Y44000D02*
D03*
X26500Y43000D02*
D03*
X26000Y42000D02*
D03*
Y40000D02*
D03*
X26500Y39000D02*
D03*
Y37000D02*
D03*
Y33000D02*
D03*
Y31000D02*
D03*
X26000Y30000D02*
D03*
X26500Y29000D02*
D03*
X26000Y28000D02*
D03*
Y26000D02*
D03*
X26500Y25000D02*
D03*
X26000Y22000D02*
D03*
X25500Y45000D02*
D03*
X25000Y44000D02*
D03*
X25500Y43000D02*
D03*
X25000Y42000D02*
D03*
X25500Y39000D02*
D03*
X25000Y32000D02*
D03*
X25500Y29000D02*
D03*
X25000Y28000D02*
D03*
X25500Y27000D02*
D03*
X25000Y26000D02*
D03*
X25500Y25000D02*
D03*
X25000Y24000D02*
D03*
X25500Y23000D02*
D03*
X25000Y22000D02*
D03*
X24000Y48000D02*
D03*
X24500Y45000D02*
D03*
X24000Y44000D02*
D03*
X24500Y43000D02*
D03*
X24000Y42000D02*
D03*
X24500Y39000D02*
D03*
Y31000D02*
D03*
Y27000D02*
D03*
Y25000D02*
D03*
X24000Y24000D02*
D03*
X24500Y23000D02*
D03*
X24000Y22000D02*
D03*
X23000Y48000D02*
D03*
X23500Y45000D02*
D03*
X23000Y44000D02*
D03*
X23500Y43000D02*
D03*
X23000Y42000D02*
D03*
X23500Y33000D02*
D03*
X23000Y32000D02*
D03*
X23500Y31000D02*
D03*
X23000Y30000D02*
D03*
X23500Y29000D02*
D03*
Y27000D02*
D03*
X23000Y26000D02*
D03*
X23500Y23000D02*
D03*
X23000Y22000D02*
D03*
X22500Y49000D02*
D03*
Y45000D02*
D03*
X22000Y44000D02*
D03*
X22500Y43000D02*
D03*
X22000Y42000D02*
D03*
X22500Y37000D02*
D03*
X22000Y34000D02*
D03*
X22500Y33000D02*
D03*
X22000Y32000D02*
D03*
X22500Y31000D02*
D03*
X22000Y30000D02*
D03*
X22500Y29000D02*
D03*
Y27000D02*
D03*
X22000Y26000D02*
D03*
Y22000D02*
D03*
X21000Y48000D02*
D03*
X21500Y47000D02*
D03*
Y45000D02*
D03*
X21000Y44000D02*
D03*
X21500Y43000D02*
D03*
X21000Y42000D02*
D03*
X21500Y37000D02*
D03*
X21000Y34000D02*
D03*
X21500Y33000D02*
D03*
X21000Y32000D02*
D03*
X21500Y31000D02*
D03*
X21000Y30000D02*
D03*
X21500Y29000D02*
D03*
Y27000D02*
D03*
X21000Y26000D02*
D03*
X21500Y25000D02*
D03*
X21000Y24000D02*
D03*
X21500Y23000D02*
D03*
X21000Y22000D02*
D03*
X20500Y49000D02*
D03*
Y45000D02*
D03*
X20000Y44000D02*
D03*
X20500Y43000D02*
D03*
X20000Y42000D02*
D03*
X20500Y37000D02*
D03*
X20000Y34000D02*
D03*
X20500Y33000D02*
D03*
X20000Y32000D02*
D03*
X20500Y31000D02*
D03*
X20000Y30000D02*
D03*
X20500Y29000D02*
D03*
Y25000D02*
D03*
X20000Y24000D02*
D03*
X20500Y23000D02*
D03*
X20000Y22000D02*
D03*
X19000Y48000D02*
D03*
X19500Y45000D02*
D03*
X19000Y44000D02*
D03*
X19500Y43000D02*
D03*
X19000Y42000D02*
D03*
X19500Y37000D02*
D03*
X19000Y34000D02*
D03*
X19500Y33000D02*
D03*
X19000Y32000D02*
D03*
X19500Y31000D02*
D03*
X19000Y30000D02*
D03*
X19500Y29000D02*
D03*
X19000Y22000D02*
D03*
X18000Y44000D02*
D03*
Y42000D02*
D03*
X18500Y37000D02*
D03*
X18000Y34000D02*
D03*
X18500Y33000D02*
D03*
X18000Y32000D02*
D03*
X18500Y31000D02*
D03*
X18000Y30000D02*
D03*
X18500Y29000D02*
D03*
X18000Y24000D02*
D03*
Y22000D02*
D03*
X17500Y49000D02*
D03*
X17000Y48000D02*
D03*
Y46000D02*
D03*
Y42000D02*
D03*
X17500Y37000D02*
D03*
Y33000D02*
D03*
Y31000D02*
D03*
Y29000D02*
D03*
Y25000D02*
D03*
X17000Y24000D02*
D03*
X17500Y23000D02*
D03*
X17000Y22000D02*
D03*
X16500Y49000D02*
D03*
X16000Y48000D02*
D03*
X16500Y47000D02*
D03*
X16000Y46000D02*
D03*
Y42000D02*
D03*
Y40000D02*
D03*
Y38000D02*
D03*
Y34000D02*
D03*
X16500Y25000D02*
D03*
X16000Y24000D02*
D03*
X16500Y23000D02*
D03*
X16000Y22000D02*
D03*
X15500Y49000D02*
D03*
Y47000D02*
D03*
X15000Y46000D02*
D03*
X15500Y45000D02*
D03*
X15000Y42000D02*
D03*
Y36000D02*
D03*
Y34000D02*
D03*
X15500Y31000D02*
D03*
Y29000D02*
D03*
X15000Y28000D02*
D03*
Y24000D02*
D03*
Y22000D02*
D03*
X14500Y49000D02*
D03*
X14000Y46000D02*
D03*
Y42000D02*
D03*
X14500Y41000D02*
D03*
X14000Y40000D02*
D03*
X14500Y39000D02*
D03*
Y35000D02*
D03*
Y31000D02*
D03*
Y29000D02*
D03*
Y25000D02*
D03*
X14000Y24000D02*
D03*
X14500Y23000D02*
D03*
X14000Y22000D02*
D03*
X13500Y49000D02*
D03*
X13000Y48000D02*
D03*
Y44000D02*
D03*
Y42000D02*
D03*
Y40000D02*
D03*
X13500Y39000D02*
D03*
X13000Y38000D02*
D03*
X13500Y25000D02*
D03*
X13000Y24000D02*
D03*
Y22000D02*
D03*
X12500Y49000D02*
D03*
X12000Y48000D02*
D03*
X12500Y45000D02*
D03*
X12000Y44000D02*
D03*
X12500Y43000D02*
D03*
Y41000D02*
D03*
Y39000D02*
D03*
X12000Y38000D02*
D03*
X12500Y35000D02*
D03*
X12000Y34000D02*
D03*
X12500Y33000D02*
D03*
Y31000D02*
D03*
X12000Y30000D02*
D03*
X12500Y29000D02*
D03*
Y27000D02*
D03*
Y25000D02*
D03*
Y23000D02*
D03*
X12000Y22000D02*
D03*
X11500Y47000D02*
D03*
Y45000D02*
D03*
X11000Y44000D02*
D03*
Y42000D02*
D03*
X11500Y41000D02*
D03*
X11000Y38000D02*
D03*
X11500Y37000D02*
D03*
X11000Y36000D02*
D03*
Y34000D02*
D03*
Y32000D02*
D03*
Y30000D02*
D03*
Y28000D02*
D03*
X11500Y27000D02*
D03*
X11000Y26000D02*
D03*
X36650Y28800D02*
D03*
X37100Y30000D02*
D03*
X35350Y29300D02*
D03*
X37150Y30650D02*
D03*
X34650Y29400D02*
D03*
X34150Y30850D02*
D03*
X37100Y34300D02*
D03*
X30250Y34250D02*
D03*
X29100Y35650D02*
D03*
X32350D02*
D03*
X37200Y24850D02*
D03*
X32600Y28426D02*
D03*
X32950Y34000D02*
D03*
X32350Y31100D02*
D03*
X31250Y29550D02*
D03*
X32374Y27750D02*
D03*
X32550Y29349D02*
D03*
X31750Y33400D02*
D03*
X29800Y33600D02*
D03*
X32450Y33500D02*
D03*
X34250Y31900D02*
D03*
X27900Y35539D02*
D03*
X36800Y27500D02*
D03*
X30300Y35650D02*
D03*
X27300Y29850D02*
D03*
X35700Y39100D02*
D03*
Y39500D02*
D03*
X35500Y38950D02*
D03*
Y39300D02*
D03*
X32050Y40650D02*
D03*
X32550Y40100D02*
D03*
Y40650D02*
D03*
X32050Y40100D02*
D03*
X21450Y47750D02*
D03*
Y49600D02*
D03*
X45050Y42850D02*
D03*
X45350Y42200D02*
D03*
X45150Y45450D02*
D03*
X27900Y34000D02*
D03*
X23100Y33900D02*
D03*
Y36550D02*
D03*
X36300Y38250D02*
D03*
X36600Y39650D02*
D03*
X42150Y41700D02*
D03*
X47460Y36697D02*
D03*
X45700Y36700D02*
D03*
X43900D02*
D03*
X43448Y40778D02*
D03*
X37700Y41750D02*
D03*
X36500Y40300D02*
D03*
X35500Y36500D02*
D03*
X31550Y32650D02*
D03*
X31300Y33200D02*
D03*
X32050Y32950D02*
D03*
X40767Y44529D02*
D03*
X37100Y47400D02*
D03*
Y43750D02*
D03*
Y41800D02*
D03*
X45650Y42000D02*
D03*
X35500Y39650D02*
D03*
X34697Y37709D02*
D03*
X34300Y38450D02*
D03*
X34100Y38650D02*
D03*
X37350Y31150D02*
D03*
Y33250D02*
D03*
X28700Y37709D02*
D03*
X26000Y35400D02*
D03*
X26250Y36150D02*
D03*
X28300Y37311D02*
D03*
X17400Y35400D02*
D03*
X26250Y36600D02*
D03*
X27750Y37350D02*
D03*
X26300Y37700D02*
D03*
X30850Y36100D02*
D03*
X26750Y30450D02*
D03*
X23050Y27300D02*
D03*
X18550Y47950D02*
D03*
X45650Y42900D02*
D03*
X45350Y43300D02*
D03*
X48950Y45150D02*
D03*
X24750Y34800D02*
D03*
X25050Y34200D02*
D03*
X24550Y37150D02*
D03*
X48950Y46700D02*
D03*
X15300Y35350D02*
D03*
X25150Y41050D02*
D03*
X32300Y40350D02*
D03*
X15226Y37826D02*
D03*
X13500Y36550D02*
D03*
X19150Y26800D02*
D03*
X20100Y26300D02*
D03*
X19500Y27300D02*
D03*
X39286Y23094D02*
D03*
X38900Y28200D02*
D03*
Y30850D02*
D03*
Y28450D02*
D03*
X39100Y29350D02*
D03*
X39188Y30500D02*
D03*
X38700Y29650D02*
D03*
Y30250D02*
D03*
Y29050D02*
D03*
X37150Y29650D02*
D03*
Y27850D02*
D03*
X37161Y26650D02*
D03*
X36850Y28100D02*
D03*
X36500Y31750D02*
D03*
X17800Y47850D02*
D03*
X44652Y41284D02*
D03*
X45152Y39934D02*
D03*
X44652Y38734D02*
D03*
X43452Y39034D02*
D03*
X42008Y46071D02*
D03*
X42567Y44511D02*
D03*
X43006Y46279D02*
D03*
X43717Y45279D02*
D03*
X44617Y46029D02*
D03*
Y46829D02*
D03*
X45367Y44129D02*
D03*
X45995Y43740D02*
D03*
X45992Y45326D02*
D03*
X46917Y43829D02*
D03*
Y45229D02*
D03*
X42567Y43279D02*
D03*
X44217Y45668D02*
D03*
X46467Y43329D02*
D03*
X42517Y44829D02*
D03*
Y45629D02*
D03*
X43267Y47229D02*
D03*
X44817Y46329D02*
D03*
X45667Y43929D02*
D03*
X46467Y44879D02*
D03*
X24650Y29500D02*
D03*
Y30050D02*
D03*
Y30650D02*
D03*
X15850Y35350D02*
D03*
X24650Y28900D02*
D03*
X29700Y23850D02*
D03*
X30700Y22800D02*
D03*
X30326Y26523D02*
D03*
X31050Y22250D02*
D03*
X31100Y35600D02*
D03*
X33050Y30000D02*
D03*
X33550Y34200D02*
D03*
X34350Y29517D02*
D03*
X38700Y26050D02*
D03*
Y27250D02*
D03*
Y28750D02*
D03*
X34669Y26650D02*
D03*
X38700D02*
D03*
X40100Y28250D02*
D03*
X47350Y23350D02*
D03*
X30950Y30000D02*
D03*
X37350Y25450D02*
D03*
X38750Y32650D02*
D03*
X32350Y26550D02*
D03*
X47650Y23550D02*
D03*
D123*
X44353Y43496D02*
D03*
X43487D02*
D03*
X44353Y44362D02*
D03*
Y43929D02*
D03*
X43487Y44362D02*
D03*
Y43929D02*
D03*
X43920Y43496D02*
D03*
Y44362D02*
D03*
Y43929D02*
D03*
D124*
X13434Y43150D02*
D03*
X15166D02*
D03*
X13484Y41050D02*
D03*
X15216D02*
D03*
M02*
