G04*
G04 #@! TF.GenerationSoftware,Altium Limited,Altium Designer,20.2.7 (254)*
G04*
G04 Layer_Color=65535*
%FSLAX24Y24*%
%MOIN*%
G70*
G04*
G04 #@! TF.SameCoordinates,06D2D76E-F920-4485-92C8-392B035063E4*
G04*
G04*
G04 #@! TF.FilePolarity,Positive*
G04*
G01*
G75*
%ADD10C,0.0039*%
%ADD11C,0.0098*%
%ADD12C,0.0060*%
%ADD13C,0.0236*%
%ADD14C,0.0100*%
%ADD15C,0.0079*%
%ADD16C,0.0118*%
%ADD17C,0.0070*%
%ADD18C,0.0040*%
%ADD19C,0.0050*%
D10*
X40590Y44908D02*
G03*
X40590Y44908I-20J0D01*
G01*
X18765Y47528D02*
G03*
X18765Y47528I-20J0D01*
G01*
D11*
X47403Y44890D02*
G03*
X47403Y44890I-49J0D01*
G01*
X47394Y43370D02*
G03*
X47394Y43370I-49J0D01*
G01*
X49240Y41534D02*
G03*
X49240Y41534I-49J0D01*
G01*
Y39134D02*
G03*
X49240Y39134I-49J0D01*
G01*
X30570Y49130D02*
G03*
X30570Y49130I-49J0D01*
G01*
X25371Y48639D02*
G03*
X25371Y48639I-49J0D01*
G01*
X22872Y45615D02*
G03*
X22872Y45615I-49J0D01*
G01*
X16628Y44861D02*
G03*
X16628Y44861I-49J0D01*
G01*
X45350Y39511D02*
G03*
X45350Y39511I-49J0D01*
G01*
X38588Y41069D02*
G03*
X38588Y41069I-49J0D01*
G01*
X44953Y45228D02*
G03*
X44953Y45228I-49J0D01*
G01*
X43443Y46830D02*
G03*
X43443Y46830I-49J0D01*
G01*
X34071Y42539D02*
G03*
X34071Y42539I-49J0D01*
G01*
X33643Y27688D02*
G03*
X33643Y27688I-49J0D01*
G01*
X31555Y42488D02*
G03*
X31555Y42488I-49J0D01*
G01*
D12*
X37950Y44500D02*
G03*
X37950Y44500I-500J0D01*
G01*
Y48100D02*
G03*
X37950Y48100I-500J0D01*
G01*
X38510Y26420D02*
X38579D01*
Y26880D01*
X37520D02*
X38579D01*
X37520Y26420D02*
Y26880D01*
Y26420D02*
X38510D01*
X37521Y28080D02*
X37590D01*
X37521Y27620D02*
Y28080D01*
Y27620D02*
X38580D01*
Y28080D01*
X37590D02*
X38580D01*
X38510Y28220D02*
X38579D01*
Y28680D01*
X37520D02*
X38579D01*
X37520Y28220D02*
Y28680D01*
Y28220D02*
X38510D01*
X37520Y29420D02*
X38510D01*
X37520D02*
Y29880D01*
X38579D01*
Y29420D02*
Y29880D01*
X38510Y29420D02*
X38579D01*
X38505Y30620D02*
X38575D01*
Y31080D01*
X37515D02*
X38575D01*
X37515Y30620D02*
Y31080D01*
Y30620D02*
X38505D01*
X38510Y31220D02*
X38579D01*
Y31680D01*
X37520D02*
X38579D01*
X37520Y31220D02*
Y31680D01*
Y31220D02*
X38510D01*
Y31820D02*
X38579D01*
Y32280D01*
X37520D02*
X38579D01*
X37520Y31820D02*
Y32280D01*
Y31820D02*
X38510D01*
Y32420D02*
X38579D01*
Y32880D01*
X37520D02*
X38579D01*
X37520Y32420D02*
Y32880D01*
Y32420D02*
X38510D01*
X33320Y23071D02*
Y23140D01*
Y23071D02*
X33780D01*
Y24130D01*
X33320D02*
X33780D01*
X33320Y23140D02*
Y24130D01*
X32660Y22420D02*
X32729D01*
Y22880D01*
X31670D02*
X32729D01*
X31670Y22420D02*
Y22880D01*
Y22420D02*
X32660D01*
X24870Y36370D02*
X25860D01*
X24870D02*
Y36830D01*
X25929D01*
Y36370D02*
Y36830D01*
X25860Y36370D02*
X25929D01*
X24930Y36210D02*
X25910D01*
Y35690D02*
Y36210D01*
X24890Y35690D02*
X25910D01*
X24890D02*
Y36210D01*
X24930D01*
X34380Y35355D02*
Y35425D01*
X33920D02*
X34380D01*
X33920Y34365D02*
Y35425D01*
Y34365D02*
X34380D01*
Y35355D01*
X32720Y34371D02*
Y34440D01*
Y34371D02*
X33180D01*
Y35430D01*
X32720D02*
X33180D01*
X32720Y34440D02*
Y35430D01*
X32120Y34371D02*
Y34440D01*
Y34371D02*
X32580D01*
Y35430D01*
X32120D02*
X32580D01*
X32120Y34440D02*
Y35430D01*
X30730Y35360D02*
Y35429D01*
X30270D02*
X30730D01*
X30270Y34370D02*
Y35429D01*
Y34370D02*
X30730D01*
Y35360D01*
X30130Y34370D02*
Y35510D01*
X29470Y34370D02*
X30130D01*
X29470D02*
Y35630D01*
X30130D01*
Y35510D02*
Y35630D01*
X29350Y35370D02*
Y35439D01*
X28890D02*
X29350D01*
X28890Y34380D02*
Y35439D01*
Y34380D02*
X29350D01*
Y35370D01*
X27670Y34371D02*
Y34440D01*
Y34371D02*
X28130D01*
Y35430D01*
X27670D02*
X28130D01*
X27670Y34440D02*
Y35430D01*
X36192Y40664D02*
Y41644D01*
X36712D01*
Y40624D02*
Y41644D01*
X36192Y40624D02*
X36712D01*
X36192D02*
Y40664D01*
X36842D02*
Y41644D01*
X37362D01*
Y40624D02*
Y41644D01*
X36842Y40624D02*
X37362D01*
X36842D02*
Y40664D01*
X37932Y40604D02*
Y41594D01*
X37472Y40604D02*
X37932D01*
X37472D02*
Y41663D01*
X37932D01*
Y41594D02*
Y41663D01*
X37472Y39524D02*
Y40514D01*
X37932D01*
Y39455D02*
Y40514D01*
X37472Y39455D02*
X37932D01*
X37472D02*
Y39524D01*
X37962Y38324D02*
Y39304D01*
X37442Y38324D02*
X37962D01*
X37442D02*
Y39344D01*
X37962D01*
Y39304D02*
Y39344D01*
X36872Y39524D02*
Y40514D01*
X37332D01*
Y39455D02*
Y40514D01*
X36872Y39455D02*
X37332D01*
X36872D02*
Y39524D01*
X42187Y44219D02*
X42227D01*
Y44739D01*
X41207D02*
X42227D01*
X41207Y44219D02*
Y44739D01*
Y44219D02*
X42187D01*
X41127Y43649D02*
X42177D01*
X41127D02*
Y44109D01*
X42227D01*
Y43999D02*
Y44109D01*
Y43649D02*
Y43999D01*
X42177Y43649D02*
X42227D01*
X41247Y43539D02*
X42227D01*
Y43019D02*
Y43539D01*
X41207Y43019D02*
X42227D01*
X41207D02*
Y43539D01*
X41247D01*
X48707Y45409D02*
Y46389D01*
X49227D01*
Y45369D02*
Y46389D01*
X48707Y45369D02*
X49227D01*
X48707D02*
Y45409D01*
Y43909D02*
Y44889D01*
X49227D01*
Y43869D02*
Y44889D01*
X48707Y43869D02*
X49227D01*
X48707D02*
Y43909D01*
X46207Y45159D02*
Y46139D01*
X46727D01*
Y45119D02*
Y46139D01*
X46207Y45119D02*
X46727D01*
X46207D02*
Y45159D01*
Y43635D02*
Y44615D01*
X46727D01*
Y43595D02*
Y44615D01*
X46207Y43595D02*
X46727D01*
X46207D02*
Y43635D01*
X49054Y36950D02*
Y37000D01*
X48704D02*
X49054D01*
X48594D02*
X48704D01*
X48594Y35900D02*
Y37000D01*
Y35900D02*
X49054D01*
Y36950D01*
X47666Y35900D02*
Y35940D01*
Y35900D02*
X48186D01*
Y36920D01*
X47666D02*
X48186D01*
X47666Y35940D02*
Y36920D01*
X47317Y36950D02*
Y37000D01*
X46967D02*
X47317D01*
X46857D02*
X46967D01*
X46857Y35900D02*
Y37000D01*
Y35900D02*
X47317D01*
Y36950D01*
X45928Y35900D02*
Y35940D01*
Y35900D02*
X46448D01*
Y36920D01*
X45928D02*
X46448D01*
X45928Y35940D02*
Y36920D01*
X45579Y36950D02*
Y37000D01*
X45229D02*
X45579D01*
X45119D02*
X45229D01*
X45119Y35900D02*
Y37000D01*
Y35900D02*
X45579D01*
Y36950D01*
X44190Y35900D02*
Y35940D01*
Y35900D02*
X44710D01*
Y36920D01*
X44190D02*
X44710D01*
X44190Y35940D02*
Y36920D01*
X44422Y38929D02*
Y39919D01*
X44882D01*
Y38860D02*
Y39919D01*
X44422Y38860D02*
X44882D01*
X44422D02*
Y38929D01*
Y40024D02*
Y41014D01*
X44882D01*
Y39955D02*
Y41014D01*
X44422Y39955D02*
X44882D01*
X44422D02*
Y40024D01*
X43292Y39374D02*
X44272D01*
X43292D02*
Y39894D01*
X44312D01*
Y39374D02*
Y39894D01*
X44272Y39374D02*
X44312D01*
X43292Y39974D02*
X44272D01*
X43292D02*
Y40494D01*
X44312D01*
Y39974D02*
Y40494D01*
X44272Y39974D02*
X44312D01*
X42642Y40014D02*
Y40994D01*
X43162D01*
Y39974D02*
Y40994D01*
X42642Y39974D02*
X43162D01*
X42642D02*
Y40014D01*
Y38889D02*
Y39869D01*
X43162D01*
Y38849D02*
Y39869D01*
X42642Y38849D02*
X43162D01*
X42642D02*
Y38889D01*
X42412Y40524D02*
Y41504D01*
X41892Y40524D02*
X42412D01*
X41892D02*
Y41544D01*
X42412D01*
Y41504D02*
Y41544D01*
X41730Y41620D02*
Y42610D01*
X41270Y41620D02*
X41730D01*
X41270D02*
Y42679D01*
X41730D01*
Y42610D02*
Y42679D01*
X41762Y40524D02*
Y41504D01*
X41242Y40524D02*
X41762D01*
X41242D02*
Y41544D01*
X41762D01*
Y41504D02*
Y41544D01*
X42412Y39424D02*
Y40404D01*
X41892Y39424D02*
X42412D01*
X41892D02*
Y40444D01*
X42412D01*
Y40404D02*
Y40444D01*
X41922Y38324D02*
Y39314D01*
X42382D01*
Y38255D02*
Y39314D01*
X41922Y38255D02*
X42382D01*
X41922D02*
Y38324D01*
X38550Y44100D02*
Y45050D01*
X36700Y45550D02*
X38240D01*
X36300Y44100D02*
Y45050D01*
X36700Y43550D02*
X38250D01*
X38550Y47700D02*
Y48650D01*
X36700Y49150D02*
X38240D01*
X36300Y47700D02*
Y48650D01*
X36700Y47150D02*
X38250D01*
X23420Y46735D02*
Y47725D01*
X23880D01*
Y46666D02*
Y47725D01*
X23420Y46666D02*
X23880D01*
X23420D02*
Y46735D01*
X21190Y47930D02*
Y48910D01*
X21710D01*
Y47890D02*
Y48910D01*
X21190Y47890D02*
X21710D01*
X21190D02*
Y47930D01*
X22360Y47890D02*
Y48870D01*
X21840Y47890D02*
X22360D01*
X21840D02*
Y48910D01*
X22360D01*
Y48870D02*
Y48910D01*
X18889Y46157D02*
Y47147D01*
X19349D01*
Y46087D02*
Y47147D01*
X18889Y46087D02*
X19349D01*
X18889D02*
Y46157D01*
X17980Y47540D02*
X18620D01*
X17980Y45660D02*
Y47540D01*
Y45660D02*
X18620D01*
Y47540D01*
X18808Y48200D02*
Y49180D01*
X18288Y48200D02*
X18808D01*
X18288D02*
Y49220D01*
X18808D01*
Y49180D02*
Y49220D01*
X19020Y48200D02*
Y49250D01*
X19480D01*
Y48150D02*
Y49250D01*
X19370Y48150D02*
X19480D01*
X19020D02*
X19370D01*
X19020D02*
Y48200D01*
X15019Y37591D02*
Y38571D01*
X14499Y37591D02*
X15019D01*
X14499D02*
Y38611D01*
X15019D01*
Y38571D02*
Y38611D01*
X13817Y37641D02*
Y38691D01*
X14277D01*
Y37591D02*
Y38691D01*
X14167Y37591D02*
X14277D01*
X13817D02*
X14167D01*
X13817D02*
Y37641D01*
X16080Y36320D02*
Y37310D01*
X15620Y36320D02*
X16080D01*
X15620D02*
Y37379D01*
X16080D01*
Y37310D02*
Y37379D01*
X15480Y36320D02*
Y37310D01*
X15020Y36320D02*
X15480D01*
X15020D02*
Y37379D01*
X15480D01*
Y37310D02*
Y37379D01*
X14880Y36320D02*
Y37310D01*
X14420Y36320D02*
X14880D01*
X14420D02*
Y37379D01*
X14880D01*
Y37310D02*
Y37379D01*
X14280Y36320D02*
Y37310D01*
X13820Y36320D02*
X14280D01*
X13820D02*
Y37379D01*
X14280D01*
Y37310D02*
Y37379D01*
X15064Y35690D02*
X16044D01*
X15064D02*
Y36210D01*
X16084D01*
Y35690D02*
Y36210D01*
X16044Y35690D02*
X16084D01*
X13840D02*
X14820D01*
X13840D02*
Y36210D01*
X14860D01*
Y35690D02*
Y36210D01*
X14820Y35690D02*
X14860D01*
X13800Y35530D02*
X14850D01*
Y35070D02*
Y35530D01*
X13750Y35070D02*
X14850D01*
X13750D02*
Y35180D01*
Y35530D01*
X13800D01*
X42247Y45834D02*
Y45904D01*
X41787D02*
X42247D01*
X41787Y44844D02*
Y45904D01*
Y44844D02*
X42247D01*
Y45834D01*
X41697D02*
Y45904D01*
X41237D02*
X41697D01*
X41237Y44844D02*
Y45904D01*
Y44844D02*
X41697D01*
Y45834D01*
X20294Y26540D02*
X20334D01*
Y27060D01*
X19314D02*
X20334D01*
X19314Y26540D02*
Y27060D01*
Y26540D02*
X20294D01*
X24890Y36940D02*
Y36980D01*
Y36940D02*
X25410D01*
Y37960D01*
X24890D02*
X25410D01*
X24890Y36980D02*
Y37960D01*
X25540Y36940D02*
Y36980D01*
Y36940D02*
X26060D01*
Y37960D01*
X25540D02*
X26060D01*
X25540Y36980D02*
Y37960D01*
X27580Y31010D02*
Y31079D01*
X27120D02*
X27580D01*
X27120Y30020D02*
Y31079D01*
Y30020D02*
X27580D01*
Y31010D01*
X29870Y23090D02*
Y24080D01*
X30330D01*
Y23021D02*
Y24080D01*
X29870Y23021D02*
X30330D01*
X29870D02*
Y23090D01*
X30470D02*
Y24080D01*
X30930D01*
Y23021D02*
Y24080D01*
X30470Y23021D02*
X30930D01*
X30470D02*
Y23090D01*
D13*
X22104Y46109D02*
G03*
X22104Y46109I-118J0D01*
G01*
X39504Y40575D02*
G03*
X39504Y40575I-118J0D01*
G01*
D14*
X11509Y46050D02*
G03*
X11509Y46050I-709J0D01*
G01*
X14309Y41050D02*
G03*
X14309Y41050I-709J0D01*
G01*
Y43150D02*
G03*
X14309Y43150I-709J0D01*
G01*
X41615Y22457D02*
G03*
X41615Y22457I-709J0D01*
G01*
X39994Y22457D02*
G03*
X39994Y22457I-709J0D01*
G01*
X33009Y39300D02*
G03*
X33009Y39300I-709J0D01*
G01*
X14155Y22692D02*
G03*
X14155Y22692I-709J0D01*
G01*
X34209Y44600D02*
G03*
X34209Y44600I-709J0D01*
G01*
X47209Y47200D02*
G03*
X47209Y47200I-709J0D01*
G01*
X16850Y37648D02*
X23956D01*
X16850Y27766D02*
Y37648D01*
Y27766D02*
X23986D01*
Y40049D01*
X16850D02*
X23986D01*
X16850Y37648D02*
Y40049D01*
X23051Y37648D02*
Y39695D01*
X22175D02*
X23051D01*
X22175Y38278D02*
Y39695D01*
X21289Y38278D02*
X22175D01*
X21289D02*
Y39665D01*
X20472D02*
X21289D01*
X20472Y38258D02*
Y39665D01*
X19576Y38258D02*
X20472D01*
X19576D02*
Y39646D01*
X18720D02*
X19576D01*
X18720Y38219D02*
Y39646D01*
X17824Y38219D02*
X18720D01*
X17824D02*
Y39636D01*
D15*
X16712Y37657D02*
G03*
X16712Y37657I-98J0D01*
G01*
X33225Y23895D02*
G03*
X33225Y23895I-39J0D01*
G01*
X37961Y24112D02*
X38039D01*
X37961Y24388D02*
X38039D01*
X37961Y24988D02*
X38039D01*
X37961Y24712D02*
X38039D01*
X37961Y25588D02*
X38039D01*
X37961Y25312D02*
X38039D01*
X37961Y25912D02*
X38039D01*
X37961Y26188D02*
X38039D01*
X37961Y27112D02*
X38039D01*
X37961Y27388D02*
X38039D01*
X37961Y28912D02*
X38039D01*
X37961Y29188D02*
X38039D01*
X37961Y30112D02*
X38039D01*
X37961Y30388D02*
X38039D01*
X34938Y34861D02*
Y34939D01*
X34662Y34861D02*
Y34939D01*
X33706Y34814D02*
Y34893D01*
X33394Y34814D02*
Y34893D01*
X31888Y34811D02*
Y34889D01*
X31612Y34811D02*
Y34889D01*
X30962Y34811D02*
Y34889D01*
X31238Y34811D02*
Y34889D01*
X28656Y34814D02*
Y34893D01*
X28344Y34814D02*
Y34893D01*
X40964Y45833D02*
X41042D01*
X40964Y45125D02*
X41042D01*
X40491Y45833D02*
X40570D01*
X40491Y45125D02*
X40570D01*
X41042D02*
Y45833D01*
X40491Y45125D02*
Y45833D01*
X48102Y45009D02*
Y45323D01*
X47708Y45009D02*
X48102D01*
Y45875D02*
Y46190D01*
X47708D02*
X48102D01*
X48092Y43488D02*
Y43803D01*
X47699Y43488D02*
X48092D01*
Y44355D02*
Y44670D01*
X47699D02*
X48092D01*
X49023Y39967D02*
Y42101D01*
X46681D02*
X49023D01*
X46681Y39967D02*
Y42101D01*
Y39967D02*
X49023D01*
Y37567D02*
Y39701D01*
X46681D02*
X49023D01*
X46681Y37567D02*
Y39701D01*
Y37567D02*
X49023D01*
X28316Y48096D02*
X29104Y48884D01*
X30796D02*
X31584Y48096D01*
X29104Y48884D02*
X29497D01*
X30403D02*
X30796D01*
X28316Y45616D02*
Y48096D01*
X31584Y45616D02*
Y48096D01*
X28316Y45616D02*
X29497D01*
X30442D02*
X31584D01*
X25351Y46217D02*
Y48383D01*
X24249Y46217D02*
Y48383D01*
X25263D02*
X25351D01*
X25263Y46217D02*
X25351D01*
X24249Y48383D02*
X24337D01*
X24249Y46217D02*
X24337D01*
X22380Y45716D02*
Y47684D01*
X21120Y45716D02*
Y47684D01*
Y45716D02*
X22380D01*
X21120Y47684D02*
X22380D01*
X17563Y47283D02*
X17651D01*
X17563Y45117D02*
X17651D01*
X16549Y47283D02*
X16637D01*
X16549Y45117D02*
X16637D01*
X17651D02*
Y47283D01*
X16549Y45117D02*
Y47283D01*
X10272Y25809D02*
X13146D01*
X10272Y39589D02*
X13146D01*
X10272Y25809D02*
Y39589D01*
X13146Y25809D02*
Y39589D01*
X45439Y40052D02*
X46266D01*
X45439Y39816D02*
X46266D01*
Y40052D01*
X45439Y39816D02*
Y40052D01*
X38992Y39000D02*
X40212D01*
X38992Y40968D02*
X40212D01*
Y39000D02*
Y40968D01*
X38992Y39000D02*
Y40968D01*
X42877Y44726D02*
Y44972D01*
X43123D01*
X42877Y42886D02*
Y43132D01*
Y42886D02*
X43123D01*
X44717D02*
X44963D01*
Y43132D01*
Y44726D02*
Y44972D01*
X44717D02*
X44963D01*
X43935Y45866D02*
Y46692D01*
X43699Y45866D02*
Y46692D01*
Y45866D02*
X43935D01*
X43699Y46692D02*
X43935D01*
X44495Y47680D02*
X44830D01*
X45342Y48329D02*
Y48861D01*
X42192Y48329D02*
Y48861D01*
X42704Y47680D02*
X43039D01*
X34051Y40117D02*
Y42283D01*
X32949Y40117D02*
Y42283D01*
X33963D02*
X34051D01*
X33963Y40117D02*
X34051D01*
X32949Y42283D02*
X33037D01*
X32949Y40117D02*
X33037D01*
X32061Y24738D02*
X32139D01*
X32061Y24462D02*
X32139D01*
X33161Y27954D02*
Y30946D01*
X29539Y27954D02*
Y30946D01*
X29854Y27639D02*
X32846D01*
X29854Y31261D02*
X32846D01*
Y27639D02*
X33161Y27954D01*
X29539D02*
X29854Y27639D01*
X32846Y31261D02*
X33161Y30946D01*
X29539D02*
X29854Y31261D01*
X32570Y27954D02*
X33161D01*
X32570D02*
Y28151D01*
X33161D01*
X38011Y33112D02*
X38089D01*
X38011Y33388D02*
X38089D01*
X28657Y22022D02*
Y24896D01*
X14877Y22022D02*
Y24896D01*
Y22022D02*
X28657D01*
X14877Y24896D02*
X28657D01*
X32654Y47873D02*
Y48227D01*
X34346Y47873D02*
Y48227D01*
X25667Y46983D02*
Y47417D01*
X27833Y46983D02*
Y47417D01*
X15218Y42957D02*
X16281D01*
X15218Y44143D02*
X16281D01*
X30709Y44299D02*
X31299Y43709D01*
X30709Y41701D02*
X31299Y42291D01*
X28701Y41701D02*
Y42508D01*
Y43453D02*
Y44299D01*
Y41701D02*
X30709D01*
X28701Y44299D02*
X30709D01*
X31299Y42291D02*
Y42547D01*
Y43453D02*
Y43709D01*
D16*
X42579Y25307D02*
G03*
X42579Y25307I-59J0D01*
G01*
D17*
X36300Y45690D02*
X36310Y45700D01*
X36300Y49290D02*
X36310Y49300D01*
X12550Y50550D02*
X15850D01*
X12550Y45100D02*
X15850D01*
Y50550D01*
X12550Y45100D02*
Y50550D01*
Y49850D02*
X15850D01*
D18*
X20100Y46330D02*
Y46670D01*
X19600Y46330D02*
Y46670D01*
D19*
X19510Y45740D02*
Y47270D01*
Y45740D02*
X20180D01*
Y47270D01*
X19510D02*
X20180D01*
X40874Y25700D02*
Y32000D01*
X49299Y25700D02*
Y32000D01*
X44409D02*
X49299D01*
X40874D02*
X43189D01*
X44409Y25700D02*
X49299D01*
X40874D02*
X43189D01*
X36633Y24140D02*
Y24340D01*
X36733D01*
X36767Y24307D01*
Y24240D01*
X36733Y24207D01*
X36633D01*
X36700D02*
X36767Y24140D01*
X36967D02*
X36833D01*
X36967Y24273D01*
Y24307D01*
X36933Y24340D01*
X36867D01*
X36833Y24307D01*
X37167Y24140D02*
X37033D01*
X37167Y24273D01*
Y24307D01*
X37133Y24340D01*
X37067D01*
X37033Y24307D01*
X36633Y24740D02*
Y24940D01*
X36733D01*
X36767Y24907D01*
Y24840D01*
X36733Y24807D01*
X36633D01*
X36700D02*
X36767Y24740D01*
X36967D02*
X36833D01*
X36967Y24873D01*
Y24907D01*
X36933Y24940D01*
X36867D01*
X36833Y24907D01*
X37033D02*
X37067Y24940D01*
X37133D01*
X37167Y24907D01*
Y24773D01*
X37133Y24740D01*
X37067D01*
X37033Y24773D01*
Y24907D01*
X36633Y25340D02*
Y25540D01*
X36733D01*
X36767Y25507D01*
Y25440D01*
X36733Y25407D01*
X36633D01*
X36700D02*
X36767Y25340D01*
X36967D02*
X36833D01*
X36967Y25473D01*
Y25507D01*
X36933Y25540D01*
X36867D01*
X36833Y25507D01*
X37033Y25340D02*
X37100D01*
X37067D01*
Y25540D01*
X37033Y25507D01*
X36633Y25940D02*
Y26140D01*
X36733D01*
X36767Y26107D01*
Y26040D01*
X36733Y26007D01*
X36633D01*
X36700D02*
X36767Y25940D01*
X36967D02*
X36833D01*
X36967Y26073D01*
Y26107D01*
X36933Y26140D01*
X36867D01*
X36833Y26107D01*
X37133Y25940D02*
Y26140D01*
X37033Y26040D01*
X37167D01*
X36767Y26687D02*
X36733Y26720D01*
X36667D01*
X36633Y26687D01*
Y26553D01*
X36667Y26520D01*
X36733D01*
X36767Y26553D01*
X36833Y26520D02*
X36900D01*
X36867D01*
Y26720D01*
X36833Y26687D01*
X37133Y26520D02*
X37000D01*
X37133Y26653D01*
Y26687D01*
X37100Y26720D01*
X37033D01*
X37000Y26687D01*
X36633Y27140D02*
Y27340D01*
X36733D01*
X36767Y27307D01*
Y27240D01*
X36733Y27207D01*
X36633D01*
X36700D02*
X36767Y27140D01*
X36967D02*
X36833D01*
X36967Y27273D01*
Y27307D01*
X36933Y27340D01*
X36867D01*
X36833Y27307D01*
X37167Y27340D02*
X37033D01*
Y27240D01*
X37100Y27273D01*
X37133D01*
X37167Y27240D01*
Y27173D01*
X37133Y27140D01*
X37067D01*
X37033Y27173D01*
X36767Y27887D02*
X36733Y27920D01*
X36667D01*
X36633Y27887D01*
Y27753D01*
X36667Y27720D01*
X36733D01*
X36767Y27753D01*
X36833Y27720D02*
X36900D01*
X36867D01*
Y27920D01*
X36833Y27887D01*
X37000Y27720D02*
X37067D01*
X37033D01*
Y27920D01*
X37000Y27887D01*
X36767Y28487D02*
X36733Y28520D01*
X36667D01*
X36633Y28487D01*
Y28353D01*
X36667Y28320D01*
X36733D01*
X36767Y28353D01*
X36833Y28320D02*
X36900D01*
X36867D01*
Y28520D01*
X36833Y28487D01*
X37133Y28520D02*
X37000D01*
Y28420D01*
X37067Y28453D01*
X37100D01*
X37133Y28420D01*
Y28353D01*
X37100Y28320D01*
X37033D01*
X37000Y28353D01*
X36633Y28940D02*
Y29140D01*
X36733D01*
X36767Y29107D01*
Y29040D01*
X36733Y29007D01*
X36633D01*
X36700D02*
X36767Y28940D01*
X36833D02*
X36900D01*
X36867D01*
Y29140D01*
X36833Y29107D01*
X37000D02*
X37033Y29140D01*
X37100D01*
X37133Y29107D01*
Y29073D01*
X37100Y29040D01*
X37133Y29007D01*
Y28973D01*
X37100Y28940D01*
X37033D01*
X37000Y28973D01*
Y29007D01*
X37033Y29040D01*
X37000Y29073D01*
Y29107D01*
X37033Y29040D02*
X37100D01*
X36767Y29687D02*
X36733Y29720D01*
X36667D01*
X36633Y29687D01*
Y29553D01*
X36667Y29520D01*
X36733D01*
X36767Y29553D01*
X36833Y29520D02*
X36900D01*
X36867D01*
Y29720D01*
X36833Y29687D01*
X37000D02*
X37033Y29720D01*
X37100D01*
X37133Y29687D01*
Y29553D01*
X37100Y29520D01*
X37033D01*
X37000Y29553D01*
Y29687D01*
X36633Y30140D02*
Y30340D01*
X36733D01*
X36767Y30307D01*
Y30240D01*
X36733Y30207D01*
X36633D01*
X36700D02*
X36767Y30140D01*
X36833D02*
X36900D01*
X36867D01*
Y30340D01*
X36833Y30307D01*
X37000Y30173D02*
X37033Y30140D01*
X37100D01*
X37133Y30173D01*
Y30307D01*
X37100Y30340D01*
X37033D01*
X37000Y30307D01*
Y30273D01*
X37033Y30240D01*
X37133D01*
X36767Y30887D02*
X36733Y30920D01*
X36667D01*
X36633Y30887D01*
Y30753D01*
X36667Y30720D01*
X36733D01*
X36767Y30753D01*
X36967Y30720D02*
X36833D01*
X36967Y30853D01*
Y30887D01*
X36933Y30920D01*
X36867D01*
X36833Y30887D01*
X37033D02*
X37067Y30920D01*
X37133D01*
X37167Y30887D01*
Y30853D01*
X37133Y30820D01*
X37100D01*
X37133D01*
X37167Y30787D01*
Y30753D01*
X37133Y30720D01*
X37067D01*
X37033Y30753D01*
X36767Y31487D02*
X36733Y31520D01*
X36667D01*
X36633Y31487D01*
Y31353D01*
X36667Y31320D01*
X36733D01*
X36767Y31353D01*
X36967Y31320D02*
X36833D01*
X36967Y31453D01*
Y31487D01*
X36933Y31520D01*
X36867D01*
X36833Y31487D01*
X37033D02*
X37067Y31520D01*
X37133D01*
X37167Y31487D01*
Y31353D01*
X37133Y31320D01*
X37067D01*
X37033Y31353D01*
Y31487D01*
X36767Y32087D02*
X36733Y32120D01*
X36667D01*
X36633Y32087D01*
Y31953D01*
X36667Y31920D01*
X36733D01*
X36767Y31953D01*
X36833Y31920D02*
X36900D01*
X36867D01*
Y32120D01*
X36833Y32087D01*
X37000D02*
X37033Y32120D01*
X37100D01*
X37133Y32087D01*
Y32053D01*
X37100Y32020D01*
X37133Y31987D01*
Y31953D01*
X37100Y31920D01*
X37033D01*
X37000Y31953D01*
Y31987D01*
X37033Y32020D01*
X37000Y32053D01*
Y32087D01*
X37033Y32020D02*
X37100D01*
X36767Y32687D02*
X36733Y32720D01*
X36667D01*
X36633Y32687D01*
Y32553D01*
X36667Y32520D01*
X36733D01*
X36767Y32553D01*
X36967Y32520D02*
X36833D01*
X36967Y32653D01*
Y32687D01*
X36933Y32720D01*
X36867D01*
X36833Y32687D01*
X37167Y32520D02*
X37033D01*
X37167Y32653D01*
Y32687D01*
X37133Y32720D01*
X37067D01*
X37033Y32687D01*
X36633Y33100D02*
Y33300D01*
X36733D01*
X36767Y33267D01*
Y33200D01*
X36733Y33167D01*
X36633D01*
X36700D02*
X36767Y33100D01*
X36967D02*
X36833D01*
X36967Y33233D01*
Y33267D01*
X36933Y33300D01*
X36867D01*
X36833Y33267D01*
X37033D02*
X37067Y33300D01*
X37133D01*
X37167Y33267D01*
Y33233D01*
X37133Y33200D01*
X37100D01*
X37133D01*
X37167Y33167D01*
Y33133D01*
X37133Y33100D01*
X37067D01*
X37033Y33133D01*
X33483Y22533D02*
X33450Y22500D01*
Y22433D01*
X33483Y22400D01*
X33617D01*
X33650Y22433D01*
Y22500D01*
X33617Y22533D01*
X33650Y22600D02*
Y22667D01*
Y22633D01*
X33450D01*
X33483Y22600D01*
Y22767D02*
X33450Y22800D01*
Y22867D01*
X33483Y22900D01*
X33517D01*
X33550Y22867D01*
Y22833D01*
Y22867D01*
X33583Y22900D01*
X33617D01*
X33650Y22867D01*
Y22800D01*
X33617Y22767D01*
X31133Y22717D02*
X31100Y22750D01*
X31033D01*
X31000Y22717D01*
Y22583D01*
X31033Y22550D01*
X31100D01*
X31133Y22583D01*
X31200Y22550D02*
X31267D01*
X31233D01*
Y22750D01*
X31200Y22717D01*
X31500Y22750D02*
X31433Y22717D01*
X31367Y22650D01*
Y22583D01*
X31400Y22550D01*
X31467D01*
X31500Y22583D01*
Y22617D01*
X31467Y22650D01*
X31367D01*
X26217Y36667D02*
X26183Y36700D01*
X26117D01*
X26083Y36667D01*
Y36533D01*
X26117Y36500D01*
X26183D01*
X26217Y36533D01*
X26283Y36667D02*
X26317Y36700D01*
X26383D01*
X26417Y36667D01*
Y36633D01*
X26383Y36600D01*
X26350D01*
X26383D01*
X26417Y36567D01*
Y36533D01*
X26383Y36500D01*
X26317D01*
X26283Y36533D01*
X26133Y35850D02*
Y36050D01*
X26233D01*
X26267Y36017D01*
Y35950D01*
X26233Y35917D01*
X26133D01*
X26200D02*
X26267Y35850D01*
X26433D02*
Y36050D01*
X26333Y35950D01*
X26467D01*
X34900Y35583D02*
X34700D01*
Y35683D01*
X34733Y35717D01*
X34800D01*
X34833Y35683D01*
Y35583D01*
Y35650D02*
X34900Y35717D01*
Y35917D02*
Y35783D01*
X34767Y35917D01*
X34733D01*
X34700Y35883D01*
Y35817D01*
X34733Y35783D01*
Y35983D02*
X34700Y36017D01*
Y36083D01*
X34733Y36117D01*
X34767D01*
X34800Y36083D01*
X34833Y36117D01*
X34867D01*
X34900Y36083D01*
Y36017D01*
X34867Y35983D01*
X34833D01*
X34800Y36017D01*
X34767Y35983D01*
X34733D01*
X34800Y36017D02*
Y36083D01*
X34083Y35717D02*
X34050Y35683D01*
Y35617D01*
X34083Y35583D01*
X34217D01*
X34250Y35617D01*
Y35683D01*
X34217Y35717D01*
X34250Y35917D02*
Y35783D01*
X34117Y35917D01*
X34083D01*
X34050Y35883D01*
Y35817D01*
X34083Y35783D01*
X34050Y35983D02*
Y36117D01*
X34083D01*
X34217Y35983D01*
X34250D01*
X33450Y35583D02*
X33650D01*
Y35717D01*
Y35917D02*
Y35783D01*
X33517Y35917D01*
X33483D01*
X33450Y35883D01*
Y35817D01*
X33483Y35783D01*
X32883Y35717D02*
X32850Y35683D01*
Y35617D01*
X32883Y35583D01*
X33017D01*
X33050Y35617D01*
Y35683D01*
X33017Y35717D01*
X33050Y35917D02*
Y35783D01*
X32917Y35917D01*
X32883D01*
X32850Y35883D01*
Y35817D01*
X32883Y35783D01*
Y35983D02*
X32850Y36017D01*
Y36083D01*
X32883Y36117D01*
X32917D01*
X32950Y36083D01*
X32983Y36117D01*
X33017D01*
X33050Y36083D01*
Y36017D01*
X33017Y35983D01*
X32983D01*
X32950Y36017D01*
X32917Y35983D01*
X32883D01*
X32950Y36017D02*
Y36083D01*
X32283Y35717D02*
X32250Y35683D01*
Y35617D01*
X32283Y35583D01*
X32417D01*
X32450Y35617D01*
Y35683D01*
X32417Y35717D01*
X32450Y35917D02*
Y35783D01*
X32317Y35917D01*
X32283D01*
X32250Y35883D01*
Y35817D01*
X32283Y35783D01*
X32417Y35983D02*
X32450Y36017D01*
Y36083D01*
X32417Y36117D01*
X32283D01*
X32250Y36083D01*
Y36017D01*
X32283Y35983D01*
X32317D01*
X32350Y36017D01*
Y36117D01*
X31850Y35583D02*
X31650D01*
Y35683D01*
X31683Y35717D01*
X31750D01*
X31783Y35683D01*
Y35583D01*
Y35650D02*
X31850Y35717D01*
Y35917D02*
Y35783D01*
X31717Y35917D01*
X31683D01*
X31650Y35883D01*
Y35817D01*
X31683Y35783D01*
X31650Y36117D02*
X31683Y36050D01*
X31750Y35983D01*
X31817D01*
X31850Y36017D01*
Y36083D01*
X31817Y36117D01*
X31783D01*
X31750Y36083D01*
Y35983D01*
X31200Y35583D02*
X31000D01*
Y35683D01*
X31033Y35717D01*
X31100D01*
X31133Y35683D01*
Y35583D01*
Y35650D02*
X31200Y35717D01*
Y35917D02*
Y35783D01*
X31067Y35917D01*
X31033D01*
X31000Y35883D01*
Y35817D01*
X31033Y35783D01*
X31167Y35983D02*
X31200Y36017D01*
Y36083D01*
X31167Y36117D01*
X31033D01*
X31000Y36083D01*
Y36017D01*
X31033Y35983D01*
X31067D01*
X31100Y36017D01*
Y36117D01*
X30433Y35733D02*
X30400Y35700D01*
Y35633D01*
X30433Y35600D01*
X30567D01*
X30600Y35633D01*
Y35700D01*
X30567Y35733D01*
X30600Y35800D02*
Y35867D01*
Y35833D01*
X30400D01*
X30433Y35800D01*
X30400Y35967D02*
Y36100D01*
X30433D01*
X30567Y35967D01*
X30600D01*
X29733Y35917D02*
X29700Y35883D01*
Y35817D01*
X29733Y35783D01*
X29867D01*
X29900Y35817D01*
Y35883D01*
X29867Y35917D01*
X29900Y36117D02*
Y35983D01*
X29767Y36117D01*
X29733D01*
X29700Y36083D01*
Y36017D01*
X29733Y35983D01*
X29900Y36283D02*
X29700D01*
X29800Y36183D01*
Y36317D01*
X29033Y35767D02*
X29000Y35733D01*
Y35667D01*
X29033Y35633D01*
X29167D01*
X29200Y35667D01*
Y35733D01*
X29167Y35767D01*
X29200Y35967D02*
Y35833D01*
X29067Y35967D01*
X29033D01*
X29000Y35933D01*
Y35867D01*
X29033Y35833D01*
X29000Y36167D02*
Y36033D01*
X29100D01*
X29067Y36100D01*
Y36133D01*
X29100Y36167D01*
X29167D01*
X29200Y36133D01*
Y36067D01*
X29167Y36033D01*
X28400Y35617D02*
X28600D01*
Y35750D01*
Y35817D02*
Y35883D01*
Y35850D01*
X28400D01*
X28433Y35817D01*
X27883Y35717D02*
X27850Y35683D01*
Y35617D01*
X27883Y35583D01*
X28017D01*
X28050Y35617D01*
Y35683D01*
X28017Y35717D01*
X28050Y35917D02*
Y35783D01*
X27917Y35917D01*
X27883D01*
X27850Y35883D01*
Y35817D01*
X27883Y35783D01*
X27850Y36117D02*
X27883Y36050D01*
X27950Y35983D01*
X28017D01*
X28050Y36017D01*
Y36083D01*
X28017Y36117D01*
X27983D01*
X27950Y36083D01*
Y35983D01*
X35883Y37550D02*
Y37750D01*
X35983D01*
X36017Y37717D01*
Y37650D01*
X35983Y37617D01*
X35883D01*
X35950D02*
X36017Y37550D01*
X36083Y37717D02*
X36117Y37750D01*
X36183D01*
X36217Y37717D01*
Y37683D01*
X36183Y37650D01*
X36150D01*
X36183D01*
X36217Y37617D01*
Y37583D01*
X36183Y37550D01*
X36117D01*
X36083Y37583D01*
X36417Y37750D02*
X36350Y37717D01*
X36283Y37650D01*
Y37583D01*
X36317Y37550D01*
X36383D01*
X36417Y37583D01*
Y37617D01*
X36383Y37650D01*
X36283D01*
X36633Y37550D02*
Y37750D01*
X36733D01*
X36767Y37717D01*
Y37650D01*
X36733Y37617D01*
X36633D01*
X36700D02*
X36767Y37550D01*
X36833Y37717D02*
X36867Y37750D01*
X36933D01*
X36967Y37717D01*
Y37683D01*
X36933Y37650D01*
X36900D01*
X36933D01*
X36967Y37617D01*
Y37583D01*
X36933Y37550D01*
X36867D01*
X36833Y37583D01*
X37167Y37750D02*
X37033D01*
Y37650D01*
X37100Y37683D01*
X37133D01*
X37167Y37650D01*
Y37583D01*
X37133Y37550D01*
X37067D01*
X37033Y37583D01*
X37517Y37717D02*
X37483Y37750D01*
X37417D01*
X37383Y37717D01*
Y37583D01*
X37417Y37550D01*
X37483D01*
X37517Y37583D01*
X37583Y37717D02*
X37617Y37750D01*
X37683D01*
X37717Y37717D01*
Y37683D01*
X37683Y37650D01*
X37650D01*
X37683D01*
X37717Y37617D01*
Y37583D01*
X37683Y37550D01*
X37617D01*
X37583Y37583D01*
X37917Y37750D02*
X37850Y37717D01*
X37783Y37650D01*
Y37583D01*
X37817Y37550D01*
X37883D01*
X37917Y37583D01*
Y37617D01*
X37883Y37650D01*
X37783D01*
X37517Y37317D02*
X37483Y37350D01*
X37417D01*
X37383Y37317D01*
Y37183D01*
X37417Y37150D01*
X37483D01*
X37517Y37183D01*
X37583Y37317D02*
X37617Y37350D01*
X37683D01*
X37717Y37317D01*
Y37283D01*
X37683Y37250D01*
X37650D01*
X37683D01*
X37717Y37217D01*
Y37183D01*
X37683Y37150D01*
X37617D01*
X37583Y37183D01*
X37783Y37317D02*
X37817Y37350D01*
X37883D01*
X37917Y37317D01*
Y37283D01*
X37883Y37250D01*
X37917Y37217D01*
Y37183D01*
X37883Y37150D01*
X37817D01*
X37783Y37183D01*
Y37217D01*
X37817Y37250D01*
X37783Y37283D01*
Y37317D01*
X37817Y37250D02*
X37883D01*
X37417Y36750D02*
Y36950D01*
X37517D01*
X37550Y36917D01*
Y36850D01*
X37517Y36817D01*
X37417D01*
X37483D02*
X37550Y36750D01*
X37717D02*
Y36950D01*
X37617Y36850D01*
X37750D01*
X37817Y36750D02*
X37883D01*
X37850D01*
Y36950D01*
X37817Y36917D01*
X36767Y37317D02*
X36733Y37350D01*
X36667D01*
X36633Y37317D01*
Y37183D01*
X36667Y37150D01*
X36733D01*
X36767Y37183D01*
X36833Y37317D02*
X36867Y37350D01*
X36933D01*
X36967Y37317D01*
Y37283D01*
X36933Y37250D01*
X36900D01*
X36933D01*
X36967Y37217D01*
Y37183D01*
X36933Y37150D01*
X36867D01*
X36833Y37183D01*
X37033D02*
X37067Y37150D01*
X37133D01*
X37167Y37183D01*
Y37317D01*
X37133Y37350D01*
X37067D01*
X37033Y37317D01*
Y37283D01*
X37067Y37250D01*
X37167D01*
X40433Y46500D02*
Y46300D01*
X40533D01*
X40567Y46333D01*
Y46467D01*
X40533Y46500D01*
X40433D01*
X40767D02*
X40700Y46467D01*
X40633Y46400D01*
Y46333D01*
X40667Y46300D01*
X40733D01*
X40767Y46333D01*
Y46367D01*
X40733Y46400D01*
X40633D01*
X40350Y44350D02*
Y44550D01*
X40450D01*
X40483Y44517D01*
Y44450D01*
X40450Y44417D01*
X40350D01*
X40417D02*
X40483Y44350D01*
X40550D02*
X40617D01*
X40583D01*
Y44550D01*
X40550Y44517D01*
X40717D02*
X40750Y44550D01*
X40817D01*
X40850Y44517D01*
Y44483D01*
X40817Y44450D01*
X40783D01*
X40817D01*
X40850Y44417D01*
Y44383D01*
X40817Y44350D01*
X40750D01*
X40717Y44383D01*
X40383Y43950D02*
Y43750D01*
X40483D01*
X40517Y43783D01*
Y43917D01*
X40483Y43950D01*
X40383D01*
X40717D02*
X40583D01*
Y43850D01*
X40650Y43883D01*
X40683D01*
X40717Y43850D01*
Y43783D01*
X40683Y43750D01*
X40617D01*
X40583Y43783D01*
X41034Y43850D02*
X40777D01*
X40905Y43979D02*
Y43722D01*
X40350Y43200D02*
Y43400D01*
X40450D01*
X40483Y43367D01*
Y43300D01*
X40450Y43267D01*
X40350D01*
X40417D02*
X40483Y43200D01*
X40550D02*
X40617D01*
X40583D01*
Y43400D01*
X40550Y43367D01*
X40850Y43400D02*
X40783Y43367D01*
X40717Y43300D01*
Y43233D01*
X40750Y43200D01*
X40817D01*
X40850Y43233D01*
Y43267D01*
X40817Y43300D01*
X40717D01*
X49100Y46550D02*
X48900D01*
Y46650D01*
X48933Y46683D01*
X49000D01*
X49033Y46650D01*
Y46550D01*
Y46617D02*
X49100Y46683D01*
Y46750D02*
Y46817D01*
Y46783D01*
X48900D01*
X48933Y46750D01*
X48900Y46917D02*
Y47050D01*
X48933D01*
X49067Y46917D01*
X49100D01*
X49050Y43150D02*
X48850D01*
Y43250D01*
X48883Y43283D01*
X48950D01*
X48983Y43250D01*
Y43150D01*
Y43217D02*
X49050Y43283D01*
Y43350D02*
Y43417D01*
Y43383D01*
X48850D01*
X48883Y43350D01*
X49050Y43650D02*
Y43517D01*
X48917Y43650D01*
X48883D01*
X48850Y43617D01*
Y43550D01*
X48883Y43517D01*
X47917Y46433D02*
Y46567D01*
X47883Y46600D01*
X47817D01*
X47783Y46567D01*
Y46433D01*
X47817Y46400D01*
X47883D01*
X47850Y46467D02*
X47917Y46400D01*
X47883D02*
X47917Y46433D01*
X48117Y46400D02*
X47983D01*
X48117Y46533D01*
Y46567D01*
X48083Y46600D01*
X48017D01*
X47983Y46567D01*
X47950Y43083D02*
Y43217D01*
X47917Y43250D01*
X47850D01*
X47817Y43217D01*
Y43083D01*
X47850Y43050D01*
X47917D01*
X47883Y43117D02*
X47950Y43050D01*
X47917D02*
X47950Y43083D01*
X48017Y43050D02*
X48083D01*
X48050D01*
Y43250D01*
X48017Y43217D01*
X45950Y45400D02*
X45750D01*
Y45500D01*
X45783Y45533D01*
X45850D01*
X45883Y45500D01*
Y45400D01*
Y45467D02*
X45950Y45533D01*
Y45600D02*
Y45667D01*
Y45633D01*
X45750D01*
X45783Y45600D01*
X45750Y45900D02*
Y45767D01*
X45850D01*
X45817Y45833D01*
Y45867D01*
X45850Y45900D01*
X45917D01*
X45950Y45867D01*
Y45800D01*
X45917Y45767D01*
X45950Y43850D02*
X45750D01*
Y43950D01*
X45783Y43983D01*
X45850D01*
X45883Y43950D01*
Y43850D01*
Y43917D02*
X45950Y43983D01*
Y44050D02*
Y44117D01*
Y44083D01*
X45750D01*
X45783Y44050D01*
X45950Y44317D02*
X45750D01*
X45850Y44217D01*
Y44350D01*
X46133Y41900D02*
Y42100D01*
X46233D01*
X46267Y42067D01*
Y42000D01*
X46233Y41967D01*
X46133D01*
X46467Y42100D02*
X46333D01*
Y42000D01*
X46400Y42033D01*
X46433D01*
X46467Y42000D01*
Y41933D01*
X46433Y41900D01*
X46367D01*
X46333Y41933D01*
X46133Y37600D02*
Y37800D01*
X46233D01*
X46267Y37767D01*
Y37700D01*
X46233Y37667D01*
X46133D01*
X46433Y37600D02*
Y37800D01*
X46333Y37700D01*
X46467D01*
X48750Y34933D02*
X48950D01*
Y35033D01*
X48917Y35067D01*
X48783D01*
X48750Y35033D01*
Y34933D01*
X48783Y35133D02*
X48750Y35167D01*
Y35233D01*
X48783Y35267D01*
X48817D01*
X48850Y35233D01*
Y35200D01*
Y35233D01*
X48883Y35267D01*
X48917D01*
X48950Y35233D01*
Y35167D01*
X48917Y35133D01*
X48853Y35807D02*
Y35550D01*
X48724Y35679D02*
X48982D01*
X48000Y35000D02*
X47800D01*
Y35100D01*
X47833Y35133D01*
X47900D01*
X47933Y35100D01*
Y35000D01*
Y35067D02*
X48000Y35133D01*
Y35200D02*
Y35267D01*
Y35233D01*
X47800D01*
X47833Y35200D01*
Y35367D02*
X47800Y35400D01*
Y35467D01*
X47833Y35500D01*
X47967D01*
X48000Y35467D01*
Y35400D01*
X47967Y35367D01*
X47833D01*
X47000Y35033D02*
X47200D01*
Y35133D01*
X47167Y35167D01*
X47033D01*
X47000Y35133D01*
Y35033D01*
X47200Y35367D02*
Y35233D01*
X47067Y35367D01*
X47033D01*
X47000Y35333D01*
Y35267D01*
X47033Y35233D01*
X47115Y35807D02*
Y35550D01*
X46987Y35679D02*
X47244D01*
X46300Y35033D02*
X46100D01*
Y35133D01*
X46133Y35167D01*
X46200D01*
X46233Y35133D01*
Y35033D01*
Y35100D02*
X46300Y35167D01*
X46267Y35233D02*
X46300Y35267D01*
Y35333D01*
X46267Y35367D01*
X46133D01*
X46100Y35333D01*
Y35267D01*
X46133Y35233D01*
X46167D01*
X46200Y35267D01*
Y35367D01*
X45250Y35067D02*
X45450D01*
Y35167D01*
X45417Y35200D01*
X45283D01*
X45250Y35167D01*
Y35067D01*
X45450Y35267D02*
Y35333D01*
Y35300D01*
X45250D01*
X45283Y35267D01*
X45377Y35807D02*
Y35550D01*
X45249Y35679D02*
X45506D01*
X44550Y35083D02*
X44350D01*
Y35183D01*
X44383Y35217D01*
X44450D01*
X44483Y35183D01*
Y35083D01*
Y35150D02*
X44550Y35217D01*
X44383Y35283D02*
X44350Y35317D01*
Y35383D01*
X44383Y35417D01*
X44417D01*
X44450Y35383D01*
X44483Y35417D01*
X44517D01*
X44550Y35383D01*
Y35317D01*
X44517Y35283D01*
X44483D01*
X44450Y35317D01*
X44417Y35283D01*
X44383D01*
X44450Y35317D02*
Y35383D01*
X43767Y37467D02*
X43733Y37500D01*
X43667D01*
X43633Y37467D01*
Y37333D01*
X43667Y37300D01*
X43733D01*
X43767Y37333D01*
X43933Y37300D02*
Y37500D01*
X43833Y37400D01*
X43967D01*
X44033Y37467D02*
X44067Y37500D01*
X44133D01*
X44167Y37467D01*
Y37333D01*
X44133Y37300D01*
X44067D01*
X44033Y37333D01*
Y37467D01*
X43767Y37817D02*
X43733Y37850D01*
X43667D01*
X43633Y37817D01*
Y37683D01*
X43667Y37650D01*
X43733D01*
X43767Y37683D01*
X43833Y37817D02*
X43867Y37850D01*
X43933D01*
X43967Y37817D01*
Y37783D01*
X43933Y37750D01*
X43900D01*
X43933D01*
X43967Y37717D01*
Y37683D01*
X43933Y37650D01*
X43867D01*
X43833Y37683D01*
X44167Y37850D02*
X44033D01*
Y37750D01*
X44100Y37783D01*
X44133D01*
X44167Y37750D01*
Y37683D01*
X44133Y37650D01*
X44067D01*
X44033Y37683D01*
X42833Y37300D02*
Y37500D01*
X42933D01*
X42967Y37467D01*
Y37400D01*
X42933Y37367D01*
X42833D01*
X42900D02*
X42967Y37300D01*
X43133D02*
Y37500D01*
X43033Y37400D01*
X43167D01*
X43367Y37300D02*
X43233D01*
X43367Y37433D01*
Y37467D01*
X43333Y37500D01*
X43267D01*
X43233Y37467D01*
X42833Y37650D02*
Y37850D01*
X42933D01*
X42967Y37817D01*
Y37750D01*
X42933Y37717D01*
X42833D01*
X42900D02*
X42967Y37650D01*
X43033Y37817D02*
X43067Y37850D01*
X43133D01*
X43167Y37817D01*
Y37783D01*
X43133Y37750D01*
X43100D01*
X43133D01*
X43167Y37717D01*
Y37683D01*
X43133Y37650D01*
X43067D01*
X43033Y37683D01*
X43233Y37850D02*
X43367D01*
Y37817D01*
X43233Y37683D01*
Y37650D01*
X42033D02*
Y37850D01*
X42133D01*
X42167Y37817D01*
Y37750D01*
X42133Y37717D01*
X42033D01*
X42100D02*
X42167Y37650D01*
X42233Y37817D02*
X42267Y37850D01*
X42333D01*
X42367Y37817D01*
Y37783D01*
X42333Y37750D01*
X42300D01*
X42333D01*
X42367Y37717D01*
Y37683D01*
X42333Y37650D01*
X42267D01*
X42233Y37683D01*
X42433Y37817D02*
X42467Y37850D01*
X42533D01*
X42567Y37817D01*
Y37783D01*
X42533Y37750D01*
X42567Y37717D01*
Y37683D01*
X42533Y37650D01*
X42467D01*
X42433Y37683D01*
Y37717D01*
X42467Y37750D01*
X42433Y37783D01*
Y37817D01*
X42467Y37750D02*
X42533D01*
X42033Y37300D02*
Y37500D01*
X42133D01*
X42167Y37467D01*
Y37400D01*
X42133Y37367D01*
X42033D01*
X42100D02*
X42167Y37300D01*
X42333D02*
Y37500D01*
X42233Y37400D01*
X42367D01*
X42433Y37467D02*
X42467Y37500D01*
X42533D01*
X42567Y37467D01*
Y37333D01*
X42533Y37300D01*
X42467D01*
X42433Y37333D01*
Y37467D01*
X41233Y37650D02*
Y37850D01*
X41333D01*
X41367Y37817D01*
Y37750D01*
X41333Y37717D01*
X41233D01*
X41300D02*
X41367Y37650D01*
X41533D02*
Y37850D01*
X41433Y37750D01*
X41567D01*
X41633Y37817D02*
X41667Y37850D01*
X41733D01*
X41767Y37817D01*
Y37783D01*
X41733Y37750D01*
X41700D01*
X41733D01*
X41767Y37717D01*
Y37683D01*
X41733Y37650D01*
X41667D01*
X41633Y37683D01*
X40550Y37817D02*
X40517Y37850D01*
X40450D01*
X40417Y37817D01*
Y37683D01*
X40450Y37650D01*
X40517D01*
X40550Y37683D01*
X40717Y37650D02*
Y37850D01*
X40617Y37750D01*
X40750D01*
X40817Y37650D02*
X40883D01*
X40850D01*
Y37850D01*
X40817Y37817D01*
X40433Y37300D02*
Y37500D01*
X40533D01*
X40567Y37467D01*
Y37400D01*
X40533Y37367D01*
X40433D01*
X40500D02*
X40567Y37300D01*
X40733D02*
Y37500D01*
X40633Y37400D01*
X40767D01*
X40933Y37300D02*
Y37500D01*
X40833Y37400D01*
X40967D01*
X41233Y37300D02*
Y37500D01*
X41333D01*
X41367Y37467D01*
Y37400D01*
X41333Y37367D01*
X41233D01*
X41300D02*
X41367Y37300D01*
X41433Y37467D02*
X41467Y37500D01*
X41533D01*
X41567Y37467D01*
Y37433D01*
X41533Y37400D01*
X41500D01*
X41533D01*
X41567Y37367D01*
Y37333D01*
X41533Y37300D01*
X41467D01*
X41433Y37333D01*
X41633D02*
X41667Y37300D01*
X41733D01*
X41767Y37333D01*
Y37467D01*
X41733Y37500D01*
X41667D01*
X41633Y37467D01*
Y37433D01*
X41667Y37400D01*
X41767D01*
X41367Y37117D02*
X41333Y37150D01*
X41267D01*
X41233Y37117D01*
Y36983D01*
X41267Y36950D01*
X41333D01*
X41367Y36983D01*
X41433Y37117D02*
X41467Y37150D01*
X41533D01*
X41567Y37117D01*
Y37083D01*
X41533Y37050D01*
X41500D01*
X41533D01*
X41567Y37017D01*
Y36983D01*
X41533Y36950D01*
X41467D01*
X41433Y36983D01*
X41633Y37150D02*
X41767D01*
Y37117D01*
X41633Y36983D01*
Y36950D01*
X35150Y45617D02*
X35117Y45650D01*
X35050D01*
X35017Y45617D01*
Y45583D01*
X35050Y45550D01*
X35117D01*
X35150Y45517D01*
Y45483D01*
X35117Y45450D01*
X35050D01*
X35017Y45483D01*
X35217Y45650D02*
Y45450D01*
X35283Y45517D01*
X35350Y45450D01*
Y45650D01*
X35417Y45450D02*
X35483D01*
X35450D01*
Y45650D01*
X35417Y45617D01*
X35117Y49217D02*
X35083Y49250D01*
X35017D01*
X34983Y49217D01*
Y49183D01*
X35017Y49150D01*
X35083D01*
X35117Y49117D01*
Y49083D01*
X35083Y49050D01*
X35017D01*
X34983Y49083D01*
X35183Y49250D02*
Y49050D01*
X35250Y49117D01*
X35317Y49050D01*
Y49250D01*
X35517Y49050D02*
X35383D01*
X35517Y49183D01*
Y49217D01*
X35483Y49250D01*
X35417D01*
X35383Y49217D01*
X28417Y49517D02*
X28383Y49550D01*
X28317D01*
X28283Y49517D01*
Y49383D01*
X28317Y49350D01*
X28383D01*
X28417Y49383D01*
X28483Y49517D02*
X28517Y49550D01*
X28583D01*
X28617Y49517D01*
Y49483D01*
X28583Y49450D01*
X28550D01*
X28583D01*
X28617Y49417D01*
Y49383D01*
X28583Y49350D01*
X28517D01*
X28483Y49383D01*
X28683Y49517D02*
X28717Y49550D01*
X28783D01*
X28817Y49517D01*
Y49383D01*
X28783Y49350D01*
X28717D01*
X28683Y49383D01*
Y49517D01*
X23933Y48900D02*
Y48700D01*
X24033D01*
X24067Y48733D01*
Y48867D01*
X24033Y48900D01*
X23933D01*
X24133Y48733D02*
X24167Y48700D01*
X24233D01*
X24267Y48733D01*
Y48867D01*
X24233Y48900D01*
X24167D01*
X24133Y48867D01*
Y48833D01*
X24167Y48800D01*
X24267D01*
X23583Y47967D02*
X23550Y47933D01*
Y47867D01*
X23583Y47833D01*
X23717D01*
X23750Y47867D01*
Y47933D01*
X23717Y47967D01*
X23583Y48033D02*
X23550Y48067D01*
Y48133D01*
X23583Y48167D01*
X23617D01*
X23650Y48133D01*
Y48100D01*
Y48133D01*
X23683Y48167D01*
X23717D01*
X23750Y48133D01*
Y48067D01*
X23717Y48033D01*
X23750Y48333D02*
X23550D01*
X23650Y48233D01*
Y48367D01*
X21550Y49017D02*
X21350D01*
Y49117D01*
X21383Y49150D01*
X21450D01*
X21483Y49117D01*
Y49017D01*
Y49083D02*
X21550Y49150D01*
X21383Y49217D02*
X21350Y49250D01*
Y49317D01*
X21383Y49350D01*
X21417D01*
X21450Y49317D01*
Y49283D01*
Y49317D01*
X21483Y49350D01*
X21517D01*
X21550Y49317D01*
Y49250D01*
X21517Y49217D01*
X21550Y49417D02*
Y49483D01*
Y49450D01*
X21350D01*
X21383Y49417D01*
X22200Y49033D02*
X22000D01*
Y49133D01*
X22033Y49167D01*
X22100D01*
X22133Y49133D01*
Y49033D01*
Y49100D02*
X22200Y49167D01*
X22033Y49233D02*
X22000Y49267D01*
Y49333D01*
X22033Y49367D01*
X22067D01*
X22100Y49333D01*
Y49300D01*
Y49333D01*
X22133Y49367D01*
X22167D01*
X22200Y49333D01*
Y49267D01*
X22167Y49233D01*
X22033Y49433D02*
X22000Y49467D01*
Y49533D01*
X22033Y49567D01*
X22167D01*
X22200Y49533D01*
Y49467D01*
X22167Y49433D01*
X22033D01*
X21183Y45400D02*
Y45233D01*
X21217Y45200D01*
X21283D01*
X21317Y45233D01*
Y45400D01*
X21483Y45200D02*
Y45400D01*
X21383Y45300D01*
X21517D01*
X19950Y45083D02*
X19750D01*
Y45183D01*
X19783Y45217D01*
X19850D01*
X19883Y45183D01*
Y45083D01*
Y45150D02*
X19950Y45217D01*
X19783Y45283D02*
X19750Y45317D01*
Y45383D01*
X19783Y45417D01*
X19817D01*
X19850Y45383D01*
Y45350D01*
Y45383D01*
X19883Y45417D01*
X19917D01*
X19950Y45383D01*
Y45317D01*
X19917Y45283D01*
X19950Y45617D02*
Y45483D01*
X19817Y45617D01*
X19783D01*
X19750Y45583D01*
Y45517D01*
X19783Y45483D01*
X19083Y45467D02*
X19050Y45433D01*
Y45367D01*
X19083Y45333D01*
X19217D01*
X19250Y45367D01*
Y45433D01*
X19217Y45467D01*
X19083Y45533D02*
X19050Y45567D01*
Y45633D01*
X19083Y45667D01*
X19117D01*
X19150Y45633D01*
Y45600D01*
Y45633D01*
X19183Y45667D01*
X19217D01*
X19250Y45633D01*
Y45567D01*
X19217Y45533D01*
X19083Y45733D02*
X19050Y45767D01*
Y45833D01*
X19083Y45867D01*
X19117D01*
X19150Y45833D01*
Y45800D01*
Y45833D01*
X19183Y45867D01*
X19217D01*
X19250Y45833D01*
Y45767D01*
X19217Y45733D01*
X18233Y45017D02*
X18200Y44983D01*
Y44917D01*
X18233Y44883D01*
X18367D01*
X18400Y44917D01*
Y44983D01*
X18367Y45017D01*
X18233Y45083D02*
X18200Y45117D01*
Y45183D01*
X18233Y45217D01*
X18267D01*
X18300Y45183D01*
Y45150D01*
Y45183D01*
X18333Y45217D01*
X18367D01*
X18400Y45183D01*
Y45117D01*
X18367Y45083D01*
X18400Y45417D02*
Y45283D01*
X18267Y45417D01*
X18233D01*
X18200Y45383D01*
Y45317D01*
X18233Y45283D01*
X17000Y44250D02*
X17200D01*
Y44350D01*
X17167Y44383D01*
X17033D01*
X17000Y44350D01*
Y44250D01*
X17200Y44450D02*
Y44517D01*
Y44483D01*
X17000D01*
X17033Y44450D01*
Y44617D02*
X17000Y44650D01*
Y44717D01*
X17033Y44750D01*
X17167D01*
X17200Y44717D01*
Y44650D01*
X17167Y44617D01*
X17033D01*
X18050Y48483D02*
X17850D01*
Y48583D01*
X17883Y48617D01*
X17950D01*
X17983Y48583D01*
Y48483D01*
Y48550D02*
X18050Y48617D01*
X17883Y48683D02*
X17850Y48717D01*
Y48783D01*
X17883Y48817D01*
X17917D01*
X17950Y48783D01*
Y48750D01*
Y48783D01*
X17983Y48817D01*
X18017D01*
X18050Y48783D01*
Y48717D01*
X18017Y48683D01*
X18050Y48983D02*
X17850D01*
X17950Y48883D01*
Y49017D01*
X19700Y48500D02*
X19900D01*
Y48600D01*
X19867Y48633D01*
X19733D01*
X19700Y48600D01*
Y48500D01*
X19900Y48700D02*
Y48767D01*
Y48733D01*
X19700D01*
X19733Y48700D01*
X19900Y48967D02*
X19700D01*
X19800Y48867D01*
Y49000D01*
X19221Y49343D02*
Y49600D01*
X19350Y49471D02*
X19093D01*
X16250Y49600D02*
X16183D01*
X16217D01*
Y49433D01*
X16183Y49400D01*
X16150D01*
X16117Y49433D01*
X16317Y49600D02*
Y49400D01*
X16417D01*
X16450Y49433D01*
Y49567D01*
X16417Y49600D01*
X16317D01*
X16650Y49567D02*
X16617Y49600D01*
X16550D01*
X16517Y49567D01*
Y49433D01*
X16550Y49400D01*
X16617D01*
X16650Y49433D01*
X16717Y49400D02*
X16783D01*
X16750D01*
Y49600D01*
X16717Y49567D01*
X10533Y47200D02*
X10667D01*
X10600D01*
Y47000D01*
X10733D02*
Y47200D01*
X10833D01*
X10867Y47167D01*
Y47100D01*
X10833Y47067D01*
X10733D01*
X10933Y47033D02*
X10967Y47000D01*
X11033D01*
X11067Y47033D01*
Y47167D01*
X11033Y47200D01*
X10967D01*
X10933Y47167D01*
Y47133D01*
X10967Y47100D01*
X11067D01*
X13800Y34800D02*
Y34600D01*
X13900D01*
X13933Y34633D01*
Y34767D01*
X13900Y34800D01*
X13800D01*
X14000Y34600D02*
X14067D01*
X14033D01*
Y34800D01*
X14000Y34767D01*
X14167D02*
X14200Y34800D01*
X14267D01*
X14300Y34767D01*
Y34733D01*
X14267Y34700D01*
X14233D01*
X14267D01*
X14300Y34667D01*
Y34633D01*
X14267Y34600D01*
X14200D01*
X14167Y34633D01*
X14433Y34600D02*
Y34800D01*
X14533D01*
X14567Y34767D01*
Y34700D01*
X14533Y34667D01*
X14433D01*
X14500D02*
X14567Y34600D01*
X14633Y34767D02*
X14667Y34800D01*
X14733D01*
X14767Y34767D01*
Y34733D01*
X14733Y34700D01*
X14700D01*
X14733D01*
X14767Y34667D01*
Y34633D01*
X14733Y34600D01*
X14667D01*
X14633Y34633D01*
X14833Y34767D02*
X14867Y34800D01*
X14933D01*
X14967Y34767D01*
Y34733D01*
X14933Y34700D01*
X14900D01*
X14933D01*
X14967Y34667D01*
Y34633D01*
X14933Y34600D01*
X14867D01*
X14833Y34633D01*
X14018Y38784D02*
Y39041D01*
X14147Y38913D02*
X13890D01*
X15767Y34417D02*
X15733Y34450D01*
X15667D01*
X15633Y34417D01*
Y34283D01*
X15667Y34250D01*
X15733D01*
X15767Y34283D01*
X15933Y34250D02*
Y34450D01*
X15833Y34350D01*
X15967D01*
X15217Y34417D02*
X15183Y34450D01*
X15117D01*
X15083Y34417D01*
Y34283D01*
X15117Y34250D01*
X15183D01*
X15217Y34283D01*
X15417Y34450D02*
X15283D01*
Y34350D01*
X15350Y34383D01*
X15383D01*
X15417Y34350D01*
Y34283D01*
X15383Y34250D01*
X15317D01*
X15283Y34283D01*
X14567Y34417D02*
X14533Y34450D01*
X14467D01*
X14433Y34417D01*
Y34283D01*
X14467Y34250D01*
X14533D01*
X14567Y34283D01*
X14767Y34450D02*
X14700Y34417D01*
X14633Y34350D01*
Y34283D01*
X14667Y34250D01*
X14733D01*
X14767Y34283D01*
Y34317D01*
X14733Y34350D01*
X14633D01*
X13917Y34417D02*
X13883Y34450D01*
X13817D01*
X13783Y34417D01*
Y34283D01*
X13817Y34250D01*
X13883D01*
X13917Y34283D01*
X13983Y34450D02*
X14117D01*
Y34417D01*
X13983Y34283D01*
Y34250D01*
X14433Y33900D02*
Y34100D01*
X14533D01*
X14567Y34067D01*
Y34000D01*
X14533Y33967D01*
X14433D01*
X14500D02*
X14567Y33900D01*
X14633Y34067D02*
X14667Y34100D01*
X14733D01*
X14767Y34067D01*
Y34033D01*
X14733Y34000D01*
X14700D01*
X14733D01*
X14767Y33967D01*
Y33933D01*
X14733Y33900D01*
X14667D01*
X14633Y33933D01*
X13783Y33900D02*
Y34100D01*
X13883D01*
X13917Y34067D01*
Y34000D01*
X13883Y33967D01*
X13783D01*
X13850D02*
X13917Y33900D01*
X13983D02*
X14050D01*
X14017D01*
Y34100D01*
X13983Y34067D01*
X14150Y33900D02*
X14217D01*
X14183D01*
Y34100D01*
X14150Y34067D01*
X13783Y33750D02*
Y33550D01*
X13883D01*
X13917Y33583D01*
Y33717D01*
X13883Y33750D01*
X13783D01*
X14083Y33550D02*
Y33750D01*
X13983Y33650D01*
X14117D01*
X14943Y35329D02*
X15200D01*
X15071Y35200D02*
Y35457D01*
X10363Y40130D02*
X10297D01*
X10330D01*
Y39963D01*
X10297Y39930D01*
X10263D01*
X10230Y39963D01*
X10430Y39930D02*
X10497D01*
X10463D01*
Y40130D01*
X10430Y40097D01*
X45250Y41070D02*
Y40870D01*
X45350D01*
X45383Y40903D01*
Y41037D01*
X45350Y41070D01*
X45250D01*
X45450Y40870D02*
X45517D01*
X45483D01*
Y41070D01*
X45450Y41037D01*
X45750Y41070D02*
X45617D01*
Y40970D01*
X45683Y41003D01*
X45717D01*
X45750Y40970D01*
Y40903D01*
X45717Y40870D01*
X45650D01*
X45617Y40903D01*
X38190Y41620D02*
Y41453D01*
X38223Y41420D01*
X38290D01*
X38323Y41453D01*
Y41620D01*
X38523D02*
X38390D01*
Y41520D01*
X38457Y41553D01*
X38490D01*
X38523Y41520D01*
Y41453D01*
X38490Y41420D01*
X38423D01*
X38390Y41453D01*
X41933Y46347D02*
X41900Y46380D01*
X41833D01*
X41800Y46347D01*
Y46213D01*
X41833Y46180D01*
X41900D01*
X41933Y46213D01*
X42000Y46347D02*
X42033Y46380D01*
X42100D01*
X42133Y46347D01*
Y46313D01*
X42100Y46280D01*
X42133Y46247D01*
Y46213D01*
X42100Y46180D01*
X42033D01*
X42000Y46213D01*
Y46247D01*
X42033Y46280D01*
X42000Y46313D01*
Y46347D01*
X42033Y46280D02*
X42100D01*
X42750Y45780D02*
Y45613D01*
X42783Y45580D01*
X42850D01*
X42883Y45613D01*
Y45780D01*
X43083Y45580D02*
X42950D01*
X43083Y45713D01*
Y45747D01*
X43050Y45780D01*
X42983D01*
X42950Y45747D01*
X43180Y47380D02*
Y47180D01*
X43280D01*
X43313Y47213D01*
Y47347D01*
X43280Y47380D01*
X43180D01*
X43380D02*
X43513D01*
Y47347D01*
X43380Y47213D01*
Y47180D01*
X41383Y46347D02*
X41350Y46380D01*
X41283D01*
X41250Y46347D01*
Y46213D01*
X41283Y46180D01*
X41350D01*
X41383Y46213D01*
X41450D02*
X41483Y46180D01*
X41550D01*
X41583Y46213D01*
Y46347D01*
X41550Y46380D01*
X41483D01*
X41450Y46347D01*
Y46313D01*
X41483Y46280D01*
X41583D01*
X42153Y50800D02*
X42087D01*
X42120D01*
Y50633D01*
X42087Y50600D01*
X42053D01*
X42020Y50633D01*
X42220Y50767D02*
X42253Y50800D01*
X42320D01*
X42353Y50767D01*
Y50733D01*
X42320Y50700D01*
X42287D01*
X42320D01*
X42353Y50667D01*
Y50633D01*
X42320Y50600D01*
X42253D01*
X42220Y50633D01*
X12890Y42260D02*
X13023D01*
X12957D01*
Y42060D01*
X13090D02*
Y42260D01*
X13190D01*
X13223Y42227D01*
Y42160D01*
X13190Y42127D01*
X13090D01*
X13423Y42060D02*
X13290D01*
X13423Y42193D01*
Y42227D01*
X13390Y42260D01*
X13323D01*
X13290Y42227D01*
X12890Y44360D02*
X13023D01*
X12957D01*
Y44160D01*
X13090D02*
Y44360D01*
X13190D01*
X13223Y44327D01*
Y44260D01*
X13190Y44227D01*
X13090D01*
X13290Y44160D02*
X13357D01*
X13323D01*
Y44360D01*
X13290Y44327D01*
X40200Y23670D02*
X40333D01*
X40267D01*
Y23470D01*
X40400D02*
Y23670D01*
X40500D01*
X40533Y23637D01*
Y23570D01*
X40500Y23537D01*
X40400D01*
X40700Y23470D02*
Y23670D01*
X40600Y23570D01*
X40733D01*
X38580Y23670D02*
X38713D01*
X38647D01*
Y23470D01*
X38780D02*
Y23670D01*
X38880D01*
X38913Y23637D01*
Y23570D01*
X38880Y23537D01*
X38780D01*
X38980Y23637D02*
X39013Y23670D01*
X39080D01*
X39113Y23637D01*
Y23603D01*
X39080Y23570D01*
X39047D01*
X39080D01*
X39113Y23537D01*
Y23503D01*
X39080Y23470D01*
X39013D01*
X38980Y23503D01*
X31590Y40510D02*
X31723D01*
X31657D01*
Y40310D01*
X31790D02*
Y40510D01*
X31890D01*
X31923Y40477D01*
Y40410D01*
X31890Y40377D01*
X31790D01*
X32123Y40510D02*
X32057Y40477D01*
X31990Y40410D01*
Y40343D01*
X32023Y40310D01*
X32090D01*
X32123Y40343D01*
Y40377D01*
X32090Y40410D01*
X31990D01*
X32890Y43090D02*
Y42890D01*
X32990D01*
X33023Y42923D01*
Y43057D01*
X32990Y43090D01*
X32890D01*
X33090Y43057D02*
X33123Y43090D01*
X33190D01*
X33223Y43057D01*
Y43023D01*
X33190Y42990D01*
X33223Y42957D01*
Y42923D01*
X33190Y42890D01*
X33123D01*
X33090Y42923D01*
Y42957D01*
X33123Y42990D01*
X33090Y43023D01*
Y43057D01*
X33123Y42990D02*
X33190D01*
X31117Y24200D02*
Y24167D01*
X31183Y24100D01*
X31250Y24167D01*
Y24200D01*
X31183Y24100D02*
Y24000D01*
X31317D02*
X31383D01*
X31350D01*
Y24200D01*
X31317Y24167D01*
X28770Y32530D02*
Y32363D01*
X28803Y32330D01*
X28870D01*
X28903Y32363D01*
Y32530D01*
X28970Y32497D02*
X29003Y32530D01*
X29070D01*
X29103Y32497D01*
Y32463D01*
X29070Y32430D01*
X29037D01*
X29070D01*
X29103Y32397D01*
Y32363D01*
X29070Y32330D01*
X29003D01*
X28970Y32363D01*
X16530Y40610D02*
Y40443D01*
X16563Y40410D01*
X16630D01*
X16663Y40443D01*
Y40610D01*
X16730Y40410D02*
X16797D01*
X16763D01*
Y40610D01*
X16730Y40577D01*
X12740Y23900D02*
X12873D01*
X12807D01*
Y23700D01*
X12940D02*
Y23900D01*
X13040D01*
X13073Y23867D01*
Y23800D01*
X13040Y23767D01*
X12940D01*
X13140Y23867D02*
X13173Y23900D01*
X13240D01*
X13273Y23867D01*
Y23833D01*
X13240Y23800D01*
X13273Y23767D01*
Y23733D01*
X13240Y23700D01*
X13173D01*
X13140Y23733D01*
Y23767D01*
X13173Y23800D01*
X13140Y23833D01*
Y23867D01*
X13173Y23800D02*
X13240D01*
X45790Y48410D02*
X45923D01*
X45857D01*
Y48210D01*
X45990D02*
Y48410D01*
X46090D01*
X46123Y48377D01*
Y48310D01*
X46090Y48277D01*
X45990D01*
X46190Y48410D02*
X46323D01*
Y48377D01*
X46190Y48243D01*
Y48210D01*
X32790Y45810D02*
X32923D01*
X32857D01*
Y45610D01*
X32990D02*
Y45810D01*
X33090D01*
X33123Y45777D01*
Y45710D01*
X33090Y45677D01*
X32990D01*
X33323Y45810D02*
X33190D01*
Y45710D01*
X33257Y45743D01*
X33290D01*
X33323Y45710D01*
Y45643D01*
X33290Y45610D01*
X33223D01*
X33190Y45643D01*
X31650Y25140D02*
Y25340D01*
X31750D01*
X31783Y25307D01*
Y25240D01*
X31750Y25207D01*
X31650D01*
X31717D02*
X31783Y25140D01*
X31983D02*
X31850D01*
X31983Y25273D01*
Y25307D01*
X31950Y25340D01*
X31883D01*
X31850Y25307D01*
X32050Y25340D02*
X32183D01*
Y25307D01*
X32050Y25173D01*
Y25140D01*
X24890Y38240D02*
Y38440D01*
X24990D01*
X25023Y38407D01*
Y38340D01*
X24990Y38307D01*
X24890D01*
X24957D02*
X25023Y38240D01*
X25090Y38440D02*
X25223D01*
Y38407D01*
X25090Y38273D01*
Y38240D01*
X19330Y27360D02*
Y27560D01*
X19430D01*
X19463Y27527D01*
Y27460D01*
X19430Y27427D01*
X19330D01*
X19397D02*
X19463Y27360D01*
X19663Y27560D02*
X19597Y27527D01*
X19530Y27460D01*
Y27393D01*
X19563Y27360D01*
X19630D01*
X19663Y27393D01*
Y27427D01*
X19630Y27460D01*
X19530D01*
X25540Y38240D02*
Y38440D01*
X25640D01*
X25673Y38407D01*
Y38340D01*
X25640Y38307D01*
X25540D01*
X25607D02*
X25673Y38240D01*
X25873D02*
X25740D01*
X25873Y38373D01*
Y38407D01*
X25840Y38440D01*
X25773D01*
X25740Y38407D01*
X40820Y32750D02*
Y32950D01*
X40920D01*
X40953Y32917D01*
Y32850D01*
X40920Y32817D01*
X40820D01*
X41153Y32750D02*
X41020D01*
X41153Y32883D01*
Y32917D01*
X41120Y32950D01*
X41053D01*
X41020Y32917D01*
X32580Y49570D02*
Y49370D01*
X32713D01*
X32880D02*
Y49570D01*
X32780Y49470D01*
X32913D01*
X25630Y48920D02*
Y48720D01*
X25763D01*
X25830Y48887D02*
X25863Y48920D01*
X25930D01*
X25963Y48887D01*
Y48853D01*
X25930Y48820D01*
X25897D01*
X25930D01*
X25963Y48787D01*
Y48753D01*
X25930Y48720D01*
X25863D01*
X25830Y48753D01*
X14973Y25430D02*
X14907D01*
X14940D01*
Y25263D01*
X14907Y25230D01*
X14873D01*
X14840Y25263D01*
X15173Y25230D02*
X15040D01*
X15173Y25363D01*
Y25397D01*
X15140Y25430D01*
X15073D01*
X15040Y25397D01*
X14743Y44800D02*
X14610D01*
Y44700D01*
X14677D01*
X14610D01*
Y44600D01*
X14810D02*
X14877D01*
X14843D01*
Y44800D01*
X14810Y44767D01*
X28383Y44927D02*
X28350Y44960D01*
X28283D01*
X28250Y44927D01*
Y44793D01*
X28283Y44760D01*
X28350D01*
X28383Y44793D01*
X28450Y44927D02*
X28483Y44960D01*
X28550D01*
X28583Y44927D01*
Y44893D01*
X28550Y44860D01*
X28517D01*
X28550D01*
X28583Y44827D01*
Y44793D01*
X28550Y44760D01*
X28483D01*
X28450Y44793D01*
X28650Y44760D02*
X28717D01*
X28683D01*
Y44960D01*
X28650Y44927D01*
X27263Y31527D02*
X27230Y31560D01*
X27163D01*
X27130Y31527D01*
Y31393D01*
X27163Y31360D01*
X27230D01*
X27263Y31393D01*
X27463Y31360D02*
X27330D01*
X27463Y31493D01*
Y31527D01*
X27430Y31560D01*
X27363D01*
X27330Y31527D01*
X27530Y31360D02*
X27597D01*
X27563D01*
Y31560D01*
X27530Y31527D01*
X30013Y24527D02*
X29980Y24560D01*
X29913D01*
X29880Y24527D01*
Y24393D01*
X29913Y24360D01*
X29980D01*
X30013Y24393D01*
X30080Y24360D02*
X30147D01*
X30113D01*
Y24560D01*
X30080Y24527D01*
X30247Y24393D02*
X30280Y24360D01*
X30347D01*
X30380Y24393D01*
Y24527D01*
X30347Y24560D01*
X30280D01*
X30247Y24527D01*
Y24493D01*
X30280Y24460D01*
X30380D01*
X30613Y24527D02*
X30580Y24560D01*
X30513D01*
X30480Y24527D01*
Y24393D01*
X30513Y24360D01*
X30580D01*
X30613Y24393D01*
X30680Y24360D02*
X30747D01*
X30713D01*
Y24560D01*
X30680Y24527D01*
X30947Y24360D02*
Y24560D01*
X30847Y24460D01*
X30980D01*
M02*
