G04*
G04 #@! TF.GenerationSoftware,Altium Limited,Altium Designer,22.11.1 (43)*
G04*
G04 Layer_Physical_Order=4*
G04 Layer_Color=16711680*
%FSLAX24Y24*%
%MOIN*%
G70*
G04*
G04 #@! TF.SameCoordinates,95904809-8EA0-40D1-BC7C-4500F6FC4EB7*
G04*
G04*
G04 #@! TF.FilePolarity,Positive*
G04*
G01*
G75*
%ADD11C,0.0100*%
%ADD15C,0.0060*%
%ADD25R,0.0315X0.0374*%
%ADD29R,0.0315X0.0315*%
%ADD45R,0.0610X0.0827*%
%ADD105C,0.0300*%
%ADD106C,0.0650*%
%ADD107R,0.0650X0.0650*%
%ADD108R,0.0550X0.0550*%
%ADD109C,0.0550*%
%ADD110C,0.0602*%
%ADD111C,0.1280*%
%ADD112C,0.0963*%
%ADD113R,0.0886X0.0886*%
%ADD114C,0.0886*%
%ADD115R,0.0650X0.0650*%
%ADD116O,0.0571X0.0787*%
%ADD117O,0.0453X0.0709*%
%ADD118C,0.0315*%
%ADD119C,0.1380*%
%ADD120C,0.0750*%
%ADD121R,0.0750X0.0750*%
%ADD122R,0.0591X0.0591*%
%ADD123C,0.0591*%
%ADD124C,0.0157*%
%ADD125C,0.0197*%
G36*
X49338Y33700D02*
X39400D01*
Y32992D01*
X37800D01*
X37765Y32985D01*
X37735Y32965D01*
X36638Y31868D01*
X36579Y31879D01*
X36573Y31892D01*
X36568Y31904D01*
Y31917D01*
X36559Y31926D01*
X36554Y31938D01*
X35546Y32946D01*
X35500Y32965D01*
X35310D01*
Y33355D01*
X35291Y33401D01*
X35196Y33496D01*
X35150Y33515D01*
X33562D01*
X33528Y33549D01*
Y33887D01*
X33509Y33933D01*
X33396Y34046D01*
X33350Y34065D01*
X30050D01*
X30004Y34046D01*
X29854Y33896D01*
X29835Y33850D01*
Y31395D01*
X29840Y31383D01*
Y31370D01*
X29849Y31361D01*
X29854Y31349D01*
X29857Y31339D01*
X29822Y31289D01*
X29771Y31268D01*
X29732Y31229D01*
X29711Y31178D01*
Y31122D01*
X29732Y31071D01*
X29771Y31032D01*
X29822Y31011D01*
X29835D01*
Y30939D01*
X29789Y30920D01*
X29539Y31170D01*
Y31178D01*
X29518Y31229D01*
X29512Y31234D01*
Y33954D01*
X29896Y34338D01*
X34171D01*
X34192Y34288D01*
X34182Y34279D01*
X34161Y34228D01*
Y34172D01*
X34182Y34121D01*
X34221Y34082D01*
X34272Y34061D01*
X34328D01*
X34379Y34082D01*
X34418Y34121D01*
X34439Y34172D01*
Y34228D01*
X34418Y34279D01*
X34408Y34288D01*
X34429Y34338D01*
X35804D01*
X36188Y33954D01*
Y32684D01*
X36182Y32679D01*
X36161Y32628D01*
Y32572D01*
X36182Y32521D01*
X36221Y32482D01*
X36272Y32461D01*
X36328D01*
X36379Y32482D01*
X36418Y32521D01*
X36439Y32572D01*
Y32628D01*
X36418Y32679D01*
X36412Y32684D01*
Y34000D01*
X36412Y34000D01*
X36404Y34043D01*
X36379Y34079D01*
X36379Y34079D01*
X35929Y34529D01*
X35893Y34554D01*
X35850Y34562D01*
X35850Y34562D01*
X29850D01*
X29850Y34562D01*
X29807Y34554D01*
X29771Y34529D01*
X29771Y34529D01*
X29321Y34079D01*
X29296Y34043D01*
X29288Y34000D01*
X29288Y34000D01*
Y31234D01*
X29282Y31229D01*
X29261Y31178D01*
Y31122D01*
X29282Y31071D01*
X29321Y31032D01*
X29372Y31011D01*
X29380D01*
X29868Y30523D01*
X29854Y30472D01*
X29849Y30460D01*
X29840Y30451D01*
Y30438D01*
X29835Y30426D01*
Y29450D01*
X29300D01*
X28950Y29800D01*
Y30500D01*
X28550Y30900D01*
X26300D01*
X26150Y30750D01*
Y28300D01*
X26400Y28050D01*
X28300D01*
X29200Y28950D01*
X29835D01*
Y26850D01*
X29854Y26804D01*
X30004Y26654D01*
X30050Y26635D01*
X30888D01*
Y25084D01*
X30882Y25079D01*
X30861Y25028D01*
Y24972D01*
X30882Y24921D01*
X30921Y24882D01*
X30972Y24861D01*
X31028D01*
X31079Y24882D01*
X31118Y24921D01*
X31139Y24972D01*
Y25028D01*
X31118Y25079D01*
X31112Y25084D01*
Y26635D01*
X32723D01*
X35104Y24254D01*
X35150Y24235D01*
X39400D01*
Y23950D01*
X49338D01*
Y20712D01*
X10212D01*
X10212Y49888D01*
X49338D01*
X49338Y33700D01*
D02*
G37*
G36*
X33463Y33887D02*
Y33522D01*
X33535Y33450D01*
X35150D01*
X35245Y33355D01*
Y32923D01*
X35268Y32900D01*
X35500D01*
X36508Y31892D01*
X36488Y31842D01*
X35253D01*
X35238Y31892D01*
X35250Y31900D01*
X35281Y31946D01*
X35291Y32000D01*
X35281Y32054D01*
X35250Y32100D01*
X35204Y32131D01*
X35150Y32141D01*
X35096Y32131D01*
X35050Y32100D01*
X35019Y32054D01*
X35009Y32000D01*
X35019Y31946D01*
X35050Y31900D01*
X35062Y31892D01*
X35047Y31842D01*
X30450D01*
X30415Y31835D01*
X30385Y31815D01*
X29946Y31376D01*
X29900Y31395D01*
Y33850D01*
X30050Y34000D01*
X33350D01*
X33463Y33887D01*
D02*
G37*
G36*
X39400Y31207D02*
X39354Y31188D01*
X38996Y31546D01*
X38950Y31565D01*
X37073D01*
X37054Y31611D01*
X38001Y32558D01*
X39400D01*
Y31207D01*
D02*
G37*
G36*
X30722Y31608D02*
X30719Y31604D01*
X30709Y31550D01*
X30719Y31496D01*
X30750Y31450D01*
X30796Y31419D01*
X30850Y31409D01*
X30904Y31419D01*
X30950Y31450D01*
X30968Y31477D01*
X36882D01*
X36917Y31484D01*
X36941Y31500D01*
X38950D01*
X39400Y31050D01*
Y28992D01*
X39056D01*
X39050Y29000D01*
X39042Y29006D01*
Y30594D01*
X39050Y30600D01*
X39081Y30646D01*
X39091Y30700D01*
X39081Y30754D01*
X39050Y30800D01*
X39004Y30831D01*
X38950Y30841D01*
X38896Y30831D01*
X38850Y30800D01*
X38819Y30754D01*
X38809Y30700D01*
X38819Y30646D01*
X38850Y30600D01*
X38858Y30594D01*
Y29006D01*
X38850Y29000D01*
X38819Y28954D01*
X38809Y28900D01*
X38819Y28846D01*
X38850Y28800D01*
X38896Y28769D01*
X38950Y28759D01*
X39004Y28769D01*
X39050Y28800D01*
X39056Y28808D01*
X39400D01*
Y28691D01*
X36606D01*
X36600Y28700D01*
X36554Y28731D01*
X36500Y28741D01*
X36446Y28731D01*
X36400Y28700D01*
X36369Y28654D01*
X36359Y28600D01*
X36369Y28546D01*
X36400Y28500D01*
X36446Y28469D01*
X36500Y28459D01*
X36554Y28469D01*
X36600Y28500D01*
X36605Y28507D01*
X39400D01*
Y24300D01*
X35150D01*
X32750Y26700D01*
X31112D01*
Y29550D01*
X31112Y29550D01*
X31104Y29593D01*
X31079Y29629D01*
X31079Y29629D01*
X29900Y30809D01*
Y31018D01*
X29904Y31019D01*
X29950Y31050D01*
X29981Y31096D01*
X29991Y31150D01*
X29990Y31160D01*
X30488Y31658D01*
X30695D01*
X30722Y31608D01*
D02*
G37*
G36*
X49338Y24450D02*
X39900D01*
Y28507D01*
X41177D01*
X41188Y28469D01*
X41232Y28392D01*
X41294Y28330D01*
X41371Y28286D01*
X41456Y28263D01*
X41544D01*
X41629Y28286D01*
X41706Y28330D01*
X41768Y28392D01*
X41812Y28469D01*
X41835Y28554D01*
Y28642D01*
X41812Y28727D01*
X41768Y28804D01*
X41706Y28866D01*
X41629Y28910D01*
X41544Y28933D01*
X41456D01*
X41371Y28910D01*
X41294Y28866D01*
X41232Y28804D01*
X41188Y28727D01*
X41178Y28691D01*
X39900D01*
Y28808D01*
X40550D01*
X40585Y28815D01*
X40615Y28835D01*
X40788Y29008D01*
X42177D01*
X42188Y28969D01*
X42232Y28892D01*
X42294Y28830D01*
X42371Y28786D01*
X42456Y28763D01*
X42544D01*
X42629Y28786D01*
X42706Y28830D01*
X42768Y28892D01*
X42812Y28969D01*
X42835Y29054D01*
Y29142D01*
X42812Y29227D01*
X42768Y29304D01*
X42706Y29366D01*
X42629Y29410D01*
X42544Y29433D01*
X42456D01*
X42371Y29410D01*
X42294Y29366D01*
X42232Y29304D01*
X42188Y29227D01*
X42178Y29192D01*
X40750D01*
X40715Y29185D01*
X40685Y29165D01*
X40512Y28992D01*
X39900D01*
Y32558D01*
X46812D01*
X47358Y32012D01*
Y31017D01*
X47111Y30770D01*
X47069Y30795D01*
X46977Y30819D01*
X46882D01*
X46790Y30795D01*
X46707Y30747D01*
X46640Y30680D01*
X46593Y30598D01*
X46568Y30506D01*
Y30411D01*
X46593Y30319D01*
X46640Y30236D01*
X46707Y30169D01*
X46790Y30122D01*
X46882Y30097D01*
X46977D01*
X47069Y30122D01*
X47151Y30169D01*
X47218Y30236D01*
X47266Y30319D01*
X47290Y30411D01*
Y30506D01*
X47266Y30598D01*
X47241Y30640D01*
X47462Y30861D01*
X47508Y30842D01*
Y27838D01*
X47176Y27506D01*
X47151Y27531D01*
X47069Y27578D01*
X46977Y27603D01*
X46882D01*
X46790Y27578D01*
X46707Y27531D01*
X46640Y27464D01*
X46593Y27381D01*
X46568Y27289D01*
Y27194D01*
X46593Y27102D01*
X46640Y27020D01*
X46707Y26953D01*
X46790Y26905D01*
X46882Y26881D01*
X46977D01*
X47069Y26905D01*
X47151Y26953D01*
X47218Y27020D01*
X47266Y27102D01*
X47290Y27194D01*
Y27289D01*
X47275Y27345D01*
X47665Y27735D01*
X47685Y27765D01*
X47692Y27800D01*
Y32250D01*
X47685Y32285D01*
X47665Y32315D01*
X47015Y32965D01*
X46985Y32985D01*
X46950Y32992D01*
X39900D01*
Y33200D01*
X49338D01*
X49338Y24450D01*
D02*
G37*
G36*
X28850Y30425D02*
Y29750D01*
X29250Y29350D01*
X29900D01*
Y30426D01*
X29946Y30445D01*
X30888Y29504D01*
Y26700D01*
X30050D01*
X29900Y26850D01*
Y29050D01*
X29150D01*
X28250Y28150D01*
X26450D01*
X26250Y28350D01*
Y30700D01*
X26350Y30800D01*
X28475D01*
X28850Y30425D01*
D02*
G37*
%LPC*%
G36*
X45342Y49784D02*
Y49383D01*
X45622D01*
Y49461D01*
X45610Y49546D01*
X45578Y49626D01*
X45525Y49694D01*
X45457Y49746D01*
X45378Y49779D01*
X45342Y49784D01*
D02*
G37*
G36*
X42291Y49784D02*
Y49383D01*
X42570D01*
Y49461D01*
X42559Y49546D01*
X42526Y49626D01*
X42474Y49694D01*
X42406Y49746D01*
X42326Y49779D01*
X42291Y49784D01*
D02*
G37*
G36*
X42191Y49784D02*
X42156Y49779D01*
X42077Y49746D01*
X42009Y49694D01*
X41956Y49626D01*
X41923Y49546D01*
X41912Y49461D01*
Y49383D01*
X42191D01*
Y49784D01*
D02*
G37*
G36*
X45242Y49784D02*
X45207Y49779D01*
X45128Y49746D01*
X45060Y49694D01*
X45007Y49626D01*
X44974Y49546D01*
X44963Y49461D01*
Y49383D01*
X45242D01*
Y49784D01*
D02*
G37*
G36*
X45622Y49283D02*
X45342D01*
Y48883D01*
X45378Y48887D01*
X45457Y48920D01*
X45525Y48973D01*
X45578Y49041D01*
X45610Y49120D01*
X45622Y49205D01*
Y49283D01*
D02*
G37*
G36*
X42191D02*
X41912D01*
Y49205D01*
X41923Y49120D01*
X41956Y49041D01*
X42009Y48973D01*
X42077Y48920D01*
X42156Y48887D01*
X42191Y48883D01*
Y49283D01*
D02*
G37*
G36*
X42570D02*
X42291D01*
Y48883D01*
X42326Y48887D01*
X42406Y48920D01*
X42474Y48973D01*
X42526Y49041D01*
X42559Y49120D01*
X42570Y49205D01*
Y49283D01*
D02*
G37*
G36*
X45242D02*
X44963D01*
Y49205D01*
X44974Y49120D01*
X45007Y49041D01*
X45060Y48973D01*
X45128Y48920D01*
X45207Y48887D01*
X45242Y48883D01*
Y49283D01*
D02*
G37*
G36*
X11985Y49530D02*
X11215D01*
Y48761D01*
X11985D01*
Y49530D01*
D02*
G37*
G36*
X37165Y48800D02*
X36800D01*
Y48435D01*
X36883Y48457D01*
X36992Y48520D01*
X37080Y48608D01*
X37143Y48717D01*
X37165Y48800D01*
D02*
G37*
G36*
X36600D02*
X36235D01*
X36257Y48717D01*
X36320Y48608D01*
X36408Y48520D01*
X36517Y48457D01*
X36600Y48435D01*
Y48800D01*
D02*
G37*
G36*
X42826Y48468D02*
X42739D01*
X42659Y48435D01*
X42598Y48374D01*
X42565Y48294D01*
Y48285D01*
X42520Y48263D01*
X42495Y48282D01*
X42401Y48321D01*
X42350Y48328D01*
Y47887D01*
X42689D01*
Y47946D01*
X42682Y48003D01*
X42727Y48038D01*
X42739Y48033D01*
X42826D01*
X42906Y48066D01*
X42967Y48127D01*
X43000Y48207D01*
Y48294D01*
X42967Y48374D01*
X42906Y48435D01*
X42826Y48468D01*
D02*
G37*
G36*
X35428Y48339D02*
X35372D01*
X35321Y48318D01*
X35282Y48279D01*
X35261Y48228D01*
Y48172D01*
X35282Y48121D01*
X35321Y48082D01*
X35372Y48061D01*
X35428D01*
X35479Y48082D01*
X35518Y48121D01*
X35539Y48172D01*
Y48228D01*
X35518Y48279D01*
X35479Y48318D01*
X35428Y48339D01*
D02*
G37*
G36*
X17628D02*
X17572D01*
X17521Y48318D01*
X17482Y48279D01*
X17461Y48228D01*
Y48172D01*
X17482Y48121D01*
X17521Y48082D01*
X17572Y48061D01*
X17628D01*
X17679Y48082D01*
X17718Y48121D01*
X17739Y48172D01*
Y48228D01*
X17718Y48279D01*
X17679Y48318D01*
X17628Y48339D01*
D02*
G37*
G36*
X48224Y49550D02*
X48076D01*
X47931Y49521D01*
X47795Y49465D01*
X47672Y49383D01*
X47567Y49278D01*
X47485Y49155D01*
X47429Y49019D01*
X47400Y48874D01*
Y48726D01*
X47429Y48581D01*
X47485Y48445D01*
X47567Y48322D01*
X47672Y48217D01*
X47795Y48135D01*
X47931Y48079D01*
X48076Y48050D01*
X48224D01*
X48369Y48079D01*
X48505Y48135D01*
X48628Y48217D01*
X48733Y48322D01*
X48815Y48445D01*
X48871Y48581D01*
X48900Y48726D01*
Y48874D01*
X48871Y49019D01*
X48815Y49155D01*
X48733Y49278D01*
X48628Y49383D01*
X48505Y49465D01*
X48369Y49521D01*
X48224Y49550D01*
D02*
G37*
G36*
X30778Y47989D02*
X30722D01*
X30671Y47968D01*
X30666Y47962D01*
X20484D01*
X20479Y47968D01*
X20428Y47989D01*
X20372D01*
X20321Y47968D01*
X20282Y47929D01*
X20261Y47878D01*
Y47822D01*
X20282Y47771D01*
X20321Y47732D01*
X20372Y47711D01*
X20428D01*
X20479Y47732D01*
X20484Y47738D01*
X30666D01*
X30671Y47732D01*
X30722Y47711D01*
X30778D01*
X30829Y47732D01*
X30868Y47771D01*
X30889Y47822D01*
Y47878D01*
X30868Y47929D01*
X30829Y47968D01*
X30778Y47989D01*
D02*
G37*
G36*
X45283Y48328D02*
Y47887D01*
X45622D01*
Y47946D01*
X45609Y48046D01*
X45570Y48140D01*
X45508Y48220D01*
X45428Y48282D01*
X45334Y48321D01*
X45283Y48328D01*
D02*
G37*
G36*
X42250D02*
X42200Y48321D01*
X42106Y48282D01*
X42025Y48220D01*
X41964Y48140D01*
X41925Y48046D01*
X41912Y47946D01*
Y47887D01*
X42250D01*
Y48328D01*
D02*
G37*
G36*
X44794Y48468D02*
X44708D01*
X44628Y48435D01*
X44567Y48374D01*
X44534Y48294D01*
Y48207D01*
X44567Y48127D01*
X44628Y48066D01*
X44708Y48033D01*
X44794D01*
X44806Y48038D01*
X44852Y48003D01*
X44845Y47946D01*
Y47887D01*
X45183D01*
Y48328D01*
X45133Y48321D01*
X45039Y48282D01*
X45013Y48263D01*
X44969Y48285D01*
Y48294D01*
X44935Y48374D01*
X44874Y48435D01*
X44794Y48468D01*
D02*
G37*
G36*
X36928Y48239D02*
X36872D01*
X36821Y48218D01*
X36782Y48179D01*
X36761Y48128D01*
Y48072D01*
X36782Y48021D01*
X36821Y47982D01*
X36872Y47961D01*
X36928D01*
X36979Y47982D01*
X36984Y47988D01*
X37157D01*
Y47703D01*
X37592D01*
Y48197D01*
X37278D01*
X37277Y48197D01*
X37267Y48204D01*
X37224Y48212D01*
X37224Y48212D01*
X36984D01*
X36979Y48218D01*
X36928Y48239D01*
D02*
G37*
G36*
X38326Y49562D02*
X38326Y49562D01*
X35750D01*
X35707Y49554D01*
X35671Y49529D01*
X35671Y49529D01*
X34954Y48812D01*
X33284D01*
X33279Y48818D01*
X33228Y48839D01*
X33200D01*
X33177Y48854D01*
X33134Y48862D01*
X33134Y48862D01*
X30503D01*
X30495Y48867D01*
X30491Y48873D01*
X30503Y48932D01*
X30542Y48971D01*
X30563Y49022D01*
Y49078D01*
X30542Y49129D01*
X30503Y49168D01*
X30452Y49189D01*
X30397D01*
X30346Y49168D01*
X30307Y49129D01*
X30286Y49078D01*
Y49022D01*
X30307Y48971D01*
X30342Y48937D01*
X30343Y48928D01*
X30342Y48914D01*
X30334Y48883D01*
X30296Y48868D01*
X30257Y48829D01*
X30236Y48778D01*
Y48722D01*
X30257Y48671D01*
X30278Y48651D01*
X30257Y48601D01*
X20534D01*
X20529Y48606D01*
X20478Y48627D01*
X20422D01*
X20371Y48606D01*
X20332Y48567D01*
X20311Y48516D01*
Y48461D01*
X20332Y48410D01*
X20371Y48371D01*
X20422Y48350D01*
X20478D01*
X20529Y48371D01*
X20534Y48377D01*
X30633D01*
X30643Y48327D01*
X30621Y48318D01*
X30582Y48279D01*
X30561Y48228D01*
Y48172D01*
X30582Y48121D01*
X30621Y48082D01*
X30672Y48061D01*
X30728D01*
X30779Y48082D01*
X30818Y48121D01*
X30839Y48172D01*
Y48228D01*
X30818Y48279D01*
X30779Y48318D01*
X30757Y48327D01*
X30767Y48377D01*
X31833D01*
X31843Y48327D01*
X31821Y48318D01*
X31782Y48279D01*
X31761Y48228D01*
Y48172D01*
X31782Y48121D01*
X31821Y48082D01*
X31872Y48061D01*
X31928D01*
X31979Y48082D01*
X32018Y48121D01*
X32039Y48172D01*
Y48228D01*
X32018Y48279D01*
X31979Y48318D01*
X31957Y48327D01*
X31967Y48377D01*
X32915D01*
X33838Y47454D01*
Y47391D01*
X33788Y47371D01*
X33339Y47820D01*
Y47828D01*
X33318Y47879D01*
X33279Y47918D01*
X33228Y47939D01*
X33172D01*
X33121Y47918D01*
X33082Y47879D01*
X33061Y47828D01*
Y47772D01*
X33082Y47721D01*
X33121Y47682D01*
X33172Y47661D01*
X33180D01*
X33638Y47204D01*
Y46150D01*
Y42100D01*
X33638Y42100D01*
X33646Y42057D01*
X33671Y42021D01*
X34421Y41271D01*
X34421Y41271D01*
X34457Y41246D01*
X34500Y41238D01*
X35621D01*
X35642Y41188D01*
X35632Y41179D01*
X35611Y41128D01*
Y41072D01*
X35632Y41021D01*
X35671Y40982D01*
X35722Y40961D01*
X35778D01*
X35829Y40982D01*
X35868Y41021D01*
X35889Y41072D01*
Y41128D01*
X35868Y41179D01*
X35858Y41188D01*
X35879Y41238D01*
X39400D01*
X39400Y41238D01*
X39443Y41246D01*
X39479Y41271D01*
X40396Y42188D01*
X46600D01*
X46600Y42188D01*
X46643Y42196D01*
X46679Y42221D01*
X47729Y43271D01*
X47729Y43271D01*
X47754Y43307D01*
X47762Y43350D01*
Y44904D01*
X47896Y45038D01*
X48866D01*
X48871Y45032D01*
X48922Y45011D01*
X48978D01*
X49029Y45032D01*
X49068Y45071D01*
X49089Y45122D01*
Y45178D01*
X49068Y45229D01*
X49029Y45268D01*
X48978Y45289D01*
X48922D01*
X48871Y45268D01*
X48866Y45262D01*
X47850D01*
X47850Y45262D01*
X47807Y45254D01*
X47771Y45229D01*
X47771Y45229D01*
X47612Y45071D01*
X47562Y45091D01*
Y46404D01*
X47746Y46588D01*
X48866D01*
X48871Y46582D01*
X48922Y46561D01*
X48978D01*
X49029Y46582D01*
X49068Y46621D01*
X49089Y46672D01*
Y46728D01*
X49068Y46779D01*
X49029Y46818D01*
X48978Y46839D01*
X48922D01*
X48871Y46818D01*
X48866Y46812D01*
X47700D01*
X47657Y46804D01*
X47621Y46779D01*
X47621Y46779D01*
X47371Y46529D01*
X47346Y46493D01*
X47338Y46450D01*
X47338Y46450D01*
Y43596D01*
X46354Y42612D01*
X40250D01*
X40207Y42604D01*
X40171Y42579D01*
X40171Y42579D01*
X39804Y42212D01*
X39120D01*
X39105Y42268D01*
X39048Y42367D01*
X38967Y42448D01*
X38868Y42505D01*
X38812Y42520D01*
Y43000D01*
Y44180D01*
X38868Y44195D01*
X38967Y44252D01*
X39048Y44333D01*
X39105Y44432D01*
X39135Y44543D01*
Y44657D01*
X39105Y44768D01*
X39048Y44867D01*
X38967Y44948D01*
X38868Y45005D01*
X38757Y45035D01*
X38643D01*
X38532Y45005D01*
X38433Y44948D01*
X38352Y44867D01*
X38295Y44768D01*
X38265Y44657D01*
Y44543D01*
X38295Y44432D01*
X38352Y44333D01*
X38433Y44252D01*
X38532Y44195D01*
X38588Y44180D01*
Y43112D01*
X38194D01*
Y43217D01*
X38088D01*
Y43403D01*
X38193D01*
Y43897D01*
X37758D01*
Y43403D01*
X37864D01*
Y43217D01*
X37759D01*
Y42783D01*
X38194D01*
Y42888D01*
X38588D01*
Y42520D01*
X38532Y42505D01*
X38433Y42448D01*
X38352Y42367D01*
X38295Y42268D01*
X38265Y42157D01*
Y42043D01*
X38295Y41932D01*
X38324Y41882D01*
X38104Y41662D01*
X37175D01*
Y42050D01*
X36700D01*
X36225D01*
Y41662D01*
X34596D01*
X34062Y42196D01*
Y47500D01*
X34062Y47500D01*
X34054Y47543D01*
X34029Y47579D01*
X34029Y47579D01*
X33587Y48022D01*
X33615Y48064D01*
X33622Y48061D01*
X33678D01*
X33729Y48082D01*
X33768Y48121D01*
X33789Y48172D01*
Y48228D01*
X33768Y48279D01*
X33729Y48318D01*
X33678Y48339D01*
X33622D01*
X33571Y48318D01*
X33532Y48279D01*
X33511Y48228D01*
Y48172D01*
X33514Y48165D01*
X33472Y48137D01*
X33041Y48568D01*
X33011Y48588D01*
X33012Y48615D01*
X33019Y48638D01*
X33076D01*
X33082Y48621D01*
X33121Y48582D01*
X33172Y48561D01*
X33228D01*
X33279Y48582D01*
X33284Y48588D01*
X35000D01*
X35000Y48588D01*
X35043Y48596D01*
X35079Y48621D01*
X35796Y49338D01*
X36412D01*
X36425Y49290D01*
X36408Y49280D01*
X36320Y49192D01*
X36257Y49083D01*
X36235Y49000D01*
X36700D01*
X37165D01*
X37143Y49083D01*
X37080Y49192D01*
X36992Y49280D01*
X36975Y49290D01*
X36988Y49338D01*
X38279D01*
X38401Y49216D01*
X38352Y49167D01*
X38295Y49068D01*
X38265Y48957D01*
Y48843D01*
X38295Y48732D01*
X38352Y48633D01*
X38433Y48552D01*
X38532Y48495D01*
X38588Y48480D01*
Y47462D01*
X38163D01*
Y47567D01*
X38057D01*
Y47703D01*
X38143D01*
Y48197D01*
X37708D01*
Y47703D01*
X37833D01*
Y47567D01*
X37728D01*
Y47133D01*
X38163D01*
Y47238D01*
X38588D01*
Y46820D01*
X38532Y46805D01*
X38433Y46748D01*
X38352Y46667D01*
X38295Y46568D01*
X38265Y46457D01*
Y46343D01*
X38295Y46232D01*
X38352Y46133D01*
X38433Y46052D01*
X38532Y45995D01*
X38643Y45965D01*
X38757D01*
X38868Y45995D01*
X38967Y46052D01*
X39048Y46133D01*
X39105Y46232D01*
X39135Y46343D01*
Y46457D01*
X39105Y46568D01*
X39048Y46667D01*
X38967Y46748D01*
X38868Y46805D01*
X38812Y46820D01*
Y47350D01*
Y48480D01*
X38868Y48495D01*
X38967Y48552D01*
X39048Y48633D01*
X39105Y48732D01*
X39135Y48843D01*
Y48957D01*
X39105Y49068D01*
X39048Y49167D01*
X38967Y49248D01*
X38868Y49305D01*
X38757Y49335D01*
X38643D01*
X38609Y49326D01*
X38405Y49529D01*
X38369Y49554D01*
X38326Y49562D01*
D02*
G37*
G36*
X37612Y47607D02*
X37405D01*
Y47400D01*
X37612D01*
Y47607D01*
D02*
G37*
G36*
X37305D02*
X37097D01*
Y47400D01*
X37305D01*
Y47607D01*
D02*
G37*
G36*
X11651Y48153D02*
X11549D01*
X11451Y48126D01*
X11364Y48076D01*
X11292Y48004D01*
X11241Y47916D01*
X11215Y47818D01*
Y47717D01*
X11241Y47619D01*
X11292Y47531D01*
X11364Y47460D01*
X11451Y47409D01*
X11549Y47383D01*
X11651D01*
X11749Y47409D01*
X11836Y47460D01*
X11908Y47531D01*
X11959Y47619D01*
X11985Y47717D01*
Y47818D01*
X11959Y47916D01*
X11908Y48004D01*
X11836Y48076D01*
X11749Y48126D01*
X11651Y48153D01*
D02*
G37*
G36*
X45622Y47787D02*
X45283D01*
Y47347D01*
X45334Y47353D01*
X45428Y47392D01*
X45508Y47454D01*
X45570Y47535D01*
X45609Y47628D01*
X45622Y47729D01*
Y47787D01*
D02*
G37*
G36*
X42250D02*
X41912D01*
Y47729D01*
X41925Y47628D01*
X41964Y47535D01*
X42025Y47454D01*
X42106Y47392D01*
X42200Y47353D01*
X42250Y47347D01*
Y47787D01*
D02*
G37*
G36*
X42689D02*
X42350D01*
Y47347D01*
X42401Y47353D01*
X42495Y47392D01*
X42575Y47454D01*
X42637Y47535D01*
X42676Y47628D01*
X42689Y47729D01*
Y47787D01*
D02*
G37*
G36*
X45183D02*
X44845D01*
Y47729D01*
X44858Y47628D01*
X44897Y47535D01*
X44959Y47454D01*
X45039Y47392D01*
X45133Y47353D01*
X45183Y47347D01*
Y47787D01*
D02*
G37*
G36*
X37612Y47300D02*
X37405D01*
Y47093D01*
X37612D01*
Y47300D01*
D02*
G37*
G36*
X37305D02*
X37097D01*
Y47093D01*
X37305D01*
Y47300D01*
D02*
G37*
G36*
X37175Y46875D02*
X36750D01*
Y46450D01*
X37175D01*
Y46875D01*
D02*
G37*
G36*
X36650D02*
X36225D01*
Y46450D01*
X36650D01*
Y46875D01*
D02*
G37*
G36*
X11651Y46775D02*
X11549D01*
X11451Y46748D01*
X11364Y46698D01*
X11292Y46626D01*
X11241Y46538D01*
X11215Y46440D01*
Y46339D01*
X11241Y46241D01*
X11292Y46153D01*
X11364Y46082D01*
X11451Y46031D01*
X11549Y46005D01*
X11651D01*
X11749Y46031D01*
X11836Y46082D01*
X11908Y46153D01*
X11959Y46241D01*
X11985Y46339D01*
Y46440D01*
X11959Y46538D01*
X11908Y46626D01*
X11836Y46698D01*
X11749Y46748D01*
X11651Y46775D01*
D02*
G37*
G36*
X37175Y46350D02*
X36750D01*
Y45925D01*
X37175D01*
Y46350D01*
D02*
G37*
G36*
X36650D02*
X36225D01*
Y45925D01*
X36650D01*
Y46350D01*
D02*
G37*
G36*
X44244Y45806D02*
X44189D01*
X44138Y45785D01*
X44099Y45746D01*
X44078Y45695D01*
Y45640D01*
X44099Y45589D01*
X44138Y45550D01*
X44189Y45529D01*
X44244D01*
X44295Y45550D01*
X44334Y45589D01*
X44356Y45640D01*
Y45695D01*
X44334Y45746D01*
X44295Y45785D01*
X44244Y45806D01*
D02*
G37*
G36*
X40278Y45789D02*
X40222D01*
X40171Y45768D01*
X40132Y45729D01*
X40111Y45678D01*
Y45622D01*
X40132Y45571D01*
X40171Y45532D01*
X40222Y45511D01*
X40278D01*
X40329Y45532D01*
X40368Y45571D01*
X40389Y45622D01*
Y45678D01*
X40368Y45729D01*
X40329Y45768D01*
X40278Y45789D01*
D02*
G37*
G36*
X44644Y46968D02*
X44589D01*
X44538Y46947D01*
X44499Y46908D01*
X44478Y46857D01*
Y46801D01*
X44499Y46750D01*
X44505Y46745D01*
Y46113D01*
X44499Y46108D01*
X44478Y46057D01*
Y46001D01*
X44499Y45950D01*
X44538Y45911D01*
X44589Y45890D01*
X44644D01*
X44655Y45894D01*
X44705Y45861D01*
Y45625D01*
X44481Y45402D01*
X43782D01*
X43744Y45418D01*
X43689D01*
X43638Y45397D01*
X43599Y45358D01*
X43578Y45307D01*
Y45251D01*
X43599Y45200D01*
X43638Y45161D01*
X43689Y45140D01*
X43744D01*
X43795Y45161D01*
X43812Y45178D01*
X44528D01*
X44528Y45178D01*
X44571Y45186D01*
X44607Y45211D01*
X44896Y45500D01*
X44896Y45500D01*
X44920Y45536D01*
X44929Y45579D01*
X44929Y45579D01*
Y46245D01*
X44934Y46250D01*
X44956Y46301D01*
Y46357D01*
X44934Y46408D01*
X44895Y46447D01*
X44844Y46468D01*
X44789D01*
X44779Y46463D01*
X44729Y46497D01*
Y46745D01*
X44734Y46750D01*
X44756Y46801D01*
Y46857D01*
X44734Y46908D01*
X44695Y46947D01*
X44644Y46968D01*
D02*
G37*
G36*
X31378Y47689D02*
X31322D01*
X31271Y47668D01*
X31232Y47629D01*
X31211Y47578D01*
Y47522D01*
X31232Y47471D01*
X31238Y47466D01*
Y44984D01*
X31232Y44979D01*
X31211Y44928D01*
Y44872D01*
X31232Y44821D01*
X31271Y44782D01*
X31322Y44761D01*
X31378D01*
X31429Y44782D01*
X31468Y44821D01*
X31489Y44872D01*
Y44928D01*
X31468Y44979D01*
X31462Y44984D01*
Y47466D01*
X31468Y47471D01*
X31489Y47522D01*
Y47578D01*
X31468Y47629D01*
X31429Y47668D01*
X31378Y47689D01*
D02*
G37*
G36*
X36763Y45075D02*
X36750D01*
Y44650D01*
X37175D01*
Y44663D01*
X37143Y44783D01*
X37080Y44892D01*
X36992Y44980D01*
X36883Y45043D01*
X36763Y45075D01*
D02*
G37*
G36*
X36650D02*
X36637D01*
X36517Y45043D01*
X36408Y44980D01*
X36320Y44892D01*
X36257Y44783D01*
X36225Y44663D01*
Y44650D01*
X36650D01*
Y45075D01*
D02*
G37*
G36*
X11651Y45397D02*
X11549D01*
X11451Y45370D01*
X11364Y45320D01*
X11292Y45248D01*
X11241Y45160D01*
X11215Y45062D01*
Y44961D01*
X11241Y44863D01*
X11292Y44776D01*
X11364Y44704D01*
X11451Y44653D01*
X11549Y44627D01*
X11651D01*
X11749Y44653D01*
X11836Y44704D01*
X11908Y44776D01*
X11959Y44863D01*
X11985Y44961D01*
Y45062D01*
X11959Y45160D01*
X11908Y45248D01*
X11836Y45320D01*
X11749Y45370D01*
X11651Y45397D01*
D02*
G37*
G36*
X42544Y45280D02*
X42489D01*
X42438Y45259D01*
X42399Y45220D01*
X42378Y45169D01*
Y45114D01*
X42399Y45063D01*
X42438Y45024D01*
X42489Y45003D01*
X42497D01*
X42705Y44795D01*
Y44640D01*
X42655Y44620D01*
X42645Y44629D01*
X42594Y44650D01*
X42539D01*
X42496Y44632D01*
X40860D01*
X40845Y44647D01*
X40794Y44668D01*
X40739D01*
X40688Y44647D01*
X40649Y44608D01*
X40628Y44557D01*
Y44501D01*
X40649Y44450D01*
X40688Y44411D01*
X40739Y44390D01*
X40794D01*
X40837Y44408D01*
X42474D01*
X42488Y44394D01*
X42539Y44373D01*
X42594D01*
X42645Y44394D01*
X42655Y44403D01*
X42705Y44382D01*
Y43575D01*
X42547Y43418D01*
X42539D01*
X42488Y43397D01*
X42449Y43358D01*
X42428Y43307D01*
Y43251D01*
X42449Y43200D01*
X42488Y43161D01*
X42539Y43140D01*
X42594D01*
X42645Y43161D01*
X42684Y43200D01*
X42706Y43251D01*
Y43259D01*
X42896Y43450D01*
X42896Y43450D01*
X42920Y43486D01*
X42929Y43529D01*
Y44842D01*
X42929Y44842D01*
X42920Y44885D01*
X42896Y44921D01*
X42656Y45161D01*
Y45169D01*
X42634Y45220D01*
X42595Y45259D01*
X42544Y45280D01*
D02*
G37*
G36*
X37175Y44550D02*
X36750D01*
Y44125D01*
X36763D01*
X36883Y44157D01*
X36992Y44220D01*
X37080Y44308D01*
X37143Y44417D01*
X37175Y44537D01*
Y44550D01*
D02*
G37*
G36*
X36650D02*
X36225D01*
Y44537D01*
X36257Y44417D01*
X36320Y44308D01*
X36408Y44220D01*
X36517Y44157D01*
X36637Y44125D01*
X36650D01*
Y44550D01*
D02*
G37*
G36*
X37642Y43897D02*
X37207D01*
Y43762D01*
X37034D01*
X37029Y43768D01*
X36978Y43789D01*
X36922D01*
X36871Y43768D01*
X36832Y43729D01*
X36811Y43678D01*
Y43622D01*
X36832Y43571D01*
X36871Y43532D01*
X36922Y43511D01*
X36978D01*
X37029Y43532D01*
X37034Y43538D01*
X37207D01*
Y43403D01*
X37642D01*
Y43897D01*
D02*
G37*
G36*
X46944Y45368D02*
X46889D01*
X46838Y45347D01*
X46799Y45308D01*
X46778Y45257D01*
Y45201D01*
X46799Y45150D01*
X46805Y45145D01*
Y43913D01*
X46799Y43908D01*
X46778Y43857D01*
Y43801D01*
X46799Y43750D01*
X46838Y43711D01*
X46889Y43690D01*
X46944D01*
X46995Y43711D01*
X47034Y43750D01*
X47056Y43801D01*
Y43857D01*
X47034Y43908D01*
X47029Y43913D01*
Y45145D01*
X47034Y45150D01*
X47056Y45201D01*
Y45257D01*
X47034Y45308D01*
X46995Y45347D01*
X46944Y45368D01*
D02*
G37*
G36*
X46020Y45465D02*
X45965D01*
X45914Y45444D01*
X45875Y45405D01*
X45853Y45354D01*
Y45298D01*
X45875Y45247D01*
X45883Y45239D01*
Y43824D01*
X45877Y43818D01*
X45856Y43767D01*
Y43712D01*
X45877Y43661D01*
X45916Y43622D01*
X45967Y43601D01*
X46023D01*
X46074Y43622D01*
X46113Y43661D01*
X46134Y43712D01*
Y43767D01*
X46113Y43818D01*
X46107Y43824D01*
Y45245D01*
X46110Y45247D01*
X46131Y45298D01*
Y45354D01*
X46110Y45405D01*
X46071Y45444D01*
X46020Y45465D01*
D02*
G37*
G36*
X11651Y44019D02*
X11549D01*
X11451Y43992D01*
X11364Y43942D01*
X11292Y43870D01*
X11241Y43782D01*
X11215Y43685D01*
Y43583D01*
X11241Y43485D01*
X11292Y43398D01*
X11364Y43326D01*
X11451Y43275D01*
X11549Y43249D01*
X11651D01*
X11749Y43275D01*
X11836Y43326D01*
X11908Y43398D01*
X11959Y43485D01*
X11985Y43583D01*
Y43685D01*
X11959Y43782D01*
X11908Y43870D01*
X11836Y43942D01*
X11749Y43992D01*
X11651Y44019D01*
D02*
G37*
G36*
X46494Y45018D02*
X46439D01*
X46388Y44997D01*
X46349Y44958D01*
X46328Y44907D01*
Y44851D01*
X46349Y44800D01*
X46355Y44795D01*
Y43413D01*
X46349Y43408D01*
X46328Y43357D01*
Y43301D01*
X46349Y43250D01*
X46388Y43211D01*
X46439Y43190D01*
X46494D01*
X46545Y43211D01*
X46584Y43250D01*
X46606Y43301D01*
Y43357D01*
X46584Y43408D01*
X46579Y43413D01*
Y44795D01*
X46584Y44800D01*
X46606Y44851D01*
Y44907D01*
X46584Y44958D01*
X46545Y44997D01*
X46494Y45018D01*
D02*
G37*
G36*
X45394Y44268D02*
X45339D01*
X45288Y44247D01*
X45249Y44208D01*
X45228Y44157D01*
Y44101D01*
X45246Y44058D01*
Y43392D01*
X45232Y43379D01*
X45211Y43328D01*
Y43272D01*
X45232Y43221D01*
X45271Y43182D01*
X45322Y43161D01*
X45378D01*
X45429Y43182D01*
X45468Y43221D01*
X45489Y43272D01*
Y43328D01*
X45471Y43371D01*
Y44036D01*
X45484Y44050D01*
X45506Y44101D01*
Y44157D01*
X45484Y44208D01*
X45445Y44247D01*
X45394Y44268D01*
D02*
G37*
G36*
X37643Y43257D02*
X37435D01*
Y43050D01*
X37643D01*
Y43257D01*
D02*
G37*
G36*
X37335D02*
X37128D01*
Y43050D01*
X37335D01*
Y43257D01*
D02*
G37*
G36*
X45694Y44068D02*
X45639D01*
X45588Y44047D01*
X45549Y44008D01*
X45528Y43957D01*
Y43901D01*
X45546Y43858D01*
Y42992D01*
X45532Y42979D01*
X45511Y42928D01*
Y42872D01*
X45532Y42821D01*
X45571Y42782D01*
X45622Y42761D01*
X45678D01*
X45729Y42782D01*
X45768Y42821D01*
X45789Y42872D01*
Y42928D01*
X45771Y42971D01*
Y43836D01*
X45784Y43850D01*
X45806Y43901D01*
Y43957D01*
X45784Y44008D01*
X45745Y44047D01*
X45694Y44068D01*
D02*
G37*
G36*
X37643Y42950D02*
X37435D01*
Y42743D01*
X37643D01*
Y42950D01*
D02*
G37*
G36*
X37335D02*
X37128D01*
Y42743D01*
X37335D01*
Y42950D01*
D02*
G37*
G36*
X37175Y42575D02*
X36750D01*
Y42150D01*
X37175D01*
Y42575D01*
D02*
G37*
G36*
X36650D02*
X36225D01*
Y42150D01*
X36650D01*
Y42575D01*
D02*
G37*
G36*
X11651Y42641D02*
X11549D01*
X11451Y42614D01*
X11364Y42564D01*
X11292Y42492D01*
X11241Y42404D01*
X11215Y42307D01*
Y42205D01*
X11241Y42107D01*
X11292Y42020D01*
X11364Y41948D01*
X11451Y41897D01*
X11549Y41871D01*
X11651D01*
X11749Y41897D01*
X11836Y41948D01*
X11908Y42020D01*
X11959Y42107D01*
X11985Y42205D01*
Y42307D01*
X11959Y42404D01*
X11908Y42492D01*
X11836Y42564D01*
X11749Y42614D01*
X11651Y42641D01*
D02*
G37*
G36*
X29728Y43239D02*
X29672D01*
X29621Y43218D01*
X29582Y43179D01*
X29561Y43128D01*
Y43072D01*
X29582Y43021D01*
X29621Y42982D01*
X29672Y42961D01*
X29683D01*
X29708Y42936D01*
Y42080D01*
X29682Y42054D01*
X29661Y42003D01*
Y41947D01*
X29682Y41896D01*
X29721Y41857D01*
X29772Y41836D01*
X29828D01*
X29879Y41857D01*
X29918Y41896D01*
X29939Y41947D01*
Y42003D01*
X29918Y42054D01*
X29892Y42080D01*
Y42974D01*
X29885Y43009D01*
X29865Y43038D01*
X29836Y43067D01*
X29839Y43072D01*
Y43128D01*
X29818Y43179D01*
X29779Y43218D01*
X29728Y43239D01*
D02*
G37*
G36*
X30705Y41439D02*
X30650D01*
X30599Y41418D01*
X30573Y41392D01*
X29154D01*
X29129Y41418D01*
X29078Y41439D01*
X29022D01*
X28971Y41418D01*
X28932Y41379D01*
X28911Y41328D01*
Y41272D01*
X28932Y41221D01*
X28971Y41182D01*
X29022Y41161D01*
X29078D01*
X29129Y41182D01*
X29154Y41208D01*
X30573D01*
X30599Y41182D01*
X30650Y41161D01*
X30705D01*
X30756Y41182D01*
X30795Y41221D01*
X30816Y41272D01*
Y41328D01*
X30795Y41379D01*
X30756Y41418D01*
X30705Y41439D01*
D02*
G37*
G36*
X11651Y41263D02*
X11549D01*
X11451Y41237D01*
X11364Y41186D01*
X11292Y41114D01*
X11241Y41026D01*
X11215Y40929D01*
Y40827D01*
X11241Y40729D01*
X11292Y40642D01*
X11364Y40570D01*
X11451Y40519D01*
X11549Y40493D01*
X11651D01*
X11749Y40519D01*
X11836Y40570D01*
X11908Y40642D01*
X11959Y40729D01*
X11985Y40827D01*
Y40929D01*
X11959Y41026D01*
X11908Y41114D01*
X11836Y41186D01*
X11749Y41237D01*
X11651Y41263D01*
D02*
G37*
G36*
X48339Y41189D02*
X47629D01*
Y40479D01*
X48339D01*
Y41189D01*
D02*
G37*
G36*
X24078Y39689D02*
X24022D01*
X23971Y39668D01*
X23966Y39662D01*
X14750D01*
X14750Y39662D01*
X14707Y39654D01*
X14671Y39629D01*
X14671Y39629D01*
X12121Y37079D01*
X12096Y37043D01*
X12088Y37000D01*
X12088Y37000D01*
Y35746D01*
X10771Y34429D01*
X10746Y34393D01*
X10738Y34350D01*
X10738Y34350D01*
Y32968D01*
X10701Y32959D01*
X10614Y32908D01*
X10542Y32836D01*
X10491Y32749D01*
X10465Y32651D01*
Y32549D01*
X10491Y32451D01*
X10542Y32364D01*
X10614Y32292D01*
X10701Y32241D01*
X10799Y32215D01*
X10901D01*
X10999Y32241D01*
X11086Y32292D01*
X11158Y32364D01*
X11188Y32416D01*
X11238Y32402D01*
Y32146D01*
X11076Y31985D01*
X10465D01*
Y31215D01*
X11235D01*
Y31826D01*
X11429Y32021D01*
X11429Y32021D01*
X11454Y32057D01*
X11462Y32100D01*
X11462Y32100D01*
Y32326D01*
X11500Y32336D01*
X11512Y32337D01*
X11589Y32260D01*
X11686Y32204D01*
X11700Y32200D01*
Y32600D01*
Y33000D01*
X11686Y32996D01*
X11589Y32940D01*
X11512Y32863D01*
X11500Y32864D01*
X11462Y32874D01*
Y34104D01*
X11761Y34403D01*
X11811Y34382D01*
Y34372D01*
X11832Y34321D01*
X11871Y34282D01*
X11922Y34261D01*
X11978D01*
X12029Y34282D01*
X12068Y34321D01*
X12089Y34372D01*
Y34380D01*
X12829Y35121D01*
X12829Y35121D01*
X12854Y35157D01*
X12857Y35176D01*
X12911Y35193D01*
X12921Y35182D01*
X12972Y35161D01*
X12980D01*
X15171Y32971D01*
X15171Y32971D01*
X15207Y32946D01*
X15250Y32938D01*
X15250Y32938D01*
X19516D01*
X19521Y32932D01*
X19572Y32911D01*
X19628D01*
X19679Y32932D01*
X19718Y32971D01*
X19739Y33022D01*
Y33078D01*
X19718Y33129D01*
X19679Y33168D01*
X19628Y33189D01*
X19572D01*
X19521Y33168D01*
X19516Y33162D01*
X15296D01*
X13139Y35320D01*
Y35328D01*
X13118Y35379D01*
X13079Y35418D01*
X13028Y35439D01*
X12972D01*
X12921Y35418D01*
X12912Y35408D01*
X12862Y35429D01*
Y35954D01*
X14246Y37338D01*
X15721D01*
X15750Y37300D01*
X15750Y37288D01*
Y34800D01*
X18050D01*
Y37288D01*
X18050Y37300D01*
X18079Y37338D01*
X20766D01*
X20771Y37332D01*
X20822Y37311D01*
X20878D01*
X20929Y37332D01*
X20934Y37338D01*
X21116D01*
X21121Y37332D01*
X21172Y37311D01*
X21228D01*
X21279Y37332D01*
X21318Y37371D01*
X21323Y37384D01*
X21377D01*
X21382Y37371D01*
X21421Y37332D01*
X21472Y37311D01*
X21528D01*
X21579Y37332D01*
X21618Y37371D01*
X21639Y37422D01*
Y37478D01*
X21618Y37529D01*
X21579Y37568D01*
X21566Y37573D01*
Y37627D01*
X21579Y37632D01*
X21618Y37671D01*
X21639Y37722D01*
Y37778D01*
X21618Y37829D01*
X21579Y37868D01*
X21528Y37889D01*
X21472D01*
X21421Y37868D01*
X21382Y37829D01*
X21377Y37816D01*
X21323D01*
X21318Y37829D01*
X21279Y37868D01*
X21228Y37889D01*
X21172D01*
X21121Y37868D01*
X21082Y37829D01*
X21061Y37778D01*
Y37722D01*
X21082Y37671D01*
X21109Y37645D01*
X21113Y37594D01*
X21111Y37583D01*
X21089Y37562D01*
X20934D01*
X20929Y37568D01*
X20916Y37573D01*
Y37627D01*
X20929Y37632D01*
X20968Y37671D01*
X20989Y37722D01*
Y37778D01*
X20968Y37829D01*
X20929Y37868D01*
X20878Y37889D01*
X20822D01*
X20771Y37868D01*
X20732Y37829D01*
X20711Y37778D01*
Y37722D01*
X20732Y37671D01*
X20759Y37645D01*
X20763Y37594D01*
X20761Y37583D01*
X20739Y37562D01*
X14200D01*
X14200Y37562D01*
X14157Y37554D01*
X14121Y37529D01*
X14121Y37529D01*
X12712Y36121D01*
X12662Y36141D01*
Y36804D01*
X14246Y38388D01*
X24566D01*
X24571Y38382D01*
X24622Y38361D01*
X24678D01*
X24729Y38382D01*
X24768Y38421D01*
X24789Y38472D01*
Y38528D01*
X24768Y38579D01*
X24729Y38618D01*
X24678Y38639D01*
X24622D01*
X24571Y38618D01*
X24566Y38612D01*
X14200D01*
X14157Y38604D01*
X14121Y38579D01*
X14121Y38579D01*
X12471Y36929D01*
X12446Y36893D01*
X12438Y36850D01*
X12438Y36850D01*
Y35396D01*
X11271Y34229D01*
X11246Y34193D01*
X11238Y34150D01*
X11238Y34150D01*
Y32798D01*
X11188Y32784D01*
X11158Y32836D01*
X11086Y32908D01*
X10999Y32959D01*
X10962Y32968D01*
Y34304D01*
X12279Y35621D01*
X12279Y35621D01*
X12304Y35657D01*
X12312Y35700D01*
Y36954D01*
X14796Y39438D01*
X23966D01*
X23971Y39432D01*
X24022Y39411D01*
X24078D01*
X24129Y39432D01*
X24168Y39471D01*
X24189Y39522D01*
Y39578D01*
X24168Y39629D01*
X24129Y39668D01*
X24078Y39689D01*
D02*
G37*
G36*
X48031Y40189D02*
X47937D01*
X47847Y40165D01*
X47766Y40118D01*
X47700Y40052D01*
X47653Y39971D01*
X47629Y39881D01*
Y39787D01*
X47653Y39697D01*
X47700Y39616D01*
X47766Y39550D01*
X47847Y39503D01*
X47937Y39479D01*
X48031D01*
X48121Y39503D01*
X48202Y39550D01*
X48268Y39616D01*
X48315Y39697D01*
X48339Y39787D01*
Y39881D01*
X48315Y39971D01*
X48268Y40052D01*
X48202Y40118D01*
X48121Y40165D01*
X48031Y40189D01*
D02*
G37*
G36*
X11651Y39885D02*
X11549D01*
X11451Y39859D01*
X11364Y39808D01*
X11292Y39736D01*
X11241Y39649D01*
X11215Y39551D01*
Y39449D01*
X11241Y39351D01*
X11292Y39264D01*
X11364Y39192D01*
X11451Y39141D01*
X11549Y39115D01*
X11651D01*
X11749Y39141D01*
X11836Y39192D01*
X11908Y39264D01*
X11959Y39351D01*
X11985Y39449D01*
Y39551D01*
X11959Y39649D01*
X11908Y39736D01*
X11836Y39808D01*
X11749Y39859D01*
X11651Y39885D01*
D02*
G37*
G36*
X35778Y39139D02*
X35722D01*
X35671Y39118D01*
X35632Y39079D01*
X35611Y39028D01*
Y38972D01*
X35632Y38921D01*
X35671Y38882D01*
X35722Y38861D01*
X35778D01*
X35829Y38882D01*
X35868Y38921D01*
X35889Y38972D01*
Y39028D01*
X35868Y39079D01*
X35829Y39118D01*
X35778Y39139D01*
D02*
G37*
G36*
X43726Y40217D02*
X43671D01*
X43620Y40196D01*
X43581Y40157D01*
X43560Y40106D01*
Y40051D01*
X43581Y40000D01*
X43590Y39990D01*
Y38418D01*
X43585Y38413D01*
X43563Y38362D01*
Y38307D01*
X43585Y38256D01*
X43624Y38217D01*
X43675Y38195D01*
X43730D01*
X43781Y38217D01*
X43820Y38256D01*
X43841Y38307D01*
Y38362D01*
X43820Y38413D01*
X43814Y38418D01*
Y39998D01*
X43816Y40000D01*
X43837Y40051D01*
Y40106D01*
X43816Y40157D01*
X43777Y40196D01*
X43726Y40217D01*
D02*
G37*
G36*
X48339Y38789D02*
X47629D01*
Y38079D01*
X48339D01*
Y38789D01*
D02*
G37*
G36*
X11651Y38507D02*
X11549D01*
X11451Y38481D01*
X11364Y38430D01*
X11292Y38358D01*
X11241Y38271D01*
X11215Y38173D01*
Y38071D01*
X11241Y37974D01*
X11292Y37886D01*
X11364Y37814D01*
X11451Y37763D01*
X11549Y37737D01*
X11651D01*
X11749Y37763D01*
X11836Y37814D01*
X11908Y37886D01*
X11959Y37974D01*
X11985Y38071D01*
Y38173D01*
X11959Y38271D01*
X11908Y38358D01*
X11836Y38430D01*
X11749Y38481D01*
X11651Y38507D01*
D02*
G37*
G36*
X24128Y37589D02*
X24072D01*
X24021Y37568D01*
X23982Y37529D01*
X23961Y37478D01*
Y37422D01*
X23982Y37371D01*
X24021Y37332D01*
X24072Y37311D01*
X24128D01*
X24179Y37332D01*
X24218Y37371D01*
X24239Y37422D01*
Y37478D01*
X24218Y37529D01*
X24179Y37568D01*
X24128Y37589D01*
D02*
G37*
G36*
X48031Y37789D02*
X47937D01*
X47847Y37765D01*
X47766Y37718D01*
X47700Y37652D01*
X47653Y37571D01*
X47629Y37481D01*
Y37387D01*
X47653Y37297D01*
X47700Y37216D01*
X47766Y37150D01*
X47847Y37103D01*
X47937Y37079D01*
X48031D01*
X48121Y37103D01*
X48202Y37150D01*
X48268Y37216D01*
X48315Y37297D01*
X48339Y37387D01*
Y37481D01*
X48315Y37571D01*
X48268Y37652D01*
X48202Y37718D01*
X48121Y37765D01*
X48031Y37789D01*
D02*
G37*
G36*
X11651Y37129D02*
X11549D01*
X11451Y37103D01*
X11364Y37052D01*
X11292Y36980D01*
X11241Y36893D01*
X11215Y36795D01*
Y36693D01*
X11241Y36596D01*
X11292Y36508D01*
X11364Y36436D01*
X11451Y36386D01*
X11549Y36359D01*
X11651D01*
X11749Y36386D01*
X11836Y36436D01*
X11908Y36508D01*
X11959Y36596D01*
X11985Y36693D01*
Y36795D01*
X11959Y36893D01*
X11908Y36980D01*
X11836Y37052D01*
X11749Y37103D01*
X11651Y37129D01*
D02*
G37*
G36*
X37328Y34539D02*
X37272D01*
X37221Y34518D01*
X37182Y34479D01*
X37161Y34428D01*
Y34372D01*
X37182Y34321D01*
X37221Y34282D01*
X37272Y34261D01*
X37328D01*
X37379Y34282D01*
X37418Y34321D01*
X37439Y34372D01*
Y34428D01*
X37418Y34479D01*
X37379Y34518D01*
X37328Y34539D01*
D02*
G37*
G36*
X12000Y33000D02*
Y32750D01*
X12250D01*
X12246Y32764D01*
X12190Y32861D01*
X12111Y32940D01*
X12014Y32996D01*
X12000Y33000D01*
D02*
G37*
G36*
X12250Y32450D02*
X12000D01*
Y32200D01*
X12014Y32204D01*
X12111Y32260D01*
X12190Y32339D01*
X12246Y32436D01*
X12250Y32450D01*
D02*
G37*
G36*
X22000Y33850D02*
X19900D01*
Y31950D01*
X22000D01*
Y33850D01*
D02*
G37*
G36*
X12000Y32000D02*
Y31750D01*
X12250D01*
X12246Y31764D01*
X12190Y31861D01*
X12111Y31940D01*
X12014Y31996D01*
X12000Y32000D01*
D02*
G37*
G36*
X11700D02*
X11686Y31996D01*
X11589Y31940D01*
X11510Y31861D01*
X11454Y31764D01*
X11450Y31750D01*
X11700D01*
Y32000D01*
D02*
G37*
G36*
X12250Y31450D02*
X12000D01*
Y31200D01*
X12014Y31204D01*
X12111Y31260D01*
X12190Y31339D01*
X12246Y31436D01*
X12250Y31450D01*
D02*
G37*
G36*
X11700D02*
X11450D01*
X11454Y31436D01*
X11510Y31339D01*
X11589Y31260D01*
X11686Y31204D01*
X11700Y31200D01*
Y31450D01*
D02*
G37*
G36*
X12000Y29750D02*
Y29500D01*
X12250D01*
X12246Y29514D01*
X12190Y29611D01*
X12111Y29690D01*
X12014Y29746D01*
X12000Y29750D01*
D02*
G37*
G36*
X11000D02*
Y29500D01*
X11250D01*
X11246Y29514D01*
X11190Y29611D01*
X11111Y29690D01*
X11014Y29746D01*
X11000Y29750D01*
D02*
G37*
G36*
X11700D02*
X11686Y29746D01*
X11589Y29690D01*
X11510Y29611D01*
X11454Y29514D01*
X11450Y29500D01*
X11700D01*
Y29750D01*
D02*
G37*
G36*
X10700D02*
X10686Y29746D01*
X10589Y29690D01*
X10510Y29611D01*
X10454Y29514D01*
X10450Y29500D01*
X10700D01*
Y29750D01*
D02*
G37*
G36*
X12250Y29200D02*
X12000D01*
Y28950D01*
X12014Y28954D01*
X12111Y29010D01*
X12190Y29089D01*
X12246Y29186D01*
X12250Y29200D01*
D02*
G37*
G36*
X11250D02*
X11000D01*
Y28950D01*
X11014Y28954D01*
X11111Y29010D01*
X11190Y29089D01*
X11246Y29186D01*
X11250Y29200D01*
D02*
G37*
G36*
X11700D02*
X11450D01*
X11454Y29186D01*
X11510Y29089D01*
X11589Y29010D01*
X11686Y28954D01*
X11700Y28950D01*
Y29200D01*
D02*
G37*
G36*
X10700D02*
X10450D01*
X10454Y29186D01*
X10510Y29089D01*
X10589Y29010D01*
X10686Y28954D01*
X10700Y28950D01*
Y29200D01*
D02*
G37*
G36*
X12000Y28750D02*
Y28500D01*
X12250D01*
X12246Y28514D01*
X12190Y28611D01*
X12111Y28690D01*
X12014Y28746D01*
X12000Y28750D01*
D02*
G37*
G36*
X11000D02*
Y28500D01*
X11250D01*
X11246Y28514D01*
X11190Y28611D01*
X11111Y28690D01*
X11014Y28746D01*
X11000Y28750D01*
D02*
G37*
G36*
X11700D02*
X11686Y28746D01*
X11589Y28690D01*
X11510Y28611D01*
X11454Y28514D01*
X11450Y28500D01*
X11700D01*
Y28750D01*
D02*
G37*
G36*
X10700D02*
X10686Y28746D01*
X10589Y28690D01*
X10510Y28611D01*
X10454Y28514D01*
X10450Y28500D01*
X10700D01*
Y28750D01*
D02*
G37*
G36*
X12250Y28200D02*
X12000D01*
Y27950D01*
X12014Y27954D01*
X12111Y28010D01*
X12190Y28089D01*
X12246Y28186D01*
X12250Y28200D01*
D02*
G37*
G36*
X11250D02*
X11000D01*
Y27950D01*
X11014Y27954D01*
X11111Y28010D01*
X11190Y28089D01*
X11246Y28186D01*
X11250Y28200D01*
D02*
G37*
G36*
X11700D02*
X11450D01*
X11454Y28186D01*
X11510Y28089D01*
X11589Y28010D01*
X11686Y27954D01*
X11700Y27950D01*
Y28200D01*
D02*
G37*
G36*
X10700D02*
X10450D01*
X10454Y28186D01*
X10510Y28089D01*
X10589Y28010D01*
X10686Y27954D01*
X10700Y27950D01*
Y28200D01*
D02*
G37*
G36*
X17800Y28264D02*
X17718Y28248D01*
X17649Y28201D01*
X17011Y27564D01*
X12171D01*
X12158Y27586D01*
X12086Y27658D01*
X11999Y27709D01*
X11901Y27735D01*
X11799D01*
X11701Y27709D01*
X11614Y27658D01*
X11542Y27586D01*
X11529Y27564D01*
X11171D01*
X11158Y27586D01*
X11086Y27658D01*
X10999Y27709D01*
X10901Y27735D01*
X10799D01*
X10701Y27709D01*
X10614Y27658D01*
X10542Y27586D01*
X10491Y27499D01*
X10465Y27401D01*
Y27299D01*
X10491Y27201D01*
X10542Y27114D01*
X10614Y27042D01*
X10701Y26991D01*
X10799Y26965D01*
X10901D01*
X10999Y26991D01*
X11086Y27042D01*
X11158Y27114D01*
X11171Y27136D01*
X11529D01*
X11542Y27114D01*
X11614Y27042D01*
X11701Y26991D01*
X11799Y26965D01*
X11901D01*
X11999Y26991D01*
X12086Y27042D01*
X12158Y27114D01*
X12171Y27136D01*
X13185D01*
Y26880D01*
X12795D01*
X12713Y26864D01*
X12643Y26818D01*
X12457Y26631D01*
X12113D01*
X12086Y26658D01*
X11999Y26709D01*
X11901Y26735D01*
X11799D01*
X11701Y26709D01*
X11614Y26658D01*
X11542Y26586D01*
X11529Y26564D01*
X11235D01*
Y26735D01*
X10465D01*
Y25965D01*
X11235D01*
Y26136D01*
X11529D01*
X11542Y26114D01*
X11614Y26042D01*
X11701Y25991D01*
X11799Y25965D01*
X11901D01*
X11999Y25991D01*
X12086Y26042D01*
X12158Y26114D01*
X12209Y26201D01*
X12209Y26203D01*
X12546D01*
X12628Y26219D01*
X12697Y26265D01*
X12884Y26452D01*
X13185D01*
Y26193D01*
X13612D01*
X14206Y25599D01*
X14276Y25552D01*
X14358Y25536D01*
X17211D01*
X17586Y25161D01*
Y25100D01*
X17602Y25018D01*
X17649Y24949D01*
X17718Y24902D01*
X17800Y24886D01*
X17882Y24902D01*
X17951Y24949D01*
X17998Y25018D01*
X18014Y25100D01*
Y25250D01*
X17998Y25332D01*
X17951Y25401D01*
X17451Y25901D01*
X17382Y25948D01*
X17300Y25964D01*
X14447D01*
X13915Y26496D01*
Y27136D01*
X14585D01*
Y26193D01*
X15250D01*
X15256Y26180D01*
X15256Y26166D01*
X15265Y26158D01*
X15269Y26147D01*
X15282Y26141D01*
X15292Y26132D01*
X15336Y26116D01*
X15348Y26116D01*
X15358Y26112D01*
X15915D01*
X15961Y26131D01*
X15964Y26134D01*
X15982Y26177D01*
X16665D01*
Y26486D01*
X17950D01*
X18032Y26502D01*
X18101Y26549D01*
X18148Y26618D01*
X18164Y26700D01*
X18148Y26782D01*
X18101Y26851D01*
X18032Y26898D01*
X17950Y26914D01*
X16665D01*
Y27123D01*
X16710Y27136D01*
X17100D01*
X17182Y27152D01*
X17251Y27199D01*
X17951Y27899D01*
X17998Y27968D01*
X18014Y28050D01*
X17998Y28132D01*
X17951Y28201D01*
X17882Y28248D01*
X17800Y28264D01*
D02*
G37*
G36*
X16400Y25465D02*
X12450D01*
X12404Y25446D01*
X12385Y25400D01*
Y24574D01*
X12353Y24537D01*
X12335Y24537D01*
X11347D01*
Y23531D01*
X12353D01*
Y24397D01*
X12403Y24407D01*
X12404Y24404D01*
X12450Y24385D01*
X16400D01*
X16446Y24404D01*
X16463Y24444D01*
X16665D01*
Y24736D01*
X17200D01*
X17282Y24752D01*
X17351Y24799D01*
X17398Y24868D01*
X17414Y24950D01*
X17398Y25032D01*
X17351Y25101D01*
X17282Y25148D01*
X17200Y25164D01*
X16665D01*
Y25391D01*
X16465D01*
Y25400D01*
X16446Y25446D01*
X16400Y25465D01*
D02*
G37*
G36*
X40675Y23175D02*
X40400D01*
Y22900D01*
X40675D01*
Y23175D01*
D02*
G37*
G36*
X39400Y23150D02*
Y22900D01*
X39650D01*
X39646Y22914D01*
X39590Y23011D01*
X39511Y23090D01*
X39414Y23146D01*
X39400Y23150D01*
D02*
G37*
G36*
X37400D02*
Y22900D01*
X37650D01*
X37646Y22914D01*
X37590Y23011D01*
X37511Y23090D01*
X37414Y23146D01*
X37400Y23150D01*
D02*
G37*
G36*
X38400D02*
Y22900D01*
X38650D01*
X38646Y22914D01*
X38590Y23011D01*
X38511Y23090D01*
X38414Y23146D01*
X38400Y23150D01*
D02*
G37*
G36*
X39100D02*
X39086Y23146D01*
X38989Y23090D01*
X38910Y23011D01*
X38854Y22914D01*
X38850Y22900D01*
X39100D01*
Y23150D01*
D02*
G37*
G36*
X37100D02*
X37086Y23146D01*
X36989Y23090D01*
X36910Y23011D01*
X36854Y22914D01*
X36850Y22900D01*
X37100D01*
Y23150D01*
D02*
G37*
G36*
X38100D02*
X38086Y23146D01*
X37989Y23090D01*
X37910Y23011D01*
X37854Y22914D01*
X37850Y22900D01*
X38100D01*
Y23150D01*
D02*
G37*
G36*
X40100Y23175D02*
X39825D01*
Y22900D01*
X40100D01*
Y23175D01*
D02*
G37*
G36*
X39650Y22600D02*
X39400D01*
Y22350D01*
X39414Y22354D01*
X39511Y22410D01*
X39590Y22489D01*
X39646Y22586D01*
X39650Y22600D01*
D02*
G37*
G36*
X38650D02*
X38400D01*
Y22350D01*
X38414Y22354D01*
X38511Y22410D01*
X38590Y22489D01*
X38646Y22586D01*
X38650Y22600D01*
D02*
G37*
G36*
X37650D02*
X37400D01*
Y22350D01*
X37414Y22354D01*
X37511Y22410D01*
X37590Y22489D01*
X37646Y22586D01*
X37650Y22600D01*
D02*
G37*
G36*
X39100D02*
X38850D01*
X38854Y22586D01*
X38910Y22489D01*
X38989Y22410D01*
X39086Y22354D01*
X39100Y22350D01*
Y22600D01*
D02*
G37*
G36*
X38100D02*
X37850D01*
X37854Y22586D01*
X37910Y22489D01*
X37989Y22410D01*
X38086Y22354D01*
X38100Y22350D01*
Y22600D01*
D02*
G37*
G36*
X37100D02*
X36850D01*
X36854Y22586D01*
X36910Y22489D01*
X36989Y22410D01*
X37086Y22354D01*
X37100Y22350D01*
Y22600D01*
D02*
G37*
G36*
X40675D02*
X40400D01*
Y22325D01*
X40675D01*
Y22600D01*
D02*
G37*
G36*
X40100D02*
X39825D01*
Y22325D01*
X40100D01*
Y22600D01*
D02*
G37*
G36*
X30640Y22685D02*
X30539D01*
X30441Y22659D01*
X30353Y22608D01*
X30282Y22536D01*
X30231Y22449D01*
X30205Y22351D01*
Y22249D01*
X30231Y22151D01*
X30282Y22064D01*
X30353Y21992D01*
X30441Y21941D01*
X30539Y21915D01*
X30640D01*
X30738Y21941D01*
X30826Y21992D01*
X30898Y22064D01*
X30948Y22151D01*
X30975Y22249D01*
Y22351D01*
X30948Y22449D01*
X30898Y22536D01*
X30826Y22608D01*
X30738Y22659D01*
X30640Y22685D01*
D02*
G37*
G36*
X29262D02*
X29161D01*
X29063Y22659D01*
X28976Y22608D01*
X28904Y22536D01*
X28853Y22449D01*
X28827Y22351D01*
Y22249D01*
X28853Y22151D01*
X28904Y22064D01*
X28976Y21992D01*
X29063Y21941D01*
X29161Y21915D01*
X29262D01*
X29360Y21941D01*
X29448Y21992D01*
X29520Y22064D01*
X29570Y22151D01*
X29597Y22249D01*
Y22351D01*
X29570Y22449D01*
X29520Y22536D01*
X29448Y22608D01*
X29360Y22659D01*
X29262Y22685D01*
D02*
G37*
G36*
X27885D02*
X27783D01*
X27685Y22659D01*
X27598Y22608D01*
X27526Y22536D01*
X27475Y22449D01*
X27449Y22351D01*
Y22249D01*
X27475Y22151D01*
X27526Y22064D01*
X27598Y21992D01*
X27685Y21941D01*
X27783Y21915D01*
X27885D01*
X27982Y21941D01*
X28070Y21992D01*
X28142Y22064D01*
X28192Y22151D01*
X28219Y22249D01*
Y22351D01*
X28192Y22449D01*
X28142Y22536D01*
X28070Y22608D01*
X27982Y22659D01*
X27885Y22685D01*
D02*
G37*
G36*
X26507D02*
X26405D01*
X26307Y22659D01*
X26220Y22608D01*
X26148Y22536D01*
X26097Y22449D01*
X26071Y22351D01*
Y22249D01*
X26097Y22151D01*
X26148Y22064D01*
X26220Y21992D01*
X26307Y21941D01*
X26405Y21915D01*
X26507D01*
X26604Y21941D01*
X26692Y21992D01*
X26764Y22064D01*
X26814Y22151D01*
X26841Y22249D01*
Y22351D01*
X26814Y22449D01*
X26764Y22536D01*
X26692Y22608D01*
X26604Y22659D01*
X26507Y22685D01*
D02*
G37*
G36*
X25129D02*
X25027D01*
X24929Y22659D01*
X24842Y22608D01*
X24770Y22536D01*
X24719Y22449D01*
X24693Y22351D01*
Y22249D01*
X24719Y22151D01*
X24770Y22064D01*
X24842Y21992D01*
X24929Y21941D01*
X25027Y21915D01*
X25129D01*
X25226Y21941D01*
X25314Y21992D01*
X25386Y22064D01*
X25437Y22151D01*
X25463Y22249D01*
Y22351D01*
X25437Y22449D01*
X25386Y22536D01*
X25314Y22608D01*
X25226Y22659D01*
X25129Y22685D01*
D02*
G37*
G36*
X23751D02*
X23649D01*
X23551Y22659D01*
X23464Y22608D01*
X23392Y22536D01*
X23341Y22449D01*
X23315Y22351D01*
Y22249D01*
X23341Y22151D01*
X23392Y22064D01*
X23464Y21992D01*
X23551Y21941D01*
X23649Y21915D01*
X23751D01*
X23849Y21941D01*
X23936Y21992D01*
X24008Y22064D01*
X24059Y22151D01*
X24085Y22249D01*
Y22351D01*
X24059Y22449D01*
X24008Y22536D01*
X23936Y22608D01*
X23849Y22659D01*
X23751Y22685D01*
D02*
G37*
G36*
X22373D02*
X22271D01*
X22174Y22659D01*
X22086Y22608D01*
X22014Y22536D01*
X21963Y22449D01*
X21937Y22351D01*
Y22249D01*
X21963Y22151D01*
X22014Y22064D01*
X22086Y21992D01*
X22174Y21941D01*
X22271Y21915D01*
X22373D01*
X22471Y21941D01*
X22558Y21992D01*
X22630Y22064D01*
X22681Y22151D01*
X22707Y22249D01*
Y22351D01*
X22681Y22449D01*
X22630Y22536D01*
X22558Y22608D01*
X22471Y22659D01*
X22373Y22685D01*
D02*
G37*
G36*
X20995D02*
X20893D01*
X20796Y22659D01*
X20708Y22608D01*
X20636Y22536D01*
X20586Y22449D01*
X20559Y22351D01*
Y22249D01*
X20586Y22151D01*
X20636Y22064D01*
X20708Y21992D01*
X20796Y21941D01*
X20893Y21915D01*
X20995D01*
X21093Y21941D01*
X21180Y21992D01*
X21252Y22064D01*
X21303Y22151D01*
X21329Y22249D01*
Y22351D01*
X21303Y22449D01*
X21252Y22536D01*
X21180Y22608D01*
X21093Y22659D01*
X20995Y22685D01*
D02*
G37*
G36*
X19617D02*
X19515D01*
X19418Y22659D01*
X19330Y22608D01*
X19258Y22536D01*
X19208Y22449D01*
X19181Y22351D01*
Y22249D01*
X19208Y22151D01*
X19258Y22064D01*
X19330Y21992D01*
X19418Y21941D01*
X19515Y21915D01*
X19617D01*
X19715Y21941D01*
X19802Y21992D01*
X19874Y22064D01*
X19925Y22151D01*
X19951Y22249D01*
Y22351D01*
X19925Y22449D01*
X19874Y22536D01*
X19802Y22608D01*
X19715Y22659D01*
X19617Y22685D01*
D02*
G37*
G36*
X18573D02*
X17803D01*
Y21915D01*
X18573D01*
Y22685D01*
D02*
G37*
G36*
X40301Y22135D02*
X40199D01*
X40101Y22109D01*
X40014Y22058D01*
X39942Y21986D01*
X39891Y21899D01*
X39865Y21801D01*
Y21699D01*
X39891Y21601D01*
X39942Y21514D01*
X40014Y21442D01*
X40101Y21391D01*
X40199Y21365D01*
X40301D01*
X40399Y21391D01*
X40486Y21442D01*
X40558Y21514D01*
X40609Y21601D01*
X40635Y21699D01*
Y21801D01*
X40609Y21899D01*
X40558Y21986D01*
X40486Y22058D01*
X40399Y22109D01*
X40301Y22135D01*
D02*
G37*
G36*
X39301D02*
X39199D01*
X39101Y22109D01*
X39014Y22058D01*
X38942Y21986D01*
X38891Y21899D01*
X38865Y21801D01*
Y21699D01*
X38891Y21601D01*
X38942Y21514D01*
X39014Y21442D01*
X39101Y21391D01*
X39199Y21365D01*
X39301D01*
X39399Y21391D01*
X39486Y21442D01*
X39558Y21514D01*
X39609Y21601D01*
X39635Y21699D01*
Y21801D01*
X39609Y21899D01*
X39558Y21986D01*
X39486Y22058D01*
X39399Y22109D01*
X39301Y22135D01*
D02*
G37*
G36*
X38301D02*
X38199D01*
X38101Y22109D01*
X38014Y22058D01*
X37942Y21986D01*
X37891Y21899D01*
X37865Y21801D01*
Y21699D01*
X37891Y21601D01*
X37942Y21514D01*
X38014Y21442D01*
X38101Y21391D01*
X38199Y21365D01*
X38301D01*
X38399Y21391D01*
X38486Y21442D01*
X38558Y21514D01*
X38609Y21601D01*
X38635Y21699D01*
Y21801D01*
X38609Y21899D01*
X38558Y21986D01*
X38486Y22058D01*
X38399Y22109D01*
X38301Y22135D01*
D02*
G37*
G36*
X37301D02*
X37199D01*
X37101Y22109D01*
X37014Y22058D01*
X36942Y21986D01*
X36891Y21899D01*
X36865Y21801D01*
Y21699D01*
X36891Y21601D01*
X36942Y21514D01*
X37014Y21442D01*
X37101Y21391D01*
X37199Y21365D01*
X37301D01*
X37399Y21391D01*
X37486Y21442D01*
X37558Y21514D01*
X37609Y21601D01*
X37635Y21699D01*
Y21801D01*
X37609Y21899D01*
X37558Y21986D01*
X37486Y22058D01*
X37399Y22109D01*
X37301Y22135D01*
D02*
G37*
G36*
X48224Y22700D02*
X48076D01*
X47931Y22671D01*
X47795Y22615D01*
X47672Y22533D01*
X47567Y22428D01*
X47485Y22305D01*
X47429Y22169D01*
X47400Y22024D01*
Y21876D01*
X47429Y21731D01*
X47485Y21595D01*
X47567Y21472D01*
X47672Y21367D01*
X47795Y21285D01*
X47931Y21229D01*
X48076Y21200D01*
X48224D01*
X48369Y21229D01*
X48505Y21285D01*
X48628Y21367D01*
X48733Y21472D01*
X48815Y21595D01*
X48871Y21731D01*
X48900Y21876D01*
Y22024D01*
X48871Y22169D01*
X48815Y22305D01*
X48733Y22428D01*
X48628Y22533D01*
X48505Y22615D01*
X48369Y22671D01*
X48224Y22700D01*
D02*
G37*
%LPD*%
G36*
X15918Y26180D02*
X15915Y26177D01*
X15358D01*
X15315Y26193D01*
Y27136D01*
X15918D01*
Y26180D01*
D02*
G37*
G36*
X16400Y24450D02*
X12450D01*
Y25400D01*
X16400D01*
Y24450D01*
D02*
G37*
%LPC*%
G36*
X32650Y32791D02*
X32596Y32781D01*
X32550Y32750D01*
X32519Y32704D01*
X32509Y32650D01*
X32519Y32596D01*
X32550Y32550D01*
X32596Y32519D01*
X32650Y32509D01*
X32704Y32519D01*
X32750Y32550D01*
X32781Y32596D01*
X32791Y32650D01*
X32781Y32704D01*
X32750Y32750D01*
X32704Y32781D01*
X32650Y32791D01*
D02*
G37*
G36*
X31550D02*
X31496Y32781D01*
X31450Y32750D01*
X31419Y32704D01*
X31409Y32650D01*
X31419Y32596D01*
X31450Y32550D01*
X31496Y32519D01*
X31550Y32509D01*
X31604Y32519D01*
X31650Y32550D01*
X31681Y32596D01*
X31691Y32650D01*
X31681Y32704D01*
X31650Y32750D01*
X31604Y32781D01*
X31550Y32791D01*
D02*
G37*
G36*
X35150Y30941D02*
X35096Y30931D01*
X35050Y30900D01*
X35019Y30854D01*
X35009Y30800D01*
X35019Y30746D01*
X35050Y30700D01*
X35096Y30669D01*
X35150Y30659D01*
X35204Y30669D01*
X35250Y30700D01*
X35281Y30746D01*
X35291Y30800D01*
X35281Y30854D01*
X35250Y30900D01*
X35204Y30931D01*
X35150Y30941D01*
D02*
G37*
G36*
Y28591D02*
X35096Y28581D01*
X35050Y28550D01*
X35019Y28504D01*
X35009Y28450D01*
X35019Y28396D01*
X35050Y28350D01*
X35096Y28319D01*
X35150Y28309D01*
X35204Y28319D01*
X35250Y28350D01*
X35281Y28396D01*
X35291Y28450D01*
X35281Y28504D01*
X35250Y28550D01*
X35204Y28581D01*
X35150Y28591D01*
D02*
G37*
G36*
X37850Y28441D02*
X37796Y28431D01*
X37750Y28400D01*
X37719Y28354D01*
X37709Y28300D01*
X37719Y28246D01*
X37750Y28200D01*
X37796Y28169D01*
X37850Y28159D01*
X37904Y28169D01*
X37950Y28200D01*
X37981Y28246D01*
X37991Y28300D01*
X37981Y28354D01*
X37950Y28400D01*
X37904Y28431D01*
X37850Y28441D01*
D02*
G37*
G36*
Y26641D02*
X37796Y26631D01*
X37750Y26600D01*
X37719Y26554D01*
X37709Y26500D01*
X37719Y26446D01*
X37750Y26400D01*
X37796Y26369D01*
X37850Y26359D01*
X37904Y26369D01*
X37950Y26400D01*
X37981Y26446D01*
X37991Y26500D01*
X37981Y26554D01*
X37950Y26600D01*
X37904Y26631D01*
X37850Y26641D01*
D02*
G37*
G36*
X43949Y32462D02*
Y32049D01*
X44362D01*
X44358Y32069D01*
X44314Y32175D01*
X44251Y32270D01*
X44170Y32351D01*
X44075Y32414D01*
X43969Y32458D01*
X43949Y32462D01*
D02*
G37*
G36*
X43649Y32462D02*
X43630Y32458D01*
X43524Y32414D01*
X43429Y32351D01*
X43348Y32270D01*
X43284Y32175D01*
X43240Y32069D01*
X43236Y32049D01*
X43649D01*
Y32462D01*
D02*
G37*
G36*
Y31749D02*
X43236D01*
X43240Y31730D01*
X43284Y31624D01*
X43348Y31529D01*
X43429Y31448D01*
X43524Y31384D01*
X43630Y31340D01*
X43649Y31336D01*
Y31749D01*
D02*
G37*
G36*
X44362D02*
X43949D01*
Y31336D01*
X43969Y31340D01*
X44075Y31384D01*
X44170Y31448D01*
X44251Y31529D01*
X44314Y31624D01*
X44358Y31730D01*
X44362Y31749D01*
D02*
G37*
G36*
X46977Y31819D02*
X46882D01*
X46790Y31795D01*
X46707Y31747D01*
X46640Y31680D01*
X46593Y31598D01*
X46568Y31506D01*
Y31411D01*
X46593Y31319D01*
X46640Y31237D01*
X46707Y31169D01*
X46790Y31122D01*
X46882Y31097D01*
X46977D01*
X47069Y31122D01*
X47151Y31169D01*
X47218Y31237D01*
X47266Y31319D01*
X47290Y31411D01*
Y31506D01*
X47266Y31598D01*
X47218Y31680D01*
X47151Y31747D01*
X47069Y31795D01*
X46977Y31819D01*
D02*
G37*
G36*
X41550Y30973D02*
Y30648D01*
X41875D01*
X41850Y30743D01*
X41800Y30828D01*
X41730Y30898D01*
X41645Y30948D01*
X41550Y30973D01*
D02*
G37*
G36*
X41450D02*
X41355Y30948D01*
X41270Y30898D01*
X41200Y30828D01*
X41150Y30743D01*
X41125Y30648D01*
X41450D01*
Y30973D01*
D02*
G37*
G36*
X45069Y31800D02*
X44931D01*
X44796Y31773D01*
X44669Y31720D01*
X44554Y31644D01*
X44456Y31546D01*
X44380Y31431D01*
X44327Y31304D01*
X44300Y31169D01*
Y31031D01*
X44327Y30896D01*
X44380Y30769D01*
X44456Y30654D01*
X44554Y30556D01*
X44669Y30480D01*
X44796Y30427D01*
X44931Y30400D01*
X45069D01*
X45204Y30427D01*
X45331Y30480D01*
X45446Y30556D01*
X45544Y30654D01*
X45620Y30769D01*
X45673Y30896D01*
X45700Y31031D01*
Y31169D01*
X45673Y31304D01*
X45620Y31431D01*
X45544Y31546D01*
X45446Y31644D01*
X45331Y31720D01*
X45204Y31773D01*
X45069Y31800D01*
D02*
G37*
G36*
X41875Y30548D02*
X41550D01*
Y30223D01*
X41645Y30248D01*
X41730Y30298D01*
X41800Y30368D01*
X41850Y30453D01*
X41875Y30548D01*
D02*
G37*
G36*
X41450D02*
X41125D01*
X41150Y30453D01*
X41200Y30368D01*
X41270Y30298D01*
X41355Y30248D01*
X41450Y30223D01*
Y30548D01*
D02*
G37*
G36*
X42544Y30433D02*
X42456D01*
X42371Y30410D01*
X42294Y30366D01*
X42232Y30304D01*
X42188Y30227D01*
X42165Y30142D01*
Y30054D01*
X42188Y29969D01*
X42232Y29892D01*
X42294Y29830D01*
X42371Y29786D01*
X42456Y29763D01*
X42544D01*
X42629Y29786D01*
X42706Y29830D01*
X42768Y29892D01*
X42812Y29969D01*
X42835Y30054D01*
Y30142D01*
X42812Y30227D01*
X42768Y30304D01*
X42706Y30366D01*
X42629Y30410D01*
X42544Y30433D01*
D02*
G37*
G36*
X41544Y29933D02*
X41456D01*
X41371Y29910D01*
X41294Y29866D01*
X41232Y29804D01*
X41188Y29727D01*
X41165Y29642D01*
Y29554D01*
X41188Y29469D01*
X41232Y29392D01*
X41294Y29330D01*
X41371Y29286D01*
X41456Y29263D01*
X41544D01*
X41629Y29286D01*
X41706Y29330D01*
X41768Y29392D01*
X41812Y29469D01*
X41835Y29554D01*
Y29642D01*
X41812Y29727D01*
X41768Y29804D01*
X41706Y29866D01*
X41629Y29910D01*
X41544Y29933D01*
D02*
G37*
G36*
X42544Y28433D02*
X42456D01*
X42371Y28410D01*
X42294Y28366D01*
X42232Y28304D01*
X42188Y28227D01*
X42165Y28142D01*
Y28054D01*
X42188Y27969D01*
X42232Y27892D01*
X42294Y27830D01*
X42371Y27786D01*
X42456Y27763D01*
X42544D01*
X42629Y27786D01*
X42706Y27830D01*
X42768Y27892D01*
X42812Y27969D01*
X42835Y28054D01*
Y28142D01*
X42812Y28227D01*
X42768Y28304D01*
X42706Y28366D01*
X42629Y28410D01*
X42544Y28433D01*
D02*
G37*
G36*
X41544Y27933D02*
X41456D01*
X41371Y27910D01*
X41294Y27866D01*
X41232Y27804D01*
X41188Y27727D01*
X41165Y27642D01*
Y27554D01*
X41188Y27469D01*
X41232Y27392D01*
X41294Y27330D01*
X41371Y27286D01*
X41456Y27263D01*
X41544D01*
X41629Y27286D01*
X41706Y27330D01*
X41768Y27392D01*
X41812Y27469D01*
X41835Y27554D01*
Y27642D01*
X41812Y27727D01*
X41768Y27804D01*
X41706Y27866D01*
X41629Y27910D01*
X41544Y27933D01*
D02*
G37*
G36*
X42835Y27433D02*
X42165D01*
Y26763D01*
X42835D01*
Y27433D01*
D02*
G37*
G36*
X43949Y26364D02*
Y25951D01*
X44362D01*
X44358Y25970D01*
X44314Y26076D01*
X44251Y26171D01*
X44170Y26252D01*
X44075Y26316D01*
X43969Y26360D01*
X43949Y26364D01*
D02*
G37*
G36*
X43649Y26364D02*
X43630Y26360D01*
X43524Y26316D01*
X43429Y26252D01*
X43348Y26171D01*
X43284Y26076D01*
X43240Y25970D01*
X43236Y25951D01*
X43649D01*
Y26364D01*
D02*
G37*
G36*
X45069Y27300D02*
X44931D01*
X44796Y27273D01*
X44669Y27220D01*
X44554Y27144D01*
X44456Y27046D01*
X44380Y26931D01*
X44327Y26804D01*
X44300Y26669D01*
Y26531D01*
X44327Y26396D01*
X44380Y26269D01*
X44456Y26154D01*
X44554Y26056D01*
X44669Y25980D01*
X44796Y25927D01*
X44931Y25900D01*
X45069D01*
X45204Y25927D01*
X45331Y25980D01*
X45446Y26056D01*
X45544Y26154D01*
X45620Y26269D01*
X45673Y26396D01*
X45700Y26531D01*
Y26669D01*
X45673Y26804D01*
X45620Y26931D01*
X45544Y27046D01*
X45446Y27144D01*
X45331Y27220D01*
X45204Y27273D01*
X45069Y27300D01*
D02*
G37*
G36*
X46977Y26603D02*
X46882D01*
X46790Y26578D01*
X46707Y26531D01*
X46640Y26463D01*
X46593Y26381D01*
X46568Y26289D01*
Y26194D01*
X46593Y26102D01*
X46640Y26020D01*
X46707Y25953D01*
X46790Y25905D01*
X46882Y25881D01*
X46977D01*
X47069Y25905D01*
X47151Y25953D01*
X47218Y26020D01*
X47266Y26102D01*
X47290Y26194D01*
Y26289D01*
X47266Y26381D01*
X47218Y26463D01*
X47151Y26531D01*
X47069Y26578D01*
X46977Y26603D01*
D02*
G37*
G36*
X43649Y25651D02*
X43236D01*
X43240Y25631D01*
X43284Y25525D01*
X43348Y25430D01*
X43429Y25349D01*
X43524Y25286D01*
X43630Y25242D01*
X43649Y25238D01*
Y25651D01*
D02*
G37*
G36*
X44362D02*
X43949D01*
Y25238D01*
X43969Y25242D01*
X44075Y25286D01*
X44170Y25349D01*
X44251Y25430D01*
X44314Y25525D01*
X44358Y25631D01*
X44362Y25651D01*
D02*
G37*
%LPD*%
D11*
X10400Y23516D02*
X11850Y22066D01*
X10400Y23516D02*
Y27900D01*
X10850Y28350D01*
X12750Y36000D02*
X14200Y37450D01*
X21200D01*
X12750Y35200D02*
Y36000D01*
X11950Y34400D02*
X12750Y35200D01*
X12550Y35350D02*
Y36850D01*
X11350Y34150D02*
X12550Y35350D01*
Y36850D02*
X14200Y38500D01*
X13000Y35300D02*
X15250Y33050D01*
X19600D01*
X11850Y31600D02*
Y32600D01*
Y29350D02*
Y31600D01*
Y28350D02*
Y29350D01*
X10850Y28350D02*
X11850D01*
X10850D02*
Y29350D01*
X33134Y48750D02*
X33184Y48700D01*
X35000D01*
X30375Y48750D02*
X33134D01*
X32961Y48489D02*
X33950Y47500D01*
X20450Y48489D02*
X32961D01*
X20400Y47850D02*
X30750D01*
X10850Y31600D02*
X11350Y32100D01*
Y34150D01*
X10850Y32600D02*
Y34350D01*
X12200Y35700D01*
Y37000D01*
X14750Y39550D01*
X14200Y38500D02*
X24650D01*
X35850Y34450D02*
X36300Y34000D01*
Y32600D02*
Y34000D01*
X33200Y47800D02*
X33750Y47250D01*
Y46150D02*
Y47250D01*
X33950Y42150D02*
Y47500D01*
X35750Y49450D02*
X38326D01*
X38700Y49076D01*
Y46400D02*
Y47350D01*
X37945D02*
X38700D01*
Y48900D01*
X37945Y47350D02*
Y47930D01*
X37926Y47950D02*
X37945Y47930D01*
X38700Y48900D02*
Y49076D01*
X35000Y48700D02*
X35750Y49450D01*
X42517Y45142D02*
X42817Y44842D01*
Y43529D02*
Y44842D01*
X37224Y48100D02*
X37237Y48087D01*
X36900Y48100D02*
X37224D01*
X36700Y47350D02*
Y48900D01*
X43006Y44843D02*
X43487Y44362D01*
X43006Y44843D02*
Y46300D01*
X42000D02*
X43006D01*
X37950Y40700D02*
X38500D01*
X36850Y39600D02*
X37950Y40700D01*
X36950Y43650D02*
X37424D01*
X37237Y48087D02*
X37267D01*
X37374Y47950D02*
Y47980D01*
X37267Y48087D02*
X37374Y47980D01*
X31350Y44900D02*
Y47550D01*
X14750Y39550D02*
X24050D01*
X34550Y41550D02*
X38150D01*
X33950Y42150D02*
X34550Y41550D01*
X34500Y41350D02*
X39400D01*
X33750Y42100D02*
Y46150D01*
Y42100D02*
X34500Y41350D01*
X39400D02*
X40350Y42300D01*
X46600D01*
X47650Y43350D01*
X40250Y42500D02*
X46400D01*
X39850Y42100D02*
X40250Y42500D01*
X46400D02*
X47450Y43550D01*
X38700Y42100D02*
X39850D01*
X38150Y41550D02*
X38700Y42100D01*
X36700Y43000D02*
Y44600D01*
Y42100D02*
Y43000D01*
X37385D01*
X36700Y46400D02*
Y47350D01*
X37355D01*
X38700Y43000D02*
Y44600D01*
Y42100D02*
Y43000D01*
X37976D02*
X38700D01*
X37976Y43650D02*
X37976Y43650D01*
Y43000D02*
Y43650D01*
X47450Y43550D02*
Y46450D01*
X47650Y43350D02*
Y44950D01*
X47850Y45150D01*
X47450Y46450D02*
X47700Y46700D01*
X47850Y45150D02*
X48950D01*
X47700Y46700D02*
X48950D01*
X43717Y45279D02*
X43728Y45290D01*
X44528D01*
X31000Y25000D02*
Y29550D01*
X29400Y31150D02*
X31000Y29550D01*
X29400Y31150D02*
Y34000D01*
X29850Y34450D02*
X35850D01*
X29400Y34000D02*
X29850Y34450D01*
X45658Y43921D02*
X45667Y43929D01*
X45658Y42908D02*
Y43921D01*
X45650Y42900D02*
X45658Y42908D01*
X45350Y43300D02*
X45358Y43308D01*
Y44121D01*
X45367Y44129D01*
X45992Y45326D02*
X45995Y45323D01*
X46467Y43329D02*
Y44879D01*
X45995Y43740D02*
Y45323D01*
X46917Y43829D02*
Y45229D01*
X43698Y40078D02*
X43702Y40074D01*
Y38334D02*
Y40074D01*
X40767Y44529D02*
X40776Y44520D01*
X42567Y43279D02*
X42817Y43529D01*
X42558Y44520D02*
X42567Y44511D01*
X44617Y46029D02*
Y46829D01*
X44817Y45579D02*
Y46329D01*
X44528Y45290D02*
X44817Y45579D01*
X40776Y44520D02*
X42558D01*
D15*
X15950Y49100D02*
X17339D01*
X17500Y49261D01*
X27600Y39600D02*
X32100D01*
X27600Y44850D02*
X30400Y47650D01*
X29800Y41975D02*
Y42974D01*
X29700Y43074D02*
X29800Y42974D01*
X30850Y31550D02*
X30869Y31569D01*
X30934D01*
X30934Y31569D01*
X36882D01*
X29850Y31150D02*
X30450Y31750D01*
X36650D01*
X37800Y32900D01*
X47600Y27800D02*
Y32250D01*
X47042Y27242D02*
X47600Y27800D01*
X46950Y32900D02*
X47600Y32250D01*
X46929Y30458D02*
X47450Y30979D01*
X46850Y32650D02*
X47450Y32050D01*
Y30979D02*
Y32050D01*
X37963Y32650D02*
X46850D01*
X29050Y41300D02*
X30677D01*
X29700Y43074D02*
Y43100D01*
X37800Y32900D02*
X46950D01*
X36882Y31569D02*
X37963Y32650D01*
X36850Y38014D02*
Y39600D01*
Y38014D02*
X37089Y37775D01*
X37125D02*
X37150Y37800D01*
X37089Y37775D02*
X37125D01*
X37150Y37800D02*
X42850D01*
X32100Y39600D02*
X33700D01*
X44900Y38450D02*
Y40650D01*
Y37800D02*
Y38450D01*
X46000D01*
X42850Y37800D02*
X44900D01*
X27600Y39600D02*
Y44850D01*
X46929Y27242D02*
X47042D01*
X42801Y31899D02*
X43799D01*
X41500Y30598D02*
X42801Y31899D01*
X36501Y28599D02*
X41499D01*
X36500Y28600D02*
X36501Y28599D01*
X41499D02*
X41500Y28598D01*
X42498Y29100D02*
X42500Y29098D01*
X40750Y29100D02*
X42498D01*
X38950Y28900D02*
X40550D01*
X40750Y29100D01*
X38950Y28900D02*
Y30700D01*
D25*
X37374Y47950D02*
D03*
X37926D02*
D03*
X37424Y43650D02*
D03*
X37976D02*
D03*
D29*
X37945Y47350D02*
D03*
X37355D02*
D03*
X37976Y43000D02*
D03*
X37385D02*
D03*
D45*
X13550Y24934D02*
D03*
Y26666D02*
D03*
X16300Y24918D02*
D03*
Y26650D02*
D03*
X14950Y24934D02*
D03*
Y26666D02*
D03*
D105*
X13558Y24926D02*
X16292D01*
X16332Y24950D02*
X17200D01*
X16350Y26700D02*
X17950D01*
X16300Y26650D02*
X16350Y26700D01*
X14950Y27350D02*
X17100D01*
X14950Y26666D02*
Y27350D01*
X11850D02*
X14950D01*
X17300Y25750D02*
X17800Y25250D01*
Y25100D02*
Y25250D01*
X14358Y25750D02*
X17300D01*
X13550Y26558D02*
Y26666D01*
Y26558D02*
X14358Y25750D01*
X17100Y27350D02*
X17800Y28050D01*
X10850Y27350D02*
X11850D01*
Y26350D02*
X11917Y26417D01*
X12546D01*
X12795Y26666D01*
X13550D01*
X10850Y26350D02*
X11850D01*
X16300Y24918D02*
X16332Y24950D01*
X16292Y24926D02*
X16300Y24918D01*
X13550Y24934D02*
X13558Y24926D01*
X16250Y26700D02*
X16300Y26650D01*
X43799Y25801D02*
Y31899D01*
D106*
X11600Y40878D02*
D03*
Y42256D02*
D03*
Y45012D02*
D03*
Y46390D02*
D03*
Y47768D02*
D03*
Y43634D02*
D03*
Y39500D02*
D03*
Y38122D02*
D03*
Y36744D02*
D03*
X11850Y32600D02*
D03*
X10850D02*
D03*
X11850Y31600D02*
D03*
Y27350D02*
D03*
X10850D02*
D03*
X11850Y26350D02*
D03*
X10850Y28350D02*
D03*
Y29350D02*
D03*
X11850Y28350D02*
D03*
Y29350D02*
D03*
X37250Y21750D02*
D03*
X38250D02*
D03*
X37250Y22750D02*
D03*
X38250D02*
D03*
X40250Y21750D02*
D03*
X39250Y22750D02*
D03*
Y21750D02*
D03*
X26456Y22300D02*
D03*
X25078D02*
D03*
X22322D02*
D03*
X20944D02*
D03*
X19566D02*
D03*
X23700D02*
D03*
X27834D02*
D03*
X29212D02*
D03*
X30590D02*
D03*
D107*
X11600Y49146D02*
D03*
X10850Y31600D02*
D03*
Y26350D02*
D03*
D108*
X42500Y27098D02*
D03*
D109*
X41500Y27598D02*
D03*
X42500Y28098D02*
D03*
X41500Y28598D02*
D03*
X42500Y29098D02*
D03*
X41500Y29598D02*
D03*
X42500Y30098D02*
D03*
X41500Y30598D02*
D03*
D110*
X46929Y26242D02*
D03*
Y27242D02*
D03*
Y31458D02*
D03*
Y30458D02*
D03*
D111*
X45000Y31100D02*
D03*
Y26600D02*
D03*
D112*
X43799Y31899D02*
D03*
Y25801D02*
D03*
D113*
X11850Y24034D02*
D03*
D114*
Y22066D02*
D03*
D115*
X40250Y22750D02*
D03*
X18188Y22300D02*
D03*
D116*
X45233Y47837D02*
D03*
X42300D02*
D03*
D117*
X45292Y49333D02*
D03*
X42241D02*
D03*
D118*
X42783Y48251D02*
D03*
X44751D02*
D03*
D119*
X48150Y21950D02*
D03*
Y48800D02*
D03*
D120*
X38700Y46400D02*
D03*
X36700Y48900D02*
D03*
X38700D02*
D03*
Y42100D02*
D03*
X36700Y44600D02*
D03*
X38700D02*
D03*
D121*
X36700Y46400D02*
D03*
Y42100D02*
D03*
D122*
X47984Y38434D02*
D03*
Y40834D02*
D03*
D123*
Y37434D02*
D03*
Y39834D02*
D03*
D124*
X48500Y48000D02*
D03*
X48000Y47000D02*
D03*
X48500Y46000D02*
D03*
X48000Y43000D02*
D03*
X48500Y42000D02*
D03*
Y40000D02*
D03*
X48000Y39000D02*
D03*
X48500Y38000D02*
D03*
Y36000D02*
D03*
X48000Y35000D02*
D03*
Y23000D02*
D03*
Y21000D02*
D03*
X47000Y49000D02*
D03*
X47500Y48000D02*
D03*
X47000Y47000D02*
D03*
X47500Y42000D02*
D03*
X47000Y41000D02*
D03*
X47500Y40000D02*
D03*
X47000Y37000D02*
D03*
X47500Y36000D02*
D03*
X47000Y35000D02*
D03*
X47500Y34000D02*
D03*
X47000Y23000D02*
D03*
Y21000D02*
D03*
X46000Y49000D02*
D03*
X46500Y48000D02*
D03*
X46000Y47000D02*
D03*
Y43000D02*
D03*
X46500Y42000D02*
D03*
X46000Y41000D02*
D03*
X46500Y38000D02*
D03*
X46000Y37000D02*
D03*
X46500Y36000D02*
D03*
X46000Y35000D02*
D03*
X46500Y34000D02*
D03*
X46000Y23000D02*
D03*
X46500Y22000D02*
D03*
X46000Y21000D02*
D03*
X45000Y47000D02*
D03*
X45500Y46000D02*
D03*
X45000Y45000D02*
D03*
Y43000D02*
D03*
X45500Y42000D02*
D03*
X45000Y41000D02*
D03*
X45500Y38000D02*
D03*
X45000Y37000D02*
D03*
X45500Y36000D02*
D03*
X45000Y35000D02*
D03*
X45500Y34000D02*
D03*
Y22000D02*
D03*
X45000Y21000D02*
D03*
X44000Y49000D02*
D03*
X44500Y42000D02*
D03*
X44000Y41000D02*
D03*
X44500Y40000D02*
D03*
Y38000D02*
D03*
X44000Y37000D02*
D03*
X44500Y36000D02*
D03*
X44000Y35000D02*
D03*
X44500Y34000D02*
D03*
X44000Y23000D02*
D03*
X44500Y22000D02*
D03*
X44000Y21000D02*
D03*
X43000Y49000D02*
D03*
Y47000D02*
D03*
Y45000D02*
D03*
Y43000D02*
D03*
X43500Y42000D02*
D03*
X43000Y41000D02*
D03*
X43500Y38000D02*
D03*
X43000Y37000D02*
D03*
X43500Y36000D02*
D03*
X43000Y35000D02*
D03*
X43500Y34000D02*
D03*
X43000Y23000D02*
D03*
X43500Y22000D02*
D03*
X43000Y21000D02*
D03*
X42000Y47000D02*
D03*
X42500Y42000D02*
D03*
X42000Y37000D02*
D03*
X42500Y36000D02*
D03*
X42000Y35000D02*
D03*
X42500Y34000D02*
D03*
X42000Y23000D02*
D03*
X42500Y22000D02*
D03*
X42000Y21000D02*
D03*
X41000Y49000D02*
D03*
X41500Y48000D02*
D03*
X41000Y47000D02*
D03*
Y43000D02*
D03*
X41500Y42000D02*
D03*
Y38000D02*
D03*
X41000Y37000D02*
D03*
X41500Y36000D02*
D03*
X41000Y35000D02*
D03*
X41500Y34000D02*
D03*
X41000Y23000D02*
D03*
X41500Y22000D02*
D03*
X41000Y21000D02*
D03*
X40500Y48000D02*
D03*
X40000Y45000D02*
D03*
X40500Y44000D02*
D03*
X40000Y43000D02*
D03*
X40500Y42000D02*
D03*
X40000Y39000D02*
D03*
X40500Y38000D02*
D03*
X40000Y37000D02*
D03*
X40500Y36000D02*
D03*
X40000Y35000D02*
D03*
X40500Y34000D02*
D03*
X40000Y21000D02*
D03*
X39000Y47000D02*
D03*
X39500Y44000D02*
D03*
X39000Y43000D02*
D03*
X39500Y40000D02*
D03*
Y38000D02*
D03*
X39000Y37000D02*
D03*
X39500Y36000D02*
D03*
X39000Y35000D02*
D03*
X39500Y34000D02*
D03*
X39000Y21000D02*
D03*
X38500Y48000D02*
D03*
X38000Y47000D02*
D03*
Y45000D02*
D03*
X38500Y44000D02*
D03*
Y38000D02*
D03*
X38000Y37000D02*
D03*
X38500Y36000D02*
D03*
X38000Y35000D02*
D03*
X38500Y34000D02*
D03*
Y32000D02*
D03*
Y24000D02*
D03*
X38000Y21000D02*
D03*
X37000Y47000D02*
D03*
X37500Y46000D02*
D03*
Y44000D02*
D03*
X37000Y43000D02*
D03*
X37500Y42000D02*
D03*
X37000Y37000D02*
D03*
X37500Y36000D02*
D03*
Y24000D02*
D03*
X37000Y21000D02*
D03*
X36500Y44000D02*
D03*
Y24000D02*
D03*
X36000Y23000D02*
D03*
Y21000D02*
D03*
X35000Y47000D02*
D03*
Y45000D02*
D03*
Y43000D02*
D03*
Y41000D02*
D03*
Y39000D02*
D03*
Y35000D02*
D03*
X35500Y24000D02*
D03*
X35000Y21000D02*
D03*
X34500Y46000D02*
D03*
Y44000D02*
D03*
Y42000D02*
D03*
X34000Y41000D02*
D03*
X34500Y40000D02*
D03*
X34000Y39000D02*
D03*
Y37000D02*
D03*
X34500Y36000D02*
D03*
X34000Y35000D02*
D03*
Y25000D02*
D03*
X34500Y22000D02*
D03*
X34000Y21000D02*
D03*
X33000Y47000D02*
D03*
X33500Y46000D02*
D03*
X33000Y43000D02*
D03*
Y41000D02*
D03*
Y39000D02*
D03*
Y37000D02*
D03*
X33500Y36000D02*
D03*
X33000Y35000D02*
D03*
X33500Y22000D02*
D03*
X33000Y21000D02*
D03*
X32000Y47000D02*
D03*
Y45000D02*
D03*
X32500Y44000D02*
D03*
X32000Y43000D02*
D03*
X32500Y42000D02*
D03*
X32000Y41000D02*
D03*
X32500Y40000D02*
D03*
X32000Y39000D02*
D03*
Y37000D02*
D03*
X32500Y36000D02*
D03*
X32000Y35000D02*
D03*
X32500Y26000D02*
D03*
Y22000D02*
D03*
X32000Y21000D02*
D03*
X31000Y47000D02*
D03*
X31500Y44000D02*
D03*
X31000Y43000D02*
D03*
X31500Y42000D02*
D03*
X31000Y41000D02*
D03*
X31500Y40000D02*
D03*
X31000Y39000D02*
D03*
Y37000D02*
D03*
X31500Y36000D02*
D03*
X31000Y35000D02*
D03*
X31500Y22000D02*
D03*
X31000Y21000D02*
D03*
X30000Y47000D02*
D03*
X30500Y44000D02*
D03*
X30000Y43000D02*
D03*
X30500Y42000D02*
D03*
X30000Y41000D02*
D03*
X30500Y40000D02*
D03*
X30000Y39000D02*
D03*
Y37000D02*
D03*
Y35000D02*
D03*
X30500Y26000D02*
D03*
X30000Y25000D02*
D03*
Y21000D02*
D03*
X29000Y47000D02*
D03*
X29500Y44000D02*
D03*
Y42000D02*
D03*
X29000Y41000D02*
D03*
Y33000D02*
D03*
Y31000D02*
D03*
Y27000D02*
D03*
Y25000D02*
D03*
Y21000D02*
D03*
X28000Y47000D02*
D03*
Y45000D02*
D03*
Y43000D02*
D03*
Y41000D02*
D03*
X28500Y40000D02*
D03*
X28000Y39000D02*
D03*
Y37000D02*
D03*
X28500Y36000D02*
D03*
X28000Y33000D02*
D03*
X28500Y32000D02*
D03*
X28000Y31000D02*
D03*
X28500Y28000D02*
D03*
X28000Y27000D02*
D03*
X28500Y22000D02*
D03*
X28000Y21000D02*
D03*
X27000Y47000D02*
D03*
X27500Y46000D02*
D03*
X27000Y45000D02*
D03*
X27500Y44000D02*
D03*
X27000Y43000D02*
D03*
X27500Y42000D02*
D03*
X27000Y41000D02*
D03*
X27500Y36000D02*
D03*
Y34000D02*
D03*
Y32000D02*
D03*
X27000Y31000D02*
D03*
Y27000D02*
D03*
X27500Y26000D02*
D03*
X27000Y25000D02*
D03*
Y21000D02*
D03*
X26000Y47000D02*
D03*
X26500Y46000D02*
D03*
X26000Y45000D02*
D03*
X26500Y44000D02*
D03*
X26000Y43000D02*
D03*
X26500Y42000D02*
D03*
X26000Y41000D02*
D03*
Y27000D02*
D03*
Y25000D02*
D03*
Y21000D02*
D03*
X25500Y46000D02*
D03*
X25000Y45000D02*
D03*
X25500Y44000D02*
D03*
X25000Y43000D02*
D03*
X25500Y42000D02*
D03*
X25000Y41000D02*
D03*
Y39000D02*
D03*
X25500Y36000D02*
D03*
Y34000D02*
D03*
Y32000D02*
D03*
Y22000D02*
D03*
X25000Y21000D02*
D03*
X24000Y45000D02*
D03*
X24500Y44000D02*
D03*
X24000Y43000D02*
D03*
X24500Y42000D02*
D03*
X24000Y41000D02*
D03*
Y23000D02*
D03*
X24500Y22000D02*
D03*
X24000Y21000D02*
D03*
X23000Y47000D02*
D03*
X23500Y46000D02*
D03*
X23000Y45000D02*
D03*
X23500Y44000D02*
D03*
X23000Y43000D02*
D03*
X23500Y42000D02*
D03*
X23000Y41000D02*
D03*
Y21000D02*
D03*
X22000Y47000D02*
D03*
X22500Y46000D02*
D03*
X22000Y45000D02*
D03*
X22500Y44000D02*
D03*
X22000Y43000D02*
D03*
X22500Y42000D02*
D03*
X22000Y41000D02*
D03*
Y39000D02*
D03*
Y31000D02*
D03*
Y29000D02*
D03*
Y27000D02*
D03*
Y23000D02*
D03*
Y21000D02*
D03*
X21500Y40000D02*
D03*
X21000Y31000D02*
D03*
X21500Y30000D02*
D03*
X21000Y29000D02*
D03*
X21500Y28000D02*
D03*
X21000Y27000D02*
D03*
X21500Y26000D02*
D03*
X21000Y23000D02*
D03*
X21500Y22000D02*
D03*
X21000Y21000D02*
D03*
X20000Y47000D02*
D03*
X20500Y44000D02*
D03*
X20000Y41000D02*
D03*
Y39000D02*
D03*
Y37000D02*
D03*
Y35000D02*
D03*
X20500Y34000D02*
D03*
X20000Y31000D02*
D03*
X20500Y30000D02*
D03*
X20000Y29000D02*
D03*
X20500Y28000D02*
D03*
X20000Y27000D02*
D03*
X20500Y26000D02*
D03*
X20000Y25000D02*
D03*
X20500Y24000D02*
D03*
Y22000D02*
D03*
X20000Y21000D02*
D03*
X19000Y47000D02*
D03*
X19500Y44000D02*
D03*
X19000Y41000D02*
D03*
X19500Y40000D02*
D03*
X19000Y39000D02*
D03*
X19500Y38000D02*
D03*
X19000Y37000D02*
D03*
Y35000D02*
D03*
X19500Y34000D02*
D03*
X19000Y31000D02*
D03*
X19500Y30000D02*
D03*
X19000Y29000D02*
D03*
X19500Y28000D02*
D03*
X19000Y27000D02*
D03*
X19500Y26000D02*
D03*
X19000Y25000D02*
D03*
X19500Y24000D02*
D03*
X19000Y21000D02*
D03*
X18000Y47000D02*
D03*
X18500Y44000D02*
D03*
X18000Y41000D02*
D03*
X18500Y40000D02*
D03*
X18000Y39000D02*
D03*
X18500Y38000D02*
D03*
Y36000D02*
D03*
Y30000D02*
D03*
X18000Y29000D02*
D03*
X18500Y26000D02*
D03*
Y24000D02*
D03*
X18000Y23000D02*
D03*
Y21000D02*
D03*
X17000Y47000D02*
D03*
X17500Y44000D02*
D03*
X17000Y41000D02*
D03*
X17500Y40000D02*
D03*
X17000Y39000D02*
D03*
X17500Y38000D02*
D03*
X17000Y31000D02*
D03*
Y29000D02*
D03*
X17500Y26000D02*
D03*
Y24000D02*
D03*
X17000Y23000D02*
D03*
X17500Y22000D02*
D03*
X17000Y21000D02*
D03*
X16500Y48000D02*
D03*
X16000Y47000D02*
D03*
X16500Y44000D02*
D03*
Y42000D02*
D03*
Y40000D02*
D03*
X16000Y39000D02*
D03*
X16500Y38000D02*
D03*
Y32000D02*
D03*
X16000Y31000D02*
D03*
X16500Y30000D02*
D03*
X16000Y29000D02*
D03*
Y23000D02*
D03*
X16500Y22000D02*
D03*
X16000Y21000D02*
D03*
X15500Y44000D02*
D03*
Y40000D02*
D03*
Y38000D02*
D03*
Y36000D02*
D03*
Y34000D02*
D03*
Y32000D02*
D03*
Y28000D02*
D03*
X15000Y23000D02*
D03*
X15500Y22000D02*
D03*
X15000Y21000D02*
D03*
X14000Y23000D02*
D03*
X14500Y22000D02*
D03*
X14000Y21000D02*
D03*
X13000Y49000D02*
D03*
X13500Y48000D02*
D03*
X13000Y47000D02*
D03*
Y43000D02*
D03*
X13500Y42000D02*
D03*
X13000Y39000D02*
D03*
Y37000D02*
D03*
X13500Y36000D02*
D03*
Y34000D02*
D03*
X13000Y31000D02*
D03*
Y29000D02*
D03*
Y27000D02*
D03*
Y23000D02*
D03*
X13500Y22000D02*
D03*
X13000Y21000D02*
D03*
X12000Y47000D02*
D03*
X12500Y44000D02*
D03*
X12000Y43000D02*
D03*
X12500Y40000D02*
D03*
X12000Y39000D02*
D03*
X12500Y38000D02*
D03*
Y34000D02*
D03*
Y32000D02*
D03*
X12000Y31000D02*
D03*
X12500Y30000D02*
D03*
Y28000D02*
D03*
Y26000D02*
D03*
X12000Y25000D02*
D03*
Y23000D02*
D03*
X12500Y22000D02*
D03*
X12000Y21000D02*
D03*
X11000Y49000D02*
D03*
Y47000D02*
D03*
Y45000D02*
D03*
Y43000D02*
D03*
Y41000D02*
D03*
X11500Y40000D02*
D03*
X11000Y39000D02*
D03*
Y37000D02*
D03*
X11500Y36000D02*
D03*
X11000Y31000D02*
D03*
X11500Y30000D02*
D03*
Y26000D02*
D03*
X11000Y25000D02*
D03*
Y23000D02*
D03*
Y21000D02*
D03*
X21500Y37750D02*
D03*
X21200D02*
D03*
X20850D02*
D03*
Y37450D02*
D03*
X21500D02*
D03*
X13000Y35300D02*
D03*
X17200Y24950D02*
D03*
X17950Y26700D02*
D03*
X17500Y49261D02*
D03*
X15950Y49100D02*
D03*
X21200Y37450D02*
D03*
X17600Y48200D02*
D03*
X20450Y48489D02*
D03*
X20400Y47850D02*
D03*
X30700Y48200D02*
D03*
X30375Y48750D02*
D03*
X30750Y47850D02*
D03*
X30400Y47650D02*
D03*
X19600Y33050D02*
D03*
X33500Y46700D02*
D03*
X36300Y32600D02*
D03*
X30850Y31550D02*
D03*
X33200Y48700D02*
D03*
Y47800D02*
D03*
X33650Y48200D02*
D03*
X30425Y49050D02*
D03*
X42517Y45142D02*
D03*
X30450Y39650D02*
D03*
X29600D02*
D03*
X30000D02*
D03*
X29050Y41600D02*
D03*
X30450Y40950D02*
D03*
X30677Y41300D02*
D03*
X30450Y36400D02*
D03*
X30000Y36100D02*
D03*
X29600Y35900D02*
D03*
X29800Y41975D02*
D03*
X29450Y43350D02*
D03*
Y42850D02*
D03*
X29200Y42200D02*
D03*
X36900Y48100D02*
D03*
X49160Y32942D02*
D03*
X49142Y32135D02*
D03*
Y30716D02*
D03*
Y28589D02*
D03*
X49150Y25750D02*
D03*
X43600Y24650D02*
D03*
X44984Y24652D02*
D03*
X46199Y24608D02*
D03*
X47750Y24600D02*
D03*
X48947Y24679D02*
D03*
X42068Y24605D02*
D03*
X40800Y24600D02*
D03*
X40000Y25300D02*
D03*
X40050Y29150D02*
D03*
Y29800D02*
D03*
X40021Y28250D02*
D03*
X40050Y27400D02*
D03*
X40035Y26366D02*
D03*
Y30711D02*
D03*
X40050Y31800D02*
D03*
Y33100D02*
D03*
X39250Y26650D02*
D03*
X39286Y26145D02*
D03*
X39278Y25670D02*
D03*
X38880Y26090D02*
D03*
X35520Y26300D02*
D03*
X34624Y26344D02*
D03*
X35509Y25537D02*
D03*
X31450Y28800D02*
D03*
X30100Y30900D02*
D03*
X30027Y31896D02*
D03*
X30050Y32600D02*
D03*
X30033Y33351D02*
D03*
X30050Y33800D02*
D03*
X35900Y30400D02*
D03*
X34950Y27500D02*
D03*
X34550Y28800D02*
D03*
X34700Y29700D02*
D03*
X37950Y29800D02*
D03*
X36800Y27400D02*
D03*
X36850Y24450D02*
D03*
X35500Y32650D02*
D03*
X36806Y31324D02*
D03*
X37450Y31300D02*
D03*
X38950D02*
D03*
X39250Y30400D02*
D03*
X39207Y29797D02*
D03*
X39217Y29184D02*
D03*
X39250Y28350D02*
D03*
Y28000D02*
D03*
Y27400D02*
D03*
X33550Y26200D02*
D03*
X34200Y25450D02*
D03*
X35200Y24500D02*
D03*
X38550Y24450D02*
D03*
X31800Y26850D02*
D03*
X31300D02*
D03*
X30250D02*
D03*
X30600D02*
D03*
X30050Y27150D02*
D03*
Y27800D02*
D03*
X26800Y28300D02*
D03*
X27150D02*
D03*
X28250Y28350D02*
D03*
X28600Y28700D02*
D03*
X28700Y30300D02*
D03*
X26400D02*
D03*
X26800Y30650D02*
D03*
X26400Y30600D02*
D03*
Y28550D02*
D03*
X26500Y28300D02*
D03*
X26700Y28600D02*
D03*
X32450Y29700D02*
D03*
X34150Y28500D02*
D03*
X32450Y31400D02*
D03*
X33050Y26750D02*
D03*
X34800Y28900D02*
D03*
X31850Y31400D02*
D03*
X32850D02*
D03*
X33700Y32839D02*
D03*
X32100Y39600D02*
D03*
X46000Y38450D02*
D03*
X44900Y40650D02*
D03*
Y37800D02*
D03*
X42850D02*
D03*
X27600Y39600D02*
D03*
X33700D02*
D03*
X42000Y46300D02*
D03*
X43006D02*
D03*
X36850Y39600D02*
D03*
X38500Y40700D02*
D03*
X35750Y41100D02*
D03*
Y39000D02*
D03*
X37300Y34400D02*
D03*
X24100Y37450D02*
D03*
X36950Y43650D02*
D03*
X35400Y48200D02*
D03*
X31900D02*
D03*
X11950Y34400D02*
D03*
X31350Y47550D02*
D03*
Y44900D02*
D03*
X17800Y28050D02*
D03*
Y25100D02*
D03*
X24650Y38500D02*
D03*
X24050Y39550D02*
D03*
X38750Y24700D02*
D03*
X48950Y45150D02*
D03*
X29700Y43100D02*
D03*
X29050Y41300D02*
D03*
X40250Y45650D02*
D03*
X43717Y45279D02*
D03*
X44217Y45668D02*
D03*
X31550Y32650D02*
D03*
X29850Y31150D02*
D03*
X31000Y25000D02*
D03*
X36500Y28600D02*
D03*
X37850Y28300D02*
D03*
Y26500D02*
D03*
X38950Y30700D02*
D03*
Y28900D02*
D03*
X35150Y30800D02*
D03*
Y32000D02*
D03*
Y28450D02*
D03*
X34300Y34200D02*
D03*
X29400Y31150D02*
D03*
X32650Y32650D02*
D03*
X45650Y42900D02*
D03*
X45350Y43300D02*
D03*
X45367Y44129D02*
D03*
X45995Y43740D02*
D03*
X45992Y45326D02*
D03*
X46917Y43829D02*
D03*
Y45229D02*
D03*
X46467Y43329D02*
D03*
X45667Y43929D02*
D03*
X46467Y44879D02*
D03*
X48950Y46700D02*
D03*
X43702Y38334D02*
D03*
X43698Y40078D02*
D03*
X40767Y44529D02*
D03*
X42567Y44511D02*
D03*
X44617Y46029D02*
D03*
Y46829D02*
D03*
X42567Y43279D02*
D03*
X44817Y46329D02*
D03*
D125*
X44353Y43496D02*
D03*
X43487D02*
D03*
X44353Y44362D02*
D03*
Y43929D02*
D03*
X43487Y44362D02*
D03*
Y43929D02*
D03*
X43920Y43496D02*
D03*
Y44362D02*
D03*
Y43929D02*
D03*
M02*
