G04*
G04 #@! TF.GenerationSoftware,Altium Limited,Altium Designer,22.11.1 (43)*
G04*
G04 Layer_Color=32896*
%FSLAX44Y44*%
%MOMM*%
G71*
G04*
G04 #@! TF.SameCoordinates,FD04806B-1D24-4FBA-9A3E-9282C7D3C049*
G04*
G04*
G04 #@! TF.FilePolarity,Positive*
G04*
G01*
G75*
%ADD12C,0.2000*%
%ADD14C,0.1524*%
%ADD17C,0.1270*%
D12*
X262140Y788440D02*
X314440D01*
X262140D02*
Y842240D01*
X314440Y788440D02*
Y842240D01*
X262140D02*
X314440D01*
X262140Y655090D02*
X314440D01*
X262140D02*
Y759690D01*
X314440Y655090D02*
Y759690D01*
X262140D02*
X314440D01*
D14*
X1056132Y1216406D02*
Y1241552D01*
X1044448D02*
X1056132D01*
X1044448Y1214647D02*
Y1241552D01*
Y1214647D02*
X1056132D01*
Y1216406D01*
X1028446Y1215136D02*
Y1240028D01*
Y1215136D02*
X1041654D01*
Y1241044D01*
X1028446D02*
X1041654D01*
X1028446Y1240028D02*
Y1241044D01*
X1160272Y1215917D02*
Y1241063D01*
X1148588D02*
X1160272D01*
X1148588Y1214158D02*
Y1241063D01*
Y1214158D02*
X1160272D01*
Y1215917D01*
X1131316Y1215136D02*
Y1240028D01*
Y1215136D02*
X1144524D01*
Y1241044D01*
X1131316D02*
X1144524D01*
X1131316Y1240028D02*
Y1241044D01*
X270290Y781340D02*
Y784726D01*
Y783033D01*
X280447D01*
X278754Y781340D01*
X297290Y785111D02*
Y778340D01*
X304061Y785111D01*
X305754D01*
X307447Y783418D01*
Y780033D01*
X305754Y778340D01*
X278754Y845340D02*
X280447Y847033D01*
Y850418D01*
X278754Y852111D01*
X277061D01*
X275368Y850418D01*
Y848726D01*
Y850418D01*
X273676Y852111D01*
X271983D01*
X270290Y850418D01*
Y847033D01*
X271983Y845340D01*
X297290Y850418D02*
X307447D01*
X302368Y845340D01*
Y852111D01*
X270290Y647990D02*
Y651376D01*
Y649683D01*
X280447D01*
X278754Y647990D01*
X297290Y651761D02*
Y644990D01*
X304061Y651761D01*
X305754D01*
X307447Y650068D01*
Y646683D01*
X305754Y644990D01*
X280447Y762790D02*
Y769561D01*
X278754D01*
X271983Y762790D01*
X270290D01*
X305754D02*
X307447Y764483D01*
Y767868D01*
X305754Y769561D01*
X304061D01*
X302368Y767868D01*
X300676Y769561D01*
X298983D01*
X297290Y767868D01*
Y764483D01*
X298983Y762790D01*
X300676D01*
X302368Y764483D01*
X304061Y762790D01*
X305754D01*
X302368Y764483D02*
Y767868D01*
D17*
X1048597Y1206076D02*
X1047751Y1206923D01*
Y1208615D01*
X1048597Y1209462D01*
X1051983D01*
X1052829Y1208615D01*
Y1206923D01*
X1051983Y1206076D01*
X1052829Y1200998D02*
Y1204384D01*
X1049444Y1200998D01*
X1048597D01*
X1047751Y1201844D01*
Y1203537D01*
X1048597Y1204384D01*
X1037589Y1209462D02*
X1032511D01*
Y1206923D01*
X1033357Y1206076D01*
X1035050D01*
X1035896Y1206923D01*
Y1209462D01*
Y1207769D02*
X1037589Y1206076D01*
X1033357Y1204384D02*
X1032511Y1203537D01*
Y1201844D01*
X1033357Y1200998D01*
X1034204D01*
X1035050Y1201844D01*
Y1202691D01*
Y1201844D01*
X1035896Y1200998D01*
X1036743D01*
X1037589Y1201844D01*
Y1203537D01*
X1036743Y1204384D01*
X1152737Y1205230D02*
X1151891Y1206076D01*
Y1207769D01*
X1152737Y1208616D01*
X1156123D01*
X1156969Y1207769D01*
Y1206076D01*
X1156123Y1205230D01*
X1156969Y1203537D02*
Y1201844D01*
Y1202691D01*
X1151891D01*
X1152737Y1203537D01*
X1140459Y1208616D02*
X1135381D01*
Y1206076D01*
X1136227Y1205230D01*
X1137920D01*
X1138766Y1206076D01*
Y1208616D01*
Y1206923D02*
X1140459Y1205230D01*
Y1203537D02*
Y1201844D01*
Y1202691D01*
X1135381D01*
X1136227Y1203537D01*
X328506Y838201D02*
Y843279D01*
X325966D01*
X325120Y842433D01*
Y840740D01*
X325966Y839894D01*
X328506D01*
X323427Y838201D02*
X321734D01*
X322581D01*
Y843279D01*
X323427Y842433D01*
X329352Y754381D02*
Y759459D01*
X326813D01*
X325966Y758613D01*
Y756920D01*
X326813Y756074D01*
X329352D01*
X324274Y758613D02*
X323427Y759459D01*
X321734D01*
X320888Y758613D01*
Y757766D01*
X321734Y756920D01*
X322581D01*
X321734D01*
X320888Y756074D01*
Y755227D01*
X321734Y754381D01*
X323427D01*
X324274Y755227D01*
M02*
