G04*
G04 #@! TF.GenerationSoftware,Altium Limited,Altium Designer,22.11.1 (43)*
G04*
G04 Layer_Physical_Order=4*
G04 Layer_Color=16711680*
%FSLAX44Y44*%
%MOMM*%
G71*
G04*
G04 #@! TF.SameCoordinates,FD04806B-1D24-4FBA-9A3E-9282C7D3C049*
G04*
G04*
G04 #@! TF.FilePolarity,Positive*
G04*
G01*
G75*
%ADD13C,0.2540*%
%ADD14C,0.1524*%
%ADD21R,0.8000X0.8000*%
%ADD52R,0.9500X0.8000*%
%ADD112C,0.7620*%
%ADD113C,0.3810*%
%ADD115C,1.9500*%
%ADD116R,1.9500X1.9500*%
%ADD117C,1.2000*%
%ADD118R,1.2000X1.2000*%
%ADD119R,1.9500X1.9500*%
%ADD120C,3.5052*%
%ADD121R,1.9050X1.9050*%
%ADD122C,1.9050*%
%ADD123R,1.3980X1.3980*%
%ADD124C,1.3980*%
%ADD125C,1.5300*%
%ADD126C,3.2500*%
%ADD127C,2.4450*%
%ADD128R,2.2500X2.2500*%
%ADD129C,2.2500*%
%ADD130C,1.6500*%
%ADD131R,1.6500X1.6500*%
%ADD132O,1.4500X2.0000*%
%ADD133O,1.1500X1.8000*%
%ADD134C,0.8000*%
%ADD135C,0.4000*%
%ADD136C,0.4500*%
%ADD137C,0.5000*%
G36*
X749309Y1255743D02*
X749200Y1255607D01*
X749105Y1255463D01*
X749022Y1255312D01*
X748951Y1255154D01*
X748894Y1254988D01*
X748849Y1254815D01*
X748818Y1254634D01*
X748798Y1254446D01*
X748792Y1254251D01*
X747268D01*
X747262Y1254446D01*
X747243Y1254634D01*
X747211Y1254815D01*
X747166Y1254988D01*
X747109Y1255154D01*
X747038Y1255312D01*
X746955Y1255463D01*
X746860Y1255607D01*
X746751Y1255743D01*
X746630Y1255872D01*
X749430D01*
X749309Y1255743D01*
D02*
G37*
G36*
X564167Y1230639D02*
X564303Y1230530D01*
X564447Y1230435D01*
X564598Y1230352D01*
X564756Y1230282D01*
X564922Y1230224D01*
X565095Y1230179D01*
X565276Y1230147D01*
X565464Y1230128D01*
X565659Y1230122D01*
Y1228598D01*
X565464Y1228592D01*
X565276Y1228572D01*
X565095Y1228541D01*
X564922Y1228496D01*
X564756Y1228438D01*
X564598Y1228368D01*
X564447Y1228285D01*
X564303Y1228190D01*
X564167Y1228081D01*
X564038Y1227960D01*
Y1230760D01*
X564167Y1230639D01*
D02*
G37*
G36*
X563985Y1198686D02*
X563963Y1198628D01*
X563944Y1198550D01*
X563927Y1198450D01*
X563901Y1198186D01*
X563885Y1197838D01*
X563880Y1197405D01*
X561340D01*
X561339Y1197632D01*
X561276Y1198550D01*
X561257Y1198628D01*
X561235Y1198686D01*
X561210Y1198722D01*
X564010D01*
X563985Y1198686D01*
D02*
G37*
G36*
X755659Y1198593D02*
X755550Y1198457D01*
X755455Y1198313D01*
X755372Y1198162D01*
X755302Y1198004D01*
X755244Y1197838D01*
X755199Y1197665D01*
X755167Y1197484D01*
X755148Y1197296D01*
X755142Y1197101D01*
X753618D01*
X753612Y1197296D01*
X753593Y1197484D01*
X753561Y1197665D01*
X753516Y1197838D01*
X753458Y1198004D01*
X753388Y1198162D01*
X753305Y1198313D01*
X753210Y1198457D01*
X753101Y1198593D01*
X752980Y1198722D01*
X755780D01*
X755659Y1198593D01*
D02*
G37*
G36*
X569065Y1183446D02*
X569043Y1183388D01*
X569024Y1183310D01*
X569007Y1183210D01*
X568981Y1182946D01*
X568965Y1182598D01*
X568960Y1182165D01*
X566420D01*
X566419Y1182392D01*
X566356Y1183310D01*
X566337Y1183388D01*
X566315Y1183446D01*
X566290Y1183482D01*
X569090D01*
X569065Y1183446D01*
D02*
G37*
G36*
X762009Y1183353D02*
X761900Y1183217D01*
X761805Y1183073D01*
X761722Y1182922D01*
X761652Y1182764D01*
X761594Y1182598D01*
X761549Y1182425D01*
X761517Y1182244D01*
X761498Y1182056D01*
X761492Y1181861D01*
X759968D01*
X759962Y1182056D01*
X759942Y1182244D01*
X759911Y1182425D01*
X759866Y1182598D01*
X759809Y1182764D01*
X759738Y1182922D01*
X759655Y1183073D01*
X759560Y1183217D01*
X759451Y1183353D01*
X759330Y1183482D01*
X762130D01*
X762009Y1183353D01*
D02*
G37*
G36*
X1052839Y1180813D02*
X1052730Y1180677D01*
X1052635Y1180533D01*
X1052552Y1180382D01*
X1052482Y1180224D01*
X1052424Y1180058D01*
X1052379Y1179885D01*
X1052347Y1179704D01*
X1052328Y1179516D01*
X1052322Y1179321D01*
X1050798D01*
X1050792Y1179516D01*
X1050772Y1179704D01*
X1050741Y1179885D01*
X1050696Y1180058D01*
X1050639Y1180224D01*
X1050568Y1180382D01*
X1050485Y1180533D01*
X1050390Y1180677D01*
X1050281Y1180813D01*
X1050160Y1180942D01*
X1052960D01*
X1052839Y1180813D01*
D02*
G37*
G36*
X574145Y1168206D02*
X574123Y1168148D01*
X574104Y1168070D01*
X574087Y1167970D01*
X574061Y1167707D01*
X574045Y1167358D01*
X574040Y1166925D01*
X571500D01*
X571499Y1167152D01*
X571436Y1168070D01*
X571417Y1168148D01*
X571395Y1168206D01*
X571370Y1168242D01*
X574170D01*
X574145Y1168206D01*
D02*
G37*
G36*
X579225Y1152966D02*
X579203Y1152908D01*
X579184Y1152830D01*
X579167Y1152730D01*
X579141Y1152467D01*
X579125Y1152118D01*
X579120Y1151685D01*
X576580D01*
X576579Y1151912D01*
X576516Y1152830D01*
X576497Y1152908D01*
X576475Y1152966D01*
X576450Y1153002D01*
X579250D01*
X579225Y1152966D01*
D02*
G37*
G36*
X584305Y1137726D02*
X584283Y1137668D01*
X584264Y1137590D01*
X584247Y1137490D01*
X584221Y1137226D01*
X584205Y1136878D01*
X584200Y1136445D01*
X581660D01*
X581659Y1136672D01*
X581596Y1137590D01*
X581577Y1137668D01*
X581555Y1137726D01*
X581530Y1137762D01*
X584330D01*
X584305Y1137726D01*
D02*
G37*
G36*
X975369Y1118583D02*
X975260Y1118447D01*
X975165Y1118303D01*
X975082Y1118152D01*
X975012Y1117994D01*
X974954Y1117828D01*
X974909Y1117655D01*
X974877Y1117474D01*
X974858Y1117286D01*
X974852Y1117091D01*
X973328D01*
X973322Y1117286D01*
X973303Y1117474D01*
X973271Y1117655D01*
X973226Y1117828D01*
X973168Y1117994D01*
X973098Y1118152D01*
X973015Y1118303D01*
X972920Y1118447D01*
X972811Y1118583D01*
X972690Y1118712D01*
X975490D01*
X975369Y1118583D01*
D02*
G37*
G36*
X969019Y1113503D02*
X968910Y1113367D01*
X968815Y1113223D01*
X968732Y1113072D01*
X968661Y1112914D01*
X968604Y1112748D01*
X968559Y1112575D01*
X968528Y1112394D01*
X968508Y1112206D01*
X968502Y1112011D01*
X966978D01*
X966972Y1112206D01*
X966953Y1112394D01*
X966921Y1112575D01*
X966876Y1112748D01*
X966818Y1112914D01*
X966748Y1113072D01*
X966665Y1113223D01*
X966570Y1113367D01*
X966461Y1113503D01*
X966340Y1113632D01*
X969140D01*
X969019Y1113503D01*
D02*
G37*
G36*
X748798Y1111564D02*
X748818Y1111376D01*
X748849Y1111195D01*
X748894Y1111022D01*
X748951Y1110856D01*
X749022Y1110698D01*
X749105Y1110547D01*
X749200Y1110403D01*
X749309Y1110267D01*
X749430Y1110138D01*
X746630D01*
X746751Y1110267D01*
X746860Y1110403D01*
X746955Y1110547D01*
X747038Y1110698D01*
X747109Y1110856D01*
X747166Y1111022D01*
X747211Y1111195D01*
X747243Y1111376D01*
X747262Y1111564D01*
X747268Y1111759D01*
X748792D01*
X748798Y1111564D01*
D02*
G37*
G36*
X757369Y1083682D02*
X757389Y1083509D01*
X757423Y1083340D01*
X757471Y1083175D01*
X757533Y1083013D01*
X757610Y1082855D01*
X757701Y1082701D01*
X757806Y1082551D01*
X757925Y1082404D01*
X758059Y1082262D01*
X756981Y1081184D01*
X756839Y1081318D01*
X756692Y1081437D01*
X756542Y1081542D01*
X756388Y1081633D01*
X756230Y1081710D01*
X756068Y1081772D01*
X755903Y1081820D01*
X755734Y1081854D01*
X755561Y1081874D01*
X755384Y1081879D01*
X757364Y1083859D01*
X757369Y1083682D01*
D02*
G37*
G36*
X747495Y1079303D02*
X747515Y1079130D01*
X747549Y1078961D01*
X747597Y1078796D01*
X747659Y1078634D01*
X747736Y1078476D01*
X747827Y1078322D01*
X747932Y1078172D01*
X748051Y1078025D01*
X748185Y1077883D01*
X747107Y1076805D01*
X746965Y1076939D01*
X746818Y1077058D01*
X746668Y1077163D01*
X746514Y1077254D01*
X746356Y1077331D01*
X746194Y1077393D01*
X746029Y1077441D01*
X745860Y1077475D01*
X745687Y1077495D01*
X745510Y1077500D01*
X747490Y1079480D01*
X747495Y1079303D01*
D02*
G37*
G36*
X1253181Y1031240D02*
X1026160D01*
X1024181Y1029261D01*
X1022911Y1030531D01*
X1022071Y1031093D01*
X1021080Y1031290D01*
X898585D01*
X898266Y1031609D01*
Y1042344D01*
X898069Y1043335D01*
X897507Y1044175D01*
X892101Y1049581D01*
X891261Y1050143D01*
X890270Y1050340D01*
X860851Y1050340D01*
Y1057910D01*
X860673Y1058802D01*
X860168Y1059558D01*
X856137Y1063589D01*
X856069Y1063771D01*
X855974Y1063872D01*
X855929Y1063927D01*
X855895Y1063976D01*
X855871Y1064017D01*
X855853Y1064052D01*
X855841Y1064084D01*
X855832Y1064114D01*
X855826Y1064145D01*
X855822Y1064181D01*
X855819Y1064290D01*
X855694Y1064567D01*
Y1064961D01*
X855157Y1066256D01*
X854166Y1067247D01*
X852871Y1067784D01*
X851469D01*
X850174Y1067247D01*
X849183Y1066256D01*
X848646Y1064961D01*
Y1063559D01*
X849183Y1062264D01*
X850174Y1061273D01*
X851469Y1060736D01*
X851863D01*
X852140Y1060611D01*
X852249Y1060608D01*
X852285Y1060604D01*
X852316Y1060598D01*
X852346Y1060589D01*
X852378Y1060577D01*
X852413Y1060559D01*
X852454Y1060535D01*
X852503Y1060501D01*
X852558Y1060456D01*
X852660Y1060361D01*
X852841Y1060293D01*
X856189Y1056945D01*
Y1050340D01*
X850691D01*
Y1052830D01*
X850513Y1053722D01*
X850008Y1054478D01*
X837308Y1067178D01*
X836552Y1067683D01*
X835660Y1067861D01*
X774678D01*
X759331Y1083208D01*
X759263Y1083390D01*
X759168Y1083491D01*
X759123Y1083546D01*
X759089Y1083595D01*
X759064Y1083636D01*
X759047Y1083671D01*
X759035Y1083703D01*
X759026Y1083733D01*
X759020Y1083764D01*
X759016Y1083801D01*
X759013Y1083909D01*
X758888Y1084186D01*
Y1084580D01*
X758492Y1085536D01*
X759569Y1086255D01*
X774322Y1071502D01*
X775078Y1070997D01*
X775970Y1070819D01*
X1047750D01*
X1048642Y1070997D01*
X1049398Y1071502D01*
X1053208Y1075312D01*
X1053713Y1076068D01*
X1053891Y1076960D01*
Y1179091D01*
X1053971Y1179267D01*
X1053975Y1179405D01*
X1053982Y1179477D01*
X1053993Y1179535D01*
X1054005Y1179582D01*
X1054018Y1179619D01*
X1054031Y1179650D01*
X1054046Y1179677D01*
X1054064Y1179704D01*
X1054087Y1179732D01*
X1054161Y1179811D01*
X1054269Y1180095D01*
X1054548Y1180374D01*
X1055084Y1181669D01*
Y1183071D01*
X1054548Y1184366D01*
X1053556Y1185358D01*
X1052261Y1185894D01*
X1050859D01*
X1049564Y1185358D01*
X1048572Y1184366D01*
X1048036Y1183071D01*
Y1181669D01*
X1048572Y1180374D01*
X1048851Y1180095D01*
X1048959Y1179811D01*
X1049033Y1179732D01*
X1049056Y1179704D01*
X1049074Y1179677D01*
X1049089Y1179650D01*
X1049102Y1179619D01*
X1049115Y1179582D01*
X1049127Y1179535D01*
X1049137Y1179477D01*
X1049145Y1179405D01*
X1049149Y1179267D01*
X1049229Y1179091D01*
Y1077925D01*
X1046785Y1075481D01*
X968756D01*
X968415Y1076069D01*
X968287Y1076751D01*
X975738Y1084202D01*
X976243Y1084958D01*
X976421Y1085850D01*
Y1116861D01*
X976501Y1117037D01*
X976505Y1117175D01*
X976513Y1117247D01*
X976523Y1117305D01*
X976535Y1117352D01*
X976548Y1117389D01*
X976561Y1117420D01*
X976576Y1117447D01*
X976594Y1117474D01*
X976617Y1117502D01*
X976691Y1117581D01*
X976799Y1117865D01*
X977077Y1118144D01*
X977614Y1119439D01*
Y1120841D01*
X977077Y1122136D01*
X976086Y1123128D01*
X974791Y1123664D01*
X973389D01*
X972094Y1123128D01*
X971103Y1122136D01*
X970566Y1120841D01*
Y1119439D01*
X970867Y1118713D01*
X969790Y1117994D01*
X969736Y1118047D01*
X968441Y1118584D01*
X967039D01*
X965744Y1118047D01*
X964753Y1117056D01*
X964216Y1115761D01*
Y1114359D01*
X964753Y1113064D01*
X965031Y1112785D01*
X965139Y1112501D01*
X965213Y1112422D01*
X965236Y1112394D01*
X965254Y1112367D01*
X965269Y1112340D01*
X965282Y1112309D01*
X965295Y1112271D01*
X965307Y1112225D01*
X965318Y1112167D01*
X965325Y1112095D01*
X965329Y1111957D01*
X965409Y1111781D01*
Y1086815D01*
X962965Y1084371D01*
X783286D01*
X763061Y1104595D01*
Y1181631D01*
X763141Y1181807D01*
X763145Y1181945D01*
X763152Y1182017D01*
X763163Y1182075D01*
X763175Y1182122D01*
X763188Y1182159D01*
X763201Y1182190D01*
X763216Y1182217D01*
X763234Y1182244D01*
X763257Y1182272D01*
X763331Y1182351D01*
X763439Y1182635D01*
X763717Y1182914D01*
X764254Y1184209D01*
Y1185611D01*
X763717Y1186906D01*
X762726Y1187897D01*
X761431Y1188434D01*
X760029D01*
X758734Y1187897D01*
X757981Y1187144D01*
X756863Y1187441D01*
X756711Y1187534D01*
Y1196871D01*
X756791Y1197047D01*
X756795Y1197185D01*
X756803Y1197257D01*
X756813Y1197315D01*
X756825Y1197362D01*
X756838Y1197399D01*
X756851Y1197430D01*
X756866Y1197457D01*
X756884Y1197484D01*
X756907Y1197512D01*
X756981Y1197591D01*
X757089Y1197875D01*
X757367Y1198154D01*
X757904Y1199449D01*
Y1200851D01*
X757367Y1202146D01*
X756376Y1203138D01*
X755081Y1203674D01*
X753679D01*
X752384Y1203138D01*
X751631Y1202384D01*
X750513Y1202681D01*
X750361Y1202774D01*
Y1254021D01*
X750441Y1254197D01*
X750445Y1254335D01*
X750452Y1254407D01*
X750463Y1254465D01*
X750475Y1254511D01*
X750488Y1254549D01*
X750501Y1254580D01*
X750516Y1254607D01*
X750534Y1254634D01*
X750557Y1254662D01*
X750631Y1254741D01*
X750739Y1255025D01*
X751018Y1255304D01*
X751554Y1256599D01*
Y1258001D01*
X751018Y1259296D01*
X750026Y1260287D01*
X748731Y1260824D01*
X747329D01*
X746034Y1260287D01*
X745042Y1259296D01*
X744506Y1258001D01*
Y1256599D01*
X745042Y1255304D01*
X745321Y1255025D01*
X745429Y1254741D01*
X745503Y1254662D01*
X745526Y1254634D01*
X745544Y1254607D01*
X745559Y1254580D01*
X745572Y1254549D01*
X745585Y1254511D01*
X745597Y1254465D01*
X745608Y1254407D01*
X745615Y1254335D01*
X745619Y1254197D01*
X745699Y1254021D01*
Y1112101D01*
X745382Y1111660D01*
X745281Y1111595D01*
X744149Y1112149D01*
X744011Y1112338D01*
Y1219200D01*
X743833Y1220092D01*
X743328Y1220848D01*
X733168Y1231008D01*
X732412Y1231513D01*
X731520Y1231691D01*
X565889D01*
X565713Y1231771D01*
X565575Y1231775D01*
X565503Y1231783D01*
X565445Y1231793D01*
X565398Y1231805D01*
X565361Y1231818D01*
X565330Y1231831D01*
X565303Y1231846D01*
X565276Y1231864D01*
X565248Y1231887D01*
X565169Y1231961D01*
X564885Y1232069D01*
X564606Y1232347D01*
X563311Y1232884D01*
X561909D01*
X560614Y1232347D01*
X559622Y1231356D01*
X559086Y1230061D01*
Y1228659D01*
X559622Y1227364D01*
X560614Y1226373D01*
X561909Y1225836D01*
X563311D01*
X564606Y1226373D01*
X564885Y1226651D01*
X565169Y1226759D01*
X565248Y1226833D01*
X565276Y1226856D01*
X565303Y1226874D01*
X565330Y1226889D01*
X565361Y1226902D01*
X565398Y1226915D01*
X565445Y1226927D01*
X565503Y1226937D01*
X565575Y1226945D01*
X565713Y1226949D01*
X565889Y1227029D01*
X730555D01*
X739349Y1218234D01*
Y1107440D01*
X739527Y1106548D01*
X740032Y1105792D01*
X757740Y1088084D01*
X757020Y1087007D01*
X756065Y1087403D01*
X754663D01*
X753368Y1086867D01*
X752376Y1085875D01*
X751840Y1084580D01*
Y1083178D01*
X752376Y1081883D01*
X753368Y1080891D01*
X754663Y1080355D01*
X755057D01*
X755334Y1080230D01*
X755443Y1080227D01*
X755479Y1080223D01*
X755510Y1080217D01*
X755540Y1080208D01*
X755572Y1080196D01*
X755607Y1080179D01*
X755648Y1080154D01*
X755697Y1080120D01*
X755752Y1080075D01*
X755854Y1079980D01*
X756035Y1079912D01*
X772065Y1063882D01*
X772821Y1063377D01*
X773713Y1063199D01*
X834695D01*
X846029Y1051865D01*
Y1050340D01*
X840531Y1050340D01*
X840122Y1050258D01*
X839848Y1050668D01*
X830958Y1059558D01*
X830202Y1060063D01*
X829310Y1060241D01*
X768046D01*
X749457Y1078829D01*
X749389Y1079010D01*
X749294Y1079112D01*
X749249Y1079167D01*
X749215Y1079215D01*
X749191Y1079257D01*
X749173Y1079292D01*
X749161Y1079324D01*
X749152Y1079354D01*
X749146Y1079385D01*
X749142Y1079421D01*
X749139Y1079530D01*
X749014Y1079807D01*
Y1080201D01*
X748477Y1081496D01*
X747486Y1082487D01*
X746191Y1083024D01*
X744789D01*
X743494Y1082487D01*
X742503Y1081496D01*
X741966Y1080201D01*
Y1078799D01*
X742503Y1077504D01*
X743494Y1076513D01*
X744789Y1075976D01*
X745183D01*
X745460Y1075851D01*
X745568Y1075848D01*
X745605Y1075844D01*
X745636Y1075838D01*
X745666Y1075829D01*
X745698Y1075817D01*
X745733Y1075799D01*
X745774Y1075775D01*
X745823Y1075741D01*
X745878Y1075696D01*
X745980Y1075601D01*
X746161Y1075533D01*
X765432Y1056262D01*
X766188Y1055757D01*
X767080Y1055579D01*
X828345D01*
X832411Y1051513D01*
X831925Y1050340D01*
X828429D01*
X827438Y1050143D01*
X826598Y1049581D01*
X825018Y1049502D01*
X822582Y1051938D01*
X821826Y1052443D01*
X820934Y1052621D01*
X744959D01*
X744783Y1052701D01*
X744645Y1052705D01*
X744573Y1052712D01*
X744515Y1052723D01*
X744469Y1052735D01*
X744431Y1052748D01*
X744400Y1052761D01*
X744373Y1052776D01*
X744346Y1052794D01*
X744318Y1052817D01*
X744239Y1052891D01*
X743955Y1052999D01*
X743676Y1053278D01*
X742381Y1053814D01*
X740979D01*
X739684Y1053278D01*
X738692Y1052286D01*
X738156Y1050991D01*
Y1049589D01*
X738692Y1048294D01*
X739684Y1047302D01*
X740979Y1046766D01*
X742381D01*
X743676Y1047302D01*
X743955Y1047581D01*
X744239Y1047689D01*
X744318Y1047763D01*
X744346Y1047786D01*
X744373Y1047804D01*
X744400Y1047819D01*
X744431Y1047832D01*
X744469Y1047845D01*
X744515Y1047857D01*
X744573Y1047868D01*
X744645Y1047875D01*
X744783Y1047879D01*
X744959Y1047959D01*
X819968D01*
X821643Y1046285D01*
X810969Y1035611D01*
X810407Y1034771D01*
X810210Y1033780D01*
Y998023D01*
X796999Y984811D01*
X796437Y983971D01*
X796240Y982980D01*
Y948148D01*
X795564Y947868D01*
X794573Y946876D01*
X794036Y945581D01*
Y944179D01*
X794573Y942884D01*
X795564Y941892D01*
X796240Y941612D01*
Y837021D01*
X795020Y835969D01*
X795020Y835969D01*
X622475D01*
X621077Y837367D01*
X621375Y838865D01*
X621756Y839023D01*
X622747Y840014D01*
X623284Y841309D01*
Y842711D01*
X622747Y844006D01*
X621756Y844997D01*
X620461Y845534D01*
X620420D01*
X620002Y845898D01*
X619877Y846022D01*
X619708Y846091D01*
X615786Y850013D01*
X616108Y851487D01*
X616676Y851722D01*
X617668Y852714D01*
X618204Y854009D01*
Y855411D01*
X617668Y856706D01*
X616676Y857698D01*
X615381Y858234D01*
X615340D01*
X614922Y858598D01*
X614797Y858722D01*
X614628Y858791D01*
X608263Y865156D01*
X608789Y866426D01*
X609031D01*
X610326Y866963D01*
X611317Y867954D01*
X611854Y869249D01*
Y870651D01*
X611317Y871946D01*
X610326Y872937D01*
X609031Y873474D01*
X608989D01*
X608572Y873838D01*
X608447Y873962D01*
X608278Y874031D01*
X601019Y881290D01*
Y1006720D01*
X601090Y1006885D01*
X601094Y1007291D01*
X601107Y1007569D01*
X601110Y1007607D01*
X601157Y1007654D01*
X601694Y1008949D01*
Y1010351D01*
X601157Y1011646D01*
X600166Y1012637D01*
X598871Y1013174D01*
X597469D01*
X596174Y1012637D01*
X595182Y1011646D01*
X594646Y1010351D01*
Y1008949D01*
X595182Y1007654D01*
X595212Y1007625D01*
X595249Y1007072D01*
X595250Y1006896D01*
X595321Y1006727D01*
Y1001215D01*
X594051Y1000366D01*
X593791Y1000474D01*
X592389D01*
X591094Y999938D01*
X590103Y998946D01*
X589566Y997651D01*
Y996249D01*
X590103Y994954D01*
X589187Y994098D01*
X589154Y994069D01*
X588976Y994016D01*
X588971Y994016D01*
X588711Y994124D01*
X587309D01*
X587049Y994016D01*
X585779Y994865D01*
Y1136260D01*
X585849Y1136425D01*
X585854Y1136831D01*
X585867Y1137109D01*
X585871Y1137147D01*
X585918Y1137194D01*
X586454Y1138489D01*
Y1139891D01*
X585918Y1141186D01*
X584926Y1142178D01*
X583631Y1142714D01*
X582229D01*
X581969Y1142606D01*
X580699Y1143455D01*
Y1151500D01*
X580770Y1151665D01*
X580774Y1152071D01*
X580787Y1152349D01*
X580790Y1152387D01*
X580838Y1152434D01*
X581374Y1153729D01*
Y1155131D01*
X580838Y1156426D01*
X579846Y1157418D01*
X578551Y1157954D01*
X577149D01*
X576889Y1157846D01*
X575619Y1158695D01*
Y1166740D01*
X575690Y1166905D01*
X575694Y1167311D01*
X575707Y1167589D01*
X575710Y1167627D01*
X575757Y1167674D01*
X576294Y1168969D01*
Y1170371D01*
X575757Y1171666D01*
X574766Y1172657D01*
X573471Y1173194D01*
X572069D01*
X571809Y1173086D01*
X570539Y1173935D01*
Y1181980D01*
X570610Y1182145D01*
X570614Y1182551D01*
X570627Y1182829D01*
X570630Y1182867D01*
X570677Y1182914D01*
X571214Y1184209D01*
Y1185611D01*
X570677Y1186906D01*
X569686Y1187897D01*
X568391Y1188434D01*
X566989D01*
X566729Y1188326D01*
X565459Y1189175D01*
Y1197220D01*
X565530Y1197385D01*
X565534Y1197791D01*
X565547Y1198069D01*
X565550Y1198107D01*
X565597Y1198154D01*
X566134Y1199449D01*
Y1200851D01*
X565597Y1202146D01*
X564606Y1203138D01*
X563311Y1203674D01*
X561909D01*
X560614Y1203138D01*
X559622Y1202146D01*
X559086Y1200851D01*
Y1199449D01*
X559622Y1198154D01*
X559652Y1198124D01*
X559689Y1197572D01*
X559690Y1197396D01*
X559761Y1197227D01*
Y779690D01*
X555047Y774976D01*
X554881Y774909D01*
X554590Y774625D01*
X554385Y774438D01*
X554356Y774414D01*
X554289D01*
X552994Y773877D01*
X552002Y772886D01*
X551466Y771591D01*
Y770189D01*
X552002Y768894D01*
X552994Y767903D01*
X554289Y767366D01*
X555691D01*
X556986Y767903D01*
X557977Y768894D01*
X558514Y770189D01*
Y770230D01*
X558878Y770648D01*
X559002Y770773D01*
X559071Y770942D01*
X564624Y776496D01*
X565242Y777420D01*
X565459Y778510D01*
X565459Y778510D01*
Y860006D01*
X566729Y860533D01*
X614371Y812890D01*
Y773820D01*
X614300Y773655D01*
X614296Y773249D01*
X614283Y772971D01*
X614280Y772933D01*
X614232Y772886D01*
X613696Y771591D01*
Y770189D01*
X614232Y768894D01*
X615224Y767903D01*
X616519Y767366D01*
X617921D01*
X619216Y767903D01*
X620207Y768894D01*
X620744Y770189D01*
Y771591D01*
X620207Y772886D01*
X620178Y772915D01*
X620141Y773468D01*
X620140Y773644D01*
X620069Y773813D01*
Y814070D01*
X619852Y815160D01*
X619234Y816084D01*
X619234Y816084D01*
X617747Y817571D01*
X618274Y818841D01*
X669380D01*
X676601Y811620D01*
Y773820D01*
X676531Y773655D01*
X676526Y773249D01*
X676513Y772971D01*
X676509Y772933D01*
X676462Y772886D01*
X675926Y771591D01*
Y770189D01*
X676462Y768894D01*
X677454Y767903D01*
X678749Y767366D01*
X680151D01*
X681446Y767903D01*
X682438Y768894D01*
X682974Y770189D01*
Y771591D01*
X682438Y772886D01*
X682408Y772915D01*
X682371Y773468D01*
X682370Y773644D01*
X682299Y773813D01*
Y812800D01*
X682299Y812800D01*
X682082Y813890D01*
X681464Y814814D01*
X681464Y814814D01*
X672574Y823704D01*
X672250Y823921D01*
X672635Y825191D01*
X727800D01*
X738831Y814160D01*
Y773820D01*
X738761Y773655D01*
X738756Y773249D01*
X738743Y772971D01*
X738739Y772933D01*
X738692Y772886D01*
X738156Y771591D01*
Y770189D01*
X738692Y768894D01*
X739684Y767903D01*
X740979Y767366D01*
X742381D01*
X743676Y767903D01*
X744668Y768894D01*
X745204Y770189D01*
Y771591D01*
X744668Y772886D01*
X744638Y772915D01*
X744601Y773468D01*
X744600Y773644D01*
X744529Y773813D01*
Y815340D01*
X744529Y815340D01*
X744312Y816430D01*
X743694Y817354D01*
X743694Y817354D01*
X732048Y829001D01*
X732573Y830271D01*
X793840D01*
X801061Y823050D01*
Y781154D01*
X800991Y780989D01*
X800986Y780583D01*
X800973Y780305D01*
X800969Y780267D01*
X800922Y780220D01*
X800386Y778925D01*
Y777523D01*
X800922Y776228D01*
X801914Y775237D01*
X803209Y774700D01*
X804611D01*
X805906Y775237D01*
X806898Y776228D01*
X807434Y777523D01*
Y778925D01*
X806898Y780220D01*
X806868Y780249D01*
X806831Y780802D01*
X806830Y780978D01*
X806759Y781147D01*
Y822409D01*
X807932Y822896D01*
X816049Y814779D01*
X816889Y814217D01*
X817880Y814020D01*
X1022350Y814020D01*
X1023341Y814217D01*
X1024181Y814779D01*
X1024743Y815619D01*
X1024940Y816610D01*
X1253181Y816610D01*
Y526089D01*
X259389D01*
Y1267151D01*
X1253181D01*
Y1031240D01*
D02*
G37*
G36*
X854175Y1064063D02*
X854195Y1063890D01*
X854229Y1063721D01*
X854277Y1063556D01*
X854339Y1063394D01*
X854416Y1063236D01*
X854507Y1063082D01*
X854612Y1062932D01*
X854731Y1062785D01*
X854865Y1062643D01*
X853787Y1061565D01*
X853645Y1061699D01*
X853498Y1061818D01*
X853348Y1061923D01*
X853194Y1062014D01*
X853036Y1062091D01*
X852874Y1062153D01*
X852709Y1062201D01*
X852540Y1062235D01*
X852367Y1062255D01*
X852190Y1062260D01*
X854170Y1064240D01*
X854175Y1064063D01*
D02*
G37*
G36*
X743237Y1051569D02*
X743373Y1051460D01*
X743517Y1051365D01*
X743668Y1051282D01*
X743826Y1051211D01*
X743992Y1051154D01*
X744165Y1051109D01*
X744346Y1051077D01*
X744534Y1051058D01*
X744729Y1051052D01*
Y1049528D01*
X744534Y1049522D01*
X744346Y1049502D01*
X744165Y1049471D01*
X743992Y1049426D01*
X743826Y1049369D01*
X743668Y1049298D01*
X743517Y1049215D01*
X743373Y1049120D01*
X743237Y1049011D01*
X743108Y1048890D01*
Y1051690D01*
X743237Y1051569D01*
D02*
G37*
G36*
X856189Y1047750D02*
Y1014156D01*
X854919Y1013631D01*
X854642Y1013907D01*
X853347Y1014444D01*
X851945D01*
X851747Y1014362D01*
X850691Y1015068D01*
Y1047750D01*
X856189D01*
D02*
G37*
G36*
X599545Y1008186D02*
X599523Y1008128D01*
X599504Y1008050D01*
X599487Y1007950D01*
X599461Y1007686D01*
X599445Y1007338D01*
X599440Y1006905D01*
X596900D01*
X596899Y1007132D01*
X596836Y1008050D01*
X596817Y1008128D01*
X596795Y1008186D01*
X596770Y1008222D01*
X599570D01*
X599545Y1008186D01*
D02*
G37*
G36*
X980420Y1006380D02*
X980377Y1006372D01*
X980321Y1006347D01*
X980251Y1006305D01*
X980169Y1006247D01*
X979964Y1006079D01*
X979707Y1005844D01*
X979397Y1005541D01*
X977601Y1007337D01*
X977761Y1007499D01*
X978365Y1008192D01*
X978407Y1008261D01*
X978432Y1008317D01*
X978440Y1008360D01*
X980420Y1006380D01*
D02*
G37*
G36*
X866334Y1003405D02*
X866392Y1003383D01*
X866470Y1003364D01*
X866570Y1003347D01*
X866833Y1003321D01*
X867182Y1003305D01*
X867615Y1003300D01*
Y1000760D01*
X867388Y1000759D01*
X866470Y1000696D01*
X866392Y1000677D01*
X866334Y1000655D01*
X866298Y1000630D01*
Y1003430D01*
X866334Y1003405D01*
D02*
G37*
G36*
X822400Y1001457D02*
X822291Y1001321D01*
X822196Y1001177D01*
X822113Y1001026D01*
X822042Y1000868D01*
X821985Y1000702D01*
X821940Y1000529D01*
X821908Y1000348D01*
X821889Y1000160D01*
X821883Y999965D01*
X820359D01*
X820353Y1000160D01*
X820333Y1000348D01*
X820302Y1000529D01*
X820257Y1000702D01*
X820200Y1000868D01*
X820129Y1001026D01*
X820046Y1001177D01*
X819951Y1001321D01*
X819842Y1001457D01*
X819721Y1001586D01*
X822521D01*
X822400Y1001457D01*
D02*
G37*
G36*
X594465Y995486D02*
X594443Y995428D01*
X594424Y995350D01*
X594407Y995250D01*
X594381Y994986D01*
X594365Y994638D01*
X594360Y994205D01*
X591820D01*
X591819Y994432D01*
X591756Y995350D01*
X591737Y995428D01*
X591715Y995486D01*
X591690Y995522D01*
X594490D01*
X594465Y995486D01*
D02*
G37*
G36*
X589385Y989136D02*
X589363Y989078D01*
X589344Y989000D01*
X589327Y988900D01*
X589301Y988636D01*
X589285Y988288D01*
X589280Y987855D01*
X586740D01*
X586739Y988082D01*
X586676Y989000D01*
X586657Y989078D01*
X586635Y989136D01*
X586610Y989172D01*
X589410D01*
X589385Y989136D01*
D02*
G37*
G36*
X1035059Y968723D02*
X1034950Y968587D01*
X1034855Y968443D01*
X1034772Y968292D01*
X1034702Y968134D01*
X1034644Y967968D01*
X1034599Y967795D01*
X1034567Y967614D01*
X1034548Y967426D01*
X1034542Y967231D01*
X1033018D01*
X1033012Y967426D01*
X1032992Y967614D01*
X1032961Y967795D01*
X1032916Y967968D01*
X1032859Y968134D01*
X1032788Y968292D01*
X1032705Y968443D01*
X1032610Y968587D01*
X1032501Y968723D01*
X1032380Y968852D01*
X1035180D01*
X1035059Y968723D01*
D02*
G37*
G36*
X813095Y968022D02*
X812986Y967886D01*
X812891Y967742D01*
X812808Y967591D01*
X812738Y967433D01*
X812680Y967267D01*
X812635Y967094D01*
X812604Y966913D01*
X812584Y966725D01*
X812578Y966530D01*
X811054D01*
X811048Y966725D01*
X811029Y966913D01*
X810997Y967094D01*
X810952Y967267D01*
X810894Y967433D01*
X810824Y967591D01*
X810741Y967742D01*
X810646Y967886D01*
X810537Y968022D01*
X810416Y968151D01*
X813216D01*
X813095Y968022D01*
D02*
G37*
G36*
X1198631Y958643D02*
X1197757Y957768D01*
X1195687Y955414D01*
X1195182Y954719D01*
X1194768Y954069D01*
X1194446Y953463D01*
X1194216Y952903D01*
X1194078Y952387D01*
X1194032Y951916D01*
X1192508Y951920D01*
X1192462Y952389D01*
X1192325Y952904D01*
X1192095Y953465D01*
X1191774Y954071D01*
X1191361Y954723D01*
X1190857Y955421D01*
X1189572Y956954D01*
X1188792Y957790D01*
X1187921Y958671D01*
X1198631Y958643D01*
D02*
G37*
G36*
X1034548Y932494D02*
X1034567Y932306D01*
X1034599Y932125D01*
X1034644Y931952D01*
X1034702Y931786D01*
X1034772Y931628D01*
X1034855Y931477D01*
X1034950Y931333D01*
X1035059Y931197D01*
X1035180Y931068D01*
X1032380D01*
X1032501Y931197D01*
X1032610Y931333D01*
X1032705Y931477D01*
X1032788Y931628D01*
X1032859Y931786D01*
X1032916Y931952D01*
X1032961Y932125D01*
X1032992Y932306D01*
X1033012Y932494D01*
X1033018Y932689D01*
X1034542D01*
X1034548Y932494D01*
D02*
G37*
G36*
X1035353Y930900D02*
X1035488Y930790D01*
X1035630Y930693D01*
X1035780Y930609D01*
X1035937Y930538D01*
X1036103Y930480D01*
X1036275Y930435D01*
X1036456Y930403D01*
X1036644Y930383D01*
X1036839Y930377D01*
X1036819Y928853D01*
X1036623Y928847D01*
X1036435Y928828D01*
X1036255Y928796D01*
X1036081Y928752D01*
X1035915Y928695D01*
X1035755Y928626D01*
X1035603Y928544D01*
X1035459Y928449D01*
X1035321Y928342D01*
X1035191Y928222D01*
X1035226Y931022D01*
X1035353Y930900D01*
D02*
G37*
G36*
X831348Y927414D02*
X831367Y927226D01*
X831399Y927045D01*
X831444Y926872D01*
X831501Y926706D01*
X831572Y926548D01*
X831655Y926397D01*
X831750Y926253D01*
X831859Y926117D01*
X831980Y925988D01*
X829180D01*
X829301Y926117D01*
X829410Y926253D01*
X829505Y926397D01*
X829588Y926548D01*
X829659Y926706D01*
X829716Y926872D01*
X829761Y927045D01*
X829792Y927226D01*
X829812Y927414D01*
X829818Y927609D01*
X831342D01*
X831348Y927414D01*
D02*
G37*
G36*
X1075767Y924709D02*
X1074984Y925497D01*
X1072862Y927361D01*
X1072231Y927817D01*
X1071637Y928190D01*
X1071082Y928480D01*
X1070564Y928687D01*
X1070085Y928812D01*
X1069643Y928853D01*
X1069653Y930377D01*
X1070090Y930418D01*
X1070568Y930542D01*
X1071086Y930748D01*
X1071643Y931036D01*
X1072241Y931406D01*
X1072879Y931860D01*
X1074274Y933012D01*
X1075032Y933713D01*
X1075830Y934495D01*
X1075767Y924709D01*
D02*
G37*
G36*
X835869Y1047750D02*
Y922759D01*
X835789Y922583D01*
X835785Y922445D01*
X835778Y922373D01*
X835767Y922315D01*
X835755Y922269D01*
X835742Y922231D01*
X835729Y922200D01*
X835714Y922173D01*
X835696Y922146D01*
X835673Y922118D01*
X835599Y922039D01*
X835491Y921755D01*
X835212Y921476D01*
X834676Y920181D01*
Y918779D01*
X835212Y917484D01*
X836204Y916492D01*
X837499Y915956D01*
X838901D01*
X840196Y916492D01*
X841188Y917484D01*
X841724Y918779D01*
Y920181D01*
X841188Y921476D01*
X840909Y921755D01*
X840801Y922039D01*
X840727Y922118D01*
X840704Y922146D01*
X840686Y922173D01*
X840671Y922200D01*
X840658Y922231D01*
X840645Y922269D01*
X840633Y922315D01*
X840622Y922373D01*
X840615Y922445D01*
X840611Y922583D01*
X840531Y922759D01*
Y1047750D01*
X846029Y1047750D01*
Y917679D01*
X845949Y917503D01*
X845945Y917365D01*
X845938Y917293D01*
X845927Y917235D01*
X845915Y917188D01*
X845902Y917151D01*
X845889Y917120D01*
X845874Y917093D01*
X845856Y917066D01*
X845833Y917038D01*
X845759Y916959D01*
X845651Y916675D01*
X845372Y916396D01*
X844836Y915101D01*
Y913699D01*
X845372Y912404D01*
X846364Y911413D01*
X847659Y910876D01*
X849061D01*
X850356Y911413D01*
X851348Y912404D01*
X851884Y913699D01*
Y915101D01*
X851348Y916396D01*
X851069Y916675D01*
X850961Y916959D01*
X850887Y917038D01*
X850864Y917066D01*
X850846Y917093D01*
X850831Y917120D01*
X850818Y917151D01*
X850805Y917188D01*
X850793Y917235D01*
X850782Y917293D01*
X850775Y917365D01*
X850771Y917503D01*
X850691Y917679D01*
Y1006773D01*
X851747Y1007478D01*
X851945Y1007396D01*
X853347D01*
X854642Y1007933D01*
X854919Y1008210D01*
X856189Y1007683D01*
Y912855D01*
X856152Y912844D01*
X855279D01*
X853984Y912308D01*
X852992Y911316D01*
X852456Y910021D01*
Y908619D01*
X852992Y907324D01*
X853984Y906332D01*
X855279Y905796D01*
X856681D01*
X857976Y906332D01*
X858968Y907324D01*
X859504Y908619D01*
Y908640D01*
X859588Y908773D01*
X859608Y908893D01*
X859623Y908955D01*
X859642Y909015D01*
X859665Y909073D01*
X859693Y909131D01*
X859726Y909191D01*
X859767Y909254D01*
X859816Y909320D01*
X859874Y909389D01*
X859974Y909495D01*
X860044Y909678D01*
X860168Y909803D01*
X860673Y910559D01*
X860851Y911451D01*
Y999406D01*
X861003Y999499D01*
X862121Y999796D01*
X862874Y999043D01*
X864169Y998506D01*
X865571D01*
X866866Y999043D01*
X866896Y999072D01*
X867448Y999109D01*
X867624Y999110D01*
X867793Y999181D01*
X974090D01*
X974090Y999181D01*
X975180Y999398D01*
X976104Y1000016D01*
X980383Y1004294D01*
X980549Y1004361D01*
X980840Y1004645D01*
X981045Y1004832D01*
X981075Y1004856D01*
X981141D01*
X982436Y1005393D01*
X983428Y1006384D01*
X983964Y1007679D01*
Y1009081D01*
X983428Y1010376D01*
X982436Y1011367D01*
X981141Y1011904D01*
X979739D01*
X978444Y1011367D01*
X977452Y1010376D01*
X976916Y1009081D01*
Y1009040D01*
X976552Y1008622D01*
X976428Y1008497D01*
X976359Y1008328D01*
X972910Y1004879D01*
X941808D01*
X941282Y1006149D01*
X941517Y1006384D01*
X942054Y1007679D01*
Y1009081D01*
X941517Y1010376D01*
X940526Y1011367D01*
X939231Y1011904D01*
X937829D01*
X936534Y1011367D01*
X935543Y1010376D01*
X935006Y1009081D01*
Y1007679D01*
X935543Y1006384D01*
X935778Y1006149D01*
X935251Y1004879D01*
X867800D01*
X867635Y1004949D01*
X867229Y1004954D01*
X866951Y1004967D01*
X866913Y1004970D01*
X866866Y1005017D01*
X865571Y1005554D01*
X864169D01*
X862874Y1005017D01*
X862121Y1004265D01*
X861003Y1004561D01*
X860851Y1004654D01*
Y1047750D01*
X890270Y1047750D01*
X895676Y1042344D01*
Y1030536D01*
X897512Y1028700D01*
X1021080D01*
X1022350Y1027430D01*
Y860851D01*
X999574D01*
X998882Y862121D01*
X999204Y862899D01*
Y864301D01*
X998668Y865596D01*
X997676Y866588D01*
X996381Y867124D01*
X994979D01*
X993684Y866588D01*
X992692Y865596D01*
X992156Y864301D01*
Y862899D01*
X992478Y862121D01*
X991786Y860851D01*
X872185D01*
X823452Y909585D01*
Y999735D01*
X823532Y999911D01*
X823536Y1000049D01*
X823543Y1000121D01*
X823554Y1000179D01*
X823566Y1000226D01*
X823579Y1000263D01*
X823592Y1000294D01*
X823607Y1000321D01*
X823625Y1000348D01*
X823648Y1000376D01*
X823722Y1000455D01*
X823830Y1000739D01*
X824109Y1001018D01*
X824645Y1002313D01*
Y1003715D01*
X824109Y1005010D01*
X823117Y1006002D01*
X821822Y1006538D01*
X820420D01*
X819125Y1006002D01*
X818133Y1005010D01*
X817597Y1003715D01*
Y1002313D01*
X818133Y1001018D01*
X818412Y1000739D01*
X818520Y1000455D01*
X818594Y1000376D01*
X818617Y1000348D01*
X818635Y1000321D01*
X818650Y1000294D01*
X818663Y1000263D01*
X818676Y1000226D01*
X818688Y1000179D01*
X818699Y1000121D01*
X818706Y1000049D01*
X818710Y999911D01*
X818790Y999735D01*
Y908619D01*
X818968Y907727D01*
X819473Y906971D01*
X869572Y856872D01*
X870328Y856367D01*
X871220Y856189D01*
X1022350D01*
Y850691D01*
X872185D01*
X814147Y908729D01*
Y966300D01*
X814227Y966476D01*
X814231Y966614D01*
X814239Y966686D01*
X814249Y966744D01*
X814261Y966791D01*
X814274Y966828D01*
X814287Y966859D01*
X814302Y966886D01*
X814320Y966913D01*
X814343Y966941D01*
X814417Y967020D01*
X814525Y967304D01*
X814803Y967583D01*
X815340Y968878D01*
Y970280D01*
X814803Y971575D01*
X813812Y972567D01*
X812517Y973103D01*
X811115D01*
X809820Y972567D01*
X808829Y971575D01*
X808292Y970280D01*
Y968878D01*
X808829Y967583D01*
X809107Y967304D01*
X809215Y967020D01*
X809289Y966941D01*
X809312Y966913D01*
X809330Y966886D01*
X809345Y966859D01*
X809358Y966828D01*
X809371Y966790D01*
X809383Y966744D01*
X809393Y966686D01*
X809401Y966614D01*
X809405Y966476D01*
X809485Y966300D01*
Y907764D01*
X809663Y906872D01*
X810168Y906116D01*
X869572Y846712D01*
X870328Y846207D01*
X871220Y846029D01*
X1022350D01*
Y816610D01*
X817880Y816610D01*
X798830Y835660D01*
Y982980D01*
X812800Y996950D01*
Y1033780D01*
X823474Y1044454D01*
X828249Y1039678D01*
Y927839D01*
X828169Y927663D01*
X828165Y927525D01*
X828158Y927453D01*
X828147Y927395D01*
X828135Y927348D01*
X828122Y927311D01*
X828109Y927280D01*
X828094Y927253D01*
X828076Y927226D01*
X828053Y927198D01*
X827979Y927119D01*
X827871Y926835D01*
X827592Y926556D01*
X827056Y925261D01*
Y923859D01*
X827592Y922564D01*
X828584Y921572D01*
X829879Y921036D01*
X831281D01*
X832576Y921572D01*
X833568Y922564D01*
X834104Y923859D01*
Y925261D01*
X833568Y926556D01*
X833289Y926835D01*
X833181Y927119D01*
X833107Y927198D01*
X833084Y927226D01*
X833066Y927253D01*
X833051Y927280D01*
X833038Y927311D01*
X833025Y927348D01*
X833013Y927395D01*
X833002Y927453D01*
X832995Y927525D01*
X832991Y927663D01*
X832911Y927839D01*
Y1040644D01*
X832733Y1041536D01*
X832228Y1042292D01*
X827943Y1046577D01*
X828429Y1047750D01*
X835869D01*
D02*
G37*
G36*
X838968Y922334D02*
X838988Y922146D01*
X839019Y921965D01*
X839064Y921792D01*
X839121Y921626D01*
X839192Y921468D01*
X839275Y921317D01*
X839370Y921173D01*
X839479Y921037D01*
X839600Y920908D01*
X836800D01*
X836921Y921037D01*
X837030Y921173D01*
X837125Y921317D01*
X837208Y921468D01*
X837279Y921626D01*
X837336Y921792D01*
X837381Y921965D01*
X837412Y922146D01*
X837432Y922334D01*
X837438Y922529D01*
X838962D01*
X838968Y922334D01*
D02*
G37*
G36*
X849128Y917254D02*
X849147Y917066D01*
X849179Y916885D01*
X849224Y916712D01*
X849281Y916546D01*
X849352Y916388D01*
X849435Y916237D01*
X849530Y916093D01*
X849639Y915957D01*
X849760Y915828D01*
X846960D01*
X847081Y915957D01*
X847190Y916093D01*
X847285Y916237D01*
X847368Y916388D01*
X847439Y916546D01*
X847496Y916712D01*
X847541Y916885D01*
X847572Y917066D01*
X847592Y917254D01*
X847598Y917449D01*
X849122D01*
X849128Y917254D01*
D02*
G37*
G36*
X858775Y910628D02*
X858642Y910488D01*
X858521Y910343D01*
X858411Y910195D01*
X858312Y910043D01*
X858225Y909887D01*
X858150Y909728D01*
X858085Y909564D01*
X858033Y909397D01*
X857992Y909225D01*
X857962Y909050D01*
X856289Y911296D01*
X856460Y911277D01*
X856629Y911276D01*
X856794Y911292D01*
X856956Y911324D01*
X857116Y911374D01*
X857272Y911440D01*
X857426Y911524D01*
X857576Y911625D01*
X857724Y911742D01*
X857868Y911877D01*
X858775Y910628D01*
D02*
G37*
G36*
X1185644Y882659D02*
X1185642Y883203D01*
X1185604Y883727D01*
X1185529Y884231D01*
X1185417Y884714D01*
X1185268Y885178D01*
X1185082Y885621D01*
X1184860Y886044D01*
X1184600Y886447D01*
X1184303Y886829D01*
X1183970Y887191D01*
X1185047Y888269D01*
X1185349Y888002D01*
X1185659Y887796D01*
X1185978Y887651D01*
X1186306Y887567D01*
X1186643Y887544D01*
X1186987Y887583D01*
X1187341Y887682D01*
X1187703Y887843D01*
X1188074Y888064D01*
X1188453Y888347D01*
X1185644Y882659D01*
D02*
G37*
G36*
X607449Y872629D02*
X608142Y872025D01*
X608211Y871983D01*
X608267Y871958D01*
X608310Y871950D01*
X606330Y869970D01*
X606322Y870013D01*
X606297Y870069D01*
X606255Y870138D01*
X606197Y870221D01*
X606029Y870426D01*
X605794Y870683D01*
X605491Y870993D01*
X607287Y872789D01*
X607449Y872629D01*
D02*
G37*
G36*
X613799Y857389D02*
X614492Y856785D01*
X614561Y856743D01*
X614617Y856718D01*
X614660Y856710D01*
X612680Y854730D01*
X612672Y854773D01*
X612647Y854829D01*
X612605Y854899D01*
X612547Y854981D01*
X612379Y855186D01*
X612144Y855443D01*
X611841Y855753D01*
X613637Y857549D01*
X613799Y857389D01*
D02*
G37*
G36*
X618879Y844689D02*
X619571Y844085D01*
X619641Y844043D01*
X619697Y844018D01*
X619740Y844010D01*
X617760Y842030D01*
X617752Y842073D01*
X617727Y842129D01*
X617685Y842198D01*
X617627Y842281D01*
X617459Y842486D01*
X617224Y842743D01*
X616921Y843053D01*
X618717Y844849D01*
X618879Y844689D01*
D02*
G37*
G36*
X805181Y780742D02*
X805244Y779824D01*
X805263Y779746D01*
X805285Y779688D01*
X805310Y779652D01*
X802510D01*
X802535Y779688D01*
X802557Y779746D01*
X802576Y779824D01*
X802593Y779924D01*
X802619Y780188D01*
X802635Y780536D01*
X802640Y780969D01*
X805180D01*
X805181Y780742D01*
D02*
G37*
G36*
X742951Y773408D02*
X743014Y772490D01*
X743033Y772412D01*
X743055Y772354D01*
X743080Y772318D01*
X740280D01*
X740305Y772354D01*
X740327Y772412D01*
X740346Y772490D01*
X740363Y772590D01*
X740389Y772853D01*
X740405Y773202D01*
X740410Y773635D01*
X742950D01*
X742951Y773408D01*
D02*
G37*
G36*
X680721D02*
X680784Y772490D01*
X680803Y772412D01*
X680825Y772354D01*
X680850Y772318D01*
X678050D01*
X678075Y772354D01*
X678097Y772412D01*
X678116Y772490D01*
X678133Y772590D01*
X678159Y772853D01*
X678175Y773202D01*
X678180Y773635D01*
X680720D01*
X680721Y773408D01*
D02*
G37*
G36*
X618491D02*
X618554Y772490D01*
X618573Y772412D01*
X618595Y772354D01*
X618620Y772318D01*
X615820D01*
X615845Y772354D01*
X615867Y772412D01*
X615886Y772490D01*
X615903Y772590D01*
X615929Y772853D01*
X615945Y773202D01*
X615950Y773635D01*
X618490D01*
X618491Y773408D01*
D02*
G37*
G36*
X557829Y771933D02*
X557669Y771771D01*
X557065Y771078D01*
X557023Y771009D01*
X556998Y770953D01*
X556990Y770910D01*
X555010Y772890D01*
X555053Y772898D01*
X555109Y772923D01*
X555178Y772965D01*
X555261Y773023D01*
X555466Y773191D01*
X555723Y773426D01*
X556033Y773729D01*
X557829Y771933D01*
D02*
G37*
%LPC*%
G36*
X892588Y1262967D02*
Y1254336D01*
X894128D01*
Y1259125D01*
X894706Y1258456D01*
X895361Y1257858D01*
X896093Y1257330D01*
X896901Y1256873D01*
X897787Y1256486D01*
X898240Y1256337D01*
X898125Y1257210D01*
X897290Y1259227D01*
X895961Y1260958D01*
X894229Y1262287D01*
X892588Y1262967D01*
D02*
G37*
G36*
X970088Y1262967D02*
Y1254336D01*
X975910D01*
Y1255046D01*
X975625Y1257210D01*
X974790Y1259227D01*
X973461Y1260958D01*
X971729Y1262287D01*
X970088Y1262967D01*
D02*
G37*
G36*
X965008Y1262967D02*
X963368Y1262287D01*
X961636Y1260958D01*
X960307Y1259227D01*
X959472Y1257210D01*
X959357Y1256337D01*
X959810Y1256486D01*
X960695Y1256873D01*
X961504Y1257330D01*
X962236Y1257858D01*
X962891Y1258456D01*
X963469Y1259125D01*
Y1254336D01*
X965008D01*
Y1262967D01*
D02*
G37*
G36*
X887508Y1262967D02*
X885868Y1262287D01*
X884136Y1260958D01*
X882807Y1259227D01*
X881972Y1257210D01*
X881687Y1255046D01*
Y1254336D01*
X887508D01*
Y1262967D01*
D02*
G37*
G36*
X894128Y1249256D02*
X892588D01*
Y1246654D01*
X894128Y1246856D01*
Y1249256D01*
D02*
G37*
G36*
X965008D02*
X963469D01*
Y1246856D01*
X965008Y1246654D01*
Y1249256D01*
D02*
G37*
G36*
X302104Y1264764D02*
X279556D01*
Y1242216D01*
X302104D01*
Y1264764D01*
D02*
G37*
G36*
X959357Y1247255D02*
X959472Y1246382D01*
X960307Y1244365D01*
X961636Y1242633D01*
X962797Y1241742D01*
X962629Y1244337D01*
X962496Y1245156D01*
X962392Y1245591D01*
X962236Y1245734D01*
X961504Y1246262D01*
X960695Y1246719D01*
X959810Y1247106D01*
X959357Y1247255D01*
D02*
G37*
G36*
X898240D02*
X897787Y1247106D01*
X896901Y1246719D01*
X896093Y1246262D01*
X895361Y1245734D01*
X895189Y1245577D01*
X895100Y1245156D01*
X894856Y1243424D01*
X894721Y1241682D01*
X895961Y1242633D01*
X897290Y1244365D01*
X898125Y1246382D01*
X898240Y1247255D01*
D02*
G37*
G36*
X887508Y1249256D02*
X881687D01*
Y1248546D01*
X881972Y1246382D01*
X882807Y1244365D01*
X884136Y1242633D01*
X885868Y1241305D01*
X886675Y1240970D01*
X886672Y1241002D01*
X886499Y1242007D01*
X886286Y1242921D01*
X886036Y1243743D01*
X885747Y1244474D01*
X885419Y1245113D01*
X885052Y1245661D01*
X887508Y1245985D01*
Y1249256D01*
D02*
G37*
G36*
X975910D02*
X970088D01*
Y1245985D01*
X972544Y1245661D01*
X972178Y1245113D01*
X971850Y1244474D01*
X971561Y1243743D01*
X971310Y1242921D01*
X971098Y1242007D01*
X970925Y1241002D01*
X970921Y1240970D01*
X971729Y1241305D01*
X973461Y1242633D01*
X974790Y1244365D01*
X975625Y1246382D01*
X975910Y1248546D01*
Y1249256D01*
D02*
G37*
G36*
X1178745Y1264539D02*
X1175835D01*
X1173025Y1263786D01*
X1170506Y1262331D01*
X1168449Y1260274D01*
X1166994Y1257755D01*
X1166241Y1254945D01*
Y1253708D01*
X1166116Y1253419D01*
X1166072Y1250420D01*
X1165882Y1247991D01*
X1165740Y1247017D01*
X1165566Y1246177D01*
X1165370Y1245495D01*
X1165165Y1244978D01*
X1164974Y1244634D01*
X1164713Y1244311D01*
X1164671Y1244167D01*
X1161174Y1240670D01*
X1160119D01*
X1159923Y1240751D01*
X1159915Y1240747D01*
X1159906Y1240751D01*
X1158519Y1240736D01*
X1158479Y1240719D01*
X1158437Y1240733D01*
X1158361Y1240728D01*
X1158319Y1240708D01*
X1158275Y1240721D01*
X1158229Y1240715D01*
X1158147Y1240670D01*
X1157668D01*
X1157443Y1240625D01*
X1148906D01*
Y1237501D01*
X1148894Y1237501D01*
X1148714Y1237421D01*
X1144387D01*
X1144206Y1237501D01*
X1144194Y1237501D01*
Y1240614D01*
X1131646D01*
Y1240590D01*
X1130473Y1240104D01*
X1126409Y1244167D01*
X1126367Y1244311D01*
X1126106Y1244634D01*
X1125915Y1244978D01*
X1125710Y1245495D01*
X1125514Y1246177D01*
X1125341Y1247017D01*
X1125200Y1247976D01*
X1124967Y1251856D01*
X1124964Y1253398D01*
X1124839Y1253698D01*
Y1254945D01*
X1124086Y1257755D01*
X1122631Y1260274D01*
X1120574Y1262331D01*
X1118055Y1263786D01*
X1115245Y1264539D01*
X1112335D01*
X1109525Y1263786D01*
X1107006Y1262331D01*
X1104949Y1260274D01*
X1103494Y1257755D01*
X1102741Y1254945D01*
Y1252035D01*
X1103494Y1249225D01*
X1104949Y1246706D01*
X1107006Y1244649D01*
X1109525Y1243194D01*
X1112335Y1242441D01*
X1113572D01*
X1113861Y1242316D01*
X1116860Y1242272D01*
X1119289Y1242082D01*
X1120263Y1241939D01*
X1121103Y1241766D01*
X1121785Y1241570D01*
X1122302Y1241365D01*
X1122646Y1241174D01*
X1122969Y1240913D01*
X1123113Y1240871D01*
X1129922Y1234062D01*
X1130678Y1233557D01*
X1131359Y1233421D01*
X1131634Y1233299D01*
X1131646Y1233299D01*
Y1229566D01*
X1144194D01*
Y1232679D01*
X1144206Y1232679D01*
X1144387Y1232759D01*
X1148714D01*
X1148894Y1232679D01*
X1148906Y1232679D01*
Y1229577D01*
X1159954D01*
Y1235928D01*
X1159967Y1235928D01*
X1160147Y1236008D01*
X1162139D01*
X1163031Y1236186D01*
X1163787Y1236691D01*
X1167967Y1240871D01*
X1168111Y1240913D01*
X1168434Y1241174D01*
X1168778Y1241366D01*
X1169295Y1241570D01*
X1169977Y1241766D01*
X1170817Y1241939D01*
X1171776Y1242080D01*
X1175656Y1242313D01*
X1177198Y1242316D01*
X1177498Y1242441D01*
X1178745D01*
X1181555Y1243194D01*
X1184074Y1244649D01*
X1186131Y1246706D01*
X1187586Y1249225D01*
X1188339Y1252035D01*
Y1254945D01*
X1187586Y1257755D01*
X1186131Y1260274D01*
X1184074Y1262331D01*
X1181555Y1263786D01*
X1178745Y1264539D01*
D02*
G37*
G36*
X1075875Y1265809D02*
X1072965D01*
X1070155Y1265056D01*
X1067636Y1263601D01*
X1065579Y1261544D01*
X1064124Y1259025D01*
X1063371Y1256215D01*
Y1254978D01*
X1063246Y1254689D01*
X1063203Y1251690D01*
X1063012Y1249261D01*
X1062869Y1248287D01*
X1062696Y1247447D01*
X1062500Y1246765D01*
X1062295Y1246248D01*
X1062104Y1245904D01*
X1061843Y1245581D01*
X1061801Y1245437D01*
X1056987Y1240623D01*
X1055814Y1241110D01*
Y1241114D01*
X1044766D01*
Y1238001D01*
X1044754Y1238001D01*
X1044574Y1237921D01*
X1041516D01*
X1041336Y1238001D01*
X1041324Y1238001D01*
Y1240614D01*
X1028776D01*
X1028776Y1240614D01*
Y1240614D01*
X1027766Y1241211D01*
X1023539Y1245437D01*
X1023497Y1245581D01*
X1023236Y1245904D01*
X1023045Y1246248D01*
X1022840Y1246765D01*
X1022644Y1247447D01*
X1022471Y1248287D01*
X1022330Y1249246D01*
X1022097Y1253126D01*
X1022094Y1254668D01*
X1021969Y1254968D01*
Y1256215D01*
X1021216Y1259025D01*
X1019761Y1261544D01*
X1017704Y1263601D01*
X1015185Y1265056D01*
X1012375Y1265809D01*
X1009465D01*
X1006655Y1265056D01*
X1004136Y1263601D01*
X1002079Y1261544D01*
X1000624Y1259025D01*
X999871Y1256215D01*
Y1253305D01*
X1000624Y1250495D01*
X1002079Y1247976D01*
X1004136Y1245919D01*
X1006655Y1244464D01*
X1009465Y1243711D01*
X1010702D01*
X1010991Y1243586D01*
X1013990Y1243542D01*
X1016419Y1243352D01*
X1017393Y1243210D01*
X1018233Y1243036D01*
X1018915Y1242840D01*
X1019432Y1242635D01*
X1019776Y1242444D01*
X1020099Y1242183D01*
X1020243Y1242141D01*
X1027259Y1235125D01*
X1028015Y1234620D01*
X1028505Y1234522D01*
X1028776Y1234402D01*
Y1229566D01*
X1041324D01*
Y1233179D01*
X1041336Y1233179D01*
X1041516Y1233259D01*
X1044574D01*
X1044754Y1233179D01*
X1044766Y1233179D01*
Y1230066D01*
X1055814D01*
Y1233467D01*
X1056262Y1233557D01*
X1057018Y1234062D01*
X1065097Y1242141D01*
X1065241Y1242183D01*
X1065564Y1242444D01*
X1065908Y1242635D01*
X1066425Y1242840D01*
X1067107Y1243036D01*
X1067947Y1243209D01*
X1068906Y1243350D01*
X1072786Y1243583D01*
X1074328Y1243586D01*
X1074628Y1243711D01*
X1075875D01*
X1078685Y1244464D01*
X1081204Y1245919D01*
X1082078Y1246793D01*
X1082372Y1246909D01*
X1084522Y1248999D01*
X1086375Y1250582D01*
X1087164Y1251170D01*
X1087881Y1251640D01*
X1088502Y1251985D01*
X1089012Y1252205D01*
X1089391Y1252314D01*
X1089804Y1252358D01*
X1089935Y1252429D01*
X1089965D01*
X1093679Y1248715D01*
Y1152855D01*
X1087425Y1146601D01*
X1063729D01*
X1063553Y1146681D01*
X1063415Y1146685D01*
X1063343Y1146693D01*
X1063285Y1146703D01*
X1063239Y1146715D01*
X1063201Y1146728D01*
X1063170Y1146741D01*
X1063143Y1146756D01*
X1063116Y1146774D01*
X1063088Y1146797D01*
X1063009Y1146871D01*
X1062725Y1146979D01*
X1062446Y1147258D01*
X1061151Y1147794D01*
X1059749D01*
X1058454Y1147258D01*
X1057462Y1146266D01*
X1056926Y1144971D01*
Y1143569D01*
X1057462Y1142274D01*
X1058454Y1141283D01*
X1059749Y1140746D01*
X1061151D01*
X1062446Y1141283D01*
X1062725Y1141561D01*
X1063009Y1141669D01*
X1063088Y1141743D01*
X1063116Y1141766D01*
X1063143Y1141784D01*
X1063170Y1141799D01*
X1063201Y1141812D01*
X1063239Y1141825D01*
X1063285Y1141837D01*
X1063343Y1141848D01*
X1063415Y1141855D01*
X1063553Y1141859D01*
X1063729Y1141939D01*
X1088390D01*
X1089282Y1142117D01*
X1090038Y1142622D01*
X1097658Y1150242D01*
X1098163Y1150998D01*
X1098341Y1151890D01*
Y1249680D01*
X1098163Y1250572D01*
X1097658Y1251328D01*
X1092578Y1256408D01*
X1091822Y1256913D01*
X1090930Y1257091D01*
X1089935D01*
X1089804Y1257162D01*
X1089391Y1257206D01*
X1089012Y1257315D01*
X1088502Y1257535D01*
X1087881Y1257880D01*
X1087165Y1258350D01*
X1086387Y1258929D01*
X1083478Y1261508D01*
X1082387Y1262596D01*
X1082086Y1262720D01*
X1081204Y1263601D01*
X1078685Y1265056D01*
X1075875Y1265809D01*
D02*
G37*
G36*
X1133201Y1226709D02*
X1133163Y1226693D01*
X1133124Y1226707D01*
X1125574Y1226358D01*
X1125446Y1226298D01*
X1123569Y1225925D01*
X1121804Y1224746D01*
X1121374Y1224316D01*
X1120195Y1222551D01*
X1119781Y1220470D01*
X1120195Y1218389D01*
X1121374Y1216624D01*
X1123139Y1215445D01*
X1125220Y1215032D01*
X1127298Y1215445D01*
X1132903Y1215460D01*
X1132907Y1215462D01*
X1132933D01*
X1132936Y1215460D01*
X1132985Y1215462D01*
X1137730D01*
X1138255Y1215566D01*
X1144194D01*
Y1226614D01*
X1133430D01*
X1133201Y1226709D01*
D02*
G37*
G36*
X904897Y1229820D02*
X902700D01*
X900669Y1228979D01*
X899115Y1227425D01*
X898274Y1225395D01*
Y1225161D01*
X897135Y1224599D01*
X896486Y1225097D01*
X895161Y1225646D01*
X895346Y1224928D01*
X895673Y1223942D01*
X896061Y1223014D01*
X896508Y1222144D01*
X897014Y1221331D01*
X897580Y1220576D01*
X894088Y1220232D01*
Y1216336D01*
X901423D01*
Y1216546D01*
X901231Y1218006D01*
X902394Y1218898D01*
X902700Y1218772D01*
X904897D01*
X906927Y1219613D01*
X908481Y1221167D01*
X909322Y1223197D01*
Y1225395D01*
X908481Y1227425D01*
X906927Y1228979D01*
X904897Y1229820D01*
D02*
G37*
G36*
X1056830Y1227130D02*
X1052830D01*
Y1223130D01*
X1056830D01*
Y1227130D01*
D02*
G37*
G36*
X1047750D02*
X1043750D01*
Y1223130D01*
X1047750D01*
Y1227130D01*
D02*
G37*
G36*
X1160970Y1226641D02*
X1156970D01*
Y1222641D01*
X1160970D01*
Y1226641D01*
D02*
G37*
G36*
X1151890D02*
X1147890D01*
Y1222641D01*
X1151890D01*
Y1226641D01*
D02*
G37*
G36*
X1224886Y1258570D02*
X1221134D01*
X1217453Y1257838D01*
X1213986Y1256402D01*
X1210866Y1254317D01*
X1208213Y1251664D01*
X1206128Y1248544D01*
X1204692Y1245077D01*
X1203960Y1241396D01*
Y1237644D01*
X1204692Y1233963D01*
X1206128Y1230496D01*
X1208213Y1227376D01*
X1210866Y1224723D01*
X1213986Y1222638D01*
X1217453Y1221202D01*
X1221134Y1220470D01*
X1224886D01*
X1228567Y1221202D01*
X1232034Y1222638D01*
X1235154Y1224723D01*
X1237807Y1227376D01*
X1239892Y1230496D01*
X1241328Y1233963D01*
X1242060Y1237644D01*
Y1241396D01*
X1241328Y1245077D01*
X1239892Y1248544D01*
X1237807Y1251664D01*
X1235154Y1254317D01*
X1232034Y1256402D01*
X1228567Y1257838D01*
X1224886Y1258570D01*
D02*
G37*
G36*
X970941Y1225116D02*
X970957Y1224995D01*
X971384Y1222908D01*
X971662Y1221938D01*
X971982Y1221017D01*
X972345Y1220145D01*
X972751Y1219322D01*
X968588Y1219732D01*
Y1216336D01*
X975923D01*
Y1216546D01*
X975586Y1219102D01*
X974600Y1221483D01*
X973031Y1223528D01*
X970986Y1225097D01*
X970941Y1225116D01*
D02*
G37*
G36*
X460155Y1223994D02*
X458753D01*
X457458Y1223457D01*
X456466Y1222466D01*
X455930Y1221171D01*
Y1219769D01*
X456466Y1218474D01*
X457458Y1217483D01*
X458753Y1216946D01*
X460155D01*
X461450Y1217483D01*
X462441Y1218474D01*
X462978Y1219769D01*
Y1221171D01*
X462441Y1222466D01*
X461450Y1223457D01*
X460155Y1223994D01*
D02*
G37*
G36*
X292314Y1239364D02*
X289346D01*
X286478Y1238596D01*
X283908Y1237111D01*
X281809Y1235012D01*
X280324Y1232442D01*
X279556Y1229574D01*
Y1226606D01*
X280324Y1223738D01*
X281809Y1221168D01*
X283908Y1219069D01*
X286478Y1217584D01*
X289346Y1216816D01*
X292314D01*
X295182Y1217584D01*
X297752Y1219069D01*
X299851Y1221168D01*
X301336Y1223738D01*
X302104Y1226606D01*
Y1229574D01*
X301336Y1232442D01*
X299851Y1235012D01*
X297752Y1237111D01*
X295182Y1238596D01*
X292314Y1239364D01*
D02*
G37*
G36*
X886655Y1225116D02*
X886611Y1225097D01*
X884566Y1223528D01*
X882997Y1221483D01*
X882010Y1219102D01*
X881674Y1216546D01*
Y1216336D01*
X889008D01*
Y1219732D01*
X884846Y1219322D01*
X885252Y1220145D01*
X885615Y1221017D01*
X885935Y1221938D01*
X886212Y1222908D01*
X886639Y1224995D01*
X886655Y1225116D01*
D02*
G37*
G36*
X954897Y1229820D02*
X952700D01*
X950669Y1228979D01*
X949115Y1227425D01*
X948274Y1225395D01*
Y1223197D01*
X949115Y1221167D01*
X950669Y1219613D01*
X952700Y1218772D01*
X954897D01*
X955203Y1218898D01*
X956366Y1218006D01*
X956174Y1216546D01*
Y1216336D01*
X963508D01*
Y1220232D01*
X960016Y1220576D01*
X960583Y1221331D01*
X961089Y1222144D01*
X961536Y1223014D01*
X961923Y1223942D01*
X962251Y1224928D01*
X962436Y1225646D01*
X961111Y1225097D01*
X960461Y1224599D01*
X959322Y1225161D01*
Y1225395D01*
X958481Y1227425D01*
X956927Y1228979D01*
X954897Y1229820D01*
D02*
G37*
G36*
X1041324Y1226614D02*
X1028776D01*
Y1219612D01*
X1028733Y1219543D01*
X1028765Y1219406D01*
X1028711Y1219276D01*
X1028776Y1219120D01*
Y1219073D01*
X1028733Y1219012D01*
X1028335Y1218545D01*
X1028067Y1218267D01*
X1027993Y1218079D01*
X1026758Y1216845D01*
X1026577Y1216776D01*
X1026474Y1216680D01*
X1026416Y1216632D01*
X1026363Y1216595D01*
X1026316Y1216566D01*
X1026275Y1216545D01*
X1026236Y1216529D01*
X1026198Y1216518D01*
X1026159Y1216509D01*
X1026116Y1216503D01*
X1026004Y1216496D01*
X1025757Y1216374D01*
X1025459D01*
X1024164Y1215837D01*
X1023173Y1214846D01*
X1022636Y1213551D01*
Y1212149D01*
X1023173Y1210854D01*
X1024164Y1209863D01*
X1025459Y1209326D01*
X1026861D01*
X1028156Y1209863D01*
X1029147Y1210854D01*
X1029684Y1212149D01*
Y1212645D01*
X1029808Y1212946D01*
X1029807Y1213051D01*
X1029809Y1213079D01*
X1029814Y1213102D01*
X1029819Y1213125D01*
X1029828Y1213148D01*
X1029842Y1213177D01*
X1029863Y1213213D01*
X1029893Y1213257D01*
X1029935Y1213310D01*
X1030029Y1213410D01*
X1030031Y1213414D01*
X1030034Y1213416D01*
X1030101Y1213594D01*
X1031275Y1214769D01*
X1031455Y1214836D01*
X1032020Y1215362D01*
X1032204Y1215510D01*
X1032283Y1215566D01*
X1032330D01*
X1032486Y1215501D01*
X1032616Y1215555D01*
X1032753Y1215523D01*
X1032822Y1215566D01*
X1041324D01*
Y1226614D01*
D02*
G37*
G36*
X1056830Y1218050D02*
X1052830D01*
Y1214050D01*
X1056830D01*
Y1218050D01*
D02*
G37*
G36*
X1047750D02*
X1043750D01*
Y1214050D01*
X1047750D01*
Y1218050D01*
D02*
G37*
G36*
X1160970Y1217561D02*
X1156970D01*
Y1213561D01*
X1160970D01*
Y1217561D01*
D02*
G37*
G36*
X1151890D02*
X1147890D01*
Y1213561D01*
X1151890D01*
Y1217561D01*
D02*
G37*
G36*
X975923Y1211256D02*
X974381D01*
X975636Y1209747D01*
X975737Y1209638D01*
X975923Y1211046D01*
Y1211256D01*
D02*
G37*
G36*
X1013460Y1215770D02*
Y1206500D01*
X1017722D01*
Y1210628D01*
X1018303Y1210085D01*
X1018924Y1209599D01*
X1019586Y1209170D01*
X1020290Y1208799D01*
X1021033Y1208484D01*
X1021818Y1208227D01*
X1022298Y1208111D01*
X1022163Y1208617D01*
X1020574Y1211368D01*
X1018328Y1213614D01*
X1015577Y1215203D01*
X1013460Y1215770D01*
D02*
G37*
G36*
X1116330Y1214500D02*
Y1205230D01*
X1120592D01*
Y1209358D01*
X1121173Y1208815D01*
X1121794Y1208329D01*
X1122456Y1207900D01*
X1123159Y1207529D01*
X1123903Y1207214D01*
X1124688Y1206957D01*
X1125168Y1206841D01*
X1125033Y1207347D01*
X1123444Y1210098D01*
X1121198Y1212344D01*
X1118447Y1213933D01*
X1116330Y1214500D01*
D02*
G37*
G36*
X1086485Y1216025D02*
X1076960D01*
Y1206500D01*
X1086485D01*
Y1216025D01*
D02*
G37*
G36*
X1008380Y1215770D02*
X1006263Y1215203D01*
X1003512Y1213614D01*
X1001266Y1211368D01*
X999677Y1208617D01*
X999542Y1208111D01*
X1000022Y1208227D01*
X1000807Y1208484D01*
X1001551Y1208799D01*
X1002254Y1209170D01*
X1002916Y1209599D01*
X1003537Y1210085D01*
X1004118Y1210628D01*
Y1206500D01*
X1008380D01*
Y1215770D01*
D02*
G37*
G36*
X1071880Y1216025D02*
X1062355D01*
Y1208442D01*
X1063043Y1208723D01*
X1063732Y1209142D01*
X1064267Y1209637D01*
X1064650Y1210208D01*
X1064880Y1210856D01*
X1064956Y1211580D01*
Y1206500D01*
X1071880D01*
Y1216025D01*
D02*
G37*
G36*
X1189355Y1214755D02*
X1179830D01*
Y1205230D01*
X1189355D01*
Y1214755D01*
D02*
G37*
G36*
X1174750D02*
X1165225D01*
Y1207172D01*
X1165913Y1207452D01*
X1166602Y1207872D01*
X1167137Y1208367D01*
X1167520Y1208938D01*
X1167749Y1209586D01*
X1167826Y1210310D01*
Y1205230D01*
X1174750D01*
Y1214755D01*
D02*
G37*
G36*
X1111250Y1214500D02*
X1109133Y1213933D01*
X1106382Y1212344D01*
X1104136Y1210098D01*
X1102547Y1207347D01*
X1101980Y1205230D01*
X1111250D01*
Y1214500D01*
D02*
G37*
G36*
X972062Y1211256D02*
X968588D01*
Y1204449D01*
X972062Y1211256D01*
D02*
G37*
G36*
X901423D02*
X894408D01*
X894249Y1211041D01*
X894088Y1210799D01*
Y1204838D01*
X896971Y1206322D01*
X896767Y1206185D01*
X896629Y1206019D01*
X896556Y1205823D01*
X896548Y1205598D01*
X896605Y1205344D01*
X896728Y1205060D01*
X896917Y1204746D01*
X897170Y1204402D01*
X897489Y1204030D01*
X897874Y1203627D01*
X895538Y1202371D01*
X895123Y1202768D01*
X894351Y1203399D01*
X894088Y1203570D01*
Y1201506D01*
X894104Y1201508D01*
X896486Y1202494D01*
X898531Y1204064D01*
X900100Y1206109D01*
X901086Y1208490D01*
X901423Y1211046D01*
Y1211256D01*
D02*
G37*
G36*
X968870Y1204512D02*
X968650Y1204447D01*
X968588Y1204377D01*
Y1201506D01*
X968604Y1201508D01*
X970986Y1202494D01*
X971459Y1202858D01*
X970461Y1203727D01*
X969957Y1204080D01*
X969523Y1204329D01*
X969161Y1204473D01*
X968870Y1204512D01*
D02*
G37*
G36*
X888685Y1211256D02*
X881674D01*
Y1211046D01*
X882010Y1208490D01*
X882997Y1206109D01*
X884566Y1204064D01*
X886611Y1202494D01*
X888993Y1201508D01*
X889008Y1201506D01*
Y1210808D01*
X888685Y1211256D01*
D02*
G37*
G36*
X963508D02*
X956174D01*
Y1211046D01*
X956510Y1208490D01*
X957497Y1206109D01*
X959066Y1204064D01*
X961111Y1202494D01*
X963493Y1201508D01*
X963508Y1201506D01*
Y1211256D01*
D02*
G37*
G36*
X1008380Y1201420D02*
X1004118D01*
Y1197292D01*
X1003537Y1197835D01*
X1002916Y1198321D01*
X1002254Y1198750D01*
X1001551Y1199121D01*
X1000807Y1199436D01*
X1000022Y1199693D01*
X999542Y1199809D01*
X999677Y1199303D01*
X1001266Y1196552D01*
X1003512Y1194306D01*
X1006263Y1192717D01*
X1008380Y1192150D01*
Y1201420D01*
D02*
G37*
G36*
X1071880D02*
X1064956D01*
Y1196340D01*
X1064880Y1197064D01*
X1064650Y1197712D01*
X1064267Y1198283D01*
X1063732Y1198778D01*
X1063043Y1199197D01*
X1062355Y1199478D01*
Y1191895D01*
X1071880D01*
Y1201420D01*
D02*
G37*
G36*
X1174750Y1200150D02*
X1167826D01*
Y1195070D01*
X1167749Y1195794D01*
X1167520Y1196442D01*
X1167137Y1197013D01*
X1166602Y1197508D01*
X1165913Y1197927D01*
X1165225Y1198208D01*
Y1190625D01*
X1174750D01*
Y1200150D01*
D02*
G37*
G36*
X1017722Y1201420D02*
X1013460D01*
Y1192150D01*
X1015577Y1192717D01*
X1018328Y1194306D01*
X1020574Y1196552D01*
X1022163Y1199303D01*
X1022298Y1199809D01*
X1021818Y1199693D01*
X1021033Y1199436D01*
X1020290Y1199121D01*
X1019586Y1198750D01*
X1018924Y1198321D01*
X1018303Y1197835D01*
X1017722Y1197292D01*
Y1201420D01*
D02*
G37*
G36*
X1086485D02*
X1076960D01*
Y1191895D01*
X1086485D01*
Y1201420D01*
D02*
G37*
G36*
X292314Y1213964D02*
X289346D01*
X286478Y1213196D01*
X283908Y1211711D01*
X281809Y1209612D01*
X280324Y1207042D01*
X279556Y1204174D01*
Y1201206D01*
X280324Y1198338D01*
X281809Y1195768D01*
X283908Y1193669D01*
X286478Y1192184D01*
X289346Y1191416D01*
X292314D01*
X295182Y1192184D01*
X297752Y1193669D01*
X299851Y1195768D01*
X301336Y1198338D01*
X302104Y1201206D01*
Y1204174D01*
X301336Y1207042D01*
X299851Y1209612D01*
X297752Y1211711D01*
X295182Y1213196D01*
X292314Y1213964D01*
D02*
G37*
G36*
X1120592Y1200150D02*
X1116330D01*
Y1190880D01*
X1118447Y1191447D01*
X1121198Y1193036D01*
X1123444Y1195282D01*
X1125033Y1198033D01*
X1125168Y1198539D01*
X1124688Y1198423D01*
X1123903Y1198166D01*
X1123159Y1197851D01*
X1122456Y1197480D01*
X1121794Y1197051D01*
X1121173Y1196565D01*
X1120592Y1196022D01*
Y1200150D01*
D02*
G37*
G36*
X1111250D02*
X1101980D01*
X1102547Y1198033D01*
X1104136Y1195282D01*
X1106382Y1193036D01*
X1109133Y1191447D01*
X1111250Y1190880D01*
Y1200150D01*
D02*
G37*
G36*
X1189355D02*
X1179830D01*
Y1190625D01*
X1189355D01*
Y1200150D01*
D02*
G37*
G36*
X769620Y1264008D02*
X767539Y1263595D01*
X765774Y1262416D01*
X764595Y1260651D01*
X764182Y1258570D01*
X764595Y1256489D01*
X765774Y1254724D01*
X777104Y1243395D01*
Y1181100D01*
X777517Y1179019D01*
X778696Y1177254D01*
X780461Y1176076D01*
X782542Y1175661D01*
X784623Y1176076D01*
X786388Y1177254D01*
X787567Y1179019D01*
X787980Y1181100D01*
Y1245648D01*
X787567Y1247729D01*
X786388Y1249494D01*
X773466Y1262416D01*
X771701Y1263595D01*
X769620Y1264008D01*
D02*
G37*
G36*
X950661Y1201134D02*
X949259D01*
X947964Y1200598D01*
X946973Y1199606D01*
X946753Y1199077D01*
X946437Y1198604D01*
X946171Y1197266D01*
Y1168191D01*
X946143Y1168124D01*
Y1166722D01*
X946680Y1165427D01*
X947671Y1164435D01*
X948966Y1163899D01*
X950368D01*
X951663Y1164435D01*
X952655Y1165427D01*
X953191Y1166722D01*
Y1168124D01*
X953163Y1168191D01*
Y1196135D01*
X953484Y1196909D01*
Y1198311D01*
X952947Y1199606D01*
X951956Y1200598D01*
X950661Y1201134D01*
D02*
G37*
G36*
X941771Y1161764D02*
X940369D01*
X940302Y1161736D01*
X901198D01*
X901131Y1161764D01*
X899729D01*
X899662Y1161736D01*
X894848D01*
X894781Y1161764D01*
X893379D01*
X892084Y1161227D01*
X891093Y1160236D01*
X890556Y1158941D01*
Y1157539D01*
X891093Y1156244D01*
X892084Y1155253D01*
X893379Y1154716D01*
X894781D01*
X894848Y1154744D01*
X899662D01*
X899729Y1154716D01*
X901131D01*
X901198Y1154744D01*
X940302D01*
X940369Y1154716D01*
X941771D01*
X943066Y1155253D01*
X944057Y1156244D01*
X944594Y1157539D01*
Y1158941D01*
X944057Y1160236D01*
X943066Y1161227D01*
X941771Y1161764D01*
D02*
G37*
G36*
X939231Y1152874D02*
X937829D01*
X936534Y1152337D01*
X936255Y1152059D01*
X935971Y1151951D01*
X935892Y1151877D01*
X935864Y1151854D01*
X935837Y1151836D01*
X935810Y1151821D01*
X935779Y1151808D01*
X935742Y1151795D01*
X935695Y1151783D01*
X935637Y1151773D01*
X935565Y1151765D01*
X935427Y1151761D01*
X935251Y1151681D01*
X931649D01*
X931473Y1151761D01*
X931335Y1151765D01*
X931263Y1151773D01*
X931205Y1151783D01*
X931159Y1151795D01*
X931121Y1151808D01*
X931090Y1151821D01*
X931063Y1151836D01*
X931036Y1151854D01*
X931008Y1151877D01*
X930929Y1151951D01*
X930645Y1152059D01*
X930366Y1152337D01*
X929071Y1152874D01*
X927669D01*
X926374Y1152337D01*
X925383Y1151346D01*
X924846Y1150051D01*
Y1148649D01*
X925383Y1147354D01*
X926374Y1146363D01*
X927669Y1145826D01*
X929071D01*
X930366Y1146363D01*
X930645Y1146641D01*
X930929Y1146749D01*
X931008Y1146823D01*
X931036Y1146846D01*
X931063Y1146864D01*
X931090Y1146879D01*
X931121Y1146892D01*
X931159Y1146905D01*
X931205Y1146917D01*
X931263Y1146927D01*
X931335Y1146935D01*
X931473Y1146939D01*
X931649Y1147019D01*
X935251D01*
X935427Y1146939D01*
X935565Y1146935D01*
X935637Y1146927D01*
X935695Y1146917D01*
X935742Y1146905D01*
X935779Y1146892D01*
X935810Y1146879D01*
X935837Y1146864D01*
X935864Y1146846D01*
X935892Y1146823D01*
X935971Y1146749D01*
X936255Y1146641D01*
X936534Y1146363D01*
X937829Y1145826D01*
X939231D01*
X940526Y1146363D01*
X941517Y1147354D01*
X942054Y1148649D01*
Y1150051D01*
X941517Y1151346D01*
X940526Y1152337D01*
X939231Y1152874D01*
D02*
G37*
G36*
X302104Y1172054D02*
X279556D01*
Y1149506D01*
X302104D01*
Y1172054D01*
D02*
G37*
G36*
X441391Y1141444D02*
X439989D01*
X438694Y1140908D01*
X437702Y1139916D01*
X437166Y1138621D01*
Y1137219D01*
X437702Y1135924D01*
X438694Y1134932D01*
X439989Y1134396D01*
X441391D01*
X442686Y1134932D01*
X443677Y1135924D01*
X444214Y1137219D01*
Y1138621D01*
X443677Y1139916D01*
X442686Y1140908D01*
X441391Y1141444D01*
D02*
G37*
G36*
X857951Y1185894D02*
X856549D01*
X855254Y1185358D01*
X854262Y1184366D01*
X853726Y1183071D01*
Y1183023D01*
X853366Y1182617D01*
X853239Y1182487D01*
X853169Y1182318D01*
X852982Y1182130D01*
X852364Y1181206D01*
X852147Y1180116D01*
X852147Y1180116D01*
Y1138904D01*
X852147Y1138904D01*
X852364Y1137814D01*
X852982Y1136890D01*
X861586Y1128286D01*
X861586Y1128286D01*
X862510Y1127668D01*
X863600Y1127451D01*
X863600Y1127451D01*
X893690D01*
X893855Y1127381D01*
X894261Y1127376D01*
X894539Y1127363D01*
X894577Y1127359D01*
X894624Y1127312D01*
X895919Y1126776D01*
X897321D01*
X898616Y1127312D01*
X899607Y1128304D01*
X900144Y1129599D01*
Y1131001D01*
X899607Y1132296D01*
X898616Y1133288D01*
X897321Y1133824D01*
X895919D01*
X894624Y1133288D01*
X894594Y1133258D01*
X894042Y1133221D01*
X893866Y1133220D01*
X893697Y1133149D01*
X864780D01*
X857845Y1140084D01*
Y1178814D01*
X857867Y1178835D01*
X857880Y1178846D01*
X857951D01*
X859246Y1179382D01*
X860238Y1180374D01*
X860774Y1181669D01*
Y1183071D01*
X860238Y1184366D01*
X859246Y1185358D01*
X857951Y1185894D01*
D02*
G37*
G36*
X292314Y1146654D02*
X289346D01*
X286478Y1145886D01*
X283908Y1144401D01*
X281809Y1142302D01*
X280324Y1139732D01*
X279556Y1136864D01*
Y1133896D01*
X280324Y1131028D01*
X281809Y1128458D01*
X283908Y1126359D01*
X286478Y1124874D01*
X289346Y1124106D01*
X292314D01*
X295182Y1124874D01*
X297752Y1126359D01*
X299851Y1128458D01*
X301336Y1131028D01*
X302104Y1133896D01*
Y1136864D01*
X301336Y1139732D01*
X299851Y1142302D01*
X297752Y1144401D01*
X295182Y1145886D01*
X292314Y1146654D01*
D02*
G37*
G36*
X1010669Y1148112D02*
X1009267D01*
X1007972Y1147576D01*
X1006981Y1146584D01*
X1006444Y1145289D01*
Y1143887D01*
X1006981Y1142592D01*
X1007110Y1142463D01*
X1007176Y1142239D01*
X1007249Y1142148D01*
X1007278Y1142106D01*
X1007303Y1142063D01*
X1007325Y1142019D01*
X1007344Y1141971D01*
X1007361Y1141917D01*
X1007375Y1141856D01*
X1007386Y1141786D01*
X1007394Y1141705D01*
X1007398Y1141563D01*
X1007478Y1141385D01*
Y1120993D01*
X1007403Y1120849D01*
X1007417Y1120805D01*
X1007398Y1120764D01*
X1007394Y1120628D01*
X1007387Y1120566D01*
X1007378Y1120519D01*
X1007369Y1120488D01*
X1007362Y1120467D01*
X1007355Y1120454D01*
X1007349Y1120444D01*
X1007341Y1120434D01*
X1007329Y1120420D01*
X1007256Y1120353D01*
X1007111Y1120045D01*
X1006663Y1119596D01*
X1006126Y1118301D01*
Y1116899D01*
X1006663Y1115604D01*
X1007654Y1114613D01*
X1008949Y1114076D01*
X1010351D01*
X1011646Y1114613D01*
X1012637Y1115604D01*
X1013174Y1116899D01*
Y1118301D01*
X1012637Y1119596D01*
X1012508Y1119725D01*
X1012442Y1119949D01*
X1012369Y1120040D01*
X1012340Y1120082D01*
X1012315Y1120125D01*
X1012293Y1120169D01*
X1012274Y1120217D01*
X1012257Y1120271D01*
X1012243Y1120332D01*
X1012232Y1120402D01*
X1012224Y1120483D01*
X1012220Y1120625D01*
X1012140Y1120803D01*
Y1141195D01*
X1012214Y1141339D01*
X1012201Y1141383D01*
X1012220Y1141424D01*
X1012224Y1141560D01*
X1012231Y1141622D01*
X1012240Y1141669D01*
X1012249Y1141700D01*
X1012256Y1141721D01*
X1012263Y1141734D01*
X1012269Y1141744D01*
X1012277Y1141754D01*
X1012289Y1141768D01*
X1012362Y1141835D01*
X1012507Y1142143D01*
X1012955Y1142592D01*
X1013492Y1143887D01*
Y1145289D01*
X1012955Y1146584D01*
X1011964Y1147576D01*
X1010669Y1148112D01*
D02*
G37*
G36*
X982411Y1154144D02*
X981009D01*
X979714Y1153607D01*
X978723Y1152616D01*
X978186Y1151321D01*
Y1149919D01*
X978723Y1148624D01*
X979001Y1148345D01*
X979109Y1148061D01*
X979183Y1147982D01*
X979206Y1147954D01*
X979224Y1147927D01*
X979239Y1147900D01*
X979252Y1147869D01*
X979265Y1147831D01*
X979277Y1147785D01*
X979287Y1147727D01*
X979295Y1147655D01*
X979299Y1147517D01*
X979379Y1147341D01*
Y1113259D01*
X979299Y1113083D01*
X979295Y1112945D01*
X979287Y1112873D01*
X979277Y1112815D01*
X979265Y1112768D01*
X979252Y1112731D01*
X979239Y1112700D01*
X979224Y1112673D01*
X979206Y1112646D01*
X979183Y1112618D01*
X979109Y1112539D01*
X979001Y1112255D01*
X978723Y1111976D01*
X978186Y1110681D01*
Y1109279D01*
X978723Y1107984D01*
X979714Y1106992D01*
X981009Y1106456D01*
X982411D01*
X983706Y1106992D01*
X984697Y1107984D01*
X985234Y1109279D01*
Y1110681D01*
X984697Y1111976D01*
X984419Y1112255D01*
X984311Y1112539D01*
X984237Y1112618D01*
X984214Y1112646D01*
X984196Y1112673D01*
X984181Y1112700D01*
X984168Y1112731D01*
X984155Y1112768D01*
X984143Y1112815D01*
X984133Y1112873D01*
X984125Y1112945D01*
X984121Y1113083D01*
X984041Y1113259D01*
Y1147341D01*
X984121Y1147517D01*
X984125Y1147655D01*
X984133Y1147727D01*
X984143Y1147785D01*
X984155Y1147831D01*
X984168Y1147869D01*
X984181Y1147900D01*
X984196Y1147927D01*
X984214Y1147954D01*
X984237Y1147982D01*
X984311Y1148061D01*
X984419Y1148345D01*
X984697Y1148624D01*
X985234Y1149919D01*
Y1151321D01*
X984697Y1152616D01*
X983706Y1153607D01*
X982411Y1154144D01*
D02*
G37*
G36*
X292314Y1121254D02*
X289346D01*
X286478Y1120486D01*
X283908Y1119001D01*
X281809Y1116902D01*
X280324Y1114332D01*
X279556Y1111464D01*
Y1108496D01*
X280324Y1105628D01*
X281809Y1103058D01*
X283908Y1100959D01*
X286478Y1099474D01*
X289346Y1098706D01*
X292314D01*
X295182Y1099474D01*
X297752Y1100959D01*
X299851Y1103058D01*
X301336Y1105628D01*
X302104Y1108496D01*
Y1111464D01*
X301336Y1114332D01*
X299851Y1116902D01*
X297752Y1119001D01*
X295182Y1120486D01*
X292314Y1121254D01*
D02*
G37*
G36*
X997651Y1142714D02*
X996249D01*
X994954Y1142178D01*
X993962Y1141186D01*
X993426Y1139891D01*
Y1138489D01*
X993962Y1137194D01*
X994241Y1136915D01*
X994349Y1136631D01*
X994423Y1136552D01*
X994446Y1136524D01*
X994464Y1136497D01*
X994479Y1136470D01*
X994492Y1136439D01*
X994505Y1136402D01*
X994517Y1136355D01*
X994528Y1136297D01*
X994535Y1136225D01*
X994539Y1136087D01*
X994619Y1135911D01*
Y1103099D01*
X994539Y1102923D01*
X994535Y1102785D01*
X994528Y1102713D01*
X994517Y1102655D01*
X994505Y1102608D01*
X994492Y1102571D01*
X994479Y1102540D01*
X994464Y1102513D01*
X994446Y1102486D01*
X994423Y1102458D01*
X994349Y1102379D01*
X994241Y1102095D01*
X993962Y1101816D01*
X993426Y1100521D01*
Y1099119D01*
X993962Y1097824D01*
X994954Y1096833D01*
X996249Y1096296D01*
X997651D01*
X998946Y1096833D01*
X999938Y1097824D01*
X1000474Y1099119D01*
Y1100521D01*
X999938Y1101816D01*
X999659Y1102095D01*
X999551Y1102379D01*
X999477Y1102458D01*
X999454Y1102486D01*
X999436Y1102513D01*
X999421Y1102540D01*
X999408Y1102571D01*
X999395Y1102608D01*
X999383Y1102655D01*
X999372Y1102713D01*
X999365Y1102785D01*
X999361Y1102923D01*
X999281Y1103099D01*
Y1135911D01*
X999361Y1136087D01*
X999365Y1136225D01*
X999372Y1136297D01*
X999383Y1136355D01*
X999395Y1136402D01*
X999408Y1136439D01*
X999421Y1136470D01*
X999436Y1136497D01*
X999454Y1136524D01*
X999477Y1136552D01*
X999551Y1136631D01*
X999659Y1136915D01*
X999938Y1137194D01*
X1000474Y1138489D01*
Y1139891D01*
X999938Y1141186D01*
X998946Y1142178D01*
X997651Y1142714D01*
D02*
G37*
G36*
X896051Y1102074D02*
X894649D01*
X893354Y1101537D01*
X892363Y1100546D01*
X891826Y1099251D01*
Y1097849D01*
X892363Y1096554D01*
X893354Y1095563D01*
X894649Y1095026D01*
X896051D01*
X897346Y1095563D01*
X898337Y1096554D01*
X898874Y1097849D01*
Y1099251D01*
X898337Y1100546D01*
X897346Y1101537D01*
X896051Y1102074D01*
D02*
G37*
G36*
X849061D02*
X847659D01*
X846364Y1101537D01*
X845372Y1100546D01*
X844836Y1099251D01*
Y1097849D01*
X845372Y1096554D01*
X846364Y1095563D01*
X847659Y1095026D01*
X849061D01*
X850356Y1095563D01*
X851348Y1096554D01*
X851884Y1097849D01*
Y1099251D01*
X851348Y1100546D01*
X850356Y1101537D01*
X849061Y1102074D01*
D02*
G37*
G36*
X479491Y1074134D02*
X478089D01*
X476794Y1073597D01*
X476764Y1073568D01*
X476212Y1073531D01*
X476036Y1073530D01*
X475867Y1073459D01*
X423300D01*
X423135Y1073530D01*
X422729Y1073534D01*
X422451Y1073547D01*
X422413Y1073550D01*
X422366Y1073597D01*
X421071Y1074134D01*
X419669D01*
X418374Y1073597D01*
X417383Y1072606D01*
X416846Y1071311D01*
Y1069909D01*
X417383Y1068614D01*
X418374Y1067623D01*
X419669Y1067086D01*
X421071D01*
X422366Y1067623D01*
X422396Y1067652D01*
X422948Y1067689D01*
X423124Y1067690D01*
X423293Y1067761D01*
X475860D01*
X476025Y1067691D01*
X476431Y1067686D01*
X476709Y1067673D01*
X476747Y1067670D01*
X476794Y1067623D01*
X478089Y1067086D01*
X479491D01*
X480786Y1067623D01*
X481777Y1068614D01*
X482314Y1069909D01*
Y1071311D01*
X481777Y1072606D01*
X480786Y1073597D01*
X479491Y1074134D01*
D02*
G37*
G36*
X292314Y1095854D02*
X289346D01*
X286478Y1095086D01*
X283908Y1093601D01*
X281809Y1091502D01*
X280324Y1088932D01*
X279556Y1086064D01*
Y1083096D01*
X280324Y1080228D01*
X281809Y1077658D01*
X283908Y1075559D01*
X286478Y1074074D01*
X289346Y1073306D01*
X292314D01*
X295182Y1074074D01*
X297752Y1075559D01*
X299851Y1077658D01*
X301336Y1080228D01*
X302104Y1083096D01*
Y1086064D01*
X301336Y1088932D01*
X299851Y1091502D01*
X297752Y1093601D01*
X295182Y1095086D01*
X292314Y1095854D01*
D02*
G37*
G36*
X998921Y1067784D02*
X997519D01*
X996224Y1067247D01*
X995232Y1066256D01*
X994696Y1064961D01*
Y1063559D01*
X995232Y1062264D01*
X996224Y1061273D01*
X997519Y1060736D01*
X998921D01*
X1000216Y1061273D01*
X1001208Y1062264D01*
X1001744Y1063559D01*
Y1064961D01*
X1001208Y1066256D01*
X1000216Y1067247D01*
X998921Y1067784D01*
D02*
G37*
G36*
X421071Y1086834D02*
X419669D01*
X418374Y1086298D01*
X417383Y1085306D01*
X416846Y1084011D01*
Y1082609D01*
X417383Y1081314D01*
X418374Y1080322D01*
X419669Y1079786D01*
X421071D01*
X422366Y1080322D01*
X422396Y1080352D01*
X422948Y1080389D01*
X423124Y1080390D01*
X423293Y1080461D01*
X489040D01*
X505184Y1064317D01*
X505251Y1064151D01*
X505535Y1063860D01*
X505722Y1063655D01*
X505746Y1063625D01*
Y1063559D01*
X506283Y1062264D01*
X507274Y1061273D01*
X508569Y1060736D01*
X509971D01*
X511266Y1061273D01*
X512257Y1062264D01*
X512794Y1063559D01*
Y1064961D01*
X512257Y1066256D01*
X511266Y1067247D01*
X509971Y1067784D01*
X509930D01*
X509512Y1068148D01*
X509387Y1068272D01*
X509218Y1068341D01*
X492234Y1085324D01*
X491310Y1085942D01*
X490220Y1086159D01*
X490220Y1086159D01*
X423300D01*
X423135Y1086229D01*
X422729Y1086234D01*
X422451Y1086247D01*
X422413Y1086251D01*
X422366Y1086298D01*
X421071Y1086834D01*
D02*
G37*
G36*
X292314Y1070454D02*
X289346D01*
X286478Y1069686D01*
X283908Y1068201D01*
X281809Y1066102D01*
X280324Y1063532D01*
X279556Y1060664D01*
Y1057696D01*
X280324Y1054828D01*
X281809Y1052258D01*
X283908Y1050159D01*
X286478Y1048674D01*
X289346Y1047906D01*
X292314D01*
X295182Y1048674D01*
X297752Y1050159D01*
X299851Y1052258D01*
X301336Y1054828D01*
X302104Y1057696D01*
Y1060664D01*
X301336Y1063532D01*
X299851Y1066102D01*
X297752Y1068201D01*
X295182Y1069686D01*
X292314Y1070454D01*
D02*
G37*
G36*
X917641Y1050004D02*
X916239D01*
X914944Y1049467D01*
X913952Y1048476D01*
X913416Y1047181D01*
Y1045779D01*
X913952Y1044484D01*
X914944Y1043493D01*
X916239Y1042956D01*
X917641D01*
X918936Y1043493D01*
X919928Y1044484D01*
X920464Y1045779D01*
Y1047181D01*
X919928Y1048476D01*
X918936Y1049467D01*
X917641Y1050004D01*
D02*
G37*
G36*
X286380Y1019170D02*
X279400D01*
Y1012190D01*
X286380D01*
Y1019170D01*
D02*
G37*
G36*
X271780D02*
X264800D01*
Y1012190D01*
X271780D01*
Y1019170D01*
D02*
G37*
G36*
X302277Y1018154D02*
X299703D01*
X297217Y1017488D01*
X294989Y1016201D01*
X293169Y1014381D01*
X291882Y1012153D01*
X291216Y1009667D01*
Y1007093D01*
X291882Y1004607D01*
X293169Y1002379D01*
X294989Y1000559D01*
X297217Y999272D01*
X299703Y998606D01*
X302277D01*
X304763Y999272D01*
X306991Y1000559D01*
X308811Y1002379D01*
X310098Y1004607D01*
X310764Y1007093D01*
Y1009667D01*
X310098Y1012153D01*
X308811Y1014381D01*
X306991Y1016201D01*
X304763Y1017488D01*
X302277Y1018154D01*
D02*
G37*
G36*
X286380Y1004570D02*
X279400D01*
Y997590D01*
X286380D01*
Y1004570D01*
D02*
G37*
G36*
X271780D02*
X264800D01*
Y997590D01*
X271780D01*
Y1004570D01*
D02*
G37*
G36*
X279400Y993130D02*
Y986790D01*
X285740D01*
X285645Y987145D01*
X284224Y989605D01*
X282215Y991614D01*
X279755Y993035D01*
X279400Y993130D01*
D02*
G37*
G36*
X271780D02*
X271425Y993035D01*
X268965Y991614D01*
X266956Y989605D01*
X265535Y987145D01*
X265440Y986790D01*
X271780D01*
Y993130D01*
D02*
G37*
G36*
X554421Y985234D02*
X553019D01*
X551724Y984697D01*
X550732Y983706D01*
X550196Y982411D01*
Y981009D01*
X550732Y979714D01*
X551724Y978723D01*
X553019Y978186D01*
X554421D01*
X555716Y978723D01*
X556707Y979714D01*
X557244Y981009D01*
Y982411D01*
X556707Y983706D01*
X555716Y984697D01*
X554421Y985234D01*
D02*
G37*
G36*
X302277Y992754D02*
X299703D01*
X297217Y992088D01*
X294989Y990801D01*
X293169Y988981D01*
X291882Y986753D01*
X291216Y984267D01*
Y981693D01*
X291882Y979207D01*
X293169Y976979D01*
X294989Y975159D01*
X297217Y973872D01*
X299703Y973206D01*
X302277D01*
X304763Y973872D01*
X306991Y975159D01*
X308811Y976979D01*
X310098Y979207D01*
X310764Y981693D01*
Y984267D01*
X310098Y986753D01*
X308811Y988981D01*
X306991Y990801D01*
X304763Y992088D01*
X302277Y992754D01*
D02*
G37*
G36*
X285740Y979170D02*
X279400D01*
Y972830D01*
X279755Y972925D01*
X282215Y974346D01*
X284224Y976355D01*
X285645Y978815D01*
X285740Y979170D01*
D02*
G37*
G36*
X271780D02*
X265440D01*
X265535Y978815D01*
X266956Y976355D01*
X268965Y974346D01*
X271425Y972925D01*
X271780Y972830D01*
Y979170D01*
D02*
G37*
G36*
X792675Y980635D02*
X783747Y971707D01*
X782009Y971765D01*
X781776Y971998D01*
X780481Y972534D01*
X779079D01*
X777784Y971998D01*
X776793Y971006D01*
X776256Y969711D01*
Y968309D01*
X776793Y967014D01*
X777784Y966022D01*
X777830Y965790D01*
X775970Y963930D01*
X737870D01*
X728980Y955040D01*
X728980Y896768D01*
X738018Y887730D01*
X792675D01*
X792675Y980635D01*
D02*
G37*
G36*
X611571Y1009364D02*
X610169D01*
X608874Y1008828D01*
X607882Y1007836D01*
X607346Y1006541D01*
Y1005139D01*
X607882Y1003844D01*
X607912Y1003814D01*
X607949Y1003262D01*
X607950Y1003086D01*
X608021Y1002917D01*
Y973210D01*
X607951Y973045D01*
X607946Y972639D01*
X607933Y972361D01*
X607929Y972323D01*
X607882Y972276D01*
X607346Y970981D01*
Y969579D01*
X607882Y968284D01*
X608874Y967292D01*
X610169Y966756D01*
X611571D01*
X612866Y967292D01*
X613857Y968284D01*
X614394Y969579D01*
Y970981D01*
X613857Y972276D01*
X613828Y972306D01*
X613791Y972858D01*
X613790Y973034D01*
X613719Y973203D01*
Y1002910D01*
X613789Y1003075D01*
X613794Y1003481D01*
X613807Y1003759D01*
X613811Y1003797D01*
X613857Y1003844D01*
X614394Y1005139D01*
Y1006541D01*
X613857Y1007836D01*
X612866Y1008828D01*
X611571Y1009364D01*
D02*
G37*
G36*
X279400Y967730D02*
Y961390D01*
X285740D01*
X285645Y961745D01*
X284224Y964205D01*
X282215Y966214D01*
X279755Y967635D01*
X279400Y967730D01*
D02*
G37*
G36*
X271780D02*
X271425Y967635D01*
X268965Y966214D01*
X266956Y964205D01*
X265535Y961745D01*
X265440Y961390D01*
X271780D01*
Y967730D01*
D02*
G37*
G36*
X302277Y967354D02*
X299703D01*
X297217Y966688D01*
X294989Y965401D01*
X293169Y963581D01*
X291882Y961353D01*
X291216Y958867D01*
Y956293D01*
X291882Y953807D01*
X293169Y951579D01*
X294989Y949759D01*
X297217Y948472D01*
X299703Y947806D01*
X302277D01*
X304763Y948472D01*
X306991Y949759D01*
X308811Y951579D01*
X310098Y953807D01*
X310764Y956293D01*
Y958867D01*
X310098Y961353D01*
X308811Y963581D01*
X306991Y965401D01*
X304763Y966688D01*
X302277Y967354D01*
D02*
G37*
G36*
X285740Y953770D02*
X279400D01*
Y947430D01*
X279755Y947525D01*
X282215Y948946D01*
X284224Y950955D01*
X285645Y953415D01*
X285740Y953770D01*
D02*
G37*
G36*
X271780D02*
X265440D01*
X265535Y953415D01*
X266956Y950955D01*
X268965Y948946D01*
X271425Y947525D01*
X271780Y947430D01*
Y953770D01*
D02*
G37*
G36*
X279400Y942330D02*
Y935990D01*
X285740D01*
X285645Y936345D01*
X284224Y938805D01*
X282215Y940814D01*
X279755Y942235D01*
X279400Y942330D01*
D02*
G37*
G36*
X271780D02*
X271425Y942235D01*
X268965Y940814D01*
X266956Y938805D01*
X265535Y936345D01*
X265440Y935990D01*
X271780D01*
Y942330D01*
D02*
G37*
G36*
X302277Y941954D02*
X299703D01*
X297217Y941288D01*
X294989Y940001D01*
X293169Y938181D01*
X291882Y935953D01*
X291216Y933467D01*
Y930893D01*
X291882Y928407D01*
X293169Y926179D01*
X294989Y924359D01*
X297217Y923072D01*
X299703Y922406D01*
X302277D01*
X304763Y923072D01*
X306991Y924359D01*
X308811Y926179D01*
X310098Y928407D01*
X310764Y930893D01*
Y933467D01*
X310098Y935953D01*
X308811Y938181D01*
X306991Y940001D01*
X304763Y941288D01*
X302277Y941954D01*
D02*
G37*
G36*
X285740Y928370D02*
X279400D01*
Y922030D01*
X279755Y922125D01*
X282215Y923546D01*
X284224Y925555D01*
X285645Y928015D01*
X285740Y928370D01*
D02*
G37*
G36*
X271780D02*
X265440D01*
X265535Y928015D01*
X266956Y925555D01*
X268965Y923546D01*
X271425Y922125D01*
X271780Y922030D01*
Y928370D01*
D02*
G37*
G36*
X334711Y917924D02*
X333309D01*
X332014Y917387D01*
X331665Y917038D01*
X330835Y916515D01*
X330005Y917038D01*
X329656Y917387D01*
X328361Y917924D01*
X326959D01*
X325664Y917387D01*
X324673Y916396D01*
X324136Y915101D01*
Y913699D01*
X324673Y912404D01*
X325664Y911413D01*
X325835Y911342D01*
X325884Y909987D01*
X324893Y908996D01*
X324356Y907701D01*
Y906299D01*
X324893Y905004D01*
X325268Y904628D01*
X325611Y903580D01*
X325242Y902995D01*
X324673Y902426D01*
X324136Y901131D01*
Y899729D01*
X324673Y898434D01*
X325664Y897442D01*
X326959Y896906D01*
X328361D01*
X329656Y897442D01*
X330005Y897792D01*
X330835Y898315D01*
X331665Y897792D01*
X332014Y897442D01*
X333309Y896906D01*
X334711D01*
X336006Y897442D01*
X336997Y898434D01*
X337534Y899729D01*
Y901131D01*
X336997Y902426D01*
X336538Y902885D01*
X336147Y903715D01*
X336538Y904545D01*
X336997Y905004D01*
X337534Y906299D01*
Y907701D01*
X336997Y908996D01*
X336006Y909987D01*
X335945Y910013D01*
Y911387D01*
X336006Y911413D01*
X336997Y912404D01*
X337534Y913699D01*
Y915101D01*
X336997Y916396D01*
X336006Y917387D01*
X334711Y917924D01*
D02*
G37*
G36*
X639511Y921734D02*
X638109D01*
X636814Y921198D01*
X635822Y920206D01*
X635286Y918911D01*
Y917509D01*
X635822Y916214D01*
X636814Y915222D01*
X638109Y914686D01*
X639511D01*
X640806Y915222D01*
X641797Y916214D01*
X642334Y917509D01*
Y918911D01*
X641797Y920206D01*
X640806Y921198D01*
X639511Y921734D01*
D02*
G37*
G36*
X438150Y946150D02*
X379730D01*
Y892810D01*
X438150D01*
Y946150D01*
D02*
G37*
G36*
X304800Y838190D02*
Y831850D01*
X311140D01*
X311045Y832205D01*
X309624Y834665D01*
X307615Y836674D01*
X305155Y838095D01*
X304800Y838190D01*
D02*
G37*
G36*
X297180D02*
X296825Y838095D01*
X294365Y836674D01*
X292356Y834665D01*
X290935Y832205D01*
X290840Y831850D01*
X297180D01*
Y838190D01*
D02*
G37*
G36*
X472440Y889000D02*
X403860D01*
Y826770D01*
X472440D01*
Y889000D01*
D02*
G37*
G36*
X276877Y837814D02*
X274303D01*
X271817Y837148D01*
X269589Y835861D01*
X267769Y834041D01*
X266482Y831813D01*
X265816Y829327D01*
Y826753D01*
X266482Y824267D01*
X267769Y822039D01*
X269589Y820219D01*
X271817Y818932D01*
X274303Y818266D01*
X276877D01*
X279363Y818932D01*
X281591Y820219D01*
X283411Y822039D01*
X284698Y824267D01*
X285364Y826753D01*
Y829327D01*
X284698Y831813D01*
X283411Y834041D01*
X281591Y835861D01*
X279363Y837148D01*
X276877Y837814D01*
D02*
G37*
G36*
X311140Y824230D02*
X304800D01*
Y817890D01*
X305155Y817985D01*
X307615Y819406D01*
X309624Y821415D01*
X311045Y823875D01*
X311140Y824230D01*
D02*
G37*
G36*
X297180D02*
X290840D01*
X290935Y823875D01*
X292356Y821415D01*
X294365Y819406D01*
X296825Y817985D01*
X297180Y817890D01*
Y824230D01*
D02*
G37*
G36*
X304800Y812790D02*
Y806450D01*
X311140D01*
X311045Y806805D01*
X309624Y809265D01*
X307615Y811274D01*
X305155Y812695D01*
X304800Y812790D01*
D02*
G37*
G36*
X297180D02*
X296825Y812695D01*
X294365Y811274D01*
X292356Y809265D01*
X290935Y806805D01*
X290840Y806450D01*
X297180D01*
Y812790D01*
D02*
G37*
G36*
X285364Y812414D02*
X265816D01*
Y792866D01*
X285364D01*
Y812414D01*
D02*
G37*
G36*
X311140Y798830D02*
X304800D01*
Y792490D01*
X305155Y792585D01*
X307615Y794006D01*
X309624Y796015D01*
X311045Y798475D01*
X311140Y798830D01*
D02*
G37*
G36*
X297180D02*
X290840D01*
X290935Y798475D01*
X292356Y796015D01*
X294365Y794006D01*
X296825Y792585D01*
X297180Y792490D01*
Y798830D01*
D02*
G37*
G36*
X1097981Y774414D02*
X1096579D01*
X1095284Y773877D01*
X1094293Y772886D01*
X1093756Y771591D01*
Y770189D01*
X1094293Y768894D01*
X1095284Y767903D01*
X1096579Y767366D01*
X1097981D01*
X1099276Y767903D01*
X1100267Y768894D01*
X1100804Y770189D01*
Y771591D01*
X1100267Y772886D01*
X1099276Y773877D01*
X1097981Y774414D01*
D02*
G37*
G36*
X1035751D02*
X1034349D01*
X1033054Y773877D01*
X1032063Y772886D01*
X1031526Y771591D01*
Y770189D01*
X1032063Y768894D01*
X1033054Y767903D01*
X1034349Y767366D01*
X1035751D01*
X1037046Y767903D01*
X1038037Y768894D01*
X1038574Y770189D01*
Y771591D01*
X1038037Y772886D01*
X1037046Y773877D01*
X1035751Y774414D01*
D02*
G37*
G36*
X973521D02*
X972119D01*
X970824Y773877D01*
X969833Y772886D01*
X969296Y771591D01*
Y770189D01*
X969833Y768894D01*
X970824Y767903D01*
X972119Y767366D01*
X973521D01*
X974816Y767903D01*
X975807Y768894D01*
X976344Y770189D01*
Y771591D01*
X975807Y772886D01*
X974816Y773877D01*
X973521Y774414D01*
D02*
G37*
G36*
X911291D02*
X909889D01*
X908594Y773877D01*
X907602Y772886D01*
X907066Y771591D01*
Y770189D01*
X907602Y768894D01*
X908594Y767903D01*
X909889Y767366D01*
X911291D01*
X912586Y767903D01*
X913577Y768894D01*
X914114Y770189D01*
Y771591D01*
X913577Y772886D01*
X912586Y773877D01*
X911291Y774414D01*
D02*
G37*
G36*
X849061D02*
X847659D01*
X846364Y773877D01*
X845372Y772886D01*
X844836Y771591D01*
Y770189D01*
X845372Y768894D01*
X846364Y767903D01*
X847659Y767366D01*
X849061D01*
X850356Y767903D01*
X851348Y768894D01*
X851884Y770189D01*
Y771591D01*
X851348Y772886D01*
X850356Y773877D01*
X849061Y774414D01*
D02*
G37*
G36*
X304800Y755640D02*
Y749300D01*
X311140D01*
X311045Y749655D01*
X309624Y752115D01*
X307615Y754124D01*
X305155Y755545D01*
X304800Y755640D01*
D02*
G37*
G36*
X279400D02*
Y749300D01*
X285740D01*
X285645Y749655D01*
X284224Y752115D01*
X282215Y754124D01*
X279755Y755545D01*
X279400Y755640D01*
D02*
G37*
G36*
X297180D02*
X296825Y755545D01*
X294365Y754124D01*
X292356Y752115D01*
X290935Y749655D01*
X290840Y749300D01*
X297180D01*
Y755640D01*
D02*
G37*
G36*
X271780D02*
X271425Y755545D01*
X268965Y754124D01*
X266956Y752115D01*
X265535Y749655D01*
X265440Y749300D01*
X271780D01*
Y755640D01*
D02*
G37*
G36*
X311140Y741680D02*
X304800D01*
Y735340D01*
X305155Y735435D01*
X307615Y736856D01*
X309624Y738865D01*
X311045Y741325D01*
X311140Y741680D01*
D02*
G37*
G36*
X285740D02*
X279400D01*
Y735340D01*
X279755Y735435D01*
X282215Y736856D01*
X284224Y738865D01*
X285645Y741325D01*
X285740Y741680D01*
D02*
G37*
G36*
X297180D02*
X290840D01*
X290935Y741325D01*
X292356Y738865D01*
X294365Y736856D01*
X296825Y735435D01*
X297180Y735340D01*
Y741680D01*
D02*
G37*
G36*
X271780D02*
X265440D01*
X265535Y741325D01*
X266956Y738865D01*
X268965Y736856D01*
X271425Y735435D01*
X271780Y735340D01*
Y741680D01*
D02*
G37*
G36*
X1062690Y739681D02*
Y734060D01*
X1068311D01*
X1068108Y734816D01*
X1066984Y736764D01*
X1065394Y738354D01*
X1063446Y739478D01*
X1062690Y739681D01*
D02*
G37*
G36*
X719120Y739681D02*
Y734060D01*
X724741D01*
X724538Y734816D01*
X723414Y736764D01*
X721824Y738354D01*
X719876Y739478D01*
X719120Y739681D01*
D02*
G37*
G36*
X714040Y739681D02*
X713284Y739478D01*
X711336Y738354D01*
X709746Y736764D01*
X708622Y734816D01*
X708419Y734060D01*
X714040D01*
Y739681D01*
D02*
G37*
G36*
X1057610Y739681D02*
X1056854Y739478D01*
X1054906Y738354D01*
X1053316Y736764D01*
X1052192Y734816D01*
X1051989Y734060D01*
X1057610D01*
Y739681D01*
D02*
G37*
G36*
X1124820Y739681D02*
Y734060D01*
X1130441D01*
X1130238Y734816D01*
X1129114Y736764D01*
X1127524Y738354D01*
X1125576Y739478D01*
X1124820Y739681D01*
D02*
G37*
G36*
X876300D02*
Y734060D01*
X881921D01*
X881718Y734816D01*
X880594Y736764D01*
X879004Y738354D01*
X877056Y739478D01*
X876300Y739681D01*
D02*
G37*
G36*
X781450D02*
Y734060D01*
X787071D01*
X786868Y734816D01*
X785744Y736764D01*
X784154Y738354D01*
X782206Y739478D01*
X781450Y739681D01*
D02*
G37*
G36*
X656790D02*
Y734060D01*
X662411D01*
X662208Y734816D01*
X661084Y736764D01*
X659494Y738354D01*
X657546Y739478D01*
X656790Y739681D01*
D02*
G37*
G36*
X532130D02*
Y734060D01*
X537751D01*
X537548Y734816D01*
X536424Y736764D01*
X534834Y738354D01*
X532886Y739478D01*
X532130Y739681D01*
D02*
G37*
G36*
X776370Y739681D02*
X775614Y739478D01*
X773666Y738354D01*
X772076Y736764D01*
X770952Y734816D01*
X770749Y734060D01*
X776370D01*
Y739681D01*
D02*
G37*
G36*
X651710D02*
X650954Y739478D01*
X649006Y738354D01*
X647416Y736764D01*
X646292Y734816D01*
X646089Y734060D01*
X651710D01*
Y739681D01*
D02*
G37*
G36*
X527050D02*
X526294Y739478D01*
X524346Y738354D01*
X522756Y736764D01*
X521632Y734816D01*
X521429Y734060D01*
X527050D01*
Y739681D01*
D02*
G37*
G36*
X1119740D02*
X1118984Y739478D01*
X1117036Y738354D01*
X1115446Y736764D01*
X1114322Y734816D01*
X1114119Y734060D01*
X1119740D01*
Y739681D01*
D02*
G37*
G36*
X871220D02*
X870464Y739478D01*
X868516Y738354D01*
X866926Y736764D01*
X865802Y734816D01*
X865599Y734060D01*
X871220D01*
Y739681D01*
D02*
G37*
G36*
X938430D02*
Y734060D01*
X944051D01*
X943848Y734816D01*
X942724Y736764D01*
X941134Y738354D01*
X939186Y739478D01*
X938430Y739681D01*
D02*
G37*
G36*
X594460Y739681D02*
Y734060D01*
X600081D01*
X599878Y734816D01*
X598754Y736764D01*
X597164Y738354D01*
X595216Y739478D01*
X594460Y739681D01*
D02*
G37*
G36*
X589380Y739681D02*
X588624Y739478D01*
X586676Y738354D01*
X585086Y736764D01*
X583962Y734816D01*
X583759Y734060D01*
X589380D01*
Y739681D01*
D02*
G37*
G36*
X933350Y739681D02*
X932594Y739478D01*
X930646Y738354D01*
X929056Y736764D01*
X927932Y734816D01*
X927729Y734060D01*
X933350D01*
Y739681D01*
D02*
G37*
G36*
X1000560Y739681D02*
Y734060D01*
X1006181D01*
X1005978Y734816D01*
X1004854Y736764D01*
X1003264Y738354D01*
X1001316Y739478D01*
X1000560Y739681D01*
D02*
G37*
G36*
X995480Y739681D02*
X994724Y739478D01*
X992776Y738354D01*
X991186Y736764D01*
X990062Y734816D01*
X989859Y734060D01*
X995480D01*
Y739681D01*
D02*
G37*
G36*
X1098270Y739044D02*
X1096290D01*
X1094376Y738531D01*
X1092660Y737541D01*
X1091259Y736140D01*
X1090269Y734424D01*
X1089756Y732511D01*
Y730529D01*
X1090269Y728616D01*
X1091259Y726900D01*
X1092660Y725499D01*
X1094376Y724509D01*
X1096290Y723996D01*
X1098270D01*
X1100184Y724509D01*
X1101900Y725499D01*
X1103301Y726900D01*
X1104291Y728616D01*
X1104804Y730529D01*
Y732511D01*
X1104291Y734424D01*
X1103301Y736140D01*
X1101900Y737541D01*
X1100184Y738531D01*
X1098270Y739044D01*
D02*
G37*
G36*
X1036141D02*
X1034159D01*
X1032246Y738531D01*
X1030530Y737541D01*
X1029129Y736140D01*
X1028139Y734424D01*
X1027626Y732511D01*
Y730529D01*
X1028139Y728616D01*
X1029129Y726900D01*
X1030530Y725499D01*
X1032246Y724509D01*
X1034159Y723996D01*
X1036141D01*
X1038054Y724509D01*
X1039770Y725499D01*
X1041171Y726900D01*
X1042161Y728616D01*
X1042674Y730529D01*
Y732511D01*
X1042161Y734424D01*
X1041171Y736140D01*
X1039770Y737541D01*
X1038054Y738531D01*
X1036141Y739044D01*
D02*
G37*
G36*
X974010D02*
X972029D01*
X970116Y738531D01*
X968400Y737541D01*
X966999Y736140D01*
X966009Y734424D01*
X965496Y732511D01*
Y730529D01*
X966009Y728616D01*
X966999Y726900D01*
X968400Y725499D01*
X970116Y724509D01*
X972029Y723996D01*
X974010D01*
X975924Y724509D01*
X977640Y725499D01*
X979041Y726900D01*
X980031Y728616D01*
X980544Y730529D01*
Y732511D01*
X980031Y734424D01*
X979041Y736140D01*
X977640Y737541D01*
X975924Y738531D01*
X974010Y739044D01*
D02*
G37*
G36*
X911880D02*
X909900D01*
X907986Y738531D01*
X906270Y737541D01*
X904869Y736140D01*
X903879Y734424D01*
X903366Y732511D01*
Y730529D01*
X903879Y728616D01*
X904869Y726900D01*
X906270Y725499D01*
X907986Y724509D01*
X909900Y723996D01*
X911880D01*
X913794Y724509D01*
X915510Y725499D01*
X916911Y726900D01*
X917901Y728616D01*
X918414Y730529D01*
Y732511D01*
X917901Y734424D01*
X916911Y736140D01*
X915510Y737541D01*
X913794Y738531D01*
X911880Y739044D01*
D02*
G37*
G36*
X849751D02*
X847769D01*
X845856Y738531D01*
X844140Y737541D01*
X842739Y736140D01*
X841749Y734424D01*
X841236Y732511D01*
Y730529D01*
X841749Y728616D01*
X842739Y726900D01*
X844140Y725499D01*
X845856Y724509D01*
X847769Y723996D01*
X849751D01*
X851664Y724509D01*
X853380Y725499D01*
X854781Y726900D01*
X855771Y728616D01*
X856284Y730529D01*
Y732511D01*
X855771Y734424D01*
X854781Y736140D01*
X853380Y737541D01*
X851664Y738531D01*
X849751Y739044D01*
D02*
G37*
G36*
X811434D02*
X796386D01*
Y723996D01*
X811434D01*
Y739044D01*
D02*
G37*
G36*
X749104D02*
X734056D01*
Y723996D01*
X749104D01*
Y739044D01*
D02*
G37*
G36*
X686774D02*
X671726D01*
Y723996D01*
X686774D01*
Y739044D01*
D02*
G37*
G36*
X624444D02*
X609396D01*
Y723996D01*
X624444D01*
Y739044D01*
D02*
G37*
G36*
X562114D02*
X547066D01*
Y723996D01*
X562114D01*
Y739044D01*
D02*
G37*
G36*
X304800Y730240D02*
Y723900D01*
X311140D01*
X311045Y724255D01*
X309624Y726715D01*
X307615Y728724D01*
X305155Y730145D01*
X304800Y730240D01*
D02*
G37*
G36*
X279400D02*
Y723900D01*
X285740D01*
X285645Y724255D01*
X284224Y726715D01*
X282215Y728724D01*
X279755Y730145D01*
X279400Y730240D01*
D02*
G37*
G36*
X297180D02*
X296825Y730145D01*
X294365Y728724D01*
X292356Y726715D01*
X290935Y724255D01*
X290840Y723900D01*
X297180D01*
Y730240D01*
D02*
G37*
G36*
X271780D02*
X271425Y730145D01*
X268965Y728724D01*
X266956Y726715D01*
X265535Y724255D01*
X265440Y723900D01*
X271780D01*
Y730240D01*
D02*
G37*
G36*
X1006181Y728980D02*
X1000560D01*
Y723359D01*
X1001316Y723562D01*
X1003264Y724686D01*
X1004854Y726276D01*
X1005978Y728224D01*
X1006181Y728980D01*
D02*
G37*
G36*
X944051Y728980D02*
X938430D01*
Y723359D01*
X939186Y723562D01*
X941134Y724686D01*
X942724Y726276D01*
X943848Y728224D01*
X944051Y728980D01*
D02*
G37*
G36*
X724741Y728980D02*
X719120D01*
Y723359D01*
X719876Y723562D01*
X721824Y724686D01*
X723414Y726276D01*
X724538Y728224D01*
X724741Y728980D01*
D02*
G37*
G36*
X589380Y728980D02*
X583759D01*
X583962Y728224D01*
X585086Y726276D01*
X586676Y724686D01*
X588624Y723562D01*
X589380Y723359D01*
Y728980D01*
D02*
G37*
G36*
X1057610Y728980D02*
X1051989D01*
X1052192Y728224D01*
X1053316Y726276D01*
X1054906Y724686D01*
X1056854Y723562D01*
X1057610Y723359D01*
Y728980D01*
D02*
G37*
G36*
X1130441Y728980D02*
X1124820D01*
Y723359D01*
X1125576Y723562D01*
X1127524Y724686D01*
X1129114Y726276D01*
X1130238Y728224D01*
X1130441Y728980D01*
D02*
G37*
G36*
X881921D02*
X876300D01*
Y723359D01*
X877056Y723562D01*
X879004Y724686D01*
X880594Y726276D01*
X881718Y728224D01*
X881921Y728980D01*
D02*
G37*
G36*
X787071D02*
X781450D01*
Y723359D01*
X782206Y723562D01*
X784154Y724686D01*
X785744Y726276D01*
X786868Y728224D01*
X787071Y728980D01*
D02*
G37*
G36*
X662411D02*
X656790D01*
Y723359D01*
X657546Y723562D01*
X659494Y724686D01*
X661084Y726276D01*
X662208Y728224D01*
X662411Y728980D01*
D02*
G37*
G36*
X537751D02*
X532130D01*
Y723359D01*
X532886Y723562D01*
X534834Y724686D01*
X536424Y726276D01*
X537548Y728224D01*
X537751Y728980D01*
D02*
G37*
G36*
X776370D02*
X770749D01*
X770952Y728224D01*
X772076Y726276D01*
X773666Y724686D01*
X775614Y723562D01*
X776370Y723359D01*
Y728980D01*
D02*
G37*
G36*
X651710D02*
X646089D01*
X646292Y728224D01*
X647416Y726276D01*
X649006Y724686D01*
X650954Y723562D01*
X651710Y723359D01*
Y728980D01*
D02*
G37*
G36*
X527050D02*
X521429D01*
X521632Y728224D01*
X522756Y726276D01*
X524346Y724686D01*
X526294Y723562D01*
X527050Y723359D01*
Y728980D01*
D02*
G37*
G36*
X1119740D02*
X1114119D01*
X1114322Y728224D01*
X1115446Y726276D01*
X1117036Y724686D01*
X1118984Y723562D01*
X1119740Y723359D01*
Y728980D01*
D02*
G37*
G36*
X871220D02*
X865599D01*
X865802Y728224D01*
X866926Y726276D01*
X868516Y724686D01*
X870464Y723562D01*
X871220Y723359D01*
Y728980D01*
D02*
G37*
G36*
X1068311Y728980D02*
X1062690D01*
Y723359D01*
X1063446Y723562D01*
X1065394Y724686D01*
X1066984Y726276D01*
X1068108Y728224D01*
X1068311Y728980D01*
D02*
G37*
G36*
X600081Y728980D02*
X594460D01*
Y723359D01*
X595216Y723562D01*
X597164Y724686D01*
X598754Y726276D01*
X599878Y728224D01*
X600081Y728980D01*
D02*
G37*
G36*
X714040Y728980D02*
X708419D01*
X708622Y728224D01*
X709746Y726276D01*
X711336Y724686D01*
X713284Y723562D01*
X714040Y723359D01*
Y728980D01*
D02*
G37*
G36*
X933350Y728980D02*
X927729D01*
X927932Y728224D01*
X929056Y726276D01*
X930646Y724686D01*
X932594Y723562D01*
X933350Y723359D01*
Y728980D01*
D02*
G37*
G36*
X995480Y728980D02*
X989859D01*
X990062Y728224D01*
X991186Y726276D01*
X992776Y724686D01*
X994724Y723562D01*
X995480Y723359D01*
Y728980D01*
D02*
G37*
G36*
X311140Y716280D02*
X304800D01*
Y709940D01*
X305155Y710035D01*
X307615Y711456D01*
X309624Y713465D01*
X311045Y715925D01*
X311140Y716280D01*
D02*
G37*
G36*
X285740D02*
X279400D01*
Y709940D01*
X279755Y710035D01*
X282215Y711456D01*
X284224Y713465D01*
X285645Y715925D01*
X285740Y716280D01*
D02*
G37*
G36*
X297180D02*
X290840D01*
X290935Y715925D01*
X292356Y713465D01*
X294365Y711456D01*
X296825Y710035D01*
X297180Y709940D01*
Y716280D01*
D02*
G37*
G36*
X271780D02*
X265440D01*
X265535Y715925D01*
X266956Y713465D01*
X268965Y711456D01*
X271425Y710035D01*
X271780Y709940D01*
Y716280D01*
D02*
G37*
G36*
X302277Y704464D02*
X299703D01*
X297217Y703798D01*
X294989Y702511D01*
X293169Y700691D01*
X291882Y698463D01*
X291216Y695977D01*
Y693403D01*
X291882Y690917D01*
X293169Y688689D01*
X294989Y686869D01*
X297217Y685582D01*
X299703Y684916D01*
X302277D01*
X304763Y685582D01*
X306991Y686869D01*
X308811Y688689D01*
X310098Y690917D01*
X310764Y693403D01*
Y695977D01*
X310098Y698463D01*
X308811Y700691D01*
X306991Y702511D01*
X304763Y703798D01*
X302277Y704464D01*
D02*
G37*
G36*
X276877D02*
X274303D01*
X271817Y703798D01*
X269589Y702511D01*
X267769Y700691D01*
X266482Y698463D01*
X265816Y695977D01*
Y693403D01*
X266482Y690917D01*
X267769Y688689D01*
X269589Y686869D01*
X271817Y685582D01*
X274303Y684916D01*
X276877D01*
X279363Y685582D01*
X281591Y686869D01*
X283411Y688689D01*
X284698Y690917D01*
X285364Y693403D01*
Y695977D01*
X284698Y698463D01*
X283411Y700691D01*
X281591Y702511D01*
X279363Y703798D01*
X276877Y704464D01*
D02*
G37*
G36*
X302277Y679064D02*
X299703D01*
X297217Y678398D01*
X294989Y677111D01*
X293169Y675291D01*
X291882Y673063D01*
X291216Y670577D01*
Y668003D01*
X291882Y665517D01*
X293169Y663289D01*
X294989Y661469D01*
X297217Y660182D01*
X299703Y659516D01*
X302277D01*
X304763Y660182D01*
X306991Y661469D01*
X308811Y663289D01*
X310098Y665517D01*
X310764Y668003D01*
Y670577D01*
X310098Y673063D01*
X308811Y675291D01*
X306991Y677111D01*
X304763Y678398D01*
X302277Y679064D01*
D02*
G37*
G36*
X285364D02*
X265816D01*
Y659516D01*
X285364D01*
Y679064D01*
D02*
G37*
G36*
X1123271Y662844D02*
X1121290D01*
X1119376Y662331D01*
X1117660Y661341D01*
X1116259Y659940D01*
X1115269Y658224D01*
X1114756Y656311D01*
Y654330D01*
X1115269Y652416D01*
X1116259Y650700D01*
X1117660Y649299D01*
X1119376Y648309D01*
X1121290Y647796D01*
X1123271D01*
X1125184Y648309D01*
X1126900Y649299D01*
X1128301Y650700D01*
X1129291Y652416D01*
X1129804Y654330D01*
Y656311D01*
X1129291Y658224D01*
X1128301Y659940D01*
X1126900Y661341D01*
X1125184Y662331D01*
X1123271Y662844D01*
D02*
G37*
G36*
X1104804D02*
X1089756D01*
Y647796D01*
X1104804D01*
Y662844D01*
D02*
G37*
G36*
X1061141D02*
X1059159D01*
X1057246Y662331D01*
X1055530Y661341D01*
X1054129Y659940D01*
X1053139Y658224D01*
X1052626Y656311D01*
Y654330D01*
X1053139Y652416D01*
X1054129Y650700D01*
X1055530Y649299D01*
X1057246Y648309D01*
X1059159Y647796D01*
X1061141D01*
X1063054Y648309D01*
X1064770Y649299D01*
X1066171Y650700D01*
X1067161Y652416D01*
X1067674Y654330D01*
Y656311D01*
X1067161Y658224D01*
X1066171Y659940D01*
X1064770Y661341D01*
X1063054Y662331D01*
X1061141Y662844D01*
D02*
G37*
G36*
X1042674D02*
X1027626D01*
Y647796D01*
X1042674D01*
Y662844D01*
D02*
G37*
G36*
X999010D02*
X997029D01*
X995116Y662331D01*
X993400Y661341D01*
X991999Y659940D01*
X991009Y658224D01*
X990496Y656311D01*
Y654330D01*
X991009Y652416D01*
X991999Y650700D01*
X993400Y649299D01*
X995116Y648309D01*
X997029Y647796D01*
X999010D01*
X1000924Y648309D01*
X1002640Y649299D01*
X1004041Y650700D01*
X1005031Y652416D01*
X1005544Y654330D01*
Y656311D01*
X1005031Y658224D01*
X1004041Y659940D01*
X1002640Y661341D01*
X1000924Y662331D01*
X999010Y662844D01*
D02*
G37*
G36*
X980544D02*
X965496D01*
Y647796D01*
X980544D01*
Y662844D01*
D02*
G37*
G36*
X936880D02*
X934900D01*
X932986Y662331D01*
X931270Y661341D01*
X929869Y659940D01*
X928879Y658224D01*
X928366Y656311D01*
Y654330D01*
X928879Y652416D01*
X929869Y650700D01*
X931270Y649299D01*
X932986Y648309D01*
X934900Y647796D01*
X936880D01*
X938794Y648309D01*
X940510Y649299D01*
X941911Y650700D01*
X942901Y652416D01*
X943414Y654330D01*
Y656311D01*
X942901Y658224D01*
X941911Y659940D01*
X940510Y661341D01*
X938794Y662331D01*
X936880Y662844D01*
D02*
G37*
G36*
X918414D02*
X903366D01*
Y647796D01*
X918414D01*
Y662844D01*
D02*
G37*
G36*
X874751D02*
X872769D01*
X870856Y662331D01*
X869140Y661341D01*
X867739Y659940D01*
X866749Y658224D01*
X866236Y656311D01*
Y654330D01*
X866749Y652416D01*
X867739Y650700D01*
X869140Y649299D01*
X870856Y648309D01*
X872769Y647796D01*
X874751D01*
X876664Y648309D01*
X878380Y649299D01*
X879781Y650700D01*
X880771Y652416D01*
X881284Y654330D01*
Y656311D01*
X880771Y658224D01*
X879781Y659940D01*
X878380Y661341D01*
X876664Y662331D01*
X874751Y662844D01*
D02*
G37*
G36*
X856284D02*
X841236D01*
Y647796D01*
X856284D01*
Y662844D01*
D02*
G37*
G36*
X804901D02*
X802919D01*
X801006Y662331D01*
X799290Y661341D01*
X797889Y659940D01*
X796899Y658224D01*
X796386Y656311D01*
Y654330D01*
X796899Y652416D01*
X797889Y650700D01*
X799290Y649299D01*
X801006Y648309D01*
X802919Y647796D01*
X804901D01*
X806814Y648309D01*
X808530Y649299D01*
X809931Y650700D01*
X810921Y652416D01*
X811434Y654330D01*
Y656311D01*
X810921Y658224D01*
X809931Y659940D01*
X808530Y661341D01*
X806814Y662331D01*
X804901Y662844D01*
D02*
G37*
G36*
X779901D02*
X777919D01*
X776006Y662331D01*
X774290Y661341D01*
X772889Y659940D01*
X771899Y658224D01*
X771386Y656311D01*
Y654330D01*
X771899Y652416D01*
X772889Y650700D01*
X774290Y649299D01*
X776006Y648309D01*
X777919Y647796D01*
X779901D01*
X781814Y648309D01*
X783530Y649299D01*
X784931Y650700D01*
X785921Y652416D01*
X786434Y654330D01*
Y656311D01*
X785921Y658224D01*
X784931Y659940D01*
X783530Y661341D01*
X781814Y662331D01*
X779901Y662844D01*
D02*
G37*
G36*
X742570D02*
X740590D01*
X738676Y662331D01*
X736960Y661341D01*
X735559Y659940D01*
X734569Y658224D01*
X734056Y656311D01*
Y654330D01*
X734569Y652416D01*
X735559Y650700D01*
X736960Y649299D01*
X738676Y648309D01*
X740590Y647796D01*
X742570D01*
X744484Y648309D01*
X746200Y649299D01*
X747601Y650700D01*
X748591Y652416D01*
X749104Y654330D01*
Y656311D01*
X748591Y658224D01*
X747601Y659940D01*
X746200Y661341D01*
X744484Y662331D01*
X742570Y662844D01*
D02*
G37*
G36*
X717570D02*
X715590D01*
X713676Y662331D01*
X711960Y661341D01*
X710559Y659940D01*
X709569Y658224D01*
X709056Y656311D01*
Y654330D01*
X709569Y652416D01*
X710559Y650700D01*
X711960Y649299D01*
X713676Y648309D01*
X715590Y647796D01*
X717570D01*
X719484Y648309D01*
X721200Y649299D01*
X722601Y650700D01*
X723591Y652416D01*
X724104Y654330D01*
Y656311D01*
X723591Y658224D01*
X722601Y659940D01*
X721200Y661341D01*
X719484Y662331D01*
X717570Y662844D01*
D02*
G37*
G36*
X680240D02*
X678260D01*
X676346Y662331D01*
X674630Y661341D01*
X673229Y659940D01*
X672239Y658224D01*
X671726Y656311D01*
Y654330D01*
X672239Y652416D01*
X673229Y650700D01*
X674630Y649299D01*
X676346Y648309D01*
X678260Y647796D01*
X680240D01*
X682154Y648309D01*
X683870Y649299D01*
X685271Y650700D01*
X686261Y652416D01*
X686774Y654330D01*
Y656311D01*
X686261Y658224D01*
X685271Y659940D01*
X683870Y661341D01*
X682154Y662331D01*
X680240Y662844D01*
D02*
G37*
G36*
X655240D02*
X653260D01*
X651346Y662331D01*
X649630Y661341D01*
X648229Y659940D01*
X647239Y658224D01*
X646726Y656311D01*
Y654330D01*
X647239Y652416D01*
X648229Y650700D01*
X649630Y649299D01*
X651346Y648309D01*
X653260Y647796D01*
X655240D01*
X657154Y648309D01*
X658870Y649299D01*
X660271Y650700D01*
X661261Y652416D01*
X661774Y654330D01*
Y656311D01*
X661261Y658224D01*
X660271Y659940D01*
X658870Y661341D01*
X657154Y662331D01*
X655240Y662844D01*
D02*
G37*
G36*
X617910D02*
X615929D01*
X614016Y662331D01*
X612300Y661341D01*
X610899Y659940D01*
X609909Y658224D01*
X609396Y656311D01*
Y654330D01*
X609909Y652416D01*
X610899Y650700D01*
X612300Y649299D01*
X614016Y648309D01*
X615929Y647796D01*
X617910D01*
X619824Y648309D01*
X621540Y649299D01*
X622941Y650700D01*
X623931Y652416D01*
X624444Y654330D01*
Y656311D01*
X623931Y658224D01*
X622941Y659940D01*
X621540Y661341D01*
X619824Y662331D01*
X617910Y662844D01*
D02*
G37*
G36*
X592910D02*
X590929D01*
X589016Y662331D01*
X587300Y661341D01*
X585899Y659940D01*
X584909Y658224D01*
X584396Y656311D01*
Y654330D01*
X584909Y652416D01*
X585899Y650700D01*
X587300Y649299D01*
X589016Y648309D01*
X590929Y647796D01*
X592910D01*
X594824Y648309D01*
X596540Y649299D01*
X597941Y650700D01*
X598931Y652416D01*
X599444Y654330D01*
Y656311D01*
X598931Y658224D01*
X597941Y659940D01*
X596540Y661341D01*
X594824Y662331D01*
X592910Y662844D01*
D02*
G37*
G36*
X555580D02*
X553600D01*
X551686Y662331D01*
X549970Y661341D01*
X548569Y659940D01*
X547579Y658224D01*
X547066Y656311D01*
Y654330D01*
X547579Y652416D01*
X548569Y650700D01*
X549970Y649299D01*
X551686Y648309D01*
X553600Y647796D01*
X555580D01*
X557494Y648309D01*
X559210Y649299D01*
X560611Y650700D01*
X561601Y652416D01*
X562114Y654330D01*
Y656311D01*
X561601Y658224D01*
X560611Y659940D01*
X559210Y661341D01*
X557494Y662331D01*
X555580Y662844D01*
D02*
G37*
G36*
X530580D02*
X528600D01*
X526686Y662331D01*
X524970Y661341D01*
X523569Y659940D01*
X522579Y658224D01*
X522066Y656311D01*
Y654330D01*
X522579Y652416D01*
X523569Y650700D01*
X524970Y649299D01*
X526686Y648309D01*
X528600Y647796D01*
X530580D01*
X532494Y648309D01*
X534210Y649299D01*
X535611Y650700D01*
X536601Y652416D01*
X537114Y654330D01*
Y656311D01*
X536601Y658224D01*
X535611Y659940D01*
X534210Y661341D01*
X532494Y662331D01*
X530580Y662844D01*
D02*
G37*
G36*
X313764Y623244D02*
X288216D01*
Y597696D01*
X313764D01*
Y623244D01*
D02*
G37*
G36*
X443230Y1032560D02*
X383540D01*
X382549Y1032363D01*
X381709Y1031801D01*
X379169Y1029261D01*
X378607Y1028421D01*
X378410Y1027430D01*
Y1019810D01*
X378607Y1018819D01*
X379169Y1017979D01*
X381709Y1015439D01*
X382549Y1014877D01*
X383540Y1014680D01*
X434537D01*
X491440Y957777D01*
Y598170D01*
X491637Y597179D01*
X492199Y596339D01*
X496009Y592529D01*
X496849Y591967D01*
X497840Y591770D01*
X505460D01*
X506451Y591967D01*
X507291Y592529D01*
X511101Y596339D01*
X511663Y597179D01*
X511860Y598170D01*
Y963930D01*
X511663Y964921D01*
X511101Y965761D01*
X445061Y1031801D01*
X444221Y1032363D01*
X443230Y1032560D01*
D02*
G37*
G36*
X347411Y573754D02*
X346009D01*
X344714Y573218D01*
X343722Y572226D01*
X343587Y571900D01*
X342213D01*
X342077Y572226D01*
X341086Y573218D01*
X339791Y573754D01*
X338389D01*
X337094Y573218D01*
X336102Y572226D01*
X335967Y571900D01*
X334593D01*
X334458Y572226D01*
X333466Y573218D01*
X332171Y573754D01*
X330769D01*
X329474Y573218D01*
X328483Y572226D01*
X327946Y570931D01*
Y569529D01*
X328483Y568234D01*
X328832Y567885D01*
X329355Y567055D01*
X328832Y566225D01*
X328483Y565876D01*
X327946Y564581D01*
Y563179D01*
X328483Y561884D01*
X328832Y561535D01*
X329355Y560705D01*
X328832Y559875D01*
X328483Y559526D01*
X327946Y558231D01*
Y556829D01*
X328483Y555534D01*
X329474Y554543D01*
X330769Y554006D01*
X332171D01*
X333466Y554543D01*
X334458Y555534D01*
X334593Y555860D01*
X335967D01*
X336102Y555534D01*
X337094Y554543D01*
X338389Y554006D01*
X339791D01*
X341086Y554543D01*
X342077Y555534D01*
X342213Y555860D01*
X343587D01*
X343722Y555534D01*
X344714Y554543D01*
X346009Y554006D01*
X347411D01*
X348706Y554543D01*
X349697Y555534D01*
X350234Y556829D01*
Y558231D01*
X349697Y559526D01*
X349348Y559875D01*
X348825Y560705D01*
X349348Y561535D01*
X349697Y561884D01*
X350234Y563179D01*
Y564581D01*
X349697Y565876D01*
X349348Y566225D01*
X348825Y567055D01*
X349348Y567885D01*
X349697Y568234D01*
X350234Y569529D01*
Y570931D01*
X349697Y572226D01*
X348706Y573218D01*
X347411Y573754D01*
D02*
G37*
G36*
X303530Y574066D02*
Y563010D01*
X314586D01*
X313840Y565793D01*
X312025Y568937D01*
X309457Y571505D01*
X306313Y573320D01*
X303530Y574066D01*
D02*
G37*
G36*
X298450D02*
X295667Y573320D01*
X292523Y571505D01*
X289955Y568937D01*
X288140Y565793D01*
X287394Y563010D01*
X298450D01*
Y574066D01*
D02*
G37*
G36*
X1122894Y573884D02*
X1119926D01*
X1117058Y573116D01*
X1114488Y571631D01*
X1112389Y569532D01*
X1110904Y566962D01*
X1110136Y564094D01*
Y561126D01*
X1110904Y558258D01*
X1112389Y555688D01*
X1114488Y553589D01*
X1117058Y552104D01*
X1119926Y551336D01*
X1122894D01*
X1125762Y552104D01*
X1128332Y553589D01*
X1130431Y555688D01*
X1131916Y558258D01*
X1132684Y561126D01*
Y564094D01*
X1131916Y566962D01*
X1130431Y569532D01*
X1128332Y571631D01*
X1125762Y573116D01*
X1122894Y573884D01*
D02*
G37*
G36*
X1107284D02*
X1084736D01*
Y551336D01*
X1107284D01*
Y573884D01*
D02*
G37*
G36*
X1060982D02*
X1058013D01*
X1055146Y573116D01*
X1052575Y571631D01*
X1050476Y569532D01*
X1048992Y566962D01*
X1048223Y564094D01*
Y561126D01*
X1048992Y558258D01*
X1050476Y555688D01*
X1052575Y553589D01*
X1055146Y552104D01*
X1058013Y551336D01*
X1060982D01*
X1063849Y552104D01*
X1066420Y553589D01*
X1068519Y555688D01*
X1070003Y558258D01*
X1070771Y561126D01*
Y564094D01*
X1070003Y566962D01*
X1068519Y569532D01*
X1066420Y571631D01*
X1063849Y573116D01*
X1060982Y573884D01*
D02*
G37*
G36*
X1045371D02*
X1022823D01*
Y551336D01*
X1045371D01*
Y573884D01*
D02*
G37*
G36*
X999069D02*
X996101D01*
X993233Y573116D01*
X990663Y571631D01*
X988564Y569532D01*
X987079Y566962D01*
X986311Y564094D01*
Y561126D01*
X987079Y558258D01*
X988564Y555688D01*
X990663Y553589D01*
X993233Y552104D01*
X996101Y551336D01*
X999069D01*
X1001937Y552104D01*
X1004507Y553589D01*
X1006606Y555688D01*
X1008091Y558258D01*
X1008859Y561126D01*
Y564094D01*
X1008091Y566962D01*
X1006606Y569532D01*
X1004507Y571631D01*
X1001937Y573116D01*
X999069Y573884D01*
D02*
G37*
G36*
X983459D02*
X960911D01*
Y551336D01*
X983459D01*
Y573884D01*
D02*
G37*
G36*
X937157D02*
X934188D01*
X931321Y573116D01*
X928750Y571631D01*
X926651Y569532D01*
X925167Y566962D01*
X924398Y564094D01*
Y561126D01*
X925167Y558258D01*
X926651Y555688D01*
X928750Y553589D01*
X931321Y552104D01*
X934188Y551336D01*
X937157D01*
X940024Y552104D01*
X942595Y553589D01*
X944694Y555688D01*
X946178Y558258D01*
X946946Y561126D01*
Y564094D01*
X946178Y566962D01*
X944694Y569532D01*
X942595Y571631D01*
X940024Y573116D01*
X937157Y573884D01*
D02*
G37*
G36*
X921546D02*
X898998D01*
Y551336D01*
X921546D01*
Y573884D01*
D02*
G37*
G36*
X875244D02*
X872276D01*
X869408Y573116D01*
X866838Y571631D01*
X864739Y569532D01*
X863254Y566962D01*
X862486Y564094D01*
Y561126D01*
X863254Y558258D01*
X864739Y555688D01*
X866838Y553589D01*
X869408Y552104D01*
X872276Y551336D01*
X875244D01*
X878112Y552104D01*
X880682Y553589D01*
X882781Y555688D01*
X884266Y558258D01*
X885034Y561126D01*
Y564094D01*
X884266Y566962D01*
X882781Y569532D01*
X880682Y571631D01*
X878112Y573116D01*
X875244Y573884D01*
D02*
G37*
G36*
X859634D02*
X837086D01*
Y551336D01*
X859634D01*
Y573884D01*
D02*
G37*
G36*
X805394D02*
X802426D01*
X799558Y573116D01*
X796988Y571631D01*
X794889Y569532D01*
X793404Y566962D01*
X792636Y564094D01*
Y561126D01*
X793404Y558258D01*
X794889Y555688D01*
X796988Y553589D01*
X799558Y552104D01*
X802426Y551336D01*
X805394D01*
X808262Y552104D01*
X810832Y553589D01*
X812931Y555688D01*
X814416Y558258D01*
X815184Y561126D01*
Y564094D01*
X814416Y566962D01*
X812931Y569532D01*
X810832Y571631D01*
X808262Y573116D01*
X805394Y573884D01*
D02*
G37*
G36*
X789784D02*
X767236D01*
Y551336D01*
X789784D01*
Y573884D01*
D02*
G37*
G36*
X743164D02*
X740196D01*
X737328Y573116D01*
X734758Y571631D01*
X732659Y569532D01*
X731174Y566962D01*
X730406Y564094D01*
Y561126D01*
X731174Y558258D01*
X732659Y555688D01*
X734758Y553589D01*
X737328Y552104D01*
X740196Y551336D01*
X743164D01*
X746032Y552104D01*
X748602Y553589D01*
X750701Y555688D01*
X752186Y558258D01*
X752954Y561126D01*
Y564094D01*
X752186Y566962D01*
X750701Y569532D01*
X748602Y571631D01*
X746032Y573116D01*
X743164Y573884D01*
D02*
G37*
G36*
X727554D02*
X705006D01*
Y551336D01*
X727554D01*
Y573884D01*
D02*
G37*
G36*
X680934D02*
X677966D01*
X675098Y573116D01*
X672528Y571631D01*
X670429Y569532D01*
X668944Y566962D01*
X668176Y564094D01*
Y561126D01*
X668944Y558258D01*
X670429Y555688D01*
X672528Y553589D01*
X675098Y552104D01*
X677966Y551336D01*
X680934D01*
X683802Y552104D01*
X686372Y553589D01*
X688471Y555688D01*
X689956Y558258D01*
X690724Y561126D01*
Y564094D01*
X689956Y566962D01*
X688471Y569532D01*
X686372Y571631D01*
X683802Y573116D01*
X680934Y573884D01*
D02*
G37*
G36*
X665324D02*
X642776D01*
Y551336D01*
X665324D01*
Y573884D01*
D02*
G37*
G36*
X618704D02*
X615736D01*
X612868Y573116D01*
X610298Y571631D01*
X608199Y569532D01*
X606714Y566962D01*
X605946Y564094D01*
Y561126D01*
X606714Y558258D01*
X608199Y555688D01*
X610298Y553589D01*
X612868Y552104D01*
X615736Y551336D01*
X618704D01*
X621572Y552104D01*
X624142Y553589D01*
X626241Y555688D01*
X627726Y558258D01*
X628494Y561126D01*
Y564094D01*
X627726Y566962D01*
X626241Y569532D01*
X624142Y571631D01*
X621572Y573116D01*
X618704Y573884D01*
D02*
G37*
G36*
X603094D02*
X580546D01*
Y551336D01*
X603094D01*
Y573884D01*
D02*
G37*
G36*
X556474D02*
X553506D01*
X550638Y573116D01*
X548068Y571631D01*
X545969Y569532D01*
X544484Y566962D01*
X543716Y564094D01*
Y561126D01*
X544484Y558258D01*
X545969Y555688D01*
X548068Y553589D01*
X550638Y552104D01*
X553506Y551336D01*
X556474D01*
X559342Y552104D01*
X561912Y553589D01*
X564011Y555688D01*
X565496Y558258D01*
X566264Y561126D01*
Y564094D01*
X565496Y566962D01*
X564011Y569532D01*
X561912Y571631D01*
X559342Y573116D01*
X556474Y573884D01*
D02*
G37*
G36*
X540864D02*
X518316D01*
Y551336D01*
X540864D01*
Y573884D01*
D02*
G37*
G36*
X314586Y557930D02*
X303530D01*
Y546874D01*
X306313Y547620D01*
X309457Y549435D01*
X312025Y552003D01*
X313840Y555147D01*
X314586Y557930D01*
D02*
G37*
G36*
X298450D02*
X287394D01*
X288140Y555147D01*
X289955Y552003D01*
X292523Y549435D01*
X295667Y547620D01*
X298450Y546874D01*
Y557930D01*
D02*
G37*
G36*
X474411Y549624D02*
X473009D01*
X471714Y549087D01*
X470723Y548096D01*
X470186Y546801D01*
Y545399D01*
X470723Y544104D01*
X471714Y543112D01*
X473009Y542576D01*
X474411D01*
X475706Y543112D01*
X476698Y544104D01*
X477234Y545399D01*
Y546801D01*
X476698Y548096D01*
X475706Y549087D01*
X474411Y549624D01*
D02*
G37*
G36*
X1224886Y576580D02*
X1221134D01*
X1217453Y575848D01*
X1213986Y574412D01*
X1210866Y572327D01*
X1208213Y569674D01*
X1206128Y566554D01*
X1204692Y563087D01*
X1203960Y559406D01*
Y555654D01*
X1204692Y551973D01*
X1206128Y548506D01*
X1208213Y545386D01*
X1210866Y542733D01*
X1213986Y540648D01*
X1217453Y539212D01*
X1221134Y538480D01*
X1224886D01*
X1228567Y539212D01*
X1232034Y540648D01*
X1235154Y542733D01*
X1237807Y545386D01*
X1239892Y548506D01*
X1241328Y551973D01*
X1242060Y555654D01*
Y559406D01*
X1241328Y563087D01*
X1239892Y566554D01*
X1237807Y569674D01*
X1235154Y572327D01*
X1232034Y574412D01*
X1228567Y575848D01*
X1224886Y576580D01*
D02*
G37*
%LPD*%
G36*
X1177195Y1243966D02*
X1175605Y1243963D01*
X1171606Y1243722D01*
X1170530Y1243565D01*
X1169582Y1243368D01*
X1168763Y1243133D01*
X1168072Y1242860D01*
X1167509Y1242548D01*
X1167074Y1242197D01*
X1165996Y1243274D01*
X1166348Y1243709D01*
X1166660Y1244271D01*
X1166933Y1244963D01*
X1167168Y1245782D01*
X1167365Y1246730D01*
X1167522Y1247806D01*
X1167721Y1250344D01*
X1167766Y1253395D01*
X1177195Y1243966D01*
D02*
G37*
G36*
X1123317Y1251805D02*
X1123558Y1247806D01*
X1123715Y1246730D01*
X1123912Y1245782D01*
X1124147Y1244963D01*
X1124420Y1244271D01*
X1124733Y1243709D01*
X1125083Y1243274D01*
X1124006Y1242197D01*
X1123571Y1242548D01*
X1123008Y1242860D01*
X1122317Y1243133D01*
X1121498Y1243368D01*
X1120550Y1243565D01*
X1119474Y1243722D01*
X1116936Y1243921D01*
X1113885Y1243966D01*
X1123315Y1253395D01*
X1123317Y1251805D01*
D02*
G37*
G36*
X1159923Y1237577D02*
X1159634Y1237570D01*
X1159375Y1237547D01*
X1159146Y1237508D01*
X1158948Y1237455D01*
X1158781Y1237387D01*
X1158643Y1237303D01*
X1158537Y1237204D01*
X1158460Y1237089D01*
X1158415Y1236960D01*
X1158400Y1236815D01*
Y1239071D01*
X1158415Y1239076D01*
X1158460Y1239082D01*
X1158537Y1239086D01*
X1159923Y1239101D01*
Y1237577D01*
D02*
G37*
G36*
X1133231Y1234186D02*
X1133215Y1234331D01*
X1133169Y1234460D01*
X1133091Y1234575D01*
X1132982Y1234674D01*
X1132842Y1234758D01*
X1132671Y1234826D01*
X1132469Y1234879D01*
X1132236Y1234918D01*
X1131972Y1234940D01*
X1131676Y1234948D01*
Y1236472D01*
X1131972Y1236480D01*
X1132236Y1236503D01*
X1132469Y1236541D01*
X1132671Y1236594D01*
X1132842Y1236663D01*
X1132982Y1236746D01*
X1133091Y1236845D01*
X1133169Y1236960D01*
X1133215Y1237089D01*
X1133231Y1237234D01*
Y1234186D01*
D02*
G37*
G36*
X1150491Y1233566D02*
X1150475Y1233711D01*
X1150429Y1233840D01*
X1150351Y1233955D01*
X1150242Y1234054D01*
X1150102Y1234137D01*
X1149931Y1234206D01*
X1149729Y1234259D01*
X1149496Y1234297D01*
X1149232Y1234320D01*
X1148936Y1234328D01*
Y1235852D01*
X1149232Y1235860D01*
X1149496Y1235882D01*
X1149729Y1235921D01*
X1149931Y1235974D01*
X1150102Y1236042D01*
X1150242Y1236126D01*
X1150351Y1236225D01*
X1150429Y1236340D01*
X1150475Y1236469D01*
X1150491Y1236614D01*
Y1233566D01*
D02*
G37*
G36*
X1142625Y1236469D02*
X1142671Y1236340D01*
X1142749Y1236225D01*
X1142858Y1236126D01*
X1142998Y1236042D01*
X1143169Y1235974D01*
X1143371Y1235921D01*
X1143604Y1235882D01*
X1143868Y1235860D01*
X1144164Y1235852D01*
Y1234328D01*
X1143868Y1234320D01*
X1143604Y1234297D01*
X1143371Y1234259D01*
X1143169Y1234206D01*
X1142998Y1234137D01*
X1142858Y1234054D01*
X1142749Y1233955D01*
X1142671Y1233840D01*
X1142625Y1233711D01*
X1142609Y1233566D01*
Y1236614D01*
X1142625Y1236469D01*
D02*
G37*
G36*
X1082348Y1260305D02*
X1085346Y1257648D01*
X1086218Y1256998D01*
X1087027Y1256467D01*
X1087773Y1256053D01*
X1088455Y1255758D01*
X1089074Y1255581D01*
X1089630Y1255522D01*
Y1253998D01*
X1089074Y1253939D01*
X1088455Y1253762D01*
X1087773Y1253466D01*
X1087027Y1253053D01*
X1086218Y1252522D01*
X1085346Y1251872D01*
X1083411Y1250219D01*
X1081222Y1248092D01*
Y1261428D01*
X1082348Y1260305D01*
D02*
G37*
G36*
X1074325Y1245236D02*
X1072735Y1245233D01*
X1068736Y1244992D01*
X1067660Y1244835D01*
X1066712Y1244638D01*
X1065893Y1244403D01*
X1065201Y1244130D01*
X1064639Y1243818D01*
X1064204Y1243466D01*
X1063127Y1244544D01*
X1063477Y1244979D01*
X1063790Y1245542D01*
X1064063Y1246233D01*
X1064298Y1247052D01*
X1064495Y1248000D01*
X1064652Y1249076D01*
X1064851Y1251614D01*
X1064895Y1254665D01*
X1074325Y1245236D01*
D02*
G37*
G36*
X1020447Y1253075D02*
X1020688Y1249076D01*
X1020845Y1248000D01*
X1021042Y1247052D01*
X1021277Y1246233D01*
X1021550Y1245542D01*
X1021862Y1244979D01*
X1022214Y1244544D01*
X1021136Y1243466D01*
X1020701Y1243818D01*
X1020138Y1244130D01*
X1019447Y1244403D01*
X1018628Y1244638D01*
X1017680Y1244835D01*
X1016604Y1244992D01*
X1014066Y1245191D01*
X1011015Y1245236D01*
X1020444Y1254665D01*
X1020447Y1253075D01*
D02*
G37*
G36*
X1030361Y1235350D02*
X1030346Y1235475D01*
X1030303Y1235588D01*
X1030230Y1235687D01*
X1030128Y1235773D01*
X1029997Y1235846D01*
X1029837Y1235905D01*
X1029648Y1235952D01*
X1029430Y1235985D01*
X1029183Y1236005D01*
X1028907Y1236011D01*
Y1237535D01*
X1029183Y1237542D01*
X1029430Y1237562D01*
X1029648Y1237595D01*
X1029837Y1237641D01*
X1029997Y1237701D01*
X1030128Y1237774D01*
X1030230Y1237859D01*
X1030303Y1237959D01*
X1030346Y1238071D01*
X1030361Y1238197D01*
Y1235350D01*
D02*
G37*
G36*
X1054271Y1236754D02*
X1054304Y1236695D01*
X1054360Y1236643D01*
X1054437Y1236598D01*
X1054537Y1236559D01*
X1054659Y1236528D01*
X1054804Y1236503D01*
X1054970Y1236486D01*
X1055370Y1236472D01*
Y1234948D01*
X1055159Y1234945D01*
X1054804Y1234917D01*
X1054659Y1234892D01*
X1054537Y1234861D01*
X1054437Y1234822D01*
X1054360Y1234777D01*
X1054304Y1234725D01*
X1054271Y1234666D01*
X1054259Y1234600D01*
Y1236821D01*
X1054271Y1236754D01*
D02*
G37*
G36*
X1046351Y1234066D02*
X1046335Y1234211D01*
X1046289Y1234340D01*
X1046211Y1234455D01*
X1046102Y1234554D01*
X1045962Y1234638D01*
X1045791Y1234706D01*
X1045589Y1234759D01*
X1045356Y1234798D01*
X1045092Y1234820D01*
X1044797Y1234828D01*
Y1236352D01*
X1045092Y1236360D01*
X1045356Y1236383D01*
X1045589Y1236421D01*
X1045791Y1236474D01*
X1045962Y1236543D01*
X1046102Y1236626D01*
X1046211Y1236725D01*
X1046289Y1236840D01*
X1046335Y1236969D01*
X1046351Y1237114D01*
Y1234066D01*
D02*
G37*
G36*
X1039755Y1236969D02*
X1039801Y1236840D01*
X1039879Y1236725D01*
X1039988Y1236626D01*
X1040128Y1236543D01*
X1040299Y1236474D01*
X1040501Y1236421D01*
X1040734Y1236383D01*
X1040998Y1236360D01*
X1041293Y1236352D01*
Y1234828D01*
X1040998Y1234820D01*
X1040734Y1234798D01*
X1040501Y1234759D01*
X1040299Y1234706D01*
X1040128Y1234638D01*
X1039988Y1234554D01*
X1039879Y1234455D01*
X1039801Y1234340D01*
X1039755Y1234211D01*
X1039739Y1234066D01*
Y1237114D01*
X1039755Y1236969D01*
D02*
G37*
G36*
X1062007Y1145549D02*
X1062143Y1145440D01*
X1062287Y1145345D01*
X1062438Y1145262D01*
X1062596Y1145191D01*
X1062762Y1145134D01*
X1062935Y1145089D01*
X1063116Y1145058D01*
X1063304Y1145038D01*
X1063499Y1145032D01*
Y1143508D01*
X1063304Y1143502D01*
X1063116Y1143483D01*
X1062935Y1143451D01*
X1062762Y1143406D01*
X1062596Y1143348D01*
X1062438Y1143278D01*
X1062287Y1143195D01*
X1062143Y1143100D01*
X1062007Y1142991D01*
X1061878Y1142870D01*
Y1145670D01*
X1062007Y1145549D01*
D02*
G37*
G36*
X1133201Y1217121D02*
X1133125Y1217115D01*
X1132898Y1217110D01*
X1125650Y1217090D01*
Y1224710D01*
X1133201Y1225060D01*
Y1217121D01*
D02*
G37*
G36*
X1032486Y1217151D02*
X1032370Y1217234D01*
X1032232Y1217274D01*
X1032072Y1217271D01*
X1031890Y1217225D01*
X1031685Y1217136D01*
X1031459Y1217003D01*
X1031210Y1216828D01*
X1030939Y1216609D01*
X1030331Y1216043D01*
X1029253Y1217121D01*
X1029558Y1217436D01*
X1030038Y1218000D01*
X1030213Y1218249D01*
X1030346Y1218475D01*
X1030435Y1218680D01*
X1030481Y1218862D01*
X1030484Y1219022D01*
X1030444Y1219160D01*
X1030361Y1219276D01*
X1032486Y1217151D01*
D02*
G37*
G36*
X1028824Y1214537D02*
X1028690Y1214394D01*
X1028572Y1214247D01*
X1028468Y1214096D01*
X1028379Y1213942D01*
X1028304Y1213784D01*
X1028245Y1213623D01*
X1028201Y1213458D01*
X1028172Y1213289D01*
X1028157Y1213117D01*
X1028158Y1212941D01*
X1026109Y1214849D01*
X1026286Y1214861D01*
X1026460Y1214886D01*
X1026629Y1214924D01*
X1026794Y1214976D01*
X1026956Y1215042D01*
X1027114Y1215121D01*
X1027267Y1215213D01*
X1027417Y1215320D01*
X1027563Y1215440D01*
X1027706Y1215573D01*
X1028824Y1214537D01*
D02*
G37*
G36*
X937102Y1147950D02*
X936973Y1148071D01*
X936837Y1148180D01*
X936693Y1148275D01*
X936542Y1148358D01*
X936384Y1148428D01*
X936218Y1148486D01*
X936045Y1148531D01*
X935864Y1148562D01*
X935676Y1148582D01*
X935481Y1148588D01*
Y1150112D01*
X935676Y1150118D01*
X935864Y1150137D01*
X936045Y1150169D01*
X936218Y1150214D01*
X936384Y1150272D01*
X936542Y1150342D01*
X936693Y1150425D01*
X936837Y1150520D01*
X936973Y1150629D01*
X937102Y1150750D01*
Y1147950D01*
D02*
G37*
G36*
X929927Y1150629D02*
X930063Y1150520D01*
X930207Y1150425D01*
X930358Y1150342D01*
X930516Y1150272D01*
X930682Y1150214D01*
X930855Y1150169D01*
X931036Y1150137D01*
X931224Y1150118D01*
X931419Y1150112D01*
Y1148588D01*
X931224Y1148582D01*
X931036Y1148562D01*
X930855Y1148531D01*
X930682Y1148486D01*
X930516Y1148428D01*
X930358Y1148358D01*
X930207Y1148275D01*
X930063Y1148180D01*
X929927Y1148071D01*
X929798Y1147950D01*
Y1150750D01*
X929927Y1150629D01*
D02*
G37*
G36*
X857210Y1180370D02*
X857171Y1180363D01*
X857119Y1180338D01*
X857052Y1180296D01*
X856973Y1180238D01*
X856772Y1180070D01*
X856369Y1179691D01*
X856207Y1179531D01*
X854411Y1181327D01*
X854571Y1181489D01*
X855176Y1182172D01*
X855218Y1182238D01*
X855243Y1182291D01*
X855250Y1182330D01*
X857210Y1180370D01*
D02*
G37*
G36*
X895192Y1128900D02*
X895156Y1128925D01*
X895098Y1128947D01*
X895020Y1128966D01*
X894920Y1128983D01*
X894657Y1129009D01*
X894308Y1129025D01*
X893875Y1129030D01*
Y1131570D01*
X894102Y1131571D01*
X895020Y1131634D01*
X895098Y1131653D01*
X895156Y1131675D01*
X895192Y1131700D01*
Y1128900D01*
D02*
G37*
G36*
X1011250Y1143053D02*
X1011121Y1142935D01*
X1011005Y1142809D01*
X1010904Y1142673D01*
X1010815Y1142529D01*
X1010741Y1142376D01*
X1010680Y1142215D01*
X1010632Y1142045D01*
X1010598Y1141865D01*
X1010578Y1141678D01*
X1010571Y1141481D01*
X1009047Y1141613D01*
X1009041Y1141807D01*
X1009024Y1141995D01*
X1008994Y1142177D01*
X1008953Y1142352D01*
X1008900Y1142522D01*
X1008835Y1142685D01*
X1008759Y1142842D01*
X1008671Y1142993D01*
X1008571Y1143137D01*
X1008459Y1143276D01*
X1011250Y1143053D01*
D02*
G37*
G36*
X1010571Y1120575D02*
X1010577Y1120381D01*
X1010594Y1120193D01*
X1010624Y1120011D01*
X1010665Y1119836D01*
X1010718Y1119666D01*
X1010783Y1119503D01*
X1010859Y1119346D01*
X1010947Y1119195D01*
X1011047Y1119051D01*
X1011159Y1118913D01*
X1008368Y1119135D01*
X1008497Y1119253D01*
X1008612Y1119379D01*
X1008714Y1119515D01*
X1008802Y1119659D01*
X1008877Y1119812D01*
X1008938Y1119973D01*
X1008986Y1120144D01*
X1009020Y1120322D01*
X1009040Y1120510D01*
X1009047Y1120707D01*
X1010571Y1120575D01*
D02*
G37*
G36*
X982989Y1149063D02*
X982880Y1148927D01*
X982785Y1148783D01*
X982702Y1148632D01*
X982632Y1148474D01*
X982574Y1148308D01*
X982529Y1148135D01*
X982497Y1147954D01*
X982478Y1147766D01*
X982472Y1147571D01*
X980948D01*
X980942Y1147766D01*
X980922Y1147954D01*
X980891Y1148135D01*
X980846Y1148308D01*
X980788Y1148474D01*
X980718Y1148632D01*
X980635Y1148783D01*
X980540Y1148927D01*
X980431Y1149063D01*
X980310Y1149192D01*
X983110D01*
X982989Y1149063D01*
D02*
G37*
G36*
X982478Y1112834D02*
X982497Y1112646D01*
X982529Y1112465D01*
X982574Y1112292D01*
X982632Y1112126D01*
X982702Y1111968D01*
X982785Y1111817D01*
X982880Y1111673D01*
X982989Y1111537D01*
X983110Y1111408D01*
X980310D01*
X980431Y1111537D01*
X980540Y1111673D01*
X980635Y1111817D01*
X980718Y1111968D01*
X980788Y1112126D01*
X980846Y1112292D01*
X980891Y1112465D01*
X980922Y1112646D01*
X980942Y1112834D01*
X980948Y1113029D01*
X982472D01*
X982478Y1112834D01*
D02*
G37*
G36*
X998229Y1137633D02*
X998120Y1137497D01*
X998025Y1137353D01*
X997942Y1137202D01*
X997871Y1137044D01*
X997814Y1136878D01*
X997769Y1136705D01*
X997738Y1136524D01*
X997718Y1136336D01*
X997712Y1136141D01*
X996188D01*
X996182Y1136336D01*
X996162Y1136524D01*
X996131Y1136705D01*
X996086Y1136878D01*
X996029Y1137044D01*
X995958Y1137202D01*
X995875Y1137353D01*
X995780Y1137497D01*
X995671Y1137633D01*
X995550Y1137762D01*
X998350D01*
X998229Y1137633D01*
D02*
G37*
G36*
X997718Y1102674D02*
X997738Y1102486D01*
X997769Y1102305D01*
X997814Y1102132D01*
X997871Y1101966D01*
X997942Y1101808D01*
X998025Y1101657D01*
X998120Y1101513D01*
X998229Y1101377D01*
X998350Y1101248D01*
X995550D01*
X995671Y1101377D01*
X995780Y1101513D01*
X995875Y1101657D01*
X995958Y1101808D01*
X996029Y1101966D01*
X996086Y1102132D01*
X996131Y1102305D01*
X996162Y1102486D01*
X996182Y1102674D01*
X996188Y1102869D01*
X997712D01*
X997718Y1102674D01*
D02*
G37*
G36*
X477362Y1069210D02*
X477326Y1069235D01*
X477268Y1069257D01*
X477190Y1069276D01*
X477090Y1069293D01*
X476827Y1069319D01*
X476478Y1069335D01*
X476045Y1069340D01*
Y1071880D01*
X476272Y1071881D01*
X477190Y1071944D01*
X477268Y1071963D01*
X477326Y1071985D01*
X477362Y1072010D01*
Y1069210D01*
D02*
G37*
G36*
X421834Y1071985D02*
X421892Y1071963D01*
X421970Y1071944D01*
X422070Y1071927D01*
X422333Y1071901D01*
X422682Y1071885D01*
X423115Y1071880D01*
Y1069340D01*
X422888Y1069339D01*
X421970Y1069276D01*
X421892Y1069257D01*
X421834Y1069235D01*
X421798Y1069210D01*
Y1072010D01*
X421834Y1071985D01*
D02*
G37*
G36*
Y1084685D02*
X421892Y1084663D01*
X421970Y1084644D01*
X422070Y1084627D01*
X422333Y1084601D01*
X422682Y1084585D01*
X423115Y1084580D01*
Y1082040D01*
X422888Y1082039D01*
X421970Y1081976D01*
X421892Y1081957D01*
X421834Y1081935D01*
X421798Y1081910D01*
Y1084710D01*
X421834Y1084685D01*
D02*
G37*
G36*
X508389Y1066939D02*
X509081Y1066335D01*
X509151Y1066293D01*
X509207Y1066268D01*
X509250Y1066260D01*
X507270Y1064280D01*
X507262Y1064323D01*
X507237Y1064379D01*
X507195Y1064448D01*
X507137Y1064531D01*
X506969Y1064736D01*
X506734Y1064993D01*
X506431Y1065303D01*
X508227Y1067099D01*
X508389Y1066939D01*
D02*
G37*
G36*
X612245Y1004376D02*
X612223Y1004318D01*
X612204Y1004240D01*
X612187Y1004140D01*
X612161Y1003876D01*
X612145Y1003528D01*
X612140Y1003095D01*
X609600D01*
X609599Y1003322D01*
X609536Y1004240D01*
X609517Y1004318D01*
X609495Y1004376D01*
X609470Y1004412D01*
X612270D01*
X612245Y1004376D01*
D02*
G37*
G36*
X612141Y972798D02*
X612204Y971880D01*
X612223Y971802D01*
X612245Y971744D01*
X612270Y971708D01*
X609470D01*
X609495Y971744D01*
X609517Y971802D01*
X609536Y971880D01*
X609553Y971980D01*
X609579Y972243D01*
X609595Y972592D01*
X609600Y973025D01*
X612140D01*
X612141Y972798D01*
D02*
G37*
G36*
X509270Y963930D02*
Y598170D01*
X505460Y594360D01*
X497840D01*
X494030Y598170D01*
Y958850D01*
X435610Y1017270D01*
X383540D01*
X381000Y1019810D01*
Y1027430D01*
X383540Y1029970D01*
X443230D01*
X509270Y963930D01*
D02*
G37*
%LPC*%
G36*
X879541Y1014444D02*
X878139D01*
X876844Y1013907D01*
X875853Y1012916D01*
X875316Y1011621D01*
Y1010219D01*
X875853Y1008924D01*
X876844Y1007933D01*
X878139Y1007396D01*
X879541D01*
X880836Y1007933D01*
X881827Y1008924D01*
X882364Y1010219D01*
Y1011621D01*
X881827Y1012916D01*
X880836Y1013907D01*
X879541Y1014444D01*
D02*
G37*
G36*
X941771Y976344D02*
X940369D01*
X939074Y975807D01*
X938083Y974816D01*
X937546Y973521D01*
Y972119D01*
X938083Y970824D01*
X939074Y969833D01*
X940369Y969296D01*
X941771D01*
X943066Y969833D01*
X944057Y970824D01*
X944594Y972119D01*
Y973521D01*
X944057Y974816D01*
X943066Y975807D01*
X941771Y976344D01*
D02*
G37*
G36*
X1002731Y928084D02*
X1001329D01*
X1000034Y927548D01*
X999043Y926556D01*
X998506Y925261D01*
Y923859D01*
X999043Y922564D01*
X1000034Y921572D01*
X1001329Y921036D01*
X1002731D01*
X1004026Y921572D01*
X1005017Y922564D01*
X1005554Y923859D01*
Y925261D01*
X1005017Y926556D01*
X1004026Y927548D01*
X1002731Y928084D01*
D02*
G37*
G36*
X996381Y915384D02*
X994979D01*
X993684Y914847D01*
X992692Y913856D01*
X992156Y912561D01*
Y911159D01*
X992692Y909864D01*
X993684Y908873D01*
X994979Y908336D01*
X996381D01*
X997676Y908873D01*
X998668Y909864D01*
X999204Y911159D01*
Y912561D01*
X998668Y913856D01*
X997676Y914847D01*
X996381Y915384D01*
D02*
G37*
G36*
X940501D02*
X939099D01*
X937804Y914847D01*
X936813Y913856D01*
X936276Y912561D01*
Y911159D01*
X936813Y909864D01*
X937804Y908873D01*
X939099Y908336D01*
X940501D01*
X941796Y908873D01*
X942787Y909864D01*
X943324Y911159D01*
Y912561D01*
X942787Y913856D01*
X941796Y914847D01*
X940501Y915384D01*
D02*
G37*
G36*
X880811Y837914D02*
X879409D01*
X878114Y837377D01*
X877122Y836386D01*
X876586Y835091D01*
Y833689D01*
X877122Y832394D01*
X878114Y831403D01*
X879409Y830866D01*
X880811D01*
X882106Y831403D01*
X883098Y832394D01*
X883634Y833689D01*
Y835091D01*
X883098Y836386D01*
X882106Y837377D01*
X880811Y837914D01*
D02*
G37*
G36*
X850331D02*
X848929D01*
X847634Y837377D01*
X846643Y836386D01*
X846106Y835091D01*
Y833689D01*
X846643Y832394D01*
X847634Y831403D01*
X848929Y830866D01*
X850331D01*
X851626Y831403D01*
X852617Y832394D01*
X853154Y833689D01*
Y835091D01*
X852617Y836386D01*
X851626Y837377D01*
X850331Y837914D01*
D02*
G37*
G36*
X819851D02*
X818449D01*
X817154Y837377D01*
X816162Y836386D01*
X815626Y835091D01*
Y833689D01*
X816162Y832394D01*
X817154Y831403D01*
X818449Y830866D01*
X819851D01*
X821146Y831403D01*
X822138Y832394D01*
X822674Y833689D01*
Y835091D01*
X822138Y836386D01*
X821146Y837377D01*
X819851Y837914D01*
D02*
G37*
%LPD*%
D13*
X897890Y1164590D02*
X908050Y1174750D01*
X859790Y1164590D02*
X897890D01*
X420370Y1070610D02*
X478790D01*
X567690Y863600D02*
Y1184910D01*
X740805Y1263650D02*
X751840D01*
X763270Y1252220D01*
Y1201420D02*
Y1252220D01*
X736600Y1259840D02*
X736995D01*
X740805Y1263650D01*
X803910Y778224D02*
Y824230D01*
X854996Y1180116D02*
X857250Y1182370D01*
X854996Y1138904D02*
Y1180116D01*
Y1138904D02*
X863600Y1130300D01*
X891548Y1208157D02*
Y1213796D01*
Y1208157D02*
X908050Y1191655D01*
Y1191260D02*
Y1191655D01*
X420370Y1083310D02*
X490220D01*
X864870Y1002030D02*
X974090D01*
X980440Y1008380D01*
X908050Y1174750D02*
Y1191260D01*
X588010Y873760D02*
Y990600D01*
Y873760D02*
X619760Y842010D01*
X582930Y871485D02*
X621295Y833120D01*
X593090Y876300D02*
X614680Y854710D01*
X593090Y876300D02*
Y996950D01*
X582930Y871485D02*
Y1139190D01*
X621295Y833120D02*
X795020D01*
X610870Y970280D02*
Y1005840D01*
X554990Y770890D02*
X562610Y778510D01*
Y1200150D01*
X598170Y880110D02*
Y1009650D01*
Y880110D02*
X608330Y869950D01*
X572770Y866140D02*
X617220Y821690D01*
X577850Y868680D02*
X618490Y828040D01*
X617220Y821690D02*
X670560D01*
X617220Y770890D02*
Y814070D01*
X728980Y828040D02*
X741680Y815340D01*
X618490Y828040D02*
X728980D01*
X572770Y866140D02*
Y1169670D01*
X567690Y863600D02*
X617220Y814070D01*
X795020Y833120D02*
X803910Y824230D01*
X577850Y868680D02*
Y1154430D01*
X670560Y821690D02*
X679450Y812800D01*
Y770890D02*
Y812800D01*
X741680Y770890D02*
Y815340D01*
X490220Y1083310D02*
X509270Y1064260D01*
X863600Y1130300D02*
X896620D01*
D14*
X755364Y1083879D02*
X773713Y1065530D01*
X835660D01*
X1090930Y848360D02*
X1130300Y887730D01*
X811816Y907764D02*
X871220Y848360D01*
X1090930D01*
X811816Y907764D02*
Y969579D01*
X821121Y908619D02*
X871220Y858520D01*
X821121Y908619D02*
Y1003014D01*
X856389Y909320D02*
X858520Y911451D01*
X855980Y909320D02*
X856389D01*
X858520Y911451D02*
Y1057910D01*
X852170Y1064260D02*
X858520Y1057910D01*
X848360Y914400D02*
Y1052830D01*
X835660Y1065530D02*
X848360Y1052830D01*
X838200Y919480D02*
Y1049020D01*
X767080Y1057910D02*
X829310D01*
X838200Y1049020D01*
X741680Y1050290D02*
X820934D01*
X830580Y924560D02*
Y1040644D01*
X820934Y1050290D02*
X830580Y1040644D01*
X745490Y1079500D02*
X767080Y1057910D01*
X760730Y1103630D02*
Y1184910D01*
X754380Y1102360D02*
Y1200150D01*
X562610Y1229360D02*
X731520D01*
X741680Y1219200D01*
X748030Y1108710D02*
Y1257300D01*
X754380Y1102360D02*
X778510Y1078230D01*
X1034300Y1221090D02*
X1035050D01*
X1026160Y1212950D02*
X1034300Y1221090D01*
X1026160Y1212850D02*
Y1212950D01*
X996950Y1099820D02*
Y1139190D01*
X1009809Y1117759D02*
Y1144429D01*
X1009650Y1117600D02*
X1009809Y1117759D01*
Y1144429D02*
X1009968Y1144588D01*
X871220Y858520D02*
X1094740D01*
X1129030Y892810D02*
X1173480D01*
X1094740Y858520D02*
X1129030Y892810D01*
X1173480D02*
X1193270Y912600D01*
Y964140D01*
X1130300Y887730D02*
X1184508D01*
X1189798Y882440D02*
X1193270D01*
X1184508Y887730D02*
X1189798Y882440D01*
X775970Y1073150D02*
X1047750D01*
X741680Y1107440D02*
X775970Y1073150D01*
X741680Y1107440D02*
Y1219200D01*
X778510Y1078230D02*
X966470D01*
X760730Y1103630D02*
X782320Y1082040D01*
X963930D01*
X974090Y1085850D02*
Y1120140D01*
X966470Y1078230D02*
X974090Y1085850D01*
X963930Y1082040D02*
X967740Y1085850D01*
Y1115060D01*
X1047750Y1073150D02*
X1051560Y1076960D01*
X1033780Y929640D02*
X1033805Y929615D01*
X1033780Y929640D02*
Y970280D01*
X1080745Y929615D02*
X1080770Y929590D01*
X1033805Y929615D02*
X1080745D01*
X1050290Y1203960D02*
Y1220590D01*
X1060450Y1144270D02*
X1088390D01*
X1096010Y1151890D01*
X1090930Y1254760D02*
X1096010Y1249680D01*
Y1151890D02*
Y1249680D01*
X1074420Y1254760D02*
X1090930D01*
X1157668Y1238339D02*
X1162139D01*
X1154430Y1235101D02*
X1157668Y1238339D01*
X1162139D02*
X1177290Y1253490D01*
X1010920Y1254760D02*
X1028907Y1236773D01*
X1033367D02*
X1035050Y1235090D01*
X1028907Y1236773D02*
X1033367D01*
X1035050Y1235090D02*
X1035550Y1235590D01*
X1050290D01*
X1050410Y1235710D02*
X1055370D01*
X1050290Y1235590D02*
X1050410Y1235710D01*
X1055370D02*
X1074420Y1254760D01*
X1154430Y1202690D02*
Y1220101D01*
X1113790Y1253490D02*
X1131570Y1235710D01*
X1137300D01*
X1137920Y1235090D01*
X1154419D02*
X1154430Y1235101D01*
X1137920Y1235090D02*
X1154419D01*
X1051560Y1076960D02*
Y1182370D01*
X928370Y1149350D02*
X938530D01*
X981710Y1109980D02*
Y1150620D01*
D21*
X1050290Y1220590D02*
D03*
Y1235590D02*
D03*
X1154430Y1220101D02*
D03*
Y1235101D02*
D03*
D52*
X1035050Y1235090D02*
D03*
Y1221090D02*
D03*
X1137920Y1235090D02*
D03*
Y1221090D02*
D03*
D112*
X782542Y1181100D02*
Y1245648D01*
X769620Y1258570D02*
X782542Y1245648D01*
X1125220Y1220470D02*
X1125650Y1220900D01*
X1137730D02*
X1137920Y1221090D01*
X1125650Y1220900D02*
X1137730D01*
X1154430Y1202690D02*
X1177290D01*
X1113790D02*
X1154430D01*
X1050290Y1203960D02*
X1074420D01*
X1010920D02*
X1050290D01*
X966048Y1212908D02*
X969227Y1209730D01*
X970115D01*
X975884Y1203960D01*
X966048Y1212908D02*
Y1213796D01*
X975884Y1203960D02*
X1010920D01*
X966806Y1251053D02*
X967548Y1251796D01*
X966806Y1214554D02*
Y1251053D01*
X966048Y1213796D02*
X966806Y1214554D01*
X890048Y1251796D02*
X967548D01*
X890791Y1214554D02*
Y1251053D01*
Y1214554D02*
X891548Y1213796D01*
X890048Y1251796D02*
X890791Y1251053D01*
D113*
X389890Y1024890D02*
X396240D01*
X436880D01*
X894080Y1158240D02*
X941070D01*
X436880Y1024890D02*
X503002Y958768D01*
Y601810D02*
Y958768D01*
X949960Y1197559D02*
Y1197610D01*
X949667Y1167423D02*
Y1197266D01*
X949960Y1197559D01*
D115*
X290830Y1202690D02*
D03*
Y1228090D02*
D03*
Y1059180D02*
D03*
Y1084580D02*
D03*
Y1135380D02*
D03*
Y1109980D02*
D03*
X803910Y562610D02*
D03*
X741680D02*
D03*
X679450D02*
D03*
X617220D02*
D03*
X554990D02*
D03*
X1059498D02*
D03*
X997585D02*
D03*
X1121410D02*
D03*
X935673D02*
D03*
X873760D02*
D03*
D116*
X290830Y1253490D02*
D03*
Y1160780D02*
D03*
D117*
X591920Y655320D02*
D03*
X616920D02*
D03*
X591920Y731520D02*
D03*
X529590D02*
D03*
X554590Y655320D02*
D03*
X529590D02*
D03*
X1122280D02*
D03*
X1097280Y731520D02*
D03*
X1122280D02*
D03*
X1060150Y655320D02*
D03*
X1035150Y731520D02*
D03*
X1060150D02*
D03*
X998020Y655320D02*
D03*
X973020Y731520D02*
D03*
X998020D02*
D03*
X935890Y655320D02*
D03*
X910890Y731520D02*
D03*
X935890D02*
D03*
X873760Y655320D02*
D03*
X848760Y731520D02*
D03*
X873760D02*
D03*
X778910D02*
D03*
X803910Y655320D02*
D03*
X778910D02*
D03*
X716580Y731520D02*
D03*
X741580Y655320D02*
D03*
X716580D02*
D03*
X654250Y731520D02*
D03*
X679250Y655320D02*
D03*
X654250D02*
D03*
D118*
X616920Y731520D02*
D03*
X554590D02*
D03*
X1097280Y655320D02*
D03*
X1035150D02*
D03*
X973020D02*
D03*
X910890D02*
D03*
X848760D02*
D03*
X803910Y731520D02*
D03*
X741580D02*
D03*
X679250D02*
D03*
D119*
X778510Y562610D02*
D03*
X716280D02*
D03*
X654050D02*
D03*
X591820D02*
D03*
X529590D02*
D03*
X1034098D02*
D03*
X972185D02*
D03*
X1096010D02*
D03*
X910273D02*
D03*
X848360D02*
D03*
D120*
X1223010Y1239520D02*
D03*
Y557530D02*
D03*
D121*
X1177290Y1202690D02*
D03*
X1074420Y1203960D02*
D03*
D122*
X1113790Y1253490D02*
D03*
Y1202690D02*
D03*
X1177290Y1253490D02*
D03*
X1010920Y1254760D02*
D03*
Y1203960D02*
D03*
X1074420Y1254760D02*
D03*
D123*
X1080790Y878770D02*
D03*
D124*
X1055390Y891470D02*
D03*
X1080790Y904170D02*
D03*
X1055390Y916870D02*
D03*
X1080790Y929570D02*
D03*
X1055390Y942270D02*
D03*
X1080790Y954970D02*
D03*
X1055390Y967670D02*
D03*
D125*
X1193290Y857020D02*
D03*
Y882420D02*
D03*
Y989520D02*
D03*
Y964120D02*
D03*
D126*
X1144290Y980420D02*
D03*
Y866120D02*
D03*
D127*
X1113790Y1000720D02*
D03*
Y845820D02*
D03*
D128*
X300990Y610470D02*
D03*
D129*
Y560470D02*
D03*
D130*
X300990Y828040D02*
D03*
X275590D02*
D03*
X300990Y802640D02*
D03*
Y694690D02*
D03*
X275590D02*
D03*
X300990Y669290D02*
D03*
X275590Y720090D02*
D03*
Y745490D02*
D03*
X300990Y720090D02*
D03*
Y745490D02*
D03*
Y932180D02*
D03*
Y957580D02*
D03*
X275590Y932180D02*
D03*
Y957580D02*
D03*
X300990Y1008380D02*
D03*
X275590Y982980D02*
D03*
X300990D02*
D03*
D131*
X275590Y802640D02*
D03*
Y669290D02*
D03*
Y1008380D02*
D03*
D132*
X966048Y1213796D02*
D03*
X891548D02*
D03*
D133*
X967548Y1251796D02*
D03*
X890048D02*
D03*
D134*
X903798Y1224296D02*
D03*
X953798D02*
D03*
D135*
X287020Y575310D02*
D03*
X313690D02*
D03*
X285750Y548640D02*
D03*
X457200Y961390D02*
D03*
X447040D02*
D03*
X467360D02*
D03*
X360680D02*
D03*
X350520D02*
D03*
X370840D02*
D03*
X347980Y795020D02*
D03*
X360680Y798830D02*
D03*
X369570D02*
D03*
Y789940D02*
D03*
X360680D02*
D03*
X337820Y840740D02*
D03*
X332740Y847090D02*
D03*
X364490Y853440D02*
D03*
X363220Y833120D02*
D03*
X344170Y835660D02*
D03*
X347980Y828040D02*
D03*
X467360Y955040D02*
D03*
X447040D02*
D03*
X370840Y953770D02*
D03*
X350520D02*
D03*
X755364Y1083879D02*
D03*
X331470Y570230D02*
D03*
X339090D02*
D03*
X346710D02*
D03*
Y563880D02*
D03*
Y557530D02*
D03*
X339090D02*
D03*
X331470D02*
D03*
Y563880D02*
D03*
X499110Y596900D02*
D03*
Y607060D02*
D03*
X506730D02*
D03*
X389890Y1024890D02*
D03*
X383540D02*
D03*
X386080Y1019810D02*
D03*
X392430D02*
D03*
X396240Y1024890D02*
D03*
X908050Y1174750D02*
D03*
X900430Y1158240D02*
D03*
X894080D02*
D03*
X339090Y891540D02*
D03*
X327660Y900430D02*
D03*
X327880Y907000D02*
D03*
X327660Y914400D02*
D03*
X334010Y900430D02*
D03*
Y914400D02*
D03*
X1017270Y961390D02*
D03*
X939800Y966470D02*
D03*
X929640Y919480D02*
D03*
X1018540Y899160D02*
D03*
Y910590D02*
D03*
X1019810Y952500D02*
D03*
X972820Y947420D02*
D03*
X942340Y946150D02*
D03*
X1018540Y887730D02*
D03*
X994410Y886460D02*
D03*
X942340Y887730D02*
D03*
X996950Y844074D02*
D03*
X1018540Y853440D02*
D03*
X811816Y969579D02*
D03*
X853440Y1045210D02*
D03*
X852646Y1010920D02*
D03*
X843280Y1045210D02*
D03*
X848360Y914400D02*
D03*
X833120Y1045210D02*
D03*
X821121Y1003014D02*
D03*
X797560Y944880D02*
D03*
X801370Y913130D02*
D03*
X503002Y601810D02*
D03*
X782320Y1242060D02*
D03*
X760730Y1184910D02*
D03*
X478790Y1070610D02*
D03*
X567690Y1184910D02*
D03*
X754380Y1200150D02*
D03*
X859790Y1164590D02*
D03*
X562610Y1229360D02*
D03*
X461010Y1259840D02*
D03*
X459454Y1220470D02*
D03*
X736600Y1259840D02*
D03*
X748030Y1108710D02*
D03*
X451136Y1121410D02*
D03*
X452120Y1212850D02*
D03*
X457200Y955040D02*
D03*
X769620Y1258570D02*
D03*
X820420Y1036320D02*
D03*
X989330Y984250D02*
D03*
X999490Y901700D02*
D03*
X803910Y778224D02*
D03*
X1097280Y770890D02*
D03*
X1035050D02*
D03*
X972820D02*
D03*
X910590D02*
D03*
X848360D02*
D03*
X981710Y1049020D02*
D03*
X857250Y1182370D02*
D03*
X1026160Y1212850D02*
D03*
X1125220Y1220470D02*
D03*
X996950Y1099820D02*
D03*
X1009650Y1117600D02*
D03*
X996950Y1139190D02*
D03*
X782542Y1181100D02*
D03*
X782320Y1211580D02*
D03*
X607060Y908050D02*
D03*
X440690Y1137920D02*
D03*
X360680Y953770D02*
D03*
X420370Y1083310D02*
D03*
X748030Y1257300D02*
D03*
X763270Y1201420D02*
D03*
X998220Y1064260D02*
D03*
X848360Y1098550D02*
D03*
X895350D02*
D03*
X980440Y1008380D02*
D03*
X938530D02*
D03*
X864870Y1002030D02*
D03*
X779780Y969010D02*
D03*
X638810Y918210D02*
D03*
X553720Y981710D02*
D03*
X908050Y1191260D02*
D03*
X473710Y546100D02*
D03*
X339090Y563880D02*
D03*
X416560Y678180D02*
D03*
X300990Y900430D02*
D03*
X619760Y842010D02*
D03*
X614680Y854710D02*
D03*
X744220Y906780D02*
D03*
X885190Y944880D02*
D03*
Y914400D02*
D03*
Y875030D02*
D03*
X864870Y826770D02*
D03*
X895350D02*
D03*
X834390D02*
D03*
X334010Y907000D02*
D03*
X610870Y1005840D02*
D03*
Y970280D02*
D03*
X598170Y1009650D02*
D03*
X593090Y996950D02*
D03*
X608330Y869950D02*
D03*
X588010Y990600D02*
D03*
X562610Y1200150D02*
D03*
X572770Y1169670D02*
D03*
X577850Y1154430D02*
D03*
X554990Y770890D02*
D03*
X617220D02*
D03*
X679450D02*
D03*
X741680D02*
D03*
X582930Y1139190D02*
D03*
X420370Y1070610D02*
D03*
X509270Y1064260D02*
D03*
X855980Y909320D02*
D03*
X852170Y1064260D02*
D03*
X745490Y1079500D02*
D03*
X838200Y919480D02*
D03*
X741680Y1050290D02*
D03*
X830580Y924560D02*
D03*
X941070Y972820D02*
D03*
X849630Y834390D02*
D03*
X880110D02*
D03*
X819150D02*
D03*
X878840Y1010920D02*
D03*
X916940Y1046480D02*
D03*
X995680Y863600D02*
D03*
X1002030Y924560D02*
D03*
X995680Y911860D02*
D03*
X939800D02*
D03*
X1033780Y929640D02*
D03*
Y970280D02*
D03*
X1060450Y1144270D02*
D03*
X1051560Y1182370D02*
D03*
X967740Y1115060D02*
D03*
X949960Y1197610D02*
D03*
X974090Y1120140D02*
D03*
X949667Y1167423D02*
D03*
X896620Y1130300D02*
D03*
X941070Y1158240D02*
D03*
X928370Y1149350D02*
D03*
X981710Y1150620D02*
D03*
Y1109980D02*
D03*
X1009968Y1144588D02*
D03*
X938530Y1149350D02*
D03*
D136*
X990600Y990600D02*
D03*
Y838200D02*
D03*
X965200D02*
D03*
X939800Y990600D02*
D03*
Y838200D02*
D03*
X914400Y990600D02*
D03*
Y889000D02*
D03*
Y838200D02*
D03*
X863600Y939800D02*
D03*
X736600D02*
D03*
X1231900Y1219200D02*
D03*
X1219200Y1193800D02*
D03*
Y1143000D02*
D03*
X1231900Y1117600D02*
D03*
X1219200Y1092200D02*
D03*
X1231900Y1066800D02*
D03*
Y812800D02*
D03*
X1219200Y787400D02*
D03*
X1231900Y762000D02*
D03*
X1219200Y736600D02*
D03*
X1231900Y711200D02*
D03*
Y660400D02*
D03*
Y609600D02*
D03*
X1219200Y584200D02*
D03*
Y533400D02*
D03*
X1193800Y1244600D02*
D03*
X1206500Y1219200D02*
D03*
X1193800Y1193800D02*
D03*
X1206500Y1168400D02*
D03*
X1193800Y1143000D02*
D03*
X1206500Y1117600D02*
D03*
X1193800Y1092200D02*
D03*
X1206500Y1066800D02*
D03*
Y812800D02*
D03*
X1193800Y787400D02*
D03*
X1206500Y762000D02*
D03*
X1193800Y736600D02*
D03*
X1206500Y711200D02*
D03*
X1193800Y685800D02*
D03*
X1206500Y660400D02*
D03*
X1193800Y635000D02*
D03*
X1206500Y609600D02*
D03*
X1193800Y584200D02*
D03*
Y533400D02*
D03*
X1181100Y1219200D02*
D03*
Y1168400D02*
D03*
X1168400Y1143000D02*
D03*
X1181100Y1117600D02*
D03*
X1168400Y1092200D02*
D03*
X1181100Y1066800D02*
D03*
Y812800D02*
D03*
X1168400Y787400D02*
D03*
X1181100Y762000D02*
D03*
X1168400Y736600D02*
D03*
X1181100Y711200D02*
D03*
X1168400Y685800D02*
D03*
X1181100Y660400D02*
D03*
X1168400Y635000D02*
D03*
X1181100Y609600D02*
D03*
X1168400Y584200D02*
D03*
X1181100Y558800D02*
D03*
X1168400Y533400D02*
D03*
X1143000Y1244600D02*
D03*
Y1193800D02*
D03*
X1155700Y1168400D02*
D03*
X1143000Y1143000D02*
D03*
X1155700Y1117600D02*
D03*
X1143000Y1092200D02*
D03*
X1155700Y1066800D02*
D03*
Y812800D02*
D03*
X1143000Y787400D02*
D03*
X1155700Y762000D02*
D03*
X1143000Y736600D02*
D03*
X1155700Y711200D02*
D03*
X1143000Y685800D02*
D03*
X1155700Y660400D02*
D03*
X1143000Y635000D02*
D03*
X1155700Y609600D02*
D03*
X1143000Y584200D02*
D03*
X1155700Y558800D02*
D03*
X1143000Y533400D02*
D03*
X1130300Y1168400D02*
D03*
X1117600Y1143000D02*
D03*
X1130300Y1117600D02*
D03*
X1117600Y1092200D02*
D03*
X1130300Y1066800D02*
D03*
Y812800D02*
D03*
X1117600Y787400D02*
D03*
X1130300Y762000D02*
D03*
Y711200D02*
D03*
X1117600Y685800D02*
D03*
Y584200D02*
D03*
Y533400D02*
D03*
X1104900Y1168400D02*
D03*
Y1117600D02*
D03*
X1092200Y1092200D02*
D03*
X1104900Y1066800D02*
D03*
Y812800D02*
D03*
X1092200Y787400D02*
D03*
X1104900Y711200D02*
D03*
X1092200Y685800D02*
D03*
X1104900Y609600D02*
D03*
X1092200Y533400D02*
D03*
X1079500Y1168400D02*
D03*
Y1117600D02*
D03*
X1066800Y1092200D02*
D03*
X1079500Y1066800D02*
D03*
Y812800D02*
D03*
Y711200D02*
D03*
X1066800Y685800D02*
D03*
X1079500Y660400D02*
D03*
Y609600D02*
D03*
Y558800D02*
D03*
X1066800Y533400D02*
D03*
X1041400Y1244600D02*
D03*
Y1193800D02*
D03*
Y1143000D02*
D03*
Y1092200D02*
D03*
X1054100Y1066800D02*
D03*
Y812800D02*
D03*
X1041400Y787400D02*
D03*
X1054100Y711200D02*
D03*
X1041400Y685800D02*
D03*
X1054100Y609600D02*
D03*
X1041400Y584200D02*
D03*
Y533400D02*
D03*
X1016000Y1092200D02*
D03*
Y1041400D02*
D03*
X1028700Y812800D02*
D03*
X1016000Y787400D02*
D03*
Y736600D02*
D03*
X1028700Y711200D02*
D03*
X1016000Y685800D02*
D03*
Y635000D02*
D03*
Y584200D02*
D03*
Y533400D02*
D03*
X990600Y1244600D02*
D03*
X1003300Y1219200D02*
D03*
X990600Y1193800D02*
D03*
Y1092200D02*
D03*
Y787400D02*
D03*
X1003300Y711200D02*
D03*
X990600Y685800D02*
D03*
Y584200D02*
D03*
Y533400D02*
D03*
X977900Y1219200D02*
D03*
X965200Y1193800D02*
D03*
X977900Y1168400D02*
D03*
X965200Y1143000D02*
D03*
Y787400D02*
D03*
X977900Y711200D02*
D03*
X965200Y685800D02*
D03*
Y533400D02*
D03*
X939800Y1244600D02*
D03*
X952500Y711200D02*
D03*
X939800Y685800D02*
D03*
X952500Y660400D02*
D03*
Y609600D02*
D03*
Y558800D02*
D03*
X939800Y533400D02*
D03*
X914400Y1244600D02*
D03*
Y1193800D02*
D03*
Y787400D02*
D03*
X927100Y711200D02*
D03*
X914400Y685800D02*
D03*
X927100Y660400D02*
D03*
Y609600D02*
D03*
X914400Y533400D02*
D03*
X889000Y1193800D02*
D03*
X901700Y1066800D02*
D03*
X889000Y787400D02*
D03*
Y736600D02*
D03*
X901700Y711200D02*
D03*
X889000Y685800D02*
D03*
Y635000D02*
D03*
Y584200D02*
D03*
Y533400D02*
D03*
X863600Y1244600D02*
D03*
X876300Y1219200D02*
D03*
Y1066800D02*
D03*
X863600Y736600D02*
D03*
X876300Y711200D02*
D03*
X863600Y685800D02*
D03*
Y584200D02*
D03*
Y533400D02*
D03*
X838200Y1244600D02*
D03*
Y1143000D02*
D03*
Y736600D02*
D03*
X850900Y711200D02*
D03*
X838200Y685800D02*
D03*
Y533400D02*
D03*
X825500Y1168400D02*
D03*
X812800Y1143000D02*
D03*
X825500Y1117600D02*
D03*
X812800Y1041400D02*
D03*
X825500Y711200D02*
D03*
X812800Y685800D02*
D03*
X825500Y660400D02*
D03*
X812800Y635000D02*
D03*
X825500Y609600D02*
D03*
X812800Y584200D02*
D03*
X825500Y558800D02*
D03*
X812800Y533400D02*
D03*
X800100Y1168400D02*
D03*
Y1117600D02*
D03*
X787400Y1041400D02*
D03*
X800100Y1016000D02*
D03*
Y711200D02*
D03*
X787400Y685800D02*
D03*
Y635000D02*
D03*
Y584200D02*
D03*
Y533400D02*
D03*
X762000Y1193800D02*
D03*
Y1041400D02*
D03*
X774700Y1016000D02*
D03*
X762000Y990600D02*
D03*
X774700Y863600D02*
D03*
Y812800D02*
D03*
X762000Y736600D02*
D03*
X774700Y711200D02*
D03*
X762000Y685800D02*
D03*
Y635000D02*
D03*
Y584200D02*
D03*
Y533400D02*
D03*
X736600Y1193800D02*
D03*
Y1041400D02*
D03*
X749300Y1016000D02*
D03*
X736600Y990600D02*
D03*
X749300Y863600D02*
D03*
Y762000D02*
D03*
Y711200D02*
D03*
X736600Y685800D02*
D03*
Y533400D02*
D03*
X711200Y1193800D02*
D03*
Y1143000D02*
D03*
Y1041400D02*
D03*
X723900Y1016000D02*
D03*
X711200Y990600D02*
D03*
X723900Y965200D02*
D03*
X711200Y939800D02*
D03*
X723900Y914400D02*
D03*
Y863600D02*
D03*
Y762000D02*
D03*
Y711200D02*
D03*
X711200Y685800D02*
D03*
Y533400D02*
D03*
X698500Y1219200D02*
D03*
X685800Y1193800D02*
D03*
X698500Y1168400D02*
D03*
X685800Y1143000D02*
D03*
X698500Y1117600D02*
D03*
Y1066800D02*
D03*
X685800Y1041400D02*
D03*
Y990600D02*
D03*
X698500Y965200D02*
D03*
X685800Y939800D02*
D03*
X698500Y762000D02*
D03*
Y711200D02*
D03*
X685800Y685800D02*
D03*
X698500Y660400D02*
D03*
Y609600D02*
D03*
Y558800D02*
D03*
X685800Y533400D02*
D03*
X673100Y1219200D02*
D03*
X660400Y1193800D02*
D03*
X673100Y1168400D02*
D03*
X660400Y1143000D02*
D03*
X673100Y1117600D02*
D03*
Y1066800D02*
D03*
X660400Y1041400D02*
D03*
X673100Y965200D02*
D03*
X660400Y939800D02*
D03*
X673100Y711200D02*
D03*
X660400Y685800D02*
D03*
Y533400D02*
D03*
X647700Y1219200D02*
D03*
Y1168400D02*
D03*
X635000Y1143000D02*
D03*
X647700Y1117600D02*
D03*
Y1066800D02*
D03*
X635000Y1041400D02*
D03*
Y990600D02*
D03*
X647700Y965200D02*
D03*
X635000Y939800D02*
D03*
Y787400D02*
D03*
X647700Y762000D02*
D03*
X635000Y736600D02*
D03*
X647700Y711200D02*
D03*
X635000Y685800D02*
D03*
Y635000D02*
D03*
Y584200D02*
D03*
Y533400D02*
D03*
X622300Y1219200D02*
D03*
X609600Y1143000D02*
D03*
X622300Y1117600D02*
D03*
Y1066800D02*
D03*
X609600Y1041400D02*
D03*
X622300Y965200D02*
D03*
X609600Y889000D02*
D03*
X622300Y863600D02*
D03*
X609600Y787400D02*
D03*
X622300Y711200D02*
D03*
X609600Y685800D02*
D03*
Y533400D02*
D03*
X596900Y1219200D02*
D03*
X584200Y1193800D02*
D03*
X596900Y1117600D02*
D03*
Y1066800D02*
D03*
X584200Y838200D02*
D03*
X596900Y812800D02*
D03*
X584200Y787400D02*
D03*
X596900Y762000D02*
D03*
Y711200D02*
D03*
X584200Y685800D02*
D03*
Y533400D02*
D03*
X571500Y1219200D02*
D03*
Y812800D02*
D03*
Y762000D02*
D03*
Y711200D02*
D03*
X558800Y685800D02*
D03*
X571500Y660400D02*
D03*
Y609600D02*
D03*
Y558800D02*
D03*
X558800Y533400D02*
D03*
X546100Y1016000D02*
D03*
X533400Y939800D02*
D03*
X546100Y914400D02*
D03*
X533400Y889000D02*
D03*
X546100Y863600D02*
D03*
X533400Y838200D02*
D03*
X546100Y812800D02*
D03*
X533400Y787400D02*
D03*
X546100Y762000D02*
D03*
Y711200D02*
D03*
X533400Y685800D02*
D03*
X546100Y660400D02*
D03*
Y609600D02*
D03*
X533400Y533400D02*
D03*
X520700Y1219200D02*
D03*
X508000Y1193800D02*
D03*
X520700Y1168400D02*
D03*
X508000Y1143000D02*
D03*
X520700Y1117600D02*
D03*
X508000Y1041400D02*
D03*
X520700Y1016000D02*
D03*
Y914400D02*
D03*
Y863600D02*
D03*
Y812800D02*
D03*
Y762000D02*
D03*
Y711200D02*
D03*
Y660400D02*
D03*
Y609600D02*
D03*
X508000Y584200D02*
D03*
Y533400D02*
D03*
X495300Y1219200D02*
D03*
X482600Y1193800D02*
D03*
X495300Y1168400D02*
D03*
Y1117600D02*
D03*
Y1066800D02*
D03*
Y1016000D02*
D03*
X482600Y939800D02*
D03*
Y889000D02*
D03*
Y838200D02*
D03*
Y787400D02*
D03*
Y736600D02*
D03*
Y685800D02*
D03*
Y635000D02*
D03*
Y584200D02*
D03*
X495300Y558800D02*
D03*
X482600Y533400D02*
D03*
X469900Y812800D02*
D03*
X457200Y787400D02*
D03*
X469900Y762000D02*
D03*
X457200Y736600D02*
D03*
X469900Y711200D02*
D03*
X457200Y685800D02*
D03*
X469900Y660400D02*
D03*
X457200Y635000D02*
D03*
Y584200D02*
D03*
X469900Y558800D02*
D03*
X457200Y533400D02*
D03*
X431800Y1143000D02*
D03*
Y1041400D02*
D03*
X444500Y812800D02*
D03*
X431800Y787400D02*
D03*
X444500Y762000D02*
D03*
X431800Y736600D02*
D03*
X444500Y558800D02*
D03*
X431800Y533400D02*
D03*
X406400Y1193800D02*
D03*
X419100Y1168400D02*
D03*
X406400Y1041400D02*
D03*
X419100Y812800D02*
D03*
Y762000D02*
D03*
Y711200D02*
D03*
X406400Y533400D02*
D03*
X381000Y1244600D02*
D03*
Y584200D02*
D03*
Y533400D02*
D03*
X355600Y1193800D02*
D03*
X368300Y1168400D02*
D03*
Y1117600D02*
D03*
X355600Y1041400D02*
D03*
X368300Y1016000D02*
D03*
X355600Y889000D02*
D03*
Y533400D02*
D03*
X330200Y1244600D02*
D03*
Y1193800D02*
D03*
X342900Y1168400D02*
D03*
X330200Y1092200D02*
D03*
Y1041400D02*
D03*
X342900Y1016000D02*
D03*
X330200Y990600D02*
D03*
Y889000D02*
D03*
X342900Y762000D02*
D03*
X330200Y736600D02*
D03*
X342900Y711200D02*
D03*
X330200Y533400D02*
D03*
X317500Y1219200D02*
D03*
X304800Y1193800D02*
D03*
X317500Y1168400D02*
D03*
X304800Y1143000D02*
D03*
X317500Y1066800D02*
D03*
X304800Y1041400D02*
D03*
X317500Y1016000D02*
D03*
Y965200D02*
D03*
Y812800D02*
D03*
X304800Y787400D02*
D03*
X317500Y762000D02*
D03*
Y711200D02*
D03*
X304800Y635000D02*
D03*
X317500Y558800D02*
D03*
X304800Y533400D02*
D03*
X279400Y1193800D02*
D03*
Y1143000D02*
D03*
Y1092200D02*
D03*
Y1041400D02*
D03*
X292100Y812800D02*
D03*
X279400Y787400D02*
D03*
X292100Y762000D02*
D03*
X279400Y635000D02*
D03*
Y584200D02*
D03*
Y533400D02*
D03*
D137*
X932688Y1114526D02*
D03*
Y1125526D02*
D03*
Y1103526D02*
D03*
X921688Y1114526D02*
D03*
Y1125526D02*
D03*
X943688Y1114526D02*
D03*
Y1125526D02*
D03*
X921688Y1103526D02*
D03*
X943688D02*
D03*
M02*
