G04*
G04 #@! TF.GenerationSoftware,Altium Limited,Altium Designer,22.11.1 (43)*
G04*
G04 Layer_Color=8388736*
%FSLAX44Y44*%
%MOMM*%
G71*
G04*
G04 #@! TF.SameCoordinates,FD04806B-1D24-4FBA-9A3E-9282C7D3C049*
G04*
G04*
G04 #@! TF.FilePolarity,Negative*
G04*
G01*
G75*
%ADD56R,1.0032X1.0032*%
%ADD57O,1.7032X0.8032*%
%ADD58R,0.8432X0.8032*%
%ADD59R,1.1032X0.7532*%
%ADD60O,0.8032X1.6532*%
%ADD61R,0.8032X0.8432*%
%ADD62R,2.3032X1.7532*%
%ADD63C,1.8032*%
%ADD64R,1.4032X2.0532*%
%ADD65R,0.7532X0.7532*%
%ADD66O,0.4532X1.2532*%
%ADD67R,3.3332X3.3332*%
%ADD68O,1.2532X0.4532*%
%ADD69R,0.7532X1.1032*%
%ADD70R,0.7532X0.7532*%
%ADD71R,2.0032X1.5032*%
%ADD72R,2.5032X2.1532*%
%ADD73R,1.7532X3.4132*%
%ADD74R,1.5432X1.0032*%
%ADD75R,1.0032X1.1532*%
%ADD76R,4.2032X4.2032*%
%ADD77R,1.7032X1.2032*%
%ADD78R,1.2032X1.7032*%
%ADD79R,1.0032X1.0032*%
%ADD80R,0.6532X1.5032*%
%ADD81R,2.3532X5.7032*%
%ADD82R,1.9532X4.7032*%
%ADD83R,1.4532X1.0032*%
%ADD84O,1.6532X0.5032*%
%ADD85O,0.5032X1.6532*%
%ADD86R,1.0032X0.6032*%
%ADD87R,1.1532X1.0032*%
%ADD88R,1.2032X0.8032*%
%ADD89R,1.4732X1.6002*%
%ADD90R,1.3532X1.6032*%
%ADD91C,2.1532*%
%ADD92R,2.1532X2.1532*%
%ADD93C,1.4032*%
%ADD94R,1.4032X1.4032*%
%ADD95R,2.1532X2.1532*%
%ADD96C,3.7084*%
%ADD97R,2.1082X2.1082*%
%ADD98C,2.1082*%
%ADD99R,1.6012X1.6012*%
%ADD100C,1.6012*%
%ADD101C,1.7332*%
%ADD102C,3.4532*%
%ADD103C,2.6482*%
%ADD104R,2.4532X2.4532*%
%ADD105C,2.4532*%
%ADD106C,1.8532*%
%ADD107R,1.8532X1.8532*%
%ADD108O,1.6532X2.2032*%
%ADD109O,1.3532X2.0032*%
%ADD110C,1.0032*%
%ADD111C,0.7032*%
D56*
X884348Y1150086D02*
D03*
Y1165086D02*
D03*
X870378Y1150086D02*
D03*
Y1165086D02*
D03*
X872490Y1036200D02*
D03*
Y1021200D02*
D03*
X858520Y1036080D02*
D03*
Y1021080D02*
D03*
X830580Y1021200D02*
D03*
Y1036200D02*
D03*
X792480Y965320D02*
D03*
Y980320D02*
D03*
X518160Y1259720D02*
D03*
Y1244720D02*
D03*
X472440Y1259720D02*
D03*
Y1244720D02*
D03*
X487680Y1259720D02*
D03*
Y1244720D02*
D03*
X502920Y1259720D02*
D03*
Y1244720D02*
D03*
X886460Y1021200D02*
D03*
Y1036200D02*
D03*
X981710D02*
D03*
Y1021200D02*
D03*
X744443Y919480D02*
D03*
Y934480D02*
D03*
X967740Y1035960D02*
D03*
Y1020960D02*
D03*
X932180Y1036080D02*
D03*
Y1021080D02*
D03*
X916940Y1036080D02*
D03*
Y1021080D02*
D03*
X844550Y1036200D02*
D03*
Y1021200D02*
D03*
D57*
X401650Y1070610D02*
D03*
Y1083310D02*
D03*
Y1096010D02*
D03*
Y1108710D02*
D03*
Y1121410D02*
D03*
Y1134110D02*
D03*
Y1146810D02*
D03*
X347650Y1070610D02*
D03*
Y1083310D02*
D03*
Y1096010D02*
D03*
Y1108710D02*
D03*
Y1121410D02*
D03*
Y1134110D02*
D03*
Y1146810D02*
D03*
D58*
X440690Y1158950D02*
D03*
Y1149350D02*
D03*
X422910Y1158950D02*
D03*
Y1149350D02*
D03*
Y1131010D02*
D03*
Y1121410D02*
D03*
D59*
X895350Y845940D02*
D03*
Y860940D02*
D03*
X880110Y860940D02*
D03*
Y845940D02*
D03*
X849630Y860820D02*
D03*
Y845820D02*
D03*
X982980Y894200D02*
D03*
Y909200D02*
D03*
Y878720D02*
D03*
Y863720D02*
D03*
X864870Y845940D02*
D03*
Y860940D02*
D03*
X819150Y860940D02*
D03*
Y845940D02*
D03*
X834390Y845940D02*
D03*
Y860940D02*
D03*
X792703Y934600D02*
D03*
Y919600D02*
D03*
X901700Y1019810D02*
D03*
Y1034810D02*
D03*
X1235710Y1045090D02*
D03*
Y1030090D02*
D03*
X1220470D02*
D03*
Y1045090D02*
D03*
D60*
X638810Y818570D02*
D03*
X651510D02*
D03*
X664210D02*
D03*
X676910D02*
D03*
X689610D02*
D03*
X702310D02*
D03*
X715010D02*
D03*
X638810Y873070D02*
D03*
X651510D02*
D03*
X664210D02*
D03*
X676910D02*
D03*
X689610D02*
D03*
X702310D02*
D03*
X715010D02*
D03*
X357759Y767770D02*
D03*
X370459D02*
D03*
X383159D02*
D03*
X395859D02*
D03*
X357759Y822270D02*
D03*
X370459D02*
D03*
X383159D02*
D03*
X395859D02*
D03*
D61*
X638530Y908050D02*
D03*
X628930D02*
D03*
X638530Y892810D02*
D03*
X628930D02*
D03*
D62*
X436470Y601980D02*
D03*
X480470D02*
D03*
X406810Y564104D02*
D03*
X362810D02*
D03*
X339540Y871220D02*
D03*
X383540D02*
D03*
X406810Y601980D02*
D03*
X362810D02*
D03*
D63*
X491490Y546100D02*
D03*
X1224280Y684530D02*
D03*
X361950Y1244600D02*
D03*
X410210D02*
D03*
X445770Y546100D02*
D03*
X1224280Y631190D02*
D03*
X1228090Y1169670D02*
D03*
D64*
X1064500Y612140D02*
D03*
X1031000D02*
D03*
X1003540D02*
D03*
X970040D02*
D03*
X1128000D02*
D03*
X1094500D02*
D03*
X941310D02*
D03*
X907810D02*
D03*
X879080D02*
D03*
X845580D02*
D03*
D65*
X881990Y635000D02*
D03*
X872490D02*
D03*
X915570D02*
D03*
X906070D02*
D03*
X934620D02*
D03*
X944120D02*
D03*
X977700D02*
D03*
X968200D02*
D03*
X1006250D02*
D03*
X996750D02*
D03*
X1039800D02*
D03*
X1030300D02*
D03*
X1058880D02*
D03*
X1068380D02*
D03*
X1092460D02*
D03*
X1101960D02*
D03*
X1130510D02*
D03*
X1121010D02*
D03*
X843940D02*
D03*
X853440D02*
D03*
D66*
X937688Y1137526D02*
D03*
X947688D02*
D03*
X942688D02*
D03*
X932688D02*
D03*
X927688D02*
D03*
X922688D02*
D03*
X917688D02*
D03*
Y1091526D02*
D03*
X922688D02*
D03*
X927688D02*
D03*
X932688D02*
D03*
X937688D02*
D03*
X942688D02*
D03*
X947688D02*
D03*
D67*
X932688Y1114526D02*
D03*
D68*
X909688Y1129526D02*
D03*
Y1124526D02*
D03*
Y1119526D02*
D03*
Y1114526D02*
D03*
Y1109526D02*
D03*
Y1104526D02*
D03*
Y1099526D02*
D03*
X955688D02*
D03*
Y1104526D02*
D03*
Y1109526D02*
D03*
Y1114526D02*
D03*
Y1119526D02*
D03*
Y1124526D02*
D03*
Y1129526D02*
D03*
D69*
X1009650Y924560D02*
D03*
X1024650D02*
D03*
X995560D02*
D03*
X980560D02*
D03*
X1009770Y970280D02*
D03*
X1024770D02*
D03*
X950200Y955040D02*
D03*
X965200D02*
D03*
X950080Y939800D02*
D03*
X965080D02*
D03*
X950200Y894080D02*
D03*
X965200D02*
D03*
X950200Y878840D02*
D03*
X965200D02*
D03*
X965080Y985520D02*
D03*
X950080D02*
D03*
D70*
X617220Y759130D02*
D03*
Y749630D02*
D03*
X554990Y759130D02*
D03*
Y749630D02*
D03*
X679450Y759130D02*
D03*
Y749630D02*
D03*
X803910Y759130D02*
D03*
Y749630D02*
D03*
X741680Y759130D02*
D03*
Y749630D02*
D03*
X848360Y759130D02*
D03*
Y749630D02*
D03*
X910590Y759130D02*
D03*
Y749630D02*
D03*
X972820Y759130D02*
D03*
Y749630D02*
D03*
X1035050Y759130D02*
D03*
Y749630D02*
D03*
X1097280Y759130D02*
D03*
Y749630D02*
D03*
D71*
X370540Y678180D02*
D03*
X396540D02*
D03*
Y704850D02*
D03*
X370540D02*
D03*
D72*
X457200Y905730D02*
D03*
Y933230D02*
D03*
X360680Y907000D02*
D03*
Y934500D02*
D03*
D73*
X412160Y643890D02*
D03*
X370160D02*
D03*
D74*
X949960Y1038960D02*
D03*
Y1018360D02*
D03*
D75*
X612110Y990600D02*
D03*
X626110D02*
D03*
X762650Y1245870D02*
D03*
X748650D02*
D03*
X473060Y1229360D02*
D03*
X487060D02*
D03*
X762030Y1214120D02*
D03*
X748030D02*
D03*
X869728Y1128496D02*
D03*
X883728D02*
D03*
X869728Y1098016D02*
D03*
X883728D02*
D03*
X794370Y1242060D02*
D03*
X808370D02*
D03*
X794370Y1211580D02*
D03*
X808370D02*
D03*
X794370Y1181100D02*
D03*
X808370D02*
D03*
X285100Y871220D02*
D03*
X299100D02*
D03*
D76*
X621730Y1179230D02*
D03*
D77*
X723730Y1259840D02*
D03*
X543730Y1259840D02*
D03*
Y1244840D02*
D03*
Y1229840D02*
D03*
Y1214840D02*
D03*
Y1199840D02*
D03*
Y1184840D02*
D03*
Y1169840D02*
D03*
Y1154840D02*
D03*
Y1139840D02*
D03*
Y1124840D02*
D03*
Y1109840D02*
D03*
Y1094840D02*
D03*
Y1079840D02*
D03*
Y1064840D02*
D03*
Y1049840D02*
D03*
Y1034840D02*
D03*
X723730Y1244840D02*
D03*
Y1229840D02*
D03*
Y1214840D02*
D03*
Y1199840D02*
D03*
Y1184840D02*
D03*
Y1169840D02*
D03*
Y1154840D02*
D03*
Y1139840D02*
D03*
Y1124840D02*
D03*
Y1109840D02*
D03*
Y1094840D02*
D03*
Y1079840D02*
D03*
Y1064840D02*
D03*
Y1049840D02*
D03*
Y1034840D02*
D03*
D78*
X566230Y1023620D02*
D03*
X581230D02*
D03*
X596230D02*
D03*
X611230D02*
D03*
X701230D02*
D03*
X686230D02*
D03*
X671230D02*
D03*
X656230D02*
D03*
X641230D02*
D03*
X626230D02*
D03*
D79*
X1009890Y985520D02*
D03*
X1024890D02*
D03*
X995560Y939800D02*
D03*
X980560D02*
D03*
X965080Y1000760D02*
D03*
X950080D02*
D03*
X965080Y909320D02*
D03*
X950080D02*
D03*
X1012310Y844550D02*
D03*
X1027310D02*
D03*
X470790Y1212850D02*
D03*
X486790D02*
D03*
X761880Y1229360D02*
D03*
X746880D02*
D03*
X965080Y924560D02*
D03*
X950080D02*
D03*
X965080Y970280D02*
D03*
X950080D02*
D03*
X995560Y955040D02*
D03*
X980560D02*
D03*
X758532Y906780D02*
D03*
X773532D02*
D03*
X883712Y1113256D02*
D03*
X867712D02*
D03*
X808530Y1257449D02*
D03*
X792530D02*
D03*
X808100Y1226820D02*
D03*
X792100D02*
D03*
X808100Y1196340D02*
D03*
X792100D02*
D03*
X370339Y843280D02*
D03*
X355339D02*
D03*
X386425Y725642D02*
D03*
X371425D02*
D03*
X284990Y889000D02*
D03*
X300990D02*
D03*
D80*
X915798Y1213796D02*
D03*
X922298D02*
D03*
X928798D02*
D03*
X935298D02*
D03*
X941798D02*
D03*
D81*
X418700Y858520D02*
D03*
X457200D02*
D03*
D82*
X392950Y919480D02*
D03*
X425450D02*
D03*
D83*
X998220Y1039970D02*
D03*
Y1019970D02*
D03*
D84*
X899500Y904680D02*
D03*
Y909680D02*
D03*
Y914680D02*
D03*
Y919680D02*
D03*
Y924680D02*
D03*
Y929680D02*
D03*
Y934680D02*
D03*
Y939680D02*
D03*
Y944680D02*
D03*
Y949680D02*
D03*
Y954680D02*
D03*
Y959680D02*
D03*
X815000D02*
D03*
Y954680D02*
D03*
Y949680D02*
D03*
Y944680D02*
D03*
Y939680D02*
D03*
Y934680D02*
D03*
Y929680D02*
D03*
Y924680D02*
D03*
Y919680D02*
D03*
Y914680D02*
D03*
Y909680D02*
D03*
Y904680D02*
D03*
D85*
X884750Y974430D02*
D03*
X879750D02*
D03*
X874750D02*
D03*
X869750D02*
D03*
X864750D02*
D03*
X859750D02*
D03*
X854750D02*
D03*
X849750D02*
D03*
X844750D02*
D03*
X839750D02*
D03*
X834750D02*
D03*
X829750D02*
D03*
Y889930D02*
D03*
X834750D02*
D03*
X839750D02*
D03*
X844750D02*
D03*
X849750D02*
D03*
X854750D02*
D03*
X859750D02*
D03*
X864750D02*
D03*
X869750D02*
D03*
X874750D02*
D03*
X879750D02*
D03*
X884750D02*
D03*
D86*
X889070Y1182370D02*
D03*
X866070D02*
D03*
X940818Y1180716D02*
D03*
Y1174216D02*
D03*
Y1167716D02*
D03*
X919318D02*
D03*
Y1180716D02*
D03*
Y1174216D02*
D03*
D87*
X1060878Y1157056D02*
D03*
Y1171056D02*
D03*
Y1118956D02*
D03*
Y1132956D02*
D03*
X997378Y1150706D02*
D03*
Y1164706D02*
D03*
Y1111986D02*
D03*
Y1125986D02*
D03*
X337820Y772780D02*
D03*
Y786780D02*
D03*
Y803260D02*
D03*
Y817260D02*
D03*
D88*
X1043904Y1156946D02*
D03*
X1019904Y1147446D02*
D03*
Y1166446D02*
D03*
X1043668Y1118336D02*
D03*
X1019668Y1108836D02*
D03*
Y1127836D02*
D03*
D89*
X393319Y746760D02*
D03*
X370459D02*
D03*
D90*
X760282Y923407D02*
D03*
X776282Y945407D02*
D03*
Y923407D02*
D03*
X760282Y945407D02*
D03*
D91*
X290830Y1202690D02*
D03*
Y1228090D02*
D03*
Y1059180D02*
D03*
Y1084580D02*
D03*
Y1135380D02*
D03*
Y1109980D02*
D03*
X803910Y562610D02*
D03*
X741680D02*
D03*
X679450D02*
D03*
X617220D02*
D03*
X554990D02*
D03*
X1059498D02*
D03*
X997585D02*
D03*
X1121410D02*
D03*
X935673D02*
D03*
X873760D02*
D03*
D92*
X290830Y1253490D02*
D03*
Y1160780D02*
D03*
D93*
X591920Y655320D02*
D03*
X616920D02*
D03*
X591920Y731520D02*
D03*
X529590D02*
D03*
X554590Y655320D02*
D03*
X529590D02*
D03*
X1122280D02*
D03*
X1097280Y731520D02*
D03*
X1122280D02*
D03*
X1060150Y655320D02*
D03*
X1035150Y731520D02*
D03*
X1060150D02*
D03*
X998020Y655320D02*
D03*
X973020Y731520D02*
D03*
X998020D02*
D03*
X935890Y655320D02*
D03*
X910890Y731520D02*
D03*
X935890D02*
D03*
X873760Y655320D02*
D03*
X848760Y731520D02*
D03*
X873760D02*
D03*
X778910D02*
D03*
X803910Y655320D02*
D03*
X778910D02*
D03*
X716580Y731520D02*
D03*
X741580Y655320D02*
D03*
X716580D02*
D03*
X654250Y731520D02*
D03*
X679250Y655320D02*
D03*
X654250D02*
D03*
D94*
X616920Y731520D02*
D03*
X554590D02*
D03*
X1097280Y655320D02*
D03*
X1035150D02*
D03*
X973020D02*
D03*
X910890D02*
D03*
X848760D02*
D03*
X803910Y731520D02*
D03*
X741580D02*
D03*
X679250D02*
D03*
D95*
X778510Y562610D02*
D03*
X716280D02*
D03*
X654050D02*
D03*
X591820D02*
D03*
X529590D02*
D03*
X1034098D02*
D03*
X972185D02*
D03*
X1096010D02*
D03*
X910273D02*
D03*
X848360D02*
D03*
D96*
X1223010Y1239520D02*
D03*
Y557530D02*
D03*
D97*
X1177290Y1202690D02*
D03*
X1074420Y1203960D02*
D03*
D98*
X1113790Y1253490D02*
D03*
Y1202690D02*
D03*
X1177290Y1253490D02*
D03*
X1010920Y1254760D02*
D03*
Y1203960D02*
D03*
X1074420Y1254760D02*
D03*
D99*
X1080790Y878770D02*
D03*
D100*
X1055390Y891470D02*
D03*
X1080790Y904170D02*
D03*
X1055390Y916870D02*
D03*
X1080790Y929570D02*
D03*
X1055390Y942270D02*
D03*
X1080790Y954970D02*
D03*
X1055390Y967670D02*
D03*
D101*
X1193290Y857020D02*
D03*
Y882420D02*
D03*
Y989520D02*
D03*
Y964120D02*
D03*
D102*
X1144290Y980420D02*
D03*
Y866120D02*
D03*
D103*
X1113790Y1000720D02*
D03*
Y845820D02*
D03*
D104*
X300990Y610470D02*
D03*
D105*
Y560470D02*
D03*
D106*
X300990Y828040D02*
D03*
X275590D02*
D03*
X300990Y802640D02*
D03*
Y694690D02*
D03*
X275590D02*
D03*
X300990Y669290D02*
D03*
X275590Y720090D02*
D03*
Y745490D02*
D03*
X300990Y720090D02*
D03*
Y745490D02*
D03*
Y932180D02*
D03*
Y957580D02*
D03*
X275590Y932180D02*
D03*
Y957580D02*
D03*
X300990Y1008380D02*
D03*
X275590Y982980D02*
D03*
X300990D02*
D03*
D107*
X275590Y802640D02*
D03*
Y669290D02*
D03*
Y1008380D02*
D03*
D108*
X966048Y1213796D02*
D03*
X891548D02*
D03*
D109*
X967548Y1251796D02*
D03*
X890048D02*
D03*
D110*
X903798Y1224296D02*
D03*
X953798D02*
D03*
D111*
X932688Y1114526D02*
D03*
Y1125526D02*
D03*
Y1103526D02*
D03*
X921688Y1114526D02*
D03*
Y1125526D02*
D03*
X943688Y1114526D02*
D03*
Y1125526D02*
D03*
X921688Y1103526D02*
D03*
X943688D02*
D03*
M02*
