G04*
G04 #@! TF.GenerationSoftware,Altium Limited,Altium Designer,22.11.1 (43)*
G04*
G04 Layer_Color=65535*
%FSLAX44Y44*%
%MOMM*%
G71*
G04*
G04 #@! TF.SameCoordinates,FD04806B-1D24-4FBA-9A3E-9282C7D3C049*
G04*
G04*
G04 #@! TF.FilePolarity,Positive*
G04*
G01*
G75*
%ADD10C,0.6000*%
%ADD11C,0.2500*%
%ADD12C,0.2000*%
%ADD13C,0.2540*%
%ADD14C,0.1524*%
%ADD15C,0.1000*%
%ADD16C,0.3000*%
%ADD17C,0.1270*%
%ADD18C,0.1778*%
%ADD19C,0.1016*%
%ADD20R,0.5500X1.6500*%
D10*
X372150Y1142210D02*
G03*
X372150Y1142210I-3000J0D01*
G01*
X645910Y839820D02*
G03*
X645910Y839820I-3000J0D01*
G01*
X394809Y801020D02*
G03*
X394809Y801020I-3000J0D01*
G01*
X881250Y911180D02*
G03*
X881250Y911180I-3000J0D01*
G01*
D11*
X348900Y1155310D02*
G03*
X348900Y1155310I-1250J0D01*
G01*
X631560Y818570D02*
G03*
X631560Y818570I-1250J0D01*
G01*
X493720Y588730D02*
G03*
X493720Y588730I-1250J0D01*
G01*
X352060Y577354D02*
G03*
X352060Y577354I-1250J0D01*
G01*
X958938Y1147526D02*
G03*
X958938Y1147526I-1250J0D01*
G01*
X441450Y894480D02*
G03*
X441450Y894480I-1250J0D01*
G01*
X344930Y895750D02*
G03*
X344930Y895750I-1250J0D01*
G01*
X405609Y822270D02*
G03*
X405609Y822270I-1250J0D01*
G01*
X900750Y897680D02*
G03*
X900750Y897680I-1250J0D01*
G01*
X1021154Y1138946D02*
G03*
X1021154Y1138946I-1250J0D01*
G01*
X1020918Y1100336D02*
G03*
X1020918Y1100336I-1250J0D01*
G01*
X328790Y884470D02*
G03*
X328790Y884470I-1250J0D01*
G01*
X352060Y615230D02*
G03*
X352060Y615230I-1250J0D01*
G01*
X920568Y1188216D02*
G03*
X920568Y1188216I-1250J0D01*
G01*
D12*
X629420Y699670D02*
G03*
X629420Y687170I0J-6250D01*
G01*
X567090Y699670D02*
G03*
X567090Y687170I0J-6250D01*
G01*
X1084780D02*
G03*
X1084780Y699670I0J6250D01*
G01*
X1022650Y687170D02*
G03*
X1022650Y699670I0J6250D01*
G01*
X960520Y687170D02*
G03*
X960520Y699670I0J6250D01*
G01*
X898390Y687170D02*
G03*
X898390Y699670I0J6250D01*
G01*
X836260Y687170D02*
G03*
X836260Y699670I0J6250D01*
G01*
X816410D02*
G03*
X816410Y687170I0J-6250D01*
G01*
X754080Y699670D02*
G03*
X754080Y687170I0J-6250D01*
G01*
X691750Y699670D02*
G03*
X691750Y687170I0J-6250D01*
G01*
X540230Y1272590D02*
G03*
X540230Y1272590I-2500J0D01*
G01*
X761782Y956907D02*
G03*
X761782Y956907I-1000J0D01*
G01*
X258330Y1268190D02*
X323330D01*
X258330Y1187990D02*
Y1268190D01*
Y1187990D02*
X323330D01*
Y1268190D01*
Y1044480D02*
Y1175480D01*
X258330Y1044480D02*
X323330D01*
X258330D02*
Y1175480D01*
X323330D01*
X359150Y1065210D02*
X390150D01*
X359150Y1152210D02*
X390150D01*
Y1065210D02*
Y1152210D01*
X359150Y1065210D02*
Y1152210D01*
X891850Y852440D02*
Y854440D01*
X898850Y852440D02*
Y854440D01*
X883610Y852440D02*
Y854440D01*
X876610Y852440D02*
Y854440D01*
X853130Y852320D02*
Y854320D01*
X846130Y852320D02*
Y854320D01*
X632910Y829820D02*
X720910D01*
X632910Y861820D02*
X720910D01*
X632910Y829820D02*
Y861820D01*
X720910Y829820D02*
Y861820D01*
X579420Y717170D02*
X629420D01*
X579420Y669670D02*
Y717170D01*
Y669670D02*
X629420D01*
Y687170D01*
Y699670D02*
Y717170D01*
X567090Y699670D02*
Y717170D01*
Y669670D02*
Y687170D01*
X517090Y669670D02*
X567090D01*
X517090D02*
Y717170D01*
X567090D01*
X1084780Y669670D02*
Y687170D01*
Y699670D02*
Y717170D01*
X1134780D01*
Y669670D02*
Y717170D01*
X1084780Y669670D02*
X1134780D01*
X1022650D02*
Y687170D01*
Y699670D02*
Y717170D01*
X1072650D01*
Y669670D02*
Y717170D01*
X1022650Y669670D02*
X1072650D01*
X960520D02*
Y687170D01*
Y699670D02*
Y717170D01*
X1010520D01*
Y669670D02*
Y717170D01*
X960520Y669670D02*
X1010520D01*
X898390D02*
Y687170D01*
Y699670D02*
Y717170D01*
X948390D01*
Y669670D02*
Y717170D01*
X898390Y669670D02*
X948390D01*
X836260D02*
Y687170D01*
Y699670D02*
Y717170D01*
X886260D01*
Y669670D02*
Y717170D01*
X836260Y669670D02*
X886260D01*
X816410Y699670D02*
Y717170D01*
Y669670D02*
Y687170D01*
X766410Y669670D02*
X816410D01*
X766410D02*
Y717170D01*
X816410D01*
X754080Y699670D02*
Y717170D01*
Y669670D02*
Y687170D01*
X704080Y669670D02*
X754080D01*
X704080D02*
Y717170D01*
X754080D01*
X691750Y699670D02*
Y717170D01*
Y669670D02*
Y687170D01*
X641750Y669670D02*
X691750D01*
X641750D02*
Y717170D01*
X691750D01*
X430970Y613730D02*
Y615980D01*
X485970Y613730D02*
Y615980D01*
X430970Y587980D02*
Y590230D01*
X485970Y587980D02*
Y590230D01*
X430970Y615980D02*
X485970D01*
X430970Y587980D02*
X485970D01*
X412310Y550104D02*
Y552354D01*
X357310Y550104D02*
Y552354D01*
X412310Y575854D02*
Y578104D01*
X357310Y575854D02*
Y578104D01*
Y550104D02*
X412310D01*
X357310Y578104D02*
X412310D01*
X763810Y530110D02*
Y595110D01*
Y530110D02*
X818610D01*
Y595110D01*
X763810D02*
X818610D01*
X701580Y530110D02*
Y595110D01*
Y530110D02*
X756380D01*
Y595110D01*
X701580D02*
X756380D01*
X639350Y530110D02*
Y595110D01*
Y530110D02*
X694150D01*
Y595110D01*
X639350D02*
X694150D01*
X577120D02*
X631920D01*
Y530110D02*
Y595110D01*
X577120Y530110D02*
X631920D01*
X577120D02*
Y595110D01*
X514890D02*
X569690D01*
Y530110D02*
Y595110D01*
X514890Y530110D02*
X569690D01*
X514890D02*
Y595110D01*
X1019398Y530110D02*
Y595110D01*
Y530110D02*
X1074197D01*
Y595110D01*
X1019398D02*
X1074197D01*
X957485Y530110D02*
Y595110D01*
Y530110D02*
X1012285D01*
Y595110D01*
X957485D02*
X1012285D01*
X1040750Y603890D02*
Y620390D01*
Y603890D02*
X1054750D01*
X1040750Y620390D02*
X1054750D01*
X979790Y603890D02*
Y620390D01*
Y603890D02*
X993790D01*
X979790Y620390D02*
X993790D01*
X1104250Y603890D02*
Y620390D01*
Y603890D02*
X1118250D01*
X1104250Y620390D02*
X1118250D01*
X1081310Y530110D02*
Y595110D01*
Y530110D02*
X1136110D01*
Y595110D01*
X1081310D02*
X1136110D01*
X917560Y603890D02*
Y620390D01*
Y603890D02*
X931560D01*
X917560Y620390D02*
X931560D01*
X895573Y530110D02*
Y595110D01*
Y530110D02*
X950372D01*
Y595110D01*
X895573D02*
X950372D01*
X833660Y530110D02*
Y595110D01*
Y530110D02*
X888460D01*
Y595110D01*
X833660D02*
X888460D01*
X855330Y603890D02*
Y620390D01*
Y603890D02*
X869330D01*
X855330Y620390D02*
X869330D01*
X952938Y1141026D02*
X959188D01*
Y1134776D02*
Y1141026D01*
Y1088026D02*
Y1094276D01*
X952938Y1088026D02*
X959188D01*
X906188D02*
X912438D01*
X906188D02*
Y1094276D01*
Y1141026D02*
X912438D01*
X906188Y1134776D02*
Y1141026D01*
X979480Y900700D02*
Y902700D01*
X986480Y900700D02*
Y902700D01*
X986480Y870220D02*
Y872220D01*
X979480Y870220D02*
Y872220D01*
X1016150Y928060D02*
X1018150D01*
X1016150Y921060D02*
X1018150D01*
X987060D02*
X989060D01*
X987060Y928060D02*
X989060D01*
X1016270Y973780D02*
X1018270D01*
X1016270Y966780D02*
X1018270D01*
X861370Y852440D02*
Y854440D01*
X868370Y852440D02*
Y854440D01*
X822650Y852440D02*
Y854440D01*
X815650Y852440D02*
Y854440D01*
X830890Y852440D02*
Y854440D01*
X837890Y852440D02*
Y854440D01*
X442200Y900980D02*
Y937980D01*
X472200Y900980D02*
Y937980D01*
X345680Y902250D02*
Y939250D01*
X375680Y902250D02*
Y939250D01*
X377660Y628840D02*
X404660D01*
X377660Y658940D02*
X404660D01*
X274741Y529470D02*
X284741D01*
X282491Y535470D02*
X284741Y529470D01*
X274741D02*
X276991Y535470D01*
X329642Y641470D02*
X339642D01*
X337392Y635470D02*
X339642Y641470D01*
X329642D02*
X331892Y635470D01*
X340992Y535470D02*
Y635470D01*
X260991Y535470D02*
Y635470D01*
X337392D02*
X340992D01*
X260991D02*
X331892D01*
X260991Y535470D02*
X276991D01*
X282491D02*
X340992D01*
X955660Y1026160D02*
Y1031160D01*
X944260Y1026160D02*
Y1031160D01*
X262140Y917980D02*
X314440D01*
Y1022580D01*
X262140Y917980D02*
Y1022580D01*
X314440D01*
X901798Y1209796D02*
X910298D01*
X888798Y1226296D02*
Y1239796D01*
X968798Y1226296D02*
Y1239796D01*
X947298Y1209796D02*
X955798D01*
X956700Y958540D02*
X958700D01*
X956700Y951540D02*
X958700D01*
X956580Y943300D02*
X958580D01*
X956580Y936300D02*
X958580D01*
X956700Y897580D02*
X958700D01*
X956700Y890580D02*
X958700D01*
X956700Y882340D02*
X958700D01*
X956700Y875340D02*
X958700D01*
X796203Y926100D02*
Y928100D01*
X789203Y926100D02*
Y928100D01*
X432450Y831020D02*
X443450D01*
X432450Y886020D02*
X443450D01*
X404700Y897980D02*
X413700D01*
X404700Y940980D02*
X413700D01*
X898200Y1026310D02*
Y1028310D01*
X905200Y1026310D02*
Y1028310D01*
X1003470Y1027970D02*
Y1031970D01*
X992970Y1027970D02*
Y1031970D01*
X351809Y779020D02*
Y811020D01*
X401809Y779020D02*
Y811020D01*
X351809Y779020D02*
X401809D01*
X351809Y811020D02*
X401809D01*
X888250Y901180D02*
Y963180D01*
X826250Y901180D02*
Y963180D01*
Y901180D02*
X888250D01*
X826250Y963180D02*
X888250D01*
X956580Y982020D02*
X958580D01*
X956580Y989020D02*
X958580D01*
X1239210Y1036590D02*
Y1038590D01*
X1232210Y1036590D02*
Y1038590D01*
X886570Y1175370D02*
Y1177370D01*
X868570Y1175370D02*
Y1177370D01*
X886570Y1187370D02*
Y1189370D01*
X868570Y1187370D02*
Y1189370D01*
Y1175370D02*
X886570D01*
X868570Y1189370D02*
X886570D01*
X1038904Y1141946D02*
Y1149946D01*
X1028904Y1141946D02*
X1038904D01*
Y1163946D02*
Y1171946D01*
X1028904D02*
X1038904D01*
X1038668Y1103336D02*
Y1111336D01*
X1028668Y1103336D02*
X1038668D01*
Y1125336D02*
Y1133336D01*
X1028668D02*
X1038668D01*
X334040Y885220D02*
X389040D01*
X334040Y857220D02*
X389040D01*
X334040Y882970D02*
Y885220D01*
X389040Y882970D02*
Y885220D01*
X334040Y857220D02*
Y859470D01*
X389040Y857220D02*
Y859470D01*
X412310Y587980D02*
Y590230D01*
X357310Y587980D02*
Y590230D01*
X412310Y613730D02*
Y615980D01*
X357310Y613730D02*
Y615980D01*
Y587980D02*
X412310D01*
X357310Y615980D02*
X412310D01*
X933068Y1163716D02*
Y1184716D01*
X927068Y1163716D02*
Y1184716D01*
Y1163716D02*
X933068D01*
X927068Y1184716D02*
X933068D01*
X1216970Y1036590D02*
Y1038590D01*
X1223970Y1036590D02*
Y1038590D01*
D13*
X509490Y546100D02*
G03*
X509490Y546100I-18000J0D01*
G01*
X1242280Y684530D02*
G03*
X1242280Y684530I-18000J0D01*
G01*
X379950Y1244600D02*
G03*
X379950Y1244600I-18000J0D01*
G01*
X428210D02*
G03*
X428210Y1244600I-18000J0D01*
G01*
X463770Y546100D02*
G03*
X463770Y546100I-18000J0D01*
G01*
X1242280Y631190D02*
G03*
X1242280Y631190I-18000J0D01*
G01*
X1246090Y1169670D02*
G03*
X1246090Y1169670I-18000J0D01*
G01*
X554990Y882650D02*
X560070D01*
X551180Y872490D02*
X560070Y882650D01*
Y909320D01*
X546100Y882650D02*
X549910D01*
X538480D02*
X542290D01*
X535305Y879475D02*
X538480Y882650D01*
X528320Y872490D02*
X532130Y876300D01*
X538480Y882650D02*
Y885190D01*
Y892810D02*
Y897890D01*
Y904240D02*
Y909320D01*
X528320Y900430D02*
X538480Y909320D01*
X528320Y900430D02*
X538480Y909320D01*
X541020D01*
X560070D01*
X558800Y908050D02*
X560070Y909320D01*
X551180Y900430D02*
X558800Y908050D01*
X551180Y872490D02*
Y900430D01*
X528320Y872490D02*
Y900430D01*
X551180D01*
Y872490D02*
Y900430D01*
X528320Y872490D02*
X551180D01*
X327660Y1181100D02*
X365760D01*
X327660D02*
Y1188720D01*
Y1266190D01*
X826770Y529590D02*
Y594360D01*
X327660Y1000760D02*
X372110D01*
X327660D02*
Y1176020D01*
X447040Y1142720D02*
Y1165580D01*
X434340Y1142720D02*
X447040D01*
X434340D02*
Y1165580D01*
X447040D01*
X429260Y1142720D02*
Y1165580D01*
X416560Y1142720D02*
X429260D01*
X416560D02*
Y1165580D01*
X429260D01*
Y1114780D02*
Y1137640D01*
X416560Y1114780D02*
X429260D01*
X416560D02*
Y1137640D01*
X429260D01*
X622300Y901700D02*
X645160D01*
X622300D02*
Y914400D01*
X645160D01*
Y901700D02*
Y914400D01*
X622300Y886460D02*
X645160D01*
X622300D02*
Y899160D01*
X645160D01*
Y886460D02*
Y899160D01*
X650240Y610870D02*
X826770D01*
X650240D02*
Y645160D01*
X865810Y628650D02*
X888670D01*
X865810D02*
Y641350D01*
X888670D01*
Y628650D02*
Y641350D01*
X899390Y628650D02*
Y641350D01*
Y628650D02*
X922250D01*
Y641350D01*
X899390D02*
X922250D01*
X950800Y628650D02*
Y641350D01*
X927940D02*
X950800D01*
X927940Y628650D02*
Y641350D01*
Y628650D02*
X950800D01*
X961520D02*
Y641350D01*
Y628650D02*
X984380D01*
Y641350D01*
X961520D02*
X984380D01*
X990070Y628650D02*
X1012930D01*
X990070D02*
Y641350D01*
X1012930D01*
Y628650D02*
Y641350D01*
X1023620Y628650D02*
Y641350D01*
Y628650D02*
X1046480D01*
Y641350D01*
X1023620D02*
X1046480D01*
X1075060Y628650D02*
Y641350D01*
X1052200D02*
X1075060D01*
X1052200Y628650D02*
Y641350D01*
Y628650D02*
X1075060D01*
X1085780Y641350D02*
X1108640D01*
Y628650D02*
Y641350D01*
X1085780Y628650D02*
X1108640D01*
X1085780D02*
Y641350D01*
X1114330Y628650D02*
X1137190D01*
X1114330D02*
Y641350D01*
X1137190D01*
Y628650D02*
Y641350D01*
X837260D02*
X860120D01*
Y628650D02*
Y641350D01*
X837260Y628650D02*
X860120D01*
X837260D02*
Y641350D01*
X623570Y742950D02*
Y765810D01*
X610870Y742950D02*
X623570D01*
X610870D02*
Y765810D01*
X623570D01*
X561340Y742950D02*
Y765810D01*
X548640Y742950D02*
X561340D01*
X548640D02*
Y765810D01*
X561340D01*
X685800Y742950D02*
Y765810D01*
X673100Y742950D02*
X685800D01*
X673100D02*
Y765810D01*
X685800D01*
X810260Y742950D02*
Y765810D01*
X797560Y742950D02*
X810260D01*
X797560D02*
Y765810D01*
X810260D01*
X748030Y742950D02*
Y765810D01*
X735330Y742950D02*
X748030D01*
X735330D02*
Y765810D01*
X748030D01*
X367030Y688340D02*
X400050D01*
X367030Y668020D02*
X400050D01*
X367030Y694690D02*
X400050D01*
X367030Y715010D02*
X400050D01*
X842010Y742950D02*
X854710D01*
Y765810D01*
X842010D02*
X854710D01*
X842010Y742950D02*
Y765810D01*
X904240Y742950D02*
X916940D01*
Y765810D01*
X904240D02*
X916940D01*
X904240Y742950D02*
Y765810D01*
X966470Y742950D02*
X979170D01*
Y765810D01*
X966470D02*
X979170D01*
X966470Y742950D02*
Y765810D01*
X1028700Y742950D02*
X1041400D01*
Y765810D01*
X1028700D02*
X1041400D01*
X1028700Y742950D02*
Y765810D01*
X1090930Y742950D02*
X1103630D01*
Y765810D01*
X1090930D02*
X1103630D01*
X1090930Y742950D02*
Y765810D01*
X711730Y1269090D02*
X724480D01*
X711730Y1037090D02*
Y1269090D01*
X575230Y1298340D02*
Y1323840D01*
X575730D01*
X595730D01*
Y1277840D02*
Y1323840D01*
Y1277840D02*
X613730D01*
Y1324840D01*
X632980D01*
Y1277840D02*
Y1324840D01*
Y1277840D02*
X654230D01*
Y1324340D01*
X674980D01*
Y1277590D02*
Y1324340D01*
Y1277590D02*
X692480D01*
Y1323340D01*
X718230D01*
Y1269090D02*
Y1323340D01*
X556730Y1269090D02*
X711730D01*
X556730Y1037090D02*
Y1269090D01*
X544730D02*
X556730D01*
X544730D02*
Y1335340D01*
X724480D01*
Y1269090D02*
Y1335340D01*
X556730Y1037090D02*
X711730D01*
X630636Y725170D02*
X633175D01*
Y722631D01*
X630636D01*
Y725170D01*
X568306Y725170D02*
X570845D01*
Y722631D01*
X568306D01*
Y725170D01*
X1083564Y661670D02*
X1081025D01*
Y664209D01*
X1083564D01*
Y661670D01*
X1021434Y661670D02*
X1018895D01*
Y664209D01*
X1021434D01*
Y661670D01*
X959304Y661670D02*
X956765D01*
Y664209D01*
X959304D01*
Y661670D01*
X897174Y661670D02*
X894635D01*
Y664209D01*
X897174D01*
Y661670D01*
X835044Y661670D02*
X832505D01*
Y664209D01*
X835044D01*
Y661670D01*
X817626Y725170D02*
X820165D01*
Y722631D01*
X817626D01*
Y725170D01*
X755296Y725170D02*
X757835D01*
Y722631D01*
X755296D01*
Y725170D01*
X692966Y725170D02*
X695505D01*
Y722631D01*
X692966D01*
Y725170D01*
D14*
X1158240Y1226820D02*
G03*
X1158240Y1226820I-12700J0D01*
G01*
X1055370Y1228090D02*
G03*
X1055370Y1228090I-12700J0D01*
G01*
X890190Y1144124D02*
Y1169270D01*
X878506Y1144124D02*
X890190D01*
X878506D02*
Y1171029D01*
X890190D01*
Y1169270D02*
Y1171029D01*
X876220Y1144124D02*
Y1169270D01*
X864536Y1144124D02*
X876220D01*
X864536D02*
Y1171029D01*
X876220D01*
Y1169270D02*
Y1171029D01*
X1173480Y1216660D02*
Y1240790D01*
X1126490Y1253490D02*
X1165606D01*
X1116330Y1216660D02*
Y1240790D01*
X1126490Y1202690D02*
X1165860D01*
X1070610Y1217930D02*
Y1242060D01*
X1023620Y1254760D02*
X1062736D01*
X1013460Y1217930D02*
Y1242060D01*
X1023620Y1203960D02*
X1062990D01*
X631048Y983996D02*
X632064D01*
Y997204D01*
X606156D02*
X632064D01*
X606156Y983996D02*
Y997204D01*
Y983996D02*
X631048D01*
X1005706Y991362D02*
X1030852D01*
Y979678D02*
Y991362D01*
X1003947Y979678D02*
X1030852D01*
X1003947D02*
Y991362D01*
X1005706D01*
X742696Y1252474D02*
X743712D01*
X742696Y1239266D02*
Y1252474D01*
Y1239266D02*
X768604D01*
Y1252474D01*
X743712D02*
X768604D01*
X974598Y933958D02*
X999744D01*
X974598D02*
Y945642D01*
X1001503D01*
Y933958D02*
Y945642D01*
X999744Y933958D02*
X1001503D01*
X944118Y994918D02*
X969264D01*
X944118D02*
Y1006602D01*
X971023D01*
Y994918D02*
Y1006602D01*
X969264Y994918D02*
X971023D01*
X969264Y903478D02*
X971023D01*
Y915162D01*
X944118D02*
X971023D01*
X944118Y903478D02*
Y915162D01*
Y903478D02*
X969264D01*
X878332Y1015238D02*
Y1040384D01*
X866648Y1015238D02*
X878332D01*
X866648D02*
Y1042143D01*
X878332D01*
Y1040384D02*
Y1042143D01*
X864362Y1015118D02*
Y1040264D01*
X852678Y1015118D02*
X864362D01*
X852678D02*
Y1042023D01*
X864362D01*
Y1040264D02*
Y1042023D01*
X824738Y1017016D02*
Y1042162D01*
X836422D01*
Y1015257D02*
Y1042162D01*
X824738Y1015257D02*
X836422D01*
X824738D02*
Y1017016D01*
X798322Y959358D02*
Y984504D01*
X786638Y959358D02*
X798322D01*
X786638D02*
Y986263D01*
X798322D01*
Y984504D02*
Y986263D01*
X1031494Y838708D02*
X1033253D01*
Y850392D01*
X1006348D02*
X1033253D01*
X1006348Y838708D02*
Y850392D01*
Y838708D02*
X1031494D01*
X464820Y1218692D02*
X466090D01*
X464820Y1209802D02*
Y1218692D01*
Y1207008D02*
Y1209802D01*
Y1207008D02*
X492760D01*
Y1218692D01*
X466090D02*
X492760D01*
X491998Y1222756D02*
X493014D01*
Y1235964D01*
X467106D02*
X493014D01*
X467106Y1222756D02*
Y1235964D01*
Y1222756D02*
X491998D01*
X524002Y1263904D02*
Y1265663D01*
X512318D02*
X524002D01*
X512318Y1238758D02*
Y1265663D01*
Y1238758D02*
X524002D01*
Y1263904D01*
X766064Y1223518D02*
X767823D01*
Y1235202D01*
X740918D02*
X767823D01*
X740918Y1223518D02*
Y1235202D01*
Y1223518D02*
X766064D01*
X742076Y1220724D02*
X743092D01*
X742076Y1207516D02*
Y1220724D01*
Y1207516D02*
X767984D01*
Y1220724D01*
X743092D02*
X767984D01*
X478282Y1263904D02*
Y1265663D01*
X466598D02*
X478282D01*
X466598Y1238758D02*
Y1265663D01*
Y1238758D02*
X478282D01*
Y1263904D01*
X493522D02*
Y1265663D01*
X481838D02*
X493522D01*
X481838Y1238758D02*
Y1265663D01*
Y1238758D02*
X493522D01*
Y1263904D01*
X508762D02*
Y1265663D01*
X497078D02*
X508762D01*
X497078Y1238758D02*
Y1265663D01*
Y1238758D02*
X508762D01*
Y1263904D01*
X892302Y1040384D02*
Y1042143D01*
X880618D02*
X892302D01*
X880618Y1015238D02*
Y1042143D01*
Y1015238D02*
X892302D01*
Y1040384D01*
X944137Y930402D02*
X945896D01*
X944137Y918718D02*
Y930402D01*
Y918718D02*
X971042D01*
Y930402D01*
X945896D02*
X971042D01*
X969264Y964438D02*
X971023D01*
Y976122D01*
X944118D02*
X971023D01*
X944118Y964438D02*
Y976122D01*
Y964438D02*
X969264D01*
X974598Y949198D02*
X999744D01*
X974598D02*
Y960882D01*
X1001503D01*
Y949198D02*
Y960882D01*
X999744Y949198D02*
X1001503D01*
X987552Y1040384D02*
Y1042143D01*
X975868D02*
X987552D01*
X975868Y1015238D02*
Y1042143D01*
Y1015238D02*
X987552D01*
Y1040384D01*
X738601Y913537D02*
Y915296D01*
Y913537D02*
X750285D01*
Y940442D01*
X738601D02*
X750285D01*
X738601Y915296D02*
Y940442D01*
X752590Y912622D02*
X754349D01*
X752590Y900938D02*
Y912622D01*
Y900938D02*
X779495D01*
Y912622D01*
X754349D02*
X779495D01*
X973582Y1040144D02*
Y1041903D01*
X961898D02*
X973582D01*
X961898Y1014998D02*
Y1041903D01*
Y1014998D02*
X973582D01*
Y1040144D01*
X926338Y1015137D02*
Y1016896D01*
Y1015137D02*
X938022D01*
Y1042042D01*
X926338D02*
X938022D01*
X926338Y1016896D02*
Y1042042D01*
X911098Y1015137D02*
Y1016896D01*
Y1015137D02*
X922782D01*
Y1042042D01*
X911098D02*
X922782D01*
X911098Y1016896D02*
Y1042042D01*
X850392Y1040384D02*
Y1042143D01*
X838708D02*
X850392D01*
X838708Y1015238D02*
Y1042143D01*
Y1015238D02*
X850392D01*
Y1040384D01*
X888666Y1121892D02*
X889682D01*
Y1135100D01*
X863774D02*
X889682D01*
X863774Y1121892D02*
Y1135100D01*
Y1121892D02*
X888666D01*
X861742Y1107414D02*
X888412D01*
X861742D02*
Y1119098D01*
X889682D01*
Y1116304D02*
Y1119098D01*
Y1107414D02*
Y1116304D01*
X888412Y1107414D02*
X889682D01*
X864790Y1104620D02*
X889682D01*
Y1091412D02*
Y1104620D01*
X863774Y1091412D02*
X889682D01*
X863774D02*
Y1104620D01*
X864790D01*
X1054274Y1152118D02*
Y1177010D01*
X1067482D01*
Y1151102D02*
Y1177010D01*
X1054274Y1151102D02*
X1067482D01*
X1054274D02*
Y1152118D01*
Y1114018D02*
Y1138910D01*
X1067482D01*
Y1113002D02*
Y1138910D01*
X1054274Y1113002D02*
X1067482D01*
X1054274D02*
Y1114018D01*
X990774Y1145768D02*
Y1170660D01*
X1003982D01*
Y1144752D02*
Y1170660D01*
X990774Y1144752D02*
X1003982D01*
X990774D02*
Y1145768D01*
Y1107048D02*
Y1131940D01*
X1003982D01*
Y1106032D02*
Y1131940D01*
X990774Y1106032D02*
X1003982D01*
X990774D02*
Y1107048D01*
X786560Y1263291D02*
X787830D01*
X786560Y1254401D02*
Y1263291D01*
Y1251607D02*
Y1254401D01*
Y1251607D02*
X814500D01*
Y1263291D01*
X787830D02*
X814500D01*
X813308Y1235456D02*
X814324D01*
Y1248664D01*
X788416D02*
X814324D01*
X788416Y1235456D02*
Y1248664D01*
Y1235456D02*
X813308D01*
X786130Y1232662D02*
X787400D01*
X786130Y1223772D02*
Y1232662D01*
Y1220978D02*
Y1223772D01*
Y1220978D02*
X814070D01*
Y1232662D01*
X787400D02*
X814070D01*
X813308Y1204976D02*
X814324D01*
Y1218184D01*
X788416D02*
X814324D01*
X788416Y1204976D02*
Y1218184D01*
Y1204976D02*
X813308D01*
X786130Y1202182D02*
X787400D01*
X786130Y1193292D02*
Y1202182D01*
Y1190498D02*
Y1193292D01*
Y1190498D02*
X814070D01*
Y1202182D01*
X787400D02*
X814070D01*
X813308Y1174496D02*
X814324D01*
Y1187704D01*
X788416D02*
X814324D01*
X788416Y1174496D02*
Y1187704D01*
Y1174496D02*
X813308D01*
X349377Y837438D02*
X374523D01*
X349377D02*
Y849122D01*
X376282D01*
Y837438D02*
Y849122D01*
X374523Y837438D02*
X376282D01*
X331216Y767842D02*
Y792734D01*
X344424D01*
Y766826D02*
Y792734D01*
X331216Y766826D02*
X344424D01*
X331216D02*
Y767842D01*
Y798322D02*
Y823214D01*
X344424D01*
Y797306D02*
Y823214D01*
X331216Y797306D02*
X344424D01*
X331216D02*
Y798322D01*
X365463Y719800D02*
X390609D01*
X365463D02*
Y731484D01*
X392368D01*
Y719800D02*
Y731484D01*
X390609Y719800D02*
X392368D01*
X280162Y877824D02*
X305054D01*
Y864616D02*
Y877824D01*
X279146Y864616D02*
X305054D01*
X279146D02*
Y877824D01*
X280162D01*
X279020Y883158D02*
X305690D01*
X279020D02*
Y894842D01*
X306960D01*
Y892048D02*
Y894842D01*
Y883158D02*
Y892048D01*
X305690Y883158D02*
X306960D01*
X1119124Y1098804D02*
Y1106422D01*
X1124202Y1098804D01*
Y1106422D01*
X1126741D02*
Y1098804D01*
Y1102613D01*
X1131820D01*
Y1106422D01*
Y1098804D01*
X1134359D02*
Y1103882D01*
X1136898Y1106422D01*
X1139437Y1103882D01*
Y1098804D01*
Y1102613D01*
X1134359D01*
X1141977Y1106422D02*
X1147055D01*
X1144516D01*
Y1098804D01*
X1157212D02*
Y1106422D01*
X1159751Y1103882D01*
X1162290Y1106422D01*
Y1098804D01*
X1164829Y1106422D02*
X1167368D01*
X1166099D01*
Y1098804D01*
X1164829D01*
X1167368D01*
X1176255Y1105152D02*
X1174986Y1106422D01*
X1172447D01*
X1171177Y1105152D01*
Y1100074D01*
X1172447Y1098804D01*
X1174986D01*
X1176255Y1100074D01*
X1178795Y1106422D02*
Y1098804D01*
X1183873D01*
X1191491Y1105152D02*
X1190221Y1106422D01*
X1187682D01*
X1186412Y1105152D01*
Y1103882D01*
X1187682Y1102613D01*
X1190221D01*
X1191491Y1101343D01*
Y1100074D01*
X1190221Y1098804D01*
X1187682D01*
X1186412Y1100074D01*
X1119124Y1117851D02*
Y1112773D01*
X1121663Y1110234D01*
X1124202Y1112773D01*
Y1117851D01*
X1131820D02*
X1126741D01*
Y1110234D01*
X1131820D01*
X1126741Y1114043D02*
X1129281D01*
X1134359Y1110234D02*
Y1117851D01*
X1138168D01*
X1139437Y1116582D01*
Y1114043D01*
X1138168Y1112773D01*
X1134359D01*
X1136898D02*
X1139437Y1110234D01*
X1147055Y1116582D02*
X1145785Y1117851D01*
X1143246D01*
X1141977Y1116582D01*
Y1115312D01*
X1143246Y1114043D01*
X1145785D01*
X1147055Y1112773D01*
Y1111504D01*
X1145785Y1110234D01*
X1143246D01*
X1141977Y1111504D01*
X1149594Y1117851D02*
X1152133D01*
X1150864D01*
Y1110234D01*
X1149594D01*
X1152133D01*
X1159751Y1117851D02*
X1157212D01*
X1155942Y1116582D01*
Y1111504D01*
X1157212Y1110234D01*
X1159751D01*
X1161020Y1111504D01*
Y1116582D01*
X1159751Y1117851D01*
X1163560Y1110234D02*
Y1117851D01*
X1168638Y1110234D01*
Y1117851D01*
X1171177Y1115312D02*
X1172447D01*
Y1114043D01*
X1171177D01*
Y1115312D01*
Y1111504D02*
X1172447D01*
Y1110234D01*
X1171177D01*
Y1111504D01*
X1185143Y1116582D02*
X1186412Y1117851D01*
X1188951D01*
X1190221Y1116582D01*
Y1111504D01*
X1188951Y1110234D01*
X1186412D01*
X1185143Y1111504D01*
Y1116582D01*
X1192760Y1110234D02*
Y1111504D01*
X1194030D01*
Y1110234D01*
X1192760D01*
X1199108Y1116582D02*
X1200378Y1117851D01*
X1202917D01*
X1204186Y1116582D01*
Y1115312D01*
X1202917Y1114043D01*
X1201647D01*
X1202917D01*
X1204186Y1112773D01*
Y1111504D01*
X1202917Y1110234D01*
X1200378D01*
X1199108Y1111504D01*
X1124202Y1129282D02*
X1122933Y1130552D01*
X1120394D01*
X1119124Y1129282D01*
Y1124204D01*
X1120394Y1122934D01*
X1122933D01*
X1124202Y1124204D01*
X1130550Y1130552D02*
X1128011D01*
X1126741Y1129282D01*
Y1124204D01*
X1128011Y1122934D01*
X1130550D01*
X1131820Y1124204D01*
Y1129282D01*
X1130550Y1130552D01*
X1134359Y1122934D02*
Y1130552D01*
X1136898Y1128012D01*
X1139437Y1130552D01*
Y1122934D01*
X1141977D02*
Y1130552D01*
X1144516Y1128012D01*
X1147055Y1130552D01*
Y1122934D01*
X1154672Y1129282D02*
X1153403Y1130552D01*
X1150864D01*
X1149594Y1129282D01*
Y1128012D01*
X1150864Y1126743D01*
X1153403D01*
X1154672Y1125473D01*
Y1124204D01*
X1153403Y1122934D01*
X1150864D01*
X1149594Y1124204D01*
X1164829Y1130552D02*
Y1122934D01*
X1168638D01*
X1169908Y1124204D01*
Y1125473D01*
X1168638Y1126743D01*
X1164829D01*
X1168638D01*
X1169908Y1128012D01*
Y1129282D01*
X1168638Y1130552D01*
X1164829D01*
X1176255D02*
X1173716D01*
X1172447Y1129282D01*
Y1124204D01*
X1173716Y1122934D01*
X1176255D01*
X1177525Y1124204D01*
Y1129282D01*
X1176255Y1130552D01*
X1180064Y1122934D02*
Y1128012D01*
X1182604Y1130552D01*
X1185143Y1128012D01*
Y1122934D01*
Y1126743D01*
X1180064D01*
X1187682Y1122934D02*
Y1130552D01*
X1191491D01*
X1192760Y1129282D01*
Y1126743D01*
X1191491Y1125473D01*
X1187682D01*
X1190221D02*
X1192760Y1122934D01*
X1195299Y1130552D02*
Y1122934D01*
X1199108D01*
X1200378Y1124204D01*
Y1129282D01*
X1199108Y1130552D01*
X1195299D01*
D15*
X405040Y668680D02*
G03*
X405040Y668680I-500J0D01*
G01*
Y695350D02*
G03*
X405040Y695350I-500J0D01*
G01*
X863570Y1187370D02*
G03*
X863570Y1187370I-500J0D01*
G01*
D16*
X1082790Y833270D02*
G03*
X1082790Y833270I-1500J0D01*
G01*
D17*
X533400Y939800D02*
X541020Y929640D01*
X527050Y928370D02*
X533400Y939800D01*
X496570Y859790D02*
X506730D01*
X496570D02*
X501650Y872490D01*
X571500Y882650D02*
X582930Y889000D01*
X571500Y897890D02*
X582930Y889000D01*
X533400D02*
X582930D01*
X496570Y859790D02*
X533400Y889000D01*
Y939800D01*
X1039490Y843270D02*
Y1003270D01*
X1253490Y843270D02*
Y1003270D01*
X1129290D02*
X1253490D01*
X1039490D02*
X1098290D01*
X1129290Y843270D02*
X1253490D01*
X1039490D02*
X1098290D01*
X362331Y738124D02*
X401193D01*
Y755142D01*
X362331D02*
X401193D01*
X362331Y738124D02*
Y755142D01*
X831334Y1259333D02*
X830488Y1260180D01*
X828795D01*
X827949Y1259333D01*
Y1255948D01*
X828795Y1255101D01*
X830488D01*
X831334Y1255948D01*
Y1257641D01*
X829641D01*
X833027Y1255101D02*
Y1260180D01*
X835566D01*
X836413Y1259333D01*
Y1257641D01*
X835566Y1256794D01*
X833027D01*
X838105Y1260180D02*
X839798D01*
X838952D01*
Y1255101D01*
X838105D01*
X839798D01*
X844876Y1260180D02*
X843184D01*
X842337Y1259333D01*
Y1255948D01*
X843184Y1255101D01*
X844876D01*
X845723Y1255948D01*
Y1259333D01*
X844876Y1260180D01*
X847416Y1254255D02*
X850801D01*
X855033Y1255101D02*
Y1260180D01*
X852494Y1257641D01*
X855880D01*
X860958Y1255101D02*
X857572D01*
X860958Y1258487D01*
Y1259333D01*
X860111Y1260180D01*
X858419D01*
X857572Y1259333D01*
X831334Y1227583D02*
X830488Y1228430D01*
X828795D01*
X827949Y1227583D01*
Y1224198D01*
X828795Y1223352D01*
X830488D01*
X831334Y1224198D01*
Y1225891D01*
X829641D01*
X833027Y1223352D02*
Y1228430D01*
X835566D01*
X836413Y1227583D01*
Y1225891D01*
X835566Y1225044D01*
X833027D01*
X838105Y1228430D02*
X839798D01*
X838952D01*
Y1223352D01*
X838105D01*
X839798D01*
X844876Y1228430D02*
X843184D01*
X842337Y1227583D01*
Y1224198D01*
X843184Y1223352D01*
X844876D01*
X845723Y1224198D01*
Y1227583D01*
X844876Y1228430D01*
X847416Y1222505D02*
X850801D01*
X855033Y1223352D02*
Y1228430D01*
X852494Y1225891D01*
X855880D01*
X857572Y1223352D02*
X859265D01*
X858419D01*
Y1228430D01*
X857572Y1227583D01*
X831334Y1197608D02*
X830488Y1198455D01*
X828795D01*
X827949Y1197608D01*
Y1194223D01*
X828795Y1193376D01*
X830488D01*
X831334Y1194223D01*
Y1195916D01*
X829641D01*
X833027Y1193376D02*
Y1198455D01*
X835566D01*
X836413Y1197608D01*
Y1195916D01*
X835566Y1195069D01*
X833027D01*
X838105Y1198455D02*
X839798D01*
X838952D01*
Y1193376D01*
X838105D01*
X839798D01*
X844876Y1198455D02*
X843184D01*
X842337Y1197608D01*
Y1194223D01*
X843184Y1193376D01*
X844876D01*
X845723Y1194223D01*
Y1197608D01*
X844876Y1198455D01*
X847416Y1192530D02*
X850801D01*
X855033Y1193376D02*
Y1198455D01*
X852494Y1195916D01*
X855880D01*
X857572Y1197608D02*
X858419Y1198455D01*
X860111D01*
X860958Y1197608D01*
Y1194223D01*
X860111Y1193376D01*
X858419D01*
X857572Y1194223D01*
Y1197608D01*
X1134956Y1264918D02*
X1134109Y1265765D01*
X1132416D01*
X1131570Y1264918D01*
Y1261533D01*
X1132416Y1260686D01*
X1134109D01*
X1134956Y1261533D01*
Y1263226D01*
X1133263D01*
X1136648Y1260686D02*
Y1265765D01*
X1139187D01*
X1140034Y1264918D01*
Y1263226D01*
X1139187Y1262379D01*
X1136648D01*
X1141727Y1265765D02*
X1143419D01*
X1142573D01*
Y1260686D01*
X1141727D01*
X1143419D01*
X1148498Y1265765D02*
X1146805D01*
X1145959Y1264918D01*
Y1261533D01*
X1146805Y1260686D01*
X1148498D01*
X1149344Y1261533D01*
Y1264918D01*
X1148498Y1265765D01*
X1151037Y1259840D02*
X1154423D01*
X1156115Y1264918D02*
X1156962Y1265765D01*
X1158655D01*
X1159501Y1264918D01*
Y1261533D01*
X1158655Y1260686D01*
X1156962D01*
X1156115Y1261533D01*
Y1264918D01*
X1029970Y1261110D02*
Y1266188D01*
X1032509D01*
X1033356Y1265342D01*
Y1263649D01*
X1032509Y1262803D01*
X1029970D01*
X1031663D02*
X1033356Y1261110D01*
X1038434Y1266188D02*
X1035048D01*
Y1261110D01*
X1038434D01*
X1035048Y1263649D02*
X1036741D01*
X1043512Y1265342D02*
X1042666Y1266188D01*
X1040973D01*
X1040127Y1265342D01*
Y1264496D01*
X1040973Y1263649D01*
X1042666D01*
X1043512Y1262803D01*
Y1261956D01*
X1042666Y1261110D01*
X1040973D01*
X1040127Y1261956D01*
X1048591Y1266188D02*
X1045205D01*
Y1261110D01*
X1048591D01*
X1045205Y1263649D02*
X1046898D01*
X1050283Y1266188D02*
X1053669D01*
X1051976D01*
Y1261110D01*
X336217Y1191208D02*
X335371Y1192054D01*
X333678D01*
X332832Y1191208D01*
Y1187822D01*
X333678Y1186976D01*
X335371D01*
X336217Y1187822D01*
Y1189515D01*
X334524D01*
X337910Y1186976D02*
Y1192054D01*
X340449D01*
X341296Y1191208D01*
Y1189515D01*
X340449Y1188669D01*
X337910D01*
X342988Y1192054D02*
X344681D01*
X343835D01*
Y1186976D01*
X342988D01*
X344681D01*
X349759Y1192054D02*
X348067D01*
X347220Y1191208D01*
Y1187822D01*
X348067Y1186976D01*
X349759D01*
X350606Y1187822D01*
Y1191208D01*
X349759Y1192054D01*
X352299Y1186130D02*
X355684D01*
X357377Y1187822D02*
X358223Y1186976D01*
X359916D01*
X360763Y1187822D01*
Y1191208D01*
X359916Y1192054D01*
X358223D01*
X357377Y1191208D01*
Y1190361D01*
X358223Y1189515D01*
X360763D01*
X336126Y1200758D02*
X335279Y1201605D01*
X333586D01*
X332740Y1200758D01*
Y1197373D01*
X333586Y1196526D01*
X335279D01*
X336126Y1197373D01*
Y1199065D01*
X334433D01*
X337818Y1196526D02*
Y1201605D01*
X340358D01*
X341204Y1200758D01*
Y1199065D01*
X340358Y1198219D01*
X337818D01*
X342897Y1201605D02*
X344590D01*
X343743D01*
Y1196526D01*
X342897D01*
X344590D01*
X349668Y1201605D02*
X347975D01*
X347129Y1200758D01*
Y1197373D01*
X347975Y1196526D01*
X349668D01*
X350514Y1197373D01*
Y1200758D01*
X349668Y1201605D01*
X352207Y1195680D02*
X355593D01*
X357285Y1200758D02*
X358132Y1201605D01*
X359825D01*
X360671Y1200758D01*
Y1199912D01*
X359825Y1199065D01*
X360671Y1198219D01*
Y1197373D01*
X359825Y1196526D01*
X358132D01*
X357285Y1197373D01*
Y1198219D01*
X358132Y1199065D01*
X357285Y1199912D01*
Y1200758D01*
X358132Y1199065D02*
X359825D01*
X336126Y1210308D02*
X335279Y1211155D01*
X333586D01*
X332740Y1210308D01*
Y1206923D01*
X333586Y1206076D01*
X335279D01*
X336126Y1206923D01*
Y1208616D01*
X334433D01*
X337818Y1206076D02*
Y1211155D01*
X340358D01*
X341204Y1210308D01*
Y1208616D01*
X340358Y1207769D01*
X337818D01*
X342897Y1211155D02*
X344590D01*
X343743D01*
Y1206076D01*
X342897D01*
X344590D01*
X349668Y1211155D02*
X347975D01*
X347129Y1210308D01*
Y1206923D01*
X347975Y1206076D01*
X349668D01*
X350514Y1206923D01*
Y1210308D01*
X349668Y1211155D01*
X352207Y1205230D02*
X355593D01*
X357285Y1211155D02*
X360671D01*
Y1210308D01*
X357285Y1206923D01*
Y1206076D01*
X1026174Y789515D02*
X1027867D01*
X1027020D01*
Y784436D01*
X1026174D01*
X1027867D01*
X1030406Y783590D02*
X1033791D01*
X1038870Y788668D02*
X1038023Y789515D01*
X1036330D01*
X1035484Y788668D01*
Y785283D01*
X1036330Y784436D01*
X1038023D01*
X1038870Y785283D01*
Y786976D01*
X1037177D01*
X1040562Y784436D02*
Y789515D01*
X1043102D01*
X1043948Y788668D01*
Y786976D01*
X1043102Y786129D01*
X1040562D01*
X1045641Y789515D02*
X1047334D01*
X1046487D01*
Y784436D01*
X1045641D01*
X1047334D01*
X1052412Y789515D02*
X1050719D01*
X1049873Y788668D01*
Y785283D01*
X1050719Y784436D01*
X1052412D01*
X1053258Y785283D01*
Y788668D01*
X1052412Y789515D01*
X1054951Y783590D02*
X1058337D01*
X1060030Y784436D02*
X1061722D01*
X1060876D01*
Y789515D01*
X1060030Y788668D01*
X1064261Y785283D02*
X1065108Y784436D01*
X1066801D01*
X1067647Y785283D01*
Y788668D01*
X1066801Y789515D01*
X1065108D01*
X1064261Y788668D01*
Y787822D01*
X1065108Y786976D01*
X1067647D01*
X1087120Y789515D02*
X1088813D01*
X1087966D01*
Y784436D01*
X1087120D01*
X1088813D01*
X1091352Y783590D02*
X1094737D01*
X1099816Y788668D02*
X1098969Y789515D01*
X1097277D01*
X1096430Y788668D01*
Y785283D01*
X1097277Y784436D01*
X1098969D01*
X1099816Y785283D01*
Y786976D01*
X1098123D01*
X1101509Y784436D02*
Y789515D01*
X1104048D01*
X1104894Y788668D01*
Y786976D01*
X1104048Y786129D01*
X1101509D01*
X1106587Y789515D02*
X1108280D01*
X1107433D01*
Y784436D01*
X1106587D01*
X1108280D01*
X1113358Y789515D02*
X1111665D01*
X1110819Y788668D01*
Y785283D01*
X1111665Y784436D01*
X1113358D01*
X1114204Y785283D01*
Y788668D01*
X1113358Y789515D01*
X1115897Y783590D02*
X1119283D01*
X1124361Y784436D02*
X1120976D01*
X1124361Y787822D01*
Y788668D01*
X1123515Y789515D01*
X1121822D01*
X1120976Y788668D01*
X1126054D02*
X1126900Y789515D01*
X1128593D01*
X1129439Y788668D01*
Y785283D01*
X1128593Y784436D01*
X1126900D01*
X1126054Y785283D01*
Y788668D01*
X904281Y789515D02*
X905974D01*
X905128D01*
Y784436D01*
X904281D01*
X905974D01*
X908513Y783590D02*
X911899D01*
X916977Y788668D02*
X916131Y789515D01*
X914438D01*
X913592Y788668D01*
Y785283D01*
X914438Y784436D01*
X916131D01*
X916977Y785283D01*
Y786976D01*
X915285D01*
X918670Y784436D02*
Y789515D01*
X921209D01*
X922056Y788668D01*
Y786976D01*
X921209Y786129D01*
X918670D01*
X923748Y789515D02*
X925441D01*
X924595D01*
Y784436D01*
X923748D01*
X925441D01*
X930520Y789515D02*
X928827D01*
X927980Y788668D01*
Y785283D01*
X928827Y784436D01*
X930520D01*
X931366Y785283D01*
Y788668D01*
X930520Y789515D01*
X933059Y783590D02*
X936444D01*
X938137Y784436D02*
X939830D01*
X938984D01*
Y789515D01*
X938137Y788668D01*
X945755Y789515D02*
X942369D01*
Y786976D01*
X944062Y787822D01*
X944908D01*
X945755Y786976D01*
Y785283D01*
X944908Y784436D01*
X943216D01*
X942369Y785283D01*
X965228Y789515D02*
X966920D01*
X966074D01*
Y784436D01*
X965228D01*
X966920D01*
X969460Y783590D02*
X972845D01*
X977924Y788668D02*
X977077Y789515D01*
X975384D01*
X974538Y788668D01*
Y785283D01*
X975384Y784436D01*
X977077D01*
X977924Y785283D01*
Y786976D01*
X976231D01*
X979616Y784436D02*
Y789515D01*
X982156D01*
X983002Y788668D01*
Y786976D01*
X982156Y786129D01*
X979616D01*
X984695Y789515D02*
X986387D01*
X985541D01*
Y784436D01*
X984695D01*
X986387D01*
X991466Y789515D02*
X989773D01*
X988927Y788668D01*
Y785283D01*
X989773Y784436D01*
X991466D01*
X992312Y785283D01*
Y788668D01*
X991466Y789515D01*
X994005Y783590D02*
X997391D01*
X999083Y784436D02*
X1000776D01*
X999930D01*
Y789515D01*
X999083Y788668D01*
X1006701Y789515D02*
X1005008Y788668D01*
X1003315Y786976D01*
Y785283D01*
X1004162Y784436D01*
X1005854D01*
X1006701Y785283D01*
Y786129D01*
X1005854Y786976D01*
X1003315D01*
X773429Y789515D02*
X771736D01*
X770890Y788668D01*
Y785283D01*
X771736Y784436D01*
X773429D01*
X774276Y785283D01*
Y788668D01*
X773429Y789515D01*
X775968Y783590D02*
X779354D01*
X784432Y788668D02*
X783586Y789515D01*
X781893D01*
X781047Y788668D01*
Y785283D01*
X781893Y784436D01*
X783586D01*
X784432Y785283D01*
Y786976D01*
X782739D01*
X786125Y784436D02*
Y789515D01*
X788664D01*
X789511Y788668D01*
Y786976D01*
X788664Y786129D01*
X786125D01*
X791203Y789515D02*
X792896D01*
X792050D01*
Y784436D01*
X791203D01*
X792896D01*
X797975Y789515D02*
X796282D01*
X795435Y788668D01*
Y785283D01*
X796282Y784436D01*
X797975D01*
X798821Y785283D01*
Y788668D01*
X797975Y789515D01*
X800514Y783590D02*
X803899D01*
X808978Y789515D02*
X807285Y788668D01*
X805592Y786976D01*
Y785283D01*
X806439Y784436D01*
X808131D01*
X808978Y785283D01*
Y786129D01*
X808131Y786976D01*
X805592D01*
X843335Y789515D02*
X845028D01*
X844182D01*
Y784436D01*
X843335D01*
X845028D01*
X847567Y783590D02*
X850953D01*
X856031Y788668D02*
X855185Y789515D01*
X853492D01*
X852646Y788668D01*
Y785283D01*
X853492Y784436D01*
X855185D01*
X856031Y785283D01*
Y786976D01*
X854339D01*
X857724Y784436D02*
Y789515D01*
X860263D01*
X861110Y788668D01*
Y786976D01*
X860263Y786129D01*
X857724D01*
X862802Y789515D02*
X864495D01*
X863649D01*
Y784436D01*
X862802D01*
X864495D01*
X869574Y789515D02*
X867881D01*
X867034Y788668D01*
Y785283D01*
X867881Y784436D01*
X869574D01*
X870420Y785283D01*
Y788668D01*
X869574Y789515D01*
X872113Y783590D02*
X875498D01*
X877191Y784436D02*
X878884D01*
X878037D01*
Y789515D01*
X877191Y788668D01*
X883962Y784436D02*
Y789515D01*
X881423Y786976D01*
X884809D01*
X648969Y789515D02*
X647276D01*
X646430Y788668D01*
Y785283D01*
X647276Y784436D01*
X648969D01*
X649816Y785283D01*
Y788668D01*
X648969Y789515D01*
X651508Y783590D02*
X654894D01*
X659972Y788668D02*
X659126Y789515D01*
X657433D01*
X656587Y788668D01*
Y785283D01*
X657433Y784436D01*
X659126D01*
X659972Y785283D01*
Y786976D01*
X658279D01*
X661665Y784436D02*
Y789515D01*
X664204D01*
X665051Y788668D01*
Y786976D01*
X664204Y786129D01*
X661665D01*
X666743Y789515D02*
X668436D01*
X667590D01*
Y784436D01*
X666743D01*
X668436D01*
X673515Y789515D02*
X671822D01*
X670975Y788668D01*
Y785283D01*
X671822Y784436D01*
X673515D01*
X674361Y785283D01*
Y788668D01*
X673515Y789515D01*
X676054Y783590D02*
X679439D01*
X683671Y784436D02*
Y789515D01*
X681132Y786976D01*
X684518D01*
X711199Y789515D02*
X709506D01*
X708660Y788668D01*
Y785283D01*
X709506Y784436D01*
X711199D01*
X712046Y785283D01*
Y788668D01*
X711199Y789515D01*
X713738Y783590D02*
X717124D01*
X722202Y788668D02*
X721356Y789515D01*
X719663D01*
X718817Y788668D01*
Y785283D01*
X719663Y784436D01*
X721356D01*
X722202Y785283D01*
Y786976D01*
X720509D01*
X723895Y784436D02*
Y789515D01*
X726434D01*
X727281Y788668D01*
Y786976D01*
X726434Y786129D01*
X723895D01*
X728973Y789515D02*
X730666D01*
X729820D01*
Y784436D01*
X728973D01*
X730666D01*
X735745Y789515D02*
X734052D01*
X733205Y788668D01*
Y785283D01*
X734052Y784436D01*
X735745D01*
X736591Y785283D01*
Y788668D01*
X735745Y789515D01*
X738284Y783590D02*
X741669D01*
X746748Y789515D02*
X743362D01*
Y786976D01*
X745055Y787822D01*
X745901D01*
X746748Y786976D01*
Y785283D01*
X745901Y784436D01*
X744209D01*
X743362Y785283D01*
X586739Y789515D02*
X585046D01*
X584200Y788668D01*
Y785283D01*
X585046Y784436D01*
X586739D01*
X587586Y785283D01*
Y788668D01*
X586739Y789515D01*
X589278Y783590D02*
X592664D01*
X597742Y788668D02*
X596896Y789515D01*
X595203D01*
X594357Y788668D01*
Y785283D01*
X595203Y784436D01*
X596896D01*
X597742Y785283D01*
Y786976D01*
X596049D01*
X599435Y784436D02*
Y789515D01*
X601974D01*
X602821Y788668D01*
Y786976D01*
X601974Y786129D01*
X599435D01*
X604513Y789515D02*
X606206D01*
X605360D01*
Y784436D01*
X604513D01*
X606206D01*
X611285Y789515D02*
X609592D01*
X608745Y788668D01*
Y785283D01*
X609592Y784436D01*
X611285D01*
X612131Y785283D01*
Y788668D01*
X611285Y789515D01*
X613824Y783590D02*
X617209D01*
X618902Y788668D02*
X619748Y789515D01*
X621441D01*
X622288Y788668D01*
Y787822D01*
X621441Y786976D01*
X620595D01*
X621441D01*
X622288Y786129D01*
Y785283D01*
X621441Y784436D01*
X619748D01*
X618902Y785283D01*
X927524Y926253D02*
X926678Y927099D01*
X924985D01*
X924139Y926253D01*
Y922867D01*
X924985Y922021D01*
X926678D01*
X927524Y922867D01*
X929217Y922021D02*
X930910D01*
X930064D01*
Y927099D01*
X929217Y926253D01*
X936835Y922021D02*
X933449D01*
X936835Y925406D01*
Y926253D01*
X935988Y927099D01*
X934296D01*
X933449Y926253D01*
X893657Y1148504D02*
X892811Y1147657D01*
Y1145965D01*
X893657Y1145118D01*
X897043D01*
X897889Y1145965D01*
Y1147657D01*
X897043Y1148504D01*
Y1150196D02*
X897889Y1151043D01*
Y1152736D01*
X897043Y1153582D01*
X893657D01*
X892811Y1152736D01*
Y1151043D01*
X893657Y1150196D01*
X894504D01*
X895350Y1151043D01*
Y1153582D01*
X856827Y1148504D02*
X855981Y1147657D01*
Y1145965D01*
X856827Y1145118D01*
X860213D01*
X861059Y1145965D01*
Y1147657D01*
X860213Y1148504D01*
X856827Y1150196D02*
X855981Y1151043D01*
Y1152736D01*
X856827Y1153582D01*
X857674D01*
X858520Y1152736D01*
X859366Y1153582D01*
X860213D01*
X861059Y1152736D01*
Y1151043D01*
X860213Y1150196D01*
X859366D01*
X858520Y1151043D01*
X857674Y1150196D01*
X856827D01*
X858520Y1151043D02*
Y1152736D01*
X524509Y789515D02*
X522816D01*
X521970Y788668D01*
Y785283D01*
X522816Y784436D01*
X524509D01*
X525356Y785283D01*
Y788668D01*
X524509Y789515D01*
X527048Y783590D02*
X530434D01*
X535512Y788668D02*
X534666Y789515D01*
X532973D01*
X532127Y788668D01*
Y785283D01*
X532973Y784436D01*
X534666D01*
X535512Y785283D01*
Y786976D01*
X533820D01*
X537205Y784436D02*
Y789515D01*
X539744D01*
X540591Y788668D01*
Y786976D01*
X539744Y786129D01*
X537205D01*
X542283Y789515D02*
X543976D01*
X543130D01*
Y784436D01*
X542283D01*
X543976D01*
X549055Y789515D02*
X547362D01*
X546515Y788668D01*
Y785283D01*
X547362Y784436D01*
X549055D01*
X549901Y785283D01*
Y788668D01*
X549055Y789515D01*
X551594Y783590D02*
X554979D01*
X560058Y784436D02*
X556672D01*
X560058Y787822D01*
Y788668D01*
X559211Y789515D01*
X557519D01*
X556672Y788668D01*
X294640Y1029122D02*
X295486Y1029968D01*
X297179D01*
X298026Y1029122D01*
Y1028276D01*
X297179Y1027429D01*
X296333D01*
X297179D01*
X298026Y1026583D01*
Y1025736D01*
X297179Y1024890D01*
X295486D01*
X294640Y1025736D01*
X299718Y1029968D02*
Y1026583D01*
X301411Y1024890D01*
X303104Y1026583D01*
Y1029968D01*
X304797Y1029122D02*
X305643Y1029968D01*
X307336D01*
X308182Y1029122D01*
Y1028276D01*
X307336Y1027429D01*
X306490D01*
X307336D01*
X308182Y1026583D01*
Y1025736D01*
X307336Y1024890D01*
X305643D01*
X304797Y1025736D01*
X272626Y1029122D02*
X271779Y1029968D01*
X270086D01*
X269240Y1029122D01*
Y1025736D01*
X270086Y1024890D01*
X271779D01*
X272626Y1025736D01*
Y1027429D01*
X270933D01*
X274318Y1024890D02*
Y1029968D01*
X277704Y1024890D01*
Y1029968D01*
X279397D02*
Y1024890D01*
X281936D01*
X282782Y1025736D01*
Y1029122D01*
X281936Y1029968D01*
X279397D01*
X331470Y1006686D02*
Y1010072D01*
X333163Y1011765D01*
X334856Y1010072D01*
Y1006686D01*
Y1009226D01*
X331470D01*
X336548Y1011765D02*
Y1006686D01*
X339087D01*
X339934Y1007533D01*
Y1010918D01*
X339087Y1011765D01*
X336548D01*
X345012Y1010918D02*
X344166Y1011765D01*
X342473D01*
X341627Y1010918D01*
Y1007533D01*
X342473Y1006686D01*
X344166D01*
X345012Y1007533D01*
X346705Y1005840D02*
X350091D01*
X355169Y1010918D02*
X354323Y1011765D01*
X352630D01*
X351783Y1010918D01*
Y1007533D01*
X352630Y1006686D01*
X354323D01*
X355169Y1007533D01*
Y1009226D01*
X353476D01*
X356862Y1006686D02*
Y1011765D01*
X360247Y1006686D01*
Y1011765D01*
X361940D02*
Y1006686D01*
X364479D01*
X365326Y1007533D01*
Y1010918D01*
X364479Y1011765D01*
X361940D01*
X331470Y1015576D02*
Y1018962D01*
X333163Y1020655D01*
X334856Y1018962D01*
Y1015576D01*
Y1018116D01*
X331470D01*
X336548Y1020655D02*
Y1015576D01*
X339087D01*
X339934Y1016423D01*
Y1019808D01*
X339087Y1020655D01*
X336548D01*
X345012Y1019808D02*
X344166Y1020655D01*
X342473D01*
X341627Y1019808D01*
Y1016423D01*
X342473Y1015576D01*
X344166D01*
X345012Y1016423D01*
X346705Y1014730D02*
X350091D01*
X354323Y1015576D02*
Y1020655D01*
X351783Y1018116D01*
X355169D01*
X331470Y1025736D02*
Y1029122D01*
X333163Y1030815D01*
X334856Y1029122D01*
Y1025736D01*
Y1028276D01*
X331470D01*
X336548Y1030815D02*
Y1025736D01*
X339087D01*
X339934Y1026583D01*
Y1029968D01*
X339087Y1030815D01*
X336548D01*
X345012Y1029968D02*
X344166Y1030815D01*
X342473D01*
X341627Y1029968D01*
Y1026583D01*
X342473Y1025736D01*
X344166D01*
X345012Y1026583D01*
X346705Y1024890D02*
X350091D01*
X351783Y1029968D02*
X352630Y1030815D01*
X354323D01*
X355169Y1029968D01*
Y1029122D01*
X354323Y1028276D01*
X353476D01*
X354323D01*
X355169Y1027429D01*
Y1026583D01*
X354323Y1025736D01*
X352630D01*
X351783Y1026583D01*
X331470Y1035896D02*
Y1039282D01*
X333163Y1040975D01*
X334856Y1039282D01*
Y1035896D01*
Y1038436D01*
X331470D01*
X336548Y1040975D02*
Y1035896D01*
X339087D01*
X339934Y1036743D01*
Y1040128D01*
X339087Y1040975D01*
X336548D01*
X345012Y1040128D02*
X344166Y1040975D01*
X342473D01*
X341627Y1040128D01*
Y1036743D01*
X342473Y1035896D01*
X344166D01*
X345012Y1036743D01*
X346705Y1035050D02*
X350091D01*
X355169Y1035896D02*
X351783D01*
X355169Y1039282D01*
Y1040128D01*
X354323Y1040975D01*
X352630D01*
X351783Y1040128D01*
X331470Y1046056D02*
Y1049442D01*
X333163Y1051135D01*
X334856Y1049442D01*
Y1046056D01*
Y1048596D01*
X331470D01*
X336548Y1051135D02*
Y1046056D01*
X339087D01*
X339934Y1046903D01*
Y1050288D01*
X339087Y1051135D01*
X336548D01*
X345012Y1050288D02*
X344166Y1051135D01*
X342473D01*
X341627Y1050288D01*
Y1046903D01*
X342473Y1046056D01*
X344166D01*
X345012Y1046903D01*
X346705Y1045210D02*
X350091D01*
X351783Y1046056D02*
X353476D01*
X352630D01*
Y1051135D01*
X351783Y1050288D01*
X464398Y1182371D02*
Y1187449D01*
X466937D01*
X467784Y1186603D01*
Y1184910D01*
X466937Y1184064D01*
X464398D01*
X466091D02*
X467784Y1182371D01*
X469476Y1183217D02*
X470323Y1182371D01*
X472016D01*
X472862Y1183217D01*
Y1186603D01*
X472016Y1187449D01*
X470323D01*
X469476Y1186603D01*
Y1185756D01*
X470323Y1184910D01*
X472862D01*
X467784Y1196763D02*
X466937Y1197609D01*
X465244D01*
X464398Y1196763D01*
Y1193377D01*
X465244Y1192531D01*
X466937D01*
X467784Y1193377D01*
X469476Y1197609D02*
X472862D01*
Y1196763D01*
X469476Y1193377D01*
Y1192531D01*
X464398Y1177289D02*
Y1172211D01*
X466937D01*
X467784Y1173057D01*
Y1176443D01*
X466937Y1177289D01*
X464398D01*
X472016Y1172211D02*
Y1177289D01*
X469476Y1174750D01*
X472862D01*
X263314Y1184909D02*
X261621D01*
X262467D01*
Y1180677D01*
X261621Y1179831D01*
X260774D01*
X259928Y1180677D01*
X265006Y1184063D02*
X265853Y1184909D01*
X267546D01*
X268392Y1184063D01*
Y1183216D01*
X267546Y1182370D01*
X266699D01*
X267546D01*
X268392Y1181524D01*
Y1180677D01*
X267546Y1179831D01*
X265853D01*
X265006Y1180677D01*
X262044Y1041399D02*
X260351D01*
X261197D01*
Y1037167D01*
X260351Y1036321D01*
X259505D01*
X258658Y1037167D01*
X266276Y1036321D02*
Y1041399D01*
X263736Y1038860D01*
X267122D01*
X358988Y1162049D02*
Y1157817D01*
X359835Y1156971D01*
X361527D01*
X362374Y1157817D01*
Y1162049D01*
X367452D02*
X364066D01*
Y1159510D01*
X365759Y1160356D01*
X366606D01*
X367452Y1159510D01*
Y1157817D01*
X366606Y1156971D01*
X364913D01*
X364066Y1157817D01*
X439418Y1172380D02*
X438572Y1171533D01*
Y1169840D01*
X439418Y1168994D01*
X442804D01*
X443650Y1169840D01*
Y1171533D01*
X442804Y1172380D01*
X439418Y1174072D02*
X438572Y1174919D01*
Y1176612D01*
X439418Y1177458D01*
X440265D01*
X441111Y1176612D01*
Y1175765D01*
Y1176612D01*
X441958Y1177458D01*
X442804D01*
X443650Y1176612D01*
Y1174919D01*
X442804Y1174072D01*
X439418Y1179151D02*
X438572Y1179997D01*
Y1181690D01*
X439418Y1182536D01*
X440265D01*
X441111Y1181690D01*
X441958Y1182536D01*
X442804D01*
X443650Y1181690D01*
Y1179997D01*
X442804Y1179151D01*
X441958D01*
X441111Y1179997D01*
X440265Y1179151D01*
X439418D01*
X441111Y1179997D02*
Y1181690D01*
X421638Y1172380D02*
X420792Y1171533D01*
Y1169840D01*
X421638Y1168994D01*
X425024D01*
X425870Y1169840D01*
Y1171533D01*
X425024Y1172380D01*
X421638Y1174072D02*
X420792Y1174919D01*
Y1176612D01*
X421638Y1177458D01*
X422485D01*
X423331Y1176612D01*
Y1175765D01*
Y1176612D01*
X424178Y1177458D01*
X425024D01*
X425870Y1176612D01*
Y1174919D01*
X425024Y1174072D01*
X420792Y1179151D02*
Y1182536D01*
X421638D01*
X425024Y1179151D01*
X425870D01*
X435822Y1118025D02*
X434976Y1117178D01*
Y1115485D01*
X435822Y1114639D01*
X439208D01*
X440054Y1115485D01*
Y1117178D01*
X439208Y1118025D01*
X435822Y1119717D02*
X434976Y1120564D01*
Y1122256D01*
X435822Y1123103D01*
X436669D01*
X437515Y1122256D01*
Y1121410D01*
Y1122256D01*
X438361Y1123103D01*
X439208D01*
X440054Y1122256D01*
Y1120564D01*
X439208Y1119717D01*
X434976Y1128181D02*
X435822Y1126488D01*
X437515Y1124796D01*
X439208D01*
X440054Y1125642D01*
Y1127335D01*
X439208Y1128181D01*
X438361D01*
X437515Y1127335D01*
Y1124796D01*
X897889Y822703D02*
X892811D01*
Y825242D01*
X893657Y826088D01*
X895350D01*
X896196Y825242D01*
Y822703D01*
Y824396D02*
X897889Y826088D01*
Y831167D02*
Y827781D01*
X894503Y831167D01*
X893657D01*
X892811Y830321D01*
Y828628D01*
X893657Y827781D01*
Y832860D02*
X892811Y833706D01*
Y835399D01*
X893657Y836245D01*
X894503D01*
X895350Y835399D01*
X896196Y836245D01*
X897043D01*
X897889Y835399D01*
Y833706D01*
X897043Y832860D01*
X896196D01*
X895350Y833706D01*
X894503Y832860D01*
X893657D01*
X895350Y833706D02*
Y835399D01*
X882789Y822703D02*
X877711D01*
Y825242D01*
X878557Y826088D01*
X880250D01*
X881096Y825242D01*
Y822703D01*
Y824396D02*
X882789Y826088D01*
Y831167D02*
Y827781D01*
X879404Y831167D01*
X878557D01*
X877711Y830321D01*
Y828628D01*
X878557Y827781D01*
X881943Y832860D02*
X882789Y833706D01*
Y835399D01*
X881943Y836245D01*
X878557D01*
X877711Y835399D01*
Y833706D01*
X878557Y832860D01*
X879404D01*
X880250Y833706D01*
Y836245D01*
X852590Y824396D02*
X847511D01*
Y826935D01*
X848358Y827781D01*
X850051D01*
X850897Y826935D01*
Y824396D01*
Y826088D02*
X852590Y827781D01*
X848358Y829474D02*
X847511Y830320D01*
Y832013D01*
X848358Y832860D01*
X849204D01*
X850051Y832013D01*
Y831167D01*
Y832013D01*
X850897Y832860D01*
X851743D01*
X852590Y832013D01*
Y830320D01*
X851743Y829474D01*
X852590Y834552D02*
Y836245D01*
Y835399D01*
X847511D01*
X848358Y834552D01*
X622301Y830158D02*
X626533D01*
X627379Y831005D01*
Y832698D01*
X626533Y833544D01*
X622301D01*
X627379Y835237D02*
Y836930D01*
Y836083D01*
X622301D01*
X623147Y835237D01*
X627379Y839469D02*
Y841162D01*
Y840315D01*
X622301D01*
X623147Y839469D01*
X607484Y909743D02*
X606638Y910589D01*
X604945D01*
X604099Y909743D01*
Y906357D01*
X604945Y905511D01*
X606638D01*
X607484Y906357D01*
X611716Y905511D02*
Y910589D01*
X609177Y908050D01*
X612563D01*
X614256Y909743D02*
X615102Y910589D01*
X616795D01*
X617641Y909743D01*
Y906357D01*
X616795Y905511D01*
X615102D01*
X614256Y906357D01*
Y909743D01*
X607484Y893233D02*
X606638Y894079D01*
X604945D01*
X604099Y893233D01*
Y889847D01*
X604945Y889001D01*
X606638D01*
X607484Y889847D01*
X609177Y893233D02*
X610024Y894079D01*
X611716D01*
X612563Y893233D01*
Y892386D01*
X611716Y891540D01*
X610870D01*
X611716D01*
X612563Y890694D01*
Y889847D01*
X611716Y889001D01*
X610024D01*
X609177Y889847D01*
X614256D02*
X615102Y889001D01*
X616795D01*
X617641Y889847D01*
Y893233D01*
X616795Y894079D01*
X615102D01*
X614256Y893233D01*
Y892386D01*
X615102Y891540D01*
X617641D01*
X566930Y732536D02*
X571162D01*
X572008Y733382D01*
Y735075D01*
X571162Y735922D01*
X566930D01*
Y737614D02*
Y741000D01*
X567776D01*
X571162Y737614D01*
X572008D01*
X504700Y732536D02*
X508932D01*
X509778Y733382D01*
Y735075D01*
X508932Y735922D01*
X504700D01*
Y741000D02*
X505546Y739307D01*
X507239Y737614D01*
X508932D01*
X509778Y738461D01*
Y740154D01*
X508932Y741000D01*
X508085D01*
X507239Y740154D01*
Y737614D01*
X1081026Y724662D02*
X1085258D01*
X1086104Y725508D01*
Y727201D01*
X1085258Y728048D01*
X1081026D01*
X1086104Y729740D02*
Y731433D01*
Y730587D01*
X1081026D01*
X1081872Y729740D01*
X1081026Y737358D02*
X1081872Y735665D01*
X1083565Y733972D01*
X1085258D01*
X1086104Y734819D01*
Y736512D01*
X1085258Y737358D01*
X1084411D01*
X1083565Y736512D01*
Y733972D01*
X1018796Y724662D02*
X1023028D01*
X1023874Y725508D01*
Y727201D01*
X1023028Y728048D01*
X1018796D01*
X1023874Y729740D02*
Y731433D01*
Y730587D01*
X1018796D01*
X1019642Y729740D01*
X1018796Y737358D02*
Y733972D01*
X1021335D01*
X1020488Y735665D01*
Y736512D01*
X1021335Y737358D01*
X1023028D01*
X1023874Y736512D01*
Y734819D01*
X1023028Y733972D01*
X956820Y724662D02*
X961052D01*
X961898Y725508D01*
Y727201D01*
X961052Y728048D01*
X956820D01*
X961898Y729740D02*
Y731433D01*
Y730587D01*
X956820D01*
X957666Y729740D01*
X961898Y736512D02*
X956820D01*
X959359Y733972D01*
Y737358D01*
X894590Y724662D02*
X898822D01*
X899668Y725508D01*
Y727201D01*
X898822Y728048D01*
X894590D01*
X899668Y729740D02*
Y731433D01*
Y730587D01*
X894590D01*
X895436Y729740D01*
Y733972D02*
X894590Y734819D01*
Y736512D01*
X895436Y737358D01*
X896282D01*
X897129Y736512D01*
Y735665D01*
Y736512D01*
X897975Y737358D01*
X898822D01*
X899668Y736512D01*
Y734819D01*
X898822Y733972D01*
X818644Y728472D02*
X822876D01*
X823722Y729318D01*
Y731011D01*
X822876Y731858D01*
X818644D01*
X823722Y733550D02*
Y735243D01*
Y734397D01*
X818644D01*
X819490Y733550D01*
X823722Y741168D02*
Y737782D01*
X820336Y741168D01*
X819490D01*
X818644Y740322D01*
Y738629D01*
X819490Y737782D01*
X753874Y728472D02*
X758106D01*
X758952Y729318D01*
Y731011D01*
X758106Y731858D01*
X753874D01*
X758952Y733550D02*
Y735243D01*
Y734397D01*
X753874D01*
X754720Y733550D01*
Y737782D02*
X753874Y738629D01*
Y740322D01*
X754720Y741168D01*
X758106D01*
X758952Y740322D01*
Y738629D01*
X758106Y737782D01*
X754720D01*
X691644Y732536D02*
X695876D01*
X696722Y733382D01*
Y735075D01*
X695876Y735922D01*
X691644D01*
X695876Y737614D02*
X696722Y738461D01*
Y740154D01*
X695876Y741000D01*
X692490D01*
X691644Y740154D01*
Y738461D01*
X692490Y737614D01*
X693336D01*
X694183Y738461D01*
Y741000D01*
X629414Y732536D02*
X633646D01*
X634492Y733382D01*
Y735075D01*
X633646Y735922D01*
X629414D01*
X630260Y737614D02*
X629414Y738461D01*
Y740154D01*
X630260Y741000D01*
X631106D01*
X631953Y740154D01*
X632799Y741000D01*
X633646D01*
X634492Y740154D01*
Y738461D01*
X633646Y737614D01*
X632799D01*
X631953Y738461D01*
X631106Y737614D01*
X630260D01*
X631953Y738461D02*
Y740154D01*
X426298Y624839D02*
Y619761D01*
X428837D01*
X429684Y620607D01*
Y623993D01*
X428837Y624839D01*
X426298D01*
X431376Y623993D02*
X432223Y624839D01*
X433916D01*
X434762Y623993D01*
Y623146D01*
X433916Y622300D01*
X434762Y621454D01*
Y620607D01*
X433916Y619761D01*
X432223D01*
X431376Y620607D01*
Y621454D01*
X432223Y622300D01*
X431376Y623146D01*
Y623993D01*
X432223Y622300D02*
X433916D01*
X463975Y570229D02*
X467361D01*
X465668D01*
Y565151D01*
X469054D02*
Y570229D01*
X471593D01*
X472439Y569383D01*
Y567690D01*
X471593Y566844D01*
X469054D01*
X474132Y565151D02*
X475825D01*
X474978D01*
Y570229D01*
X474132Y569383D01*
X349252Y547369D02*
Y542291D01*
X351791D01*
X352638Y543137D01*
Y546523D01*
X351791Y547369D01*
X349252D01*
X354330Y542291D02*
X356023D01*
X355177D01*
Y547369D01*
X354330Y546523D01*
X358562D02*
X359409Y547369D01*
X361102D01*
X361948Y546523D01*
Y543137D01*
X361102Y542291D01*
X359409D01*
X358562Y543137D01*
Y546523D01*
X767418Y605026D02*
X765725D01*
X766571D01*
Y600794D01*
X765725Y599948D01*
X764878D01*
X764032Y600794D01*
X769110D02*
X769957Y599948D01*
X771649D01*
X772496Y600794D01*
Y604180D01*
X771649Y605026D01*
X769957D01*
X769110Y604180D01*
Y603334D01*
X769957Y602487D01*
X772496D01*
X705188Y605026D02*
X703495D01*
X704341D01*
Y600794D01*
X703495Y599948D01*
X702648D01*
X701802Y600794D01*
X706880Y604180D02*
X707727Y605026D01*
X709419D01*
X710266Y604180D01*
Y603334D01*
X709419Y602487D01*
X710266Y601641D01*
Y600794D01*
X709419Y599948D01*
X707727D01*
X706880Y600794D01*
Y601641D01*
X707727Y602487D01*
X706880Y603334D01*
Y604180D01*
X707727Y602487D02*
X709419D01*
X642958Y605026D02*
X641265D01*
X642111D01*
Y600794D01*
X641265Y599948D01*
X640418D01*
X639572Y600794D01*
X644650Y605026D02*
X648036D01*
Y604180D01*
X644650Y600794D01*
Y599948D01*
X580728Y605026D02*
X579035D01*
X579881D01*
Y600794D01*
X579035Y599948D01*
X578188D01*
X577342Y600794D01*
X585806Y605026D02*
X584113Y604180D01*
X582420Y602487D01*
Y600794D01*
X583267Y599948D01*
X584959D01*
X585806Y600794D01*
Y601641D01*
X584959Y602487D01*
X582420D01*
X518498Y605026D02*
X516805D01*
X517651D01*
Y600794D01*
X516805Y599948D01*
X515958D01*
X515112Y600794D01*
X523576Y605026D02*
X520190D01*
Y602487D01*
X521883Y603334D01*
X522729D01*
X523576Y602487D01*
Y600794D01*
X522729Y599948D01*
X521037D01*
X520190Y600794D01*
X744408Y618489D02*
X742715D01*
X743562D01*
Y614257D01*
X742715Y613411D01*
X741869D01*
X741023Y614257D01*
X746101Y613411D02*
X747794D01*
X746947D01*
Y618489D01*
X746101Y617643D01*
X750333D02*
X751179Y618489D01*
X752872D01*
X753718Y617643D01*
Y614257D01*
X752872Y613411D01*
X751179D01*
X750333Y614257D01*
Y617643D01*
X762903Y618489D02*
X761210D01*
X762056D01*
Y614257D01*
X761210Y613411D01*
X760364D01*
X759517Y614257D01*
X764595Y613411D02*
X766288D01*
X765442D01*
Y618489D01*
X764595Y617643D01*
X768828Y613411D02*
X770520D01*
X769674D01*
Y618489D01*
X768828Y617643D01*
X779704Y618489D02*
X778012D01*
X778858D01*
Y614257D01*
X778012Y613411D01*
X777165D01*
X776319Y614257D01*
X781397Y613411D02*
X783090D01*
X782244D01*
Y618489D01*
X781397Y617643D01*
X789015Y613411D02*
X785629D01*
X789015Y616796D01*
Y617643D01*
X788168Y618489D01*
X786476D01*
X785629Y617643D01*
X798199Y618489D02*
X796506D01*
X797353D01*
Y614257D01*
X796506Y613411D01*
X795660D01*
X794813Y614257D01*
X799892Y613411D02*
X801584D01*
X800738D01*
Y618489D01*
X799892Y617643D01*
X804124D02*
X804970Y618489D01*
X806663D01*
X807509Y617643D01*
Y616796D01*
X806663Y615950D01*
X805816D01*
X806663D01*
X807509Y615104D01*
Y614257D01*
X806663Y613411D01*
X804970D01*
X804124Y614257D01*
X816693Y618489D02*
X815001D01*
X815847D01*
Y614257D01*
X815001Y613411D01*
X814154D01*
X813308Y614257D01*
X818386Y613411D02*
X820079D01*
X819233D01*
Y618489D01*
X818386Y617643D01*
X825157Y613411D02*
Y618489D01*
X822618Y615950D01*
X826004D01*
X741023Y628649D02*
Y623571D01*
X743562D01*
X744408Y624417D01*
Y627803D01*
X743562Y628649D01*
X741023D01*
X746101Y623571D02*
X747794D01*
X746947D01*
Y628649D01*
X746101Y627803D01*
X750333D02*
X751179Y628649D01*
X752872D01*
X753718Y627803D01*
Y626956D01*
X752872Y626110D01*
X752026D01*
X752872D01*
X753718Y625264D01*
Y624417D01*
X752872Y623571D01*
X751179D01*
X750333Y624417D01*
X741023Y633730D02*
Y638808D01*
X743562D01*
X744408Y637962D01*
Y636269D01*
X743562Y635423D01*
X741023D01*
X742715D02*
X744408Y633730D01*
X749487Y638808D02*
X746101D01*
Y636269D01*
X747794Y637116D01*
X748640D01*
X749487Y636269D01*
Y634576D01*
X748640Y633730D01*
X746947D01*
X746101Y634576D01*
X751179Y637962D02*
X752026Y638808D01*
X753718D01*
X754565Y637962D01*
Y637116D01*
X753718Y636269D01*
X752872D01*
X753718D01*
X754565Y635423D01*
Y634576D01*
X753718Y633730D01*
X752026D01*
X751179Y634576D01*
X795237Y628649D02*
Y623571D01*
X797776D01*
X798622Y624417D01*
Y627803D01*
X797776Y628649D01*
X795237D01*
X800315Y623571D02*
X802008D01*
X801161D01*
Y628649D01*
X800315Y627803D01*
X807933Y628649D02*
X806240Y627803D01*
X804547Y626110D01*
Y624417D01*
X805393Y623571D01*
X807086D01*
X807933Y624417D01*
Y625264D01*
X807086Y626110D01*
X804547D01*
X777165Y628649D02*
Y623571D01*
X779705D01*
X780551Y624417D01*
Y627803D01*
X779705Y628649D01*
X777165D01*
X782244Y623571D02*
X783936D01*
X783090D01*
Y628649D01*
X782244Y627803D01*
X789861Y628649D02*
X786476D01*
Y626110D01*
X788168Y626956D01*
X789015D01*
X789861Y626110D01*
Y624417D01*
X789015Y623571D01*
X787322D01*
X786476Y624417D01*
X670430Y633730D02*
Y638808D01*
X672969D01*
X673816Y637962D01*
Y636269D01*
X672969Y635423D01*
X670430D01*
X672123D02*
X673816Y633730D01*
X678894Y638808D02*
X675508D01*
Y636269D01*
X677201Y637116D01*
X678048D01*
X678894Y636269D01*
Y634576D01*
X678048Y633730D01*
X676355D01*
X675508Y634576D01*
X680587Y633730D02*
X682280D01*
X681433D01*
Y638808D01*
X680587Y637962D01*
X686809Y633730D02*
Y638808D01*
X689348D01*
X690194Y637962D01*
Y636269D01*
X689348Y635423D01*
X686809D01*
X688502D02*
X690194Y633730D01*
X694426D02*
Y638808D01*
X691887Y636269D01*
X695273D01*
X696965Y638808D02*
X700351D01*
Y637962D01*
X696965Y634576D01*
Y633730D01*
X704880D02*
Y638808D01*
X707419D01*
X708266Y637962D01*
Y636269D01*
X707419Y635423D01*
X704880D01*
X706573D02*
X708266Y633730D01*
X713344Y638808D02*
X709958D01*
Y636269D01*
X711651Y637116D01*
X712498D01*
X713344Y636269D01*
Y634576D01*
X712498Y633730D01*
X710805D01*
X709958Y634576D01*
X718422Y633730D02*
X715037D01*
X718422Y637116D01*
Y637962D01*
X717576Y638808D01*
X715883D01*
X715037Y637962D01*
X722951Y633730D02*
Y638808D01*
X725490D01*
X726337Y637962D01*
Y636269D01*
X725490Y635423D01*
X722951D01*
X724644D02*
X726337Y633730D01*
X730569D02*
Y638808D01*
X728030Y636269D01*
X731415D01*
X733108Y637962D02*
X733954Y638808D01*
X735647D01*
X736494Y637962D01*
Y637116D01*
X735647Y636269D01*
X736494Y635423D01*
Y634576D01*
X735647Y633730D01*
X733954D01*
X733108Y634576D01*
Y635423D01*
X733954Y636269D01*
X733108Y637116D01*
Y637962D01*
X733954Y636269D02*
X735647D01*
X759094Y633730D02*
Y638808D01*
X761633D01*
X762479Y637962D01*
Y636269D01*
X761633Y635423D01*
X759094D01*
X760787D02*
X762479Y633730D01*
X766712D02*
Y638808D01*
X764172Y636269D01*
X767558D01*
X769251Y634576D02*
X770097Y633730D01*
X771790D01*
X772636Y634576D01*
Y637962D01*
X771790Y638808D01*
X770097D01*
X769251Y637962D01*
Y637116D01*
X770097Y636269D01*
X772636D01*
X777165Y633730D02*
Y638808D01*
X779705D01*
X780551Y637962D01*
Y636269D01*
X779705Y635423D01*
X777165D01*
X778858D02*
X780551Y633730D01*
X785629Y638808D02*
X782244D01*
Y636269D01*
X783936Y637116D01*
X784783D01*
X785629Y636269D01*
Y634576D01*
X784783Y633730D01*
X783090D01*
X782244Y634576D01*
X789861Y633730D02*
Y638808D01*
X787322Y636269D01*
X790707D01*
X795237Y633730D02*
Y638808D01*
X797776D01*
X798622Y637962D01*
Y636269D01*
X797776Y635423D01*
X795237D01*
X796929D02*
X798622Y633730D01*
X803700Y638808D02*
X800315D01*
Y636269D01*
X802008Y637116D01*
X802854D01*
X803700Y636269D01*
Y634576D01*
X802854Y633730D01*
X801161D01*
X800315Y634576D01*
X805393Y637962D02*
X806240Y638808D01*
X807933D01*
X808779Y637962D01*
Y634576D01*
X807933Y633730D01*
X806240D01*
X805393Y634576D01*
Y637962D01*
X813308Y633730D02*
Y638808D01*
X815847D01*
X816693Y637962D01*
Y636269D01*
X815847Y635423D01*
X813308D01*
X815001D02*
X816693Y633730D01*
X821772Y638808D02*
X818386D01*
Y636269D01*
X820079Y637116D01*
X820925D01*
X821772Y636269D01*
Y634576D01*
X820925Y633730D01*
X819233D01*
X818386Y634576D01*
X826850Y638808D02*
X823465D01*
Y636269D01*
X825157Y637116D01*
X826004D01*
X826850Y636269D01*
Y634576D01*
X826004Y633730D01*
X824311D01*
X823465Y634576D01*
X813308Y628649D02*
Y623571D01*
X815847D01*
X816693Y624417D01*
Y627803D01*
X815847Y628649D01*
X813308D01*
X818386Y623571D02*
X820079D01*
X819233D01*
Y628649D01*
X818386Y627803D01*
X822618Y628649D02*
X826004D01*
Y627803D01*
X822618Y624417D01*
Y623571D01*
X759094Y628649D02*
Y623571D01*
X761633D01*
X762479Y624417D01*
Y627803D01*
X761633Y628649D01*
X759094D01*
X764172Y623571D02*
X765865D01*
X765019D01*
Y628649D01*
X764172Y627803D01*
X770944Y623571D02*
Y628649D01*
X768404Y626110D01*
X771790D01*
X652359Y633730D02*
Y638808D01*
X654898D01*
X655744Y637962D01*
Y636269D01*
X654898Y635423D01*
X652359D01*
X654052D02*
X655744Y633730D01*
X659976D02*
Y638808D01*
X657437Y636269D01*
X660823D01*
X665901Y638808D02*
X664208Y637962D01*
X662516Y636269D01*
Y634576D01*
X663362Y633730D01*
X665055D01*
X665901Y634576D01*
Y635423D01*
X665055Y636269D01*
X662516D01*
X1217509Y713739D02*
X1220894D01*
X1219202D01*
Y708661D01*
X1222587D02*
Y713739D01*
X1225126D01*
X1225973Y712893D01*
Y711200D01*
X1225126Y710354D01*
X1222587D01*
X1227666Y713739D02*
X1231051D01*
Y712893D01*
X1227666Y709507D01*
Y708661D01*
X1111251Y1185333D02*
X1110405Y1186179D01*
X1108712D01*
X1107865Y1185333D01*
Y1184486D01*
X1108712Y1183640D01*
X1110405D01*
X1111251Y1182794D01*
Y1181947D01*
X1110405Y1181101D01*
X1108712D01*
X1107865Y1181947D01*
X1112944Y1186179D02*
Y1181101D01*
X1114636Y1182794D01*
X1116329Y1181101D01*
Y1186179D01*
X1118022Y1181101D02*
X1119715D01*
X1118868D01*
Y1186179D01*
X1118022Y1185333D01*
X1007534Y1186603D02*
X1006688Y1187449D01*
X1004995D01*
X1004149Y1186603D01*
Y1185756D01*
X1004995Y1184910D01*
X1006688D01*
X1007534Y1184064D01*
Y1183217D01*
X1006688Y1182371D01*
X1004995D01*
X1004149Y1183217D01*
X1009227Y1187449D02*
Y1182371D01*
X1010920Y1184064D01*
X1012613Y1182371D01*
Y1187449D01*
X1017691Y1182371D02*
X1014306D01*
X1017691Y1185756D01*
Y1186603D01*
X1016845Y1187449D01*
X1015152D01*
X1014306Y1186603D01*
X355346Y1219452D02*
X358732D01*
X357039D01*
Y1214374D01*
X360424D02*
Y1219452D01*
X362963D01*
X363810Y1218606D01*
Y1216913D01*
X362963Y1216067D01*
X360424D01*
X365503Y1218606D02*
X366349Y1219452D01*
X368042D01*
X368888Y1218606D01*
Y1217760D01*
X368042Y1216913D01*
X367196D01*
X368042D01*
X368888Y1216067D01*
Y1215220D01*
X368042Y1214374D01*
X366349D01*
X365503Y1215220D01*
X403606Y1219452D02*
X406992D01*
X405299D01*
Y1214374D01*
X408684D02*
Y1219452D01*
X411223D01*
X412070Y1218606D01*
Y1216913D01*
X411223Y1216067D01*
X408684D01*
X416302Y1214374D02*
Y1219452D01*
X413763Y1216913D01*
X417148D01*
X903818Y1154429D02*
Y1150197D01*
X904665Y1149351D01*
X906357D01*
X907204Y1150197D01*
Y1154429D01*
X912282Y1149351D02*
X908896D01*
X912282Y1152736D01*
Y1153583D01*
X911436Y1154429D01*
X909743D01*
X908896Y1153583D01*
X996949Y892812D02*
X991871D01*
Y895351D01*
X992717Y896198D01*
X994410D01*
X995256Y895351D01*
Y892812D01*
Y894505D02*
X996949Y896198D01*
Y897890D02*
Y899583D01*
Y898737D01*
X991871D01*
X992717Y897890D01*
Y902122D02*
X991871Y902969D01*
Y904662D01*
X992717Y905508D01*
X993564D01*
X994410Y904662D01*
X995256Y905508D01*
X996103D01*
X996949Y904662D01*
Y902969D01*
X996103Y902122D01*
X995256D01*
X994410Y902969D01*
X993564Y902122D01*
X992717D01*
X994410Y902969D02*
Y904662D01*
X996949Y867412D02*
X991871D01*
Y869951D01*
X992717Y870798D01*
X994410D01*
X995256Y869951D01*
Y867412D01*
Y869105D02*
X996949Y870798D01*
Y872490D02*
Y874183D01*
Y873337D01*
X991871D01*
X992717Y872490D01*
X996103Y876722D02*
X996949Y877569D01*
Y879262D01*
X996103Y880108D01*
X992717D01*
X991871Y879262D01*
Y877569D01*
X992717Y876722D01*
X993564D01*
X994410Y877569D01*
Y880108D01*
X1011769Y908051D02*
Y913129D01*
X1014308D01*
X1015154Y912283D01*
Y910590D01*
X1014308Y909744D01*
X1011769D01*
X1013462D02*
X1015154Y908051D01*
X1020233D02*
X1016847D01*
X1020233Y911436D01*
Y912283D01*
X1019386Y913129D01*
X1017694D01*
X1016847Y912283D01*
X1021926Y913129D02*
X1025311D01*
Y912283D01*
X1021926Y908897D01*
Y908051D01*
X996952D02*
Y913129D01*
X999491D01*
X1000338Y912283D01*
Y910590D01*
X999491Y909744D01*
X996952D01*
X998645D02*
X1000338Y908051D01*
X1002030D02*
X1003723D01*
X1002877D01*
Y913129D01*
X1002030Y912283D01*
X1006262Y913129D02*
X1009648D01*
Y912283D01*
X1006262Y908897D01*
Y908051D01*
X1049989Y967741D02*
Y972819D01*
X1052528D01*
X1053374Y971973D01*
Y970280D01*
X1052528Y969434D01*
X1049989D01*
X1051682D02*
X1053374Y967741D01*
X1058453D02*
X1055067D01*
X1058453Y971126D01*
Y971973D01*
X1057606Y972819D01*
X1055914D01*
X1055067Y971973D01*
X1063531Y972819D02*
X1061838Y971973D01*
X1060146Y970280D01*
Y968587D01*
X1060992Y967741D01*
X1062685D01*
X1063531Y968587D01*
Y969434D01*
X1062685Y970280D01*
X1060146D01*
X495120Y1213575D02*
X501650D01*
X498385Y1210310D02*
Y1216840D01*
X859382Y1112531D02*
X852852D01*
X856117Y1115796D02*
Y1109266D01*
X817700Y1258025D02*
X824230D01*
X820965Y1254760D02*
Y1261290D01*
X817700Y1226275D02*
X824230D01*
X820965Y1223010D02*
Y1229540D01*
X817700Y1195795D02*
X824230D01*
X820965Y1192530D02*
Y1199060D01*
X276660Y888275D02*
X270130D01*
X273395Y891540D02*
Y885010D01*
X344594Y714163D02*
X343748Y715009D01*
X342055D01*
X341209Y714163D01*
Y710777D01*
X342055Y709931D01*
X343748D01*
X344594Y710777D01*
X346287Y714163D02*
X347134Y715009D01*
X348826D01*
X349673Y714163D01*
Y713316D01*
X348826Y712470D01*
X347980D01*
X348826D01*
X349673Y711624D01*
Y710777D01*
X348826Y709931D01*
X347134D01*
X346287Y710777D01*
X351366Y714163D02*
X352212Y715009D01*
X353905D01*
X354751Y714163D01*
Y713316D01*
X353905Y712470D01*
X353058D01*
X353905D01*
X354751Y711624D01*
Y710777D01*
X353905Y709931D01*
X352212D01*
X351366Y710777D01*
X344594Y683683D02*
X343748Y684529D01*
X342055D01*
X341209Y683683D01*
Y680297D01*
X342055Y679451D01*
X343748D01*
X344594Y680297D01*
X346287Y683683D02*
X347134Y684529D01*
X348826D01*
X349673Y683683D01*
Y682836D01*
X348826Y681990D01*
X347980D01*
X348826D01*
X349673Y681144D01*
Y680297D01*
X348826Y679451D01*
X347134D01*
X346287Y680297D01*
X354751Y679451D02*
X351366D01*
X354751Y682836D01*
Y683683D01*
X353905Y684529D01*
X352212D01*
X351366Y683683D01*
X797560Y773430D02*
Y778508D01*
X800099D01*
X800946Y777662D01*
Y775969D01*
X800099Y775123D01*
X797560D01*
X799253D02*
X800946Y773430D01*
X805178D02*
Y778508D01*
X802638Y775969D01*
X806024D01*
X811102Y778508D02*
X807717D01*
Y775969D01*
X809409Y776816D01*
X810256D01*
X811102Y775969D01*
Y774276D01*
X810256Y773430D01*
X808563D01*
X807717Y774276D01*
X1090930Y773430D02*
Y778508D01*
X1093469D01*
X1094316Y777662D01*
Y775969D01*
X1093469Y775123D01*
X1090930D01*
X1092623D02*
X1094316Y773430D01*
X1099394Y778508D02*
X1097701Y777662D01*
X1096008Y775969D01*
Y774276D01*
X1096855Y773430D01*
X1098548D01*
X1099394Y774276D01*
Y775123D01*
X1098548Y775969D01*
X1096008D01*
X1101087Y777662D02*
X1101933Y778508D01*
X1103626D01*
X1104472Y777662D01*
Y774276D01*
X1103626Y773430D01*
X1101933D01*
X1101087Y774276D01*
Y777662D01*
X735330Y773430D02*
Y778508D01*
X737869D01*
X738716Y777662D01*
Y775969D01*
X737869Y775123D01*
X735330D01*
X737023D02*
X738716Y773430D01*
X742947D02*
Y778508D01*
X740408Y775969D01*
X743794D01*
X748026Y773430D02*
Y778508D01*
X745487Y775969D01*
X748872D01*
X1028700Y773430D02*
Y778508D01*
X1031239D01*
X1032086Y777662D01*
Y775969D01*
X1031239Y775123D01*
X1028700D01*
X1030393D02*
X1032086Y773430D01*
X1037164Y778508D02*
X1033778D01*
Y775969D01*
X1035471Y776816D01*
X1036318D01*
X1037164Y775969D01*
Y774276D01*
X1036318Y773430D01*
X1034625D01*
X1033778Y774276D01*
X1038857D02*
X1039703Y773430D01*
X1041396D01*
X1042242Y774276D01*
Y777662D01*
X1041396Y778508D01*
X1039703D01*
X1038857Y777662D01*
Y776816D01*
X1039703Y775969D01*
X1042242D01*
X673100Y773430D02*
Y778508D01*
X675639D01*
X676486Y777662D01*
Y775969D01*
X675639Y775123D01*
X673100D01*
X674793D02*
X676486Y773430D01*
X680717D02*
Y778508D01*
X678178Y775969D01*
X681564D01*
X683257Y777662D02*
X684103Y778508D01*
X685796D01*
X686642Y777662D01*
Y776816D01*
X685796Y775969D01*
X684949D01*
X685796D01*
X686642Y775123D01*
Y774276D01*
X685796Y773430D01*
X684103D01*
X683257Y774276D01*
X966470Y773430D02*
Y778508D01*
X969009D01*
X969856Y777662D01*
Y775969D01*
X969009Y775123D01*
X966470D01*
X968163D02*
X969856Y773430D01*
X974934Y778508D02*
X971548D01*
Y775969D01*
X973241Y776816D01*
X974088D01*
X974934Y775969D01*
Y774276D01*
X974088Y773430D01*
X972395D01*
X971548Y774276D01*
X976627Y777662D02*
X977473Y778508D01*
X979166D01*
X980012Y777662D01*
Y776816D01*
X979166Y775969D01*
X980012Y775123D01*
Y774276D01*
X979166Y773430D01*
X977473D01*
X976627Y774276D01*
Y775123D01*
X977473Y775969D01*
X976627Y776816D01*
Y777662D01*
X977473Y775969D02*
X979166D01*
X610870Y773430D02*
Y778508D01*
X613409D01*
X614256Y777662D01*
Y775969D01*
X613409Y775123D01*
X610870D01*
X612563D02*
X614256Y773430D01*
X618488D02*
Y778508D01*
X615948Y775969D01*
X619334D01*
X624412Y773430D02*
X621027D01*
X624412Y776816D01*
Y777662D01*
X623566Y778508D01*
X621873D01*
X621027Y777662D01*
X904240Y773430D02*
Y778508D01*
X906779D01*
X907626Y777662D01*
Y775969D01*
X906779Y775123D01*
X904240D01*
X905933D02*
X907626Y773430D01*
X912704Y778508D02*
X909318D01*
Y775969D01*
X911011Y776816D01*
X911858D01*
X912704Y775969D01*
Y774276D01*
X911858Y773430D01*
X910165D01*
X909318Y774276D01*
X914397Y778508D02*
X917782D01*
Y777662D01*
X914397Y774276D01*
Y773430D01*
X548640D02*
Y778508D01*
X551179D01*
X552026Y777662D01*
Y775969D01*
X551179Y775123D01*
X548640D01*
X550333D02*
X552026Y773430D01*
X556258D02*
Y778508D01*
X553718Y775969D01*
X557104D01*
X558797Y773430D02*
X560490D01*
X559643D01*
Y778508D01*
X558797Y777662D01*
X842010Y773430D02*
Y778508D01*
X844549D01*
X845396Y777662D01*
Y775969D01*
X844549Y775123D01*
X842010D01*
X843703D02*
X845396Y773430D01*
X850474Y778508D02*
X847088D01*
Y775969D01*
X848781Y776816D01*
X849628D01*
X850474Y775969D01*
Y774276D01*
X849628Y773430D01*
X847935D01*
X847088Y774276D01*
X855552Y778508D02*
X853859Y777662D01*
X852167Y775969D01*
Y774276D01*
X853013Y773430D01*
X854706D01*
X855552Y774276D01*
Y775123D01*
X854706Y775969D01*
X852167D01*
X409789Y533399D02*
X413174D01*
X411482D01*
Y528321D01*
X414867D02*
Y533399D01*
X417406D01*
X418253Y532553D01*
Y530860D01*
X417406Y530014D01*
X414867D01*
X423331Y533399D02*
X421638Y532553D01*
X419946Y530860D01*
Y529167D01*
X420792Y528321D01*
X422485D01*
X423331Y529167D01*
Y530014D01*
X422485Y530860D01*
X419946D01*
X265854Y646429D02*
X264161D01*
X265007D01*
Y642197D01*
X264161Y641351D01*
X263314D01*
X262468Y642197D01*
X270932Y641351D02*
X267546D01*
X270932Y644736D01*
Y645583D01*
X270086Y646429D01*
X268393D01*
X267546Y645583D01*
X323849Y919058D02*
X318771D01*
Y921597D01*
X319617Y922444D01*
X321310D01*
X322156Y921597D01*
Y919058D01*
X323849Y926676D02*
X318771D01*
X321310Y924136D01*
Y927522D01*
X1038098Y1022350D02*
Y1027428D01*
X1040637D01*
X1041484Y1026582D01*
Y1024889D01*
X1040637Y1024043D01*
X1038098D01*
X1046562Y1022350D02*
X1043176D01*
X1046562Y1025736D01*
Y1026582D01*
X1045715Y1027428D01*
X1044023D01*
X1043176Y1026582D01*
X1010378Y858943D02*
X1009531Y859789D01*
X1007839D01*
X1006992Y858943D01*
Y855557D01*
X1007839Y854711D01*
X1009531D01*
X1010378Y855557D01*
X1012070Y854711D02*
X1013763D01*
X1012917D01*
Y859789D01*
X1012070Y858943D01*
X1016302D02*
X1017149Y859789D01*
X1018842D01*
X1019688Y858943D01*
Y858096D01*
X1018842Y857250D01*
X1019688Y856404D01*
Y855557D01*
X1018842Y854711D01*
X1017149D01*
X1016302Y855557D01*
Y856404D01*
X1017149Y857250D01*
X1016302Y858096D01*
Y858943D01*
X1017149Y857250D02*
X1018842D01*
X924139Y937261D02*
Y942339D01*
X926678D01*
X927524Y941493D01*
Y939800D01*
X926678Y938954D01*
X924139D01*
X925832D02*
X927524Y937261D01*
X932603D02*
X929217D01*
X932603Y940646D01*
Y941493D01*
X931756Y942339D01*
X930064D01*
X929217Y941493D01*
X936835Y937261D02*
Y942339D01*
X934296Y939800D01*
X937681D01*
X924139Y952501D02*
Y957579D01*
X926678D01*
X927524Y956733D01*
Y955040D01*
X926678Y954194D01*
X924139D01*
X925832D02*
X927524Y952501D01*
X932603D02*
X929217D01*
X932603Y955886D01*
Y956733D01*
X931756Y957579D01*
X930064D01*
X929217Y956733D01*
X937681Y952501D02*
X934296D01*
X937681Y955886D01*
Y956733D01*
X936835Y957579D01*
X935142D01*
X934296Y956733D01*
X923292Y876301D02*
Y881379D01*
X925832D01*
X926678Y880533D01*
Y878840D01*
X925832Y877994D01*
X923292D01*
X924985D02*
X926678Y876301D01*
X931756D02*
X928371D01*
X931756Y879686D01*
Y880533D01*
X930910Y881379D01*
X929217D01*
X928371Y880533D01*
X933449D02*
X934296Y881379D01*
X935988D01*
X936835Y880533D01*
Y877147D01*
X935988Y876301D01*
X934296D01*
X933449Y877147D01*
Y880533D01*
X924139Y891541D02*
Y896619D01*
X926678D01*
X927524Y895773D01*
Y894080D01*
X926678Y893234D01*
X924139D01*
X925832D02*
X927524Y891541D01*
X929217D02*
X930910D01*
X930064D01*
Y896619D01*
X929217Y895773D01*
X936835Y896619D02*
X935142Y895773D01*
X933449Y894080D01*
Y892387D01*
X934296Y891541D01*
X935988D01*
X936835Y892387D01*
Y893234D01*
X935988Y894080D01*
X933449D01*
X1006688Y999913D02*
X1005841Y1000759D01*
X1004148D01*
X1003302Y999913D01*
Y996527D01*
X1004148Y995681D01*
X1005841D01*
X1006688Y996527D01*
X1008380Y995681D02*
X1010073D01*
X1009227D01*
Y1000759D01*
X1008380Y999913D01*
X1015998Y1000759D02*
X1012612D01*
Y998220D01*
X1014305Y999066D01*
X1015152D01*
X1015998Y998220D01*
Y996527D01*
X1015152Y995681D01*
X1013459D01*
X1012612Y996527D01*
X1010497Y941493D02*
X1009650Y942339D01*
X1007958D01*
X1007111Y941493D01*
Y938107D01*
X1007958Y937261D01*
X1009650D01*
X1010497Y938107D01*
X1012190Y937261D02*
X1013882D01*
X1013036D01*
Y942339D01*
X1012190Y941493D01*
X1016422Y937261D02*
X1018114D01*
X1017268D01*
Y942339D01*
X1016422Y941493D01*
X542714Y1021079D02*
Y1016847D01*
X543561Y1016001D01*
X545254D01*
X546100Y1016847D01*
Y1021079D01*
X547793Y1016001D02*
X549486D01*
X548639D01*
Y1021079D01*
X547793Y1020233D01*
X867690Y822703D02*
X862611D01*
Y825242D01*
X863457Y826088D01*
X865150D01*
X865997Y825242D01*
Y822703D01*
Y824396D02*
X867690Y826088D01*
X863457Y827781D02*
X862611Y828628D01*
Y830321D01*
X863457Y831167D01*
X864304D01*
X865150Y830321D01*
Y829474D01*
Y830321D01*
X865997Y831167D01*
X866843D01*
X867690Y830321D01*
Y828628D01*
X866843Y827781D01*
X863457Y832860D02*
X862611Y833706D01*
Y835399D01*
X863457Y836245D01*
X866843D01*
X867690Y835399D01*
Y833706D01*
X866843Y832860D01*
X863457D01*
X822390Y822703D02*
X817312D01*
Y825242D01*
X818158Y826088D01*
X819851D01*
X820697Y825242D01*
Y822703D01*
Y824396D02*
X822390Y826088D01*
X818158Y827781D02*
X817312Y828628D01*
Y830321D01*
X818158Y831167D01*
X819005D01*
X819851Y830321D01*
Y829474D01*
Y830321D01*
X820697Y831167D01*
X821544D01*
X822390Y830321D01*
Y828628D01*
X821544Y827781D01*
X822390Y835399D02*
X817312D01*
X819851Y832860D01*
Y836245D01*
X837490Y822703D02*
X832411D01*
Y825242D01*
X833258Y826088D01*
X834951D01*
X835797Y825242D01*
Y822703D01*
Y824396D02*
X837490Y826088D01*
X833258Y827781D02*
X832411Y828628D01*
Y830321D01*
X833258Y831167D01*
X834104D01*
X834951Y830321D01*
Y829474D01*
Y830321D01*
X835797Y831167D01*
X836644D01*
X837490Y830321D01*
Y828628D01*
X836644Y827781D01*
X833258Y832860D02*
X832411Y833706D01*
Y835399D01*
X833258Y836245D01*
X834104D01*
X834951Y835399D01*
Y834552D01*
Y835399D01*
X835797Y836245D01*
X836644D01*
X837490Y835399D01*
Y833706D01*
X836644Y832860D01*
X927524Y1002453D02*
X926678Y1003299D01*
X924985D01*
X924139Y1002453D01*
Y999067D01*
X924985Y998221D01*
X926678D01*
X927524Y999067D01*
X932603Y998221D02*
X929217D01*
X932603Y1001606D01*
Y1002453D01*
X931756Y1003299D01*
X930064D01*
X929217Y1002453D01*
X937681Y998221D02*
X934296D01*
X937681Y1001606D01*
Y1002453D01*
X936835Y1003299D01*
X935142D01*
X934296Y1002453D01*
X870797Y1051561D02*
X869951Y1050714D01*
Y1049022D01*
X870797Y1048175D01*
X874183D01*
X875029Y1049022D01*
Y1050714D01*
X874183Y1051561D01*
X875029Y1056639D02*
Y1053254D01*
X871644Y1056639D01*
X870797D01*
X869951Y1055793D01*
Y1054100D01*
X870797Y1053254D01*
X875029Y1058332D02*
Y1060025D01*
Y1059178D01*
X869951D01*
X870797Y1058332D01*
X828887Y1050714D02*
X828041Y1049868D01*
Y1048175D01*
X828887Y1047329D01*
X832273D01*
X833119Y1048175D01*
Y1049868D01*
X832273Y1050714D01*
X833119Y1052407D02*
Y1054100D01*
Y1053254D01*
X828041D01*
X828887Y1052407D01*
X833119Y1059178D02*
X828041D01*
X830580Y1056639D01*
Y1060025D01*
X856827Y1050714D02*
X855981Y1049868D01*
Y1048175D01*
X856827Y1047329D01*
X860213D01*
X861059Y1048175D01*
Y1049868D01*
X860213Y1050714D01*
X861059Y1052407D02*
Y1054100D01*
Y1053254D01*
X855981D01*
X856827Y1052407D01*
Y1056639D02*
X855981Y1057486D01*
Y1059178D01*
X856827Y1060025D01*
X857674D01*
X858520Y1059178D01*
Y1058332D01*
Y1059178D01*
X859366Y1060025D01*
X860213D01*
X861059Y1059178D01*
Y1057486D01*
X860213Y1056639D01*
X1000759Y1047329D02*
X995681D01*
Y1049868D01*
X996527Y1050714D01*
X998220D01*
X999066Y1049868D01*
Y1047329D01*
Y1049022D02*
X1000759Y1050714D01*
X996527Y1052407D02*
X995681Y1053254D01*
Y1054946D01*
X996527Y1055793D01*
X997374D01*
X998220Y1054946D01*
Y1054100D01*
Y1054946D01*
X999066Y1055793D01*
X999913D01*
X1000759Y1054946D01*
Y1053254D01*
X999913Y1052407D01*
X995681Y1060871D02*
Y1057486D01*
X998220D01*
X997374Y1059178D01*
Y1060025D01*
X998220Y1060871D01*
X999913D01*
X1000759Y1060025D01*
Y1058332D01*
X999913Y1057486D01*
X1206246Y661922D02*
X1209632D01*
X1207939D01*
Y656844D01*
X1211324D02*
Y661922D01*
X1213864D01*
X1214710Y661076D01*
Y659383D01*
X1213864Y658537D01*
X1211324D01*
X1219788Y656844D02*
X1216403D01*
X1219788Y660230D01*
Y661076D01*
X1218942Y661922D01*
X1217249D01*
X1216403Y661076D01*
X842012Y1096011D02*
Y1101089D01*
X844551D01*
X845398Y1100243D01*
Y1098550D01*
X844551Y1097704D01*
X842012D01*
X843705D02*
X845398Y1096011D01*
X847090D02*
X848783D01*
X847937D01*
Y1101089D01*
X847090Y1100243D01*
X853862Y1096011D02*
Y1101089D01*
X851322Y1098550D01*
X854708D01*
X1223009Y1053679D02*
X1217931D01*
Y1056218D01*
X1218777Y1057065D01*
X1220470D01*
X1221316Y1056218D01*
Y1053679D01*
Y1055372D02*
X1223009Y1057065D01*
Y1062143D02*
Y1058757D01*
X1219624Y1062143D01*
X1218777D01*
X1217931Y1061296D01*
Y1059604D01*
X1218777Y1058757D01*
Y1063836D02*
X1217931Y1064682D01*
Y1066375D01*
X1218777Y1067221D01*
X1219624D01*
X1220470Y1066375D01*
Y1065528D01*
Y1066375D01*
X1221316Y1067221D01*
X1222163D01*
X1223009Y1066375D01*
Y1064682D01*
X1222163Y1063836D01*
X1238249Y1054525D02*
X1233171D01*
Y1057065D01*
X1234017Y1057911D01*
X1235710D01*
X1236556Y1057065D01*
Y1054525D01*
Y1056218D02*
X1238249Y1057911D01*
Y1062989D02*
Y1059604D01*
X1234864Y1062989D01*
X1234017D01*
X1233171Y1062143D01*
Y1060450D01*
X1234017Y1059604D01*
X1238249Y1064682D02*
Y1066375D01*
Y1065528D01*
X1233171D01*
X1234017Y1064682D01*
X767504Y962659D02*
Y961813D01*
X769197Y960120D01*
X770890Y961813D01*
Y962659D01*
X769197Y960120D02*
Y957581D01*
X772583D02*
X774276D01*
X773429D01*
Y962659D01*
X772583Y961813D01*
X405978Y783589D02*
Y779357D01*
X406824Y778511D01*
X408517D01*
X409364Y779357D01*
Y783589D01*
X413596Y778511D02*
Y783589D01*
X411056Y781050D01*
X414442D01*
X806196Y995932D02*
Y991700D01*
X807042Y990854D01*
X808735D01*
X809582Y991700D01*
Y995932D01*
X811274Y995086D02*
X812121Y995932D01*
X813813D01*
X814660Y995086D01*
Y994240D01*
X813813Y993393D01*
X812967D01*
X813813D01*
X814660Y992547D01*
Y991700D01*
X813813Y990854D01*
X812121D01*
X811274Y991700D01*
X1210056Y1200402D02*
X1213442D01*
X1211749D01*
Y1195324D01*
X1215134D02*
Y1200402D01*
X1217673D01*
X1218520Y1199556D01*
Y1197863D01*
X1217673Y1197017D01*
X1215134D01*
X1223598Y1200402D02*
X1220213D01*
Y1197863D01*
X1221906Y1198710D01*
X1222752D01*
X1223598Y1197863D01*
Y1196170D01*
X1222752Y1195324D01*
X1221059D01*
X1220213Y1196170D01*
X278979Y855981D02*
Y861059D01*
X281518D01*
X282364Y860213D01*
Y858520D01*
X281518Y857674D01*
X278979D01*
X280672D02*
X282364Y855981D01*
X284057Y860213D02*
X284904Y861059D01*
X286596D01*
X287443Y860213D01*
Y859366D01*
X286596Y858520D01*
X285750D01*
X286596D01*
X287443Y857674D01*
Y856827D01*
X286596Y855981D01*
X284904D01*
X284057Y856827D01*
X289136Y860213D02*
X289982Y861059D01*
X291675D01*
X292521Y860213D01*
Y859366D01*
X291675Y858520D01*
X292521Y857674D01*
Y856827D01*
X291675Y855981D01*
X289982D01*
X289136Y856827D01*
Y857674D01*
X289982Y858520D01*
X289136Y859366D01*
Y860213D01*
X289982Y858520D02*
X291675D01*
X341209Y749301D02*
Y754379D01*
X343748D01*
X344594Y753533D01*
Y751840D01*
X343748Y750994D01*
X341209D01*
X342902D02*
X344594Y749301D01*
X348826D02*
Y754379D01*
X346287Y751840D01*
X349673D01*
X351366Y753533D02*
X352212Y754379D01*
X353905D01*
X354751Y753533D01*
Y750147D01*
X353905Y749301D01*
X352212D01*
X351366Y750147D01*
Y753533D01*
X327659Y766659D02*
X322581D01*
Y769198D01*
X323427Y770044D01*
X325120D01*
X325966Y769198D01*
Y766659D01*
Y768352D02*
X327659Y770044D01*
X323427Y771737D02*
X322581Y772584D01*
Y774276D01*
X323427Y775123D01*
X324274D01*
X325120Y774276D01*
Y773430D01*
Y774276D01*
X325966Y775123D01*
X326813D01*
X327659Y774276D01*
Y772584D01*
X326813Y771737D01*
Y776816D02*
X327659Y777662D01*
Y779355D01*
X326813Y780201D01*
X323427D01*
X322581Y779355D01*
Y777662D01*
X323427Y776816D01*
X324274D01*
X325120Y777662D01*
Y780201D01*
X327659Y798409D02*
X322581D01*
Y800948D01*
X323427Y801795D01*
X325120D01*
X325966Y800948D01*
Y798409D01*
Y800102D02*
X327659Y801795D01*
X323427Y803487D02*
X322581Y804334D01*
Y806026D01*
X323427Y806873D01*
X324274D01*
X325120Y806026D01*
Y805180D01*
Y806026D01*
X325966Y806873D01*
X326813D01*
X327659Y806026D01*
Y804334D01*
X326813Y803487D01*
X322581Y808566D02*
Y811951D01*
X323427D01*
X326813Y808566D01*
X327659D01*
X795019Y897469D02*
X789941D01*
Y900008D01*
X790787Y900854D01*
X792480D01*
X793326Y900008D01*
Y897469D01*
Y899162D02*
X795019Y900854D01*
X790787Y902547D02*
X789941Y903394D01*
Y905086D01*
X790787Y905933D01*
X791634D01*
X792480Y905086D01*
Y904240D01*
Y905086D01*
X793326Y905933D01*
X794173D01*
X795019Y905086D01*
Y903394D01*
X794173Y902547D01*
X795019Y911011D02*
Y907626D01*
X791634Y911011D01*
X790787D01*
X789941Y910165D01*
Y908472D01*
X790787Y907626D01*
X904239Y1047329D02*
X899161D01*
Y1049868D01*
X900007Y1050714D01*
X901700D01*
X902546Y1049868D01*
Y1047329D01*
Y1049022D02*
X904239Y1050714D01*
X900007Y1052407D02*
X899161Y1053254D01*
Y1054946D01*
X900007Y1055793D01*
X900854D01*
X901700Y1054946D01*
Y1054100D01*
Y1054946D01*
X902546Y1055793D01*
X903393D01*
X904239Y1054946D01*
Y1053254D01*
X903393Y1052407D01*
X899161Y1060871D02*
X900007Y1059178D01*
X901700Y1057486D01*
X903393D01*
X904239Y1058332D01*
Y1060025D01*
X903393Y1060871D01*
X902546D01*
X901700Y1060025D01*
Y1057486D01*
X924139Y982981D02*
Y988059D01*
X926678D01*
X927524Y987213D01*
Y985520D01*
X926678Y984674D01*
X924139D01*
X925832D02*
X927524Y982981D01*
X932603D02*
X929217D01*
X932603Y986366D01*
Y987213D01*
X931756Y988059D01*
X930064D01*
X929217Y987213D01*
X937681Y988059D02*
X934296D01*
Y985520D01*
X935988Y986366D01*
X936835D01*
X937681Y985520D01*
Y983827D01*
X936835Y982981D01*
X935142D01*
X934296Y983827D01*
X1075689Y1151892D02*
X1070611D01*
Y1154431D01*
X1071457Y1155278D01*
X1073150D01*
X1073996Y1154431D01*
Y1151892D01*
Y1153585D02*
X1075689Y1155278D01*
Y1156970D02*
Y1158663D01*
Y1157817D01*
X1070611D01*
X1071457Y1156970D01*
X1070611Y1164588D02*
Y1161202D01*
X1073150D01*
X1072304Y1162895D01*
Y1163742D01*
X1073150Y1164588D01*
X1074843D01*
X1075689Y1163742D01*
Y1162049D01*
X1074843Y1161202D01*
X984249Y1151892D02*
X979171D01*
Y1154431D01*
X980017Y1155278D01*
X981710D01*
X982556Y1154431D01*
Y1151892D01*
Y1153585D02*
X984249Y1155278D01*
Y1156970D02*
Y1158663D01*
Y1157817D01*
X979171D01*
X980017Y1156970D01*
Y1161202D02*
X979171Y1162049D01*
Y1163742D01*
X980017Y1164588D01*
X980864D01*
X981710Y1163742D01*
Y1162895D01*
Y1163742D01*
X982556Y1164588D01*
X983403D01*
X984249Y1163742D01*
Y1162049D01*
X983403Y1161202D01*
X984249Y1112522D02*
X979171D01*
Y1115061D01*
X980017Y1115908D01*
X981710D01*
X982556Y1115061D01*
Y1112522D01*
Y1114215D02*
X984249Y1115908D01*
Y1117600D02*
Y1119293D01*
Y1118447D01*
X979171D01*
X980017Y1117600D01*
X984249Y1125218D02*
Y1121832D01*
X980864Y1125218D01*
X980017D01*
X979171Y1124372D01*
Y1122679D01*
X980017Y1121832D01*
X842859Y1125221D02*
Y1130299D01*
X845398D01*
X846244Y1129453D01*
Y1127760D01*
X845398Y1126914D01*
X842859D01*
X844551D02*
X846244Y1125221D01*
X847937D02*
X849630D01*
X848783D01*
Y1130299D01*
X847937Y1129453D01*
X852169Y1125221D02*
X853862D01*
X853015D01*
Y1130299D01*
X852169Y1129453D01*
X1075689Y1112522D02*
X1070611D01*
Y1115061D01*
X1071457Y1115908D01*
X1073150D01*
X1073996Y1115061D01*
Y1112522D01*
Y1114215D02*
X1075689Y1115908D01*
Y1117600D02*
Y1119293D01*
Y1118447D01*
X1070611D01*
X1071457Y1117600D01*
Y1121832D02*
X1070611Y1122679D01*
Y1124372D01*
X1071457Y1125218D01*
X1074843D01*
X1075689Y1124372D01*
Y1122679D01*
X1074843Y1121832D01*
X1071457D01*
X743156Y1193801D02*
Y1198879D01*
X745695D01*
X746542Y1198033D01*
Y1196340D01*
X745695Y1195494D01*
X743156D01*
X744849D02*
X746542Y1193801D01*
X751620Y1198879D02*
X748234D01*
Y1196340D01*
X749927Y1197186D01*
X750774D01*
X751620Y1196340D01*
Y1194647D01*
X750774Y1193801D01*
X749081D01*
X748234Y1194647D01*
X635848Y988061D02*
Y993139D01*
X638387D01*
X639234Y992293D01*
Y990600D01*
X638387Y989754D01*
X635848D01*
X637541D02*
X639234Y988061D01*
X643466D02*
Y993139D01*
X640926Y990600D01*
X644312D01*
X774547Y1177763D02*
Y1182841D01*
X777086D01*
X777932Y1181995D01*
Y1180302D01*
X777086Y1179456D01*
X774547D01*
X776240D02*
X777932Y1177763D01*
X783011Y1182841D02*
X781318Y1181995D01*
X779625Y1180302D01*
Y1178609D01*
X780472Y1177763D01*
X782164D01*
X783011Y1178609D01*
Y1179456D01*
X782164Y1180302D01*
X779625D01*
X774547Y1208562D02*
Y1213640D01*
X777086D01*
X777932Y1212794D01*
Y1211101D01*
X777086Y1210255D01*
X774547D01*
X776240D02*
X777932Y1208562D01*
X779625Y1213640D02*
X783011D01*
Y1212794D01*
X779625Y1209408D01*
Y1208562D01*
X774547Y1239361D02*
Y1244440D01*
X777086D01*
X777932Y1243593D01*
Y1241900D01*
X777086Y1241054D01*
X774547D01*
X776240D02*
X777932Y1239361D01*
X779625Y1243593D02*
X780472Y1244440D01*
X782164D01*
X783011Y1243593D01*
Y1242747D01*
X782164Y1241900D01*
X783011Y1241054D01*
Y1240208D01*
X782164Y1239361D01*
X780472D01*
X779625Y1240208D01*
Y1241054D01*
X780472Y1241900D01*
X779625Y1242747D01*
Y1243593D01*
X780472Y1241900D02*
X782164D01*
X743156Y1174751D02*
Y1179829D01*
X745695D01*
X746542Y1178983D01*
Y1177290D01*
X745695Y1176444D01*
X743156D01*
X744849D02*
X746542Y1174751D01*
X751620D02*
X748234D01*
X751620Y1178136D01*
Y1178983D01*
X750774Y1179829D01*
X749081D01*
X748234Y1178983D01*
X1034204Y1178137D02*
Y1181523D01*
X1033357Y1182369D01*
X1031665D01*
X1030818Y1181523D01*
Y1178137D01*
X1031665Y1177291D01*
X1033357D01*
X1032511Y1178984D02*
X1034204Y1177291D01*
X1033357D02*
X1034204Y1178137D01*
X1039282Y1177291D02*
X1035896D01*
X1039282Y1180676D01*
Y1181523D01*
X1038436Y1182369D01*
X1036743D01*
X1035896Y1181523D01*
X1035050Y1093047D02*
Y1096433D01*
X1034204Y1097279D01*
X1032511D01*
X1031664Y1096433D01*
Y1093047D01*
X1032511Y1092201D01*
X1034204D01*
X1033357Y1093894D02*
X1035050Y1092201D01*
X1034204D02*
X1035050Y1093047D01*
X1036743Y1092201D02*
X1038436D01*
X1037589D01*
Y1097279D01*
X1036743Y1096433D01*
X385658Y952499D02*
Y947421D01*
X389044D01*
X390736Y951653D02*
X391583Y952499D01*
X393276D01*
X394122Y951653D01*
Y950806D01*
X393276Y949960D01*
X392429D01*
X393276D01*
X394122Y949114D01*
Y948267D01*
X393276Y947421D01*
X391583D01*
X390736Y948267D01*
X412328Y826769D02*
Y821691D01*
X415714D01*
X420792D02*
X417406D01*
X420792Y825076D01*
Y825923D01*
X419946Y826769D01*
X418253D01*
X417406Y825923D01*
X947421Y1048599D02*
X952499D01*
Y1051984D01*
Y1053677D02*
Y1055370D01*
Y1054524D01*
X947421D01*
X948267Y1053677D01*
X871220Y1262379D02*
X869527D01*
X870374D01*
Y1258147D01*
X869527Y1257301D01*
X868681D01*
X867834Y1258147D01*
X872913Y1257301D02*
X874606D01*
X873759D01*
Y1262379D01*
X872913Y1261533D01*
X354330Y659129D02*
X350944D01*
Y656590D01*
X352637D01*
X350944D01*
Y654051D01*
X356023D02*
X357716D01*
X356869D01*
Y659129D01*
X356023Y658283D01*
X278979Y902969D02*
Y897891D01*
X281518D01*
X282364Y898737D01*
Y902123D01*
X281518Y902969D01*
X278979D01*
X284057Y897891D02*
X285750D01*
X284903D01*
Y902969D01*
X284057Y902123D01*
X288289Y897891D02*
X289982D01*
X289135D01*
Y902969D01*
X288289Y902123D01*
X349252Y623569D02*
Y618491D01*
X351791D01*
X352638Y619337D01*
Y622723D01*
X351791Y623569D01*
X349252D01*
X354330Y618491D02*
X356023D01*
X355177D01*
Y623569D01*
X354330Y622723D01*
X361948Y618491D02*
X358562D01*
X361948Y621876D01*
Y622723D01*
X361102Y623569D01*
X359409D01*
X358562Y622723D01*
X329778Y853439D02*
Y848361D01*
X332317D01*
X333164Y849207D01*
Y852593D01*
X332317Y853439D01*
X329778D01*
X334856Y849207D02*
X335703Y848361D01*
X337396D01*
X338242Y849207D01*
Y852593D01*
X337396Y853439D01*
X335703D01*
X334856Y852593D01*
Y851746D01*
X335703Y850900D01*
X338242D01*
X913892Y1202180D02*
Y1197102D01*
X916431D01*
X917278Y1197948D01*
Y1201334D01*
X916431Y1202180D01*
X913892D01*
X918970D02*
X922356D01*
Y1201334D01*
X918970Y1197948D01*
Y1197102D01*
X868258Y1197609D02*
Y1192531D01*
X870797D01*
X871644Y1193377D01*
Y1196763D01*
X870797Y1197609D01*
X868258D01*
X876722D02*
X875029Y1196763D01*
X873336Y1195070D01*
Y1193377D01*
X874183Y1192531D01*
X875876D01*
X876722Y1193377D01*
Y1194224D01*
X875876Y1195070D01*
X873336D01*
X842858Y1115059D02*
Y1109981D01*
X845397D01*
X846244Y1110827D01*
Y1114213D01*
X845397Y1115059D01*
X842858D01*
X851322D02*
X847936D01*
Y1112520D01*
X849629Y1113366D01*
X850476D01*
X851322Y1112520D01*
Y1110827D01*
X850476Y1109981D01*
X848783D01*
X847936Y1110827D01*
X776240Y1198241D02*
Y1193163D01*
X778779D01*
X779625Y1194009D01*
Y1197394D01*
X778779Y1198241D01*
X776240D01*
X781318Y1193163D02*
X783011D01*
X782164D01*
Y1198241D01*
X781318Y1197394D01*
X774547Y1229040D02*
Y1223962D01*
X777086D01*
X777932Y1224808D01*
Y1228194D01*
X777086Y1229040D01*
X774547D01*
X783011Y1223962D02*
X779625D01*
X783011Y1227347D01*
Y1228194D01*
X782164Y1229040D01*
X780472D01*
X779625Y1228194D01*
X774547Y1259839D02*
Y1254761D01*
X777086D01*
X777932Y1255607D01*
Y1258993D01*
X777086Y1259839D01*
X774547D01*
X779625Y1258993D02*
X780472Y1259839D01*
X782164D01*
X783011Y1258993D01*
Y1258146D01*
X782164Y1257300D01*
X781318D01*
X782164D01*
X783011Y1256454D01*
Y1255607D01*
X782164Y1254761D01*
X780472D01*
X779625Y1255607D01*
X335704Y843703D02*
X334858Y844549D01*
X333165D01*
X332319Y843703D01*
Y840317D01*
X333165Y839471D01*
X334858D01*
X335704Y840317D01*
X337397Y843703D02*
X338244Y844549D01*
X339936D01*
X340783Y843703D01*
Y842856D01*
X339936Y842010D01*
X339090D01*
X339936D01*
X340783Y841164D01*
Y840317D01*
X339936Y839471D01*
X338244D01*
X337397Y840317D01*
X345861Y844549D02*
X342476D01*
Y842010D01*
X344168Y842856D01*
X345015D01*
X345861Y842010D01*
Y840317D01*
X345015Y839471D01*
X343322D01*
X342476Y840317D01*
X344594Y730673D02*
X343748Y731519D01*
X342055D01*
X341209Y730673D01*
Y727287D01*
X342055Y726441D01*
X343748D01*
X344594Y727287D01*
X346287Y730673D02*
X347134Y731519D01*
X348826D01*
X349673Y730673D01*
Y729826D01*
X348826Y728980D01*
X347980D01*
X348826D01*
X349673Y728134D01*
Y727287D01*
X348826Y726441D01*
X347134D01*
X346287Y727287D01*
X353905Y726441D02*
Y731519D01*
X351366Y728980D01*
X354751D01*
X337397Y908051D02*
X336551Y907205D01*
Y905512D01*
X337397Y904665D01*
X340783D01*
X341629Y905512D01*
Y907205D01*
X340783Y908051D01*
X337397Y909744D02*
X336551Y910590D01*
Y912283D01*
X337397Y913129D01*
X338244D01*
X339090Y912283D01*
Y911436D01*
Y912283D01*
X339936Y913129D01*
X340783D01*
X341629Y912283D01*
Y910590D01*
X340783Y909744D01*
X341629Y914822D02*
Y916515D01*
Y915668D01*
X336551D01*
X337397Y914822D01*
X475827Y903394D02*
X474981Y902548D01*
Y900855D01*
X475827Y900009D01*
X479213D01*
X480059Y900855D01*
Y902548D01*
X479213Y903394D01*
X475827Y905087D02*
X474981Y905934D01*
Y907626D01*
X475827Y908473D01*
X476674D01*
X477520Y907626D01*
Y906780D01*
Y907626D01*
X478366Y908473D01*
X479213D01*
X480059Y907626D01*
Y905934D01*
X479213Y905087D01*
X475827Y910166D02*
X474981Y911012D01*
Y912705D01*
X475827Y913551D01*
X479213D01*
X480059Y912705D01*
Y911012D01*
X479213Y910166D01*
X475827D01*
X915247Y1050714D02*
X914401Y1049868D01*
Y1048175D01*
X915247Y1047329D01*
X918633D01*
X919479Y1048175D01*
Y1049868D01*
X918633Y1050714D01*
X919479Y1055793D02*
Y1052407D01*
X916094Y1055793D01*
X915247D01*
X914401Y1054946D01*
Y1053254D01*
X915247Y1052407D01*
X918633Y1057486D02*
X919479Y1058332D01*
Y1060025D01*
X918633Y1060871D01*
X915247D01*
X914401Y1060025D01*
Y1058332D01*
X915247Y1057486D01*
X916094D01*
X916940Y1058332D01*
Y1060871D01*
X930487Y1050714D02*
X929641Y1049868D01*
Y1048175D01*
X930487Y1047329D01*
X933873D01*
X934719Y1048175D01*
Y1049868D01*
X933873Y1050714D01*
X934719Y1055793D02*
Y1052407D01*
X931334Y1055793D01*
X930487D01*
X929641Y1054946D01*
Y1053254D01*
X930487Y1052407D01*
Y1057486D02*
X929641Y1058332D01*
Y1060025D01*
X930487Y1060871D01*
X931334D01*
X932180Y1060025D01*
X933026Y1060871D01*
X933873D01*
X934719Y1060025D01*
Y1058332D01*
X933873Y1057486D01*
X933026D01*
X932180Y1058332D01*
X931334Y1057486D01*
X930487D01*
X932180Y1058332D02*
Y1060025D01*
X966047Y1050714D02*
X965201Y1049868D01*
Y1048175D01*
X966047Y1047329D01*
X969433D01*
X970279Y1048175D01*
Y1049868D01*
X969433Y1050714D01*
X970279Y1055793D02*
Y1052407D01*
X966894Y1055793D01*
X966047D01*
X965201Y1054946D01*
Y1053254D01*
X966047Y1052407D01*
X965201Y1057486D02*
Y1060871D01*
X966047D01*
X969433Y1057486D01*
X970279D01*
X842857Y1050714D02*
X842011Y1049868D01*
Y1048175D01*
X842857Y1047329D01*
X846243D01*
X847089Y1048175D01*
Y1049868D01*
X846243Y1050714D01*
X847089Y1055793D02*
Y1052407D01*
X843704Y1055793D01*
X842857D01*
X842011Y1054946D01*
Y1053254D01*
X842857Y1052407D01*
X847089Y1060025D02*
X842011D01*
X844550Y1057486D01*
Y1060871D01*
X884767Y1050714D02*
X883921Y1049868D01*
Y1048175D01*
X884767Y1047329D01*
X888153D01*
X888999Y1048175D01*
Y1049868D01*
X888153Y1050714D01*
X888999Y1055793D02*
Y1052407D01*
X885614Y1055793D01*
X884767D01*
X883921Y1054946D01*
Y1053254D01*
X884767Y1052407D01*
Y1057486D02*
X883921Y1058332D01*
Y1060025D01*
X884767Y1060871D01*
X885614D01*
X886460Y1060025D01*
Y1059178D01*
Y1060025D01*
X887306Y1060871D01*
X888153D01*
X888999Y1060025D01*
Y1058332D01*
X888153Y1057486D01*
X980017Y1050291D02*
X979171Y1049445D01*
Y1047752D01*
X980017Y1046906D01*
X983403D01*
X984249Y1047752D01*
Y1049445D01*
X983403Y1050291D01*
X984249Y1055370D02*
Y1051984D01*
X980864Y1055370D01*
X980017D01*
X979171Y1054523D01*
Y1052831D01*
X980017Y1051984D01*
X979171Y1060448D02*
X980017Y1058755D01*
X981710Y1057062D01*
X983403D01*
X984249Y1057909D01*
Y1059602D01*
X983403Y1060448D01*
X982556D01*
X981710Y1059602D01*
Y1057062D01*
X780327Y963780D02*
X779481Y962933D01*
Y961240D01*
X780327Y960394D01*
X783713D01*
X784559Y961240D01*
Y962933D01*
X783713Y963780D01*
X784559Y968858D02*
Y965472D01*
X781174Y968858D01*
X780327D01*
X779481Y968011D01*
Y966319D01*
X780327Y965472D01*
X779481Y973936D02*
Y970551D01*
X782020D01*
X781174Y972243D01*
Y973090D01*
X782020Y973936D01*
X783713D01*
X784559Y973090D01*
Y971397D01*
X783713Y970551D01*
X764118Y894503D02*
X763271Y895349D01*
X761579D01*
X760732Y894503D01*
Y891117D01*
X761579Y890271D01*
X763271D01*
X764118Y891117D01*
X765810Y890271D02*
X767503D01*
X766657D01*
Y895349D01*
X765810Y894503D01*
X770042Y895349D02*
X773428D01*
Y894503D01*
X770042Y891117D01*
Y890271D01*
X927524Y971973D02*
X926678Y972819D01*
X924985D01*
X924139Y971973D01*
Y968587D01*
X924985Y967741D01*
X926678D01*
X927524Y968587D01*
X932603Y967741D02*
X929217D01*
X932603Y971126D01*
Y971973D01*
X931756Y972819D01*
X930064D01*
X929217Y971973D01*
X934296D02*
X935142Y972819D01*
X936835D01*
X937681Y971973D01*
Y968587D01*
X936835Y967741D01*
X935142D01*
X934296Y968587D01*
Y971973D01*
X927101Y911013D02*
X926255Y911859D01*
X924562D01*
X923716Y911013D01*
Y907627D01*
X924562Y906781D01*
X926255D01*
X927101Y907627D01*
X928794Y906781D02*
X930487D01*
X929640D01*
Y911859D01*
X928794Y911013D01*
X933026Y907627D02*
X933872Y906781D01*
X935565D01*
X936412Y907627D01*
Y911013D01*
X935565Y911859D01*
X933872D01*
X933026Y911013D01*
Y910166D01*
X933872Y909320D01*
X936412D01*
X731097Y917788D02*
X730251Y916941D01*
Y915248D01*
X731097Y914402D01*
X734483D01*
X735329Y915248D01*
Y916941D01*
X734483Y917788D01*
X735329Y919480D02*
Y921173D01*
Y920327D01*
X730251D01*
X731097Y919480D01*
X730251Y927098D02*
X731097Y925405D01*
X732790Y923712D01*
X734483D01*
X735329Y924559D01*
Y926252D01*
X734483Y927098D01*
X733636D01*
X732790Y926252D01*
Y923712D01*
X1008804Y956733D02*
X1007958Y957579D01*
X1006265D01*
X1005418Y956733D01*
Y953347D01*
X1006265Y952501D01*
X1007958D01*
X1008804Y953347D01*
X1010497Y952501D02*
X1012190D01*
X1011343D01*
Y957579D01*
X1010497Y956733D01*
X1014729D02*
X1015575Y957579D01*
X1017268D01*
X1018114Y956733D01*
Y953347D01*
X1017268Y952501D01*
X1015575D01*
X1014729Y953347D01*
Y956733D01*
X480484Y1196763D02*
X479637Y1197609D01*
X477944D01*
X477098Y1196763D01*
Y1193377D01*
X477944Y1192531D01*
X479637D01*
X480484Y1193377D01*
X485562Y1197609D02*
X483869Y1196763D01*
X482176Y1195070D01*
Y1193377D01*
X483023Y1192531D01*
X484716D01*
X485562Y1193377D01*
Y1194224D01*
X484716Y1195070D01*
X482176D01*
X494454Y1196763D02*
X493607Y1197609D01*
X491914D01*
X491068Y1196763D01*
Y1193377D01*
X491914Y1192531D01*
X493607D01*
X494454Y1193377D01*
X499532Y1197609D02*
X496146D01*
Y1195070D01*
X497839Y1195916D01*
X498686D01*
X499532Y1195070D01*
Y1193377D01*
X498686Y1192531D01*
X496993D01*
X496146Y1193377D01*
X508424Y1196763D02*
X507577Y1197609D01*
X505885D01*
X505038Y1196763D01*
Y1193377D01*
X505885Y1192531D01*
X507577D01*
X508424Y1193377D01*
X512656Y1192531D02*
Y1197609D01*
X510116Y1195070D01*
X513502D01*
X746542Y1187873D02*
X745695Y1188719D01*
X744003D01*
X743156Y1187873D01*
Y1184487D01*
X744003Y1183641D01*
X745695D01*
X746542Y1184487D01*
X748234Y1187873D02*
X749081Y1188719D01*
X750774D01*
X751620Y1187873D01*
Y1187026D01*
X750774Y1186180D01*
X749927D01*
X750774D01*
X751620Y1185334D01*
Y1184487D01*
X750774Y1183641D01*
X749081D01*
X748234Y1184487D01*
D18*
X1116330Y1257046D02*
X1116584Y1257300D01*
X1013460Y1258316D02*
X1013714Y1258570D01*
D19*
X377571Y753110D02*
X386207D01*
X377571Y740410D02*
X386207D01*
D20*
X1043500Y612150D02*
D03*
X982540Y612146D02*
D03*
X1107000Y612154D02*
D03*
X920311Y612152D02*
D03*
X858080Y612152D02*
D03*
M02*
