G04*
G04 #@! TF.GenerationSoftware,Altium Limited,Altium Designer,22.11.1 (43)*
G04*
G04 Layer_Color=8421504*
%FSLAX44Y44*%
%MOMM*%
G71*
G04*
G04 #@! TF.SameCoordinates,FD04806B-1D24-4FBA-9A3E-9282C7D3C049*
G04*
G04*
G04 #@! TF.FilePolarity,Positive*
G04*
G01*
G75*
%ADD21R,0.8000X0.8000*%
%ADD22O,1.5000X0.6000*%
%ADD23R,0.6400X0.6000*%
%ADD24R,0.9000X0.5500*%
%ADD25O,0.6000X1.4500*%
%ADD26R,0.6000X0.6400*%
%ADD27R,2.1000X1.5500*%
%ADD28C,1.6000*%
%ADD29R,1.2000X1.8500*%
%ADD30R,0.5500X0.5500*%
%ADD31O,0.2500X1.0500*%
%ADD32R,3.1300X3.1300*%
%ADD33O,1.0500X0.2500*%
%ADD34R,0.5500X0.9000*%
%ADD35R,0.5500X0.5500*%
%ADD36R,1.8000X1.3000*%
%ADD37R,2.3000X1.9500*%
%ADD38R,1.5500X3.2100*%
%ADD39R,1.3400X0.8000*%
%ADD40R,0.8000X0.9500*%
%ADD41R,4.0000X4.0000*%
%ADD42R,1.5000X1.0000*%
%ADD43R,1.0000X1.5000*%
%ADD44R,0.8000X0.8000*%
%ADD45R,0.4500X1.3000*%
%ADD46R,2.1500X5.5000*%
%ADD47R,1.7500X4.5000*%
%ADD48R,1.2500X0.8000*%
%ADD49O,1.4500X0.3000*%
%ADD50O,0.3000X1.4500*%
%ADD51R,0.8000X0.4000*%
%ADD52R,0.9500X0.8000*%
%ADD53R,1.0000X0.6000*%
%ADD54R,1.2700X1.3970*%
%ADD55R,1.1500X1.4000*%
D21*
X884348Y1150086D02*
D03*
Y1165086D02*
D03*
X870378Y1150086D02*
D03*
Y1165086D02*
D03*
X872490Y1036200D02*
D03*
Y1021200D02*
D03*
X858520Y1036080D02*
D03*
Y1021080D02*
D03*
X830580Y1021200D02*
D03*
Y1036200D02*
D03*
X792480Y965320D02*
D03*
Y980320D02*
D03*
X518160Y1259720D02*
D03*
Y1244720D02*
D03*
X472440Y1259720D02*
D03*
Y1244720D02*
D03*
X487680Y1259720D02*
D03*
Y1244720D02*
D03*
X502920Y1259720D02*
D03*
Y1244720D02*
D03*
X886460Y1021200D02*
D03*
Y1036200D02*
D03*
X981710D02*
D03*
Y1021200D02*
D03*
X744443Y919480D02*
D03*
Y934480D02*
D03*
X967740Y1035960D02*
D03*
Y1020960D02*
D03*
X932180Y1036080D02*
D03*
Y1021080D02*
D03*
X916940Y1036080D02*
D03*
Y1021080D02*
D03*
X844550Y1036200D02*
D03*
Y1021200D02*
D03*
D22*
X401650Y1070610D02*
D03*
Y1083310D02*
D03*
Y1096010D02*
D03*
Y1108710D02*
D03*
Y1121410D02*
D03*
Y1134110D02*
D03*
Y1146810D02*
D03*
X347650Y1070610D02*
D03*
Y1083310D02*
D03*
Y1096010D02*
D03*
Y1108710D02*
D03*
Y1121410D02*
D03*
Y1134110D02*
D03*
Y1146810D02*
D03*
D23*
X440690Y1158950D02*
D03*
Y1149350D02*
D03*
X422910Y1158950D02*
D03*
Y1149350D02*
D03*
Y1131010D02*
D03*
Y1121410D02*
D03*
D24*
X895350Y845940D02*
D03*
Y860940D02*
D03*
X880110Y860940D02*
D03*
Y845940D02*
D03*
X849630Y860820D02*
D03*
Y845820D02*
D03*
X982980Y894200D02*
D03*
Y909200D02*
D03*
Y878720D02*
D03*
Y863720D02*
D03*
X864870Y845940D02*
D03*
Y860940D02*
D03*
X819150Y860940D02*
D03*
Y845940D02*
D03*
X834390Y845940D02*
D03*
Y860940D02*
D03*
X792703Y934600D02*
D03*
Y919600D02*
D03*
X901700Y1019810D02*
D03*
Y1034810D02*
D03*
X1235710Y1045090D02*
D03*
Y1030090D02*
D03*
X1220470D02*
D03*
Y1045090D02*
D03*
D25*
X638810Y818570D02*
D03*
X651510D02*
D03*
X664210D02*
D03*
X676910D02*
D03*
X689610D02*
D03*
X702310D02*
D03*
X715010D02*
D03*
X638810Y873070D02*
D03*
X651510D02*
D03*
X664210D02*
D03*
X676910D02*
D03*
X689610D02*
D03*
X702310D02*
D03*
X715010D02*
D03*
X357759Y767770D02*
D03*
X370459D02*
D03*
X383159D02*
D03*
X395859D02*
D03*
X357759Y822270D02*
D03*
X370459D02*
D03*
X383159D02*
D03*
X395859D02*
D03*
D26*
X638530Y908050D02*
D03*
X628930D02*
D03*
X638530Y892810D02*
D03*
X628930D02*
D03*
D27*
X436470Y601980D02*
D03*
X480470D02*
D03*
X406810Y564104D02*
D03*
X362810D02*
D03*
X339540Y871220D02*
D03*
X383540D02*
D03*
X406810Y601980D02*
D03*
X362810D02*
D03*
D28*
X491490Y546100D02*
D03*
X1224280Y684530D02*
D03*
X361950Y1244600D02*
D03*
X410210D02*
D03*
X445770Y546100D02*
D03*
X1224280Y631190D02*
D03*
X1228090Y1169670D02*
D03*
D29*
X1064500Y612140D02*
D03*
X1031000D02*
D03*
X1003540D02*
D03*
X970040D02*
D03*
X1128000D02*
D03*
X1094500D02*
D03*
X941310D02*
D03*
X907810D02*
D03*
X879080D02*
D03*
X845580D02*
D03*
D30*
X881990Y635000D02*
D03*
X872490D02*
D03*
X915570D02*
D03*
X906070D02*
D03*
X934620D02*
D03*
X944120D02*
D03*
X977700D02*
D03*
X968200D02*
D03*
X1006250D02*
D03*
X996750D02*
D03*
X1039800D02*
D03*
X1030300D02*
D03*
X1058880D02*
D03*
X1068380D02*
D03*
X1092460D02*
D03*
X1101960D02*
D03*
X1130510D02*
D03*
X1121010D02*
D03*
X843940D02*
D03*
X853440D02*
D03*
D31*
X937688Y1137526D02*
D03*
X947688D02*
D03*
X942688D02*
D03*
X932688D02*
D03*
X927688D02*
D03*
X922688D02*
D03*
X917688D02*
D03*
Y1091526D02*
D03*
X922688D02*
D03*
X927688D02*
D03*
X932688D02*
D03*
X937688D02*
D03*
X942688D02*
D03*
X947688D02*
D03*
D32*
X932688Y1114526D02*
D03*
D33*
X909688Y1129526D02*
D03*
Y1124526D02*
D03*
Y1119526D02*
D03*
Y1114526D02*
D03*
Y1109526D02*
D03*
Y1104526D02*
D03*
Y1099526D02*
D03*
X955688D02*
D03*
Y1104526D02*
D03*
Y1109526D02*
D03*
Y1114526D02*
D03*
Y1119526D02*
D03*
Y1124526D02*
D03*
Y1129526D02*
D03*
D34*
X1009650Y924560D02*
D03*
X1024650D02*
D03*
X995560D02*
D03*
X980560D02*
D03*
X1009770Y970280D02*
D03*
X1024770D02*
D03*
X950200Y955040D02*
D03*
X965200D02*
D03*
X950080Y939800D02*
D03*
X965080D02*
D03*
X950200Y894080D02*
D03*
X965200D02*
D03*
X950200Y878840D02*
D03*
X965200D02*
D03*
X965080Y985520D02*
D03*
X950080D02*
D03*
D35*
X617220Y759130D02*
D03*
Y749630D02*
D03*
X554990Y759130D02*
D03*
Y749630D02*
D03*
X679450Y759130D02*
D03*
Y749630D02*
D03*
X803910Y759130D02*
D03*
Y749630D02*
D03*
X741680Y759130D02*
D03*
Y749630D02*
D03*
X848360Y759130D02*
D03*
Y749630D02*
D03*
X910590Y759130D02*
D03*
Y749630D02*
D03*
X972820Y759130D02*
D03*
Y749630D02*
D03*
X1035050Y759130D02*
D03*
Y749630D02*
D03*
X1097280Y759130D02*
D03*
Y749630D02*
D03*
D36*
X370540Y678180D02*
D03*
X396540D02*
D03*
Y704850D02*
D03*
X370540D02*
D03*
D37*
X457200Y905730D02*
D03*
Y933230D02*
D03*
X360680Y907000D02*
D03*
Y934500D02*
D03*
D38*
X412160Y643890D02*
D03*
X370160D02*
D03*
D39*
X949960Y1038960D02*
D03*
Y1018360D02*
D03*
D40*
X612110Y990600D02*
D03*
X626110D02*
D03*
X762650Y1245870D02*
D03*
X748650D02*
D03*
X473060Y1229360D02*
D03*
X487060D02*
D03*
X762030Y1214120D02*
D03*
X748030D02*
D03*
X869728Y1128496D02*
D03*
X883728D02*
D03*
X869728Y1098016D02*
D03*
X883728D02*
D03*
X794370Y1242060D02*
D03*
X808370D02*
D03*
X794370Y1211580D02*
D03*
X808370D02*
D03*
X794370Y1181100D02*
D03*
X808370D02*
D03*
X285100Y871220D02*
D03*
X299100D02*
D03*
D41*
X621730Y1179230D02*
D03*
D42*
X723730Y1259840D02*
D03*
X543730Y1259840D02*
D03*
Y1244840D02*
D03*
Y1229840D02*
D03*
Y1214840D02*
D03*
Y1199840D02*
D03*
Y1184840D02*
D03*
Y1169840D02*
D03*
Y1154840D02*
D03*
Y1139840D02*
D03*
Y1124840D02*
D03*
Y1109840D02*
D03*
Y1094840D02*
D03*
Y1079840D02*
D03*
Y1064840D02*
D03*
Y1049840D02*
D03*
Y1034840D02*
D03*
X723730Y1244840D02*
D03*
Y1229840D02*
D03*
Y1214840D02*
D03*
Y1199840D02*
D03*
Y1184840D02*
D03*
Y1169840D02*
D03*
Y1154840D02*
D03*
Y1139840D02*
D03*
Y1124840D02*
D03*
Y1109840D02*
D03*
Y1094840D02*
D03*
Y1079840D02*
D03*
Y1064840D02*
D03*
Y1049840D02*
D03*
Y1034840D02*
D03*
D43*
X566230Y1023620D02*
D03*
X581230D02*
D03*
X596230D02*
D03*
X611230D02*
D03*
X701230D02*
D03*
X686230D02*
D03*
X671230D02*
D03*
X656230D02*
D03*
X641230D02*
D03*
X626230D02*
D03*
D44*
X1009890Y985520D02*
D03*
X1024890D02*
D03*
X995560Y939800D02*
D03*
X980560D02*
D03*
X965080Y1000760D02*
D03*
X950080D02*
D03*
X965080Y909320D02*
D03*
X950080D02*
D03*
X1012310Y844550D02*
D03*
X1027310D02*
D03*
X470790Y1212850D02*
D03*
X486790D02*
D03*
X761880Y1229360D02*
D03*
X746880D02*
D03*
X965080Y924560D02*
D03*
X950080D02*
D03*
X965080Y970280D02*
D03*
X950080D02*
D03*
X995560Y955040D02*
D03*
X980560D02*
D03*
X758532Y906780D02*
D03*
X773532D02*
D03*
X883712Y1113256D02*
D03*
X867712D02*
D03*
X808530Y1257449D02*
D03*
X792530D02*
D03*
X808100Y1226820D02*
D03*
X792100D02*
D03*
X808100Y1196340D02*
D03*
X792100D02*
D03*
X370339Y843280D02*
D03*
X355339D02*
D03*
X386425Y725642D02*
D03*
X371425D02*
D03*
X284990Y889000D02*
D03*
X300990D02*
D03*
D45*
X915798Y1213796D02*
D03*
X922298D02*
D03*
X928798D02*
D03*
X935298D02*
D03*
X941798D02*
D03*
D46*
X418700Y858520D02*
D03*
X457200D02*
D03*
D47*
X392950Y919480D02*
D03*
X425450D02*
D03*
D48*
X998220Y1039970D02*
D03*
Y1019970D02*
D03*
D49*
X899500Y904680D02*
D03*
Y909680D02*
D03*
Y914680D02*
D03*
Y919680D02*
D03*
Y924680D02*
D03*
Y929680D02*
D03*
Y934680D02*
D03*
Y939680D02*
D03*
Y944680D02*
D03*
Y949680D02*
D03*
Y954680D02*
D03*
Y959680D02*
D03*
X815000D02*
D03*
Y954680D02*
D03*
Y949680D02*
D03*
Y944680D02*
D03*
Y939680D02*
D03*
Y934680D02*
D03*
Y929680D02*
D03*
Y924680D02*
D03*
Y919680D02*
D03*
Y914680D02*
D03*
Y909680D02*
D03*
Y904680D02*
D03*
D50*
X884750Y974430D02*
D03*
X879750D02*
D03*
X874750D02*
D03*
X869750D02*
D03*
X864750D02*
D03*
X859750D02*
D03*
X854750D02*
D03*
X849750D02*
D03*
X844750D02*
D03*
X839750D02*
D03*
X834750D02*
D03*
X829750D02*
D03*
Y889930D02*
D03*
X834750D02*
D03*
X839750D02*
D03*
X844750D02*
D03*
X849750D02*
D03*
X854750D02*
D03*
X859750D02*
D03*
X864750D02*
D03*
X869750D02*
D03*
X874750D02*
D03*
X879750D02*
D03*
X884750D02*
D03*
D51*
X889070Y1182370D02*
D03*
X866070D02*
D03*
X940818Y1180716D02*
D03*
Y1174216D02*
D03*
Y1167716D02*
D03*
X919318D02*
D03*
Y1180716D02*
D03*
Y1174216D02*
D03*
D52*
X1060878Y1157056D02*
D03*
Y1171056D02*
D03*
Y1118956D02*
D03*
Y1132956D02*
D03*
X997378Y1150706D02*
D03*
Y1164706D02*
D03*
Y1111986D02*
D03*
Y1125986D02*
D03*
X337820Y772780D02*
D03*
Y786780D02*
D03*
Y803260D02*
D03*
Y817260D02*
D03*
D53*
X1043904Y1156946D02*
D03*
X1019904Y1147446D02*
D03*
Y1166446D02*
D03*
X1043668Y1118336D02*
D03*
X1019668Y1108836D02*
D03*
Y1127836D02*
D03*
D54*
X393319Y746760D02*
D03*
X370459D02*
D03*
D55*
X760282Y923407D02*
D03*
X776282Y945407D02*
D03*
Y923407D02*
D03*
X760282Y945407D02*
D03*
M02*
