%FSTAX23Y23*%
%MOIN*%
%SFA1B1*%

%IPPOS*%
%ADD11C,0.009800*%
%ADD12C,0.006000*%
%ADD15C,0.007900*%
%ADD19C,0.005000*%
%LNv1.0-1*%
%LPD*%
G54D11*
X01301Y04262D02*
D01*
D01*
G75*
G03X01291I-00004J0D01*
G74*G01*
D01*
G75*
G03X01301I00004J0D01*
G74*G01*
X01306Y04052D02*
D01*
D01*
G75*
G03X01296I-00004J0D01*
G74*G01*
D01*
G75*
G03X01306I00004J0D01*
G74*G01*
G54D12*
X03689Y04857D02*
Y04861D01*
X03741*
Y04759D02*
Y04861D01*
X03689Y04759D02*
X03741D01*
X03689D02*
Y04857D01*
X03798Y04757D02*
Y04764D01*
X03752Y04757D02*
X03798D01*
X03752D02*
Y04863D01*
X03798*
Y04764D02*
Y04863D01*
X03689Y04502D02*
Y04506D01*
X03741*
Y04404D02*
Y04506D01*
X03689Y04404D02*
X03741D01*
X03689D02*
Y04502D01*
X03803Y044D02*
Y04407D01*
X03757Y044D02*
X03803D01*
X03757D02*
Y04506D01*
X03803*
Y04407D02*
Y04506D01*
X01059Y02316D02*
Y02329D01*
Y02322*
X01099*
X01092Y02316*
X01165Y02331D02*
Y02304D01*
X01192Y02331*
X01198*
X01205Y02324*
Y02311*
X01198Y02304*
X01092Y02568D02*
X01099Y02574D01*
Y02588*
X01092Y02594*
X01085*
X01079Y02588*
Y02581*
Y02588*
X01072Y02594*
X01065*
X01059Y02588*
Y02574*
X01065Y02568*
X01165Y02588D02*
X01205D01*
X01185Y02568*
Y02594*
X01061Y03976D02*
X01054Y0397D01*
Y03956*
X01061Y0395*
X01067*
X01074Y03956*
X01081Y0395*
X01087*
X01094Y03956*
Y0397*
X01087Y03976*
X01081*
X01074Y0397*
X01067Y03976*
X01061*
X01074Y0397D02*
Y03956D01*
X0116Y03976D02*
Y0395D01*
X01167*
X01194Y03976*
X012*
X01094Y04414D02*
Y0444D01*
X01067Y04414*
X01061*
X01054Y0442*
Y04434*
X01061Y0444*
X012Y04428D02*
Y04415D01*
Y04422*
X0116*
X01167Y04428*
G54D15*
X01027Y02344D02*
X01233D01*
X01027D02*
Y02555D01*
X01233Y02344D02*
Y02555D01*
X01027D02*
X01233D01*
X01027Y03989D02*
X01233D01*
X01027D02*
Y044D01*
X01233Y03989D02*
Y044D01*
X01027D02*
X01233D01*
X01321Y04259D02*
X01538D01*
X01321Y0437D02*
X01538D01*
X01321Y04259D02*
Y04268D01*
X01538Y04259D02*
Y04268D01*
X01321Y04361D02*
Y0437D01*
X01538Y04361D02*
Y0437D01*
X01326Y04049D02*
X01543D01*
X01326Y0416D02*
X01543D01*
X01326Y04049D02*
Y04058D01*
X01543Y04049D02*
Y04058D01*
X01326Y04151D02*
Y0416D01*
X01543Y04151D02*
Y0416D01*
G54D19*
X0105Y02626D02*
Y02646D01*
X0104*
X01036Y02642*
Y02636*
X0104Y02632*
X0105*
X0103Y02626D02*
X01023D01*
X01026*
Y02646*
X0103Y02642*
X01057Y04472D02*
Y04492D01*
X01047*
X01043Y04488*
Y04482*
X01047Y04478*
X01057*
X01037Y04488D02*
X01033Y04492D01*
X01027*
X01023Y04488*
Y04485*
X01027Y04482*
X0103*
X01027*
X01023Y04478*
Y04475*
X01027Y04472*
X01033*
X01037Y04475*
X01335Y04426D02*
Y04406D01*
X01325*
X01321Y04409*
Y04422*
X01325Y04426*
X01335*
X01315Y04406D02*
X01308D01*
X01311*
Y04426*
X01315Y04422*
X01298Y04406D02*
X01291D01*
X01295*
Y04426*
X01298Y04422*
X01346Y04216D02*
Y04196D01*
X01336*
X01332Y04199*
Y04212*
X01336Y04216*
X01346*
X01326Y04196D02*
X01319D01*
X01322*
Y04216*
X01326Y04212*
X01296Y04196D02*
X01309D01*
X01296Y04209*
Y04212*
X01299Y04216*
X01306*
X01309Y04212*
X03723Y04889D02*
Y04909D01*
X03713*
X03709Y04905*
Y04899*
X03713Y04895*
X03723*
X03716D02*
X03709Y04889D01*
X03689Y04909D02*
X03703D01*
Y04899*
X03696Y04902*
X03693*
X03689Y04899*
Y04892*
X03693Y04889*
X03699*
X03703Y04892*
X03773Y04907D02*
X03777Y04911D01*
X03783*
X03787Y04907*
Y04894*
X03783Y04891*
X03777*
X03773Y04894*
X03753Y04891D02*
X03767D01*
X03753Y04904*
Y04907*
X03757Y04911*
X03763*
X03767Y04907*
X03741Y04534D02*
Y04554D01*
X03731*
X03727Y0455*
Y04544*
X03731Y0454*
X03741*
X03734D02*
X03727Y04534D01*
X03721D02*
X03714D01*
X03717*
Y04554*
X03721Y0455*
X03788D02*
X03792Y04554D01*
X03798*
X03802Y0455*
Y04537*
X03798Y04534*
X03792*
X03788Y04537*
X03782Y04534D02*
X03775D01*
X03778*
Y04554*
X03782Y0455*
M02*