%FSTAX23Y23*%
%MOIN*%
%SFA1B1*%

%IPPOS*%
%ADD20R,0.021700X0.035400*%
%ADD21R,0.031500X0.031500*%
%ADD22R,0.031500X0.031500*%
%ADD23R,0.031500X0.037400*%
%ADD24R,0.035400X0.021700*%
%ADD25R,0.039000X0.022400*%
%ADD26R,0.051200X0.035400*%
%ADD27R,0.037400X0.031500*%
%ADD28R,0.015700X0.031500*%
%ADD29R,0.039400X0.023600*%
%ADD30R,0.070900X0.173200*%
%ADD31R,0.061000X0.082700*%
%ADD32O,0.057100X0.023600*%
%ADD33R,0.055000X0.050000*%
%ADD34R,0.049200X0.076800*%
%ADD35C,0.063000*%
%ADD36O,0.059100X0.023600*%
%ADD37O,0.041300X0.009800*%
%ADD38O,0.009800X0.041300*%
%ADD39R,0.123200X0.123200*%
%ADD40R,0.031500X0.015700*%
%ADD41R,0.017700X0.051200*%
%ADD42R,0.059100X0.039400*%
%ADD43R,0.039400X0.059100*%
%ADD44O,0.055100X0.009800*%
%ADD45O,0.009800X0.055100*%
%ADD46R,0.055100X0.045300*%
%ADD47R,0.177200X0.068900*%
%ADD48R,0.216500X0.084600*%
%ADD49R,0.061000X0.126400*%
%ADD50R,0.124000X0.063000*%
%LNv1.0-1*%
%LPD*%
G54D20*
X03829Y02425D03*
X0377D03*
Y02485D03*
X03829D03*
X0377Y02545D03*
X03829D03*
Y02605D03*
X0377D03*
X03829Y02725D03*
X0377D03*
X03829Y02905D03*
X0377D03*
X03829Y03025D03*
X0377D03*
X0318Y0246D03*
X03239D03*
X03834Y03325D03*
X03775D03*
G54D21*
X03775Y02665D03*
X03834D03*
Y02785D03*
X03775D03*
X03834Y02845D03*
X03775D03*
X03834Y02965D03*
X03775D03*
X03834Y03085D03*
X03775D03*
X03834Y03145D03*
X03775D03*
X03834Y03205D03*
X03775D03*
X03834Y03265D03*
X03775D03*
X03249Y02265D03*
X0319D03*
X0251Y0366D03*
X02569D03*
X04199Y04387D03*
X04136D03*
X01461Y0353D03*
X01398D03*
G54D22*
X03355Y0233D03*
Y02389D03*
X03415Y03519D03*
Y0346D03*
X03295Y03519D03*
Y0346D03*
X03235Y03519D03*
Y0346D03*
X0305Y03519D03*
Y0346D03*
X02912Y0352D03*
Y03461D03*
X0279Y03519D03*
Y0346D03*
X0377Y04083D03*
Y04142D03*
Y03968D03*
Y04027D03*
X0371Y03968D03*
Y04027D03*
X04882Y03613D03*
Y03676D03*
X04708Y03613D03*
Y03676D03*
X04534Y03613D03*
Y03676D03*
X04465Y03968D03*
Y03909D03*
Y04018D03*
Y04077D03*
X0415Y04185D03*
Y04244D03*
X04215Y03907D03*
Y03848D03*
X02365Y0469D03*
Y04749D03*
X01911Y04632D03*
Y04691D03*
X01925Y04901D03*
Y04838D03*
X01404Y03845D03*
Y03782D03*
X01585Y03655D03*
Y03714D03*
X01525Y03655D03*
Y03714D03*
X01465Y03655D03*
Y03714D03*
X01405Y03655D03*
Y03714D03*
X04201Y04567D03*
Y04507D03*
X04146Y04567D03*
Y04507D03*
X02735Y03084D03*
Y03025D03*
X0301Y02384D03*
Y02325D03*
X0307Y02384D03*
Y02325D03*
G54D23*
X02512Y03595D03*
X02567D03*
X04144Y04447D03*
X04199D03*
X04144Y04327D03*
X04199D03*
X04407Y03963D03*
X04352D03*
X04407Y04023D03*
X04352D03*
X01585Y03595D03*
X01529D03*
X01462D03*
X01407D03*
X01954Y0268D03*
X0201D03*
G54D24*
X0348Y03519D03*
Y0346D03*
X03175Y03514D03*
Y03455D03*
X0311D03*
Y03514D03*
G54D25*
X03355Y03515D03*
Y03455D03*
X0285Y03515D03*
Y03455D03*
G54D26*
X0298Y03537D03*
Y03462D03*
G54D27*
X03645Y04085D03*
Y04141D03*
X0371Y04085D03*
Y04141D03*
X0377Y03911D03*
Y03855D03*
X04896Y0456D03*
Y04615D03*
Y0441D03*
Y04465D03*
X04646Y04535D03*
Y0459D03*
Y04382D03*
Y04438D03*
X04792Y03668D03*
Y03613D03*
X04618Y03668D03*
Y03613D03*
X04445Y03668D03*
Y03613D03*
X0429Y0402D03*
Y04076D03*
Y03908D03*
Y03963D03*
X04215Y04131D03*
Y04075D03*
X0415Y04131D03*
Y04075D03*
X04215Y04021D03*
Y03965D03*
X02145Y04812D03*
Y04867D03*
X0221D03*
Y04812D03*
X01854Y04898D03*
Y04843D03*
X01475Y03837D03*
Y03782D03*
X02515Y03772D03*
Y03717D03*
X0258Y03772D03*
Y03717D03*
G54D28*
X04076Y04593D03*
Y04502D03*
X04559Y04035D03*
X04585D03*
X0461D03*
Y03951D03*
X04559D03*
X04585D03*
G54D29*
X04829Y04559D03*
X04735Y04522D03*
Y04597D03*
X04828Y04407D03*
X04734Y0437D03*
Y04445D03*
G54D30*
X02995Y04579D03*
Y0487D03*
G54D31*
X0248Y04816D03*
Y04643D03*
X0171Y04706D03*
Y04533D03*
X0335Y04206D03*
Y04033D03*
G54D32*
X02282Y04595D03*
Y04645D03*
Y04695D03*
Y04745D03*
X02067Y04595D03*
Y04645D03*
Y04695D03*
Y04745D03*
G54D33*
X01985Y04605D03*
Y04695D03*
G54D34*
X0183Y04708D03*
Y04611D03*
G54D35*
X0108Y04605D03*
X0136Y04105D03*
Y04315D03*
X0409Y02245D03*
X03928D03*
X0323Y0393D03*
X01344Y02269D03*
X0335Y0446D03*
X0465Y0472D03*
G54D36*
X04066Y03923D03*
Y03973D03*
Y04023D03*
Y04073D03*
X03853Y03923D03*
Y03973D03*
Y04073D03*
Y04023D03*
G54D37*
X04482Y04452D03*
Y04432D03*
Y04412D03*
Y04392D03*
Y04373D03*
Y04353D03*
Y04333D03*
X04301D03*
Y04353D03*
Y04373D03*
Y04392D03*
Y04412D03*
Y04432D03*
Y04452D03*
G54D38*
X04451Y04302D03*
X04431D03*
X04411D03*
X04392D03*
X04372D03*
X04352D03*
X04332D03*
Y04483D03*
X04352D03*
X04372D03*
X04392D03*
X04431D03*
X04451D03*
X04411D03*
G54D39*
X04392Y04392D03*
G54D40*
X04424Y04653D03*
Y04627D03*
Y04602D03*
X04339D03*
Y04653D03*
Y04627D03*
G54D41*
X04427Y04783D03*
X04402D03*
X04376D03*
X04351D03*
X04325D03*
G54D42*
X01685Y03715D03*
X02393D03*
X01685Y03656D03*
Y03597D03*
Y03538D03*
Y03479D03*
Y0342D03*
Y03361D03*
Y03302D03*
Y03243D03*
Y03184D03*
Y03125D03*
Y03065D03*
Y03006D03*
Y02947D03*
Y02888D03*
Y02829D03*
X02393Y03656D03*
Y03597D03*
Y03538D03*
Y03479D03*
Y0342D03*
Y03361D03*
Y03302D03*
Y03243D03*
Y03184D03*
Y03125D03*
Y03065D03*
Y03006D03*
Y02947D03*
Y02888D03*
Y02829D03*
G54D43*
X02305Y02785D03*
X01773D03*
X01832D03*
X01891D03*
X0195D03*
X02246D03*
X02187D03*
X02127D03*
X02068D03*
X02009D03*
G54D44*
X03359Y02984D03*
Y03D03*
Y03047D03*
X0291Y03063D03*
X03359Y02795D03*
Y02811D03*
Y02826D03*
Y02842D03*
Y02858D03*
Y02874D03*
Y02889D03*
Y02905D03*
Y02921D03*
Y02937D03*
Y02952D03*
Y02968D03*
Y03015D03*
Y03031D03*
Y03063D03*
Y03078D03*
Y03094D03*
X0291D03*
Y03078D03*
Y03047D03*
Y03031D03*
Y03015D03*
Y03D03*
Y02984D03*
Y02968D03*
Y02952D03*
Y02937D03*
Y02921D03*
Y02905D03*
Y02889D03*
Y02874D03*
Y02858D03*
Y02842D03*
Y02826D03*
Y02811D03*
Y02795D03*
G54D45*
X03111Y03169D03*
X03079D03*
X03064D03*
X03048D03*
X03032D03*
X03016Y0272D03*
X03032D03*
X03048D03*
X03095D03*
X03284Y03169D03*
X03268D03*
X03253D03*
X03237D03*
X03221D03*
X03205D03*
X0319D03*
X03174D03*
X03158D03*
X03142D03*
X03127D03*
X03095D03*
X03016D03*
X03001D03*
X02985D03*
Y0272D03*
X03001D03*
X03064D03*
X03079D03*
X03111D03*
X03127D03*
X03142D03*
X03158D03*
X03174D03*
X0319D03*
X03205D03*
X03221D03*
X03237D03*
X03253D03*
X03268D03*
X03284D03*
G54D46*
X03186Y02391D03*
X03273Y02328D03*
X03186D03*
X03273Y02391D03*
G54D47*
X0335Y04869D03*
Y04741D03*
G54D48*
X02675Y04795D03*
Y04644D03*
G54D49*
X01657Y04355D03*
X01492D03*
G54D50*
X03096Y043D03*
X02903D03*
M02*