%FSTAX23Y23*%
%MOIN*%
%SFA1B1*%

%IPPOS*%
%ADD12C,0.006000*%
%ADD14C,0.010000*%
%ADD22R,0.031500X0.031500*%
%ADD27R,0.037400X0.031500*%
%ADD101C,0.020000*%
%ADD102C,0.030000*%
%ADD104C,0.059100*%
%ADD105R,0.059100X0.059100*%
%ADD106R,0.075000X0.075000*%
%ADD107C,0.075000*%
%ADD108R,0.160000X0.100000*%
%ADD109R,0.100000X0.160000*%
%ADD110C,0.065000*%
%ADD111R,0.065000X0.065000*%
%ADD112C,0.031500*%
%ADD113O,0.045300X0.070900*%
%ADD114O,0.057100X0.078700*%
%ADD115R,0.065000X0.065000*%
%ADD116R,0.055000X0.055000*%
%ADD117C,0.055000*%
%ADD118C,0.060200*%
%ADD119C,0.128000*%
%ADD120C,0.096300*%
%ADD121C,0.138000*%
%ADD122C,0.015700*%
%ADD123C,0.019700*%
%ADD124R,0.082700X0.061000*%
%LNv1.0-1*%
%LPD*%
G36*
X04933Y0337D02*
X0394D01*
Y03051*
X03938Y0305*
X03935Y03049*
X03932Y03051*
X03931Y03055*
X03928Y0306*
X03924Y03063*
X03918Y03064*
X03913Y03063*
X03908Y0306*
X03905Y03055*
X03904Y0305*
X03905Y03044*
X03908Y0304*
X03913Y03037*
X03918Y03035*
X0392Y03031*
Y0295*
X03915Y02947*
X03915Y02948*
X0391Y02949*
X03904Y02948*
X03904Y02947*
X03899Y0295*
Y03085*
X03898Y03088*
X03896Y03091*
X03893Y03093*
X0389Y03094*
X03886Y03093*
X03883Y03091*
X03881Y03088*
X0388Y03085*
Y0304*
X03875Y03037*
X03875Y03038*
X0387Y03039*
X03864Y03038*
X0386Y03035*
X03856Y0303*
X03855Y03025*
X03856Y03019*
X0386Y03015*
X0386Y03014*
Y02975*
X0386Y02975*
X03856Y0297*
X03855Y02965*
X03856Y02959*
X0386Y02955*
X0386Y02954*
Y02915*
X0386Y02915*
X03856Y0291*
X03855Y02905*
X03856Y02899*
X0386Y02895*
X03861Y02894*
X03861Y02888*
X03859Y02886*
X03816*
Y0355*
X03815Y03554*
X03812Y03557*
X03777Y03593*
X03779Y03598*
X03855*
X03863Y0359*
Y03265*
X03864Y0326*
X03867Y03257*
X0387Y03254*
X03875Y03253*
X03879Y03254*
X03882Y03257*
X03885Y0326*
X03886Y03265*
Y03595*
X03885Y03599*
X03882Y03602*
X03867Y03617*
X03864Y0362*
X0386Y03621*
X03641*
Y03825*
X0364Y03829*
X03637Y03832*
X03634Y03835*
X0363Y03836*
X03625Y03835*
X03622Y03832*
X03619Y03829*
X03618Y03825*
Y03621*
X03576*
X03576Y03622*
X03575Y03626*
X03579Y0363*
X03581Y03635*
Y03897*
X03597Y03913*
X04197*
X04223Y03887*
Y03705*
X04225Y037*
X04285Y0364*
X0429Y03638*
X04765*
X04769Y0364*
X04771Y03645*
Y03695*
X04769Y03699*
X04765Y03701*
X04322*
X04296Y03727*
Y03975*
X04294Y03979*
X04279Y03994*
X04275Y03996*
X04226*
Y04161*
X04228Y04164*
X04229Y0417*
X04228Y04175*
X04225Y0418*
X0422Y04183*
X04216Y04183*
X04217Y04188*
X04556*
X04559Y04186*
X04565Y04185*
X0457Y04186*
X04575Y0419*
X04578Y04194*
X04579Y042*
X04578Y04205*
X04575Y0421*
X0457Y04213*
X04565Y04214*
X04559Y04213*
X04556Y04211*
X04551*
X04548Y04216*
X04549Y0422*
X04548Y04223*
X04551Y04228*
X0471*
X04714Y04229*
X04717Y04232*
X04807Y04322*
X0481Y04325*
X04811Y0433*
Y04495*
X04819Y04503*
X04886*
X04889Y04501*
X04895Y045*
X049Y04501*
X04905Y04505*
X04908Y04509*
X04909Y04515*
X04908Y0452*
X04905Y04525*
X049Y04528*
X04895Y04529*
X04889Y04528*
X04886Y04526*
X04815*
X0481Y04525*
X04807Y04522*
X04796Y04512*
X04791Y04514*
Y04635*
X04814Y04658*
X04886*
X04889Y04656*
X04895Y04655*
X049Y04656*
X04905Y0466*
X04908Y04664*
X04909Y0467*
X04908Y04675*
X04905Y0468*
X049Y04683*
X04895Y04684*
X04889Y04683*
X04886Y04681*
X0481*
X04805Y0468*
X04802Y04677*
X04772Y04647*
X04769Y04644*
X04768Y0464*
Y04339*
X047Y04271*
X04567*
X04566Y04276*
X04567Y04276*
X0457Y04276*
X04575Y0428*
X04578Y04284*
X04579Y0429*
X04578Y04295*
X04577Y04296*
Y04383*
X04579Y04387*
X0458Y04392*
X04579Y04398*
X04576Y04402*
X04572Y04406*
X04566Y04407*
X04561Y04406*
X04556Y04402*
X04553Y04398*
X04552Y04392*
X04553Y04387*
X04554Y04386*
Y04299*
X04551Y04295*
X0455Y0429*
X04551Y04284*
X04555Y0428*
X04559Y04276*
X04562Y04276*
X04563Y04276*
X04562Y04271*
X04507*
X04507Y04276*
X04508Y04276*
X04511Y04278*
X04513Y04281*
X04513Y04283*
X04521Y04291*
X04523Y04294*
X04524Y04297*
Y04314*
X04529Y04317*
X04529Y04316*
X04535Y04315*
X0454Y04316*
X04545Y0432*
X04548Y04324*
X04549Y0433*
X04548Y04335*
X04547Y04336*
Y04403*
X04549Y04407*
X0455Y04412*
X04549Y04418*
X04546Y04422*
X04542Y04426*
X04536Y04427*
X04531Y04426*
X04529Y04424*
X04524Y04427*
Y04545*
X04523Y04548*
X04521Y04551*
X04518Y04553*
X04515Y04554*
X04511Y04553*
X04508Y04551*
X04506Y04548*
X04505Y04545*
Y04301*
X04498Y04294*
X04496Y04291*
X04495Y04287*
Y04285*
X04496Y04281*
X04498Y04278*
X04501Y04276*
X04503Y04276*
X04502Y04271*
X03635*
X0363Y0427*
X03627Y04267*
X03446Y04087*
X03441Y04089*
Y0436*
X03597Y04517*
X03598Y04517*
X03608Y04512*
X0362Y04511*
X03631Y04512*
X03641Y04517*
X03651Y04524*
X03658Y04533*
X03662Y04543*
X03662Y04545*
X0377*
Y04504*
X03758*
Y04491*
X03739*
Y04504*
X0369*
Y0446*
X03739*
Y04473*
X03758*
Y0446*
X03801*
Y04504*
X03789*
Y04545*
X03827*
X03827Y04543*
X03832Y04533*
X03839Y04524*
X03848Y04517*
X03858Y04512*
X0387Y04511*
X03881Y04512*
X03891Y04517*
X03901Y04524*
X03908Y04533*
X03912Y04543*
X03913Y04555*
X03912Y04566*
X03908Y04576*
X03901Y04586*
X03891Y04593*
X03881Y04597*
X0387Y04598*
X03858Y04597*
X03848Y04593*
X03839Y04586*
X03832Y04576*
X03827Y04566*
X03827Y04564*
X03662*
X03662Y04566*
X03658Y04576*
X03651Y04586*
X03641Y04593*
X03631Y04597*
X0362Y04598*
X03608Y04597*
X03598Y04593*
X03589Y04586*
X03582Y04576*
X03577Y04566*
X03576Y04555*
X03577Y04543*
X03582Y04533*
X03582Y04532*
X03426Y04377*
X03421Y04379*
Y046*
X03627Y04807*
X0363Y0481*
X03631Y04815*
Y04872*
X03631*
X03641Y04877*
X03651Y04884*
X03658Y04893*
X03662Y04903*
X03662Y04905*
X03765*
Y04861*
X03753*
Y04846*
X03739*
Y04859*
X0369*
Y04815*
X03739*
Y04828*
X03753*
Y04817*
X03796*
Y04861*
X03784*
Y04905*
X03827*
X03827Y04903*
X03832Y04893*
X03839Y04884*
X03848Y04877*
X03858Y04872*
X0387Y04871*
X03881Y04872*
X03891Y04877*
X03901Y04884*
X03908Y04893*
X03912Y04903*
X03913Y04915*
X03912Y04926*
X03908Y04936*
X03901Y04946*
X03891Y04953*
X03881Y04957*
X0387Y04958*
X03858Y04957*
X03848Y04953*
X03839Y04946*
X03832Y04936*
X03827Y04926*
X03827Y04924*
X03662*
X03662Y04926*
X03658Y04936*
X03651Y04946*
X03641Y04953*
X03631Y04957*
X0362Y04958*
X03608Y04957*
X03598Y04953*
X03589Y04946*
X03582Y04936*
X03577Y04926*
X03576Y04915*
X03577Y04903*
X03582Y04893*
X03589Y04884*
X03598Y04877*
X03608Y04872*
X03608*
Y04819*
X03402Y04612*
X03399Y04609*
X03398Y04605*
Y03873*
X03396Y0387*
X03395Y03865*
X03396Y03859*
X034Y03855*
X03404Y03851*
X0341Y0385*
X03412Y03851*
X03416Y03847*
X03415Y03845*
X03416Y03839*
X0342Y03835*
X03424Y03831*
X0343Y0383*
X03433Y03831*
X03438Y03828*
Y03709*
X03415Y03686*
X02815*
X0281Y03685*
X02807Y03682*
X02652Y03528*
X02651Y03528*
X0265Y03534*
X02833Y03717*
X02835Y03718*
X0284Y03721*
X02843Y03725*
X02844Y03731*
X02843Y03736*
X0284Y03741*
X02835Y03744*
X0283Y03745*
X02824Y03744*
X0282Y03741*
X02816Y03736*
X02816Y03731*
X02635Y03551*
X02608*
X02605Y03553*
X026Y03554*
X02594Y03553*
X0259Y0355*
X02586Y03545*
X02585Y0354*
X02586Y03534*
X02589Y03531*
X02587Y03527*
X02587Y03526*
X01753*
X01752Y03527*
X0175Y03531*
X01753Y03534*
X01753Y03537*
X01789Y03573*
X02625*
X02629Y03574*
X02632Y03577*
X02777Y03721*
X0278Y03721*
X02785Y03725*
X02788Y03729*
X02789Y03735*
X02788Y0374*
X02785Y03745*
X0278Y03748*
X02775Y03749*
X02769Y03748*
X02765Y03745*
X02761Y0374*
X02761Y03737*
X02642Y03618*
X02638Y0362*
X02637Y0362*
X02635Y03625*
X0263Y03628*
X02625Y03629*
X02619Y03628*
X02616Y03626*
X01665*
X0166Y03625*
X01657Y03622*
X01582Y03548*
X01579Y03548*
X01575Y03545*
X01571Y0354*
X0157Y03535*
X01571Y03531*
X01568Y03526*
X01554*
X01543Y03537*
X01543Y0354*
X0154Y03545*
X01535Y03548*
X0153Y03549*
X01524Y03548*
X0152Y03545*
X01516Y0354*
X01515Y03535*
X01516Y03529*
X0152Y03525*
X01524Y03521*
X01527Y03521*
X01542Y03507*
X01545Y03504*
X0155Y03503*
X0265*
X02652Y03498*
X02645Y03491*
X02483*
X0248Y03493*
X02475Y03494*
X02469Y03493*
X02465Y0349*
X02461Y03485*
X0246Y0348*
X02461Y03474*
X02465Y0347*
X02469Y03466*
X02475Y03465*
X0248Y03466*
X02483Y03468*
X02641*
X02643Y03464*
X0261Y03431*
X02513*
X0251Y03433*
X02505Y03434*
X02499Y03433*
X02495Y0343*
X02491Y03425*
X0249Y0342*
X02491Y03414*
X02495Y0341*
X02499Y03406*
X02503Y03406*
X02502Y03401*
X0231*
X02305Y034*
X02302Y03397*
X02299Y03394*
X02298Y0339*
X02299Y03385*
X02302Y03382*
X02305Y03379*
X0231Y03378*
X0266*
X02664Y03379*
X02667Y03382*
X02753Y03468*
X02758Y03466*
Y03384*
X0276Y0338*
X02765Y03375*
X02769Y03373*
X02966*
X02967Y03373*
X02969Y03368*
X02966Y03365*
X02965Y0336*
X02966Y03354*
X02967Y03354*
X02964Y03349*
X0274*
X02736Y03348*
X02733Y03346*
X02466Y03079*
X02465Y03079*
X02459Y03078*
X02455Y03075*
X02451Y0307*
X0245Y03065*
X02451Y03059*
X02455Y03055*
X02459Y03051*
X02465Y0305*
X0247Y03051*
X02475Y03055*
X02478Y03059*
X02479Y03065*
X02479Y03066*
X02743Y0333*
X02771*
X02772Y03328*
X02772Y03325*
X02466Y03019*
X02465Y03019*
X02459Y03018*
X02455Y03015*
X02451Y0301*
X0245Y03005*
X02451Y02999*
X02455Y02995*
X02459Y02991*
X02465Y0299*
X0247Y02991*
X02475Y02995*
X02478Y02999*
X02479Y03005*
X02479Y03006*
X02783Y0331*
X03116*
X03117Y03309*
X03115Y03304*
X0281*
X02806Y03303*
X02803Y03301*
X02466Y02964*
X02465Y02964*
X02459Y02963*
X02455Y0296*
X02451Y02955*
X0245Y0295*
X02451Y02944*
X02455Y0294*
X02459Y02936*
X02465Y02935*
X0247Y02936*
X02475Y0294*
X02478Y02944*
X02479Y0295*
X02479Y02951*
X02813Y03285*
X03194*
X03195Y03285*
X03199Y03281*
X03205Y0328*
X0321Y03281*
X03215Y03285*
X03218Y03289*
X03219Y03295*
X03218Y033*
X03215Y03305*
X0321Y03308*
X03205Y03309*
X03199Y03308*
X03195Y03305*
X03194Y03304*
X0314*
X03138Y03309*
X0314Y0331*
X03143Y03314*
X03144Y0332*
X03143Y03325*
X03142Y03325*
X03145Y0333*
X03164*
X03165Y0333*
X03169Y03326*
X03175Y03325*
X0318Y03326*
X03185Y0333*
X03188Y03334*
X03189Y0334*
X03188Y03343*
X03191Y03348*
X0323*
X03231Y03347*
X03231Y03344*
X03235Y0334*
X03239Y03336*
X03245Y03335*
X0325Y03336*
X03255Y0334*
X03258Y03344*
X03259Y0335*
X03258Y03355*
X03255Y0336*
X0325Y03363*
X03247Y03363*
X03242Y03367*
X03242Y03368*
X03243Y03373*
X03257*
X03308Y03322*
Y03137*
X03224Y03053*
X03222Y03048*
Y02801*
X03217Y028*
X03216Y02801*
X03213Y02803*
X0321Y02804*
X03206Y02803*
X03203Y02801*
X03148Y02746*
X03146Y02743*
X03145Y0274*
Y02568*
X03063Y02486*
X03061Y02483*
X0306Y0248*
Y02308*
X03056Y02306*
X03041Y02321*
Y02652*
X03041Y02655*
X03039Y02658*
X03036Y0266*
X03032Y02661*
X03029Y0266*
X03026Y02658*
X03024Y02655*
X03023Y02652*
Y02317*
X03024Y02313*
X03026Y0231*
X03063Y02273*
X03066Y02271*
X0307Y0227*
X03073Y02271*
X03076Y02273*
X03078Y02276*
X03079Y0228*
Y02476*
X03161Y02558*
X03163Y02561*
X03164Y02565*
Y02736*
X03196Y02768*
X032Y02766*
Y0268*
X03201Y02676*
X03203Y02673*
X03228Y02648*
X03231Y02646*
X03235Y02645*
X03238Y02646*
X03241Y02648*
X03243Y02651*
X03244Y02655*
X03243Y02658*
X03241Y02661*
X03219Y02683*
Y02759*
X03224Y0276*
X03228Y02758*
X03259*
X03264Y0276*
X03289Y02785*
X03291Y0279*
Y02827*
X03292Y02828*
X03437*
X03448Y02817*
Y0266*
X0345Y02655*
X03645Y0246*
X0365Y02458*
X03725*
X03729Y0246*
X03734Y02465*
X03736Y0247*
Y025*
X03734Y02504*
X03721Y02517*
Y02531*
X03721Y02532*
X03726Y02534*
X03729Y02531*
X03735Y0253*
X0374Y02531*
X03745Y02535*
X03748Y02539*
X03749Y02545*
X03748Y0255*
X03746Y02553*
Y03106*
X03748Y03109*
X03749Y03115*
X03748Y0312*
X03746Y03123*
Y03316*
X03748Y03319*
X03749Y03325*
X03748Y0333*
X03745Y03335*
X0374Y03338*
X03735Y03339*
X03729Y03338*
X03725Y03335*
X03721Y0333*
X0372Y03325*
X03721Y03319*
X03723Y03316*
Y03123*
X03721Y0312*
X0372Y03115*
X03721Y03109*
X03723Y03106*
Y02989*
X0372Y02986*
X03705*
X03701Y02984*
X03696Y02986*
Y03495*
X03695Y03499*
X03692Y03502*
X03622Y03572*
X03621Y03573*
X03623Y03578*
X0376*
X03793Y03545*
Y02875*
Y02257*
X03755Y02218*
X03127*
X03118Y02227*
X03118Y0223*
X03115Y02235*
X0311Y02238*
X03105Y02239*
X03099Y02238*
X03095Y02235*
X03091Y0223*
X0309Y02225*
X03091Y02219*
X03095Y02215*
X03099Y02211*
X03102Y02211*
X03114Y02199*
X03118Y02197*
X03122Y02196*
X0376*
X03764Y02197*
X03767Y02199*
X03812Y02244*
X03815Y02248*
X03816Y02252*
Y02863*
X03861*
X03864Y02861*
X0387Y0286*
X03875Y02861*
X03875Y02862*
X0388Y02859*
Y02845*
X03881Y02841*
X03883Y02838*
X03886Y02836*
X03888Y02836*
Y02831*
X03885Y0283*
X03882Y02827*
X03879Y02824*
X03878Y0282*
Y02741*
X03873Y02738*
X0387Y02739*
X03864Y02738*
X0386Y02735*
X03856Y0273*
X03855Y02725*
X03856Y02719*
X03858Y02716*
Y02673*
X03856Y0267*
X03855Y02665*
X03856Y02659*
X03858Y02656*
Y02613*
X03856Y0261*
X03855Y02605*
X03856Y02599*
X0386Y02595*
X03864Y02591*
X0387Y0259*
X03873Y02591*
X03878Y02588*
Y02348*
X03879Y02343*
X03882Y0234*
X0392Y02301*
X03924Y02299*
X03928Y02298*
X03932Y02299*
X03936Y02301*
X03938Y02305*
X03939Y02309*
X03938Y02313*
X03936Y02317*
X03901Y02352*
Y02778*
X03906Y0278*
X0394Y02747*
Y02395*
X04725*
Y02345*
X04725Y02345*
X04721Y0234*
X0472Y02335*
X04721Y02329*
X04725Y02325*
X04729Y02321*
X04735Y0232*
X0474Y02321*
X04745Y02325*
X04748Y02329*
X04749Y02335*
X04748Y0234*
X04745Y02345*
X04744Y02345*
Y02395*
X04755*
Y02365*
X04755Y02365*
X04751Y0236*
X0475Y02355*
X04751Y02349*
X04755Y02345*
X04759Y02341*
X04765Y0234*
X0477Y02341*
X04775Y02345*
X04778Y02349*
X04779Y02355*
X04778Y0236*
X04775Y02365*
X04774Y02365*
Y02395*
X04933*
Y02171*
X01011*
Y04988*
X04933*
Y0337*
G37*
G36*
X0429Y03975D02*
Y03725D01*
X0432Y03695*
X04765*
Y03645*
X0429*
X0423Y03705*
Y0389*
X042Y0392*
X03595*
X03575Y039*
Y03635*
X0357Y0363*
X0353*
X03525Y03635*
Y0397*
X03545Y0399*
X04275*
X0429Y03975*
G37*
G36*
X03324Y0347D02*
Y03405D01*
X03339Y0339*
Y03325*
Y03115*
X03274Y0305*
Y0294*
X03284Y0293*
Y0286*
X03289Y02855*
X03445*
X03475Y02825*
Y02685*
X03485Y02675*
X0369*
X037Y02685*
Y02975*
X03705Y0298*
X0372*
X03723Y02976*
Y02648*
X03715Y0264*
Y02515*
X0373Y025*
Y0247*
X03725Y02465*
X0365*
X03455Y0266*
Y0282*
X0344Y02835*
X0329*
X03284Y0283*
Y0279*
X03259Y02765*
X03228*
Y03048*
X03314Y03135*
Y03325*
X03259Y0338*
X02769*
X02765Y03384*
Y03479*
X02768Y03482*
X0281*
Y03424*
X02824Y0341*
X03144*
X0315Y03415*
Y03471*
X03163Y03485*
X03309*
X03324Y0347*
G37*
G36*
X03222Y03577D02*
X03224Y03573D01*
X03221Y0357*
X0322Y03565*
X03221Y03559*
X03225Y03555*
X03229Y03551*
X03235Y0355*
X0324Y03551*
X03243Y03553*
X0361*
X03673Y0349*
Y02819*
X03501*
X03497Y02822*
X03492Y02823*
X03486Y02822*
X03486Y02821*
X03481Y02824*
Y02825*
X03479Y02829*
X03449Y02859*
X03445Y02861*
X03292*
X03291Y02862*
Y0293*
X03289Y02934*
X03281Y02942*
Y03047*
X03344Y0311*
X03346Y03115*
Y03325*
Y0339*
X03344Y03394*
X03331Y03407*
Y0347*
X03329Y03474*
X03314Y03489*
X03309Y03491*
X03163*
X03159Y03489*
X03145Y03475*
X03143Y03471*
Y03417*
X03142Y03416*
X03038*
X03036Y03418*
X03035Y03421*
X03036Y03425*
Y03555*
X03037Y03557*
X0304Y0356*
X03041Y03565*
X0304Y03569*
X03037Y03572*
X03036Y03573*
X03038Y03578*
X03107*
X03108Y03573*
X03107Y03573*
X03104Y03573*
X031Y0357*
X03096Y03565*
X03095Y0356*
X03096Y03554*
X031Y0355*
X03104Y03546*
X0311Y03545*
X03115Y03546*
X03118Y03548*
X03175*
X03202Y03522*
X03205Y03519*
X0321Y03518*
X0334*
X03343Y03515*
Y03428*
X03341Y03425*
X0334Y0342*
X03341Y03414*
X03345Y0341*
X03349Y03406*
X03355Y03405*
X0336Y03406*
X03365Y0341*
X03368Y03414*
X03369Y0342*
X03368Y03425*
X03366Y03428*
Y0352*
X03365Y03524*
X03362Y03527*
X03352Y03537*
X03349Y0354*
X03345Y03541*
X03214*
X03187Y03567*
X03184Y0357*
X0318Y03571*
X03118*
X03115Y03573*
X03112Y03573*
X03111Y03573*
X03112Y03578*
X03222*
X03222Y03577*
G37*
G36*
X03675Y028D02*
X03679Y02796D01*
X03685Y02795*
X03688Y02796*
X03693Y02793*
Y02687*
X03687Y02681*
X03487*
X03481Y02687*
Y02793*
X03486Y02796*
X03486Y02795*
X03492Y02794*
X03497Y02795*
X03502Y02799*
X03503Y028*
X03674*
X03675Y028*
G37*
%LNv1.0-2*%
%LPC*%
G36*
X04534Y04978D02*
Y04938D01*
X04562*
Y04946*
X04561Y04954*
X04557Y04962*
X04552Y04969*
X04545Y04974*
X04537Y04977*
X04534Y04978*
G37*
G36*
X04229D02*
Y04938D01*
X04257*
Y04946*
X04255Y04954*
X04252Y04962*
X04247Y04969*
X0424Y04974*
X04232Y04977*
X04229Y04978*
G37*
G36*
X04219D02*
X04215Y04977D01*
X04207Y04974*
X042Y04969*
X04195Y04962*
X04192Y04954*
X04191Y04946*
Y04938*
X04219*
Y04978*
G37*
G36*
X04524D02*
X0452Y04977D01*
X04512Y04974*
X04506Y04969*
X045Y04962*
X04497Y04954*
X04496Y04946*
Y04938*
X04524*
Y04978*
G37*
G36*
X04562Y04928D02*
X04534D01*
Y04888*
X04537Y04888*
X04545Y04892*
X04552Y04897*
X04557Y04904*
X04561Y04912*
X04562Y0492*
Y04928*
G37*
G36*
X04219D02*
X04191D01*
Y0492*
X04192Y04912*
X04195Y04904*
X042Y04897*
X04207Y04892*
X04215Y04888*
X04219Y04888*
Y04928*
G37*
G36*
X04257D02*
X04229D01*
Y04888*
X04232Y04888*
X0424Y04892*
X04247Y04897*
X04252Y04904*
X04255Y04912*
X04257Y0492*
Y04928*
G37*
G36*
X04524D02*
X04496D01*
Y0492*
X04497Y04912*
X045Y04904*
X04506Y04897*
X04512Y04892*
X0452Y04888*
X04524Y04888*
Y04928*
G37*
G36*
X04278Y04847D02*
X04269Y04845D01*
X04262Y0484*
X04257Y04833*
X04256Y04828*
X04251Y04826*
X04249Y04828*
X0424Y04832*
X04235Y04832*
Y04788*
X04268*
Y04794*
X04268Y048*
X04272Y04804*
X04278Y04802*
X04286Y04804*
X04293Y04809*
X04298Y04816*
X043Y04825*
X04298Y04833*
X04293Y0484*
X04286Y04845*
X04278Y04847*
G37*
G36*
X04815Y04955D02*
X048Y04953D01*
X04786Y04949*
X04773Y04942*
X04761Y04933*
X04752Y04921*
X04745Y04908*
X04741Y04894*
X04739Y0488*
X04741Y04865*
X04745Y04851*
X04752Y04838*
X04761Y04826*
X04773Y04817*
X04786Y0481*
X048Y04806*
X04815Y04804*
X04829Y04806*
X04843Y0481*
X04856Y04817*
X04868Y04826*
X04877Y04838*
X04884Y04851*
X04888Y04865*
X0489Y0488*
X04888Y04894*
X04884Y04908*
X04877Y04921*
X04868Y04933*
X04856Y04942*
X04843Y04949*
X04829Y04953*
X04815Y04955*
G37*
G36*
X0112D02*
X01105Y04953D01*
X01091Y04949*
X01078Y04942*
X01066Y04933*
X01057Y04921*
X0105Y04908*
X01046Y04894*
X01044Y0488*
X01046Y04865*
X0105Y04851*
X01057Y04838*
X01066Y04826*
X01078Y04817*
X01091Y0481*
X01105Y04806*
X0112Y04804*
X01134Y04806*
X01148Y0481*
X01161Y04817*
X01173Y04826*
X01182Y04838*
X01189Y04851*
X01193Y04865*
X01195Y0488*
X01193Y04894*
X01189Y04908*
X01182Y04921*
X01173Y04933*
X01161Y04942*
X01148Y04949*
X01134Y04953*
X0112Y04955*
G37*
G36*
X04528Y04832D02*
Y04788D01*
X04562*
Y04794*
X0456Y04804*
X04557Y04814*
X0455Y04822*
X04542Y04828*
X04533Y04832*
X04528Y04832*
G37*
G36*
X04225D02*
X0422Y04832D01*
X0421Y04828*
X04202Y04822*
X04196Y04814*
X04192Y04804*
X04191Y04794*
Y04788*
X04225*
Y04832*
G37*
G36*
X04475Y04847D02*
X04466Y04845D01*
X04459Y0484*
X04454Y04833*
X04452Y04825*
X04454Y04816*
X04459Y04809*
X04466Y04804*
X04475Y04802*
X0448Y04804*
X04485Y048*
X04484Y04794*
Y04788*
X04518*
Y04832*
X04513Y04832*
X04503Y04828*
X04502Y04826*
X04496Y04828*
X04495Y04833*
X0449Y0484*
X04483Y04845*
X04475Y04847*
G37*
G36*
X038Y04806D02*
X0378D01*
Y04785*
X038*
Y04806*
G37*
G36*
X0377D02*
X03749D01*
Y04785*
X0377*
Y04806*
G37*
G36*
X02145Y04971D02*
X0214Y0497D01*
X02137Y04967*
X02134Y04964*
X02133Y0496*
Y04775*
X02134Y0477*
X02137Y04767*
X0214Y04764*
X02145Y04763*
X02149Y04764*
X02152Y04767*
X02155Y0477*
X02156Y04775*
Y0496*
X02155Y04964*
X02152Y04967*
X02149Y0497*
X02145Y04971*
G37*
G36*
X01525Y04815D02*
X0144D01*
Y0476*
X01525*
Y04815*
G37*
G36*
X0143D02*
X01345D01*
Y0476*
X0143*
Y04815*
G37*
G36*
X04562Y04778D02*
X04528D01*
Y04734*
X04533Y04735*
X04542Y04739*
X0455Y04745*
X04557Y04753*
X0456Y04762*
X04562Y04772*
Y04778*
G37*
G36*
X04225D02*
X04191D01*
Y04772*
X04192Y04762*
X04196Y04753*
X04202Y04745*
X0421Y04739*
X0422Y04735*
X04225Y04734*
Y04778*
G37*
G36*
X04518D02*
X04484D01*
Y04772*
X04485Y04762*
X04489Y04753*
X04495Y04745*
X04503Y04739*
X04513Y04735*
X04518Y04734*
Y04778*
G37*
G36*
X03739Y04804D02*
X0369D01*
Y0476*
X03698*
Y04748*
X03696Y04745*
X03695Y0474*
X03696Y04734*
X037Y0473*
X03701Y04729*
X03699Y04724*
X03666*
X03666Y04727*
X03661Y04739*
X03653Y04748*
X03644Y04756*
X03632Y04761*
X03625Y04762*
Y04715*
Y04667*
X03632Y04668*
X03644Y04673*
X03653Y04681*
X03661Y04691*
X03666Y04702*
X03666Y04705*
X03822*
Y04667*
X03865*
Y04715*
X0387*
X03865*
Y04762*
X03822*
Y04724*
X03784*
Y04754*
X038*
Y04775*
X03775*
X03749*
Y04754*
X03765*
Y04724*
X0372*
X03718Y04729*
X0372Y0473*
X03723Y04734*
X03724Y0474*
X03723Y04745*
X03721Y04748*
Y0476*
X03739*
Y04804*
G37*
G36*
X03917Y04762D02*
X03875D01*
Y0472*
X03917*
Y04762*
G37*
G36*
X03615Y04762D02*
X03607Y04761D01*
X03596Y04756*
X03586Y04748*
X03578Y04739*
X03573Y04727*
X03572Y0472*
X03615*
Y04762*
G37*
G36*
X03445Y0491D02*
X03255D01*
Y047*
X03445*
Y0491*
G37*
G36*
X01525Y0475D02*
X0144D01*
Y04695*
X01525*
Y0475*
G37*
G36*
X0143D02*
X01345D01*
Y04695*
X0143*
Y0475*
G37*
G36*
X03615Y0471D02*
X03572D01*
X03573Y04702*
X03578Y04691*
X03586Y04681*
X03596Y04673*
X03607Y04668*
X03615Y04667*
Y0471*
G37*
G36*
X04268Y04778D02*
X04235D01*
Y04734*
X0424Y04735*
X04243Y04736*
X04268Y04711*
X04273Y04707*
X0428Y04706*
X04287*
X0429Y04701*
X0429Y04701*
X04289Y04696*
Y04639*
X04221*
X04217Y04638*
X04213Y04635*
X04192Y04615*
X0419Y04611*
X04189Y04607*
X0419Y04602*
X04192Y04599*
X04196Y04596*
X042Y04595*
X04205Y04596*
X04208Y04599*
X04226Y04616*
X04289*
Y04593*
X0429Y04589*
X04292Y04585*
X04298Y0458*
Y04579*
X04296Y04575*
X04258*
X04257Y04576*
X04251Y04577*
X04246Y04576*
X04241Y04572*
X04238Y04568*
X04237Y04562*
X04238Y04557*
X04241Y04552*
X04246Y04549*
X04251Y04548*
X04257Y04549*
X04261Y04552*
X0434*
X04342Y04548*
X0434Y04546*
X04338Y04543*
X04337Y04538*
Y04436*
X04338Y04431*
X0434Y04428*
X04344Y04425*
X04348Y04425*
X04353Y04425*
X04356Y04428*
X04359Y04431*
X04359Y04436*
Y04513*
X04364Y04515*
X04366Y04514*
X04371Y04513*
X04377Y04514*
X04381Y04517*
X04452*
X04457Y04518*
X0446Y04521*
X04489Y0455*
X04492Y04553*
X04492Y04557*
Y04624*
X04494Y04627*
X04495Y04632*
X04494Y04638*
X04491Y04642*
X04487Y04646*
X04481Y04647*
X04477Y04646*
X04472Y04649*
Y04674*
X04474Y04677*
X04475Y04682*
X04474Y04688*
X04471Y04692*
X04467Y04696*
X04461Y04697*
X04456Y04696*
X04451Y04692*
X04448Y04688*
X04447Y04682*
X04448Y04677*
X0445Y04674*
Y04611*
X04448Y04608*
X04447Y04602*
X04448Y04599*
X04446Y04597*
X04443Y04596*
X04441Y04598*
X04436Y04599*
X04311*
Y04627*
Y04692*
X04326Y04706*
X04326*
X04332Y04707*
X04338Y04711*
X04341Y04716*
X04343Y04722*
X04341Y04729*
X04338Y04734*
X04332Y04738*
X04326Y04739*
X04286*
X04266Y04759*
X04267Y04762*
X04268Y04772*
Y04778*
G37*
G36*
X01295Y04695D02*
X0124D01*
Y0461*
X01295*
Y04695*
G37*
G36*
X0123D02*
X01175D01*
Y0461*
X0123*
Y04695*
G37*
G36*
X0279Y04845D02*
X0256D01*
Y04595*
X0279*
Y04845*
G37*
G36*
X01295Y046D02*
X0124D01*
Y04515*
X01295*
Y046*
G37*
G36*
X0123D02*
X01175D01*
Y04515*
X0123*
Y046*
G37*
G36*
X04251Y04497D02*
X04246Y04496D01*
X04241Y04492*
X04238Y04488*
X04237Y04482*
X04238Y04477*
X04241Y04472*
X04246Y04469*
X04247Y04469*
X04247Y04468*
X04244Y04463*
X04086*
X04082Y04466*
X04076Y04467*
X04071Y04466*
X04066Y04462*
X04063Y04458*
X04062Y04452*
X04063Y04447*
X04066Y04442*
X04071Y04439*
X04076Y04438*
X04082Y04439*
X04083Y0444*
X04247*
X04251Y04438*
X04256Y04437*
X04262Y04438*
X04265Y0444*
X04269Y04438*
X0427Y04438*
Y04357*
X04254Y04341*
X04251Y04341*
X04246Y04337*
X04243Y04333*
X04242Y04327*
X04243Y04322*
X04246Y04317*
X04251Y04314*
X04256Y04313*
X04262Y04314*
X04266Y04317*
X04269Y04322*
X0427Y04325*
X04289Y04345*
X04292Y04348*
X04292Y04352*
Y04452*
X04292Y04457*
X04289Y0446*
X04265Y04485*
X04264Y04488*
X04261Y04492*
X04257Y04496*
X04251Y04497*
G37*
G36*
X01521Y04561D02*
X01349D01*
Y04449*
X01521*
Y04561*
G37*
G36*
X03805Y04449D02*
X03785D01*
Y04428*
X03805*
Y04449*
G37*
G36*
X03775D02*
X03754D01*
Y04428*
X03775*
Y04449*
G37*
G36*
X04691Y04537D02*
X04686Y04536D01*
X04681Y04532*
X04678Y04528*
X04677Y04522*
X04678Y04517*
X0468Y04514*
Y04391*
X04678Y04388*
X04677Y04382*
X04678Y04377*
X04681Y04372*
X04686Y04369*
X04691Y04368*
X04697Y04369*
X04701Y04372*
X04704Y04377*
X04705Y04382*
X04704Y04388*
X04702Y04391*
Y04514*
X04704Y04517*
X04705Y04522*
X04704Y04528*
X04701Y04532*
X04697Y04536*
X04691Y04537*
G37*
G36*
X03739Y04449D02*
X0369D01*
Y04405*
X03698*
Y04383*
X03696Y0438*
X03695Y04375*
X03696Y04369*
X03697Y04369*
X03694Y04364*
X03666*
X03666Y04367*
X03661Y04379*
X03653Y04388*
X03644Y04396*
X03632Y04401*
X03625Y04402*
Y04355*
Y04307*
X03632Y04308*
X03644Y04313*
X03653Y04321*
X03661Y04331*
X03666Y04342*
X03666Y04345*
X03822*
Y04307*
X03865*
Y04355*
Y04402*
X03822*
Y04364*
X03789*
Y04397*
X03805*
Y04418*
X0378*
X03754*
Y04397*
X0377*
Y04364*
X03725*
X03722Y04369*
X03723Y04369*
X03724Y04375*
X03723Y0438*
X03721Y04383*
Y04405*
X03739*
Y04449*
G37*
G36*
X03917Y0471D02*
X03875D01*
Y04667*
X03901*
X03928Y0464*
Y04429*
X03901Y04402*
X03875*
Y0436*
X03917*
Y04386*
X03947Y04417*
X0395Y0442*
X03951Y04425*
Y04645*
X0395Y04649*
X03947Y04652*
X03917Y04683*
Y0471*
G37*
G36*
X03615Y04402D02*
X03607Y04401D01*
X03596Y04396*
X03586Y04388*
X03578Y04379*
X03573Y04367*
X03572Y0436*
X03615*
Y04402*
G37*
G36*
X04599Y04546D02*
X04593Y04545D01*
X04589Y04542*
X04586Y04538*
X04585Y04532*
X04586Y04527*
X04588Y04524*
Y04382*
X04586Y04379*
X04585Y04374*
X04586Y04368*
X04589Y04364*
X04594Y0436*
X04599Y04359*
X04604Y0436*
X04609Y04364*
X04612Y04368*
X04613Y04374*
X04612Y04379*
X0461Y04382*
Y04524*
X04612Y04527*
X04613Y04532*
X04612Y04538*
X04609Y04542*
X04604Y04545*
X04599Y04546*
G37*
G36*
X04646Y04502D02*
X04641Y04501D01*
X04636Y04497*
X04633Y04493*
X04632Y04487*
X04633Y04482*
X04635Y04479*
Y04341*
X04633Y04338*
X04632Y04332*
X04633Y04327*
X04636Y04322*
X04641Y04319*
X04646Y04318*
X04652Y04319*
X04656Y04322*
X04659Y04327*
X0466Y04332*
X04659Y04338*
X04657Y04341*
Y04479*
X04659Y04482*
X0466Y04487*
X04659Y04493*
X04656Y04497*
X04652Y04501*
X04646Y04502*
G37*
G36*
X03615Y0435D02*
X03572D01*
X03573Y04342*
X03578Y04331*
X03586Y04321*
X03596Y04313*
X03607Y04308*
X03615Y04307*
Y0435*
G37*
G36*
X03917D02*
X03875D01*
Y04307*
X03917*
Y0435*
G37*
G36*
X0178Y04806D02*
X01771Y04804D01*
X01764Y048*
X0176Y04793*
X01758Y04785*
Y04587*
X01527Y04356*
X01524Y04351*
X01469*
Y04278*
X01564*
Y04328*
X01564Y0433*
Y04332*
X01795Y04563*
X01799Y0457*
X01801Y04578*
Y04785*
X01799Y04793*
X01795Y048*
X01788Y04804*
X0178Y04806*
G37*
G36*
X0108Y04383D02*
X0107Y04382D01*
X0106Y04378*
X01052Y04372*
X01046Y04364*
X01042Y04355*
X01041Y04345*
X01042Y04335*
X01046Y04325*
X01052Y04317*
X0106Y04311*
X0107Y04307*
X0108Y04306*
X0109Y04307*
X01099Y04311*
X01107Y04317*
X01112Y04323*
X01141*
Y04306*
X01218*
Y04323*
X01293*
X01296Y04321*
Y04278*
X0139*
Y04351*
X01326*
X01317Y0436*
X0131Y04364*
X01302Y04366*
X01218*
Y04383*
X01141*
Y04366*
X01112*
X01107Y04372*
X01099Y04378*
X0109Y04382*
X0108Y04383*
G37*
G36*
X0118Y04283D02*
X0117Y04282D01*
X0116Y04278*
X01152Y04272*
X01147Y04266*
X01112*
X01107Y04272*
X01099Y04278*
X0109Y04282*
X0108Y04283*
X0107Y04282*
X0106Y04278*
X01052Y04272*
X01046Y04264*
X01042Y04255*
X01041Y04245*
X01042Y04235*
X01046Y04225*
X01052Y04217*
X0106Y04211*
X0107Y04207*
X0108Y04206*
X0109Y04207*
X01099Y04211*
X01107Y04217*
X01112Y04223*
X01147*
X01152Y04217*
X0116Y04211*
X0117Y04207*
X0118Y04206*
X01187Y04207*
X01289Y04105*
X01296Y041*
X01301Y04099*
Y04068*
X01395*
Y04141*
X01334*
X01332Y04141*
X01313*
X01217Y04237*
X01218Y04245*
X01217Y04255*
X01213Y04264*
X01207Y04272*
X01199Y04278*
X0119Y04282*
X0118Y04283*
G37*
G36*
X01185Y04187D02*
Y0415D01*
X01222*
X01221Y04156*
X01217Y04166*
X0121Y04175*
X01201Y04182*
X01191Y04186*
X01185Y04187*
G37*
G36*
X01085D02*
Y0415D01*
X01122*
X01121Y04156*
X01117Y04166*
X0111Y04175*
X01101Y04182*
X01091Y04186*
X01085Y04187*
G37*
G36*
X01175D02*
X01168Y04186D01*
X01158Y04182*
X01149Y04175*
X01142Y04166*
X01138Y04156*
X01137Y0415*
X01175*
Y04187*
G37*
G36*
X01075D02*
X01068Y04186D01*
X01058Y04182*
X01049Y04175*
X01042Y04166*
X01038Y04156*
X01037Y0415*
X01075*
Y04187*
G37*
G36*
X04808Y04188D02*
X04737D01*
Y04117*
X04808*
Y04188*
G37*
G36*
X01222Y0414D02*
X01185D01*
Y04102*
X01191Y04103*
X01201Y04107*
X0121Y04114*
X01217Y04123*
X01221Y04133*
X01222Y0414*
G37*
G36*
X01122D02*
X01085D01*
Y04102*
X01091Y04103*
X01101Y04107*
X0111Y04114*
X01117Y04123*
X01121Y04133*
X01122Y0414*
G37*
G36*
X01175D02*
X01137D01*
X01138Y04133*
X01142Y04123*
X01149Y04114*
X01158Y04107*
X01168Y04103*
X01175Y04102*
Y0414*
G37*
G36*
X01075D02*
X01037D01*
X01038Y04133*
X01042Y04123*
X01049Y04114*
X01058Y04107*
X01068Y04103*
X01075Y04102*
Y0414*
G37*
G36*
X01185Y04087D02*
Y0405D01*
X01222*
X01221Y04056*
X01217Y04066*
X0121Y04075*
X01201Y04082*
X01191Y04086*
X01185Y04087*
G37*
G36*
X01085D02*
Y0405D01*
X01122*
X01121Y04056*
X01117Y04066*
X0111Y04075*
X01101Y04082*
X01091Y04086*
X01085Y04087*
G37*
G36*
X01175D02*
X01168Y04086D01*
X01158Y04082*
X01149Y04075*
X01142Y04066*
X01138Y04056*
X01137Y0405*
X01175*
Y04087*
G37*
G36*
X01075D02*
X01068Y04086D01*
X01058Y04082*
X01049Y04075*
X01042Y04066*
X01038Y04056*
X01037Y0405*
X01075*
Y04087*
G37*
G36*
X04773Y04089D02*
X04764Y04088D01*
X04755Y04084*
X04748Y04078*
X04742Y04071*
X04738Y04062*
X04737Y04053*
X04738Y04044*
X04742Y04035*
X04748Y04028*
X04755Y04022*
X04764Y04018*
X04773Y04017*
X04782Y04018*
X04791Y04022*
X04798Y04028*
X04804Y04035*
X04808Y04044*
X04809Y04053*
X04808Y04062*
X04804Y04071*
X04798Y04078*
X04791Y04084*
X04782Y04088*
X04773Y04089*
G37*
G36*
X01222Y0404D02*
X01185D01*
Y04002*
X01191Y04003*
X01201Y04007*
X0121Y04014*
X01217Y04023*
X01221Y04033*
X01222Y0404*
G37*
G36*
X01122D02*
X01085D01*
Y04002*
X01091Y04003*
X01101Y04007*
X0111Y04014*
X01117Y04023*
X01121Y04033*
X01122Y0404*
G37*
G36*
X01175D02*
X01137D01*
X01138Y04033*
X01142Y04023*
X01149Y04014*
X01158Y04007*
X01168Y04003*
X01175Y04002*
Y0404*
G37*
G36*
X01075D02*
X01037D01*
X01038Y04033*
X01042Y04023*
X01049Y04014*
X01058Y04007*
X01068Y04003*
X01075Y04002*
Y0404*
G37*
G36*
X01855Y04809D02*
X01849Y04808D01*
X01845Y04805*
X01841Y048*
X0184Y04795*
X01841Y04789*
X01843Y04786*
Y04156*
X01485*
X0148Y04154*
X0146Y04134*
X01458Y0413*
Y03857*
X01437Y03836*
X0138*
X01375Y03834*
X0129Y03749*
X01288Y03745*
Y02707*
X01285Y02704*
X01283Y027*
X01285Y02695*
X0134Y0264*
X01345Y02638*
X01925*
X01929Y0264*
X01934Y02645*
X01938Y02643*
Y02614*
X0192Y02596*
X01165*
X0116Y02595*
X01157Y02592*
X01098Y02534*
X0109Y02537*
X0108Y02538*
X0107Y02537*
X0106Y02533*
X01052Y02527*
X01046Y02519*
X01042Y0251*
X01041Y025*
X01042Y0249*
X01046Y0248*
X01052Y02472*
X0106Y02466*
X0107Y02462*
X01079Y02461*
X0108Y02459*
X01081Y02456*
X01077Y02452*
X01074Y02448*
X01073Y02444*
Y02438*
X01041*
Y02361*
X01118*
Y02438*
X01123Y02438*
X01152*
X01154Y02433*
X01149Y0243*
X01142Y02421*
X01138Y02411*
X01137Y02405*
X0118*
X01222*
X01221Y02411*
X01217Y02421*
X0121Y0243*
X01205Y02433*
X01207Y02438*
X0183*
X01834Y02439*
X01837Y02442*
X02012Y02616*
X02015Y02616*
X0202Y0262*
X02023Y02624*
X02024Y0263*
X02023Y02635*
X0202Y0264*
X02015Y02643*
X0201Y02644*
X02004Y02643*
X02Y0264*
X01996Y02635*
X01996Y02632*
X01825Y02461*
X01207*
X01205Y02466*
X0121Y02469*
X01217Y02478*
X01221Y02488*
X01222Y02495*
X0118*
X01137*
X01138Y02488*
X01142Y02478*
X01149Y02469*
X01154Y02466*
X01152Y02461*
X011*
X01099Y02466*
X01099Y02466*
X01107Y02472*
X01113Y0248*
X01117Y0249*
X01118Y025*
X01117Y0251*
X01114Y02518*
X01169Y02573*
X01925*
X01929Y02574*
X01932Y02577*
X01957Y02602*
X0196Y02605*
X01961Y0261*
Y02721*
X01963Y02724*
X01964Y0273*
X01963Y02735*
X0196Y0274*
X01955Y02743*
X0195Y02744*
X01944Y02743*
X0194Y0274*
X01936Y02735*
X01935Y0273*
X01936Y02724*
X01938Y02721*
Y02716*
X01934Y02715*
X01929Y02719*
X01925Y02721*
X01457*
X01396Y02782*
Y03685*
X01449Y03738*
X01565*
X01569Y0374*
X01589Y0376*
X01591Y03765*
Y04017*
X01607Y04033*
X03162*
X03183Y04012*
Y03995*
X03185Y0399*
X0319Y03988*
X03265*
X03269Y0399*
X03271Y03995*
Y04085*
X03269Y04089*
X03204Y04154*
X032Y04156*
X01866*
Y04786*
X01868Y04789*
X01869Y04795*
X01868Y048*
X01865Y04805*
X0186Y04808*
X01855Y04809*
G37*
G36*
X04344Y04092D02*
X04339Y0409D01*
X04334Y04087*
X04331Y04083*
X0433Y04077*
X04331Y04072*
X04334Y04069*
Y03911*
X04332Y03908*
X04331Y03903*
X04332Y03898*
X04335Y03893*
X04339Y0389*
X04345Y03889*
X0435Y0389*
X04355Y03893*
X04358Y03898*
X04359Y03903*
X04358Y03908*
X04356Y03911*
Y0407*
X04357Y04072*
X04359Y04077*
X04357Y04083*
X04354Y04087*
X0435Y0409*
X04344Y04092*
G37*
G36*
X04808Y03948D02*
X04737D01*
Y03877*
X04808*
Y03948*
G37*
G36*
X04465Y04137D02*
X04461Y04136D01*
X04458Y04134*
X04456Y04131*
X04456Y04128*
Y03873*
X04456Y03869*
X04458Y03866*
X04461Y03864*
X04465Y03864*
X04468Y03864*
X04471Y03866*
X04521Y03916*
X04523Y03919*
X04524Y03923*
Y03993*
X04523Y03996*
X04521Y03999*
X04518Y04001*
X04515Y04002*
X04511Y04001*
X04508Y03999*
X04506Y03996*
X04506Y03993*
Y03927*
X04479Y039*
X04474Y03902*
Y04128*
X04473Y04131*
X04471Y04134*
X04468Y04136*
X04465Y04137*
G37*
G36*
X01203Y03928D02*
X01126D01*
Y03851*
X01203*
Y03928*
G37*
G36*
X0287Y03785D02*
X02864Y03783D01*
X02861Y03781*
X02637*
X02635Y03783*
X0263Y03784*
X02624Y03783*
X0262Y0378*
X02616Y03775*
X02615Y0377*
X02616Y03764*
X0262Y0376*
X02624Y03756*
X0263Y03755*
X02635Y03756*
X02638Y03759*
X02862*
X02864Y03757*
X0287Y03756*
X02875Y03757*
X0288Y0376*
X02883Y03765*
X02884Y0377*
X02883Y03776*
X0288Y0378*
X02875Y03783*
X0287Y03785*
G37*
G36*
X04773Y03849D02*
X04764Y03848D01*
X04755Y03844*
X04748Y03838*
X04742Y03831*
X04738Y03822*
X04737Y03813*
X04738Y03804*
X04742Y03795*
X04748Y03788*
X04755Y03782*
X04764Y03778*
X04773Y03777*
X04782Y03778*
X04791Y03782*
X04798Y03788*
X04804Y03795*
X04808Y03804*
X04809Y03813*
X04808Y03822*
X04804Y03831*
X04798Y03838*
X04791Y03844*
X04782Y03848*
X04773Y03849*
G37*
G36*
X02425Y04026D02*
X01655D01*
X0165Y04025*
X01647Y04022*
X01644Y04019*
X01643Y04015*
Y0377*
X01644Y03765*
X01647Y03762*
X0165Y03759*
X01655Y03758*
X02425*
X02429Y03759*
X02432Y03762*
X02435Y03765*
X02436Y0377*
Y04015*
X02435Y04019*
X02432Y04022*
X02429Y04025*
X02425Y04026*
G37*
G36*
X02605Y03726D02*
D01*
X0237*
X02365Y03725*
X02362Y03722*
X02302Y03662*
X02299Y03659*
X02298Y03655*
X02299Y0365*
X02302Y03647*
X02305Y03644*
X0231Y03643*
X02314Y03644*
X02317Y03647*
X02374Y03703*
X026*
X02613Y0369*
Y0366*
X02614Y03655*
X02617Y03652*
X0262Y03649*
X02625Y03648*
X02629Y03649*
X02632Y03652*
X02635Y03655*
X02636Y0366*
Y03695*
X02635Y03699*
X02632Y03702*
X02612Y03722*
X02609Y03725*
X02605Y03726*
G37*
G36*
X01165Y03791D02*
X01155Y03789D01*
X01145Y03785*
X01137Y03779*
X01131Y03771*
X01127Y03762*
X01126Y03752*
X01127Y03742*
X01131Y03732*
X01137Y03724*
X01145Y03718*
X01155Y03714*
X01165Y03713*
X01175Y03714*
X01184Y03718*
X01192Y03724*
X01198Y03732*
X01202Y03742*
X01203Y03752*
X01202Y03762*
X01198Y03771*
X01192Y03779*
X01184Y03785*
X01175Y03789*
X01165Y03791*
G37*
G36*
Y03653D02*
X01155Y03651D01*
X01145Y03648*
X01137Y03641*
X01131Y03633*
X01127Y03624*
X01126Y03614*
X01127Y03604*
X01131Y03595*
X01137Y03587*
X01145Y0358*
X01155Y03576*
X01165Y03575*
X01175Y03576*
X01184Y0358*
X01192Y03587*
X01198Y03595*
X01202Y03604*
X01203Y03614*
X01202Y03624*
X01198Y03633*
X01192Y03641*
X01184Y03648*
X01175Y03651*
X01165Y03653*
G37*
G36*
Y03515D02*
X01155Y03514D01*
X01145Y0351*
X01137Y03504*
X01131Y03496*
X01127Y03486*
X01126Y03476*
X01127Y03466*
X01131Y03457*
X01137Y03449*
X01145Y03443*
X01155Y03439*
X01165Y03437*
X01175Y03439*
X01184Y03443*
X01192Y03449*
X01198Y03457*
X01202Y03466*
X01203Y03476*
X01202Y03486*
X01198Y03496*
X01192Y03504*
X01184Y0351*
X01175Y03514*
X01165Y03515*
G37*
G36*
Y03377D02*
X01155Y03376D01*
X01145Y03372*
X01137Y03366*
X01131Y03358*
X01127Y03348*
X01126Y03338*
X01127Y03328*
X01131Y03319*
X01137Y03311*
X01145Y03305*
X01155Y03301*
X01165Y033*
X01175Y03301*
X01184Y03305*
X01192Y03311*
X01198Y03319*
X01202Y03328*
X01203Y03338*
X01202Y03348*
X01198Y03358*
X01192Y03366*
X01184Y03372*
X01175Y03376*
X01165Y03377*
G37*
G36*
X03155Y03279D02*
X03149Y03278D01*
X03145Y03275*
X03144Y03274*
X0284*
X02836Y03273*
X02833Y03271*
X02466Y02904*
X02465Y02904*
X02459Y02903*
X02455Y029*
X02451Y02895*
X0245Y0289*
X02451Y02884*
X02455Y0288*
X02459Y02876*
X02465Y02875*
X0247Y02876*
X02475Y0288*
X02478Y02884*
X02479Y0289*
X02479Y02891*
X02843Y03255*
X03144*
X03145Y03255*
X03149Y03251*
X03155Y0325*
X0316Y03251*
X03165Y03255*
X03168Y03259*
X03169Y03265*
X03168Y0327*
X03165Y03275*
X0316Y03278*
X03155Y03279*
G37*
G36*
X01165Y03239D02*
X01155Y03238D01*
X01145Y03234*
X01137Y03228*
X01131Y0322*
X01127Y03211*
X01126Y03201*
X01127Y03191*
X01131Y03181*
X01137Y03173*
X01145Y03167*
X01155Y03163*
X01165Y03162*
X01175Y03163*
X01184Y03167*
X01192Y03173*
X01198Y03181*
X01202Y03191*
X01203Y03201*
X01202Y03211*
X01198Y0322*
X01192Y03228*
X01184Y03234*
X01175Y03238*
X01165Y03239*
G37*
G36*
X03235Y03124D02*
X03229Y03123D01*
X03225Y0312*
X03224Y03119*
X02855*
X02851Y03118*
X02848Y03116*
X02731Y02999*
X0273Y02999*
X02724Y02998*
X0272Y02995*
X02716Y0299*
X02715Y02985*
X02716Y02979*
X0272Y02975*
X02724Y02971*
X0273Y0297*
X02735Y02971*
X0274Y02975*
X02743Y02979*
X02744Y02985*
X02744Y02986*
X02858Y031*
X03224*
X03225Y031*
X03229Y03096*
X03235Y03095*
X0324Y03096*
X03245Y031*
X03248Y03104*
X03249Y0311*
X03248Y03115*
X03245Y0312*
X0324Y03123*
X03235Y03124*
G37*
G36*
X01165Y03102D02*
X01155Y031D01*
X01145Y03096*
X01137Y0309*
X01131Y03082*
X01127Y03073*
X01126Y03063*
X01127Y03053*
X01131Y03043*
X01137Y03035*
X01145Y03029*
X01155Y03025*
X01165Y03024*
X01175Y03025*
X01184Y03029*
X01192Y03035*
X01198Y03043*
X01202Y03053*
X01203Y03063*
X01202Y03073*
X01198Y03082*
X01192Y0309*
X01184Y03096*
X01175Y031*
X01165Y03102*
G37*
G36*
X03125Y02969D02*
X03119Y02968D01*
X03115Y02965*
X03114Y02964*
X03045*
X03041Y02963*
X03038Y02961*
X02963Y02886*
X02961Y02883*
X0296Y0288*
Y02395*
X0296Y02395*
X02956Y0239*
X02955Y02385*
X02956Y02379*
X0296Y02375*
X02964Y02371*
X0297Y0237*
X02975Y02371*
X0298Y02375*
X02983Y02379*
X02984Y02385*
X02983Y0239*
X0298Y02395*
X02979Y02395*
Y02876*
X03048Y02945*
X03114*
X03115Y02945*
X03119Y02941*
X03125Y0294*
X0313Y02941*
X03135Y02945*
X03138Y02949*
X03139Y02955*
X03138Y0296*
X03135Y02965*
X0313Y02968*
X03125Y02969*
G37*
G36*
X01165Y02964D02*
X01155Y02962D01*
X01145Y02959*
X01137Y02952*
X01131Y02944*
X01127Y02935*
X01126Y02925*
X01127Y02915*
X01131Y02906*
X01137Y02898*
X01145Y02891*
X01155Y02887*
X01165Y02886*
X01175Y02887*
X01184Y02891*
X01192Y02898*
X01198Y02906*
X01202Y02915*
X01203Y02925*
X01202Y02935*
X01198Y02944*
X01192Y02952*
X01184Y02959*
X01175Y02962*
X01165Y02964*
G37*
G36*
Y02826D02*
X01155Y02825D01*
X01145Y02821*
X01137Y02815*
X01131Y02807*
X01127Y02797*
X01126Y02787*
X01127Y02777*
X01131Y02768*
X01137Y0276*
X01145Y02754*
X01155Y0275*
X01165Y02748*
X01175Y0275*
X01184Y02754*
X01192Y0276*
X01198Y02768*
X01202Y02777*
X01203Y02787*
X01202Y02797*
X01198Y02807*
X01192Y02815*
X01184Y02821*
X01175Y02825*
X01165Y02826*
G37*
G36*
X03335Y02785D02*
X0332D01*
X03295Y02755*
Y0274*
X0331*
X03335Y0277*
Y02785*
G37*
G36*
X02675Y03056D02*
X0267Y03055D01*
X02667Y03052*
X02664Y03049*
X02663Y03045*
Y02794*
X0261Y02741*
X02305*
X023Y0274*
X02297Y02737*
X02294Y02734*
X02293Y0273*
X02294Y02725*
X02297Y02722*
X023Y02719*
X02305Y02718*
X02615*
X02619Y02719*
X02622Y02722*
X02682Y02782*
X02685Y02785*
X02686Y0279*
Y03045*
X02685Y03049*
X02682Y03052*
X02679Y03055*
X02675Y03056*
G37*
G36*
X01165Y02688D02*
X01155Y02687D01*
X01145Y02683*
X01137Y02677*
X01131Y02669*
X01127Y02659*
X01126Y02649*
X01127Y02639*
X01131Y0263*
X01137Y02622*
X01145Y02616*
X01155Y02612*
X01165Y02611*
X01175Y02612*
X01184Y02616*
X01192Y02622*
X01198Y0263*
X01202Y02639*
X01203Y02649*
X01202Y02659*
X01198Y02669*
X01192Y02677*
X01184Y02683*
X01175Y02687*
X01165Y02688*
G37*
G36*
X0326Y02685D02*
X03255D01*
Y02565*
X03263Y02556*
X03402Y02417*
X03405Y02412*
Y02408*
Y02241*
Y02237*
X03402Y02232*
X03402Y02232*
X03397Y0223*
X03393*
X03142*
X0314*
X03117Y02252*
X03115Y02257*
Y02261*
Y02472*
X03117Y02477*
X03187Y02547*
X03195Y02555*
Y02685*
X0319*
Y02561*
Y02557*
X03187Y02552*
X03117Y02482*
X03114Y02479*
X0311Y02475*
Y02255*
X0314Y02225*
X034*
X0341Y02235*
Y02239*
Y02415*
X03401Y02423*
X03262Y02562*
X0326Y02567*
Y02571*
Y02685*
G37*
G36*
X01185Y02542D02*
Y02505D01*
X01222*
X01221Y02511*
X01217Y02521*
X0121Y0253*
X01201Y02537*
X01191Y02541*
X01185Y02542*
G37*
G36*
X01175D02*
X01168Y02541D01*
X01158Y02537*
X01149Y0253*
X01142Y02521*
X01138Y02511*
X01137Y02505*
X01175*
Y02542*
G37*
G36*
X01222Y02395D02*
X01185D01*
Y02357*
X01191Y02358*
X01201Y02362*
X0121Y02369*
X01217Y02378*
X01221Y02388*
X01222Y02395*
G37*
G36*
X01175D02*
X01137D01*
X01138Y02388*
X01142Y02378*
X01149Y02369*
X01158Y02362*
X01168Y02358*
X01175Y02357*
Y02395*
G37*
G36*
X01595Y02378D02*
X01518D01*
Y02301*
X01595*
Y02378*
G37*
G36*
X02796Y02378D02*
X02786Y02377D01*
X02777Y02373*
X02769Y02367*
X02763Y02359*
X02759Y0235*
X02758Y0234*
X02759Y0233*
X02763Y0232*
X02769Y02312*
X02777Y02306*
X02786Y02302*
X02796Y02301*
X02806Y02302*
X02816Y02306*
X02824Y02312*
X0283Y0232*
X02834Y0233*
X02835Y0234*
X02834Y0235*
X0283Y02359*
X02824Y02367*
X02816Y02373*
X02806Y02377*
X02796Y02378*
G37*
G36*
X02659D02*
X02648Y02377D01*
X02639Y02373*
X02631Y02367*
X02625Y02359*
X02621Y0235*
X0262Y0234*
X02621Y0233*
X02625Y0232*
X02631Y02312*
X02639Y02306*
X02648Y02302*
X02659Y02301*
X02669Y02302*
X02678Y02306*
X02686Y02312*
X02692Y0232*
X02696Y0233*
X02697Y0234*
X02696Y0235*
X02692Y02359*
X02686Y02367*
X02678Y02373*
X02669Y02377*
X02659Y02378*
G37*
G36*
X02521D02*
X02511Y02377D01*
X02501Y02373*
X02493Y02367*
X02487Y02359*
X02483Y0235*
X02482Y0234*
X02483Y0233*
X02487Y0232*
X02493Y02312*
X02501Y02306*
X02511Y02302*
X02521Y02301*
X02531Y02302*
X0254Y02306*
X02548Y02312*
X02554Y0232*
X02558Y0233*
X0256Y0234*
X02558Y0235*
X02554Y02359*
X02548Y02367*
X0254Y02373*
X02531Y02377*
X02521Y02378*
G37*
G36*
X02383D02*
X02373Y02377D01*
X02364Y02373*
X02355Y02367*
X02349Y02359*
X02345Y0235*
X02344Y0234*
X02345Y0233*
X02349Y0232*
X02355Y02312*
X02364Y02306*
X02373Y02302*
X02383Y02301*
X02393Y02302*
X02402Y02306*
X0241Y02312*
X02417Y0232*
X0242Y0233*
X02422Y0234*
X0242Y0235*
X02417Y02359*
X0241Y02367*
X02402Y02373*
X02393Y02377*
X02383Y02378*
G37*
G36*
X02245D02*
X02235Y02377D01*
X02226Y02373*
X02218Y02367*
X02212Y02359*
X02208Y0235*
X02206Y0234*
X02208Y0233*
X02212Y0232*
X02218Y02312*
X02226Y02306*
X02235Y02302*
X02245Y02301*
X02255Y02302*
X02265Y02306*
X02273Y02312*
X02279Y0232*
X02283Y0233*
X02284Y0234*
X02283Y0235*
X02279Y02359*
X02273Y02367*
X02265Y02373*
X02255Y02377*
X02245Y02378*
G37*
G36*
X02107D02*
X02097Y02377D01*
X02088Y02373*
X0208Y02367*
X02074Y02359*
X0207Y0235*
X02069Y0234*
X0207Y0233*
X02074Y0232*
X0208Y02312*
X02088Y02306*
X02097Y02302*
X02107Y02301*
X02117Y02302*
X02127Y02306*
X02135Y02312*
X02141Y0232*
X02145Y0233*
X02146Y0234*
X02145Y0235*
X02141Y02359*
X02135Y02367*
X02127Y02373*
X02117Y02377*
X02107Y02378*
G37*
G36*
X0197D02*
X0196Y02377D01*
X0195Y02373*
X01942Y02367*
X01936Y02359*
X01932Y0235*
X01931Y0234*
X01932Y0233*
X01936Y0232*
X01942Y02312*
X0195Y02306*
X0196Y02302*
X0197Y02301*
X0198Y02302*
X01989Y02306*
X01997Y02312*
X02003Y0232*
X02007Y0233*
X02008Y0234*
X02007Y0235*
X02003Y02359*
X01997Y02367*
X01989Y02373*
X0198Y02377*
X0197Y02378*
G37*
G36*
X01832D02*
X01822Y02377D01*
X01812Y02373*
X01804Y02367*
X01798Y02359*
X01794Y0235*
X01793Y0234*
X01794Y0233*
X01798Y0232*
X01804Y02312*
X01812Y02306*
X01822Y02302*
X01832Y02301*
X01842Y02302*
X01851Y02306*
X01859Y02312*
X01865Y0232*
X01869Y0233*
X01871Y0234*
X01869Y0235*
X01865Y02359*
X01859Y02367*
X01851Y02373*
X01842Y02377*
X01832Y02378*
G37*
G36*
X01694D02*
X01684Y02377D01*
X01675Y02373*
X01667Y02367*
X0166Y02359*
X01656Y0235*
X01655Y0234*
X01656Y0233*
X0166Y0232*
X01667Y02312*
X01675Y02306*
X01684Y02302*
X01694Y02301*
X01704Y02302*
X01713Y02306*
X01721Y02312*
X01728Y0232*
X01731Y0233*
X01733Y0234*
X01731Y0235*
X01728Y02359*
X01721Y02367*
X01713Y02373*
X01704Y02377*
X01694Y02378*
G37*
G36*
X04815Y02335D02*
X048Y02333D01*
X04786Y02329*
X04773Y02322*
X04761Y02313*
X04752Y02301*
X04745Y02288*
X04741Y02274*
X04739Y0226*
X04741Y02245*
X04745Y02231*
X04752Y02218*
X04761Y02206*
X04773Y02197*
X04786Y0219*
X048Y02186*
X04815Y02184*
X04829Y02186*
X04843Y0219*
X04856Y02197*
X04868Y02206*
X04877Y02218*
X04884Y02231*
X04888Y02245*
X0489Y0226*
X04888Y02274*
X04884Y02288*
X04877Y02301*
X04868Y02313*
X04856Y02322*
X04843Y02329*
X04829Y02333*
X04815Y02335*
G37*
G36*
X0112D02*
X01105Y02333D01*
X01091Y02329*
X01078Y02322*
X01066Y02313*
X01057Y02301*
X0105Y02288*
X01046Y02274*
X01044Y0226*
X01046Y02245*
X0105Y02231*
X01057Y02218*
X01066Y02206*
X01078Y02197*
X01091Y0219*
X01105Y02186*
X0112Y02184*
X01134Y02186*
X01148Y0219*
X01161Y02197*
X01173Y02206*
X01182Y02218*
X01189Y02231*
X01193Y02245*
X01195Y0226*
X01193Y02274*
X01189Y02288*
X01182Y02301*
X01173Y02313*
X01161Y02322*
X01148Y02329*
X01134Y02333*
X0112Y02335*
G37*
G36*
X03425Y03204D02*
X03419Y03203D01*
X03415Y032*
X03411Y03195*
X0341Y0319*
X03411Y03184*
X03415Y0318*
X03419Y03176*
X0342Y03176*
X03423Y03173*
Y02959*
X03421Y02957*
X0342Y02951*
X03421Y02946*
X03425Y02941*
X03429Y02938*
X03435Y02937*
X0344Y02938*
X03445Y02941*
X03448Y02946*
X03449Y02951*
X03448Y02957*
X03446Y02959*
Y03163*
X03641*
X03644Y03161*
X0365Y0316*
X03655Y03161*
X0366Y03165*
X03663Y03169*
X03664Y03175*
X03663Y0318*
X0366Y03185*
X03655Y03188*
X0365Y03189*
X03644Y03188*
X03641Y03186*
X03443*
X03442Y03186*
X03439Y0319*
X03438Y03195*
X03435Y032*
X0343Y03203*
X03425Y03204*
G37*
%LNv1.0-3*%
%LPD*%
G36*
X03265Y04085D02*
Y03995D01*
X0319*
Y04015*
X03165Y0404*
X01605*
X01585Y0402*
Y03765*
X01565Y03745*
X01445*
X0139Y0369*
Y0278*
X01455Y02715*
X01925*
X01935Y02705*
Y02655*
X01925Y02645*
X01345*
X0129Y027*
X01295Y02705*
Y03745*
X0138Y0383*
X0144*
X01465Y03855*
Y0413*
X01485Y0415*
X032*
X03265Y04085*
G37*
G54D12*
X0355Y02885D02*
X03657D01*
X03662Y0288*
X03665*
X0351Y02865D02*
X0353D01*
X0355Y02885*
X03492Y02809D02*
X03493Y0281D01*
X03466Y02665D02*
X03646Y02485D01*
X0372*
X03466Y02665D02*
X03716D01*
X03493Y0281D02*
X03685D01*
X03466Y02665D02*
Y02818D01*
X03255Y02934D02*
Y0307D01*
Y0285D02*
Y02934D01*
X0326Y02842D02*
X03442D01*
X03466Y02818*
X0326Y02842D02*
Y02845D01*
X03237Y0282D02*
X0326Y02842D01*
X03255Y0285D02*
X0326Y02845D01*
X03295Y034D02*
D01*
X0333Y03145D02*
Y03365D01*
X03295Y034D02*
X0333Y03365D01*
X03255Y0307D02*
X0333Y03145D01*
X03237Y02775D02*
Y0282D01*
X02855Y0311D02*
X03235D01*
X0273Y02985D02*
X02855Y0311D01*
X03045Y02955D02*
X03125D01*
X0297Y0288D02*
X03045Y02955D01*
X0321Y0268D02*
Y02795D01*
X03155Y0274D02*
X0321Y02795D01*
X0274Y0334D02*
X03175D01*
X02465Y03065D02*
X0274Y0334D01*
X0284Y03265D02*
X03155D01*
X02465Y0289D02*
X0284Y03265D01*
X04515Y04297D02*
Y04545D01*
X04505Y04287D02*
X04515Y04297D01*
X04505Y04285D02*
Y04287D01*
X0278Y0332D02*
X0313D01*
X0281Y03295D02*
X03205D01*
X02465Y03005D02*
X0278Y0332D01*
X03608Y04703D02*
X0362Y04715D01*
X02465Y0295D02*
X0281Y03295D01*
X0391Y0279D02*
Y02935D01*
Y0279D02*
X0399Y02709D01*
X03775Y04715D02*
X0387D01*
X0362D02*
X03775D01*
Y0478*
Y04915D02*
X0387D01*
X0362D02*
X03775D01*
Y04839D02*
Y04915D01*
X03715Y04837D02*
X03773D01*
X03775Y04839*
X03715Y04482D02*
X0378D01*
Y04555D02*
X0387D01*
X0362D02*
X0378D01*
Y04482D02*
Y04555D01*
Y04355D02*
X0387D01*
X0362D02*
X0378D01*
Y04423*
X0389Y02845D02*
Y03085D01*
X03918Y0305D02*
X0393Y03038D01*
Y02787D02*
X03957Y02759D01*
X0393Y02787D02*
Y03038D01*
X03957Y02759D02*
X0415D01*
X0387Y02965D02*
Y03025D01*
Y02905D02*
Y02965D01*
X04515Y03923D02*
Y03993D01*
X04465Y03873D02*
Y04128D01*
Y03873D02*
X04515Y03923D01*
X03032Y02317D02*
X0307Y0228D01*
X03435Y03178D02*
X03438Y03175D01*
X04692Y02724D02*
X04735Y02682D01*
X0321Y0268D02*
X03235Y02655D01*
X0297Y02385D02*
Y0288D01*
X0307Y0228D02*
Y0248D01*
X03032Y02317D02*
Y02652D01*
X03155Y02565D02*
Y0274D01*
X04735Y02335D02*
Y02682D01*
X0307Y0248D02*
X03155Y02565D01*
X04692Y03145D02*
X04765Y03073D01*
Y02355D02*
Y03073D01*
X0399Y02709D02*
X0425D01*
G54D14*
X03715Y02665D02*
Y02964D01*
X03025Y03425D02*
Y0356D01*
X0303Y03565*
X02835D02*
X0291D01*
X0266Y0339D02*
X02835Y03565D01*
X03615D02*
X03685Y03495D01*
X03235Y03565D02*
X03615D01*
X03685Y0281D02*
Y03495D01*
X0279Y034D02*
X03295D01*
X0298Y0336D02*
X03235D01*
X03245Y0335*
X03424Y03189D02*
X03435Y03178D01*
X03355Y0342D02*
Y0352D01*
X03345Y0353D02*
X03355Y0352D01*
X0321Y0353D02*
X03345D01*
X0311Y0356D02*
X0318D01*
X0321Y0353*
X0311Y0356D02*
D01*
X0231Y0339D02*
X0266D01*
X0279Y03553D02*
Y03555D01*
X02825Y0359*
X01477Y03782D02*
X01522D01*
X0135Y03655D02*
X01477Y03782D01*
X02615Y0273D02*
X02675Y0279D01*
Y03045*
X02145Y04775D02*
Y0496D01*
X0351Y0406D02*
X0365Y042D01*
X04565*
X03645Y0422D02*
X04535D01*
X0345Y04075D02*
X03635Y0426D01*
X0347Y0407D02*
X0364Y0424D01*
X0349Y04065D02*
X03645Y0422D01*
X03635Y0426D02*
X04705D01*
X0364Y0424D02*
X0471D01*
X0237Y03715D02*
X02455D01*
X0231Y03655D02*
X0237Y03715D01*
X0363Y0361D02*
X0386D01*
X03085D02*
X0363D01*
Y03825*
X04215Y03975D02*
Y0417D01*
Y03975D02*
X04225Y03965D01*
X04344Y04077D02*
X04345Y04077D01*
Y03903D02*
Y04077D01*
X0365Y0403D02*
X0377Y0415D01*
Y04175*
X03765Y0359D02*
X03805Y0355D01*
Y02875D02*
Y0355D01*
X04076Y04452D02*
X04077Y04452D01*
X0387Y04355D02*
X0394Y04425D01*
X0387Y04715D02*
X0394Y04645D01*
Y04425D02*
Y04645D01*
X0371Y04777D02*
X03715Y04782D01*
X0371Y0474D02*
Y04777D01*
Y04422D02*
X03715Y04427D01*
X0371Y04375D02*
Y04422D01*
X0355Y0402D02*
X0371Y0418D01*
X0355Y03965D02*
Y0402D01*
X0471Y0424D02*
X048Y0433D01*
X04705Y0426D02*
X0478Y04335D01*
X02815Y03675D02*
X0342D01*
X0345Y03705D02*
Y04075D01*
X0342Y03675D02*
X0345Y03705D01*
X03445Y0364D02*
X0351Y03705D01*
X02835Y0364D02*
X03445D01*
X0351Y03705D02*
Y0406D01*
X0349Y03715D02*
Y04065D01*
X03434Y03659D02*
X0349Y03715D01*
X02829Y03659D02*
X03434D01*
X0347Y03771D02*
Y0407D01*
X03469Y0377D02*
X0347Y03771D01*
X0343Y03845D02*
Y04365D01*
X0362Y04555*
X0341Y04605D02*
X0362Y04815D01*
X0341Y03865D02*
Y04605D01*
X0362Y04815D02*
Y04915D01*
X03735Y03115D02*
Y03325D01*
Y02545D02*
Y03115D01*
X02655Y03515D02*
X02815Y03675D01*
X0265Y0348D02*
X02829Y03659D01*
X02615Y0342D02*
X02835Y0364D01*
X02869Y0377D02*
X0287Y0377D01*
X0263Y0377D02*
X02869D01*
X02505Y0342D02*
X02615D01*
X02475Y0348D02*
X0265D01*
X026Y0354D02*
X0264D01*
X0283Y0373D02*
Y03731D01*
X0264Y0354D02*
X0283Y0373D01*
X01785Y03585D02*
X02625D01*
X02775Y03735D02*
D01*
X02625Y03585D02*
X02775Y03735D01*
X01585Y03535D02*
X01665Y03615D01*
X02625*
X0174Y0354D02*
X01785Y03585D01*
X0155Y03515D02*
X02655D01*
X0153Y03535D02*
X0155Y03515D01*
X02605Y03715D02*
X02625Y03695D01*
Y0366D02*
Y03695D01*
X02455Y03715D02*
X02605D01*
X0263Y0377D02*
X0263Y0377D01*
X0386Y0361D02*
X03875Y03595D01*
Y03265D02*
Y03595D01*
X02825Y0359D02*
X03765D01*
X02305Y0273D02*
X02615D01*
X01855Y04105D02*
Y04795D01*
X04565Y04392D02*
X04566Y04392D01*
X04565Y0429D02*
Y04392D01*
X04565Y0429D02*
X04565Y0429D01*
X04535Y0433D02*
X04535Y0433D01*
Y04412*
X04536Y04412*
X048Y0433D02*
Y045D01*
X04815Y04515D02*
X04895D01*
X048Y045D02*
X04815Y04515D01*
X0478Y04335D02*
Y0464D01*
X0481Y0467*
X04895*
X0108Y024D02*
X01085Y02405D01*
Y02444*
X0109Y0245*
X0183D02*
X0201Y0263D01*
X0109Y0245D02*
X0183D01*
X0108Y025D02*
X01165Y02585D01*
X01925*
X0195Y0261*
Y0273*
X0389Y02348D02*
Y0282D01*
Y02348D02*
X03928Y02309D01*
X03805Y02252D02*
Y02875D01*
X0387*
X03122Y02207D02*
X0376D01*
X03805Y02252*
X03715Y02965D02*
X03715Y02964D01*
Y02665D02*
X03716Y02665D01*
X03438Y03175D02*
X0365D01*
X042Y04607D02*
X04221Y04627D01*
X04256Y04327D02*
X04281Y04352D01*
X04255Y04452D02*
X04256Y04451D01*
X043Y04593D02*
X04306Y04587D01*
X043Y04593D02*
Y04627D01*
X04348Y04538D02*
X04357Y04547D01*
X04371Y04527D02*
X04372Y04529D01*
X04436Y04587D02*
X04451Y04572D01*
X0442Y04566D02*
X04421D01*
X04599Y04532D02*
X04599Y04532D01*
X04281Y04352D02*
Y04452D01*
X04251Y04482D02*
X04281Y04452D01*
X04251Y04562D02*
X04252Y04563D01*
X043Y04627D02*
Y04696D01*
X04441Y04547D02*
X04451Y04557D01*
Y04572*
X04417Y04563D02*
X0442Y04566D01*
X04461Y04602D02*
Y04682D01*
X04646Y04332D02*
Y04487D01*
X04348Y04436D02*
Y04538D01*
X04599Y04374D02*
Y04532D01*
X04691Y04382D02*
Y04522D01*
X04357Y04547D02*
X04441D01*
X04372Y04529D02*
X04452D01*
X04306Y04587D02*
X04436D01*
X04221Y04627D02*
X043D01*
X04481Y04557D02*
Y04632D01*
X043Y04696D02*
X04326Y04722D01*
X04452Y04529D02*
X04481Y04557D01*
X04252Y04563D02*
X04417D01*
X04077Y04452D02*
X04255D01*
X03105Y02225D02*
D01*
X03122Y02207*
X0387Y02605D02*
Y02665D01*
X03435Y02951D02*
Y03178D01*
X0387Y02665D02*
Y02725D01*
X04044Y02859D02*
X0415D01*
X0401Y02825D02*
X04044Y02859D01*
G54D22*
X03775Y04839D03*
Y0478D03*
X0378Y04482D03*
Y04423D03*
G54D27*
X03715Y04782D03*
Y04837D03*
Y04427D03*
Y04482D03*
G54D101*
X0423Y04772D02*
Y04783D01*
Y04772D02*
X0428Y04722D01*
X04326*
G54D102*
X0118Y04245D02*
X01304Y0412D01*
X01332*
X01348Y04105*
X0108Y04245D02*
X0118D01*
X04379Y0258D02*
Y03189D01*
X0355Y03965D02*
X0366D01*
X0431Y0367D02*
X0457D01*
X0366Y03965D02*
X04225D01*
X0457Y0367D02*
X04745D01*
X04746Y03669*
X0427Y0371D02*
X0431Y0367D01*
X0427Y0371D02*
Y0392D01*
X04225Y03965D02*
X0427Y0392D01*
X0355Y0365D02*
Y03965D01*
X01855Y04105D02*
X02515D01*
X01529D02*
X01855D01*
X0135Y0271D02*
Y03655D01*
Y0271D02*
X0138Y0268D01*
X02515Y04105D02*
X0316D01*
X0323Y04035*
X01521Y04105D02*
X01529D01*
X01522Y03782D02*
X01545Y03805D01*
X01529Y04105D02*
X01545Y04089D01*
Y03805D02*
Y04089D01*
X0138Y0268D02*
X01915D01*
X01516Y04315D02*
X01527D01*
X01543Y0433*
Y04341*
X0178Y04578*
Y04785*
X0118Y04345D02*
X01302D01*
X0108D02*
X0118D01*
X01302D02*
X01332Y04315D01*
X01343*
G54D104*
X04773Y04053D03*
Y03813D03*
G54D105*
X04773Y04153D03*
Y03913D03*
G54D106*
X0387Y04355D03*
Y04715D03*
G54D107*
X0362Y04555D03*
Y04355D03*
X0387Y04555D03*
X0362Y04915D03*
Y04715D03*
X0387Y04915D03*
G54D108*
X01435Y04505D03*
Y04755D03*
G54D109*
X01235Y04605D03*
G54D110*
X01165Y02649D03*
Y02787D03*
Y02925D03*
Y03338D03*
Y03752D03*
Y03614D03*
Y03476D03*
Y03201D03*
Y03063D03*
X0118Y025D03*
X0108D03*
X0118Y024D03*
X0108Y04045D03*
Y04145D03*
X0118Y04045D03*
Y04145D03*
X0108Y04345D03*
X0118Y04245D03*
X0108D03*
X02796Y0234D03*
X02659D03*
X02521D03*
X02107D03*
X01694D03*
X01832D03*
X0197D03*
X02245D03*
X02383D03*
G54D111*
X01165Y0389D03*
X0108Y024D03*
X0118Y04345D03*
G54D112*
X04475Y04825D03*
X04278D03*
G54D113*
X04224Y04933D03*
X04529D03*
G54D114*
X0423Y04783D03*
X04523D03*
G54D115*
X01556Y0234D03*
G54D116*
X0425Y02709D03*
G54D117*
X0415Y02759D03*
X0425Y02809D03*
X0415Y02859D03*
X0425Y02909D03*
X0415Y02959D03*
X0425Y03009D03*
X0415Y03059D03*
G54D118*
X04692Y02624D03*
Y02724D03*
Y03145D03*
Y03045D03*
G54D119*
X045Y0311D03*
Y0266D03*
G54D120*
X04379Y03189D03*
Y0258D03*
G54D121*
X04815Y0226D03*
Y0488D03*
X0112D03*
Y0226D03*
G54D122*
X03492Y02809D03*
X0355Y02885D03*
X0351Y02865D03*
X0485Y047D03*
X048Y046D03*
X0485Y043D03*
X048Y042D03*
Y04D03*
X0485Y039D03*
Y037D03*
Y035D03*
X048Y034D03*
X047Y048D03*
X0475Y047D03*
X047Y042D03*
X0475Y041D03*
X047Y038D03*
X0475Y035D03*
X047Y034D03*
Y022D03*
X0465Y049D03*
X046Y048D03*
Y046D03*
X0465Y043D03*
X046Y042D03*
X0465Y041D03*
X046Y04D03*
X0465Y039D03*
X046Y038D03*
X0465Y035D03*
X046Y034D03*
X0465Y023D03*
X046Y022D03*
X0455Y047D03*
Y045D03*
Y041D03*
X045Y038D03*
X0455Y035D03*
X045Y034D03*
X0455Y023D03*
X045Y022D03*
X0445Y049D03*
X044Y038D03*
Y036D03*
X0445Y035D03*
X044Y034D03*
X0445Y023D03*
X044Y022D03*
X0435Y049D03*
Y041D03*
X043Y036D03*
X0435Y035D03*
X043Y034D03*
X0435Y023D03*
X043Y022D03*
X0425Y047D03*
Y043D03*
Y041D03*
X042Y038D03*
Y036D03*
X0425Y035D03*
X042Y034D03*
X0425Y023D03*
X042Y022D03*
X0415Y049D03*
X041Y048D03*
X0415Y047D03*
X041Y046D03*
Y044D03*
X0415Y039D03*
X041Y038D03*
Y036D03*
X0415Y035D03*
X041Y034D03*
X0415Y023D03*
X0405Y049D03*
X04Y048D03*
X0405Y047D03*
X04Y046D03*
X0405Y045D03*
Y043D03*
X04Y038D03*
Y036D03*
X0405Y035D03*
X04Y034D03*
X0405Y023D03*
X04Y022D03*
X0395Y049D03*
X039Y048D03*
X0395Y047D03*
X039Y046D03*
X0395Y043D03*
Y039D03*
X039Y038D03*
Y036D03*
X0395Y035D03*
X039Y034D03*
X0395Y023D03*
X039Y022D03*
X038Y046D03*
X0385Y045D03*
X038Y038D03*
X0385Y035D03*
Y023D03*
X038Y022D03*
X0375Y045D03*
Y043D03*
X037Y038D03*
X0375Y035D03*
X037Y024D03*
X0375Y023D03*
X0365Y045D03*
Y043D03*
Y039D03*
Y035D03*
X036Y034D03*
X0365Y033D03*
X036Y03D03*
Y024D03*
X0365Y023D03*
X0355Y049D03*
X035Y048D03*
X0355Y047D03*
X035Y046D03*
Y044D03*
X0355Y043D03*
X035Y042D03*
X0355Y035D03*
X035Y034D03*
X0355Y033D03*
X035Y032D03*
Y03D03*
X0355Y025D03*
X035Y024D03*
X034Y034D03*
X0345Y033D03*
X034Y026D03*
X0345Y025D03*
Y023D03*
X0335Y041D03*
X033Y028D03*
X0335Y027D03*
X033Y026D03*
X0335Y025D03*
X032Y048D03*
X0325Y033D03*
X032Y03D03*
X0325Y025D03*
X0315Y047D03*
X031Y046D03*
Y04D03*
X0315Y039D03*
Y029D03*
X031Y028D03*
X0305Y047D03*
Y045D03*
X03Y044D03*
Y042D03*
Y04D03*
X0305Y039D03*
X03Y03D03*
X0305Y029D03*
X03Y028D03*
Y026D03*
X0305Y025D03*
X0295Y047D03*
X029Y046D03*
Y044D03*
Y042D03*
Y04D03*
X0295Y039D03*
X029Y032D03*
X0295Y027D03*
X029Y026D03*
X0295Y025D03*
X029Y024D03*
Y022D03*
X0285Y047D03*
Y045D03*
X028Y044D03*
Y042D03*
Y04D03*
X0285Y039D03*
X028Y032D03*
Y03D03*
X0285Y029D03*
X028Y028D03*
X0285Y027D03*
X028Y026D03*
X0285Y025D03*
Y023D03*
X028Y022D03*
X0275Y045D03*
X027Y044D03*
X0275Y043D03*
X027Y042D03*
Y04D03*
X0275Y039D03*
X027Y03D03*
X0275Y029D03*
X027Y028D03*
X0275Y027D03*
X027Y026D03*
X0275Y025D03*
X027Y024D03*
X0275Y023D03*
X027Y022D03*
X0265Y045D03*
X026Y044D03*
X0265Y043D03*
X026Y042D03*
Y04D03*
X0265Y039D03*
Y037D03*
Y033D03*
Y031D03*
X026Y03D03*
X0265Y029D03*
X026Y028D03*
Y026D03*
X0265Y025D03*
X026Y022D03*
X0255Y045D03*
X025Y044D03*
X0255Y043D03*
X025Y042D03*
X0255Y039D03*
X025Y032D03*
X0255Y029D03*
X025Y028D03*
X0255Y027D03*
X025Y026D03*
X0255Y025D03*
X025Y024D03*
X0255Y023D03*
X025Y022D03*
X024Y048D03*
X0245Y045D03*
X024Y044D03*
X0245Y043D03*
X024Y042D03*
X0245Y039D03*
Y031D03*
Y027D03*
Y025D03*
X024Y024D03*
X0245Y023D03*
X024Y022D03*
X023Y048D03*
X0235Y045D03*
X023Y044D03*
X0235Y043D03*
X023Y042D03*
X0235Y033D03*
X023Y032D03*
X0235Y031D03*
X023Y03D03*
X0235Y029D03*
Y027D03*
X023Y026D03*
X0235Y023D03*
X023Y022D03*
X0225Y049D03*
Y045D03*
X022Y044D03*
X0225Y043D03*
X022Y042D03*
X0225Y037D03*
X022Y034D03*
X0225Y033D03*
X022Y032D03*
X0225Y031D03*
X022Y03D03*
X0225Y029D03*
Y027D03*
X022Y026D03*
Y022D03*
X021Y048D03*
X0215Y047D03*
Y045D03*
X021Y044D03*
X0215Y043D03*
X021Y042D03*
X0215Y037D03*
X021Y034D03*
X0215Y033D03*
X021Y032D03*
X0215Y031D03*
X021Y03D03*
X0215Y029D03*
Y027D03*
X021Y026D03*
X0215Y025D03*
X021Y024D03*
X0215Y023D03*
X021Y022D03*
X0205Y049D03*
Y045D03*
X02Y044D03*
X0205Y043D03*
X02Y042D03*
X0205Y037D03*
X02Y034D03*
X0205Y033D03*
X02Y032D03*
X0205Y031D03*
X02Y03D03*
X0205Y029D03*
Y025D03*
X02Y024D03*
X0205Y023D03*
X02Y022D03*
X019Y048D03*
X0195Y045D03*
X019Y044D03*
X0195Y043D03*
X019Y042D03*
X0195Y037D03*
X019Y034D03*
X0195Y033D03*
X019Y032D03*
X0195Y031D03*
X019Y03D03*
X0195Y029D03*
X019Y022D03*
X018Y044D03*
Y042D03*
X0185Y037D03*
X018Y034D03*
X0185Y033D03*
X018Y032D03*
X0185Y031D03*
X018Y03D03*
X0185Y029D03*
X018Y024D03*
Y022D03*
X0175Y049D03*
X017Y048D03*
Y046D03*
Y042D03*
X0175Y037D03*
Y033D03*
Y031D03*
Y029D03*
Y025D03*
X017Y024D03*
X0175Y023D03*
X017Y022D03*
X0165Y049D03*
X016Y048D03*
X0165Y047D03*
X016Y046D03*
Y042D03*
Y04D03*
Y038D03*
Y034D03*
X0165Y025D03*
X016Y024D03*
X0165Y023D03*
X016Y022D03*
X0155Y049D03*
Y047D03*
X015Y046D03*
X0155Y045D03*
X015Y042D03*
Y036D03*
Y034D03*
X0155Y031D03*
Y029D03*
X015Y028D03*
Y024D03*
Y022D03*
X0145Y049D03*
X014Y046D03*
Y042D03*
X0145Y041D03*
X014Y04D03*
X0145Y039D03*
Y035D03*
Y031D03*
Y029D03*
Y025D03*
X014Y024D03*
X0145Y023D03*
X014Y022D03*
X0135Y049D03*
X013Y048D03*
Y044D03*
Y042D03*
Y04D03*
X0135Y039D03*
X013Y038D03*
X0135Y025D03*
X013Y024D03*
Y022D03*
X0125Y049D03*
X012Y048D03*
X0125Y045D03*
X012Y044D03*
X0125Y043D03*
Y041D03*
Y039D03*
X012Y038D03*
X0125Y035D03*
X012Y034D03*
X0125Y033D03*
Y031D03*
X012Y03D03*
X0125Y029D03*
Y027D03*
Y025D03*
Y023D03*
X012Y022D03*
X0115Y047D03*
Y045D03*
X011Y044D03*
Y042D03*
X0115Y041D03*
X011Y038D03*
X0115Y037D03*
X011Y036D03*
Y034D03*
Y032D03*
Y03D03*
Y028D03*
X0115Y027D03*
X011Y026D03*
X03665Y0288D03*
X0371Y03D03*
X03535Y0293D03*
X03715Y03065D03*
X03465Y0294D03*
X03415Y03085D03*
X0371Y0343D03*
X03025Y03425D03*
X0291Y03565D03*
X03235D03*
X0372Y02485D03*
X0326Y02842D03*
X03295Y034D03*
X03235Y0311D03*
X03125Y02955D03*
X03237Y02775D03*
X03255Y02934D03*
X03175Y0334D03*
X0298Y0336D03*
X03245Y0335D03*
X03425Y0319D03*
X0279Y03553D03*
X0368Y0275D03*
X0303Y03565D03*
X0273Y02985D03*
X0357Y0391D03*
Y0395D03*
X0355Y03895D03*
Y0393D03*
X03205Y04065D03*
X03255Y0401D03*
Y04065D03*
X03205Y0401D03*
X02145Y04775D03*
Y0496D03*
X04505Y04285D03*
X04535Y0422D03*
X04515Y04545D03*
X0279Y034D03*
X0231Y0339D03*
Y03655D03*
X0363Y03825D03*
X0366Y03965D03*
X04215Y0417D03*
X04746Y03669D03*
X0457Y0367D03*
X0439D03*
X04344Y04077D03*
X0377Y04175D03*
X0365Y0403D03*
X0355Y0365D03*
X03155Y03265D03*
X0313Y0332D03*
X03205Y03295D03*
X04076Y04452D03*
X0371Y0474D03*
Y04375D03*
Y0418D03*
X04565Y042D03*
X0355Y03965D03*
X03469Y0377D03*
X0343Y03845D03*
X0341Y03865D03*
X03735Y03115D03*
Y03325D03*
X0287Y0377D03*
X026Y0354D03*
X02625Y03615D03*
X0283Y03731D03*
X0174Y0354D03*
X02625Y0366D03*
X02775Y03735D03*
X0263Y0377D03*
X03085Y0361D03*
X02675Y03045D03*
X02305Y0273D03*
X01855Y04795D03*
X04565Y0429D03*
X04535Y0433D03*
X04895Y04515D03*
X02475Y0348D03*
X02505Y0342D03*
X02455Y03715D03*
X04895Y0467D03*
X0153Y03535D03*
X02515Y04105D03*
X0323Y04035D03*
X01522Y03782D03*
X0135Y03655D03*
X01915Y0268D03*
X0201Y0263D03*
X0195Y0273D03*
X03928Y02309D03*
X0389Y0282D03*
Y03085D03*
Y02845D03*
X0391Y02935D03*
X03918Y0305D03*
X0387Y02965D03*
Y03025D03*
Y02905D03*
X03715Y02965D03*
Y02785D03*
X03716Y02665D03*
X03685Y0281D03*
X0365Y03175D03*
X0178Y04785D03*
X04465Y04128D03*
X04515Y03993D03*
X04465Y03873D03*
X04345Y03903D03*
X042Y04607D03*
X04256Y04451D03*
X043Y04627D03*
X04371Y04527D03*
X04461Y04602D03*
Y04682D03*
X04536Y04412D03*
X04599Y04374D03*
X04599Y04532D03*
X04691Y04382D03*
Y04522D03*
X04256Y04327D03*
X04421Y04566D03*
X04646Y04332D03*
X04251Y04482D03*
Y04562D03*
X04326Y04722D03*
X04481Y04632D03*
X04566Y04392D03*
X04646Y04487D03*
X02465Y0295D03*
Y03005D03*
Y03065D03*
X01585Y03535D03*
X02465Y0289D03*
X0297Y02385D03*
X0307Y0228D03*
X03032Y02652D03*
X03105Y02225D03*
X0311Y0356D03*
X03305Y03D03*
X03355Y0342D03*
X03435Y02951D03*
X0387Y02605D03*
Y02725D03*
Y02875D03*
X03466Y02665D03*
X0387D03*
X0401Y02825D03*
X04735Y02335D03*
X03095Y03D03*
X03735Y02545D03*
X03875Y03265D03*
X03235Y02655D03*
X04765Y02355D03*
G54D123*
X04435Y04349D03*
X04348D03*
X04435Y04436D03*
Y04392D03*
X04348Y04436D03*
Y04392D03*
X04392Y04349D03*
Y04436D03*
Y04392D03*
G54D124*
X01343Y04315D03*
X01516D03*
X01348Y04105D03*
X01521D03*
M02*