%FSTAX23Y23*%
%MOIN*%
%SFA1B1*%

%IPPOS*%
%ADD9500C,0.007900*%
%ADD9501C,0.031000*%
%ADD9502C,0.035000*%
%ADD9503C,0.039400*%
%ADD9504C,0.040200*%
%ADD9505C,0.043300*%
%ADD9506C,0.064200*%
%ADD9507C,0.118100*%
%ADD9508C,0.031500*%
%ADD9509C,0.128000*%
%LNv1.0-roundholes-1*%
%LPD*%
G54D9500*
X047Y022D03*
X04735Y02335D03*
X04765Y02355D03*
X0465Y023D03*
X0455D03*
X0445D03*
X0435D03*
X0425D03*
X0415D03*
X0405D03*
X0395D03*
X03928Y02309D03*
X0385Y023D03*
X0375D03*
X0365D03*
X037Y024D03*
X036D03*
X035D03*
X0355Y025D03*
X0345D03*
X0335D03*
X0325D03*
X033Y026D03*
X034D03*
X03466Y02665D03*
X0335Y027D03*
X033Y028D03*
X0326Y02842D03*
X03237Y02775D03*
X03235Y02655D03*
X03255Y02934D03*
X03305Y03D03*
X032D03*
X03125Y02955D03*
X0315Y029D03*
X03235Y0311D03*
X03415Y03085D03*
X03435Y02951D03*
X03465Y0294D03*
X03535Y0293D03*
X0355Y02885D03*
X0351Y02865D03*
X03492Y02809D03*
X03685Y0281D03*
X03715Y02785D03*
X0368Y0275D03*
X03716Y02665D03*
X03735Y02545D03*
X0372Y02485D03*
X0387Y02605D03*
Y02665D03*
Y02725D03*
X0389Y0282D03*
Y02845D03*
X0387Y02875D03*
Y02905D03*
Y02965D03*
Y03025D03*
X03918Y0305D03*
X0389Y03085D03*
X0391Y02935D03*
X0401Y02825D03*
X03665Y0288D03*
X03715Y02965D03*
X0371Y03D03*
X03715Y03065D03*
X03735Y03115D03*
X036Y03D03*
X035D03*
X0345Y023D03*
X038Y022D03*
X039D03*
X04D03*
X042D03*
X043D03*
X044D03*
X045D03*
X046D03*
X03105Y02225D03*
X0307Y0228D03*
X0297Y02385D03*
X029Y024D03*
X0295Y025D03*
X0305D03*
X03Y026D03*
X03032Y02652D03*
X0295Y027D03*
X0285D03*
X0275D03*
X028Y028D03*
X027D03*
X026D03*
X025D03*
X02465Y0289D03*
Y0295D03*
Y03005D03*
Y03065D03*
X0245Y031D03*
X0235D03*
X0225D03*
X0215D03*
X0205D03*
X0195D03*
X0185D03*
X0175D03*
X018Y03D03*
X019D03*
X02D03*
X021D03*
X022D03*
X023D03*
X0235Y029D03*
X0225D03*
X0215D03*
X0205D03*
X0195D03*
X0185D03*
X0175D03*
X0195Y0273D03*
X01915Y0268D03*
X0201Y0263D03*
X021Y026D03*
X022D03*
X023D03*
X02305Y0273D03*
X0235Y027D03*
X0245D03*
X0255D03*
X026Y026D03*
X027D03*
X028D03*
X029D03*
X0285Y025D03*
X0275D03*
X0265D03*
X0255D03*
X0245D03*
X025Y026D03*
Y024D03*
X024D03*
X0245Y023D03*
X0255D03*
X026Y022D03*
X027D03*
X028D03*
X029D03*
X0285Y023D03*
X0275D03*
X027Y024D03*
X025Y022D03*
X024D03*
X023D03*
X022D03*
X021D03*
X02D03*
X019D03*
X018D03*
X017D03*
X016D03*
X0165Y023D03*
X0175D03*
X018Y024D03*
X017D03*
X016D03*
X0165Y025D03*
X0175D03*
X0205D03*
X0215D03*
X021Y024D03*
X02D03*
X0205Y023D03*
X0215D03*
X0235D03*
X0225Y027D03*
X0215D03*
X0255Y029D03*
X0265D03*
X0275D03*
X0285D03*
X028Y03D03*
X0273Y02985D03*
X027Y03D03*
X02675Y03045D03*
X0265Y031D03*
X026Y03D03*
X03D03*
X03095D03*
X0305Y029D03*
X031Y028D03*
X03D03*
X015D03*
X0155Y029D03*
X0145D03*
Y031D03*
X0155D03*
X0125D03*
X012Y03D03*
X011D03*
Y028D03*
X0115Y027D03*
X0125D03*
Y029D03*
Y025D03*
X0135D03*
X0145D03*
X015Y024D03*
X014D03*
X013D03*
X0125Y023D03*
X013Y022D03*
X014D03*
X015D03*
X0145Y023D03*
X012Y022D03*
X011Y026D03*
Y032D03*
Y034D03*
X012D03*
X0125Y035D03*
X0145D03*
X0153Y03535D03*
X015Y036D03*
Y034D03*
X0125Y033D03*
X011Y036D03*
X0115Y037D03*
X012Y038D03*
X013D03*
X0135Y039D03*
X0145D03*
X014Y04D03*
X013D03*
X0125Y041D03*
X0115D03*
X011Y042D03*
X013D03*
X014D03*
X015D03*
X0145Y041D03*
X01522Y03782D03*
X0135Y03655D03*
X0125Y039D03*
X011Y038D03*
Y044D03*
X012D03*
X013D03*
X0125Y045D03*
X0115D03*
X0125Y043D03*
X014Y046D03*
X015D03*
X0155Y045D03*
X016Y046D03*
X017D03*
X018Y044D03*
X019D03*
X02D03*
X021D03*
X022D03*
X023D03*
X024D03*
X025D03*
X026D03*
X027D03*
X028D03*
X029D03*
X03D03*
X0305Y045D03*
X031Y046D03*
X029D03*
X0285Y045D03*
X0275D03*
X0265D03*
X0255D03*
X0245D03*
X0235D03*
X0225D03*
X0215D03*
X0205D03*
X0195D03*
Y043D03*
X0205D03*
X0215D03*
X0225D03*
X0235D03*
X0245D03*
X0255D03*
X0265D03*
X0275D03*
X028Y042D03*
X029D03*
X03D03*
Y04D03*
X031D03*
X0305Y039D03*
X0295D03*
X0285D03*
X0275D03*
X0265D03*
X0255D03*
X0245D03*
X02455Y03715D03*
X0231Y03655D03*
X0225Y037D03*
X0215D03*
X0205D03*
X0195D03*
X0185D03*
X0175D03*
X0174Y0354D03*
X01585Y03535D03*
X016Y034D03*
X018D03*
X019D03*
X02D03*
X021D03*
X022D03*
X0231Y0339D03*
X0235Y033D03*
X0225D03*
X0215D03*
X0205D03*
X0195D03*
X0185D03*
X0175D03*
X018Y032D03*
X019D03*
X02D03*
X021D03*
X022D03*
X023D03*
X025D03*
X02505Y0342D03*
X02475Y0348D03*
X026Y0354D03*
X02625Y03615D03*
Y0366D03*
X0265Y037D03*
X0263Y0377D03*
X02775Y03735D03*
X0283Y03731D03*
X0287Y0377D03*
X0291Y03565D03*
X0303D03*
X0311Y0356D03*
X03085Y0361D03*
X03025Y03425D03*
X0298Y0336D03*
X0279Y034D03*
Y03553D03*
X028Y032D03*
X029D03*
X0265Y033D03*
X027Y04D03*
X028D03*
X029D03*
X026D03*
X02515Y04105D03*
X025Y042D03*
X026D03*
X027D03*
X024D03*
X023D03*
X022D03*
X021D03*
X02D03*
X019D03*
X018D03*
X017D03*
X016D03*
Y04D03*
Y038D03*
X0315Y039D03*
X03205Y0401D03*
X03255D03*
X0323Y04035D03*
X03205Y04065D03*
X03255D03*
X0335Y041D03*
X035Y042D03*
X0355Y043D03*
X0365D03*
X0375D03*
X0371Y04375D03*
X0375Y045D03*
X0385D03*
X039Y046D03*
X04D03*
X041D03*
X042Y04607D03*
X04251Y04562D03*
Y04482D03*
X04256Y04451D03*
X04348Y04436D03*
Y04392D03*
Y04349D03*
X04392D03*
X04435D03*
Y04392D03*
Y04436D03*
X04392D03*
Y04392D03*
X04371Y04527D03*
X04421Y04566D03*
X04461Y04602D03*
X04481Y04632D03*
X04461Y04682D03*
X04515Y04545D03*
X0455Y045D03*
X04599Y04532D03*
X046Y046D03*
X04646Y04487D03*
Y04332D03*
X0465Y043D03*
X04565Y0429D03*
X04505Y04285D03*
X04535Y0433D03*
X04536Y04412D03*
X04566Y04392D03*
X04599Y04374D03*
X046Y042D03*
X04565D03*
X04535Y0422D03*
X0455Y041D03*
X0465D03*
X046Y04D03*
X04515Y03993D03*
X04465Y03873D03*
X045Y038D03*
X046D03*
X0465Y039D03*
X04345Y03903D03*
X044Y038D03*
X0439Y0367D03*
X044Y036D03*
X043D03*
X042D03*
X041D03*
X04D03*
X039D03*
X0395Y035D03*
X0405D03*
X0415D03*
X0425D03*
X0435D03*
X0445D03*
X0455D03*
X0465D03*
X046Y034D03*
X045D03*
X044D03*
X043D03*
X042D03*
X041D03*
X04D03*
X039D03*
X0385Y035D03*
X0375D03*
X0365D03*
X0355D03*
X036Y034D03*
X035D03*
X034D03*
X03355Y0342D03*
X03295Y034D03*
X03245Y0335D03*
X0325Y033D03*
X03205Y03295D03*
X03175Y0334D03*
X0313Y0332D03*
X03155Y03265D03*
X0345Y033D03*
X0355D03*
X0365D03*
X03735Y03325D03*
X0371Y0343D03*
X0365Y03175D03*
X035Y032D03*
X03425Y0319D03*
X03875Y03265D03*
X039Y038D03*
X04D03*
X041D03*
X042D03*
X0415Y039D03*
X0395D03*
X038Y038D03*
X037D03*
X0363Y03825D03*
X0365Y039D03*
X0366Y03965D03*
X0365Y0403D03*
X0357Y0395D03*
X0355Y03965D03*
Y0393D03*
Y03895D03*
X0357Y0391D03*
X0343Y03845D03*
X0341Y03865D03*
X03469Y0377D03*
X0355Y0365D03*
X03235Y03565D03*
X0371Y0418D03*
X0377Y04175D03*
X0395Y043D03*
X0405D03*
X041Y044D03*
X04076Y04452D03*
X0405Y045D03*
X038Y046D03*
X0365Y045D03*
X035Y046D03*
Y044D03*
X04256Y04327D03*
X0425Y043D03*
X04215Y0417D03*
X0425Y041D03*
X0435D03*
X04344Y04077D03*
X04465Y04128D03*
X0457Y0367D03*
X043Y04627D03*
X04691Y04522D03*
Y04382D03*
X047Y042D03*
X048D03*
X0485Y043D03*
X04895Y04515D03*
Y0467D03*
X048Y046D03*
X0475Y041D03*
X048Y04D03*
X0485Y039D03*
Y037D03*
X04746Y03669D03*
X0475Y035D03*
X0485D03*
X048Y034D03*
X047D03*
Y038D03*
X0475Y047D03*
X0485D03*
X047Y048D03*
X046D03*
X0465Y049D03*
X0445D03*
X0435D03*
X0415D03*
X0405D03*
X0395D03*
X04Y048D03*
X041D03*
X0415Y047D03*
X0425D03*
X04326Y04722D03*
X0455Y047D03*
X0405D03*
X0395D03*
X039Y048D03*
X0371Y0474D03*
X0355Y047D03*
X035Y048D03*
X0355Y049D03*
X032Y048D03*
X0315Y047D03*
X0305D03*
X0295D03*
X0285D03*
X024Y048D03*
X023D03*
X0225Y049D03*
X02145Y0496D03*
X0205Y049D03*
X021Y048D03*
X02145Y04775D03*
X0215Y047D03*
X019Y048D03*
X01855Y04795D03*
X0178Y04785D03*
X017Y048D03*
X016D03*
X0165Y049D03*
X0175D03*
X0165Y047D03*
X0155D03*
Y049D03*
X0145D03*
X0135D03*
X0125D03*
X013Y048D03*
X012D03*
X0115Y047D03*
G54D9501*
X0362Y04355D03*
Y04555D03*
X0387D03*
Y04355D03*
Y04715D03*
Y04915D03*
X0362D03*
Y04715D03*
G54D9502*
X0415Y02759D03*
Y02859D03*
Y02959D03*
Y03059D03*
X0425Y03009D03*
Y02909D03*
Y02809D03*
Y02709D03*
G54D9503*
X04773Y03813D03*
Y03913D03*
Y04053D03*
Y04153D03*
G54D9504*
X04692Y02624D03*
Y02724D03*
Y03045D03*
Y03145D03*
G54D9505*
X01694Y0234D03*
X01832D03*
X0197D03*
X02107D03*
X02245D03*
X02383D03*
X02521D03*
X02659D03*
X02796D03*
X01556D03*
X0118Y024D03*
Y025D03*
X0108D03*
Y024D03*
X01165Y02649D03*
Y02787D03*
Y02925D03*
Y03063D03*
Y03201D03*
Y03338D03*
Y03476D03*
Y03614D03*
Y03752D03*
Y0389D03*
X0118Y04045D03*
X0108D03*
Y04145D03*
X0118D03*
Y04245D03*
Y04345D03*
X0108D03*
Y04245D03*
G54D9506*
X04379Y0258D03*
Y03189D03*
G54D9507*
X04815Y0226D03*
X0112D03*
X04815Y0488D03*
X0112D03*
G54D9508*
X04278Y04825D03*
X04475D03*
G54D9509*
X045Y0266D03*
Y0311D03*
M02*