%FSTAX23Y23*%
%MOIN*%
%SFA1B1*%

%IPPOS*%
%ADD22R,0.031500X0.031500*%
%ADD27R,0.037400X0.031500*%
%ADD104C,0.059100*%
%ADD105R,0.059100X0.059100*%
%ADD106R,0.075000X0.075000*%
%ADD107C,0.075000*%
%ADD108R,0.160000X0.100000*%
%ADD109R,0.100000X0.160000*%
%ADD110C,0.065000*%
%ADD111R,0.065000X0.065000*%
%ADD112C,0.031500*%
%ADD113O,0.045300X0.070900*%
%ADD114O,0.057100X0.078700*%
%ADD115R,0.065000X0.065000*%
%ADD116R,0.055000X0.055000*%
%ADD117C,0.055000*%
%ADD118C,0.060200*%
%ADD119C,0.128000*%
%ADD120C,0.096300*%
%ADD121C,0.138000*%
%ADD124R,0.082700X0.061000*%
%LNv1.0-1*%
%LPD*%
G54D22*
X03775Y04839D03*
Y0478D03*
X0378Y04482D03*
Y04423D03*
G54D27*
X03715Y04782D03*
Y04837D03*
Y04427D03*
Y04482D03*
G54D104*
X04773Y04053D03*
Y03813D03*
G54D105*
X04773Y04153D03*
Y03913D03*
G54D106*
X0387Y04355D03*
Y04715D03*
G54D107*
X0362Y04555D03*
Y04355D03*
X0387Y04555D03*
X0362Y04915D03*
Y04715D03*
X0387Y04915D03*
G54D108*
X01435Y04505D03*
Y04755D03*
G54D109*
X01235Y04605D03*
G54D110*
X01165Y02649D03*
Y02787D03*
Y02925D03*
Y03338D03*
Y03752D03*
Y03614D03*
Y03476D03*
Y03201D03*
Y03063D03*
X0118Y025D03*
X0108D03*
X0118Y024D03*
X0108Y04045D03*
Y04145D03*
X0118Y04045D03*
Y04145D03*
X0108Y04345D03*
X0118Y04245D03*
X0108D03*
X02796Y0234D03*
X02659D03*
X02521D03*
X02107D03*
X01694D03*
X01832D03*
X0197D03*
X02245D03*
X02383D03*
G54D111*
X01165Y0389D03*
X0108Y024D03*
X0118Y04345D03*
G54D112*
X04475Y04825D03*
X04278D03*
G54D113*
X04224Y04933D03*
X04529D03*
G54D114*
X0423Y04783D03*
X04523D03*
G54D115*
X01556Y0234D03*
G54D116*
X0425Y02709D03*
G54D117*
X0415Y02759D03*
X0425Y02809D03*
X0415Y02859D03*
X0425Y02909D03*
X0415Y02959D03*
X0425Y03009D03*
X0415Y03059D03*
G54D118*
X04692Y02624D03*
Y02724D03*
Y03145D03*
Y03045D03*
G54D119*
X045Y0311D03*
Y0266D03*
G54D120*
X04379Y03189D03*
Y0258D03*
G54D121*
X04815Y0226D03*
Y0488D03*
X0112D03*
Y0226D03*
G54D124*
X01343Y04315D03*
X01516D03*
X01348Y04105D03*
X01521D03*
M02*