%FSTAX23Y23*%
%MOIN*%
%SFA1B1*%

%IPPOS*%
%ADD12C,0.006000*%
%ADD14C,0.010000*%
%ADD20R,0.021700X0.035400*%
%ADD21R,0.031500X0.031500*%
%ADD22R,0.031500X0.031500*%
%ADD23R,0.031500X0.037400*%
%ADD24R,0.035400X0.021700*%
%ADD25R,0.039000X0.022400*%
%ADD26R,0.051200X0.035400*%
%ADD27R,0.037400X0.031500*%
%ADD28R,0.015700X0.031500*%
%ADD29R,0.039400X0.023600*%
%ADD30R,0.070900X0.173200*%
%ADD31R,0.061000X0.082700*%
%ADD32O,0.057100X0.023600*%
%ADD33R,0.055000X0.050000*%
%ADD34R,0.049200X0.076800*%
%ADD35C,0.063000*%
%ADD36O,0.059100X0.023600*%
%ADD37O,0.041300X0.009800*%
%ADD38O,0.009800X0.041300*%
%ADD39R,0.123200X0.123200*%
%ADD40R,0.031500X0.015700*%
%ADD41R,0.017700X0.051200*%
%ADD42R,0.059100X0.039400*%
%ADD43R,0.039400X0.059100*%
%ADD44O,0.055100X0.009800*%
%ADD45O,0.009800X0.055100*%
%ADD46R,0.055100X0.045300*%
%ADD47R,0.177200X0.068900*%
%ADD48R,0.216500X0.084600*%
%ADD49R,0.061000X0.126400*%
%ADD50R,0.124000X0.063000*%
%ADD101C,0.020000*%
%ADD102C,0.030000*%
%ADD103C,0.015000*%
%ADD104C,0.059100*%
%ADD105R,0.059100X0.059100*%
%ADD106R,0.075000X0.075000*%
%ADD107C,0.075000*%
%ADD108R,0.160000X0.100000*%
%ADD109R,0.100000X0.160000*%
%ADD110C,0.065000*%
%ADD111R,0.065000X0.065000*%
%ADD112C,0.031500*%
%ADD113O,0.045300X0.070900*%
%ADD114O,0.057100X0.078700*%
%ADD115R,0.065000X0.065000*%
%ADD116R,0.055000X0.055000*%
%ADD117C,0.055000*%
%ADD118C,0.060200*%
%ADD119C,0.128000*%
%ADD120C,0.096300*%
%ADD121C,0.138000*%
%ADD122C,0.015700*%
%ADD123C,0.019700*%
%LNv1.0-1*%
%LPD*%
G36*
X04933Y0337D02*
X0394D01*
Y03124*
X03935Y03122*
X03901Y03156*
Y03293*
X039Y03296*
X03898Y03299*
X03866Y03331*
X03863Y03333*
X0386Y03334*
X03851*
Y03348*
X03817*
Y03301*
X03851*
Y03315*
X03856Y03315*
X03882Y03289*
Y03153*
X03883Y03149*
X03885Y03146*
X03933Y03098*
X03936Y03096*
X0394Y03095*
Y03048*
X03937Y03046*
X03932Y03049*
X03932Y0305*
X03931Y03055*
X03928Y0306*
X03924Y03063*
X03918Y03064*
X03913Y03063*
X0391Y0306*
X03859*
Y0308*
X03834*
X03808*
Y0306*
X038*
X03796Y03063*
Y03106*
X03789*
X03786Y0311*
X03785Y03114*
X03782Y03117*
X03782Y03118*
X03784Y03123*
X03797*
Y03166*
X03784*
Y03183*
X03797*
Y03226*
X03753*
Y03214*
X03638*
X03636Y03218*
X03673Y03255*
X03753*
Y03243*
X03797*
Y03286*
X03786*
Y03301*
X03792*
Y03348*
X03758*
Y03336*
X03746*
Y0344*
X03745Y03444*
X03742Y03447*
X03722Y03467*
X03719Y0347*
X03715Y03471*
X03503*
Y03477*
X03456*
Y03471*
X03436*
Y03481*
X03393*
Y03466*
X0338*
Y03472*
X03329*
Y03437*
X03343*
Y03428*
X03341Y03425*
X0334Y0342*
X03341Y03414*
X03345Y0341*
X03349Y03406*
X03355Y03405*
X0336Y03406*
X03365Y0341*
X03368Y03414*
X03369Y0342*
X03368Y03425*
X03366Y03428*
Y03437*
X0338*
Y03443*
X03393*
Y03438*
X03436*
Y03448*
X03456*
Y03443*
X0347*
Y03203*
X03386Y03119*
X03245*
X03245Y0312*
X0324Y03123*
X03235Y03124*
X03229Y03123*
X03225Y0312*
X03221Y03115*
X0322Y0311*
X03221Y03104*
X03225Y031*
X03229Y03096*
X03235Y03095*
X0324Y03096*
X03245Y031*
X03245Y031*
X03322*
X03325Y03095*
X03325Y03094*
X03326Y0309*
X03328Y03086*
X03326Y03083*
X03325Y03078*
X03326Y03074*
X03328Y03071*
X03326Y03067*
X03325Y03063*
X03326Y03058*
X03326Y03058*
X03326Y03058*
X03322Y03053*
X03322Y03052*
X03334*
X03336Y03052*
X03359*
Y03042*
X03336*
X03334Y03042*
X03322*
X03322Y03041*
X03326Y03036*
X03326Y03036*
X03326Y03035*
X03325Y03031*
X03326Y03027*
X03328Y03023*
X03326Y0302*
X03325Y03015*
X03326Y03011*
X03326Y03011*
X03326Y0301*
X03322Y03005*
X03322Y03005*
X03334*
X03336Y03004*
X03359*
X03382*
X03384Y03005*
X03399*
X03401Y03006*
X03455*
X03459Y03007*
X03462Y03009*
X03588Y03135*
X03753*
Y03126*
X03743*
X0374Y03128*
X03735Y03129*
X03729Y03128*
X03725Y03125*
X03721Y0312*
X0372Y03115*
X03721Y03109*
X03725Y03105*
X03729Y03101*
X03735Y031*
X0374Y03101*
X03743Y03103*
X03753*
Y03094*
X0356*
X03556Y03093*
X03553Y03091*
X03439Y02977*
X03401*
X03399Y02979*
X03384*
X03382Y02979*
X03359*
X03336*
X03334Y02979*
X03322*
X03322Y02978*
X03326Y02973*
X03326Y02973*
X03326Y02972*
X03325Y02968*
X03325Y02967*
X03322Y02962*
X03136*
X03135Y02965*
X0313Y02968*
X03125Y02969*
X03119Y02968*
X03115Y02965*
X03111Y0296*
X0311Y02955*
X03111Y02949*
X03115Y02945*
X03119Y02941*
X03125Y0294*
X0313Y02941*
X03134Y02944*
X03239*
X03241Y02939*
X0324Y02934*
X03241Y02929*
X03245Y02924*
X03249Y02921*
X03255Y0292*
X0326Y02921*
X03265Y02924*
X03266Y02927*
X03322*
X03325Y02922*
X03325Y02921*
X03326Y02917*
X03328Y02913*
X03326Y02909*
X03325Y02905*
X03326Y02901*
X03328Y02897*
X03326Y02894*
X03325Y02889*
X03326Y02885*
X03328Y02882*
X03326Y02878*
X03325Y02874*
X03326Y02869*
X03328Y02866*
X03326Y02862*
X03325Y02858*
X03325Y02856*
X03322Y02851*
X0327*
X0327Y02852*
X03265Y02855*
X0326Y02856*
X03254Y02855*
X0325Y02852*
X03246Y02848*
X03245Y02842*
X03246Y02837*
X0325Y02832*
X03254Y02829*
X0326Y02828*
X03265Y02829*
X0327Y02832*
X0327Y02833*
X03322*
X03325Y02828*
X03325Y02826*
X03326Y02822*
X03328Y02819*
X03326Y02815*
X03325Y02811*
X03326Y02806*
X03328Y02803*
X03326Y02799*
X03325Y02795*
X03326Y02791*
X03327Y0279*
X03324Y02785*
X0332*
X03295Y02755*
X0329Y02752*
X03288Y02753*
X03284Y02754*
X0328Y02753*
X03276Y02751*
X03273Y02753*
X03268Y02754*
X03264Y02753*
X03261Y02751*
X03257Y02753*
X03253Y02754*
X03251Y02754*
X03246Y02757*
Y02764*
X03247Y02765*
X0325Y02769*
X03251Y02775*
X0325Y0278*
X03247Y02785*
X03242Y02788*
X03237Y02789*
X03231Y02788*
X03227Y02785*
X03224Y0278*
X03223Y02775*
X03224Y02769*
X03227Y02765*
X03228Y02764*
Y02757*
X03223Y02754*
X03221Y02754*
X03217Y02753*
X03213Y02751*
X0321Y02753*
X03205Y02754*
X03201Y02753*
X03198Y02751*
X03194Y02753*
X0319Y02754*
X03185Y02753*
X03182Y02751*
X03178Y02753*
X03174Y02754*
X0317Y02753*
X03166Y02751*
X03162Y02753*
X03158Y02754*
X03154Y02753*
X0315Y02751*
X03147Y02753*
X03142Y02754*
X03138Y02753*
X03135Y02751*
X03131Y02753*
X03127Y02754*
X03122Y02753*
X03119Y02751*
X03115Y02753*
X03111Y02754*
X03107Y02753*
X03106Y02753*
X03106Y02754*
X03101Y02757*
X031Y02757*
Y02745*
X031Y02743*
Y0272*
Y02698*
X031Y02696*
Y0268*
X03102Y02678*
Y0254*
X03003Y02441*
X03001Y02438*
X03Y02435*
Y02406*
X02988*
Y02394*
X0298*
X0298Y02395*
X02975Y02398*
X0297Y02399*
X02964Y02398*
X0296Y02395*
X02956Y0239*
X02955Y02385*
X02956Y02379*
X0296Y02375*
X02964Y02371*
X0297Y0237*
X02975Y02371*
X0298Y02375*
X0298Y02375*
X02988*
Y02362*
X03031*
Y02406*
X03019*
Y02431*
X03117Y02529*
X03119Y02532*
X0312Y02536*
Y02683*
X03125Y02687*
X03127Y02686*
X03131Y02687*
X03135Y0269*
X03138Y02687*
X03142Y02686*
X03147Y02687*
X0315Y0269*
X03154Y02687*
X03158Y02686*
X03162Y02687*
X03166Y0269*
X0317Y02687*
X03174Y02686*
X03175Y02687*
X0318Y02683*
Y02578*
X03063Y02461*
X03061Y02458*
X0306Y02455*
Y02406*
X03048*
Y02362*
X03091*
X03095Y0236*
Y02356*
X03095Y02351*
X0309*
X03075*
Y02325*
Y02299*
X03095*
X03095Y02294*
Y02235*
X03095Y02235*
X03091Y0223*
X0309Y02225*
X03091Y02219*
X03094Y02216*
X03092Y02212*
X03092Y02211*
X03031*
X02941Y02301*
Y02403*
X03086Y02548*
X03088Y02551*
X03089Y02554*
Y02678*
X0309Y0268*
Y02696*
X03091Y02698*
Y0272*
Y02743*
X0309Y02745*
Y02757*
X03089Y02757*
X03084Y02754*
X03084Y02753*
X03084Y02753*
X03079Y02754*
X03075Y02753*
X03072Y02751*
X03068Y02753*
X03064Y02754*
X03059Y02753*
X03059Y02753*
X03059Y02754*
X03054Y02757*
X03053Y02757*
Y02745*
X03053Y02743*
Y0272*
Y02698*
X03053Y02696*
Y0268*
X03055Y02678*
Y02565*
X02913Y02423*
X02911Y0242*
X0291Y02417*
Y02293*
X02911Y02289*
X02913Y02286*
X03016Y02183*
X03019Y02181*
X03023Y0218*
X0343*
X03433Y02181*
X03436Y02183*
X03578Y02325*
X04724*
X04725Y02325*
X04729Y02321*
X04735Y0232*
X0474Y02321*
X04745Y02325*
X04748Y02329*
X04749Y02335*
X04748Y0234*
X04747Y0234*
X0475Y02344*
X04754Y02345*
X04755*
X04759Y02341*
X04765Y0234*
X0477Y02341*
X04775Y02345*
X04778Y02349*
X04779Y02355*
X04778Y0236*
X04775Y02365*
X0477Y02368*
X04765Y02369*
X04759Y02368*
X04755Y02365*
X04754Y02364*
X03575*
X03571Y02363*
X03568Y02361*
X03418Y02211*
X03118*
X03117Y02212*
X03115Y02216*
X03118Y02219*
X03119Y02225*
X03118Y0223*
X03115Y02235*
X03114Y02235*
Y02244*
X03118Y02246*
X0314Y02225*
X034*
X03403Y02228*
X0341Y02235*
Y02239*
Y02415*
X03405Y02419*
X03262Y02562*
X0326Y02567*
Y02684*
X03263Y02688*
X03264Y02687*
X03268Y02686*
X03273Y02687*
X03276Y0269*
X0328Y02687*
X03284Y02686*
X03288Y02687*
X03292Y0269*
X03294Y02693*
X03295Y02698*
Y0274*
X0331*
X03335Y0277*
Y0278*
X0334Y02784*
X03382*
X03386Y02785*
X03388Y02786*
X03389*
X0344Y02734*
Y02652*
X03441Y02648*
X03443Y02645*
X0367Y02418*
X03673Y02416*
X03677Y02415*
X03753*
Y02401*
X03787*
Y02448*
X03753*
Y02434*
X0368*
X03468Y02646*
X0347Y02651*
X03472Y02651*
X03476Y02655*
X03479Y02659*
X03481Y02665*
X03479Y0267*
X03476Y02675*
X03472Y02678*
X03466Y02679*
X03464Y02678*
X03459Y02682*
Y02738*
X03458Y02742*
X03456Y02745*
X03404Y02796*
X03406Y02801*
X0348*
X03482Y02799*
X03486Y02795*
X03492Y02794*
X03495Y02795*
X035Y02792*
Y0273*
X03501Y02726*
X03503Y02723*
X03628Y02598*
X03631Y02596*
X03635Y02595*
X03753*
Y02581*
X03787*
Y02622*
X03812*
Y02581*
X03846*
Y02593*
X03861*
X03864Y02591*
X0387Y0259*
X03875Y02591*
X0388Y02595*
X03883Y02599*
X03884Y02605*
X03883Y0261*
X0388Y02615*
X03875Y02618*
X03875*
Y02623*
X03875*
X03878Y02625*
X03935Y02682*
X0394Y0268*
Y02554*
X03846*
Y02568*
X03812*
Y02521*
X03846*
Y02535*
X0394*
Y02395*
X04933*
Y02171*
X01011*
Y04988*
X04933*
Y0337*
G37*
G36*
X03723Y03435D02*
Y03333D01*
X03721Y0333*
X0372Y03325*
X03721Y03319*
X03725Y03315*
X03729Y03311*
X03735Y0331*
X0374Y03311*
X03743Y03313*
X03758*
Y03301*
X03764*
Y03286*
X03753*
Y03274*
X0367*
X03666Y03273*
X03663Y03271*
X03464Y03072*
X03396*
X03392Y03077*
X03393Y03078*
X03392Y03083*
X03389Y03086*
X03392Y0309*
X03393Y03094*
X03392Y03098*
X03393Y03101*
X03393*
X03396Y03103*
X03486Y03193*
X03488Y03196*
X03489Y032*
Y03443*
X03503*
Y03448*
X0371*
X03723Y03435*
G37*
G36*
X03753Y03001D02*
X03765D01*
X03767Y02996*
X03766Y02995*
X03765Y02991*
Y02986*
X03753*
Y02976*
X03723*
X0372Y02978*
X03715Y02979*
X03709Y02978*
X03705Y02975*
X03701Y0297*
X037Y02965*
X03701Y02959*
X03705Y02955*
X03709Y02951*
X03715Y0295*
X0372Y02951*
X03723Y02953*
X03753*
Y02943*
X03763*
X03765Y02938*
X03764Y02937*
X03762Y02934*
X03761Y0293*
Y02928*
X03753*
Y02914*
X03504*
X03502Y02919*
X03598Y03015*
X03753*
Y03001*
G37*
G36*
X0394Y03015D02*
Y02796D01*
X03856*
Y02806*
X03843*
X03843Y02809*
X03841Y02812*
X03838Y02814*
X0384Y02819*
X0386*
Y0284*
X03834*
Y0285*
X0386*
Y02859*
X03862Y0286*
X03865Y02861*
X0387Y0286*
X03875Y02861*
X0388Y02865*
X03883Y02869*
X03884Y02875*
X03883Y0288*
X0388Y02885*
X03876Y02887*
X03876Y02888*
Y02891*
X03876Y02892*
X0388Y02895*
X03883Y02899*
X03884Y02905*
X03883Y0291*
X0388Y02915*
X03875Y02918*
X0387Y02919*
X03864Y02918*
X0386Y02915*
X03859Y02914*
X03846*
Y02925*
X03899*
X039Y02925*
X03904Y02921*
X0391Y0292*
X03915Y02921*
X0392Y02925*
X03923Y02929*
X03924Y02935*
X03923Y0294*
X0392Y02945*
X03915Y02948*
X0391Y02949*
X03904Y02948*
X039Y02945*
X03899Y02944*
X03856*
Y02951*
X03857Y02952*
X03861Y02954*
X03864Y02951*
X0387Y0295*
X03875Y02951*
X0388Y02955*
X03883Y02959*
X03884Y02965*
X03883Y0297*
X0388Y02975*
X03875Y02978*
X0387Y02979*
X03864Y02978*
X03861Y02975*
X03857Y02977*
X03856Y02978*
Y02985*
X039*
X03903Y02986*
X03906Y02988*
X03935Y03017*
X0394Y03015*
G37*
G36*
X03753Y03063D02*
X03766D01*
X03767Y03058*
X03767Y03058*
X03764Y03054*
X03762Y03051*
X03761Y03048*
X03753*
Y03034*
X03595*
X03591Y03033*
X03588Y03031*
X03487Y0293*
X03396*
X03392Y02935*
X03393Y02937*
X03392Y02938*
X03396Y02943*
X03423*
X03425Y02941*
X03429Y02938*
X03435Y02937*
X0344Y02938*
X03445Y02941*
X03448Y02946*
X03449Y02951*
X03448Y02957*
X03447Y02957*
X03447Y0296*
X0345Y02962*
X03563Y03075*
X03753*
Y03063*
G37*
G36*
X03675Y02854D02*
X03558D01*
X03521Y02891*
X03523Y02896*
X03675*
Y02854*
G37*
G36*
X03548Y02838D02*
X03551Y02836D01*
X03555Y02835*
X03753*
Y02823*
X0375Y02819*
X03695*
X03695Y0282*
X0369Y02823*
X03685Y02824*
X03679Y02823*
X03675Y0282*
X03671Y02815*
X0367Y0281*
X03671Y02804*
X03675Y028*
X03679Y02796*
X03685Y02795*
X0369Y02796*
X03695Y028*
X03695Y02801*
X03705*
X03706Y02796*
X03705Y02795*
X03701Y0279*
X037Y02785*
X03701Y02779*
X03705Y02775*
X03709Y02771*
X03715Y0277*
X0372Y02771*
X03723Y02773*
X03753*
Y02763*
X03797*
Y02801*
X03812*
Y02763*
X03856*
Y02773*
X0394*
Y02729*
X03917Y02707*
X03877*
X03876Y02709*
X03876Y02712*
X0388Y02715*
X03883Y02719*
X03884Y02725*
X03883Y0273*
X0388Y02735*
X03875Y02738*
X0387Y02739*
X03864Y02738*
X03861Y02736*
X03846*
Y02748*
X03812*
Y02707*
X03787*
Y02748*
X03753*
Y02734*
X03538*
X03531Y02741*
Y02823*
X0353Y02826*
X03528Y02829*
X03482Y02875*
X03484Y0288*
X03506*
X03548Y02838*
G37*
G36*
X03248Y02687D02*
X0325Y02687D01*
X03253Y02685*
X03255Y02682*
Y02565*
X03259Y0256*
X03402Y02417*
X03405Y02412*
Y02237*
X03402Y02232*
X03402Y02232*
X03397Y0223*
X03142*
X03137Y02232*
X03115Y02255*
Y02255*
Y02475*
X03191Y02551*
X03196Y02549*
Y02496*
X03184Y02483*
X03163*
Y02469*
X0315*
X03146Y02468*
X03143Y02466*
X03133Y02456*
X03131Y02453*
X0313Y0245*
Y02335*
X03131Y02331*
X03133Y02328*
X0314Y02322*
X03143Y0232*
X03146Y02319*
X03153*
Y02299*
X03177*
Y02286*
X03168*
Y02243*
X03212*
Y02286*
X03195*
Y02299*
X0322*
Y02357*
X03224Y02358*
Y02386*
X03186*
Y02391*
X03181*
Y02424*
X03149*
Y02446*
X03153Y0245*
X03163*
Y02436*
X03197*
Y0247*
X03208Y02482*
X03211Y02481*
X03222Y0247*
Y02436*
X03256*
Y02443*
X0326Y02445*
X03264Y02442*
Y0242*
X03239*
Y02363*
X03235Y02361*
Y0236*
Y02333*
X03273*
X0331*
Y0236*
Y02361*
X03306Y02363*
Y02366*
Y02382*
X03333*
Y02367*
X03376*
Y02411*
X03333*
Y024*
X03306*
Y0242*
X03282*
Y02446*
X03281Y0245*
X03279Y02453*
X03266Y02466*
X03263Y02468*
X0326Y02469*
X03256*
Y02483*
X03235*
X03227Y02492*
Y02666*
X03228Y02667*
X0323Y0267*
X0323Y02673*
Y02683*
X03235Y02687*
X03237Y02686*
X03241Y02687*
X03245Y0269*
X03248Y02687*
G37*
%LNv1.0-2*%
%LPC*%
G36*
X04534Y04978D02*
Y04938D01*
X04562*
Y04946*
X04561Y04954*
X04557Y04962*
X04552Y04969*
X04545Y04974*
X04537Y04977*
X04534Y04978*
G37*
G36*
X04229D02*
Y04938D01*
X04257*
Y04946*
X04255Y04954*
X04252Y04962*
X04247Y04969*
X0424Y04974*
X04232Y04977*
X04229Y04978*
G37*
G36*
X04219D02*
X04215Y04977D01*
X04207Y04974*
X042Y04969*
X04195Y04962*
X04192Y04954*
X04191Y04946*
Y04938*
X04219*
Y04978*
G37*
G36*
X04524D02*
X0452Y04977D01*
X04512Y04974*
X04506Y04969*
X045Y04962*
X04497Y04954*
X04496Y04946*
Y04938*
X04524*
Y04978*
G37*
G36*
X01946Y04923D02*
X01903D01*
Y04916*
X01879*
Y0492*
X0183*
Y04876*
X01879*
Y04883*
X01903*
Y04879*
X01946*
Y04923*
G37*
G36*
X04562Y04928D02*
X04534D01*
Y04888*
X04537Y04888*
X04545Y04892*
X04552Y04897*
X04557Y04904*
X04561Y04912*
X04562Y0492*
Y04928*
G37*
G36*
X04219D02*
X04191D01*
Y0492*
X04192Y04912*
X04195Y04904*
X042Y04897*
X04207Y04892*
X04215Y04888*
X04219Y04888*
Y04928*
G37*
G36*
X04257D02*
X04229D01*
Y04888*
X04232Y04888*
X0424Y04892*
X04247Y04897*
X04252Y04904*
X04255Y04912*
X04257Y0492*
Y04928*
G37*
G36*
X04524D02*
X04496D01*
Y0492*
X04497Y04912*
X045Y04904*
X04506Y04897*
X04512Y04892*
X0452Y04888*
X04524Y04888*
Y04928*
G37*
G36*
X0387Y04958D02*
X03858Y04957D01*
X03848Y04953*
X03839Y04946*
X03832Y04936*
X03827Y04926*
X03826Y04915*
X03827Y04903*
X03832Y04893*
X03839Y04884*
X03848Y04877*
X03858Y04872*
X0387Y04871*
X03881Y04872*
X03891Y04877*
X03901Y04884*
X03908Y04893*
X03912Y04903*
X03913Y04915*
X03912Y04926*
X03908Y04936*
X03901Y04946*
X03891Y04953*
X03881Y04957*
X0387Y04958*
G37*
G36*
X0362D02*
X03608Y04957D01*
X03598Y04953*
X03589Y04946*
X03582Y04936*
X03577Y04926*
X03576Y04915*
X03577Y04903*
X03582Y04893*
X03589Y04884*
X03598Y04877*
X03608Y04872*
X0362Y04871*
X03631Y04872*
X03641Y04877*
X03651Y04884*
X03658Y04893*
X03662Y04903*
X03663Y04915*
X03662Y04926*
X03658Y04936*
X03651Y04946*
X03641Y04953*
X03631Y04957*
X0362Y04958*
G37*
G36*
X02169Y04889D02*
X0212D01*
Y04883*
X02042*
X02036Y04882*
X02031Y04879*
X01983Y04831*
X01979Y04826*
X01978Y0482*
Y04767*
X01973Y04765*
X0197Y04766*
X01801*
Y04785*
X01799Y04793*
X01795Y048*
X01788Y04804*
X0178Y04806*
X01771Y04804*
X01764Y048*
X0176Y04793*
X01758Y04785*
Y04766*
X01685*
X0168Y04764*
X0167Y04754*
X01668Y0475*
Y0466*
X0167Y04655*
X01675Y0465*
X0168Y04648*
X01795*
Y04616*
X01864*
Y04648*
X01886*
Y04637*
X01911*
X01937*
Y04648*
X01996*
X01998Y04643*
X0199Y04636*
X01951*
Y04574*
X02018*
Y04578*
X02043*
X02044Y04578*
X02051Y04576*
X02084*
X02091Y04578*
X02092Y04578*
X02257*
X02258Y04578*
X02265Y04576*
X02299*
X02306Y04578*
X02311Y04582*
X02315Y04588*
X02317Y04595*
X02315Y04601*
X02311Y04607*
X02306Y04611*
X02299Y04613*
X02265*
X02258Y04611*
X02257Y04611*
X02092*
X02091Y04611*
X02084Y04613*
X02051*
X02044Y04611*
X02043Y04611*
X02018*
Y04617*
X02029Y04628*
X02043*
X02044Y04628*
X02051Y04626*
X02084*
X02091Y04628*
X02097Y04632*
X02101Y04638*
X02102Y04645*
X02101Y04651*
X02097Y04657*
X02091Y04661*
X02084Y04663*
X02051*
X02044Y04661*
X02043Y04662*
X02043Y04669*
X02047Y04673*
X0209*
X02094Y04675*
X02104Y04685*
X02106Y0469*
Y047*
X02104Y04704*
X02094Y04714*
X0209Y04716*
X02022*
X02018Y0472*
Y04726*
X02022Y04728*
X02043*
X02044Y04728*
X02051Y04726*
X02084*
X02091Y04728*
X02097Y04732*
X02101Y04738*
X02102Y04745*
X02101Y04751*
X02097Y04757*
X02091Y04761*
X02084Y04763*
X02051*
X02044Y04761*
X02043Y04761*
X02016*
X02011Y04766*
Y04813*
X02049Y04851*
X0212*
Y04845*
X02169*
Y04851*
X02185*
Y04845*
X02234*
Y04889*
X02185*
Y04883*
X02169*
Y04889*
G37*
G36*
X0195Y04864D02*
X0193D01*
Y04843*
X0195*
Y04864*
G37*
G36*
X0192D02*
X01899D01*
Y04843*
X0192*
Y04864*
G37*
G36*
X04278Y04847D02*
X04269Y04845D01*
X04262Y0484*
X04257Y04833*
X04256Y04828*
X04251Y04826*
X04249Y04828*
X0424Y04832*
X04235Y04832*
Y04788*
X04268*
Y04794*
X04268Y048*
X04272Y04804*
X04278Y04802*
X04286Y04804*
X04293Y04809*
X04298Y04816*
X043Y04825*
X04298Y04833*
X04293Y0484*
X04286Y04845*
X04278Y04847*
G37*
G36*
X0252Y04868D02*
X02485D01*
Y04821*
X0252*
Y04868*
G37*
G36*
X02475D02*
X02439D01*
Y04821*
X02475*
Y04868*
G37*
G36*
X02173Y04838D02*
X0215D01*
Y04817*
X02173*
Y04838*
G37*
G36*
X0214D02*
X02116D01*
Y04817*
X0214*
Y04838*
G37*
G36*
X0195Y04833D02*
X0193D01*
Y04812*
X0195*
Y04833*
G37*
G36*
X0192D02*
X01899D01*
Y04812*
X0192*
Y04833*
G37*
G36*
X04815Y04955D02*
X048Y04953D01*
X04786Y04949*
X04773Y04942*
X04761Y04933*
X04752Y04921*
X04745Y04908*
X04741Y04894*
X04739Y0488*
X04741Y04865*
X04745Y04851*
X04752Y04838*
X04761Y04826*
X04773Y04817*
X04786Y0481*
X048Y04806*
X04815Y04804*
X04829Y04806*
X04843Y0481*
X04856Y04817*
X04868Y04826*
X04877Y04838*
X04884Y04851*
X04888Y04865*
X0489Y0488*
X04888Y04894*
X04884Y04908*
X04877Y04921*
X04868Y04933*
X04856Y04942*
X04843Y04949*
X04829Y04953*
X04815Y04955*
G37*
G36*
X0112D02*
X01105Y04953D01*
X01091Y04949*
X01078Y04942*
X01066Y04933*
X01057Y04921*
X0105Y04908*
X01046Y04894*
X01044Y0488*
X01046Y04865*
X0105Y04851*
X01057Y04838*
X01066Y04826*
X01078Y04817*
X01091Y0481*
X01105Y04806*
X0112Y04804*
X01134Y04806*
X01148Y0481*
X01161Y04817*
X01173Y04826*
X01182Y04838*
X01189Y04851*
X01193Y04865*
X01195Y0488*
X01193Y04894*
X01189Y04908*
X01182Y04921*
X01173Y04933*
X01161Y04942*
X01148Y04949*
X01134Y04953*
X0112Y04955*
G37*
G36*
X04528Y04832D02*
Y04788D01*
X04562*
Y04794*
X0456Y04804*
X04557Y04814*
X0455Y04822*
X04542Y04828*
X04533Y04832*
X04528Y04832*
G37*
G36*
X0432Y04819D02*
X04306D01*
Y04788*
X0432*
Y04819*
G37*
G36*
X04225Y04832D02*
X0422Y04832D01*
X0421Y04828*
X04202Y04822*
X04196Y04814*
X04192Y04804*
X04191Y04794*
Y04788*
X04225*
Y04832*
G37*
G36*
X04475Y04847D02*
X04466Y04845D01*
X04459Y0484*
X04454Y04833*
X04452Y04825*
X04454Y04816*
X04459Y04809*
X04466Y04804*
X04475Y04802*
X0448Y04804*
X04485Y048*
X04484Y04794*
Y04788*
X04518*
Y04832*
X04513Y04832*
X04503Y04828*
X04502Y04826*
X04496Y04828*
X04495Y04833*
X0449Y0484*
X04483Y04845*
X04475Y04847*
G37*
G36*
X02173Y04807D02*
X0215D01*
Y04786*
X02173*
Y04807*
G37*
G36*
X0214D02*
X02116D01*
Y04786*
X0214*
Y04807*
G37*
G36*
X01879Y04865D02*
X0183D01*
Y04821*
X01843*
Y04803*
X01841Y048*
X0184Y04795*
X01841Y04789*
X01845Y04785*
X01849Y04781*
X01855Y0478*
X0186Y04781*
X01865Y04785*
X01868Y04789*
X01869Y04795*
X01868Y048*
X01866Y04803*
Y04821*
X01879*
Y04865*
G37*
G36*
X0252Y04811D02*
X02485D01*
Y04765*
X0252*
Y04811*
G37*
G36*
X02475D02*
X02439D01*
Y04765*
X02475*
Y04811*
G37*
G36*
X01525Y04815D02*
X0144D01*
Y0476*
X01525*
Y04815*
G37*
G36*
X0143D02*
X01345D01*
Y0476*
X0143*
Y04815*
G37*
G36*
X0239Y04774D02*
X0237D01*
Y04754*
X0239*
Y04774*
G37*
G36*
X0236D02*
X02339D01*
Y04754*
X0236*
Y04774*
G37*
G36*
X02299Y04767D02*
X02287D01*
Y0475*
X0232*
X02319Y04753*
X02314Y0476*
X02307Y04765*
X02299Y04767*
G37*
G36*
X02277D02*
X02265D01*
X02257Y04765*
X02249Y0476*
X02245Y04753*
X02244Y0475*
X02277*
Y04767*
G37*
G36*
X0432Y04778D02*
X04306D01*
Y04748*
X0432*
Y04778*
G37*
G36*
X04562D02*
X04528D01*
Y04734*
X04533Y04735*
X04542Y04739*
X0455Y04745*
X04557Y04753*
X0456Y04762*
X04562Y04772*
Y04778*
G37*
G36*
X04225D02*
X04191D01*
Y04772*
X04192Y04762*
X04196Y04753*
X04202Y04745*
X0421Y04739*
X0422Y04735*
X04225Y04734*
Y04778*
G37*
G36*
X04268D02*
X04235D01*
Y04734*
X0424Y04735*
X04249Y04739*
X04257Y04745*
X04263Y04753*
X04267Y04762*
X04268Y04772*
Y04778*
G37*
G36*
X04518D02*
X04484D01*
Y04772*
X04485Y04762*
X04489Y04753*
X04495Y04745*
X04503Y04739*
X04513Y04735*
X04518Y04734*
Y04778*
G37*
G36*
X04655Y04761D02*
Y04725D01*
X04691*
X0469Y0473*
X04686Y0474*
X04679Y04749*
X0467Y04756*
X0466Y0476*
X04655Y04761*
G37*
G36*
X04645D02*
X04639Y0476D01*
X04629Y04756*
X0462Y04749*
X04613Y0474*
X04609Y0473*
X04608Y04725*
X04645*
Y04761*
G37*
G36*
X0239Y04744D02*
X0237D01*
Y04723*
X0239*
Y04744*
G37*
G36*
X0236D02*
X02339D01*
Y04723*
X0236*
Y04744*
G37*
G36*
X0232Y0474D02*
X02287D01*
Y04722*
X02299*
X02307Y04724*
X02314Y04729*
X02319Y04736*
X0232Y0474*
G37*
G36*
X02277D02*
X02244D01*
X02245Y04736*
X02249Y04729*
X02257Y04724*
X02265Y04722*
X02277*
Y0474*
G37*
G36*
X03917Y04762D02*
X03875D01*
Y0472*
X03917*
Y04762*
G37*
G36*
X03625Y04762D02*
Y0472D01*
X03667*
X03666Y04727*
X03661Y04739*
X03653Y04748*
X03644Y04756*
X03632Y04761*
X03625Y04762*
G37*
G36*
X03615D02*
X03607Y04761D01*
X03596Y04756*
X03586Y04748*
X03578Y04739*
X03573Y04727*
X03572Y0472*
X03615*
Y04762*
G37*
G36*
X03865Y04762D02*
X03822D01*
Y0472*
X03865*
Y04762*
G37*
G36*
X01525Y0475D02*
X0144D01*
Y04695*
X01525*
Y0475*
G37*
G36*
X0143D02*
X01345D01*
Y04695*
X0143*
Y0475*
G37*
G36*
X04691Y04715D02*
X04655D01*
Y04678*
X0466Y04679*
X0467Y04683*
X04679Y0469*
X04686Y04699*
X0469Y04709*
X04691Y04715*
G37*
G36*
X04645D02*
X04608D01*
X04609Y04709*
X04613Y04699*
X0462Y0469*
X04629Y04683*
X04639Y04679*
X04645Y04678*
Y04715*
G37*
G36*
X03667Y0471D02*
X03625D01*
Y04667*
X03632Y04668*
X03644Y04673*
X03653Y04681*
X03661Y04691*
X03666Y04702*
X03667Y0471*
G37*
G36*
X03615D02*
X03572D01*
X03573Y04702*
X03578Y04691*
X03586Y04681*
X03596Y04673*
X03607Y04668*
X03615Y04667*
Y0471*
G37*
G36*
X03917D02*
X03875D01*
Y04667*
X03917*
Y0471*
G37*
G36*
X03865D02*
X03822D01*
Y04667*
X03865*
Y0471*
G37*
G36*
X04344Y04819D02*
X0433D01*
Y04783*
Y04748*
X04344*
Y04752*
X04365*
Y04727*
X04331Y04693*
X04329Y04689*
X04328Y04685*
Y04667*
X04317*
Y04664*
X04295*
X04291Y04663*
X04287Y04661*
X04273Y04647*
X04271Y04643*
X0427Y04639*
Y04577*
X04271Y04573*
X04273Y0457*
X04298Y04545*
X04302Y04542*
X04306Y04541*
X04358*
X04359Y0454*
X0436Y04536*
X04358Y04533*
X04357Y04527*
X04358Y04522*
X04361Y04518*
Y04513*
X04356Y04511*
X04351Y04515*
X04348Y04518*
X04343Y04519*
X04331*
X04223*
Y04529*
X04179*
Y04519*
X04168*
Y04529*
X04124*
Y04486*
X04135*
Y04472*
X04122*
Y04459*
X04116*
X04112Y04458*
X04108Y04455*
X04074Y04421*
X03721*
Y04731*
X03723Y04734*
X03724Y0474*
X03723Y04745*
X0372Y0475*
X03715Y04753*
X0371Y04754*
X03704Y04753*
X037Y0475*
X03696Y04745*
X03695Y0474*
X03696Y04734*
X03698Y04731*
Y0441*
Y04383*
X03696Y0438*
X03695Y04375*
X03696Y04369*
X03698Y04366*
Y04188*
X03696Y04185*
X03695Y0418*
X03696Y04174*
X03698Y04171*
Y04162*
X03685*
Y04119*
X03734*
Y04162*
X03721*
Y04171*
X03723Y04174*
X03724Y0418*
X03723Y04185*
X03721Y04188*
Y04366*
X03723Y04369*
X03724Y04375*
X03723Y0438*
X03721Y04383*
Y04398*
X03822*
Y0436*
X0387*
X03917*
Y04398*
X04078*
X04083Y04399*
X04086Y04402*
X04117Y04432*
X04122Y0443*
Y04423*
X04165*
Y04472*
X04157*
Y04486*
X04168*
Y04496*
X04179*
Y04486*
X04223*
Y04496*
X0424*
Y04491*
X04238Y04488*
X04237Y04482*
X04238Y04477*
X04241Y04472*
X04246Y04469*
X0425Y04469*
X0425Y04466*
X0425Y04463*
X04246Y04461*
X04244Y04458*
X04241Y04456*
X04238*
X04236Y04458*
X04231Y04459*
X04221*
Y04472*
X04177*
Y04423*
X04221*
Y04436*
X04227*
X04239Y04424*
X04243Y04421*
X04247Y04421*
X04272*
X04274Y04418*
X04275Y04416*
X04274Y04412*
X04275Y04409*
X04274Y04406*
X04272Y04404*
X04246*
X04242Y04403*
X04238Y044*
X04237Y04399*
X0422*
Y04409*
X04177*
Y04366*
X0422*
Y04376*
X04241*
X04246Y04377*
X04249Y0438*
X04251Y04381*
X04272*
X04274Y04379*
X04275Y04376*
X04274Y04373*
X04275Y04369*
X04277Y04365*
Y04361*
X04275Y04357*
X04274Y04353*
X04275Y04349*
X04277Y04345*
Y04341*
X04275Y04338*
X04274Y04334*
X04274Y04333*
X0427Y04333*
X04267Y04336*
X04266Y04337*
X04262Y04341*
X04256Y04342*
X04251Y04341*
X04248Y04339*
X04221*
Y04352*
X04177*
Y04303*
X04221*
Y04316*
X04248*
X04251Y04314*
X04256Y04313*
X04262Y04314*
X04266Y04317*
X04269Y04322*
X0427Y04324*
X04271Y04328*
X04275Y04329*
X04275Y04329*
X04277Y04326*
X04281Y04323*
X04285Y04322*
X04317*
X04317Y04322*
X04322Y04318*
X04321Y04318*
Y04286*
X04322Y04282*
X04325Y04278*
X04328Y04276*
X04332Y04275*
X04337Y04276*
X0434Y04278*
X04344*
X04348Y04276*
X04352Y04275*
X04356Y04276*
X0436Y04278*
X04364*
X04368Y04276*
X04372Y04275*
X04376Y04276*
X0438Y04278*
X04384*
X04387Y04276*
X04392Y04275*
X04396Y04276*
X04399Y04278*
X04403*
X04407Y04276*
X04411Y04275*
X04415Y04276*
X04419Y04278*
X04423*
X04427Y04276*
X04431Y04275*
X04435Y04276*
X04439Y04278*
X04443*
X04446Y04276*
X04451Y04275*
X04455Y04276*
X04458Y04278*
X04461Y04282*
X04462Y04286*
Y04318*
X04462Y04318*
X04466Y04322*
X04466Y04322*
X04498*
X04502Y04323*
X04506Y04326*
X04508Y04329*
X04509Y04333*
X04508Y04338*
X04506Y04341*
Y04345*
X04508Y04349*
X04509Y04353*
X04508Y04356*
X0451Y0436*
X04511Y04361*
X04592*
X04594Y0436*
X04599Y04359*
X04604Y0436*
X04609Y04364*
X04612Y04368*
X04613Y0437*
X04618Y04374*
X04618Y04374*
X04618Y04374*
X04622Y04371*
Y04361*
X04671*
Y04371*
X04683*
X04686Y04369*
X04691Y04368*
X04697Y04369*
X04701Y04372*
X04703Y04376*
X04708Y04374*
Y04352*
X04723*
Y04345*
X04722Y04344*
X04654*
X04652Y04346*
X04646Y04347*
X04641Y04346*
X04636Y04342*
X04633Y04338*
X04632Y04332*
X04633Y04327*
X04636Y04322*
X04641Y04319*
X04646Y04318*
X04652Y04319*
X04654Y04321*
X04726*
X04731Y04322*
X04734Y04325*
X04742Y04332*
X04744Y04336*
X04745Y0434*
Y04352*
X0476*
Y04388*
X04709*
X04708*
X04704Y04389*
X04701Y04392*
X04697Y04396*
X04691Y04397*
X04686Y04396*
X04683Y04394*
X04671*
Y04404*
X04622*
X04617Y04402*
X04612Y04407*
Y04446*
X04612Y0445*
X04609Y04454*
X04603Y04459*
X046Y04462*
X04595Y04463*
X04482*
X04482Y04463*
X04466*
X04466Y04462*
X04462Y04467*
X04462Y04467*
Y04499*
X04461Y04503*
X04458Y04507*
X04455Y04509*
X04451Y0451*
X04446Y04509*
X04443Y04507*
X04439*
X04435Y04509*
X04431Y0451*
X04427Y04509*
X04426Y04509*
X04422Y0451*
X04417Y04513*
X04416Y04513*
Y04483*
X04406*
Y04514*
X04403Y04517*
Y04542*
X04402Y04546*
X04399Y0455*
X04389Y0456*
X04386Y04563*
X04381Y04564*
X04311*
X04292Y04582*
Y04634*
X043Y04642*
X04313*
Y04632*
X04339*
X04365*
Y04645*
X04361*
Y04667*
X0435*
Y0468*
X04384Y04715*
X04386Y04718*
X04388Y04718*
X04389Y04718*
X04392Y04718*
X04394Y04714*
X04412Y04696*
Y04667*
X04402*
Y04639*
Y04614*
Y04588*
X04412*
Y04577*
X04411Y04576*
X04408Y04572*
X04407Y04566*
X04408Y04561*
X04411Y04556*
X04416Y04553*
X04421Y04552*
X04427Y04553*
X04431Y04556*
X04434Y04561*
X04435Y04566*
X04435Y04569*
Y04588*
X04445*
Y04591*
X04453*
X04456Y04589*
X04461Y04588*
X04467Y04589*
X04471Y04592*
X04474Y04597*
X04475Y04602*
X04474Y04608*
X04471Y04612*
X04467Y04616*
X04461Y04617*
X04456Y04616*
X04453Y04613*
X04445*
Y04642*
X04456*
X04468Y0463*
X04468Y04627*
X04471Y04622*
X04476Y04619*
X04481Y04618*
X04487Y04619*
X04491Y04622*
X04494Y04627*
X04495Y04632*
X04494Y04638*
X04491Y04642*
X04487Y04646*
X04483Y04646*
X04469Y04661*
X04465Y04663*
X04464Y04664*
Y04669*
X04467Y04669*
X04471Y04672*
X04474Y04677*
X04475Y04682*
X04474Y04688*
X04471Y04692*
Y04704*
X0447Y04708*
X04468Y04711*
X04439Y04741*
Y04752*
X04442*
Y04815*
X04344*
Y04819*
G37*
G36*
X04196Y04649D02*
D01*
X04091*
X04087Y04648*
X04083Y04645*
X04069Y04631*
X04067Y04628*
X04066Y04623*
Y04614*
X04062*
Y04571*
X0409*
Y04614*
X0409*
X04089Y04619*
X04096Y04626*
X04192*
X04221Y04597*
X04219Y04592*
X04206*
Y04572*
X04227*
Y04584*
X04232Y04586*
X0424Y04578*
Y04571*
X04238Y04568*
X04237Y04562*
X04238Y04557*
X04241Y04552*
X04246Y04549*
X04251Y04548*
X04257Y04549*
X04261Y04552*
X04264Y04557*
X04265Y04562*
X04264Y04568*
X04262Y04571*
Y04582*
X04262Y04587*
X04259Y0459*
X04204Y04645*
X04201Y04648*
X04196Y04649*
G37*
G36*
X01295Y04695D02*
X0124D01*
Y0461*
X01295*
Y04695*
G37*
G36*
X01085Y04646D02*
Y0461D01*
X01121*
X0112Y04615*
X01116Y04625*
X01109Y04634*
X011Y04641*
X0109Y04645*
X01085Y04646*
G37*
G36*
X01075D02*
X01069Y04645D01*
X01059Y04641*
X0105Y04634*
X01043Y04625*
X01039Y04615*
X01038Y0461*
X01075*
Y04646*
G37*
G36*
X0123Y04695D02*
X01175D01*
Y0461*
X0123*
Y04695*
G37*
G36*
X04761Y04615D02*
X04709D01*
Y04608*
X04671*
Y04612*
X04622*
Y04568*
X04671*
Y04586*
X04709*
Y04579*
X04761*
Y04615*
G37*
G36*
X01937Y04627D02*
X01916D01*
Y04606*
X01937*
Y04627*
G37*
G36*
X01906D02*
X01886D01*
Y04606*
X01906*
Y04627*
G37*
G36*
X04895Y04684D02*
X04889Y04683D01*
X04885Y0468*
X04881Y04675*
X0488Y0467*
X04881Y04664*
X04883Y04661*
Y04637*
X04872*
Y04593*
X04921*
Y04637*
X04906*
Y04661*
X04908Y04664*
X04909Y0467*
X04908Y04675*
X04905Y0468*
X049Y04683*
X04895Y04684*
G37*
G36*
X04365Y04622D02*
X04339D01*
X04313*
Y0461*
X04317*
Y04588*
X04361*
Y0461*
X04365*
Y04622*
G37*
G36*
X0304Y04675D02*
X03D01*
Y04584*
X0304*
Y04675*
G37*
G36*
X0299D02*
X02949D01*
Y04584*
X0299*
Y04675*
G37*
G36*
X04141Y04592D02*
X0412D01*
Y04572*
X04141*
Y04592*
G37*
G36*
X04921Y04582D02*
X04872D01*
Y04571*
X04855*
Y04577*
X04804*
Y04542*
X04855*
Y04548*
X04872*
Y04538*
X04921*
Y04582*
G37*
G36*
X01121Y046D02*
X01085D01*
Y04563*
X0109Y04564*
X011Y04568*
X01109Y04575*
X01116Y04584*
X0112Y04594*
X01121Y046*
G37*
G36*
X01075D02*
X01038D01*
X01039Y04594*
X01043Y04584*
X0105Y04575*
X01059Y04568*
X01069Y04564*
X01075Y04563*
Y046*
G37*
G36*
X01864Y04606D02*
X01835D01*
Y04563*
X01864*
Y04606*
G37*
G36*
X01825D02*
X01795D01*
Y04563*
X01825*
Y04606*
G37*
G36*
X04671Y04557D02*
X04622D01*
Y04543*
X04607*
X04604Y04545*
X04599Y04546*
X04593Y04545*
X04589Y04542*
X04586Y04538*
X04585Y04532*
X04586Y04527*
X04589Y04522*
X04593Y04519*
X04599Y04518*
X04604Y04519*
X04607Y04521*
X04622*
Y04513*
X04635*
Y04496*
X04633Y04493*
X04632Y04487*
X04633Y04482*
X04636Y04477*
X04641Y04474*
X04646Y04473*
X04652Y04474*
X04656Y04477*
X04659Y04482*
X0466Y04487*
X04659Y04493*
X04657Y04496*
Y04513*
X04671*
Y04557*
G37*
G36*
X04227Y04562D02*
X04206D01*
Y04541*
X04227*
Y04562*
G37*
G36*
X04141D02*
X0412D01*
Y04541*
X04141*
Y04562*
G37*
G36*
X04172Y04592D02*
X0417D01*
X04151*
Y04567*
X04146*
X04151*
Y04541*
X0417*
X04175*
X04177*
X04196*
Y04567*
X04201*
X04196*
Y04592*
X04177*
X04172*
G37*
G36*
X04761Y0454D02*
X04709D01*
Y04533*
X047*
X04697Y04536*
X04691Y04537*
X04686Y04536*
X04681Y04532*
X04678Y04528*
X04677Y04522*
X04678Y04517*
X04681Y04512*
X04686Y04509*
X04691Y04508*
X04697Y04509*
X04699Y04511*
X04709*
Y04504*
X04761*
Y0454*
G37*
G36*
X01295Y046D02*
X0124D01*
Y04515*
X01295*
Y046*
G37*
G36*
X0123D02*
X01175D01*
Y04515*
X0123*
Y046*
G37*
G36*
X0387Y04598D02*
X03858Y04597D01*
X03848Y04593*
X03839Y04586*
X03832Y04576*
X03827Y04566*
X03826Y04555*
X03827Y04543*
X03832Y04533*
X03839Y04524*
X03848Y04517*
X03858Y04512*
X0387Y04511*
X03881Y04512*
X03891Y04517*
X03901Y04524*
X03908Y04533*
X03912Y04543*
X03913Y04555*
X03912Y04566*
X03908Y04576*
X03901Y04586*
X03891Y04593*
X03881Y04597*
X0387Y04598*
G37*
G36*
X0362D02*
X03608Y04597D01*
X03598Y04593*
X03589Y04586*
X03582Y04576*
X03577Y04566*
X03576Y04555*
X03577Y04543*
X03582Y04533*
X03589Y04524*
X03598Y04517*
X03608Y04512*
X0362Y04511*
X03631Y04512*
X03641Y04517*
X03651Y04524*
X03658Y04533*
X03662Y04543*
X03663Y04555*
X03662Y04566*
X03658Y04576*
X03651Y04586*
X03641Y04593*
X03631Y04597*
X0362Y04598*
G37*
G36*
X0304Y04574D02*
X03D01*
Y04482*
X0304*
Y04574*
G37*
G36*
X0299D02*
X02949D01*
Y04482*
X0299*
Y04574*
G37*
G36*
X0476Y04463D02*
X04708D01*
Y04456*
X04671*
Y04459*
X04622*
Y04416*
X04671*
Y04434*
X04708*
Y04427*
X0476*
Y04463*
G37*
G36*
X04895Y04529D02*
X04889Y04528D01*
X04885Y04525*
X04881Y0452*
X0488Y04515*
X04881Y04509*
X04883Y04506*
Y04487*
X04872*
Y04443*
X04921*
Y04487*
X04906*
Y04506*
X04908Y04509*
X04909Y04515*
X04908Y0452*
X04905Y04525*
X049Y04528*
X04895Y04529*
G37*
G36*
X0409Y04524D02*
X04062D01*
Y0448*
X04065*
Y04461*
X04063Y04458*
X04062Y04452*
X04063Y04447*
X04066Y04442*
X04071Y04439*
X04076Y04438*
X04082Y04439*
X04086Y04442*
X04089Y04447*
X0409Y04452*
X04089Y04458*
X04087Y04461*
Y0448*
X0409*
Y04524*
G37*
G36*
X04921Y04432D02*
X04872D01*
Y04419*
X04854*
Y04425*
X04803*
Y0439*
X04854*
Y04396*
X04872*
Y04388*
X04921*
Y04432*
G37*
G36*
X03625Y04402D02*
Y0436D01*
X03667*
X03666Y04367*
X03661Y04379*
X03653Y04388*
X03644Y04396*
X03632Y04401*
X03625Y04402*
G37*
G36*
X03615D02*
X03607Y04401D01*
X03596Y04396*
X03586Y04388*
X03578Y04379*
X03573Y04367*
X03572Y0436*
X03615*
Y04402*
G37*
G36*
X01515Y04581D02*
X01355D01*
X0135Y04579*
X0133Y04559*
X01328Y04555*
Y04405*
X0133Y044*
X01376Y04354*
X01373Y04349*
X01369Y04351*
X0136Y04352*
X0135Y04351*
X01346Y0435*
X01336Y0436*
X01329Y04364*
X01321Y04366*
X01218*
Y04383*
X01141*
Y04366*
X01112*
X01107Y04372*
X01099Y04378*
X0109Y04382*
X0108Y04383*
X0107Y04382*
X0106Y04378*
X01052Y04372*
X01046Y04364*
X01042Y04355*
X01041Y04345*
X01042Y04335*
X01046Y04325*
X01052Y04317*
X0106Y04311*
X0107Y04307*
X0108Y04306*
X0109Y04307*
X01099Y04311*
X01107Y04317*
X01112Y04323*
X01141*
Y04306*
X01218*
Y04323*
X01312*
X01322Y04313*
X01323Y04305*
X01327Y04296*
X01333Y04288*
X01341Y04282*
X0135Y04278*
X0136Y04277*
X01369Y04278*
X01378Y04282*
X01386Y04288*
X01392Y04296*
X01396Y04305*
X01397Y04315*
X01396Y04324*
X01394Y04328*
X01399Y04331*
X01445Y04285*
X0145Y04283*
X01535*
X01539Y04285*
X01541Y0429*
Y04555*
X01539Y04559*
X01519Y04579*
X01515Y04581*
G37*
G36*
X03667Y0435D02*
X03625D01*
Y04307*
X03632Y04308*
X03644Y04313*
X03653Y04321*
X03661Y04331*
X03666Y04342*
X03667Y0435*
G37*
G36*
X03615D02*
X03572D01*
X03573Y04342*
X03578Y04331*
X03586Y04321*
X03596Y04313*
X03607Y04308*
X03615Y04307*
Y0435*
G37*
G36*
X03917D02*
X03875D01*
Y04307*
X03917*
Y0435*
G37*
G36*
X03865D02*
X03822D01*
Y04307*
X03865*
Y0435*
G37*
G36*
X02975Y04341D02*
X02908D01*
Y04305*
X02975*
Y04341*
G37*
G36*
X02898D02*
X02831D01*
Y04305*
X02898*
Y04341*
G37*
G36*
X04157Y04409D02*
X04114D01*
Y04366*
X04132*
Y04352*
X04122*
Y04303*
X04165*
Y04352*
X04155*
Y04366*
X04157*
Y04409*
G37*
G36*
X0118Y04283D02*
X0117Y04282D01*
X0116Y04278*
X01152Y04272*
X01147Y04266*
X01112*
X01107Y04272*
X01099Y04278*
X0109Y04282*
X0108Y04283*
X0107Y04282*
X0106Y04278*
X01052Y04272*
X01046Y04264*
X01042Y04255*
X01041Y04245*
X01042Y04235*
X01046Y04225*
X01052Y04217*
X0106Y04211*
X0107Y04207*
X0108Y04206*
X0109Y04207*
X01099Y04211*
X01107Y04217*
X01112Y04223*
X01147*
X01152Y04217*
X0116Y04211*
X0117Y04207*
X0118Y04206*
X01187Y04207*
X01298Y04096*
X01305Y04091*
X01313Y04089*
X01325*
X01327Y04086*
X01333Y04078*
X01341Y04072*
X0135Y04068*
X0136Y04067*
X01369Y04068*
X01378Y04072*
X01386Y04078*
X01392Y04086*
X01396Y04095*
X01397Y04105*
X01396Y04114*
X01392Y04123*
X01386Y04131*
X01378Y04137*
X01369Y04141*
X0136Y04142*
X0135Y04141*
X01341Y04137*
X01334Y04132*
X01322*
X01217Y04237*
X01218Y04245*
X01217Y04255*
X01213Y04264*
X01207Y04272*
X01199Y04278*
X0119Y04282*
X0118Y04283*
G37*
G36*
X02975Y04295D02*
X02908D01*
Y04258*
X02975*
Y04295*
G37*
G36*
X02898D02*
X02831D01*
Y04258*
X02898*
Y04295*
G37*
G36*
X01745Y04591D02*
X01655D01*
X0165Y04589*
X0161Y04549*
X01608Y04545*
Y0427*
X0161Y04265*
X0162Y04255*
X01625Y04253*
X01775*
X01779Y04255*
X01789Y04265*
X01791Y0427*
Y04545*
X01789Y04549*
X01749Y04589*
X01745Y04591*
G37*
G36*
X04175Y0427D02*
X04155D01*
Y04249*
X04175*
Y0427*
G37*
G36*
X04145D02*
X04124D01*
Y04249*
X04145*
Y0427*
G37*
G36*
X04175Y04239D02*
X04155D01*
Y04218*
X04175*
Y04239*
G37*
G36*
X04145D02*
X04124D01*
Y04218*
X04145*
Y04239*
G37*
G36*
X04535Y04344D02*
X04529Y04343D01*
X04525Y0434*
X04521Y04335*
X0452Y0433*
X04521Y04324*
X04523Y04321*
Y04228*
X04521Y04225*
X0452Y0422*
X04521Y04214*
X04525Y0421*
X04529Y04206*
X04535Y04205*
X0454Y04206*
X04545Y0421*
X04548Y04214*
X04548Y04217*
X04548Y04218*
X04553Y04217*
X04553Y04217*
Y04208*
X04551Y04205*
X0455Y042*
X04551Y04194*
X04555Y0419*
X04559Y04186*
X04565Y04185*
X0457Y04186*
X04575Y0419*
X04578Y04194*
X04579Y042*
X04578Y04205*
X04576Y04208*
Y04281*
X04578Y04284*
X04579Y0429*
X04578Y04295*
X04575Y043*
X0457Y04303*
X04565Y04304*
X04559Y04303*
X04555Y043*
X04551Y04295*
X04551Y04292*
X04551Y04291*
X04546Y04292*
X04546Y04292*
Y04321*
X04548Y04324*
X04549Y0433*
X04548Y04335*
X04545Y0434*
X0454Y04343*
X04535Y04344*
G37*
G36*
X0343Y04971D02*
X0262D01*
X02615Y04969*
X02557Y04911*
X02355*
X02348Y0491*
X02343Y04906*
X02265Y04828*
X02234*
Y04834*
X02185*
Y0479*
X02234*
Y04796*
X02272*
X02278Y04797*
X02284Y048*
X02361Y04878*
X02553*
Y0475*
X02555Y04745*
X0256Y04743*
Y04701*
X02445*
X0244Y04699*
X02407Y04666*
X02391*
X02386Y04668*
Y04671*
Y04711*
X02343*
Y0471*
X02307*
X02306Y04711*
X02299Y04713*
X02265*
X02258Y04711*
X02252Y04707*
X02248Y04701*
X02247Y04695*
X02248Y04688*
X02252Y04682*
X02258Y04678*
X02265Y04676*
X02299*
X02304Y04678*
X02339*
X02343Y04674*
Y04668*
X02339Y04666*
X02255*
X0225Y04664*
X0224Y04654*
X02238Y0465*
Y0464*
X0224Y04635*
X0225Y04625*
X02255Y04623*
X02307*
X0234Y0459*
X02345Y04588*
X0279*
X02794Y0459*
X02796Y04595*
Y04695*
X02794Y04699*
X0279Y04701*
Y04743*
X02794Y04745*
X02822Y04773*
X03155*
X03159Y04775*
X03207Y04823*
X03255*
Y04786*
X03225*
X0322Y04784*
X0318Y04744*
X03178Y0474*
Y04562*
X03025Y04409*
X03023Y04405*
Y04265*
X03025Y0426*
X03125Y0416*
X0313Y04158*
X0341*
X03414Y0416*
X03449Y04195*
X03451Y042*
Y0478*
X03449Y04784*
X03445Y04786*
Y04823*
X03449Y04825*
X03451Y0483*
Y0495*
X03449Y04954*
X03434Y04969*
X0343Y04971*
G37*
G36*
X01185Y04187D02*
Y0415D01*
X01222*
X01221Y04156*
X01217Y04166*
X0121Y04175*
X01201Y04182*
X01191Y04186*
X01185Y04187*
G37*
G36*
X01085D02*
Y0415D01*
X01122*
X01121Y04156*
X01117Y04166*
X0111Y04175*
X01101Y04182*
X01091Y04186*
X01085Y04187*
G37*
G36*
X01175D02*
X01168Y04186D01*
X01158Y04182*
X01149Y04175*
X01142Y04166*
X01138Y04156*
X01137Y0415*
X01175*
Y04187*
G37*
G36*
X01075D02*
X01068Y04186D01*
X01058Y04182*
X01049Y04175*
X01042Y04166*
X01038Y04156*
X01037Y0415*
X01075*
Y04187*
G37*
G36*
X03796Y04168D02*
X03775D01*
Y04147*
X03796*
Y04168*
G37*
G36*
X03765D02*
X03744D01*
Y04147*
X03765*
Y04168*
G37*
G36*
X03669Y04162D02*
X0362D01*
Y04146*
X0362Y04141*
X03616Y0414*
X03612Y04138*
X03599Y04125*
X03596Y04121*
X03595Y04117*
Y03856*
X0357Y03831*
X03443*
X03442Y03832*
X0344Y03836*
X03443Y03839*
X03444Y03845*
X03443Y0385*
X0344Y03855*
X03435Y03858*
X0343Y03859*
X03428Y03858*
X03423Y03863*
X03424Y03865*
X03423Y0387*
X03421Y03873*
X03423Y03878*
X03423Y03878*
X03565*
X03569Y0388*
X03584Y03895*
X03586Y039*
Y0407*
X03584Y04074*
X03569Y04089*
X03565Y04091*
X032*
X03195Y04089*
X03185Y04079*
X03183Y04075*
Y03895*
X03185Y0389*
X03194Y03881*
X03193Y03877*
X03193Y03876*
X0278*
X02775Y03875*
X02772Y03872*
X02627Y03728*
X02604*
Y03739*
X02555*
Y03728*
X02539*
Y03739*
X0249*
Y03695*
X02503*
Y03681*
X02488*
Y03667*
X02429*
Y03682*
X02358*
Y0363*
X02429*
Y03645*
X02488*
Y03638*
X02532*
Y03681*
X02526*
Y03695*
X02539*
Y03706*
X02555*
Y03695*
X02604*
Y03706*
X02632*
X02636Y03707*
X0264Y03709*
X02654Y03723*
X02658Y03721*
Y03664*
X02622Y03628*
X02619Y03628*
X02615Y03625*
X02611Y0362*
X0261Y03615*
X02611Y03609*
X02615Y03605*
X02619Y03601*
X02625Y036*
X0263Y03601*
X02635Y03605*
X02638Y03609*
X02638Y03612*
X02673Y03647*
X02678Y03645*
Y03444*
X02606Y03372*
X02429*
Y03386*
X02358*
Y03335*
X02429*
Y0335*
X02607*
X02609Y03345*
X02577Y03313*
X02429*
Y03327*
X02358*
Y03276*
X02429*
Y03291*
X02578*
X0258Y03285*
X02548Y03254*
X02429*
Y03268*
X02358*
Y03217*
X02429*
Y03231*
X02553*
X02557Y03232*
X02561Y03235*
X02737Y03412*
X0274Y03415*
X02741Y0342*
Y0357*
X02869Y03698*
X04508*
X04513Y03698*
Y03654*
X04556*
Y03656*
X04556*
X04561Y03658*
X04564Y03656*
X0457Y03655*
X04575Y03656*
X04578Y03658*
X04594*
Y03646*
X04643*
Y0369*
X04594*
Y03681*
X04578*
X04575Y03683*
X0457Y03684*
X04564Y03683*
X04561Y03681*
X04556Y03683*
X04556*
Y03698*
X04546*
Y03704*
X04545Y03708*
X04542Y03712*
X0454Y03714*
X04542Y03719*
X04688*
X04697Y0371*
Y03698*
X04686*
Y03654*
X0473*
Y03659*
X04735Y0366*
X04736Y03659*
X0474Y03656*
X04746Y03655*
X04751Y03656*
X04754Y03658*
X04767*
Y03646*
X04817*
Y0369*
X04767*
Y0368*
X04754*
X04751Y03682*
X04746Y03683*
X0474Y03682*
X04736Y03679*
X04735Y03678*
X0473Y0368*
Y03698*
X04719*
Y03715*
X04719Y03719*
X04716Y03723*
X04705Y03734*
X04707Y03738*
X0484*
X04871Y03707*
Y03698*
X0486*
Y03654*
X04904*
Y03698*
X04893*
Y03712*
X04892Y03716*
X0489Y0372*
X04852Y03757*
X04849Y0376*
X04845Y03761*
X03485*
X03484Y03762*
X03482Y03766*
X03483Y0377*
X03483Y03773*
X03486Y03778*
X0365*
X03654Y03779*
X03657Y03782*
X0372Y03844*
X03745*
Y03834*
X03794*
Y03877*
X03745*
Y03867*
X03715*
X03711Y03866*
X03707Y03863*
X03645Y03801*
X028*
X02798Y03806*
X028Y03808*
X03575*
X03579Y03809*
X03582Y03812*
X03615Y03844*
X03617Y03847*
X03618Y03852*
Y0406*
X0362Y04064*
X03623*
X03669*
Y04074*
X03685*
Y04064*
X03734*
Y04074*
X03748*
Y04062*
X03792*
Y04062*
X03822*
X03823Y0406*
X03829Y04056*
X03836Y04055*
X03871*
X03878Y04056*
X03884Y0406*
X03888Y04066*
X03889Y04073*
X03888Y0408*
X03884Y04086*
X03878Y0409*
X03871Y04091*
X03836*
X03829Y0409*
X03823Y04086*
X03822Y04084*
X03792*
Y04105*
X03748*
Y04097*
X03734*
Y04107*
X03685*
Y04097*
X03669*
Y04107*
X03623*
X0362*
X03618Y04111*
Y04112*
X03624Y04119*
X03634*
X03635Y04119*
X03669*
Y04162*
G37*
G36*
X03796Y04137D02*
X03775D01*
Y04117*
X03796*
Y04137*
G37*
G36*
X03765D02*
X03744D01*
Y04117*
X03765*
Y04137*
G37*
G36*
X04215Y04184D02*
X04209Y04183D01*
X04205Y0418*
X04201Y04175*
X042Y0417*
X04201Y04164*
X04203Y04161*
Y04152*
X0419*
Y04109*
X04239*
Y04152*
X04226*
Y04161*
X04228Y04164*
X04229Y0417*
X04228Y04175*
X04225Y0418*
X0422Y04183*
X04215Y04184*
G37*
G36*
X04171Y04207D02*
X04128D01*
Y04163*
X04138*
Y04152*
X04125*
Y04109*
X04174*
Y04152*
X0416*
Y04163*
X04171*
Y04207*
G37*
G36*
X01222Y0414D02*
X01185D01*
Y04102*
X01191Y04103*
X01201Y04107*
X0121Y04114*
X01217Y04123*
X01221Y04133*
X01222Y0414*
G37*
G36*
X01122D02*
X01085D01*
Y04102*
X01091Y04103*
X01101Y04107*
X0111Y04114*
X01117Y04123*
X01121Y04133*
X01122Y0414*
G37*
G36*
X01175D02*
X01137D01*
X01138Y04133*
X01142Y04123*
X01149Y04114*
X01158Y04107*
X01168Y04103*
X01175Y04102*
Y0414*
G37*
G36*
X01075D02*
X01037D01*
X01038Y04133*
X01042Y04123*
X01049Y04114*
X01058Y04107*
X01068Y04103*
X01075Y04102*
Y0414*
G37*
G36*
X04239Y04097D02*
X0419D01*
Y04084*
X04174*
Y04097*
X04125*
Y04084*
X04098*
X04097Y04086*
X04091Y0409*
X04084Y04091*
X04048*
X04041Y0409*
X04036Y04086*
X04032Y0408*
X0403Y04073*
X04032Y04066*
X04036Y0406*
X04041Y04056*
X04048Y04055*
X04084*
X04091Y04056*
X04097Y0406*
X04098Y04062*
X04125*
Y04054*
X04174*
Y04062*
X0419*
Y04054*
X04239*
Y04097*
G37*
G36*
X04491Y04103D02*
X0447D01*
Y04082*
X04491*
Y04103*
G37*
G36*
X0446D02*
X04439D01*
Y04082*
X0446*
Y04103*
G37*
G36*
X04314Y04097D02*
X04265D01*
Y04054*
X04314*
Y04066*
X04336*
X04339Y04064*
X04344Y04063*
X0435Y04064*
X04354Y04067*
X04357Y04072*
X04359Y04077*
X04357Y04083*
X04354Y04087*
X0435Y0409*
X04344Y04092*
X04339Y0409*
X04336Y04089*
X04314*
Y04097*
G37*
G36*
X04491Y04072D02*
X0447D01*
Y04052*
X04491*
Y04072*
G37*
G36*
X0446D02*
X04439D01*
Y04052*
X0446*
Y04072*
G37*
G36*
X01185Y04087D02*
Y0405D01*
X01222*
X01221Y04056*
X01217Y04066*
X0121Y04075*
X01201Y04082*
X01191Y04086*
X01185Y04087*
G37*
G36*
X01085D02*
Y0405D01*
X01122*
X01121Y04056*
X01117Y04066*
X0111Y04075*
X01101Y04082*
X01091Y04086*
X01085Y04087*
G37*
G36*
X01175D02*
X01168Y04086D01*
X01158Y04082*
X01149Y04075*
X01142Y04066*
X01138Y04056*
X01137Y0405*
X01175*
Y04087*
G37*
G36*
X01075D02*
X01068Y04086D01*
X01058Y04082*
X01049Y04075*
X01042Y04066*
X01038Y04056*
X01037Y0405*
X01075*
Y04087*
G37*
G36*
X04374Y04048D02*
X0433D01*
Y04034*
X04314*
Y04042*
X04265*
Y04034*
X04239*
Y04042*
X0419*
Y04034*
X04098*
X04097Y04036*
X04091Y0404*
X04084Y04041*
X04048*
X04041Y0404*
X04036Y04036*
X04032Y0403*
X0403Y04023*
X04032Y04016*
X04036Y0401*
X04041Y04006*
X04048Y04005*
X04084*
X04091Y04006*
X04097Y0401*
X04098Y04012*
X0419*
Y03999*
X04239*
Y04012*
X04265*
Y03999*
X04314*
Y04012*
X0433*
Y03998*
X04374*
Y04048*
G37*
G36*
X03796Y04053D02*
X03775D01*
Y04032*
X03796*
Y04053*
G37*
G36*
X03736D02*
X03715D01*
Y04032*
X03736*
Y04053*
G37*
G36*
X03705D02*
X03684D01*
Y04032*
X03705*
Y04053*
G37*
G36*
X03765D02*
X03744D01*
Y04032*
X03765*
Y04053*
G37*
G36*
X03871Y04045D02*
X03858D01*
Y04028*
X03892*
X03892Y04031*
X03887Y04039*
X0388Y04044*
X03871Y04045*
G37*
G36*
X03848D02*
X03836D01*
X03827Y04044*
X0382Y04039*
X03815Y04031*
X03815Y04028*
X03848*
Y04045*
G37*
G36*
X01222Y0404D02*
X01185D01*
Y04002*
X01191Y04003*
X01201Y04007*
X0121Y04014*
X01217Y04023*
X01221Y04033*
X01222Y0404*
G37*
G36*
X01122D02*
X01085D01*
Y04002*
X01091Y04003*
X01101Y04007*
X0111Y04014*
X01117Y04023*
X01121Y04033*
X01122Y0404*
G37*
G36*
X01175D02*
X01137D01*
X01138Y04033*
X01142Y04023*
X01149Y04014*
X01158Y04007*
X01168Y04003*
X01175Y04002*
Y0404*
G37*
G36*
X01075D02*
X01037D01*
X01038Y04033*
X01042Y04023*
X01049Y04014*
X01058Y04007*
X01068Y04003*
X01075Y04002*
Y0404*
G37*
G36*
X03796Y04022D02*
X03775D01*
Y04002*
X03796*
Y04022*
G37*
G36*
X03765D02*
X03744D01*
Y04002*
X03765*
Y04022*
G37*
G36*
X03736D02*
X03715D01*
Y04002*
X03736*
Y04022*
G37*
G36*
X03705D02*
X03684D01*
Y04002*
X03705*
Y04022*
G37*
G36*
X03892Y04018D02*
X03858D01*
Y04001*
X03871*
X0388Y04002*
X03887Y04007*
X03892Y04014*
X03892Y04018*
G37*
G36*
X03848D02*
X03815D01*
X03815Y04014*
X0382Y04007*
X03827Y04002*
X03836Y04001*
X03848*
Y04018*
G37*
G36*
X03871Y03991D02*
X03836D01*
X03829Y0399*
X03823Y03986*
X03822Y03984*
X03792*
Y0399*
X03748*
Y03984*
X03732*
Y0399*
X03688*
Y03974*
X0367*
X0367Y03975*
X03665Y03978*
X0366Y03979*
X03654Y03978*
X0365Y03975*
X03646Y0397*
X03645Y03965*
X03646Y03959*
X0365Y03955*
X03654Y03951*
X0366Y0395*
X03665Y03951*
X0367Y03955*
X0367Y03955*
X03688*
Y03947*
X03732*
Y03962*
X03748*
Y03947*
X03792*
Y03962*
X03822*
X03823Y0396*
X03829Y03956*
X03836Y03955*
X03871*
X03878Y03956*
X03884Y0396*
X03888Y03966*
X03889Y03973*
X03888Y0398*
X03884Y03986*
X03878Y0399*
X03871Y03991*
G37*
G36*
X04084D02*
X04048D01*
X04041Y0399*
X04036Y03986*
X04032Y0398*
X0403Y03973*
X04032Y03966*
X04036Y0396*
X04041Y03956*
X04048Y03955*
X04084*
X04091Y03956*
X04097Y0396*
X04098Y03962*
X04136*
X0414Y03957*
X04144Y03955*
X04148Y03954*
X0419*
Y03944*
X04239*
Y03954*
X04265*
Y03941*
X04314*
Y03952*
X0433*
Y03938*
X04374*
Y03988*
X0433*
Y03974*
X04314*
Y03985*
X04265*
Y03977*
X04239*
Y03987*
X0419*
Y03977*
X04153*
X04148Y03981*
X04145Y03983*
X0414Y03984*
X04098*
X04097Y03986*
X04091Y0399*
X04084Y03991*
G37*
G36*
X03871Y03941D02*
X03836D01*
X03829Y0394*
X03823Y03936*
X03822Y03934*
X03807*
X03803Y03933*
X03799Y03931*
X03799Y0393*
X03794Y03932*
X03745*
Y03889*
X03794*
Y03899*
X03798Y03902*
X03802Y03903*
X03806Y03905*
X03812Y03912*
X03822*
X03823Y0391*
X03829Y03906*
X03836Y03905*
X03871*
X03878Y03906*
X03884Y0391*
X03888Y03916*
X03889Y03923*
X03888Y0393*
X03884Y03936*
X03878Y0394*
X03871Y03941*
G37*
G36*
X0458Y03976D02*
X04567D01*
Y03972*
X04545*
Y03929*
X04567*
Y03925*
X0458*
Y03951*
Y03976*
G37*
G36*
X04808Y04188D02*
X04737D01*
Y04145*
X04734Y04145*
X04731Y04143*
X04633Y04044*
X04624*
Y04057*
X0462*
Y04067*
X04619Y04071*
X04617Y04074*
X04611Y04079*
X04608Y04081*
X04605Y04082*
X0455*
X04546Y04081*
X04543Y04079*
X04492Y04028*
X04487Y04028*
Y0404*
X04443*
Y0403*
X04429*
Y04048*
X04386*
Y03998*
X04429*
Y04007*
X04443*
Y03997*
X04487*
Y04009*
X04495*
X04499Y0401*
X04502Y04012*
X04541Y04051*
X04545Y04049*
Y04014*
X04624*
Y04026*
X04637*
X04641Y04027*
X04644Y04029*
X04734Y04119*
X04737Y04117*
X04808*
Y04144*
X04816*
X04846Y04114*
Y03957*
X04813Y03925*
X04808Y03927*
Y03948*
X04737*
Y03877*
X04808*
Y03904*
X04815*
X04818Y03904*
X04821Y03906*
X04861Y03946*
X04863Y03949*
X04864Y03953*
Y04118*
X04863Y04121*
X04861Y04124*
X04826Y04159*
X04823Y04161*
X0482Y04162*
X04808*
Y04188*
G37*
G36*
X0446Y03935D02*
X04439D01*
Y03914*
X0446*
Y03935*
G37*
G36*
X04084Y03941D02*
X04048D01*
X04041Y0394*
X04036Y03936*
X04032Y0393*
X0403Y03923*
X04032Y03916*
X04036Y0391*
X04041Y03906*
X04048Y03905*
X04084*
X04091Y03906*
X04097Y0391*
X04098Y03912*
X0417*
X04181Y039*
X04185Y03897*
X04189Y03897*
X04193*
Y03886*
X04237*
Y03897*
X04265*
Y03886*
X04314*
Y03892*
X04337*
X04339Y0389*
X04345Y03889*
X0435Y0389*
X04355Y03893*
X04358Y03898*
X04359Y03903*
X04358Y03908*
X04355Y03913*
X0435Y03916*
X04345Y03917*
X04339Y03916*
X04337Y03914*
X04314*
Y0393*
X04265*
Y03919*
X04237*
Y03929*
X04193*
Y03927*
X04188Y03925*
X04182Y03931*
X04179Y03933*
X04174Y03934*
X04098*
X04097Y03936*
X04091Y0394*
X04084Y03941*
G37*
G36*
X04491Y03904D02*
X0447D01*
Y03883*
X04491*
Y03904*
G37*
G36*
X0446D02*
X04439D01*
Y03883*
X0446*
Y03904*
G37*
G36*
X04241Y03874D02*
X0422D01*
Y03853*
X04241*
Y03874*
G37*
G36*
X0421D02*
X04189D01*
Y03853*
X0421*
Y03874*
G37*
G36*
X04241Y03843D02*
X0422D01*
Y03823*
X04241*
Y03843*
G37*
G36*
X0421D02*
X04189D01*
Y03823*
X0421*
Y03843*
G37*
G36*
X01426Y03867D02*
X01382D01*
Y03823*
X01426*
Y03827*
X01451*
Y03815*
X015*
Y03859*
X01451*
Y03855*
X01426*
Y03867*
G37*
G36*
X0143Y03808D02*
X01409D01*
Y03787*
X0143*
Y03808*
G37*
G36*
X01399D02*
X01378D01*
Y03787*
X01399*
Y03808*
G37*
G36*
X04773Y04089D02*
X04764Y04088D01*
X04755Y04084*
X04748Y04078*
X04742Y04071*
X04738Y04062*
X04737Y04053*
X04738Y04044*
X04742Y04035*
Y04035*
X04667Y0396*
X04624*
Y03972*
X04603*
Y03976*
X0459*
Y03951*
Y03925*
X04592*
X04594Y0392*
X04586Y03912*
X04534*
X04487Y03959*
Y0399*
X04443*
Y03974*
X04429*
Y03988*
X04386*
Y03938*
X04429*
Y03952*
X04443*
Y03946*
X04474*
X0448Y03939*
X04479Y03935*
X0447*
Y03914*
X04491*
Y03923*
X04495Y03925*
X04523Y03896*
X04526Y03894*
X0453Y03894*
X0459*
X04593Y03894*
X04596Y03896*
X04617Y03917*
X04619Y0392*
X0462Y03924*
Y03929*
X04624*
Y03941*
X04671*
X04674Y03942*
X04677Y03944*
X04755Y04022*
X04755*
X04762Y04019*
X04763Y04014*
Y04014*
X04698Y03949*
X04696Y03946*
X04696Y03943*
Y03881*
X04696Y03878*
X04698Y03875*
X04742Y03831*
Y03831*
X04738Y03822*
X04737Y03813*
X04738Y03804*
X04742Y03795*
X04748Y03788*
X04755Y03782*
X04764Y03778*
X04773Y03777*
X04782Y03778*
X04791Y03782*
X04798Y03788*
X04804Y03795*
X04808Y03804*
X04809Y03813*
X04808Y03822*
X04804Y03831*
X04798Y03838*
X04791Y03844*
X04782Y03848*
X04773Y03849*
X04764Y03848*
X04755Y03844*
X04755*
X04714Y03885*
Y03939*
X04779Y04005*
X04781Y04008*
X04782Y04011*
Y04018*
X04782*
X04791Y04022*
X04798Y04028*
X04804Y04035*
X04808Y04044*
X04809Y04053*
X04808Y04062*
X04804Y04071*
X04798Y04078*
X04791Y04084*
X04782Y04088*
X04773Y04089*
G37*
G36*
X015Y03804D02*
X01451D01*
Y0376*
X015*
Y03766*
X01522*
X01528Y03767*
X01534Y03771*
X01537Y03776*
X01538Y03782*
X01537Y03788*
X01534Y03794*
X01528Y03797*
X01522Y03798*
X015*
Y03804*
G37*
G36*
X02425Y04026D02*
X01655D01*
X0165Y04025*
X01647Y04022*
X01644Y04019*
X01643Y04015*
Y0377*
X01644Y03765*
X01647Y03762*
X0165Y03759*
X01655Y03758*
X02425*
X02429Y03759*
X02432Y03762*
X02435Y03765*
X02436Y0377*
Y04015*
X02435Y04019*
X02432Y04022*
X02429Y04025*
X02425Y04026*
G37*
G36*
X0143Y03777D02*
X01409D01*
Y03756*
X0143*
Y03777*
G37*
G36*
X01399D02*
X01378D01*
Y03756*
X01399*
Y03777*
G37*
G36*
X02604Y03794D02*
X02555D01*
Y0375*
X02604*
Y03758*
X02621*
X02624Y03756*
X0263Y03755*
X02635Y03756*
X0264Y0376*
X02643Y03764*
X02644Y0377*
X02643Y03775*
X0264Y0378*
X02635Y03783*
X0263Y03784*
X02624Y03783*
X02621Y03781*
X02604*
Y03794*
G37*
G36*
X02515Y04126D02*
X02506Y04124D01*
X02499Y0412*
X02495Y04113*
X02493Y04105*
Y03794*
X0249*
Y0375*
X02539*
Y03794*
X02536*
Y04105*
X02534Y04113*
X0253Y0412*
X02523Y04124*
X02515Y04126*
G37*
G36*
X0161Y0374D02*
X0159D01*
Y03719*
X0161*
Y0374*
G37*
G36*
X0155D02*
X0153D01*
Y03719*
X0155*
Y0374*
G37*
G36*
X0149D02*
X0147D01*
Y03719*
X0149*
Y0374*
G37*
G36*
X0143D02*
X0141D01*
Y03719*
X0143*
Y0374*
G37*
G36*
X0158D02*
X01559D01*
Y03719*
X0158*
Y0374*
G37*
G36*
X0152D02*
X01499D01*
Y03719*
X0152*
Y0374*
G37*
G36*
X0146D02*
X01439D01*
Y03719*
X0146*
Y0374*
G37*
G36*
X014D02*
X01379D01*
Y03719*
X014*
Y0374*
G37*
G36*
X01203Y03928D02*
X01126D01*
Y03851*
X01187*
X01248Y0379*
Y0369*
X01243Y03688*
X01242Y0369*
X01199Y03734*
X01202Y03742*
X01203Y03752*
X01202Y03762*
X01198Y03771*
X01192Y03779*
X01184Y03785*
X01175Y03789*
X01165Y03791*
X01155Y03789*
X01145Y03785*
X01137Y03779*
X01131Y03771*
X01127Y03762*
X01126Y03752*
X01127Y03742*
X01131Y03732*
X01137Y03724*
X01145Y03718*
X01155Y03714*
X01165Y03713*
X01175Y03714*
X01183Y03718*
X01223Y03677*
Y03585*
X01224Y0358*
X01227Y03577*
X01391Y03412*
X01395Y03409*
X01399Y03409*
X01649*
Y03394*
X0172*
Y03446*
X01649*
Y03431*
X01404*
X01372Y03463*
X01374Y03468*
X01375Y03468*
X01649*
Y03453*
X0172*
Y03505*
X01649*
Y0349*
X0138*
X0137Y035*
X01373Y03504*
X01377*
X01393*
Y03525*
X01372*
Y03509*
Y03505*
X01368Y03502*
X01271Y03599*
Y03795*
X0127Y03799*
X01267Y03802*
X01203Y03867*
Y03928*
G37*
G36*
X0161Y03709D02*
X0159D01*
Y03688*
X0161*
Y03709*
G37*
G36*
X0158D02*
X01559D01*
Y03688*
X0158*
Y03709*
G37*
G36*
X0155D02*
X0153D01*
Y03688*
X0155*
Y03709*
G37*
G36*
X0152D02*
X01499D01*
Y03688*
X0152*
Y03709*
G37*
G36*
X0149D02*
X0147D01*
Y03688*
X0149*
Y03709*
G37*
G36*
X0146D02*
X01439D01*
Y03688*
X0146*
Y03709*
G37*
G36*
X0143D02*
X0141D01*
Y03688*
X0143*
Y03709*
G37*
G36*
X014D02*
X01379D01*
Y03688*
X014*
Y03709*
G37*
G36*
X04469Y0369D02*
X0442D01*
Y03681*
X04398*
X04395Y03683*
X0439Y03684*
X04384Y03683*
X0438Y0368*
X04376Y03675*
X04375Y0367*
X04376Y03664*
X0438Y0366*
X04384Y03656*
X0439Y03655*
X04395Y03656*
X04398Y03658*
X0442*
Y03646*
X04469*
Y0369*
G37*
G36*
X0172Y03682D02*
X01649D01*
Y03672*
X01606*
Y03677*
X01563*
Y03672*
X01546*
Y03677*
X01503*
Y03672*
X01486*
Y03677*
X01443*
Y03672*
X01426*
Y03677*
X01383*
Y03671*
X0135*
X01344Y0367*
X01338Y03667*
X01338Y03666*
X01334Y03661*
X01333Y03655*
X01334Y03648*
X01338Y03643*
X01343Y03639*
X0135Y03638*
X01352Y03639*
X01383*
Y03633*
X01396*
Y03619*
X01385*
Y0357*
X01429*
Y03619*
X01418*
Y03633*
X01426*
Y03639*
X01443*
Y03633*
X01486*
Y03639*
X01503*
Y03633*
X01546*
Y03639*
X01563*
Y03633*
X01606*
Y03639*
X01649*
Y0363*
X0172*
Y03682*
G37*
G36*
X02595Y03685D02*
X02574D01*
Y03665*
X02595*
Y03685*
G37*
G36*
X02564D02*
X02543D01*
Y03665*
X02564*
Y03685*
G37*
G36*
X02595Y03655D02*
X02574D01*
Y03634*
X02595*
Y03655*
G37*
G36*
X02564D02*
X02543D01*
Y03634*
X02564*
Y03655*
G37*
G36*
X04904Y03635D02*
X0486D01*
Y03622*
X04817*
Y03635*
X04767*
Y03591*
X04817*
Y03604*
X0486*
Y03591*
X04904*
Y03635*
G37*
G36*
X0473D02*
X04686D01*
Y03622*
X04643*
Y03635*
X04594*
Y03591*
X04643*
Y03604*
X04686*
Y03591*
X0473*
Y03635*
G37*
G36*
X04556D02*
X04513D01*
Y03622*
X04469*
Y03635*
X0442*
Y03591*
X04469*
Y03604*
X04513*
Y03591*
X04556*
Y03635*
G37*
G36*
X0172Y03623D02*
X01649D01*
Y03612*
X01606*
Y03619*
X01563*
Y0357*
X01573*
Y03543*
X01571Y0354*
X0157Y03535*
X01571Y03529*
X01575Y03525*
X01579Y03521*
X01585Y0352*
X0159Y03521*
X01595Y03525*
X01598Y03529*
X01599Y03535*
X01598Y0354*
X01596Y03543*
Y0357*
X01606*
Y03579*
X01649*
Y03571*
X0172*
Y03623*
G37*
G36*
X02593Y03623D02*
X02572D01*
Y036*
X02593*
Y03623*
G37*
G36*
X02562D02*
X02541D01*
Y036*
X02562*
Y03623*
G37*
G36*
X02429Y03623D02*
X02358D01*
Y03571*
X02429*
Y03583*
X0249*
Y0357*
X02534*
Y03619*
X0249*
Y03606*
X02429*
Y03623*
G37*
G36*
X02593Y0359D02*
X02572D01*
Y03566*
X02593*
Y0359*
G37*
G36*
X02562D02*
X02541D01*
Y03566*
X02562*
Y0359*
G37*
G36*
X03015Y03565D02*
X02985D01*
Y03542*
X03015*
Y03565*
G37*
G36*
X02975D02*
X02944D01*
Y03542*
X02975*
Y03565*
G37*
G36*
X01424Y03555D02*
X01403D01*
Y03535*
X01424*
Y03555*
G37*
G36*
X01393D02*
X01372D01*
Y03535*
X01393*
Y03555*
G37*
G36*
X02429Y03564D02*
X02358D01*
Y03512*
X02429*
Y03528*
X02591*
X02594Y03526*
X026Y03525*
X02605Y03526*
X0261Y0353*
X02613Y03534*
X02614Y0354*
X02613Y03545*
X0261Y0355*
X02605Y03553*
X026Y03554*
X02594Y03553*
X02591Y03551*
X02429*
Y03564*
G37*
G36*
X0172D02*
X01649D01*
Y03512*
X0172*
Y03527*
X01734*
X01734Y03526*
X0174Y03525*
X01745Y03526*
X0175Y0353*
X01753Y03534*
X01754Y0354*
X01753Y03545*
X0175Y0355*
X01745Y03553*
X0174Y03554*
X01734Y03553*
X0173Y0355*
X01729Y03549*
X0172*
Y03564*
G37*
G36*
X02937Y03546D02*
X02917D01*
Y03525*
X02937*
Y03546*
G37*
G36*
X02907D02*
X02886D01*
Y03525*
X02907*
Y03546*
G37*
G36*
X03075Y03545D02*
X03055D01*
Y03524*
X03075*
Y03545*
G37*
G36*
X03045D02*
X03024D01*
Y03524*
X03045*
Y03545*
G37*
G36*
X0344Y03544D02*
X0342D01*
Y03524*
X0344*
Y03544*
G37*
G36*
X0341D02*
X03389D01*
Y03524*
X0341*
Y03544*
G37*
G36*
X01551Y03619D02*
X01508D01*
Y0357*
X01518*
Y03543*
X01516Y0354*
X01515Y03535*
X01516Y03529*
X0152Y03525*
X01524Y03521*
X0153Y0352*
X01535Y03521*
X0154Y03525*
X01543Y03529*
X01544Y03535*
X01543Y0354*
X01541Y03543*
Y0357*
X01551*
Y03619*
G37*
G36*
X03202Y03535D02*
X0318D01*
Y03519*
X03202*
Y03535*
G37*
G36*
X0317D02*
X03147D01*
Y03519*
X0317*
Y03535*
G37*
G36*
X03015Y03532D02*
X02985D01*
Y03509*
X03015*
Y03532*
G37*
G36*
X02975D02*
X02944D01*
Y03509*
X02975*
Y03532*
G37*
G36*
X01484Y03619D02*
X0144D01*
Y0357*
X01445*
Y03551*
X01439*
Y03508*
X01483*
Y03551*
X01478*
Y0357*
X01484*
Y03619*
G37*
G36*
X01424Y03525D02*
X01403D01*
Y03504*
X01424*
Y03525*
G37*
G36*
X0355Y03664D02*
X03544Y03663D01*
X0354Y0366*
X03536Y03655*
X03536Y03652*
X03472Y03587*
X03469Y03584*
X03468Y0358*
Y03536*
X03456*
Y03502*
X03503*
Y03536*
X03491*
Y03575*
X03552Y03636*
X03555Y03636*
X0356Y0364*
X03563Y03644*
X03564Y0365*
X03563Y03655*
X0356Y0366*
X03555Y03663*
X0355Y03664*
G37*
G36*
X03235Y03579D02*
X03229Y03578D01*
X03225Y03575*
X03221Y0357*
X0322Y03565*
X03221Y03559*
X03223Y03556*
Y03541*
X03213*
Y03497*
X03256*
Y03506*
X03273*
Y03497*
X03316*
Y03506*
X03329*
Y03498*
X0338*
Y03532*
X03329*
Y03524*
X03316*
Y03541*
X03273*
Y03524*
X03256*
Y03541*
X03246*
Y03556*
X03248Y03559*
X03249Y03565*
X03248Y0357*
X03245Y03575*
X0324Y03578*
X03235Y03579*
G37*
G36*
X0279Y03568D02*
X02784Y03566D01*
X0278Y03563*
X02776Y03559*
X02775Y03553*
X02776Y03548*
X02778Y03546*
X02775Y03541*
X02768*
Y03497*
X02811*
Y03506*
X02824*
Y03498*
X02875*
Y03532*
X02824*
Y03524*
X02811*
Y03541*
X02804*
X02801Y03546*
X02803Y03548*
X02804Y03553*
X02803Y03559*
X028Y03563*
X02795Y03566*
X0279Y03568*
G37*
G36*
X0311Y03574D02*
X03104Y03573D01*
X031Y0357*
X03096Y03565*
X03095Y0356*
X03096Y03554*
X03098Y03551*
Y03531*
X03086*
Y03497*
X03133*
Y03531*
X03121*
Y03551*
X03123Y03554*
X03124Y0356*
X03123Y03565*
X0312Y0357*
X03115Y03573*
X0311Y03574*
G37*
G36*
X02937Y03515D02*
X02917D01*
Y03494*
X02937*
Y03515*
G37*
G36*
X02907D02*
X02886D01*
Y03494*
X02907*
Y03515*
G37*
G36*
X03075Y03514D02*
X03055D01*
Y03493*
X03075*
Y03514*
G37*
G36*
X03045D02*
X03024D01*
Y03493*
X03045*
Y03514*
G37*
G36*
X03202Y03509D02*
X0318D01*
Y03493*
X03202*
Y03509*
G37*
G36*
X0317D02*
X03147D01*
Y03493*
X0317*
Y03509*
G37*
G36*
X0344Y03514D02*
X0342D01*
Y03493*
X0344*
Y03514*
G37*
G36*
X0341D02*
X03389D01*
Y03493*
X0341*
Y03514*
G37*
G36*
X03011Y03486D02*
X02948D01*
Y03469*
X02933*
Y03483*
X0289*
Y03469*
X02875*
Y03472*
X02824*
Y03437*
X02875*
Y03451*
X0289*
Y03439*
X02933*
Y03451*
X02948*
Y03438*
X02968*
Y03368*
X02966Y03365*
X02965Y0336*
X02966Y03354*
X0297Y0335*
X02974Y03346*
X0298Y03345*
X02985Y03346*
X0299Y0335*
X02993Y03354*
X02994Y0336*
X02993Y03365*
X02991Y03368*
Y03438*
X03011*
Y03451*
X03028*
Y03438*
X0304*
Y03435*
X03041Y03431*
X03043Y03428*
X03086Y03385*
Y03211*
X03084Y03209*
Y03194*
X03084Y03192*
Y03169*
Y03146*
X03084Y03144*
Y03132*
X03085Y03132*
X0309Y03136*
X0309Y03136*
X03091Y03136*
X03095Y03135*
X03099Y03136*
X031Y03136*
X031Y03136*
X03105Y03132*
X03106Y03132*
Y03144*
X03106Y03146*
Y03169*
X03116*
Y03146*
X03116Y03144*
Y03132*
X03117Y03132*
X03122Y03136*
X03122Y03136*
X03122Y03136*
X03127Y03135*
X03131Y03136*
X03135Y03138*
X03138Y03136*
X03142Y03135*
X03147Y03136*
X0315Y03138*
X03154Y03136*
X03158Y03135*
X03162Y03136*
X03166Y03138*
X0317Y03136*
X03174Y03135*
X03178Y03136*
X03182Y03138*
X03185Y03136*
X0319Y03135*
X03194Y03136*
X03198Y03138*
X03201Y03136*
X03205Y03135*
X0321Y03136*
X03213Y03138*
X03217Y03136*
X03221Y03135*
X03225Y03136*
X03229Y03138*
X03233Y03136*
X03237Y03135*
X03241Y03136*
X03245Y03138*
X03248Y03136*
X03253Y03135*
X03257Y03136*
X03261Y03138*
X03264Y03136*
X03268Y03135*
X03273Y03136*
X03276Y03138*
X0328Y03136*
X03284Y03135*
X03288Y03136*
X03292Y03138*
X03294Y03142*
X03295Y03146*
Y03192*
X03294Y03196*
X03292Y03199*
X03288Y03202*
X03284Y03203*
X0328Y03202*
X03276Y03199*
X03273Y03202*
X03268Y03203*
X03264Y03202*
X03261Y03199*
X03257Y03202*
X03253Y03203*
X03248Y03202*
X03245Y03199*
X03241Y03202*
X03237Y03203*
X03233Y03202*
X03229Y03199*
X03225Y03202*
X03221Y03203*
X03217Y03202*
X03213Y03199*
X0321Y03202*
X03205Y03203*
X03204Y03202*
X03199Y03206*
Y03216*
X03211Y03228*
X03213Y03231*
X03214Y03235*
Y03284*
X03215Y03285*
X03218Y03289*
X03219Y03295*
X03218Y033*
X03215Y03305*
X0321Y03308*
X03205Y03309*
X03199Y03308*
X03195Y03305*
X03191Y033*
X0319Y03295*
X03191Y03289*
X03195Y03285*
X03195Y03284*
Y03238*
X03188Y03231*
X03184Y03233*
Y03329*
X03185Y0333*
X03188Y03334*
X03189Y0334*
X03188Y03345*
X03185Y0335*
X0318Y03353*
X03175Y03354*
X03169Y03353*
X03165Y0335*
X03161Y03345*
X0316Y0334*
X03161Y03334*
X03165Y0333*
X03165Y03329*
Y0328*
X0316Y03277*
X0316Y03278*
X03155Y03279*
X03149Y03278*
X03145Y03275*
X03144Y03273*
X03139Y03275*
Y03309*
X0314Y0331*
X03143Y03314*
X03144Y0332*
X03143Y03325*
X0314Y0333*
X03135Y03333*
X0313Y03334*
X03124Y03333*
X03124Y03332*
X03119Y03335*
Y03438*
X03133*
Y03472*
X03086*
Y03438*
X031*
Y03403*
X03096Y03401*
X03063Y03434*
X03065Y03438*
X03071*
Y03482*
X03028*
Y03469*
X03011*
Y03486*
G37*
G36*
X03316Y03482D02*
X03273D01*
Y03469*
X03256*
Y03482*
X03213*
Y03464*
X03198*
Y03472*
X03151*
Y03438*
X03198*
Y03446*
X03213*
Y03438*
X03256*
Y03451*
X03273*
Y03438*
X03283*
Y03408*
X03281Y03405*
X0328Y034*
X03281Y03394*
X03285Y0339*
X03289Y03386*
X03295Y03385*
X033Y03386*
X03305Y0339*
X03308Y03394*
X03309Y034*
X03308Y03405*
X03306Y03408*
Y03438*
X03316*
Y03482*
G37*
G36*
X02429Y03505D02*
X02358D01*
Y03453*
X02429*
Y03468*
X02466*
X02469Y03466*
X02475Y03465*
X0248Y03466*
X02485Y0347*
X02488Y03474*
X02489Y0348*
X02488Y03485*
X02485Y0349*
X0248Y03493*
X02475Y03494*
X02469Y03493*
X02466Y03491*
X02429*
Y03505*
G37*
G36*
Y03446D02*
X02358D01*
Y03394*
X02429*
Y03408*
X02496*
X02499Y03406*
X02505Y03405*
X0251Y03406*
X02515Y0341*
X02518Y03414*
X02519Y0342*
X02518Y03425*
X02515Y0343*
X0251Y03433*
X02505Y03434*
X02499Y03433*
X02496Y03431*
X02429*
Y03446*
G37*
G36*
X02811Y03482D02*
X02768D01*
Y03438*
X02778*
Y03408*
X02776Y03405*
X02775Y034*
X02776Y03394*
X0278Y0339*
X02784Y03386*
X0279Y03385*
X02795Y03386*
X028Y0339*
X02803Y03394*
X02804Y034*
X02803Y03405*
X02801Y03408*
Y03438*
X02811*
Y03482*
G37*
G36*
X01165Y03653D02*
X01155Y03651D01*
X01145Y03648*
X01137Y03641*
X01131Y03633*
X01127Y03624*
X01126Y03614*
X01127Y03604*
X01131Y03595*
X01137Y03587*
X01145Y0358*
X01155Y03576*
X01165Y03575*
X01175Y03576*
X01183Y0358*
X01411Y03352*
X01415Y03349*
X01419Y03348*
X01649*
Y03335*
X0172*
Y03386*
X01649*
Y03371*
X01424*
X01199Y03596*
X01202Y03604*
X01203Y03614*
X01202Y03624*
X01198Y03633*
X01192Y03641*
X01184Y03648*
X01175Y03651*
X01165Y03653*
G37*
G36*
Y03515D02*
X01155Y03514D01*
X01145Y0351*
X01137Y03504*
X01131Y03496*
X01127Y03486*
X01126Y03476*
X01127Y03466*
X01131Y03457*
X01137Y03449*
X01145Y03443*
X01155Y03439*
X01165Y03437*
X01175Y03439*
X01183Y03442*
X01333Y03292*
X01337Y03289*
X01341Y03288*
X01649*
Y03276*
X0172*
Y03327*
X01649*
Y03311*
X01346*
X01199Y03458*
X01202Y03466*
X01203Y03476*
X01202Y03486*
X01198Y03496*
X01192Y03504*
X01184Y0351*
X01175Y03514*
X01165Y03515*
G37*
G36*
X0386Y0329D02*
X03839D01*
Y0327*
X0386*
Y0329*
G37*
G36*
X03829D02*
X03808D01*
Y0327*
X03829*
Y0329*
G37*
G36*
X0386Y0326D02*
X03839D01*
Y03239*
X0386*
Y0326*
G37*
G36*
X03829D02*
X03808D01*
Y03239*
X03829*
Y0326*
G37*
G36*
X01165Y03377D02*
X01155Y03376D01*
X01145Y03372*
X01137Y03366*
X01131Y03358*
X01127Y03348*
X01126Y03338*
X01127Y03328*
X01131Y03319*
X01137Y03311*
X01145Y03305*
X01155Y03301*
X01165Y033*
X01175Y03301*
X01183Y03304*
X01252Y03235*
X01256Y03232*
X0126Y03231*
X01649*
Y03217*
X0172*
Y03268*
X01649*
Y03254*
X01265*
X01199Y0332*
X01202Y03328*
X01203Y03338*
X01202Y03348*
X01198Y03358*
X01192Y03366*
X01184Y03372*
X01175Y03376*
X01165Y03377*
G37*
G36*
X0386Y0323D02*
X03839D01*
Y0321*
X0386*
Y0323*
G37*
G36*
X03829D02*
X03808D01*
Y0321*
X03829*
Y0323*
G37*
G36*
X03027Y03206D02*
X03026Y03206D01*
X03021Y03202*
X03021Y03202*
X03021Y03202*
X03016Y03203*
X03012Y03202*
X03009Y03199*
X03005Y03202*
X03001Y03203*
X02996Y03202*
X02993Y03199*
X02989Y03202*
X02985Y03203*
X02981Y03202*
X02977Y03199*
X02975Y03196*
X02974Y03192*
Y03146*
X02975Y03142*
X02977Y03138*
X02981Y03136*
X02985Y03135*
X02989Y03136*
X02993Y03138*
X02996Y03136*
X03001Y03135*
X03005Y03136*
X03009Y03138*
X03012Y03136*
X03016Y03135*
X03021Y03136*
X03021Y03136*
X03021Y03136*
X03026Y03132*
X03027Y03132*
Y03144*
X03028Y03146*
Y03169*
Y03192*
X03027Y03194*
Y03206*
G37*
G36*
X0386Y032D02*
X03839D01*
Y03179*
X0386*
Y032*
G37*
G36*
X03829D02*
X03808D01*
Y03179*
X03829*
Y032*
G37*
G36*
X03245Y03364D02*
X03239Y03363D01*
X03235Y0336*
X03231Y03355*
X0323Y0335*
X03231Y03344*
X03235Y0334*
X03239Y03336*
X03242Y03336*
X03397Y03182*
X034Y03179*
X03405Y03178*
X03416*
X03419Y03176*
X03425Y03175*
X0343Y03176*
X03435Y0318*
X03438Y03184*
X03439Y0319*
X03438Y03195*
X03435Y032*
X0343Y03203*
X03425Y03204*
X03419Y03203*
X03416Y03201*
X03409*
X03258Y03352*
X03258Y03355*
X03255Y0336*
X0325Y03363*
X03245Y03364*
G37*
G36*
X02429Y03209D02*
X02358D01*
Y03158*
X02429*
Y03209*
G37*
G36*
X01165Y03239D02*
X01155Y03238D01*
X01145Y03234*
X01137Y03228*
X01131Y0322*
X01127Y03211*
X01126Y03201*
X01127Y03191*
X01131Y03181*
X01137Y03173*
X01145Y03167*
X01155Y03163*
X01165Y03162*
X01175Y03163*
X01184Y03167*
X01192Y03173*
X01192Y03173*
X01649*
Y03158*
X0172*
Y03209*
X01649*
Y03196*
X01207*
X01203Y032*
X01203Y03201*
X01202Y03211*
X01198Y0322*
X01192Y03228*
X01184Y03234*
X01175Y03238*
X01165Y03239*
G37*
G36*
X0386Y0317D02*
X03839D01*
Y0315*
X0386*
Y0317*
G37*
G36*
X03829D02*
X03808D01*
Y0315*
X03829*
Y0317*
G37*
G36*
X0172Y0315D02*
X01649D01*
Y03136*
X01226*
X01222Y03135*
X01218Y03132*
X01183Y03097*
X01175Y031*
X01165Y03102*
X01155Y031*
X01145Y03096*
X01137Y0309*
X01131Y03082*
X01127Y03073*
X01126Y03063*
X01127Y03053*
X01131Y03043*
X01137Y03035*
X01145Y03029*
X01155Y03025*
X01165Y03024*
X01175Y03025*
X01184Y03029*
X01192Y03035*
X01198Y03043*
X01202Y03053*
X01203Y03063*
X01202Y03073*
X01199Y03081*
X01231Y03113*
X01649*
Y03099*
X0172*
Y0315*
G37*
G36*
X03069Y03206D02*
Y03169D01*
Y03132*
X0307Y03132*
X03072Y03134*
X03074Y03132*
X03074Y03132*
Y03169*
Y03206*
X03074Y03206*
X03072Y03204*
X0307Y03206*
X03069Y03206*
G37*
G36*
X03053D02*
Y03169D01*
Y03132*
X03054Y03132*
X03056Y03134*
X03058Y03132*
X03059Y03132*
Y03169*
Y03206*
X03058Y03206*
X03056Y03204*
X03054Y03206*
X03053Y03206*
G37*
G36*
X03037D02*
Y03169D01*
Y03132*
X03038Y03132*
X0304Y03134*
X03042Y03132*
X03043Y03132*
Y03169*
Y03206*
X03042Y03206*
X0304Y03204*
X03038Y03206*
X03037Y03206*
G37*
G36*
X0386Y0314D02*
X03839D01*
Y03119*
X0386*
Y0314*
G37*
G36*
X03829D02*
X03808D01*
Y03119*
X03829*
Y0314*
G37*
G36*
X02429Y0315D02*
X02358D01*
Y03099*
X02429*
Y0315*
G37*
G36*
X03859Y0311D02*
X03839D01*
Y0309*
X03859*
Y0311*
G37*
G36*
X03829D02*
X03808D01*
Y0309*
X03829*
Y0311*
G37*
G36*
X0276Y0311D02*
X0274D01*
Y03089*
X0276*
Y0311*
G37*
G36*
X0273D02*
X02709D01*
Y03089*
X0273*
Y0311*
G37*
G36*
X02933Y03105D02*
X02888D01*
X02883Y03104*
X0288Y03102*
X02877Y03098*
X02876Y03094*
X02877Y0309*
X0288Y03086*
X02877Y03083*
X02876Y03078*
X02877Y03074*
X02877Y03074*
X02877Y03073*
X02873Y03068*
X02873Y03068*
X02886*
X02888Y03067*
X0291*
X02933*
X02935Y03068*
X02947*
X02947Y03068*
X02944Y03073*
X02943Y03074*
X02943Y03074*
X02944Y03078*
X02943Y03083*
X02941Y03086*
X02943Y0309*
X02944Y03094*
X02943Y03098*
X02941Y03102*
X02937Y03104*
X02933Y03105*
G37*
G36*
X0276Y03079D02*
X0274D01*
Y03058*
X0276*
Y03079*
G37*
G36*
X0273D02*
X02709D01*
Y03058*
X0273*
Y03079*
G37*
G36*
X02429Y03091D02*
X02358D01*
Y0304*
X02429*
Y03055*
X02454*
X02455Y03055*
X02459Y03051*
X02465Y0305*
X0247Y03051*
X02475Y03055*
X02478Y03059*
X02479Y03065*
X02478Y0307*
X02475Y03075*
X0247Y03078*
X02465Y03079*
X02459Y03078*
X02455Y03075*
X02454Y03074*
X02429*
Y03091*
G37*
G36*
X0172D02*
X01649D01*
Y03077*
X01305*
X01301Y03076*
X01297Y03073*
X01183Y02959*
X01175Y02962*
X01165Y02964*
X01155Y02962*
X01145Y02959*
X01137Y02952*
X01131Y02944*
X01127Y02935*
X01126Y02925*
X01127Y02915*
X01131Y02906*
X01137Y02898*
X01145Y02891*
X01155Y02887*
X01165Y02886*
X01175Y02887*
X01184Y02891*
X01192Y02898*
X01198Y02906*
X01202Y02915*
X01203Y02925*
X01202Y02935*
X01199Y02943*
X0131Y03054*
X01649*
Y0304*
X0172*
Y03091*
G37*
G36*
X02933Y03058D02*
X0291D01*
X02888*
X02886Y03058*
X0287*
X02868Y03056*
X02787*
X02783Y03055*
X0278Y03053*
X02761Y03034*
X02756Y03034*
Y03047*
X02713*
Y03003*
X02725*
Y02998*
X02724Y02998*
X0272Y02995*
X02716Y0299*
X02715Y02985*
X02716Y02979*
X0272Y02975*
X02724Y02971*
X0273Y0297*
X02735Y02971*
X0274Y02975*
X02743Y02979*
X02744Y02985*
X02743Y02989*
X02743Y02989*
X02744Y02992*
Y03003*
X02756*
Y03016*
X02765*
X02769Y03017*
X02772Y03019*
X02791Y03038*
X02873*
X02877Y03033*
X02876Y03031*
X02877Y03027*
X0288Y03023*
X02877Y0302*
X02876Y03015*
X02877Y03011*
X0288Y03008*
X02877Y03004*
X02876Y03*
X02877Y02995*
X0288Y02992*
X02877Y02988*
X02876Y02984*
X02877Y0298*
X0288Y02976*
X02877Y02972*
X02876Y02968*
X02877Y02964*
X0288Y0296*
X02877Y02957*
X02876Y02952*
X02877Y02948*
X0288Y02945*
X02877Y02941*
X02876Y02937*
X02877Y02932*
X0288Y02929*
X02877Y02925*
X02876Y02921*
X02877Y02917*
X0288Y02913*
X02877Y02909*
X02876Y02905*
X02877Y02901*
X0288Y02897*
X02877Y02894*
X02876Y02889*
X02877Y02885*
X0288Y02882*
X02877Y02878*
X02876Y02874*
X02877Y02869*
X0288Y02866*
X02877Y02862*
X02876Y02858*
X02877Y02854*
X0288Y0285*
X02877Y02846*
X02876Y02842*
X02877Y02838*
X0288Y02834*
X02877Y02831*
X02876Y02826*
X02877Y02822*
X0288Y02819*
X02877Y02815*
X02876Y02811*
X02877Y02806*
X0288Y02803*
X02877Y02799*
X02876Y02795*
X02877Y02791*
X0288Y02787*
X02883Y02785*
X02888Y02784*
X02933*
X02937Y02785*
X02941Y02787*
X02943Y02791*
X02944Y02795*
X02943Y02799*
X02941Y02803*
X02943Y02806*
X02944Y02811*
X02943Y02815*
X02941Y02819*
X02943Y02822*
X02944Y02826*
X02943Y02831*
X02941Y02834*
X02943Y02838*
X02944Y02842*
X02943Y02846*
X02941Y0285*
X02943Y02854*
X02944Y02858*
X02943Y02862*
X02941Y02866*
X02943Y02869*
X02944Y02874*
X02943Y02878*
X02941Y02882*
X02943Y02885*
X02944Y02889*
X02943Y02894*
X02941Y02897*
X02943Y02901*
X02944Y02905*
X02943Y02909*
X02941Y02913*
X02943Y02917*
X02944Y02921*
X02943Y02925*
X02941Y02929*
X02943Y02932*
X02944Y02937*
X02943Y02941*
X02941Y02945*
X02943Y02948*
X02944Y02952*
X02943Y02957*
X02941Y0296*
X02943Y02964*
X02944Y02968*
X02943Y02972*
X02941Y02976*
X02943Y0298*
X02944Y02984*
X02943Y02988*
X02941Y02992*
X02943Y02995*
X02944Y03*
X02943Y03004*
X02941Y03008*
X02943Y03011*
X02944Y03015*
X02943Y0302*
X02941Y03023*
X02943Y03027*
X02944Y03031*
X02943Y03035*
X02941Y03039*
X02943Y03043*
X02944Y03047*
X02943Y03051*
X02943Y03052*
X02944Y03052*
X02947Y03057*
X02947Y03058*
X02935*
X02933Y03058*
G37*
G36*
X0172Y03032D02*
X01649D01*
Y03018*
X01384*
X0138Y03017*
X01376Y03014*
X01183Y02821*
X01175Y02825*
X01165Y02826*
X01155Y02825*
X01145Y02821*
X01137Y02815*
X01131Y02807*
X01127Y02797*
X01126Y02787*
X01127Y02777*
X01131Y02768*
X01137Y0276*
X01145Y02754*
X01155Y0275*
X01165Y02748*
X01175Y0275*
X01184Y02754*
X01192Y0276*
X01198Y02768*
X01202Y02777*
X01203Y02787*
X01202Y02797*
X01199Y02805*
X01388Y02995*
X01649*
Y02981*
X0172*
Y03032*
G37*
G36*
X02429D02*
X02358D01*
Y02981*
X02429*
Y02995*
X02454*
X02455Y02995*
X02459Y02991*
X02465Y0299*
X0247Y02991*
X02475Y02995*
X02478Y02999*
X02479Y03005*
X02478Y0301*
X02475Y03015*
X0247Y03018*
X02465Y03019*
X02459Y03018*
X02455Y03015*
X02454Y03014*
X02429*
Y03032*
G37*
G36*
X03396Y02995D02*
X03359D01*
X03322*
X03322Y02994*
X03324Y02992*
X03322Y0299*
X03322Y02989*
X03359*
X03396*
X03396Y0299*
X03394Y02992*
X03396Y02994*
X03396Y02995*
G37*
G36*
X0172Y02973D02*
X01649D01*
Y02959*
X01463*
X01458Y02958*
X01455Y02955*
X01183Y02683*
X01175Y02687*
X01165Y02688*
X01155Y02687*
X01145Y02683*
X01137Y02677*
X01131Y02669*
X01127Y02659*
X01126Y02649*
X01127Y02639*
X01131Y0263*
X01137Y02622*
X01145Y02616*
X01155Y02612*
X01165Y02611*
X01175Y02612*
X01184Y02616*
X01192Y02622*
X01198Y0263*
X01202Y02639*
X01203Y02649*
X01202Y02659*
X01199Y02668*
X01467Y02936*
X01649*
Y02922*
X0172*
Y02973*
G37*
G36*
X02429D02*
X02358D01*
Y02922*
X02429*
Y0294*
X02454*
X02455Y0294*
X02459Y02936*
X02465Y02935*
X0247Y02936*
X02475Y0294*
X02478Y02944*
X02479Y0295*
X02478Y02955*
X02475Y0296*
X0247Y02963*
X02465Y02964*
X02459Y02963*
X02455Y0296*
X02454Y02959*
X02429*
Y02973*
G37*
G36*
X0172Y02914D02*
X01649D01*
Y029*
X01623*
X01619Y02899*
X01615Y02896*
X01548Y02829*
X01546Y02825*
X01545Y02821*
Y02378*
X01518*
Y02301*
X01595*
Y02378*
X01567*
Y02817*
X01628Y02877*
X01649*
Y02863*
X0172*
Y02914*
G37*
G36*
X02429D02*
X02358D01*
Y02863*
X02429*
Y0288*
X02454*
X02455Y0288*
X02459Y02876*
X02465Y02875*
X0247Y02876*
X02475Y0288*
X02478Y02884*
X02479Y0289*
X02478Y02895*
X02475Y029*
X0247Y02903*
X02465Y02904*
X02459Y02903*
X02455Y029*
X02454Y02899*
X02429*
Y02914*
G37*
G36*
X0172Y02855D02*
X01649D01*
Y0284*
X01624*
X0162Y0284*
X01616Y02837*
X01592Y02812*
X01589Y02809*
X01588Y02805*
Y02434*
X01589Y0243*
X01592Y02426*
X0166Y02358*
X01656Y0235*
X01655Y0234*
X01656Y0233*
X0166Y0232*
X01667Y02312*
X01675Y02306*
X01684Y02302*
X01694Y02301*
X01704Y02302*
X01713Y02306*
X01721Y02312*
X01728Y0232*
X01731Y0233*
X01733Y0234*
X01731Y0235*
X01728Y02359*
X01721Y02367*
X01713Y02373*
X01704Y02377*
X01694Y02378*
X01684Y02377*
X01676Y02374*
X01611Y02439*
Y028*
X01629Y02818*
X01649*
Y02804*
X0172*
Y02855*
G37*
G36*
X02334Y02825D02*
X0231D01*
Y0279*
X02334*
Y02825*
G37*
G36*
X03011Y02757D02*
X03011Y02757D01*
X03006Y02754*
X03005Y02753*
X03005Y02753*
X03001Y02754*
X02996Y02753*
X02993Y02751*
X02989Y02753*
X02985Y02754*
X02981Y02753*
X02977Y02751*
X02975Y02747*
X02974Y02743*
Y02698*
X02975Y02693*
X02977Y0269*
X02981Y02687*
X02985Y02686*
X02989Y02687*
X02993Y0269*
X02996Y02687*
X03001Y02686*
X03005Y02687*
X03005Y02687*
X03006Y02687*
X03011Y02683*
X03011Y02683*
Y02696*
X03012Y02698*
Y0272*
Y02743*
X03011Y02745*
Y02757*
G37*
G36*
X02334Y0278D02*
X0231D01*
Y02746*
X02334*
Y0278*
G37*
G36*
X01976Y02821D02*
X01925D01*
Y0275*
X01938*
Y02738*
X01936Y02735*
X01935Y0273*
X01936Y02724*
X0194Y0272*
X01944Y02716*
X0195Y02715*
X01955Y02716*
X0196Y0272*
X01963Y02724*
X01964Y0273*
X01963Y02735*
X01961Y02738*
Y0275*
X01976*
Y02821*
G37*
G36*
X03021Y02757D02*
Y0272D01*
Y02683*
X03022Y02683*
X03024Y02685*
X03026Y02683*
X03027Y02683*
Y0272*
Y02757*
X03026Y02757*
X03024Y02755*
X03022Y02757*
X03021Y02757*
G37*
G36*
X03037D02*
Y0272D01*
Y02683*
X03038Y02683*
X0304Y02685*
X03042Y02683*
X03043Y02683*
Y0272*
Y02757*
X03042Y02757*
X0304Y02755*
X03038Y02757*
X03037Y02757*
G37*
G36*
X01917Y02821D02*
X01866D01*
Y0275*
X0188*
Y02556*
X01881Y02551*
X01883Y02548*
X02073Y02358*
X0207Y0235*
X02069Y0234*
X0207Y0233*
X02074Y0232*
X0208Y02312*
X02088Y02306*
X02097Y02302*
X02107Y02301*
X02117Y02302*
X02127Y02306*
X02135Y02312*
X02141Y0232*
X02145Y0233*
X02146Y0234*
X02145Y0235*
X02141Y02359*
X02135Y02367*
X02127Y02373*
X02117Y02377*
X02107Y02378*
X02097Y02377*
X02089Y02374*
X01902Y0256*
Y02665*
X01907Y02668*
X01909Y02666*
X01915Y02665*
X0192Y02666*
X01923Y02668*
X01933*
Y02655*
X01976*
Y02704*
X01933*
Y02691*
X01923*
X0192Y02693*
X01915Y02694*
X01909Y02693*
X01907Y02691*
X01902Y02694*
Y0275*
X01917*
Y02821*
G37*
G36*
X02035D02*
X01984D01*
Y0275*
X01998*
Y02704*
X01988*
Y02655*
X01998*
Y02638*
X01996Y02635*
X01995Y0263*
X01996Y02624*
X02Y0262*
X02004Y02616*
X0201Y02615*
X02015Y02616*
X0202Y0262*
X02023Y02624*
X02024Y0263*
X02023Y02635*
X02021Y02638*
Y02655*
X02031*
Y02704*
X02021*
Y0275*
X02035*
Y02821*
G37*
G36*
X03787Y02568D02*
X03753D01*
Y02556*
X03743*
X0374Y02558*
X03735Y02559*
X03729Y02558*
X03725Y02555*
X03721Y0255*
X0372Y02545*
X03721Y02539*
X03725Y02535*
X03729Y02531*
X03735Y0253*
X0374Y02531*
X03743Y02533*
X03753*
Y02521*
X03787*
Y02568*
G37*
G36*
X01185Y02542D02*
Y02505D01*
X01222*
X01221Y02511*
X01217Y02521*
X0121Y0253*
X01201Y02537*
X01191Y02541*
X01185Y02542*
G37*
G36*
X01175D02*
X01168Y02541D01*
X01158Y02537*
X01149Y0253*
X01142Y02521*
X01138Y02511*
X01137Y02505*
X01175*
Y02542*
G37*
G36*
X03787Y02508D02*
X03753D01*
Y02494*
X0373*
X0373Y02495*
X03725Y02498*
X0372Y02499*
X03714Y02498*
X0371Y02495*
X03706Y0249*
X03705Y02485*
X03706Y02479*
X0371Y02475*
X03714Y02471*
X0372Y0247*
X03725Y02471*
X0373Y02475*
X0373Y02475*
X03753*
Y02461*
X03787*
Y02508*
G37*
G36*
X0108Y02538D02*
X0107Y02537D01*
X0106Y02533*
X01052Y02527*
X01046Y02519*
X01042Y0251*
X01041Y025*
X01042Y0249*
X01046Y0248*
X01052Y02472*
X0106Y02466*
X0107Y02462*
X0108Y02461*
X0109Y02462*
X01099Y02466*
X01107Y02472*
X01113Y0248*
X01117Y0249*
X01118Y025*
X01117Y0251*
X01113Y02519*
X01107Y02527*
X01099Y02533*
X0109Y02537*
X0108Y02538*
G37*
G36*
X01222Y02495D02*
X01185D01*
Y02457*
X01191Y02458*
X01201Y02462*
X0121Y02469*
X01217Y02478*
X01221Y02488*
X01222Y02495*
G37*
G36*
X01175D02*
X01137D01*
X01138Y02488*
X01142Y02478*
X01149Y02469*
X01158Y02462*
X01168Y02458*
X01175Y02457*
Y02495*
G37*
G36*
X01185Y02442D02*
Y02405D01*
X01222*
X01221Y02411*
X01217Y02421*
X0121Y0243*
X01201Y02437*
X01191Y02441*
X01185Y02442*
G37*
G36*
X01175D02*
X01168Y02441D01*
X01158Y02437*
X01149Y0243*
X01142Y02421*
X01138Y02411*
X01137Y02405*
X01175*
Y02442*
G37*
G36*
X03846Y02508D02*
X03812D01*
Y02461*
X0382*
Y02448*
X03812*
Y02401*
X03846*
Y02448*
X03838*
Y02461*
X03846*
Y02508*
G37*
G36*
X01118Y02438D02*
X01041D01*
Y02361*
X01118*
Y02438*
G37*
G36*
X01222Y02395D02*
X01185D01*
Y02357*
X01191Y02358*
X01201Y02362*
X0121Y02369*
X01217Y02378*
X01221Y02388*
X01222Y02395*
G37*
G36*
X01175D02*
X01137D01*
X01138Y02388*
X01142Y02378*
X01149Y02369*
X01158Y02362*
X01168Y02358*
X01175Y02357*
Y02395*
G37*
G36*
X03035Y02351D02*
X03015D01*
Y0233*
X03035*
Y02351*
G37*
G36*
X03065D02*
X03044D01*
Y0233*
X03065*
Y02351*
G37*
G36*
X03005D02*
X02984D01*
Y0233*
X03005*
Y02351*
G37*
G36*
X02429Y02855D02*
X02358D01*
Y02804*
X02429*
Y02818*
X0252*
X02785Y02553*
Y02377*
X02777Y02373*
X02769Y02367*
X02763Y02359*
X02759Y0235*
X02758Y0234*
X02759Y0233*
X02763Y0232*
X02769Y02312*
X02777Y02306*
X02786Y02302*
X02796Y02301*
X02806Y02302*
X02816Y02306*
X02824Y02312*
X0283Y0232*
X02834Y0233*
X02835Y0234*
X02834Y0235*
X0283Y02359*
X02824Y02367*
X02816Y02373*
X02808Y02377*
Y02558*
X02807Y02562*
X02804Y02566*
X02533Y02837*
X02529Y0284*
X02525Y0284*
X02429*
Y02855*
G37*
G36*
X023Y02825D02*
X02275D01*
Y02824*
X02271Y02821*
X0227*
X0222*
Y0275*
X02237*
X0224Y02746*
X02241Y02742*
X02244Y02739*
X02624Y02358*
X02621Y0235*
X0262Y0234*
X02621Y0233*
X02625Y0232*
X02631Y02312*
X02639Y02306*
X02648Y02302*
X02659Y02301*
X02669Y02302*
X02678Y02306*
X02686Y02312*
X02692Y0232*
X02696Y0233*
X02697Y0234*
X02696Y0235*
X02692Y02359*
X02686Y02367*
X02678Y02373*
X02669Y02377*
X02659Y02378*
X02648Y02377*
X0264Y02374*
X02272Y02742*
X02275Y02746*
X023*
Y02785*
Y02825*
G37*
G36*
X02212Y02821D02*
X02161D01*
Y0275*
X02175*
Y02674*
X02176Y02669*
X02179Y02666*
X02487Y02358*
X02483Y0235*
X02482Y0234*
X02483Y0233*
X02487Y0232*
X02493Y02312*
X02501Y02306*
X02511Y02302*
X02521Y02301*
X02531Y02302*
X0254Y02306*
X02548Y02312*
X02554Y0232*
X02558Y0233*
X0256Y0234*
X02558Y0235*
X02554Y02359*
X02548Y02367*
X0254Y02373*
X02531Y02377*
X02521Y02378*
X02511Y02377*
X02502Y02374*
X02198Y02678*
Y0275*
X02212*
Y02821*
G37*
G36*
X02153D02*
X02102D01*
Y0275*
X02116*
Y02595*
X02117Y02591*
X0212Y02587*
X02349Y02358*
X02345Y0235*
X02344Y0234*
X02345Y0233*
X02349Y0232*
X02355Y02312*
X02364Y02306*
X02373Y02302*
X02383Y02301*
X02393Y02302*
X02402Y02306*
X0241Y02312*
X02417Y0232*
X0242Y0233*
X02422Y0234*
X0242Y0235*
X02417Y02359*
X0241Y02367*
X02402Y02373*
X02393Y02377*
X02383Y02378*
X02373Y02377*
X02365Y02374*
X02139Y026*
Y0275*
X02153*
Y02821*
G37*
G36*
X02094D02*
X02043D01*
Y0275*
X02057*
Y02516*
X02058Y02512*
X0206Y02508*
X02211Y02358*
X02208Y0235*
X02206Y0234*
X02208Y0233*
X02212Y0232*
X02218Y02312*
X02226Y02306*
X02235Y02302*
X02245Y02301*
X02255Y02302*
X02265Y02306*
X02273Y02312*
X02279Y0232*
X02283Y0233*
X02284Y0234*
X02283Y0235*
X02279Y02359*
X02273Y02367*
X02265Y02373*
X02255Y02377*
X02245Y02378*
X02235Y02377*
X02227Y02374*
X0208Y02521*
Y0275*
X02094*
Y02821*
G37*
G36*
X01858D02*
X01807D01*
Y0275*
X01821*
Y02477*
X01822Y02473*
X01824Y02469*
X01935Y02358*
X01932Y0235*
X01931Y0234*
X01932Y0233*
X01936Y0232*
X01942Y02312*
X0195Y02306*
X0196Y02302*
X0197Y02301*
X0198Y02302*
X01989Y02306*
X01997Y02312*
X02003Y0232*
X02007Y0233*
X02008Y0234*
X02007Y0235*
X02003Y02359*
X01997Y02367*
X01989Y02373*
X0198Y02377*
X0197Y02378*
X0196Y02377*
X01951Y02374*
X01843Y02482*
Y0275*
X01858*
Y02821*
G37*
G36*
X01799D02*
X01747D01*
Y0275*
X01762*
Y02398*
X01763Y02394*
X01765Y0239*
X01798Y02358*
X01794Y0235*
X01793Y0234*
X01794Y0233*
X01798Y0232*
X01804Y02312*
X01812Y02306*
X01822Y02302*
X01832Y02301*
X01842Y02302*
X01851Y02306*
X01859Y02312*
X01865Y0232*
X01869Y0233*
X01871Y0234*
X01869Y0235*
X01865Y02359*
X01859Y02367*
X01851Y02373*
X01842Y02377*
X01832Y02378*
X01822Y02377*
X01814Y02374*
X01784Y02403*
Y0275*
X01799*
Y02821*
G37*
G36*
X03035Y0232D02*
X03015D01*
Y02299*
X03035*
Y0232*
G37*
G36*
X03005D02*
X02984D01*
Y02299*
X03005*
Y0232*
G37*
G36*
X03065D02*
X03044D01*
Y02299*
X03065*
Y0232*
G37*
G36*
X01349Y0231D02*
Y02274D01*
X01385*
X01385Y0228*
X0138Y0229*
X01374Y02298*
X01365Y02305*
X01355Y02309*
X01349Y0231*
G37*
G36*
X01339D02*
X01333Y02309D01*
X01323Y02305*
X01315Y02298*
X01308Y0229*
X01304Y0228*
X01303Y02274*
X01339*
Y0231*
G37*
G36*
X04095Y02286D02*
Y0225D01*
X04131*
X04131Y02256*
X04126Y02266*
X0412Y02275*
X04111Y02281*
X04101Y02286*
X04095Y02286*
G37*
G36*
X04085D02*
X04079Y02286D01*
X04069Y02281*
X04061Y02275*
X04054Y02266*
X0405Y02256*
X04049Y0225*
X04085*
Y02286*
G37*
G36*
X03933D02*
Y0225D01*
X03969*
X03969Y02256*
X03964Y02266*
X03958Y02275*
X03949Y02281*
X03939Y02286*
X03933Y02286*
G37*
G36*
X03923D02*
X03917Y02286D01*
X03907Y02281*
X03899Y02275*
X03892Y02266*
X03888Y02256*
X03887Y0225*
X03923*
Y02286*
G37*
G36*
X01385Y02264D02*
X01349D01*
Y02228*
X01355Y02228*
X01365Y02233*
X01374Y02239*
X0138Y02248*
X01385Y02258*
X01385Y02264*
G37*
G36*
X01339D02*
X01303D01*
X01304Y02258*
X01308Y02248*
X01315Y02239*
X01323Y02233*
X01333Y02228*
X01339Y02228*
Y02264*
G37*
G36*
X04131Y0224D02*
X04095D01*
Y02204*
X04101Y02205*
X04111Y02209*
X0412Y02216*
X04126Y02224*
X04131Y02234*
X04131Y0224*
G37*
G36*
X04085D02*
X04049D01*
X0405Y02234*
X04054Y02224*
X04061Y02216*
X04069Y02209*
X04079Y02205*
X04085Y02204*
Y0224*
G37*
G36*
X03969D02*
X03933D01*
Y02204*
X03939Y02205*
X03949Y02209*
X03958Y02216*
X03964Y02224*
X03969Y02234*
X03969Y0224*
G37*
G36*
X03923D02*
X03887D01*
X03888Y02234*
X03892Y02224*
X03899Y02216*
X03907Y02209*
X03917Y02205*
X03923Y02204*
Y0224*
G37*
G36*
X04815Y02335D02*
X048Y02333D01*
X04786Y02329*
X04773Y02322*
X04761Y02313*
X04752Y02301*
X04745Y02288*
X04741Y02274*
X04739Y0226*
X04741Y02245*
X04745Y02231*
X04752Y02218*
X04761Y02206*
X04773Y02197*
X04786Y0219*
X048Y02186*
X04815Y02184*
X04829Y02186*
X04843Y0219*
X04856Y02197*
X04868Y02206*
X04877Y02218*
X04884Y02231*
X04888Y02245*
X0489Y0226*
X04888Y02274*
X04884Y02288*
X04877Y02301*
X04868Y02313*
X04856Y02322*
X04843Y02329*
X04829Y02333*
X04815Y02335*
G37*
G36*
X0112D02*
X01105Y02333D01*
X01091Y02329*
X01078Y02322*
X01066Y02313*
X01057Y02301*
X0105Y02288*
X01046Y02274*
X01044Y0226*
X01046Y02245*
X0105Y02231*
X01057Y02218*
X01066Y02206*
X01078Y02197*
X01091Y0219*
X01105Y02186*
X0112Y02184*
X01134Y02186*
X01148Y0219*
X01161Y02197*
X01173Y02206*
X01182Y02218*
X01189Y02231*
X01193Y02245*
X01195Y0226*
X01193Y02274*
X01189Y02288*
X01182Y02301*
X01173Y02313*
X01161Y02322*
X01148Y02329*
X01134Y02333*
X0112Y02335*
G37*
G36*
X03224Y02424D02*
X03191D01*
Y02396*
X03224*
Y02424*
G37*
G36*
X0338Y02356D02*
X0336D01*
Y02335*
X0338*
Y02356*
G37*
G36*
X0335D02*
X03329D01*
Y02335*
X0335*
Y02356*
G37*
G36*
X0338Y02325D02*
X0336D01*
Y02304*
X0338*
Y02325*
G37*
G36*
X0335D02*
X03329D01*
Y02304*
X0335*
Y02325*
G37*
G36*
X0331Y02323D02*
X03278D01*
Y02295*
X0331*
Y02323*
G37*
G36*
X03268D02*
X03235D01*
Y02295*
X03268*
Y02323*
G37*
G36*
X03275Y0229D02*
X03254D01*
Y0227*
X03275*
Y0229*
G37*
G36*
X03244D02*
X03223D01*
Y0227*
X03244*
Y0229*
G37*
G36*
X03275Y0226D02*
X03254D01*
Y02239*
X03275*
Y0226*
G37*
G36*
X03244D02*
X03223D01*
Y02239*
X03244*
Y0226*
G37*
%LNv1.0-3*%
%LPD*%
G36*
X0202Y0471D02*
X0209D01*
X021Y047*
Y0469*
X0209Y0468*
X02045*
X02026Y04661*
X02022*
X02016Y0466*
X02011Y04656*
X02009Y04655*
X0186*
Y04656*
X01799*
Y04655*
X0168*
X01675Y0466*
Y0475*
X01685Y0476*
X0197*
X0202Y0471*
G37*
G36*
X01535Y04555D02*
Y0429D01*
X0145*
X01335Y04405*
Y04555*
X01355Y04575*
X01515*
X01535Y04555*
G37*
G36*
X01785Y04545D02*
Y0427D01*
X01775Y0426*
X01625*
X01615Y0427*
Y04545*
X01655Y04585*
X01745*
X01785Y04545*
G37*
G36*
X03445Y0495D02*
Y0483D01*
X03205*
X03155Y0478*
X0282*
X0279Y0475*
X0256*
Y04905*
X0262Y04965*
X0343*
X03445Y0495*
G37*
G36*
X0279Y04595D02*
X02345D01*
X0231Y0463*
X02255*
X02245Y0464*
Y0465*
X02255Y0466*
X0241*
X02445Y04695*
X0279*
Y04595*
G37*
G36*
X03445Y042D02*
X0341Y04165D01*
X0313*
X0303Y04265*
Y04405*
X03185Y0456*
Y0474*
X03225Y0478*
X03445*
Y042*
G37*
G36*
X0358Y0407D02*
Y039D01*
X03565Y03885*
X032*
X0319Y03895*
Y04075*
X032Y04085*
X03565*
X0358Y0407*
G37*
G36*
X0331Y03445D02*
X03306D01*
X03301Y03443*
X03299Y03438*
Y03408*
X033Y03406*
X033Y03404*
X03302Y03402*
X03302Y034*
X03302Y03397*
X033Y03394*
X03297Y03393*
X03295Y03392*
X03292Y03393*
X03289Y03394*
X03288Y03397*
X03287Y034*
X03288Y03402*
X03289Y03404*
X03289Y03406*
X0329Y03408*
Y03438*
X03288Y03443*
X03283Y03445*
X03279*
Y03451*
X03277Y03455*
X03273Y03457*
X03256*
X03252Y03455*
X0325Y03451*
Y03445*
X03219*
Y03446*
X03217Y0345*
X03213Y03452*
X03198*
X03194Y0345*
X03192Y03446*
Y03445*
X03157*
Y03465*
X03192*
Y03464*
X03194Y0346*
X03198Y03458*
X03213*
X03217Y0346*
X03219Y03464*
Y03475*
X0325*
Y03469*
X03252Y03465*
X03256Y03463*
X03273*
X03277Y03465*
X03279Y03469*
Y03475*
X0331*
Y03445*
G37*
G54D12*
X03625Y0275D02*
X0368D01*
X0351Y02865D02*
X03625Y0275D01*
X03359Y02889D02*
X0351D01*
X03555Y02845*
X03775*
X03359Y02874D02*
X0347D01*
X03522Y02738D02*
Y02823D01*
X0347Y02874D02*
X03522Y02823D01*
X0351Y0273D02*
Y02815D01*
X03466Y02858D02*
X0351Y02815D01*
X03359Y02858D02*
X03466D01*
X0336Y0281D02*
X0349D01*
X03492Y02809*
X03522Y02738D02*
X03535Y02725D01*
X0377*
X03635Y02605D02*
X0377D01*
X0351Y0273D02*
X03635Y02605D01*
X0291Y03522D02*
X02912Y0352D01*
X0291Y03522D02*
Y03565D01*
X03685Y0281D02*
X03829D01*
X03359Y02811D02*
X0336Y0281D01*
X0372Y02485D02*
X0377D01*
X0345Y02652D02*
Y02738D01*
X03393Y02795D02*
X0345Y02738D01*
X03359Y02795D02*
X03393D01*
X0326Y02842D02*
X03359D01*
X0339Y0311D02*
X0348Y032D01*
X03235Y0311D02*
X0339D01*
X03358Y02953D02*
X03359Y02952D01*
X03126Y02953D02*
X03358D01*
X03125Y02955D02*
X03126Y02953D01*
X03237Y0272D02*
Y02775D01*
X03358Y02936D02*
X03359Y02937D01*
X03256Y02936D02*
X03358D01*
X03255Y02934D02*
X03256Y02936D01*
X03175Y0317D02*
Y0334D01*
X03174Y03169D02*
X03175Y0317D01*
X0348Y032D02*
Y0346D01*
X03095Y0311D02*
X03105D01*
X0307D02*
X03095D01*
Y03D02*
Y0311D01*
X03095Y0272D02*
X03095Y0272D01*
X03095Y0272D02*
Y02999D01*
X03095Y03D02*
X03095Y02999D01*
X0348Y0346D02*
Y0346D01*
X02735Y02992D02*
Y03025D01*
X0273Y02987D02*
X02735Y02992D01*
X0273Y02985D02*
Y02987D01*
X04855Y03953D02*
Y04118D01*
X04505Y04168D02*
Y04285D01*
X04465Y04128D02*
X04505Y04168D01*
X0449Y0452D02*
X04515Y04545D01*
X0442Y0452D02*
X0449D01*
X04411Y04511D02*
X0442Y0452D01*
X04411Y04483D02*
Y04511D01*
X03706Y03965D02*
X0371Y03968D01*
X0366Y03965D02*
X03706D01*
X03238Y03515D02*
X03355D01*
X03155Y03265D02*
X03157Y03262D01*
X0313Y03255D02*
Y0332D01*
Y03255D02*
X03142Y03243D01*
X03157Y0317D02*
Y03262D01*
X0319Y0322D02*
X03205Y03235D01*
Y03295*
X03359Y02968D02*
X03443D01*
X0356Y03085D02*
X03775D01*
X03443Y02968D02*
X0356Y03085D01*
X03585Y03145D02*
X03775D01*
X03455Y03015D02*
X03585Y03145D01*
X03359Y03031D02*
X03456D01*
X03359Y03015D02*
X03455D01*
X03456Y03031D02*
X0363Y03205D01*
X03891Y03153D02*
X0394Y03105D01*
X03891Y03153D02*
Y03293D01*
X0394Y03105D02*
X0426D01*
X03468Y03063D02*
X0367Y03265D01*
X03359Y03063D02*
X03468D01*
X03032Y03169D02*
Y03235D01*
X03064Y03115D02*
Y03169D01*
Y03115D02*
X0307Y0311D01*
X03111Y03116D02*
Y03169D01*
X03105Y0311D02*
X03111Y03116D01*
X03064Y03169D02*
X03079D01*
X03048D02*
X03064D01*
X03032D02*
X03048D01*
X02455Y03715D02*
Y04265D01*
X0249Y043*
X02903*
X04465Y03873D02*
Y03909D01*
X04215Y03848D02*
X0444D01*
X04465Y03873*
X0415Y04244D02*
X04349D01*
X04465Y04128*
X02787Y03047D02*
X0291D01*
X02765Y03025D02*
X02787Y03047D01*
X02735Y03025D02*
X02765D01*
X02786Y03063D02*
X0291D01*
X02735Y03084D02*
X02765D01*
X02786Y03063*
X0279Y03519D02*
Y03553D01*
X0319Y03169D02*
Y0322D01*
X03142Y03169D02*
Y03243D01*
X0343Y0219D02*
X03575Y02335D01*
X0292Y02293D02*
X03023Y0219D01*
X0343*
X02932Y02298D02*
X03028Y02202D01*
X03422D02*
X03575Y02355D01*
X03028Y02202D02*
X03422D01*
X03575Y02335D02*
X04735D01*
X04523Y04772D02*
Y04783D01*
Y04772D02*
X04576Y0472D01*
X0465*
X04526Y0493D02*
X04529Y04933D01*
X04526Y04786D02*
Y0493D01*
X04523Y04783D02*
X04526Y04786D01*
X04224Y04933D02*
X04529D01*
X04227Y04786D02*
X0423Y04783D01*
X04227Y04786D02*
Y0493D01*
X04224Y04933D02*
X04227Y0493D01*
X0387Y04715D02*
X04172D01*
X0423Y04772*
Y04783*
X03834Y03085D02*
X0389D01*
X03834Y02845D02*
X0389D01*
X03775Y02935D02*
X0391D01*
X0377Y0293D02*
X03775Y02935D01*
X03774Y03051D02*
X03917D01*
X03918Y0305*
X03834Y02965D02*
X0387D01*
X03829Y03025D02*
X0387D01*
X03829Y02905D02*
X0387D01*
X03716Y02665D02*
X03775D01*
X0365Y03175D02*
X03775D01*
X0367Y03265D02*
X03775D01*
X0363Y03205D02*
X03775D01*
X03829Y0281D02*
X03834Y02805D01*
X04465Y04018D02*
X04495D01*
X04515Y03938D02*
X04535Y03918D01*
X04575*
X0459Y03903D02*
X0461Y03924D01*
X04605Y04073D02*
X0461Y04067D01*
Y04035D02*
Y04067D01*
Y04035D02*
X04637D01*
X04705Y03881D02*
Y03943D01*
X04773Y03913D02*
X04815D01*
X04773Y04053D02*
D01*
X04756Y04136D02*
X04773Y04153D01*
X04465Y04077D02*
Y04128D01*
X04515Y03938D02*
Y03993D01*
X04585Y03928D02*
Y03951D01*
X0461Y03924D02*
Y03951D01*
X04773Y04011D02*
Y04053D01*
X04575Y03918D02*
X04585Y03928D01*
X0453Y03903D02*
X0459D01*
X0455Y04073D02*
X04605D01*
X04738Y04136D02*
X04756D01*
X04773Y04153D02*
X0482D01*
X04495Y04018D02*
X0455Y04073D01*
X0461Y03951D02*
X04671D01*
X04705Y03881D02*
X04773Y03813D01*
X04705Y03943D02*
X04773Y04011D01*
X04465Y03968D02*
X0453Y03903D01*
X04637Y04035D02*
X04738Y04136D01*
X04671Y03951D02*
X04773Y04053D01*
X02393Y02947D02*
X02395Y0295D01*
X02393Y03006D02*
X02395Y03005D01*
X02393Y03065D02*
X02394Y03065D01*
X02393Y02888D02*
X02394Y0289D01*
X02395Y0295D02*
X02465D01*
X02395Y03005D02*
X02465D01*
X02394Y03065D02*
X02465D01*
X02394Y0289D02*
X02465D01*
X0279Y03519D02*
X02793Y03515D01*
X0285Y03455D02*
X02855Y0346D01*
X02945Y0236D02*
Y0239D01*
X03009Y02325D02*
X0301Y02325D01*
X0307Y0228D02*
Y02325D01*
X0301D02*
X0307D01*
X03009Y02385D02*
X0301Y02384D01*
X03044Y0265D02*
X03048Y02653D01*
X03025Y0265D02*
X03044D01*
X03016Y02658D02*
X03025Y0265D01*
X0305Y03435D02*
Y0346D01*
X0314Y02335D02*
X03146Y02328D01*
X03096Y02384D02*
X03105Y02376D01*
X0314Y0245D02*
X0315Y0246D01*
X03157Y0317D02*
X03158Y03169D01*
X03127D02*
Y03217D01*
X03186Y02268D02*
Y02328D01*
X0318Y0246D02*
Y02466D01*
X03239Y0246D02*
Y02466D01*
X03218Y02488D02*
X03239Y02466D01*
X0318D02*
X03205Y02492D01*
X03218Y0267D02*
X03221Y02673D01*
Y0272*
X0323Y03455D02*
X03235Y0346D01*
X03175Y03455D02*
X0323D01*
X03235Y03519D02*
X03238Y03515D01*
X0326Y0246D02*
X03273Y02446D01*
X03305Y03D02*
X03305Y03D01*
X03305Y03D02*
Y0303D01*
X03355Y0233D02*
X03379D01*
X0339Y0234*
X03353Y02391D02*
X03355Y02389D01*
X03359Y03D02*
X03359D01*
X03433Y02952D02*
X03435Y02951D01*
X0377Y02625D02*
X03776Y02631D01*
X0377Y02605D02*
Y02625D01*
X03772Y02701D02*
X03776Y02698D01*
X0377Y02725D02*
X03772Y02722D01*
Y02701D02*
Y02722D01*
X03775Y02845D02*
X03775Y02845D01*
X03775Y0287D02*
X0378Y02875D01*
X03775Y02845D02*
Y0287D01*
Y02965D02*
X03775Y02965D01*
X03775Y02991D02*
X03778Y02995D01*
X0377Y03048D02*
X03774Y03051D01*
X0377Y03025D02*
Y03048D01*
X03775Y03175D02*
Y03205D01*
X03834Y02785D02*
Y02805D01*
Y03325D02*
X0386D01*
X04146Y02923D02*
Y02956D01*
X0415Y02959*
X04815Y03913D02*
X04855Y03953D01*
X02945Y0236D02*
X0298Y02325D01*
X03105Y02225D02*
Y02376D01*
X0311Y03235D02*
X03127Y03217D01*
X03186Y02268D02*
X0319Y02265D01*
X03218Y02488D02*
Y0267D01*
X03235Y0252D02*
Y02655D01*
X03273Y02391D02*
Y02446D01*
X03305Y03D02*
X0332Y02984D01*
X03375Y02435D02*
X0339Y0242D01*
X03769Y02905D02*
X0377Y02905D01*
Y0293*
X03775Y02965D02*
Y02991D01*
X03775Y03145D02*
Y03175D01*
X03829Y02425D02*
D01*
Y02485*
X04692Y02522D02*
Y02624D01*
X0292Y02293D02*
Y02417D01*
X02932Y02298D02*
Y02407D01*
X0301Y02384D02*
Y02435D01*
X0307Y02384D02*
Y02455D01*
X03016Y02658D02*
Y0272D01*
X03048Y02653D02*
Y0272D01*
X03064Y02561D02*
Y0272D01*
X03079Y02554D02*
Y0272D01*
X03032Y02652D02*
Y0272D01*
X03095Y0254D02*
Y0272D01*
X0314Y02335D02*
Y0245D01*
X03111Y02536D02*
Y0272D01*
X0311Y03235D02*
Y03455D01*
X03205Y02492D02*
Y0272D01*
X0319Y02575D02*
Y0272D01*
X0339Y0234D02*
Y0242D01*
X03095Y03169D02*
Y03389D01*
X0482Y04153D02*
X04855Y04118D01*
X02793Y03515D02*
X0285D01*
X0298Y02325D02*
X03009D01*
X03146Y02328D02*
X03186D01*
X0297Y02385D02*
X03009D01*
X0307Y02384D02*
X03096D01*
X0315Y0246D02*
X0318D01*
X0305Y03435D02*
X03095Y03389D01*
X0298Y0346D02*
X0305D01*
X03273Y02391D02*
X03353D01*
X03239Y0246D02*
X0326D01*
X0332Y02435D02*
X03375D01*
X03359Y02921D02*
X03491D01*
X03359Y02952D02*
X03433D01*
X03305Y0303D02*
X03322Y03047D01*
X03359*
X03305Y03D02*
X03359D01*
X03235Y0346D02*
X03295D01*
X03595Y03025D02*
X0377D01*
X039Y02995D02*
X03964Y03059D01*
X0415*
X04684Y03037D02*
X04692Y03045D01*
X0292Y02417D02*
X03064Y02561D01*
X0301Y02435D02*
X03111Y02536D01*
X0307Y02455D02*
X0319Y02575D01*
X02945Y0239D02*
X03095Y0254D01*
X02932Y02407D02*
X03079Y02554D01*
X03235Y0252D02*
X0332Y02435D01*
X0332Y02984D02*
X03359D01*
X03677Y02425D02*
X0377D01*
X03955Y02545D02*
X0401Y0249D01*
X0386Y03325D02*
X03891Y03293D01*
X0426Y03105D02*
X04328Y03037D01*
X0466Y0249D02*
X04692Y02522D01*
X03871Y02631D02*
X04049Y02809D01*
X03921Y02698D02*
X04146Y02923D01*
X02855Y0346D02*
X0298D01*
X03829Y02545D02*
X03955D01*
X03776Y02631D02*
X03871D01*
X03776Y02698D02*
X03921D01*
X04049Y02809D02*
X0425D01*
X0378Y02875D02*
X0387D01*
X03778Y02995D02*
X039D01*
X0345Y02652D02*
X03677Y02425D01*
X03491Y02921D02*
X03595Y03025D01*
X03575Y02355D02*
X04765D01*
X0401Y0249D02*
X0466D01*
X04328Y03037D02*
X04684D01*
X03359Y02905D02*
X03769D01*
X04445Y03613D02*
X04534D01*
X04618D02*
X04708D01*
X04618Y03613D02*
Y03613D01*
X04792D02*
X04882D01*
X04792Y03613D02*
Y03613D01*
G54D14*
X03025Y03242D02*
X03032Y03235D01*
X03025Y03242D02*
Y03425D01*
X03235Y03519D02*
Y03565D01*
X03295Y034D02*
Y03452D01*
X03298Y03455*
X03294Y03459D02*
X03298Y03455D01*
X0298Y0336D02*
Y0345D01*
X02985Y03455*
X0298Y0346D02*
X02985Y03455D01*
X03245Y0335D02*
D01*
X03405Y0319D02*
X03425D01*
X03245Y0335D02*
X03405Y0319D01*
X03294Y03459D02*
X03295Y0346D01*
X0132Y0357D02*
Y03715D01*
X0132Y03714D02*
X01405D01*
X0132Y03715D02*
X0132Y03714D01*
X0118Y04045D02*
X0132Y03905D01*
Y03715D02*
Y03905D01*
Y0357D02*
X0136Y0353D01*
X01398*
X0305Y03519D02*
Y03545D01*
X0303Y03565D02*
X0305Y03545D01*
X0348Y0346D02*
X03715D01*
X03415D02*
X0348D01*
X0183Y04611D02*
X01848Y0463D01*
X01905*
X0183Y04275D02*
Y04611D01*
X01985Y0496D02*
X02145D01*
X04535Y0422D02*
Y0433D01*
X0231Y0339D02*
Y03655D01*
X0363Y03825D02*
Y0401D01*
X0365Y0403*
X03714Y03973D02*
X03853D01*
X04215Y04131D02*
X04215Y04131D01*
X04215Y04131D02*
Y0417D01*
X04746Y03669D02*
X04791D01*
X04792Y03668*
X0457Y0367D02*
X04617D01*
X04618Y03668*
X04443Y0367D02*
X04445Y03668D01*
X0439Y0367D02*
X04443D01*
X0429Y04076D02*
X04292Y04078D01*
X04293Y04077D02*
X04344D01*
X04292Y04078D02*
X04293Y04077D01*
X0377Y04142D02*
Y04255D01*
X03714Y04023D02*
X03853D01*
X03653Y04027D02*
X0371D01*
X03651Y0403D02*
X03653Y04027D01*
X0365Y0403D02*
X03651D01*
X0377Y04255D02*
X0387Y04355D01*
X0371Y04027D02*
X03714Y04023D01*
X0348Y03519D02*
Y0358D01*
X0355Y0365*
X0279Y034D02*
Y03449D01*
X02795Y03454*
X02785Y03235D02*
X03032D01*
X02735Y03185D02*
X02785Y03235D01*
X0371Y0441D02*
Y0474D01*
Y04375D02*
Y0441D01*
X04078*
X04116Y04447*
X04076Y04452D02*
Y04502D01*
X0371Y0418D02*
Y04375D01*
X0362Y0413D02*
X03634D01*
X03607Y04117D02*
X0362Y0413D01*
X03575Y0382D02*
X03607Y03852D01*
Y04117*
X03634Y0413D02*
X03645Y04141D01*
X0371Y04141D02*
X0371Y04141D01*
X0371Y04141D02*
Y0418D01*
X04565Y042D02*
Y0429D01*
X0287Y0377D02*
X03469D01*
X03469*
X02795Y0382D02*
X03575D01*
X02785Y03845D02*
X0343D01*
X0267Y0373D02*
X02785Y03845D01*
X0269Y03715D02*
X02795Y0382D01*
X02632Y03717D02*
X0278Y03865D01*
X0341*
X03715Y03855D02*
X0377D01*
X0279Y0379D02*
X0365D01*
X03715Y03855*
X03775Y03085D02*
Y0311D01*
X0377Y03115D02*
X03775Y0311D01*
X03735Y03115D02*
X0377D01*
X03735Y03325D02*
X03775D01*
X03355Y03455D02*
X0341D01*
X03415Y0346*
X03715D02*
X03735Y0344D01*
Y03325D02*
Y0344D01*
X04845Y0375D02*
X04882Y03712D01*
X0279Y0375D02*
X04845D01*
X02775Y03735D02*
X0279Y0375D01*
X0271Y0371D02*
X0279Y0379D01*
X02395Y0354D02*
X026D01*
X0267Y0366D02*
Y0373D01*
X02625Y03615D02*
X0267Y0366D01*
X02393Y03243D02*
X02553D01*
X0273Y0342D02*
Y03575D01*
X02553Y03243D02*
X0273Y0342D01*
X02393Y03302D02*
X02582D01*
X0271Y0343D02*
Y0371D01*
X02582Y03302D02*
X0271Y0343D01*
X02611Y03361D02*
X0269Y0344D01*
Y03715*
X0258Y03717D02*
X02632D01*
X0273Y03575D02*
X02865Y0371D01*
X04529*
X04534Y03676D02*
Y03704D01*
X04529Y0371D02*
X04534Y03704D01*
X04692Y03731D02*
X04708Y03715D01*
X0283Y03731D02*
X04692D01*
X04882Y03676D02*
Y03712D01*
X01685Y03538D02*
X0174D01*
X02569Y0366D02*
X02625D01*
X04708Y03676D02*
Y03715D01*
X0323Y0393D02*
Y04035D01*
X04331Y04507D02*
X04343D01*
X02393Y03538D02*
X02395Y0354D01*
X02582Y0377D02*
X0263D01*
X0258Y03772D02*
X02582Y0377D01*
X03085Y0361D02*
X03155D01*
X03015D02*
X03085D01*
X02735Y03084D02*
Y03185D01*
X02789Y0346D02*
X02795Y03454D01*
X02789Y0346D02*
X0279Y0346D01*
X0298Y03537D02*
Y03575D01*
X03015Y0361*
X03155D02*
X03175Y0359D01*
Y03514D02*
Y0359D01*
X0298Y03537D02*
X03032D01*
X0305Y03519*
X02912Y0352D02*
X02922Y03531D01*
X02933*
X02939Y03537*
X0298*
X02689Y03084D02*
X02735D01*
X02675Y0307D02*
X02689Y03084D01*
X02675Y03045D02*
Y0307D01*
X02305Y02785D02*
X02305Y02785D01*
X02305Y0273D02*
Y02785D01*
X01854Y04843D02*
X01855Y04843D01*
Y04795D02*
Y04843D01*
X01445Y0405D02*
Y0418D01*
X0118Y04045D02*
X01439D01*
X01445Y0405*
Y0418D02*
X0146Y04195D01*
X0175*
X0183Y04275*
X01925Y04838D02*
X01978D01*
X02Y0486D02*
Y04945D01*
X01978Y04838D02*
X02Y0486D01*
X0167Y0496D02*
X01985D01*
X02Y04945*
X01465Y04755D02*
X0167Y0496D01*
X02393Y03361D02*
X02611D01*
X04895Y04467D02*
X04896Y04465D01*
X04895Y04467D02*
Y04515D01*
X02394Y0348D02*
X02475D01*
X02393Y0342D02*
X02505D01*
X02394Y03715D02*
X02455D01*
X04895Y04617D02*
X04896Y04615D01*
X04895Y04617D02*
Y0467D01*
X0153Y03535D02*
Y03594D01*
X02393Y03715D02*
X02394Y03715D01*
X02569Y03597D02*
Y0366D01*
X02567Y03595D02*
X02569Y03597D01*
X02393Y03656D02*
X02507D01*
X0251Y0366*
X02515Y03664D02*
Y03717D01*
X0251Y0366D02*
X02515Y03664D01*
Y03717D02*
X0258D01*
X02393Y0342D02*
X02393Y0342D01*
X01915Y0268D02*
X01954D01*
X01891Y02556D02*
Y02785D01*
Y02556D02*
X02107Y0234D01*
X04149Y04131D02*
Y04185D01*
Y04131D02*
X0415Y04131D01*
X0201Y0263D02*
Y0268D01*
X0195Y02784D02*
X0195Y02785D01*
X0195Y0273D02*
Y02784D01*
X01404Y03714D02*
Y03782D01*
X01435Y04755D02*
X01465D01*
X02675Y04795D02*
Y04895D01*
X02175Y04745D02*
X02282D01*
X02145Y04775D02*
X02175Y04745D01*
X02145Y04775D02*
Y04812D01*
X02476Y0482D02*
X0248Y04816D01*
X0238Y0482D02*
X02476D01*
X02365Y04749D02*
Y04805D01*
X0238Y0482*
X02282Y04745D02*
X0236D01*
X02365Y04749*
X02903Y043D02*
Y04436D01*
X02995Y04528*
Y04579*
X0319Y043D02*
X03267D01*
X03096D02*
X0319D01*
X03267D02*
X0335Y04217D01*
Y04206D02*
Y04217D01*
X0319Y043D02*
X0335Y0446D01*
Y04741*
X02995Y0487D02*
X03348D01*
X0335Y04869*
X02282Y04645D02*
X02674D01*
X02675Y04644*
X03928Y02245D02*
Y02309D01*
X0389Y0282D02*
Y02845D01*
X01224Y02389D02*
X01344Y02269D01*
X0119Y02389D02*
X01224D01*
X0118Y024D02*
X0119Y02389D01*
X01344Y02269D02*
X01437Y02176D01*
X03556*
X03625Y02245D02*
X03928D01*
X03556Y02176D02*
X03625Y02245D01*
X03928D02*
X0409D01*
X02127Y02595D02*
X02383Y0234D01*
X02127Y02595D02*
Y02785D01*
X02068Y02516D02*
X02245Y0234D01*
X02068Y02516D02*
Y02785D01*
X02107Y0234D02*
D01*
X0197D02*
D01*
X01832Y02477D02*
Y02785D01*
Y02477D02*
X0197Y0234D01*
X01773Y02398D02*
Y02785D01*
Y02398D02*
X01832Y0234D01*
X016Y02434D02*
Y02805D01*
X01624Y02829D02*
X01685D01*
X016Y02805D02*
X01624Y02829D01*
X016Y02434D02*
X01694Y0234D01*
X01165Y02649D02*
D01*
X01463Y02947D02*
X01685D01*
X01165Y02649D02*
X01463Y02947D01*
X01165Y02787D02*
D01*
X01384Y03006D02*
X01685D01*
X01165Y02787D02*
X01384Y03006D01*
X01165Y02925D02*
D01*
X01305Y03065D02*
X01685D01*
X01165Y02925D02*
X01305Y03065D01*
X01165Y03063D02*
D01*
X01226Y03125D02*
X01685D01*
X01165Y03063D02*
X01226Y03125D01*
X01181Y03185D02*
X01684D01*
X01165Y03201D02*
X01181Y03185D01*
X01165Y03614D02*
D01*
X01419Y0336D02*
X01683D01*
X01165Y03614D02*
X01419Y0336D01*
X01341Y033D02*
X01682D01*
X01165Y03476D02*
X01341Y033D01*
X01165Y03476D02*
D01*
Y03338D02*
X0126Y03243D01*
X01685*
X01235Y03585D02*
X01399Y0342D01*
X01685*
X01375Y03479D02*
X01685D01*
X0126Y03595D02*
Y03795D01*
Y03595D02*
X01375Y03479D01*
X01165Y0389D02*
X0126Y03795D01*
X01235Y03585D02*
Y03682D01*
X01165Y03752D02*
X01235Y03682D01*
X01683Y0336D02*
X01685Y03361D01*
X01682Y033D02*
X01685Y03302D01*
X01684Y03185D02*
X01685Y03184D01*
X01556Y0234D02*
Y02821D01*
X01623Y02888D02*
X01685D01*
X01556Y02821D02*
X01623Y02888D01*
X02393Y02829D02*
X02525D01*
X02796Y0234D02*
Y02558D01*
X02525Y02829D02*
X02796Y02558D01*
X02187Y02674D02*
Y02785D01*
Y02674D02*
X02521Y0234D01*
D01*
X02009Y0268D02*
Y02785D01*
Y0268D02*
X0201Y0268D01*
X02246Y02785D02*
X02252Y02779D01*
Y02746D02*
Y02779D01*
Y02746D02*
X02659Y0234D01*
X03715Y02965D02*
X03775D01*
X03715Y02785D02*
X03775D01*
X0377Y03911D02*
X03773Y03913D01*
X0371Y03968D02*
X03714Y03973D01*
X03768Y04085D02*
X0377Y04083D01*
X0371Y04085D02*
X03768D01*
X03798Y03913D02*
X03807Y03923D01*
X03853*
X0414Y03973D02*
X04148Y03965D01*
X04215Y04021D02*
X04217Y04023D01*
X04212D02*
X04215Y04021D01*
X04212Y04073D02*
X04215Y04075D01*
X0429Y03908D02*
X04295Y03903D01*
X04287Y03965D02*
X0429Y03963D01*
X04407Y04023D02*
X04412Y04018D01*
X0446Y03963D02*
X04465Y03968D01*
X03645Y04085D02*
X0371D01*
X03773Y03913D02*
X03798D01*
X0377Y04083D02*
X0378Y04073D01*
X03853*
X04174Y03923D02*
X04189Y03908D01*
X04295Y03903D02*
X04345D01*
X04189Y03908D02*
X0429D01*
X04066Y03923D02*
X04174D01*
X04148Y03965D02*
X04215D01*
X04287*
X0429Y03963D02*
X04352D01*
X04217Y04023D02*
X04352D01*
X04066D02*
X04212D01*
X04066Y03973D02*
X0414D01*
X04066Y04073D02*
X04212D01*
X04407Y03963D02*
X0446D01*
X04412Y04018D02*
X04465D01*
X04144Y04327D02*
Y0438D01*
X04136Y04387D02*
X04144Y0438D01*
X04116Y04447D02*
X04144D01*
X04146Y0445*
X04199Y04447D02*
X04231D01*
X042Y04567D02*
X04201Y04567D01*
X042Y04567D02*
Y04607D01*
X04246Y04392D02*
X04301D01*
X04256Y04451D02*
X04257Y04452D01*
X04301*
X04247Y04432D02*
X04301D01*
X04331Y04507D02*
X04332Y04506D01*
X04343Y04507D02*
X04352Y04499D01*
X04371Y04527D02*
X04372Y04527D01*
X04381Y04552D02*
X04392Y04542D01*
X04339Y04653D02*
Y04685D01*
X04325Y04783D02*
X04326Y04783D01*
X04424Y04569D02*
Y04602D01*
X04421Y04566D02*
X04424Y04569D01*
Y04602D02*
X04424Y04602D01*
X04461*
X04461Y04602*
X04424Y04653D02*
Y047D01*
X0446Y04684D02*
X04461Y04682D01*
X0446Y04684D02*
Y04704D01*
X04424Y04653D02*
X04461D01*
X04427Y04736D02*
Y04783D01*
X04536Y04412D02*
X04536Y04412D01*
X04598Y04373D02*
X04599Y04374D01*
X04595Y04452D02*
X04601Y04446D01*
X04646Y04382D02*
X04691D01*
X04646Y04438D02*
X04654Y04445D01*
X04691Y04522D02*
X04691Y04522D01*
X04646Y04487D02*
Y04535D01*
Y0459D02*
X04653Y04597D01*
X04734Y0434D02*
Y0437D01*
X04726Y04332D02*
X04734Y0434D01*
X04735Y04522D02*
X04735Y04522D01*
X04894Y04407D02*
X04896Y0441D01*
X04146Y0445D02*
Y04507D01*
X04251Y04482D02*
Y04507D01*
X04281Y04577D02*
Y04639D01*
X04251Y04562D02*
Y04582D01*
X04281Y04639D02*
X04295Y04653D01*
X04281Y04577D02*
X04306Y04552D01*
X04332Y04483D02*
Y04483D01*
Y04483D02*
Y04506D01*
X04352Y04483D02*
Y04499D01*
X04372Y04483D02*
X04372Y04483D01*
X04326Y04723D02*
Y04783D01*
Y04723D02*
X04326Y04722D01*
X04339Y04685D02*
X04376Y04722D01*
Y04783*
X04411Y04412D02*
Y04483D01*
X04427Y04736D02*
X0446Y04704D01*
X04601Y04402D02*
Y04446D01*
Y04402D02*
X04618Y04385D01*
X04896Y04559D02*
X04896Y0456D01*
X04372Y04483D02*
Y04527D01*
X04392Y04483D02*
Y04542D01*
X04076Y04593D02*
X04077Y04594D01*
Y04623*
X04241Y04387D02*
X04246Y04392D01*
X04482Y04373D02*
Y04373D01*
X04231Y04447D02*
X04247Y04432D01*
X04482Y04412D02*
Y04412D01*
X04306Y04552D02*
X04381D01*
X04251Y04507D02*
X04331D01*
X04481Y04632D02*
D01*
X043Y04627D02*
X04339D01*
X04295Y04653D02*
X04339D01*
X04643Y04385D02*
X04646Y04382D01*
X04618Y04385D02*
X04643D01*
X04646Y04332D02*
X04726D01*
X04654Y04445D02*
X04734D01*
X04644Y04532D02*
X04646Y04535D01*
X04599Y04532D02*
X04644D01*
X04691Y04522D02*
X04735D01*
X04653Y04597D02*
X04735D01*
X04077Y04623D02*
X04091Y04637D01*
X04392Y04392D02*
X04411Y04412D01*
X04402Y04722D02*
Y04783D01*
Y04722D02*
X04424Y047D01*
X04461Y04653D02*
X04481Y04632D01*
X04199Y04387D02*
X04241D01*
X04482Y04392D02*
X04566D01*
X04482Y04373D02*
X04598D01*
X04199Y04327D02*
X04256D01*
X04482Y04412D02*
X04536D01*
X04828Y04407D02*
X04894D01*
X04482Y04452D02*
X04595D01*
X04146Y04507D02*
X04201D01*
X04251*
X04146Y04567D02*
X04201D01*
X04196Y04637D02*
X04251Y04582D01*
X04091Y04637D02*
X04196D01*
X04829Y04559D02*
X04896D01*
X01405Y03655D02*
X01407Y03653D01*
X01529Y03595D02*
X0153Y03594D01*
X01585Y03595D02*
D01*
Y03535D02*
Y03595D01*
X01407D02*
Y03653D01*
X02393Y03479D02*
X02394Y0348D01*
X02393Y03597D02*
X02396Y03595D01*
X02512*
X04149Y04185D02*
X0415Y04185D01*
X03186Y02391D02*
X03191D01*
X03273Y02328D02*
X03275Y0233D01*
X03273Y02288D02*
Y02328D01*
X03355Y0342D02*
Y03455D01*
X03735Y02545D02*
X0377D01*
X03829Y02605D02*
X0387D01*
X03829Y02725D02*
X0387D01*
X03834Y03085D02*
X03834Y03085D01*
Y03265D02*
X03875D01*
X0298Y0346D02*
Y03462D01*
X0311Y03514D02*
Y0356D01*
X03255Y02346D02*
X03273Y02328D01*
X03775Y03265D02*
Y03325D01*
X03834Y02665D02*
X0387D01*
X03834Y03145D02*
Y03205D01*
Y03085D02*
Y03145D01*
Y03205D02*
Y03265D01*
X0397Y02785D02*
X0401Y02825D01*
X0415Y02859D02*
X04195Y02905D01*
X04245D02*
X0425Y02909D01*
X03191Y02391D02*
X03237Y02346D01*
X03275Y0233D02*
X03355D01*
X03237Y02346D02*
X03255D01*
X03249Y02265D02*
X03273Y02288D01*
X04195Y02905D02*
X04245D01*
X03834Y02785D02*
X0397D01*
X0171Y04707D02*
X01726Y04723D01*
X01657Y04355D02*
Y04387D01*
X0171Y0444*
Y04533*
X01435Y0444D02*
Y04505D01*
Y0444D02*
X01461Y04413D01*
X01466*
X01492Y04387*
Y04355D02*
Y04387D01*
G54D20*
X03829Y02425D03*
X0377D03*
Y02485D03*
X03829D03*
X0377Y02545D03*
X03829D03*
Y02605D03*
X0377D03*
X03829Y02725D03*
X0377D03*
X03829Y02905D03*
X0377D03*
X03829Y03025D03*
X0377D03*
X0318Y0246D03*
X03239D03*
X03834Y03325D03*
X03775D03*
G54D21*
X03775Y02665D03*
X03834D03*
Y02785D03*
X03775D03*
X03834Y02845D03*
X03775D03*
X03834Y02965D03*
X03775D03*
X03834Y03085D03*
X03775D03*
X03834Y03145D03*
X03775D03*
X03834Y03205D03*
X03775D03*
X03834Y03265D03*
X03775D03*
X03249Y02265D03*
X0319D03*
X0251Y0366D03*
X02569D03*
X04199Y04387D03*
X04136D03*
X01461Y0353D03*
X01398D03*
G54D22*
X03355Y0233D03*
Y02389D03*
X03415Y03519D03*
Y0346D03*
X03295Y03519D03*
Y0346D03*
X03235Y03519D03*
Y0346D03*
X0305Y03519D03*
Y0346D03*
X02912Y0352D03*
Y03461D03*
X0279Y03519D03*
Y0346D03*
X0377Y04083D03*
Y04142D03*
Y03968D03*
Y04027D03*
X0371Y03968D03*
Y04027D03*
X04882Y03613D03*
Y03676D03*
X04708Y03613D03*
Y03676D03*
X04534Y03613D03*
Y03676D03*
X04465Y03968D03*
Y03909D03*
Y04018D03*
Y04077D03*
X0415Y04185D03*
Y04244D03*
X04215Y03907D03*
Y03848D03*
X02365Y0469D03*
Y04749D03*
X01911Y04632D03*
Y04691D03*
X01925Y04901D03*
Y04838D03*
X01404Y03845D03*
Y03782D03*
X01585Y03655D03*
Y03714D03*
X01525Y03655D03*
Y03714D03*
X01465Y03655D03*
Y03714D03*
X01405Y03655D03*
Y03714D03*
X04201Y04567D03*
Y04507D03*
X04146Y04567D03*
Y04507D03*
X02735Y03084D03*
Y03025D03*
X0301Y02384D03*
Y02325D03*
X0307Y02384D03*
Y02325D03*
G54D23*
X02512Y03595D03*
X02567D03*
X04144Y04447D03*
X04199D03*
X04144Y04327D03*
X04199D03*
X04407Y03963D03*
X04352D03*
X04407Y04023D03*
X04352D03*
X01585Y03595D03*
X01529D03*
X01462D03*
X01407D03*
X01954Y0268D03*
X0201D03*
G54D24*
X0348Y03519D03*
Y0346D03*
X03175Y03514D03*
Y03455D03*
X0311D03*
Y03514D03*
G54D25*
X03355Y03515D03*
Y03455D03*
X0285Y03515D03*
Y03455D03*
G54D26*
X0298Y03537D03*
Y03462D03*
G54D27*
X03645Y04085D03*
Y04141D03*
X0371Y04085D03*
Y04141D03*
X0377Y03911D03*
Y03855D03*
X04896Y0456D03*
Y04615D03*
Y0441D03*
Y04465D03*
X04646Y04535D03*
Y0459D03*
Y04382D03*
Y04438D03*
X04792Y03668D03*
Y03613D03*
X04618Y03668D03*
Y03613D03*
X04445Y03668D03*
Y03613D03*
X0429Y0402D03*
Y04076D03*
Y03908D03*
Y03963D03*
X04215Y04131D03*
Y04075D03*
X0415Y04131D03*
Y04075D03*
X04215Y04021D03*
Y03965D03*
X02145Y04812D03*
Y04867D03*
X0221D03*
Y04812D03*
X01854Y04898D03*
Y04843D03*
X01475Y03837D03*
Y03782D03*
X02515Y03772D03*
Y03717D03*
X0258Y03772D03*
Y03717D03*
G54D28*
X04076Y04593D03*
Y04502D03*
X04559Y04035D03*
X04585D03*
X0461D03*
Y03951D03*
X04559D03*
X04585D03*
G54D29*
X04829Y04559D03*
X04735Y04522D03*
Y04597D03*
X04828Y04407D03*
X04734Y0437D03*
Y04445D03*
G54D30*
X02995Y04579D03*
Y0487D03*
G54D31*
X0248Y04816D03*
Y04643D03*
X0171Y04706D03*
Y04533D03*
X0335Y04206D03*
Y04033D03*
G54D32*
X02282Y04595D03*
Y04645D03*
Y04695D03*
Y04745D03*
X02067Y04595D03*
Y04645D03*
Y04695D03*
Y04745D03*
G54D33*
X01985Y04605D03*
Y04695D03*
G54D34*
X0183Y04708D03*
Y04611D03*
G54D35*
X0108Y04605D03*
X0136Y04105D03*
Y04315D03*
X0409Y02245D03*
X03928D03*
X0323Y0393D03*
X01344Y02269D03*
X0335Y0446D03*
X0465Y0472D03*
G54D36*
X04066Y03923D03*
Y03973D03*
Y04023D03*
Y04073D03*
X03853Y03923D03*
Y03973D03*
Y04073D03*
Y04023D03*
G54D37*
X04482Y04452D03*
Y04432D03*
Y04412D03*
Y04392D03*
Y04373D03*
Y04353D03*
Y04333D03*
X04301D03*
Y04353D03*
Y04373D03*
Y04392D03*
Y04412D03*
Y04432D03*
Y04452D03*
G54D38*
X04451Y04302D03*
X04431D03*
X04411D03*
X04392D03*
X04372D03*
X04352D03*
X04332D03*
Y04483D03*
X04352D03*
X04372D03*
X04392D03*
X04431D03*
X04451D03*
X04411D03*
G54D39*
X04392Y04392D03*
G54D40*
X04424Y04653D03*
Y04627D03*
Y04602D03*
X04339D03*
Y04653D03*
Y04627D03*
G54D41*
X04427Y04783D03*
X04402D03*
X04376D03*
X04351D03*
X04325D03*
G54D42*
X01685Y03715D03*
X02393D03*
X01685Y03656D03*
Y03597D03*
Y03538D03*
Y03479D03*
Y0342D03*
Y03361D03*
Y03302D03*
Y03243D03*
Y03184D03*
Y03125D03*
Y03065D03*
Y03006D03*
Y02947D03*
Y02888D03*
Y02829D03*
X02393Y03656D03*
Y03597D03*
Y03538D03*
Y03479D03*
Y0342D03*
Y03361D03*
Y03302D03*
Y03243D03*
Y03184D03*
Y03125D03*
Y03065D03*
Y03006D03*
Y02947D03*
Y02888D03*
Y02829D03*
G54D43*
X02305Y02785D03*
X01773D03*
X01832D03*
X01891D03*
X0195D03*
X02246D03*
X02187D03*
X02127D03*
X02068D03*
X02009D03*
G54D44*
X03359Y02984D03*
Y03D03*
Y03047D03*
X0291Y03063D03*
X03359Y02795D03*
Y02811D03*
Y02826D03*
Y02842D03*
Y02858D03*
Y02874D03*
Y02889D03*
Y02905D03*
Y02921D03*
Y02937D03*
Y02952D03*
Y02968D03*
Y03015D03*
Y03031D03*
Y03063D03*
Y03078D03*
Y03094D03*
X0291D03*
Y03078D03*
Y03047D03*
Y03031D03*
Y03015D03*
Y03D03*
Y02984D03*
Y02968D03*
Y02952D03*
Y02937D03*
Y02921D03*
Y02905D03*
Y02889D03*
Y02874D03*
Y02858D03*
Y02842D03*
Y02826D03*
Y02811D03*
Y02795D03*
G54D45*
X03111Y03169D03*
X03079D03*
X03064D03*
X03048D03*
X03032D03*
X03016Y0272D03*
X03032D03*
X03048D03*
X03095D03*
X03284Y03169D03*
X03268D03*
X03253D03*
X03237D03*
X03221D03*
X03205D03*
X0319D03*
X03174D03*
X03158D03*
X03142D03*
X03127D03*
X03095D03*
X03016D03*
X03001D03*
X02985D03*
Y0272D03*
X03001D03*
X03064D03*
X03079D03*
X03111D03*
X03127D03*
X03142D03*
X03158D03*
X03174D03*
X0319D03*
X03205D03*
X03221D03*
X03237D03*
X03253D03*
X03268D03*
X03284D03*
G54D46*
X03186Y02391D03*
X03273Y02328D03*
X03186D03*
X03273Y02391D03*
G54D47*
X0335Y04869D03*
Y04741D03*
G54D48*
X02675Y04795D03*
Y04644D03*
G54D49*
X01657Y04355D03*
X01492D03*
G54D50*
X03096Y043D03*
X02903D03*
G54D101*
X01405Y03656D02*
X01684D01*
X01405Y03715D02*
X01684D01*
X01475Y03782D02*
X01522D01*
X0135Y03655D02*
X01405D01*
X0135Y03655D02*
X0135Y03655D01*
X01854Y04898D02*
X01856Y049D01*
X01923*
X01925Y04901*
X02675Y04895D02*
X0297D01*
X02355D02*
X02675D01*
X0297D02*
X02995Y0487D01*
X02272Y04812D02*
X02355Y04895D01*
X01405Y03655D02*
X01405Y03656D01*
X01405Y03714D02*
X01405Y03715D01*
X01462Y03594D02*
X01462Y03595D01*
X01461Y0353D02*
X01462Y0353D01*
Y03594*
X01683Y03596D02*
X01685Y03597D01*
X01585Y03595D02*
X01586Y03596D01*
X01683*
X01684Y03656D02*
X01685Y03656D01*
X01684Y03715D02*
X01685Y03715D01*
X0221Y04812D02*
X02272D01*
X02067Y04595D02*
X02282D01*
Y04695D02*
X02283Y04694D01*
X0236*
X02365Y0469*
X0201Y04745D02*
X02067D01*
X01995Y0476D02*
Y0482D01*
Y0476D02*
X0201Y04745D01*
X02042Y04867D02*
X02145D01*
X01995Y0482D02*
X02042Y04867D01*
X01987Y0461D02*
X02022Y04645D01*
X02067*
X01985Y0461D02*
X01987D01*
Y04615D02*
X02007Y04595D01*
X02145Y04867D02*
X0221D01*
X02145D02*
D01*
X02007Y04595D02*
X02067D01*
X01985Y04705D02*
X01994Y04695D01*
X01983Y04701D02*
X01985Y047D01*
X02067Y04695D02*
X02067Y04695D01*
X01994Y04695D02*
X02067D01*
G54D102*
X0191Y04705D02*
X01975D01*
X03407Y03965D02*
X0355D01*
X0335Y04022D02*
X03407Y03965D01*
X0335Y04022D02*
Y04033D01*
X02515Y03772D02*
Y04105D01*
X03231Y04033D02*
X0335D01*
X0323Y04035D02*
X03231Y04033D01*
X01026Y042D02*
Y04551D01*
X0108Y04605*
X01235*
X0118Y025D02*
Y02562D01*
Y024D02*
Y025D01*
X01051Y0258D02*
X01162D01*
X0118Y02562*
X01026Y02605D02*
X01051Y0258D01*
X01026Y02605D02*
Y042D01*
X0108Y04145D02*
Y04146D01*
X01026Y042D02*
X0108Y04146D01*
X01235Y04605D02*
Y04715D01*
X01275Y04755D02*
X01435D01*
X01235Y04715D02*
X01275Y04755D01*
X0118Y04045D02*
Y04145D01*
X0108D02*
X0118D01*
X0108Y04045D02*
Y04145D01*
X0178Y04707D02*
X01829D01*
X0171D02*
X0178D01*
Y04785*
X0118Y04345D02*
X01321D01*
X01351Y04315*
X0136*
X0108Y04345D02*
X0118D01*
Y04245D02*
X01313Y04111D01*
X01353*
X0136Y04105*
X0108Y04245D02*
X0118D01*
X01975Y04705D02*
X01985Y04695D01*
X01833Y04705D02*
X0191D01*
X0183Y04708D02*
X01833Y04705D01*
X0171Y04706D02*
X0171Y04707D01*
X01829D02*
X0183Y04708D01*
G54D103*
X01404Y03845D02*
X01408Y03841D01*
X01471*
X01475Y03837*
G54D104*
X04773Y04053D03*
Y03813D03*
G54D105*
X04773Y04153D03*
Y03913D03*
G54D106*
X0387Y04355D03*
Y04715D03*
G54D107*
X0362Y04555D03*
Y04355D03*
X0387Y04555D03*
X0362Y04915D03*
Y04715D03*
X0387Y04915D03*
G54D108*
X01435Y04505D03*
Y04755D03*
G54D109*
X01235Y04605D03*
G54D110*
X01165Y02649D03*
Y02787D03*
Y02925D03*
Y03338D03*
Y03752D03*
Y03614D03*
Y03476D03*
Y03201D03*
Y03063D03*
X0118Y025D03*
X0108D03*
X0118Y024D03*
X0108Y04045D03*
Y04145D03*
X0118Y04045D03*
Y04145D03*
X0108Y04345D03*
X0118Y04245D03*
X0108D03*
X02796Y0234D03*
X02659D03*
X02521D03*
X02107D03*
X01694D03*
X01832D03*
X0197D03*
X02245D03*
X02383D03*
G54D111*
X01165Y0389D03*
X0108Y024D03*
X0118Y04345D03*
G54D112*
X04475Y04825D03*
X04278D03*
G54D113*
X04224Y04933D03*
X04529D03*
G54D114*
X0423Y04783D03*
X04523D03*
G54D115*
X01556Y0234D03*
G54D116*
X0425Y02709D03*
G54D117*
X0415Y02759D03*
X0425Y02809D03*
X0415Y02859D03*
X0425Y02909D03*
X0415Y02959D03*
X0425Y03009D03*
X0415Y03059D03*
G54D118*
X04692Y02624D03*
Y02724D03*
Y03145D03*
Y03045D03*
G54D119*
X045Y0311D03*
Y0266D03*
G54D120*
X04379Y03189D03*
Y0258D03*
G54D121*
X04815Y0226D03*
Y0488D03*
X0112D03*
Y0226D03*
G54D122*
X03492Y02809D03*
X0355Y02885D03*
X0351Y02865D03*
X0485Y047D03*
X048Y046D03*
X0485Y043D03*
X048Y042D03*
Y04D03*
X0485Y039D03*
Y037D03*
Y035D03*
X048Y034D03*
X047Y048D03*
X0475Y047D03*
X047Y042D03*
X0475Y041D03*
X047Y038D03*
X0475Y035D03*
X047Y034D03*
Y022D03*
X0465Y049D03*
X046Y048D03*
Y046D03*
X0465Y043D03*
X046Y042D03*
X0465Y041D03*
X046Y04D03*
X0465Y039D03*
X046Y038D03*
X0465Y035D03*
X046Y034D03*
X0465Y023D03*
X046Y022D03*
X0455Y047D03*
Y045D03*
Y041D03*
X045Y038D03*
X0455Y035D03*
X045Y034D03*
X0455Y023D03*
X045Y022D03*
X0445Y049D03*
X044Y038D03*
Y036D03*
X0445Y035D03*
X044Y034D03*
X0445Y023D03*
X044Y022D03*
X0435Y049D03*
Y041D03*
X043Y036D03*
X0435Y035D03*
X043Y034D03*
X0435Y023D03*
X043Y022D03*
X0425Y047D03*
Y043D03*
Y041D03*
X042Y038D03*
Y036D03*
X0425Y035D03*
X042Y034D03*
X0425Y023D03*
X042Y022D03*
X0415Y049D03*
X041Y048D03*
X0415Y047D03*
X041Y046D03*
Y044D03*
X0415Y039D03*
X041Y038D03*
Y036D03*
X0415Y035D03*
X041Y034D03*
X0415Y023D03*
X0405Y049D03*
X04Y048D03*
X0405Y047D03*
X04Y046D03*
X0405Y045D03*
Y043D03*
X04Y038D03*
Y036D03*
X0405Y035D03*
X04Y034D03*
X0405Y023D03*
X04Y022D03*
X0395Y049D03*
X039Y048D03*
X0395Y047D03*
X039Y046D03*
X0395Y043D03*
Y039D03*
X039Y038D03*
Y036D03*
X0395Y035D03*
X039Y034D03*
X0395Y023D03*
X039Y022D03*
X038Y046D03*
X0385Y045D03*
X038Y038D03*
X0385Y035D03*
Y023D03*
X038Y022D03*
X0375Y045D03*
Y043D03*
X037Y038D03*
X0375Y035D03*
X037Y024D03*
X0375Y023D03*
X0365Y045D03*
Y043D03*
Y039D03*
Y035D03*
X036Y034D03*
X0365Y033D03*
X036Y03D03*
Y024D03*
X0365Y023D03*
X0355Y049D03*
X035Y048D03*
X0355Y047D03*
X035Y046D03*
Y044D03*
X0355Y043D03*
X035Y042D03*
X0355Y035D03*
X035Y034D03*
X0355Y033D03*
X035Y032D03*
Y03D03*
X0355Y025D03*
X035Y024D03*
X034Y034D03*
X0345Y033D03*
X034Y026D03*
X0345Y025D03*
Y023D03*
X0335Y041D03*
X033Y028D03*
X0335Y027D03*
X033Y026D03*
X0335Y025D03*
X032Y048D03*
X0325Y033D03*
X032Y03D03*
X0325Y025D03*
X0315Y047D03*
X031Y046D03*
Y04D03*
X0315Y039D03*
Y029D03*
X031Y028D03*
X0305Y047D03*
Y045D03*
X03Y044D03*
Y042D03*
Y04D03*
X0305Y039D03*
X03Y03D03*
X0305Y029D03*
X03Y028D03*
Y026D03*
X0305Y025D03*
X0295Y047D03*
X029Y046D03*
Y044D03*
Y042D03*
Y04D03*
X0295Y039D03*
X029Y032D03*
X0295Y027D03*
X029Y026D03*
X0295Y025D03*
X029Y024D03*
Y022D03*
X0285Y047D03*
Y045D03*
X028Y044D03*
Y042D03*
Y04D03*
X0285Y039D03*
X028Y032D03*
Y03D03*
X0285Y029D03*
X028Y028D03*
X0285Y027D03*
X028Y026D03*
X0285Y025D03*
Y023D03*
X028Y022D03*
X0275Y045D03*
X027Y044D03*
X0275Y043D03*
X027Y042D03*
Y04D03*
X0275Y039D03*
X027Y03D03*
X0275Y029D03*
X027Y028D03*
X0275Y027D03*
X027Y026D03*
X0275Y025D03*
X027Y024D03*
X0275Y023D03*
X027Y022D03*
X0265Y045D03*
X026Y044D03*
X0265Y043D03*
X026Y042D03*
Y04D03*
X0265Y039D03*
Y037D03*
Y033D03*
Y031D03*
X026Y03D03*
X0265Y029D03*
X026Y028D03*
Y026D03*
X0265Y025D03*
X026Y022D03*
X0255Y045D03*
X025Y044D03*
X0255Y043D03*
X025Y042D03*
X0255Y039D03*
X025Y032D03*
X0255Y029D03*
X025Y028D03*
X0255Y027D03*
X025Y026D03*
X0255Y025D03*
X025Y024D03*
X0255Y023D03*
X025Y022D03*
X024Y048D03*
X0245Y045D03*
X024Y044D03*
X0245Y043D03*
X024Y042D03*
X0245Y039D03*
Y031D03*
Y027D03*
Y025D03*
X024Y024D03*
X0245Y023D03*
X024Y022D03*
X023Y048D03*
X0235Y045D03*
X023Y044D03*
X0235Y043D03*
X023Y042D03*
X0235Y033D03*
X023Y032D03*
X0235Y031D03*
X023Y03D03*
X0235Y029D03*
Y027D03*
X023Y026D03*
X0235Y023D03*
X023Y022D03*
X0225Y049D03*
Y045D03*
X022Y044D03*
X0225Y043D03*
X022Y042D03*
X0225Y037D03*
X022Y034D03*
X0225Y033D03*
X022Y032D03*
X0225Y031D03*
X022Y03D03*
X0225Y029D03*
Y027D03*
X022Y026D03*
Y022D03*
X021Y048D03*
X0215Y047D03*
Y045D03*
X021Y044D03*
X0215Y043D03*
X021Y042D03*
X0215Y037D03*
X021Y034D03*
X0215Y033D03*
X021Y032D03*
X0215Y031D03*
X021Y03D03*
X0215Y029D03*
Y027D03*
X021Y026D03*
X0215Y025D03*
X021Y024D03*
X0215Y023D03*
X021Y022D03*
X0205Y049D03*
Y045D03*
X02Y044D03*
X0205Y043D03*
X02Y042D03*
X0205Y037D03*
X02Y034D03*
X0205Y033D03*
X02Y032D03*
X0205Y031D03*
X02Y03D03*
X0205Y029D03*
Y025D03*
X02Y024D03*
X0205Y023D03*
X02Y022D03*
X019Y048D03*
X0195Y045D03*
X019Y044D03*
X0195Y043D03*
X019Y042D03*
X0195Y037D03*
X019Y034D03*
X0195Y033D03*
X019Y032D03*
X0195Y031D03*
X019Y03D03*
X0195Y029D03*
X019Y022D03*
X018Y044D03*
Y042D03*
X0185Y037D03*
X018Y034D03*
X0185Y033D03*
X018Y032D03*
X0185Y031D03*
X018Y03D03*
X0185Y029D03*
X018Y024D03*
Y022D03*
X0175Y049D03*
X017Y048D03*
Y046D03*
Y042D03*
X0175Y037D03*
Y033D03*
Y031D03*
Y029D03*
Y025D03*
X017Y024D03*
X0175Y023D03*
X017Y022D03*
X0165Y049D03*
X016Y048D03*
X0165Y047D03*
X016Y046D03*
Y042D03*
Y04D03*
Y038D03*
Y034D03*
X0165Y025D03*
X016Y024D03*
X0165Y023D03*
X016Y022D03*
X0155Y049D03*
Y047D03*
X015Y046D03*
X0155Y045D03*
X015Y042D03*
Y036D03*
Y034D03*
X0155Y031D03*
Y029D03*
X015Y028D03*
Y024D03*
Y022D03*
X0145Y049D03*
X014Y046D03*
Y042D03*
X0145Y041D03*
X014Y04D03*
X0145Y039D03*
Y035D03*
Y031D03*
Y029D03*
Y025D03*
X014Y024D03*
X0145Y023D03*
X014Y022D03*
X0135Y049D03*
X013Y048D03*
Y044D03*
Y042D03*
Y04D03*
X0135Y039D03*
X013Y038D03*
X0135Y025D03*
X013Y024D03*
Y022D03*
X0125Y049D03*
X012Y048D03*
X0125Y045D03*
X012Y044D03*
X0125Y043D03*
Y041D03*
Y039D03*
X012Y038D03*
X0125Y035D03*
X012Y034D03*
X0125Y033D03*
Y031D03*
X012Y03D03*
X0125Y029D03*
Y027D03*
Y025D03*
Y023D03*
X012Y022D03*
X0115Y047D03*
Y045D03*
X011Y044D03*
Y042D03*
X0115Y041D03*
X011Y038D03*
X0115Y037D03*
X011Y036D03*
Y034D03*
Y032D03*
Y03D03*
Y028D03*
X0115Y027D03*
X011Y026D03*
X03665Y0288D03*
X0371Y03D03*
X03535Y0293D03*
X03715Y03065D03*
X03465Y0294D03*
X03415Y03085D03*
X0371Y0343D03*
X03025Y03425D03*
X0291Y03565D03*
X03235D03*
X0372Y02485D03*
X0326Y02842D03*
X03295Y034D03*
X03235Y0311D03*
X03125Y02955D03*
X03237Y02775D03*
X03255Y02934D03*
X03175Y0334D03*
X0298Y0336D03*
X03245Y0335D03*
X03425Y0319D03*
X0279Y03553D03*
X0368Y0275D03*
X0303Y03565D03*
X0273Y02985D03*
X0357Y0391D03*
Y0395D03*
X0355Y03895D03*
Y0393D03*
X03205Y04065D03*
X03255Y0401D03*
Y04065D03*
X03205Y0401D03*
X02145Y04775D03*
Y0496D03*
X04505Y04285D03*
X04535Y0422D03*
X04515Y04545D03*
X0279Y034D03*
X0231Y0339D03*
Y03655D03*
X0363Y03825D03*
X0366Y03965D03*
X04215Y0417D03*
X04746Y03669D03*
X0457Y0367D03*
X0439D03*
X04344Y04077D03*
X0377Y04175D03*
X0365Y0403D03*
X0355Y0365D03*
X03155Y03265D03*
X0313Y0332D03*
X03205Y03295D03*
X04076Y04452D03*
X0371Y0474D03*
Y04375D03*
Y0418D03*
X04565Y042D03*
X0355Y03965D03*
X03469Y0377D03*
X0343Y03845D03*
X0341Y03865D03*
X03735Y03115D03*
Y03325D03*
X0287Y0377D03*
X026Y0354D03*
X02625Y03615D03*
X0283Y03731D03*
X0174Y0354D03*
X02625Y0366D03*
X02775Y03735D03*
X0263Y0377D03*
X03085Y0361D03*
X02675Y03045D03*
X02305Y0273D03*
X01855Y04795D03*
X04565Y0429D03*
X04535Y0433D03*
X04895Y04515D03*
X02475Y0348D03*
X02505Y0342D03*
X02455Y03715D03*
X04895Y0467D03*
X0153Y03535D03*
X02515Y04105D03*
X0323Y04035D03*
X01522Y03782D03*
X0135Y03655D03*
X01915Y0268D03*
X0201Y0263D03*
X0195Y0273D03*
X03928Y02309D03*
X0389Y0282D03*
Y03085D03*
Y02845D03*
X0391Y02935D03*
X03918Y0305D03*
X0387Y02965D03*
Y03025D03*
Y02905D03*
X03715Y02965D03*
Y02785D03*
X03716Y02665D03*
X03685Y0281D03*
X0365Y03175D03*
X0178Y04785D03*
X04465Y04128D03*
X04515Y03993D03*
X04465Y03873D03*
X04345Y03903D03*
X042Y04607D03*
X04256Y04451D03*
X043Y04627D03*
X04371Y04527D03*
X04461Y04602D03*
Y04682D03*
X04536Y04412D03*
X04599Y04374D03*
X04599Y04532D03*
X04691Y04382D03*
Y04522D03*
X04256Y04327D03*
X04421Y04566D03*
X04646Y04332D03*
X04251Y04482D03*
Y04562D03*
X04326Y04722D03*
X04481Y04632D03*
X04566Y04392D03*
X04646Y04487D03*
X02465Y0295D03*
Y03005D03*
Y03065D03*
X01585Y03535D03*
X02465Y0289D03*
X0297Y02385D03*
X0307Y0228D03*
X03032Y02652D03*
X03105Y02225D03*
X0311Y0356D03*
X03305Y03D03*
X03355Y0342D03*
X03435Y02951D03*
X0387Y02605D03*
Y02725D03*
Y02875D03*
X03466Y02665D03*
X0387D03*
X0401Y02825D03*
X04735Y02335D03*
X03095Y03D03*
X03735Y02545D03*
X03875Y03265D03*
X03235Y02655D03*
X04765Y02355D03*
G54D123*
X04435Y04349D03*
X04348D03*
X04435Y04436D03*
Y04392D03*
X04348Y04436D03*
Y04392D03*
X04392Y04349D03*
Y04436D03*
Y04392D03*
M02*