M48
;Layer_Color=9474304
;FILE_FORMAT=4:3
METRIC,LZ
;TYPE=PLATED
T1F00S00C0.200
T2F00S00C0.300
T4F00S00C0.600
T5F00S00C0.787
T7F00S00C0.890
T8F00S00C1.020
T9F00S00C1.100
T10F00S00C1.300
T11F00S00C1.500
T12F00S00C1.630
T13F00S00C3.000
;TYPE=NON_PLATED
T14F00S00C0.800
T15F00S00C3.250
%
T01
X0092169Y0110353
X0093269
Y0111453
Y0112553
X0092169
Y0111453
X0094369
Y0112553
Y0110353
T02
X011938Y005334
X012192
Y005842
X011938
X012065Y006096
X012319
Y006604
X012065
X011938Y006858
X012065Y007112
X012319
X012192Y007366
X011938
X012065Y00762
X012319
X012192Y007874
X011938
Y00635
X011684
X01143
X011557Y006604
X011811
X011684Y006858
X01143
X011176
X010922
X010668
X010414
X01016
X009906
X009652
X009398
X009144
X00889
X008636
X008382
X008128
X008255Y007112
X008509
X008763
X009017
X009271
X009525
X009779
X010033
X010287
X010541
X010795
X011049
X011303
X011557
X011811
X011684Y007366
X01143
X011557Y00762
X011811
X011684Y007874
X01143
X011176
X010922
X0109728Y0077089
X011303Y00762
X0103505Y0077089
X010414Y007874
X01016
X009906
X009652
X0097282Y0077089
X0091059
X009144Y007874
X00889
Y007366
X008636
X008382
X0084836Y0077089
X0080391Y0077872
X008001Y007112
X008255Y006604
X008128Y00635
X008255Y006096
X008128Y005842
X008255Y005588
X008382Y005334
X008636
X00889
X009144
X009398
X009652
X009906
X01016
X010414
X010668
X010922
X011176
X01143
X011684
X011811Y005588
X011557
X011684Y005842
X01143
X011176
X011049Y006096
X010795
X010541
X010414Y005842
X01016
X009906
X009525Y006096
X009271
Y006604
X009525
X01016Y00635
X010795Y006604
Y005588
X011557Y006096
X011811
X009525Y005588
X00889Y005842
X008636
X00889Y00635
X008128Y005334
X01016Y007366
X00762
X007747Y007112
X007493
X007239
X006985
X006731
X006477
X006223
X005969
X005715
X005461
X005207
X005334Y006858
X005588
X005842
X006096
X00635
X006604
X006858
X007112
X007366
X00762
X007874
Y00635
X00762
Y005842
X007874
Y005334
X00762
X007366
X007112
X006858
X006604
X00635
X006096
X005842
X005588
X005334
X00508
X004826
X0047371Y005461
X004699Y005588
X004953
X00508Y005842
X0049911Y005969
X00503Y0060181
X0050673Y0060706
X0049911
X005207Y006096
X005461
X005715
Y006604
X005207
X004699
X004826Y006858
X004572
X004318
X0041656Y0067818
X004191Y007112
X004445
X004699
X004826Y007366
X004572
X004318
X004445Y00762
X004699
X004826Y007874
X004572
X004318
X004191Y00762
X005207
X005461
X0055499Y0077089
X005715Y00762
X005969
X0061722Y0077089
X006096Y007874
X00635
X006477Y00762
X00635Y007366
X0067945Y0077089
X006985Y00762
X007239
X007493
X0074168Y0077089
X006985Y006604
Y006096
Y005588
X00635Y005842
Y00635
X005715Y005588
X004826Y005842
X004572
X004445Y005588
X004572Y005334
X004318
X004064
X004572Y00635
X004826
X005334Y007874
X005842
X0036957Y0078994
X0036068
X003429Y00762
X003175
X002921
X003048Y007874
X002794
X002921Y007112
X003175
X003429
X003302Y007366
X003048Y00635
X002794
Y005842
X0028702Y0057531
X0031369
X003175Y005588
X0033147Y0055753
Y0056388
Y0057023
X0033909
Y0056388
Y0055753
X0034671
Y0056388
Y0057023
X003556Y005334
X00381
Y005842
X003302Y005334
X003048
X002794
X0028575Y0054864
X002921Y008128
X003175
X0034798Y0082804
X0034417Y0083566
X0033782Y0084074
X0033274Y0084709
X0036449Y0085344
X0036322Y0083312
X0036068Y0079883
X0036957
X0034798Y0079502
X003556Y00889
X0033909Y0089154
X003302Y00889
X0032766Y0090043
X0033401
Y00907
X0032788
X0032766Y009144
X0033401
X0030099Y0090043
X002921Y008636
X003175Y009652
X0035052Y0096139
Y0095377
X0036068
Y0096139
X0037084
Y0095377
X003683Y01016
X0038608Y0101981
X0039243
X0038989Y0102489
X0038354
X0039624
X003556Y010414
X003302
X003048
X002794
X003175Y010668
X003302Y010922
X003683Y011176
Y011684
X003429
X003175
X003048Y01143
X003175Y01016
X003429
X003302Y009906
X004064Y010414
X004318
X0042037Y0107061
Y0108331
X0045114Y0112141
X0044048Y0113792
X004318Y01143
X004191Y011684
X004953
X005207
X00508Y01143
X005207Y011176
X004953
Y010668
X0050927Y0106426
X00508Y010414
X005207Y01016
X005461
X0053086Y0098171
X005334Y009398
X005461Y009144
X005207
X005334Y00889
X005461Y008636
X005207
X005334Y008382
X005461Y008128
X005715
X006223
X0061976Y0085725
Y0086995
X006096Y00889
X0060727Y0090805
X0063881Y0091821
X00635Y009398
X006604
X006858
X007112
X007366
X007239Y009652
X006985
X006731
X006477
X006223
X0061087Y0096901
Y0100584
X0060198Y0100965
X0059669Y0099568
X0059076Y0098806
X00635Y009906
X006858
X007112
X007366
X00762
X007747Y01016
X007493
X007239
X007366Y010414
X0074168Y0105029
X00762Y010414
X007874
X0075536Y0108388
X0074549Y010795
X0074803Y0110871
X006985Y011176
X006731
X006477
X006223
X005969
X0059309Y0113919
X006096Y01143
X00635
X006604
X006858
X007112
X006985Y011684
X006731
X006477
X005969
X0057785Y0116967
X0058547Y0115443
X0057023Y0118491
X005969Y010668
X006223
X006477
X006731
X006985
X007112Y010414
X006858
X006604
X00635
X006096
X004953Y01016
X0047879Y0107061
X0046736Y0096139
Y0095504
X004572
Y0096139
X0044704
Y0095504
X004826Y009398
Y00889
Y008382
X004699Y008128
X004445
X004191
X005207
X0060198Y008509
X005969Y008636
X007239
X007493
X007747
Y008128
X0074422Y0090678
X007239Y009144
X0077978Y0096901
X0078254Y011811
X0076073Y0118491
X008001Y011684
X008255
X008382Y01143
X008636
X0085979Y0116459
X0085725Y0118237
X0090805Y0117475
X0090043Y0115824
X0089408
X0089662Y011303
X0089535Y0109855
X009017Y010668
X008763
X0085217Y0106426
X0085344Y0104521
X0084328
X0083312
X0082042Y0103632
X008128Y010414
X008001Y01016
X0082112Y0100301
X0085344Y0101092
X0086487Y0100203
X0087884Y0101092
X009144Y009906
X009398
X0093853Y0100838
X0094107Y0097282
X0094234Y0094615
X0097282Y0094742
X0100203Y0092456
X0099568Y0091059
X0099949Y009017
X0099441Y0088646
Y008636
X0099822Y0084201
X009906Y008382
X009652
X009398
X009144
X0089535Y0082677
X0088011Y0083439
X0086487Y0082677
X0084963Y0083439
X0083439Y0082677
X0081915Y0083439
X0080137Y0091313
X0079756Y0094488
X0081182Y0096958
X0083058Y0092456
X008382Y0091948
X0084836Y009144
X0085598Y0090932
X0088519Y009144
Y0094488
X008636Y009398
X0088519Y0087503
X009144Y00889
X0094234Y0088773
X009398Y0091186
X0101854Y0091059
Y0089916
Y0088773
Y0085344
X010287Y008128
X010541
X010795
X011049
X011303
X011557
X011811
Y010668
X011557
X011303
X011049
X010795
X010541
X010668Y010922
X010922
X011176
X01143
X011684
X011811Y011176
X011557
X011303
X011049
X010795
X0106045Y0114427
X010414Y01143
X0100997Y0114459
X0099695Y0113919
X009906Y01143
X0098171Y0115062
X009779Y011684
X0094967Y0116742
X0094107Y0115824
X0093853Y0115189
X0092689Y0115143
X009652Y01143
X0096774Y0111474
X0097409Y0112014
X0098171Y0110998
X0099695Y0109982
X009906Y010922
X01016
X010414
X0100965Y011176
X0099822Y0106426
X0098171Y0104902
X01016Y010414
X0098044Y0100838
X009906Y009906
X0098933Y0098425
X0101727Y0096266
X0103378Y0097028
Y0092964
X0091694Y0104648
X0084836Y0109855
X008255Y011176
X008001
X008128Y01143
X0105156Y0118237
X010795Y011684
X011049
X011303
X011557
X011811
X011684Y01143
X01143
X011176
X011938
X012192
X012319Y011176
X012065
X012192Y010922
X011938
X012065Y010668
X012319
X012065Y011684
Y008128
X012319
X012192Y011938
X011938
X012065Y012192
X012319
X011938Y012446
X011811Y012192
X0112522Y0122047
X01143Y012446
Y011938
X010414
X0102616Y0121285
X010033Y012192
X009779
X009906Y012446
X010414
X009906Y011938
X009652
X0094996Y0119761
X009144Y011938
X0090805Y0119126
X00889Y011938
X008763Y012192
X008636Y012446
X008382
Y011938
X009144Y012446
X009398
X0078232Y0124206
X0076962Y0125857
X0074803Y012573
X007366Y0125984
Y011938
X0075438Y0120015
X0076327Y0120142
X00762Y011938
X0078232Y0121158
X007112Y011938
X006858
X006604
X006731Y012192
X006985
X006477
X006223
X005969
X005715
X0056261Y0122936
Y0120015
X005842Y011938
X00508
X004826
X004953Y012192
X005207
X0045945Y0122047
X0044831Y0121285
X0046101Y0125984
X004064Y011938
X003556
X003302
X003048
X002794
X003175Y012192
X003302Y012446
X00381
T04
X0080391Y0065532
X0084876
X0087376
X0091089
X0093589
X0097302
X0099802
X0103515
X0106015
X0109728
X0112228
Y0073152
X0109728
X0106015
X0103515
X0099802
X0097302
X0093589
X0091089
X0087376
X0084876
X0080391
X0077891
X0074158
X0071658
X0067925
X0065425
X0061692
X0059192
X0055459
X0052959
Y0065532
X0055459
X0059192
X0061692
X0065425
X0067925
X0071658
X0074158
X0077891
T05
X0101092Y0120396
Y0125476
X0107442
X0111379Y0125349
Y0120269
X0107442Y0120396
X0117729Y0120269
Y0125349
T07
X0105539Y0089147
Y0091687
Y0094227
Y0096767
X0108079Y0095497
Y0092957
Y0090417
Y0087877
T08
X0119329Y0085702
Y0088242
Y0096412
Y0098952
T09
X0027559Y0066929
Y0069469
X0030099
Y0066929
Y0072009
X0027559
Y0074549
X0030099
Y0080264
Y0082804
X0027559
Y0080264
Y0093218
X0030099
Y0095758
X0027559
Y0098298
Y0100838
X0030099
Y0098298
T10
X0080391Y0056261
X0084836
X0087376
X0091027
X0093567
X0097218
X0099758
X010341
X010595
X0109601
X0112141
X0077851
X0074168
X0071628
X0067945
X0065405
X0061722
X0059182
X0055499
X0052959
X0029083Y0105918
Y0108458
Y0110998
Y0113538
Y0116078
Y0120269
Y0122809
Y0125349
T11
X0030099Y0056047
Y0061047
T12
X0111379Y0084582
Y0100072
T13
X0122301Y0055753
Y0123952
T14
X009038Y012243
X009538
T15
X0114429Y0086612
Y0098042
M30
