%FSTAX23Y23*%
%MOIN*%
%SFA1B1*%

%IPPOS*%
%ADD25R,0.031500X0.037400*%
%ADD29R,0.031500X0.031500*%
%ADD45R,0.061000X0.082700*%
%ADD106C,0.065000*%
%ADD107R,0.065000X0.065000*%
%ADD108R,0.055000X0.055000*%
%ADD109C,0.055000*%
%ADD110C,0.060200*%
%ADD111C,0.128000*%
%ADD112C,0.096300*%
%ADD113R,0.088600X0.088600*%
%ADD114C,0.088600*%
%ADD115R,0.065000X0.065000*%
%ADD116O,0.057100X0.078700*%
%ADD117O,0.045300X0.070900*%
%ADD118C,0.031500*%
%ADD119C,0.138000*%
%ADD120C,0.075000*%
%ADD121R,0.075000X0.075000*%
%ADD122R,0.059100X0.059100*%
%ADD123C,0.059100*%
%LNv1.0-1*%
%LPD*%
G54D25*
X03737Y04795D03*
X03792D03*
X03742Y04365D03*
X03797D03*
G54D29*
X03794Y04735D03*
X03735D03*
X03797Y043D03*
X03738D03*
G54D45*
X01355Y02493D03*
Y02666D03*
X0163Y02491D03*
Y02665D03*
X01495Y02493D03*
Y02666D03*
G54D106*
X0116Y04087D03*
Y04225D03*
Y04501D03*
Y04639D03*
Y04776D03*
Y04363D03*
Y0395D03*
Y03812D03*
Y03674D03*
X01185Y0326D03*
X01085D03*
X01185Y0316D03*
Y02735D03*
X01085D03*
X01185Y02635D03*
X01085Y02835D03*
Y02935D03*
X01185Y02835D03*
Y02935D03*
X03725Y02175D03*
X03825D03*
X03725Y02275D03*
X03825D03*
X04025Y02175D03*
X03925Y02275D03*
Y02175D03*
X02645Y0223D03*
X02507D03*
X02232D03*
X02094D03*
X01956D03*
X0237D03*
X02783D03*
X02921D03*
X03059D03*
G54D107*
X0116Y04914D03*
X01085Y0316D03*
Y02635D03*
G54D108*
X0425Y02709D03*
G54D109*
X0415Y02759D03*
X0425Y02809D03*
X0415Y02859D03*
X0425Y02909D03*
X0415Y02959D03*
X0425Y03009D03*
X0415Y03059D03*
G54D110*
X04692Y02624D03*
Y02724D03*
Y03145D03*
Y03045D03*
G54D111*
X045Y0311D03*
Y0266D03*
G54D112*
X04379Y03189D03*
Y0258D03*
G54D113*
X01185Y02403D03*
G54D114*
X01185Y02206D03*
G54D115*
X04025Y02275D03*
X01818Y0223D03*
G54D116*
X04523Y04783D03*
X0423D03*
G54D117*
X04529Y04933D03*
X04224D03*
G54D118*
X04278Y04825D03*
X04475D03*
G54D119*
X04815Y02195D03*
Y0488D03*
G54D120*
X0387Y0464D03*
X0367Y0489D03*
X0387D03*
Y0421D03*
X0367Y0446D03*
X0387D03*
G54D121*
X0367Y0464D03*
Y0421D03*
G54D122*
X04798Y03843D03*
Y04083D03*
G54D123*
X04798Y03743D03*
Y03983D03*
M02*