%FSTAX23Y23*%
%MOIN*%
%SFA1B1*%

%IPPOS*%
%ADD11C,0.010000*%
%ADD15C,0.006000*%
%ADD106C,0.065000*%
%ADD109C,0.055000*%
%ADD112C,0.096300*%
%ADD114C,0.088600*%
%ADD115R,0.065000X0.065000*%
%ADD116O,0.057100X0.078700*%
%ADD117O,0.045300X0.070900*%
%ADD120C,0.075000*%
%ADD121R,0.075000X0.075000*%
%ADD124C,0.017700*%
%ADD125C,0.019700*%
%LNv1.0-1*%
%LPD*%
G36*
X04933Y0337D02*
X0394D01*
Y0312*
X03935Y03118*
X03899Y03154*
X03895Y03156*
X03675*
X03661Y0317*
Y03185*
X03659Y03189*
X03554Y03294*
X0355Y03296*
X03531*
Y03335*
X03529Y0334*
X03519Y03349*
X03515Y03351*
X03356*
X03352Y03354*
Y03388*
X0335Y03393*
X03339Y03404*
X03335Y03406*
X03005*
X03Y03404*
X02985Y03389*
X02983Y03385*
Y03133*
X0298*
X02974Y03131*
X0297Y03127*
X02968Y03121*
Y03115*
X0297Y0311*
X02974Y03106*
X0298Y03104*
X02983*
Y02945*
X0293*
X02895Y0298*
Y0305*
X02855Y0309*
X0263*
X02615Y03075*
Y0283*
X0264Y02805*
X0283*
X0292Y02895*
X02983*
Y02685*
X02985Y0268*
X03Y02665*
X03005Y02663*
X03272*
X0351Y02425*
X03515Y02423*
X0394*
Y02395*
X04933*
Y02071*
X01021*
Y04988*
X04933*
Y0337*
G37*
G36*
X03346Y03388D02*
Y03352D01*
X03353Y03345*
X03515*
X03524Y03335*
Y03292*
X03526Y0329*
X0355*
X03655Y03185*
Y03167*
X03672Y0315*
X03895*
X0394Y03105*
Y0243*
X03515*
X03275Y0267*
X03005*
X0299Y02685*
Y02905*
X02915*
X02825Y02815*
X02645*
X02625Y02835*
Y0307*
X02635Y0308*
X02847*
X02885Y03042*
Y02975*
X02925Y02935*
X0299*
Y0294*
Y03105*
X02994Y03108*
X02997Y03113*
X02998Y03118*
X02997Y03124*
X02994Y03129*
X0299Y03132*
Y03385*
X03005Y034*
X03335*
X03346Y03388*
G37*
G36*
X04933Y02445D02*
X0399D01*
Y0332*
X04933*
Y02445*
G37*
%LNv1.0-2*%
%LPC*%
G36*
X04534Y04978D02*
Y04938D01*
X04562*
Y04946*
X04561Y04954*
X04557Y04962*
X04552Y04969*
X04545Y04974*
X04537Y04977*
X04534Y04978*
G37*
G36*
X04229D02*
Y04938D01*
X04257*
Y04946*
X04255Y04954*
X04252Y04962*
X04247Y04969*
X0424Y04974*
X04232Y04977*
X04229Y04978*
G37*
G36*
X04219D02*
X04215Y04977D01*
X04207Y04974*
X042Y04969*
X04195Y04962*
X04192Y04954*
X04191Y04946*
Y04938*
X04219*
Y04978*
G37*
G36*
X04524D02*
X0452Y04977D01*
X04512Y04974*
X04506Y04969*
X045Y04962*
X04497Y04954*
X04496Y04946*
Y04938*
X04524*
Y04978*
G37*
G36*
X0368Y04936D02*
Y049D01*
X03716*
X03714Y04908*
X03708Y04919*
X03699Y04928*
X03688Y04934*
X0368Y04936*
G37*
G36*
X0366D02*
X03651Y04934D01*
X0364Y04928*
X03632Y04919*
X03625Y04908*
X03623Y049*
X0366*
Y04936*
G37*
G36*
X04562Y04928D02*
X04534D01*
Y04888*
X04537Y04888*
X04545Y04892*
X04552Y04897*
X04557Y04904*
X04561Y04912*
X04562Y0492*
Y04928*
G37*
G36*
X04219D02*
X04191D01*
Y0492*
X04192Y04912*
X04195Y04904*
X042Y04897*
X04207Y04892*
X04215Y04888*
X04219Y04888*
Y04928*
G37*
G36*
X04257D02*
X04229D01*
Y04888*
X04232Y04888*
X0424Y04892*
X04247Y04897*
X04252Y04904*
X04255Y04912*
X04257Y0492*
Y04928*
G37*
G36*
X04524D02*
X04496D01*
Y0492*
X04497Y04912*
X045Y04904*
X04506Y04897*
X04512Y04892*
X0452Y04888*
X04524Y04888*
Y04928*
G37*
G36*
X01198Y04953D02*
X01121D01*
Y04876*
X01198*
Y04953*
G37*
G36*
X03043Y04919D02*
X03037D01*
X03031Y04917*
X03027Y04913*
X03025Y04908*
Y04902*
X03027Y04896*
X0303Y04893*
X0303Y04889*
X03029Y04887*
X03029Y04887*
X03024Y04883*
X03022Y04878*
Y04872*
X03024Y04866*
X03029Y04862*
X03034Y0486*
X0304*
X03045Y04862*
X0305Y04866*
X03052Y04872*
Y04878*
X0305Y04883*
X03047Y04886*
X03047Y0489*
X03047Y04892*
X03048Y04892*
X03052Y04896*
X03054Y04902*
Y04908*
X03052Y04913*
X03048Y04917*
X03043Y04919*
G37*
G36*
X03321Y04888D02*
X03315D01*
X03309Y04886*
X03305Y04882*
X03303Y04876*
Y0487*
X03305Y04865*
X03309Y04861*
X03315Y04859*
X03321*
X03326Y04861*
X0333Y04865*
X03333Y0487*
Y04876*
X0333Y04882*
X03326Y04886*
X03321Y04888*
G37*
G36*
X03875Y04933D02*
X03864D01*
X03853Y0493*
X03843Y04924*
X03835Y04916*
X03829Y04906*
X03826Y04895*
Y04884*
X03829Y04873*
X03835Y04863*
X03843Y04855*
X03853Y04849*
X03864Y04846*
X03875*
X03886Y04849*
X03896Y04855*
X03904Y04863*
X0391Y04873*
X03913Y04884*
Y04895*
X0391Y04906*
X03904Y04916*
X03896Y04924*
X03886Y0493*
X03875Y04933*
G37*
G36*
X03716Y0488D02*
X0368D01*
Y04843*
X03688Y04845*
X03699Y04852*
X03708Y0486*
X03714Y04871*
X03716Y0488*
G37*
G36*
X0366D02*
X03623D01*
X03625Y04871*
X03632Y0486*
X0364Y04852*
X03651Y04845*
X0366Y04843*
Y0488*
G37*
G36*
X02046Y04869D02*
X0204D01*
X02034Y04867*
X0203Y04863*
X02028Y04857*
Y04851*
X0203Y04846*
X02034Y04842*
X0204Y0484*
X02046*
X02051Y04842*
X02055Y04846*
X02058Y04851*
Y04857*
X02055Y04863*
X02051Y04867*
X02046Y04869*
G37*
G36*
X04282Y04846D02*
X04273D01*
X04265Y04843*
X04259Y04837*
X04256Y04829*
Y04828*
X04252Y04826*
X04249Y04828*
X0424Y04832*
X04235Y04832*
Y04788*
X04268*
Y04794*
X04268Y048*
X04272Y04803*
X04273Y04803*
X04282*
X0429Y04806*
X04296Y04812*
X043Y0482*
Y04829*
X04296Y04837*
X0429Y04843*
X04282Y04846*
G37*
G36*
X03073Y04839D02*
X03067D01*
X03061Y04837*
X03057Y04833*
X03055Y04828*
Y04822*
X03057Y04816*
X03061Y04812*
X03067Y0481*
X03073*
X03078Y04812*
X03082Y04816*
X03084Y04822*
Y04828*
X03082Y04833*
X03078Y04837*
X03073Y04839*
G37*
G36*
X03543Y04834D02*
X03537D01*
X03531Y04832*
X03527Y04828*
X03525Y04823*
Y04817*
X03527Y04811*
X03531Y04807*
X03537Y04805*
X03543*
X03548Y04807*
X03552Y04811*
X03554Y04817*
Y04823*
X03552Y04828*
X03548Y04832*
X03543Y04834*
G37*
G36*
X03368D02*
X03362D01*
X03356Y04832*
X03352Y04828*
X0335Y04823*
Y04817*
X03352Y04811*
X03356Y04807*
X03362Y04805*
X03368*
X03373Y04807*
X03377Y04811*
X03379Y04817*
Y04823*
X03377Y04828*
X03373Y04832*
X03368Y04834*
G37*
G36*
X03193D02*
X03187D01*
X03181Y04832*
X03177Y04828*
X03175Y04823*
Y04817*
X03177Y04811*
X03181Y04807*
X03187Y04805*
X03193*
X03198Y04807*
X03202Y04811*
X03204Y04817*
Y04823*
X03202Y04828*
X03198Y04832*
X03193Y04834*
G37*
G36*
X01764D02*
X01758D01*
X01753Y04832*
X01749Y04828*
X01746Y04823*
Y04817*
X01749Y04811*
X01753Y04807*
X01758Y04805*
X01764*
X0177Y04807*
X01774Y04811*
X01776Y04817*
Y04823*
X01774Y04828*
X0177Y04832*
X01764Y04834*
G37*
G36*
X04822Y04955D02*
X04807D01*
X04793Y04952*
X04779Y04946*
X04767Y04938*
X04756Y04927*
X04748Y04915*
X04742Y04901*
X0474Y04887*
Y04872*
X04742Y04858*
X04748Y04844*
X04756Y04832*
X04767Y04821*
X04779Y04813*
X04793Y04807*
X04807Y04805*
X04822*
X04836Y04807*
X0485Y04813*
X04862Y04821*
X04873Y04832*
X04881Y04844*
X04887Y04858*
X0489Y04872*
Y04887*
X04887Y04901*
X04881Y04915*
X04873Y04927*
X04862Y04938*
X0485Y04946*
X04836Y04952*
X04822Y04955*
G37*
G36*
X03688Y04824D02*
X03682D01*
X03676Y04822*
X03672Y04818*
X0367Y04813*
Y04807*
X03672Y04801*
X03676Y04797*
X03682Y04795*
X03688*
X03693Y04797*
X03697Y04801*
X03699Y04807*
Y04813*
X03697Y04818*
X03693Y04822*
X03688Y04824*
G37*
G36*
X04528Y04832D02*
Y04788D01*
X04562*
Y04794*
X0456Y04804*
X04557Y04814*
X0455Y04822*
X04542Y04828*
X04533Y04832*
X04528Y04832*
G37*
G36*
X04225D02*
X0422Y04832D01*
X0421Y04828*
X04202Y04822*
X04196Y04814*
X04192Y04804*
X04191Y04794*
Y04788*
X04225*
Y04832*
G37*
G36*
X04479Y04846D02*
X0447D01*
X04462Y04843*
X04456Y04837*
X04453Y04829*
Y0482*
X04456Y04812*
X04462Y04806*
X0447Y04803*
X04479*
X0448Y04803*
X04485Y048*
X04484Y04794*
Y04788*
X04518*
Y04832*
X04513Y04832*
X04503Y04828*
X04501Y04826*
X04496Y04828*
Y04829*
X04493Y04837*
X04487Y04843*
X04479Y04846*
G37*
G36*
X03076Y04803D02*
X0307D01*
X03064Y04801*
X0306Y04797*
X03058Y04791*
Y04785*
X0306Y0478*
X03064Y04776*
X0307Y04774*
X03076*
X03081Y04776*
X03085Y0478*
X03088Y04785*
Y04791*
X03085Y04797*
X03081Y04801*
X03076Y04803*
G37*
G36*
X02041D02*
X02035D01*
X02029Y04801*
X02025Y04797*
X02023Y04791*
Y04785*
X02025Y0478*
X02029Y04776*
X02035Y04774*
X02041*
X02046Y04776*
X0205Y0478*
X02053Y04785*
Y04791*
X0205Y04797*
X02046Y04801*
X02041Y04803*
G37*
G36*
X03321Y04798D02*
X03315D01*
X03309Y04796*
X03305Y04792*
X03303Y04786*
Y0478*
X03305Y04775*
X03309Y04771*
X03315Y04769*
X03321*
X03326Y04771*
X0333Y04775*
X03333Y0478*
Y04786*
X0333Y04792*
X03326Y04796*
X03321Y04798*
G37*
G36*
X03138Y04769D02*
X03132D01*
X03126Y04767*
X03122Y04763*
X0312Y04758*
Y04752*
X03122Y04746*
X03126Y04742*
X03132Y0474*
X03138*
X03143Y04742*
X03147Y04746*
X03149Y04752*
Y04758*
X03147Y04763*
X03143Y04767*
X03138Y04769*
G37*
G36*
X01165Y04815D02*
X01154D01*
X01145Y04812*
X01136Y04807*
X01129Y048*
X01124Y04791*
X01121Y04781*
Y04771*
X01124Y04761*
X01129Y04753*
X01136Y04746*
X01145Y0474*
X01154Y04738*
X01165*
X01174Y0474*
X01183Y04746*
X0119Y04753*
X01195Y04761*
X01198Y04771*
Y04781*
X01195Y04791*
X0119Y048*
X01183Y04807*
X01174Y04812*
X01165Y04815*
G37*
G36*
X04562Y04778D02*
X04528D01*
Y04734*
X04533Y04735*
X04542Y04739*
X0455Y04745*
X04557Y04753*
X0456Y04762*
X04562Y04772*
Y04778*
G37*
G36*
X04225D02*
X04191D01*
Y04772*
X04192Y04762*
X04196Y04753*
X04202Y04745*
X0421Y04739*
X0422Y04735*
X04225Y04734*
Y04778*
G37*
G36*
X04268D02*
X04235D01*
Y04734*
X0424Y04735*
X04249Y04739*
X04257Y04745*
X04263Y04753*
X04267Y04762*
X04268Y04772*
Y04778*
G37*
G36*
X04518D02*
X04484D01*
Y04772*
X04485Y04762*
X04489Y04753*
X04495Y04745*
X04503Y04739*
X04513Y04735*
X04518Y04734*
Y04778*
G37*
G36*
X04463Y04704D02*
X04457D01*
X04451Y04702*
X04447Y04698*
X04445Y04693*
Y04687*
X04447Y04681*
X04451Y04677*
X04457Y04675*
X04463*
X04468Y04677*
X04472Y04681*
X04474Y04687*
Y04693*
X04472Y04698*
X04468Y04702*
X04463Y04704*
G37*
G36*
X04896Y04688D02*
X0489D01*
X04884Y04686*
X0488Y04682*
X04878Y04676*
Y0467*
X0488Y04665*
X04884Y04661*
X0489Y04659*
X04896*
X04901Y04661*
X04905Y04665*
X04908Y0467*
Y04676*
X04905Y04682*
X04901Y04686*
X04896Y04688*
G37*
G36*
X03717Y04687D02*
X03675D01*
Y04645*
X03717*
Y04687*
G37*
G36*
X03665D02*
X03622D01*
Y04645*
X03665*
Y04687*
G37*
G36*
X04484Y04647D02*
X04478D01*
X04473Y04645*
X04469Y04641*
X04466Y04635*
Y04629*
X04469Y04624*
X04473Y0462*
X04478Y04618*
X04484*
X0449Y0462*
X04494Y04624*
X04496Y04629*
Y04635*
X04494Y04641*
X0449Y04645*
X04484Y04647*
G37*
G36*
X01165Y04677D02*
X01154D01*
X01145Y04674*
X01136Y04669*
X01129Y04662*
X01124Y04653*
X01121Y04644*
Y04633*
X01124Y04624*
X01129Y04615*
X01136Y04608*
X01145Y04603*
X01154Y046*
X01165*
X01174Y04603*
X01183Y04608*
X0119Y04615*
X01195Y04624*
X01198Y04633*
Y04644*
X01195Y04653*
X0119Y04662*
X01183Y04669*
X01174Y04674*
X01165Y04677*
G37*
G36*
X03875Y04683D02*
X03864D01*
X03853Y0468*
X03843Y04674*
X03835Y04666*
X03829Y04656*
X03826Y04645*
Y04634*
X03829Y04623*
X03835Y04613*
X03843Y04605*
X03853Y04599*
X03864Y04596*
X03875*
X03886Y04599*
X03896Y04605*
X03904Y04613*
X0391Y04623*
X03913Y04634*
Y04645*
X0391Y04656*
X03904Y04666*
X03896Y04674*
X03886Y0468*
X03875Y04683*
G37*
G36*
X03717Y04635D02*
X03675D01*
Y04592*
X03717*
Y04635*
G37*
G36*
X03665D02*
X03622D01*
Y04592*
X03665*
Y04635*
G37*
G36*
X04463Y04619D02*
X04457D01*
X04451Y04617*
X04447Y04613*
X04445Y04608*
Y04602*
X04447Y04596*
X04451Y04592*
X04457Y0459*
X04463*
X04468Y04592*
X04472Y04596*
X04474Y04602*
Y04608*
X04472Y04613*
X04468Y04617*
X04463Y04619*
G37*
G36*
X04428Y04584D02*
X04422D01*
X04416Y04582*
X04412Y04578*
X0441Y04573*
Y04567*
X04412Y04561*
X04416Y04557*
X04422Y04555*
X04428*
X04433Y04557*
X04437Y04561*
X04439Y04567*
Y04573*
X04437Y04578*
X04433Y04582*
X04428Y04584*
G37*
G36*
X04026Y04583D02*
X0402D01*
X04014Y04581*
X0401Y04577*
X04008Y04571*
Y04565*
X0401Y0456*
X04014Y04556*
X0402Y04554*
X04026*
X04031Y04556*
X04035Y0456*
X04038Y04565*
Y04571*
X04035Y04577*
X04031Y04581*
X04026Y04583*
G37*
G36*
X046Y04551D02*
X04594D01*
X04589Y04549*
X04584Y04544*
X04582Y04539*
Y04533*
X04584Y04528*
X04589Y04523*
X04594Y04521*
X046*
X04605Y04523*
X0461Y04528*
X04612Y04533*
Y04539*
X0461Y04544*
X04605Y04549*
X046Y04551*
G37*
G36*
X04373Y04546D02*
X04367D01*
X04361Y04544*
X04357Y0454*
X04355Y04534*
Y04528*
X04357Y04523*
X04361Y04519*
X04367Y04516*
X04373*
X04378Y04519*
X04382Y04523*
X04384Y04528*
Y04534*
X04382Y0454*
X04378Y04544*
X04373Y04546*
G37*
G36*
X04693Y04541D02*
X04687D01*
X04681Y04539*
X04677Y04535*
X04675Y04529*
Y04523*
X04677Y04518*
X04681Y04514*
X04687Y04511*
X04693*
X04698Y04514*
X04702Y04518*
X04704Y04523*
Y04529*
X04702Y04535*
X04698Y04539*
X04693Y04541*
G37*
G36*
X04896Y04533D02*
X0489D01*
X04884Y04531*
X0488Y04527*
X04878Y04521*
Y04515*
X0488Y0451*
X04884Y04506*
X0489Y04504*
X04896*
X04901Y04506*
X04905Y0451*
X04908Y04515*
Y04521*
X04905Y04527*
X04901Y04531*
X04896Y04533*
G37*
G36*
X04253Y04532D02*
X04247D01*
X04241Y0453*
X04237Y04526*
X04235Y04521*
Y04515*
X04237Y04509*
X04241Y04505*
X04247Y04503*
X04253*
X04258Y04505*
X04262Y04509*
X04264Y04515*
Y04521*
X04262Y04526*
X04258Y0453*
X04253Y04532*
G37*
G36*
X04648Y04506D02*
X04642D01*
X04636Y04504*
X04632Y045*
X0463Y04494*
Y04488*
X04632Y04483*
X04636Y04479*
X04642Y04476*
X04648*
X04653Y04479*
X04657Y04483*
X04659Y04488*
Y04494*
X04657Y045*
X04653Y04504*
X04648Y04506*
G37*
G36*
X03138Y04504D02*
X03132D01*
X03126Y04502*
X03122Y04498*
X0312Y04493*
Y04487*
X03122Y04481*
X03126Y04477*
X03132Y04475*
X03138*
X03143Y04477*
X03147Y04481*
X03149Y04487*
Y04493*
X03147Y04498*
X03143Y04502*
X03138Y04504*
G37*
G36*
X03676Y04507D02*
X03675D01*
Y04465*
X03717*
Y04466*
X03714Y04478*
X03708Y04489*
X03699Y04498*
X03688Y04504*
X03676Y04507*
G37*
G36*
X03665D02*
X03663D01*
X03651Y04504*
X0364Y04498*
X03632Y04489*
X03625Y04478*
X03622Y04466*
Y04465*
X03665*
Y04507*
G37*
G36*
X01165Y04539D02*
X01154D01*
X01145Y04537*
X01136Y04532*
X01129Y04524*
X01124Y04516*
X01121Y04506*
Y04496*
X01124Y04486*
X01129Y04477*
X01136Y0447*
X01145Y04465*
X01154Y04462*
X01165*
X01174Y04465*
X01183Y0447*
X0119Y04477*
X01195Y04486*
X01198Y04496*
Y04506*
X01195Y04516*
X0119Y04524*
X01183Y04532*
X01174Y04537*
X01165Y04539*
G37*
G36*
X04078Y04471D02*
X04072D01*
X04066Y04469*
X04062Y04465*
X0406Y04459*
Y04453*
X04062Y04448*
X04066Y04444*
X04072Y04441*
X04078*
X04083Y04444*
X04087Y04448*
X04089Y04453*
Y04459*
X04087Y04465*
X04083Y04469*
X04078Y04471*
G37*
G36*
X04258Y04469D02*
X04252D01*
X04246Y04467*
X04242Y04463*
X0424Y04458*
Y04452*
X04242Y04446*
X04246Y04442*
X04252Y0444*
X04258*
X04263Y04442*
X04267Y04446*
X04269Y04452*
Y04458*
X04267Y04463*
X04263Y04467*
X04258Y04469*
G37*
G36*
X03875Y04503D02*
X03864D01*
X03853Y045*
X03843Y04494*
X03835Y04486*
X03829Y04476*
X03826Y04465*
Y04454*
X03829Y04443*
X03835Y04433*
X03843Y04425*
X03853Y04419*
X03864Y04416*
X03875*
X03886Y04419*
X03896Y04425*
X03904Y04433*
X0391Y04443*
X03913Y04454*
Y04465*
X0391Y04476*
X03904Y04486*
X03896Y04494*
X03886Y045*
X03875Y04503*
G37*
G36*
X03717Y04455D02*
X03675D01*
Y04412*
X03676*
X03688Y04415*
X03699Y04422*
X03708Y0443*
X03714Y04441*
X03717Y04453*
Y04455*
G37*
G36*
X03665D02*
X03622D01*
Y04453*
X03625Y04441*
X03632Y0443*
X0364Y04422*
X03651Y04415*
X03663Y04412*
X03665*
Y04455*
G37*
G36*
X04538Y04431D02*
X04532D01*
X04526Y04429*
X04522Y04425*
X0452Y04419*
Y04413*
X04522Y04408*
X04526Y04404*
X04532Y04401*
X04538*
X04543Y04404*
X04547Y04408*
X04549Y04413*
Y04419*
X04547Y04425*
X04543Y04429*
X04538Y04431*
G37*
G36*
X04568Y04411D02*
X04562D01*
X04556Y04409*
X04552Y04405*
X0455Y04399*
Y04393*
X04552Y04388*
X04556Y04384*
X04562Y04381*
X04568*
X04573Y04384*
X04577Y04388*
X04579Y04393*
Y04399*
X04577Y04405*
X04573Y04409*
X04568Y04411*
G37*
G36*
X04693Y04401D02*
X04687D01*
X04681Y04399*
X04677Y04395*
X04675Y04389*
Y04383*
X04677Y04378*
X04681Y04374*
X04687Y04371*
X04693*
X04698Y04374*
X04702Y04378*
X04704Y04383*
Y04389*
X04702Y04395*
X04698Y04399*
X04693Y04401*
G37*
G36*
X046Y04392D02*
X04594D01*
X04589Y0439*
X04585Y04386*
X04583Y0438*
Y04374*
X04585Y04369*
X04589Y04365*
X04594Y04363*
X046*
X04606Y04365*
X0461Y04369*
X04612Y04374*
Y0438*
X0461Y04386*
X04606Y0439*
X046Y04392*
G37*
G36*
X03696Y04383D02*
X0369D01*
X03684Y04381*
X0368Y04377*
X03678Y04371*
Y04365*
X0368Y0436*
X03684Y04356*
X0369Y04354*
X03696*
X03701Y04356*
X03705Y0436*
X03708Y04365*
Y04371*
X03705Y04377*
X03701Y04381*
X03696Y04383*
G37*
G36*
X01165Y04401D02*
X01154D01*
X01145Y04399*
X01136Y04394*
X01129Y04387*
X01124Y04378*
X01121Y04368*
Y04358*
X01124Y04348*
X01129Y04339*
X01136Y04332*
X01145Y04327*
X01154Y04324*
X01165*
X01174Y04327*
X01183Y04332*
X0119Y04339*
X01195Y04348*
X01198Y04358*
Y04368*
X01195Y04378*
X0119Y04387*
X01183Y04394*
X01174Y04399*
X01165Y04401*
G37*
G36*
X04648Y04351D02*
X04642D01*
X04636Y04349*
X04632Y04345*
X0463Y04339*
Y04333*
X04632Y04328*
X04636Y04324*
X04642Y04321*
X04648*
X04653Y04324*
X04657Y04328*
X04659Y04333*
Y04339*
X04657Y04345*
X04653Y04349*
X04648Y04351*
G37*
G36*
X04536Y04348D02*
X0453D01*
X04524Y04346*
X0452Y04342*
X04518Y04336*
Y0433*
X0452Y04325*
X04524Y04321*
X0453Y04319*
X04536*
X04541Y04321*
X04545Y04325*
X04548Y0433*
Y04336*
X04545Y04342*
X04541Y04346*
X04536Y04348*
G37*
G36*
X04258Y04346D02*
X04252D01*
X04246Y04344*
X04242Y0434*
X0424Y04334*
Y04328*
X04242Y04323*
X04246Y04319*
X04252Y04316*
X04258*
X04263Y04319*
X04267Y04323*
X04269Y04328*
Y04334*
X04267Y0434*
X04263Y04344*
X04258Y04346*
G37*
G36*
X02971Y04328D02*
X02965D01*
X02959Y04326*
X02955Y04322*
X02953Y04316*
Y0431*
X02955Y04305*
X02959Y04301*
X02965Y04299*
X02971*
X02976Y04301*
X0298Y04305*
X02983Y0431*
Y04316*
X0298Y04322*
X02976Y04326*
X02971Y04328*
G37*
G36*
X04566Y04308D02*
X0456D01*
X04554Y04306*
X0455Y04302*
X04548Y04296*
Y0429*
X0455Y04285*
X04554Y04281*
X0456Y04279*
X04566*
X04571Y04281*
X04575Y04285*
X04578Y0429*
Y04296*
X04575Y04302*
X04571Y04306*
X04566Y04308*
G37*
G36*
X03717Y04257D02*
X03675D01*
Y04215*
X03717*
Y04257*
G37*
G36*
X03665D02*
X03622D01*
Y04215*
X03665*
Y04257*
G37*
G36*
X01165Y04264D02*
X01154D01*
X01145Y04261*
X01136Y04256*
X01129Y04249*
X01124Y0424*
X01121Y0423*
Y0422*
X01124Y0421*
X01129Y04202*
X01136Y04194*
X01145Y04189*
X01154Y04187*
X01165*
X01174Y04189*
X01183Y04194*
X0119Y04202*
X01195Y0421*
X01198Y0422*
Y0423*
X01195Y0424*
X0119Y04249*
X01183Y04256*
X01174Y04261*
X01165Y04264*
G37*
G36*
X02981Y04216D02*
X02975D01*
X02969Y04214*
X02965Y04209*
X02963Y04204*
Y04198*
X02965Y04192*
X02969Y04188*
X02975Y04186*
X02981*
X02986Y04188*
X0299Y04192*
X02993Y04198*
Y04204*
X0299Y04209*
X02986Y04214*
X02981Y04216*
G37*
G36*
X03875Y04253D02*
X03864D01*
X03853Y0425*
X03843Y04244*
X03835Y04236*
X03829Y04226*
X03826Y04215*
Y04204*
X03829Y04193*
X03835Y04183*
X03843Y04175*
X03853Y04169*
X03864Y04166*
X03875*
X03886Y04169*
X03896Y04175*
X03904Y04183*
X0391Y04193*
X03913Y04204*
Y04215*
X0391Y04226*
X03904Y04236*
X03896Y04244*
X03886Y0425*
X03875Y04253*
G37*
G36*
X03717Y04205D02*
X03675D01*
Y04162*
X03717*
Y04205*
G37*
G36*
X03665D02*
X03622D01*
Y04162*
X03665*
Y04205*
G37*
G36*
X03073Y04144D02*
X03067D01*
X03061Y04142*
X03057Y04138*
X03055Y04133*
Y04127*
X03057Y04121*
X03061Y04117*
X03067Y04115*
X03073*
X03078Y04117*
X03082Y04121*
X03084Y04127*
Y04133*
X03082Y04138*
X03078Y04142*
X03073Y04144*
G37*
G36*
X02908D02*
X02902D01*
X02896Y04142*
X02892Y04138*
X0289Y04133*
Y04127*
X02892Y04121*
X02896Y04117*
X02902Y04115*
X02908*
X02913Y04117*
X02917Y04121*
X02919Y04127*
Y04133*
X02917Y04138*
X02913Y04142*
X02908Y04144*
G37*
G36*
X03576Y04128D02*
X0357D01*
X03564Y04126*
X0356Y04122*
X03558Y04116*
Y0411*
X0356Y04105*
X03564Y04101*
X0357Y04099*
X03576*
X03581Y04101*
X03585Y04105*
X03588Y0411*
Y04116*
X03585Y04122*
X03581Y04126*
X03576Y04128*
G37*
G36*
X01165Y04126D02*
X01154D01*
X01145Y04123*
X01136Y04118*
X01129Y04111*
X01124Y04102*
X01121Y04092*
Y04082*
X01124Y04072*
X01129Y04064*
X01136Y04057*
X01145Y04051*
X01154Y04049*
X01165*
X01174Y04051*
X01183Y04057*
X0119Y04064*
X01195Y04072*
X01198Y04082*
Y04092*
X01195Y04102*
X0119Y04111*
X01183Y04118*
X01174Y04123*
X01165Y04126*
G37*
G36*
X04833Y04118D02*
X04762D01*
Y04047*
X04833*
Y04118*
G37*
G36*
X04371Y04026D02*
X04365D01*
X04359Y04024*
X04355Y0402*
X04353Y04014*
Y04008*
X04355Y04003*
X04359Y03999*
X04365Y03996*
X04371*
X04376Y03999*
X0438Y04003*
X04383Y04008*
Y04014*
X0438Y0402*
X04376Y04024*
X04371Y04026*
G37*
G36*
X04803Y04018D02*
X04793D01*
X04784Y04016*
X04776Y04011*
X0477Y04005*
X04765Y03997*
X04762Y03988*
Y03978*
X04765Y03969*
X0477Y03961*
X04776Y03955*
X04784Y0395*
X04793Y03947*
X04803*
X04812Y0395*
X0482Y03955*
X04826Y03961*
X04831Y03969*
X04833Y03978*
Y03988*
X04831Y03997*
X04826Y04005*
X0482Y04011*
X04812Y04016*
X04803Y04018*
G37*
G36*
X02406Y03973D02*
X024D01*
X02394Y03971*
X0239Y03967*
X02388Y03961*
Y03955*
X0239Y0395*
X02394Y03946*
X024Y03944*
X02406*
X02411Y03946*
X02415Y0395*
X02418Y03955*
Y03961*
X02415Y03967*
X02411Y03971*
X02406Y03973*
G37*
G36*
X01165Y03988D02*
X01154D01*
X01145Y03985*
X01136Y0398*
X01129Y03973*
X01124Y03964*
X01121Y03955*
Y03944*
X01124Y03935*
X01129Y03926*
X01136Y03919*
X01145Y03914*
X01154Y03911*
X01165*
X01174Y03914*
X01183Y03919*
X0119Y03926*
X01195Y03935*
X01198Y03944*
Y03955*
X01195Y03964*
X0119Y03973*
X01183Y0398*
X01174Y03985*
X01165Y03988*
G37*
G36*
X03576Y03918D02*
X0357D01*
X03564Y03916*
X0356Y03912*
X03558Y03906*
Y039*
X0356Y03895*
X03564Y03891*
X0357Y03889*
X03576*
X03581Y03891*
X03585Y03895*
X03588Y039*
Y03906*
X03585Y03912*
X03581Y03916*
X03576Y03918*
G37*
G36*
X02468Y03864D02*
X02462D01*
X02456Y03862*
X02452Y03858*
X0245Y03853*
Y03847*
X02452Y03841*
X02456Y03837*
X02462Y03835*
X02468*
X02473Y03837*
X02477Y03841*
X02479Y03847*
Y03853*
X02477Y03858*
X02473Y03862*
X02468Y03864*
G37*
G36*
X04371Y03852D02*
X04365D01*
X0436Y03849*
X04355Y03845*
X04353Y0384*
Y03834*
X04355Y03828*
X0436Y03824*
X04365Y03822*
X04371*
X04377Y03824*
X04381Y03828*
X04383Y03834*
Y0384*
X04381Y03845*
X04377Y03849*
X04371Y03852*
G37*
G36*
X04833Y03878D02*
X04762D01*
Y03807*
X04833*
Y03878*
G37*
G36*
X02151Y03793D02*
X02145D01*
X02139Y03791*
X02136Y03787*
X02133Y03787*
X0213Y03787*
X02126Y03791*
X02121Y03793*
X02115*
X02109Y03791*
X02105Y03787*
X02103Y03781*
Y03775*
X02105Y0377*
X02109Y03766*
X02109Y03763*
X02109Y03761*
X02105Y03757*
X02103Y03751*
Y03745*
X02105Y0374*
X02109Y03736*
X02115Y03734*
X02121*
X02126Y03736*
X0213Y0374*
X02133Y0374*
X02136Y0374*
X02139Y03736*
X02145Y03734*
X02151*
X02156Y03736*
X0216Y0374*
X02163Y03745*
Y03751*
X0216Y03757*
X02157Y03761*
X02156Y03763*
X02157Y03766*
X0216Y0377*
X02163Y03775*
Y03781*
X0216Y03787*
X02156Y03791*
X02151Y03793*
G37*
G36*
X01165Y0385D02*
X01154D01*
X01145Y03848*
X01136Y03843*
X01129Y03835*
X01124Y03827*
X01121Y03817*
Y03807*
X01124Y03797*
X01129Y03788*
X01136Y03781*
X01145Y03776*
X01154Y03773*
X01165*
X01174Y03776*
X01183Y03781*
X0119Y03788*
X01195Y03797*
X01198Y03807*
Y03817*
X01195Y03827*
X0119Y03835*
X01183Y03843*
X01174Y03848*
X01165Y0385*
G37*
G36*
X02086Y03793D02*
X0208D01*
X02074Y03791*
X0207Y03787*
X02068Y03781*
Y03775*
X0207Y0377*
X02074Y03766*
X02074Y03763*
X02074Y03761*
X0207Y03757*
X02068Y03751*
Y03745*
X0207Y0374*
X02074Y03736*
X0208Y03734*
X02086*
X02091Y03736*
X02095Y0374*
X02098Y03745*
Y03751*
X02095Y03757*
X02092Y03761*
X02091Y03763*
X02092Y03766*
X02095Y0377*
X02098Y03775*
Y03781*
X02095Y03787*
X02091Y03791*
X02086Y03793*
G37*
G36*
X02413Y03759D02*
X02407D01*
X02401Y03757*
X02397Y03753*
X02395Y03748*
Y03742*
X02397Y03736*
X02401Y03732*
X02407Y0373*
X02413*
X02418Y03732*
X02422Y03736*
X02424Y03742*
Y03748*
X02422Y03753*
X02418Y03757*
X02413Y03759*
G37*
G36*
X04803Y03778D02*
X04793D01*
X04784Y03776*
X04776Y03771*
X0477Y03765*
X04765Y03757*
X04762Y03748*
Y03738*
X04765Y03729*
X0477Y03721*
X04776Y03715*
X04784Y0371*
X04793Y03707*
X04803*
X04812Y0371*
X0482Y03715*
X04826Y03721*
X04831Y03729*
X04833Y03738*
Y03748*
X04831Y03757*
X04826Y03765*
X0482Y03771*
X04812Y03776*
X04803Y03778*
G37*
G36*
X01165Y03712D02*
X01154D01*
X01145Y0371*
X01136Y03705*
X01129Y03698*
X01124Y03689*
X01121Y03679*
Y03669*
X01124Y03659*
X01129Y0365*
X01136Y03643*
X01145Y03638*
X01154Y03635*
X01165*
X01174Y03638*
X01183Y03643*
X0119Y0365*
X01195Y03659*
X01198Y03669*
Y03679*
X01195Y03689*
X0119Y03698*
X01183Y03705*
X01174Y0371*
X01165Y03712*
G37*
G36*
X01301Y03548D02*
X01295D01*
X01289Y03546*
X01285Y03542*
X01283Y03536*
Y0353*
X01285Y03525*
X01289Y03521*
X01295Y03519*
X01301*
X01306Y03521*
X0131Y03525*
X01313Y0353*
Y03536*
X0131Y03542*
X01306Y03546*
X01301Y03548*
G37*
G36*
X01805Y0373D02*
X01575D01*
Y0348*
X01805*
Y0373*
G37*
G36*
X03731Y03458D02*
X03725D01*
X03719Y03456*
X03715Y03452*
X03713Y03446*
Y0344*
X03715Y03435*
X03719Y03431*
X03725Y03429*
X03731*
X03736Y03431*
X0374Y03435*
X03743Y0344*
Y03446*
X0374Y03452*
X03736Y03456*
X03731Y03458*
G37*
G36*
X01196D02*
X0119D01*
X01184Y03456*
X0118Y03452*
X01178Y03446*
Y0344*
X0118Y03435*
X01184Y03431*
X0119Y03429*
X01196*
X01201Y03431*
X01205Y03435*
X01208Y0344*
Y03446*
X01205Y03452*
X01201Y03456*
X01196Y03458*
G37*
G36*
X03433Y03444D02*
X03427D01*
X03421Y03442*
X03417Y03438*
X03415Y03433*
Y03427*
X03417Y03421*
X03421Y03417*
X03427Y03415*
X03433*
X03438Y03417*
X03442Y03421*
X03444Y03427*
Y03433*
X03442Y03438*
X03438Y03442*
X03433Y03444*
G37*
G36*
X01961Y03323D02*
X01955D01*
X01949Y03321*
X01945Y03317*
X01943Y03311*
Y03305*
X01945Y033*
X01949Y03296*
X01955Y03294*
X01961*
X01966Y03296*
X0197Y033*
X01973Y03305*
Y03311*
X0197Y03317*
X01966Y03321*
X01961Y03323*
G37*
G36*
X012Y033D02*
Y03275D01*
X01225*
X01224Y03276*
X01219Y03286*
X01211Y03294*
X01201Y03299*
X012Y033*
G37*
G36*
X0117D02*
X01168Y03299D01*
X01158Y03294*
X01151Y03286*
X01145Y03276*
X01145Y03275*
X0117*
Y033*
G37*
G36*
X03631Y03278D02*
X03625D01*
X03619Y03276*
X03615Y03272*
X03613Y03266*
Y0326*
X03615Y03255*
X03619Y03251*
X03625Y03249*
X03631*
X03636Y03251*
X0364Y03255*
X03643Y0326*
Y03266*
X0364Y03272*
X03636Y03276*
X03631Y03278*
G37*
G36*
X0109Y03298D02*
X01079D01*
X0107Y03295*
X01061Y0329*
X01054Y03283*
X01049Y03274*
X01046Y03265*
Y03254*
X01049Y03245*
X01054Y03236*
X01061Y03229*
X0107Y03224*
X01079Y03221*
X0109*
X01099Y03224*
X01108Y03229*
X01115Y03236*
X0112Y03245*
X01123Y03254*
Y03265*
X0112Y03274*
X01115Y03283*
X01108Y0329*
X01099Y03295*
X0109Y03298*
G37*
G36*
X01225Y03245D02*
X012D01*
Y0322*
X01201Y0322*
X01211Y03226*
X01219Y03233*
X01224Y03243*
X01225Y03245*
G37*
G36*
X0117D02*
X01145D01*
X01145Y03243*
X01151Y03233*
X01158Y03226*
X01168Y0322*
X0117Y0322*
Y03245*
G37*
G36*
X022Y03385D02*
X0199D01*
Y03195*
X022*
Y03385*
G37*
G36*
X012Y032D02*
Y03175D01*
X01225*
X01224Y03176*
X01219Y03186*
X01211Y03194*
X01201Y03199*
X012Y032*
G37*
G36*
X0117D02*
X01168Y03199D01*
X01158Y03194*
X01151Y03186*
X01145Y03176*
X01145Y03175*
X0117*
Y032*
G37*
G36*
X01123Y03198D02*
X01046D01*
Y03121*
X01123*
Y03198*
G37*
G36*
X01225Y03145D02*
X012D01*
Y0312*
X01201Y0312*
X01211Y03126*
X01219Y03133*
X01224Y03143*
X01225Y03145*
G37*
G36*
X0117D02*
X01145D01*
X01145Y03143*
X01151Y03133*
X01158Y03126*
X01168Y0312*
X0117Y0312*
Y03145*
G37*
G36*
X02941Y03133D02*
X02935D01*
X02929Y03131*
X02925Y03127*
X02923Y03121*
Y03115*
X02925Y0311*
X02929Y03106*
X02935Y03104*
X02941*
X02946Y03106*
X0295Y0311*
X02953Y03115*
Y03121*
X0295Y03127*
X02946Y03131*
X02941Y03133*
G37*
G36*
X012Y02975D02*
Y0295D01*
X01225*
X01224Y02951*
X01219Y02961*
X01211Y02969*
X01201Y02974*
X012Y02975*
G37*
G36*
X011D02*
Y0295D01*
X01125*
X01124Y02951*
X01119Y02961*
X01111Y02969*
X01101Y02974*
X011Y02975*
G37*
G36*
X0117D02*
X01168Y02974D01*
X01158Y02969*
X01151Y02961*
X01145Y02951*
X01145Y0295*
X0117*
Y02975*
G37*
G36*
X0107D02*
X01068Y02974D01*
X01058Y02969*
X01051Y02961*
X01045Y02951*
X01045Y0295*
X0107*
Y02975*
G37*
G36*
X01225Y0292D02*
X012D01*
Y02895*
X01201Y02895*
X01211Y02901*
X01219Y02908*
X01224Y02918*
X01225Y0292*
G37*
G36*
X01125D02*
X011D01*
Y02895*
X01101Y02895*
X01111Y02901*
X01119Y02908*
X01124Y02918*
X01125Y0292*
G37*
G36*
X0117D02*
X01145D01*
X01145Y02918*
X01151Y02908*
X01158Y02901*
X01168Y02895*
X0117Y02895*
Y0292*
G37*
G36*
X0107D02*
X01045D01*
X01045Y02918*
X01051Y02908*
X01058Y02901*
X01068Y02895*
X0107Y02895*
Y0292*
G37*
G36*
X012Y02875D02*
Y0285D01*
X01225*
X01224Y02851*
X01219Y02861*
X01211Y02869*
X01201Y02874*
X012Y02875*
G37*
G36*
X011D02*
Y0285D01*
X01125*
X01124Y02851*
X01119Y02861*
X01111Y02869*
X01101Y02874*
X011Y02875*
G37*
G36*
X0117D02*
X01168Y02874D01*
X01158Y02869*
X01151Y02861*
X01145Y02851*
X01145Y0285*
X0117*
Y02875*
G37*
G36*
X0107D02*
X01068Y02874D01*
X01058Y02869*
X01051Y02861*
X01045Y02851*
X01045Y0285*
X0107*
Y02875*
G37*
G36*
X01225Y0282D02*
X012D01*
Y02795*
X01201Y02795*
X01211Y02801*
X01219Y02808*
X01224Y02818*
X01225Y0282*
G37*
G36*
X01125D02*
X011D01*
Y02795*
X01101Y02795*
X01111Y02801*
X01119Y02808*
X01124Y02818*
X01125Y0282*
G37*
G36*
X0117D02*
X01145D01*
X01145Y02818*
X01151Y02808*
X01158Y02801*
X01168Y02795*
X0117Y02795*
Y0282*
G37*
G36*
X0107D02*
X01045D01*
X01045Y02818*
X01051Y02808*
X01058Y02801*
X01068Y02795*
X0107Y02795*
Y0282*
G37*
G36*
X01781Y02823D02*
X01775D01*
X01769Y02821*
X01765Y02817*
X01763Y02811*
Y02805*
X01765Y028*
X01769Y02796*
X01775Y02794*
X01781*
X01786Y02796*
X0179Y028*
X01793Y02805*
Y02811*
X0179Y02817*
X01786Y02821*
X01781Y02823*
G37*
G36*
X0119Y02773D02*
X01179D01*
X0117Y0277*
X01161Y02765*
X01154Y02758*
X01149Y02749*
X01146Y0274*
Y02729*
X01149Y0272*
X01154Y02711*
X01161Y02704*
X0117Y02699*
X01179Y02696*
X0119*
X01199Y02699*
X01208Y02704*
X01215Y02711*
X0122Y0272*
X01223Y02729*
Y0274*
X0122Y02749*
X01215Y02758*
X01208Y02765*
X01199Y0277*
X0119Y02773*
G37*
G36*
X0109D02*
X01079D01*
X0107Y0277*
X01061Y02765*
X01054Y02758*
X01049Y02749*
X01046Y0274*
Y02729*
X01049Y0272*
X01054Y02711*
X01061Y02704*
X0107Y02699*
X01079Y02696*
X0109*
X01099Y02699*
X01108Y02704*
X01115Y02711*
X0112Y0272*
X01123Y02729*
Y0274*
X0112Y02749*
X01115Y02758*
X01108Y02765*
X01099Y0277*
X0109Y02773*
G37*
G36*
X01796Y02688D02*
X0179D01*
X01784Y02686*
X0178Y02682*
X01778Y02676*
Y0267*
X0178Y02665*
X01784Y02661*
X0179Y02659*
X01796*
X01801Y02661*
X01805Y02665*
X01808Y0267*
Y02676*
X01805Y02682*
X01801Y02686*
X01796Y02688*
G37*
G36*
X0119Y02673D02*
X01179D01*
X0117Y0267*
X01161Y02665*
X01154Y02658*
X01149Y02649*
X01146Y0264*
Y02629*
X01149Y0262*
X01154Y02611*
X01161Y02604*
X0117Y02599*
X01179Y02596*
X0119*
X01199Y02599*
X01208Y02604*
X01215Y02611*
X0122Y0262*
X01223Y02629*
Y0264*
X0122Y02649*
X01215Y02658*
X01208Y02665*
X01199Y0267*
X0119Y02673*
G37*
G36*
X01123D02*
X01046D01*
Y02596*
X01123*
Y02673*
G37*
G36*
X01783Y02524D02*
X01777D01*
X01771Y02522*
X01767Y02518*
X01765Y02513*
Y02507*
X01767Y02501*
X01771Y02497*
X01777Y02495*
X01783*
X01788Y02497*
X01792Y02501*
X01794Y02507*
Y02513*
X01792Y02518*
X01788Y02522*
X01783Y02524*
G37*
G36*
X03101Y02518D02*
X03095D01*
X03089Y02516*
X03085Y02512*
X03083Y02506*
Y025*
X03085Y02495*
X03089Y02491*
X03095Y02489*
X03101*
X03106Y02491*
X0311Y02495*
X03113Y025*
Y02506*
X0311Y02512*
X03106Y02516*
X03101Y02518*
G37*
G36*
X01733Y02509D02*
X01727D01*
X01721Y02507*
X01717Y02503*
X01715Y02498*
Y02492*
X01717Y02486*
X01721Y02482*
X01727Y0248*
X01733*
X01738Y02482*
X01742Y02486*
X01744Y02492*
Y02498*
X01742Y02503*
X01738Y02507*
X01733Y02509*
G37*
G36*
X01235Y02453D02*
X01134D01*
Y02353*
X01235*
Y02453*
G37*
G36*
X04067Y02317D02*
X0404D01*
Y0229*
X04067*
Y02317*
G37*
G36*
X0394Y02315D02*
Y0229D01*
X03965*
X03964Y02291*
X03959Y02301*
X03951Y02309*
X03941Y02314*
X0394Y02315*
G37*
G36*
X0374D02*
Y0229D01*
X03765*
X03764Y02291*
X03759Y02301*
X03751Y02309*
X03741Y02314*
X0374Y02315*
G37*
G36*
X0384D02*
Y0229D01*
X03865*
X03864Y02291*
X03859Y02301*
X03851Y02309*
X03841Y02314*
X0384Y02315*
G37*
G36*
X0391D02*
X03908Y02314D01*
X03898Y02309*
X03891Y02301*
X03885Y02291*
X03885Y0229*
X0391*
Y02315*
G37*
G36*
X0371D02*
X03708Y02314D01*
X03698Y02309*
X03691Y02301*
X03685Y02291*
X03685Y0229*
X0371*
Y02315*
G37*
G36*
X0381D02*
X03808Y02314D01*
X03798Y02309*
X03791Y02301*
X03785Y02291*
X03785Y0229*
X0381*
Y02315*
G37*
G36*
X0401Y02317D02*
X03982D01*
Y0229*
X0401*
Y02317*
G37*
G36*
X03965Y0226D02*
X0394D01*
Y02235*
X03941Y02235*
X03951Y02241*
X03959Y02248*
X03964Y02258*
X03965Y0226*
G37*
G36*
X03865D02*
X0384D01*
Y02235*
X03841Y02235*
X03851Y02241*
X03859Y02248*
X03864Y02258*
X03865Y0226*
G37*
G36*
X03765D02*
X0374D01*
Y02235*
X03741Y02235*
X03751Y02241*
X03759Y02248*
X03764Y02258*
X03765Y0226*
G37*
G36*
X0391D02*
X03885D01*
X03885Y02258*
X03891Y02248*
X03898Y02241*
X03908Y02235*
X0391Y02235*
Y0226*
G37*
G36*
X0381D02*
X03785D01*
X03785Y02258*
X03791Y02248*
X03798Y02241*
X03808Y02235*
X0381Y02235*
Y0226*
G37*
G36*
X0371D02*
X03685D01*
X03685Y02258*
X03691Y02248*
X03698Y02241*
X03708Y02235*
X0371Y02235*
Y0226*
G37*
G36*
X04067D02*
X0404D01*
Y02232*
X04067*
Y0226*
G37*
G36*
X0401D02*
X03982D01*
Y02232*
X0401*
Y0226*
G37*
G36*
X03064Y02268D02*
X03053D01*
X03044Y02265*
X03035Y0226*
X03028Y02253*
X03023Y02244*
X0302Y02235*
Y02224*
X03023Y02215*
X03028Y02206*
X03035Y02199*
X03044Y02194*
X03053Y02191*
X03064*
X03073Y02194*
X03082Y02199*
X03089Y02206*
X03094Y02215*
X03097Y02224*
Y02235*
X03094Y02244*
X03089Y02253*
X03082Y0226*
X03073Y02265*
X03064Y02268*
G37*
G36*
X02926D02*
X02916D01*
X02906Y02265*
X02897Y0226*
X0289Y02253*
X02885Y02244*
X02882Y02235*
Y02224*
X02885Y02215*
X0289Y02206*
X02897Y02199*
X02906Y02194*
X02916Y02191*
X02926*
X02936Y02194*
X02944Y02199*
X02952Y02206*
X02957Y02215*
X02959Y02224*
Y02235*
X02957Y02244*
X02952Y02253*
X02944Y0226*
X02936Y02265*
X02926Y02268*
G37*
G36*
X02788D02*
X02778D01*
X02768Y02265*
X02759Y0226*
X02752Y02253*
X02747Y02244*
X02744Y02235*
Y02224*
X02747Y02215*
X02752Y02206*
X02759Y02199*
X02768Y02194*
X02778Y02191*
X02788*
X02798Y02194*
X02807Y02199*
X02814Y02206*
X02819Y02215*
X02821Y02224*
Y02235*
X02819Y02244*
X02814Y02253*
X02807Y0226*
X02798Y02265*
X02788Y02268*
G37*
G36*
X0265D02*
X0264D01*
X0263Y02265*
X02622Y0226*
X02614Y02253*
X02609Y02244*
X02607Y02235*
Y02224*
X02609Y02215*
X02614Y02206*
X02622Y02199*
X0263Y02194*
X0264Y02191*
X0265*
X0266Y02194*
X02669Y02199*
X02676Y02206*
X02681Y02215*
X02684Y02224*
Y02235*
X02681Y02244*
X02676Y02253*
X02669Y0226*
X0266Y02265*
X0265Y02268*
G37*
G36*
X02512D02*
X02502D01*
X02492Y02265*
X02484Y0226*
X02477Y02253*
X02471Y02244*
X02469Y02235*
Y02224*
X02471Y02215*
X02477Y02206*
X02484Y02199*
X02492Y02194*
X02502Y02191*
X02512*
X02522Y02194*
X02531Y02199*
X02538Y02206*
X02543Y02215*
X02546Y02224*
Y02235*
X02543Y02244*
X02538Y02253*
X02531Y0226*
X02522Y02265*
X02512Y02268*
G37*
G36*
X02375D02*
X02364D01*
X02355Y02265*
X02346Y0226*
X02339Y02253*
X02334Y02244*
X02331Y02235*
Y02224*
X02334Y02215*
X02339Y02206*
X02346Y02199*
X02355Y02194*
X02364Y02191*
X02375*
X02384Y02194*
X02393Y02199*
X024Y02206*
X02405Y02215*
X02408Y02224*
Y02235*
X02405Y02244*
X024Y02253*
X02393Y0226*
X02384Y02265*
X02375Y02268*
G37*
G36*
X02237D02*
X02227D01*
X02217Y02265*
X02208Y0226*
X02201Y02253*
X02196Y02244*
X02193Y02235*
Y02224*
X02196Y02215*
X02201Y02206*
X02208Y02199*
X02217Y02194*
X02227Y02191*
X02237*
X02247Y02194*
X02255Y02199*
X02263Y02206*
X02268Y02215*
X0227Y02224*
Y02235*
X02268Y02244*
X02263Y02253*
X02255Y0226*
X02247Y02265*
X02237Y02268*
G37*
G36*
X02099D02*
X02089D01*
X02079Y02265*
X0207Y0226*
X02063Y02253*
X02058Y02244*
X02055Y02235*
Y02224*
X02058Y02215*
X02063Y02206*
X0207Y02199*
X02079Y02194*
X02089Y02191*
X02099*
X02109Y02194*
X02118Y02199*
X02125Y02206*
X0213Y02215*
X02132Y02224*
Y02235*
X0213Y02244*
X02125Y02253*
X02118Y0226*
X02109Y02265*
X02099Y02268*
G37*
G36*
X01961D02*
X01951D01*
X01941Y02265*
X01933Y0226*
X01925Y02253*
X0192Y02244*
X01918Y02235*
Y02224*
X0192Y02215*
X01925Y02206*
X01933Y02199*
X01941Y02194*
X01951Y02191*
X01961*
X01971Y02194*
X0198Y02199*
X01987Y02206*
X01992Y02215*
X01995Y02224*
Y02235*
X01992Y02244*
X01987Y02253*
X0198Y0226*
X01971Y02265*
X01961Y02268*
G37*
G36*
X01857D02*
X0178D01*
Y02191*
X01857*
Y02268*
G37*
G36*
X0403Y02213D02*
X04019D01*
X0401Y0221*
X04001Y02205*
X03994Y02198*
X03989Y02189*
X03986Y0218*
Y02169*
X03989Y0216*
X03994Y02151*
X04001Y02144*
X0401Y02139*
X04019Y02136*
X0403*
X04039Y02139*
X04048Y02144*
X04055Y02151*
X0406Y0216*
X04063Y02169*
Y0218*
X0406Y02189*
X04055Y02198*
X04048Y02205*
X04039Y0221*
X0403Y02213*
G37*
G36*
X0393D02*
X03919D01*
X0391Y0221*
X03901Y02205*
X03894Y02198*
X03889Y02189*
X03886Y0218*
Y02169*
X03889Y0216*
X03894Y02151*
X03901Y02144*
X0391Y02139*
X03919Y02136*
X0393*
X03939Y02139*
X03948Y02144*
X03955Y02151*
X0396Y0216*
X03963Y02169*
Y0218*
X0396Y02189*
X03955Y02198*
X03948Y02205*
X03939Y0221*
X0393Y02213*
G37*
G36*
X0383D02*
X03819D01*
X0381Y0221*
X03801Y02205*
X03794Y02198*
X03789Y02189*
X03786Y0218*
Y02169*
X03789Y0216*
X03794Y02151*
X03801Y02144*
X0381Y02139*
X03819Y02136*
X0383*
X03839Y02139*
X03848Y02144*
X03855Y02151*
X0386Y0216*
X03863Y02169*
Y0218*
X0386Y02189*
X03855Y02198*
X03848Y02205*
X03839Y0221*
X0383Y02213*
G37*
G36*
X0373D02*
X03719D01*
X0371Y0221*
X03701Y02205*
X03694Y02198*
X03689Y02189*
X03686Y0218*
Y02169*
X03689Y0216*
X03694Y02151*
X03701Y02144*
X0371Y02139*
X03719Y02136*
X0373*
X03739Y02139*
X03748Y02144*
X03755Y02151*
X0376Y0216*
X03763Y02169*
Y0218*
X0376Y02189*
X03755Y02198*
X03748Y02205*
X03739Y0221*
X0373Y02213*
G37*
G36*
X04822Y0227D02*
X04807D01*
X04793Y02267*
X04779Y02261*
X04767Y02253*
X04756Y02242*
X04748Y0223*
X04742Y02216*
X0474Y02202*
Y02187*
X04742Y02173*
X04748Y02159*
X04756Y02147*
X04767Y02136*
X04779Y02128*
X04793Y02122*
X04807Y0212*
X04822*
X04836Y02122*
X0485Y02128*
X04862Y02136*
X04873Y02147*
X04881Y02159*
X04887Y02173*
X0489Y02187*
Y02202*
X04887Y02216*
X04881Y0223*
X04873Y02242*
X04862Y02253*
X0485Y02261*
X04836Y02267*
X04822Y0227*
G37*
G36*
X03263Y03284D02*
X03257Y03282D01*
X03252Y03279*
X03249Y03274*
X03248Y03268*
X03249Y03263*
X03252Y03258*
X03257Y03254*
X03263Y03253*
X03269Y03254*
X03274Y03258*
X03277Y03263*
X03278Y03268*
X03277Y03274*
X03274Y03279*
X03269Y03282*
X03263Y03284*
G37*
G36*
X03153D02*
X03147Y03282D01*
X03142Y03279*
X03139Y03274*
X03138Y03268*
X03139Y03263*
X03142Y03258*
X03147Y03254*
X03153Y03253*
X03159Y03254*
X03164Y03258*
X03167Y03263*
X03168Y03268*
X03167Y03274*
X03164Y03279*
X03159Y03282*
X03153Y03284*
G37*
G36*
X03513Y03219D02*
X03507Y03217D01*
X03502Y03214*
X03499Y03209*
X03498Y03203*
X03499Y03198*
X03502Y03193*
X03507Y03189*
X03513Y03188*
X03519Y03189*
X03524Y03193*
X03527Y03198*
X03528Y03203*
X03527Y03209*
X03524Y03214*
X03519Y03217*
X03513Y03219*
G37*
G36*
X03075Y03185D02*
X03069Y03184D01*
X03064Y0318*
X03061Y03175*
X03059Y0317*
X03061Y03164*
X03064Y03159*
X03069Y03156*
X03075Y03154*
X0308Y03156*
X03085Y03159*
X03089Y03164*
X0309Y0317*
X03089Y03175*
X03085Y0318*
X0308Y03184*
X03075Y03185*
G37*
G36*
X03513Y03099D02*
X03507Y03097D01*
X03502Y03094*
X03499Y03089*
X03498Y03083*
X03499Y03078*
X03502Y03073*
X03507Y03069*
X03513Y03068*
X03519Y03069*
X03524Y03073*
X03527Y03078*
X03528Y03083*
X03527Y03089*
X03524Y03094*
X03519Y03097*
X03513Y03099*
G37*
G36*
X03893Y03089D02*
X03887Y03087D01*
X03882Y03084*
X03879Y03079*
X03878Y03073*
X03879Y03068*
X03882Y03063*
X03887Y03059*
X03893Y03058*
X03899Y03059*
X03904Y03063*
X03907Y03068*
X03908Y03073*
X03907Y03079*
X03904Y03084*
X03899Y03087*
X03893Y03089*
G37*
G36*
X03895Y02905D02*
X03889Y02904D01*
X03884Y029*
X03881Y02895*
X03879Y0289*
X03881Y02884*
X03884Y02879*
X03889Y02876*
X03895Y02874*
X039Y02876*
X03905Y02879*
X03909Y02884*
X0391Y0289*
X03909Y02895*
X03905Y029*
X039Y02904*
X03895Y02905*
G37*
G36*
X0365Y02875D02*
X03644Y02874D01*
X03639Y0287*
X03636Y02865*
X03634Y0286*
X03636Y02854*
X03639Y02849*
X03644Y02846*
X0365Y02844*
X03655Y02846*
X0366Y02849*
X03664Y02854*
X03665Y0286*
X03664Y02865*
X0366Y0287*
X03655Y02874*
X0365Y02875*
G37*
G36*
X03515Y0286D02*
X03509Y02859D01*
X03504Y02855*
X03501Y0285*
X03499Y02845*
X03501Y02839*
X03504Y02834*
X03509Y02831*
X03515Y02829*
X0352Y02831*
X03525Y02834*
X03529Y02839*
X0353Y02845*
X03529Y0285*
X03525Y02855*
X0352Y02859*
X03515Y0286*
G37*
G36*
X03785Y02845D02*
X03779Y02844D01*
X03774Y0284*
X03771Y02835*
X03769Y0283*
X03771Y02824*
X03774Y02819*
X03779Y02816*
X03785Y02814*
X0379Y02816*
X03795Y02819*
X03799Y02824*
X038Y0283*
X03799Y02835*
X03795Y0284*
X0379Y02844*
X03785Y02845*
G37*
G36*
Y02665D02*
X03779Y02664D01*
X03774Y0266*
X03771Y02655*
X03769Y0265*
X03771Y02644*
X03774Y02639*
X03779Y02636*
X03785Y02634*
X0379Y02636*
X03795Y02639*
X03799Y02644*
X038Y0265*
X03799Y02655*
X03795Y0266*
X0379Y02664*
X03785Y02665*
G37*
G36*
X04394Y03246D02*
Y03204D01*
X04436*
X04435Y03206*
X04431Y03217*
X04425Y03227*
X04417Y03235*
X04407Y03241*
X04396Y03245*
X04394Y03246*
G37*
G36*
X04364D02*
X04363Y03245D01*
X04352Y03241*
X04342Y03235*
X04334Y03227*
X04328Y03217*
X04324Y03206*
X04323Y03204*
X04364*
Y03246*
G37*
G36*
Y03174D02*
X04323D01*
X04324Y03173*
X04328Y03162*
X04334Y03152*
X04342Y03144*
X04352Y03138*
X04363Y03134*
X04364Y03133*
Y03174*
G37*
G36*
X04436D02*
X04394D01*
Y03133*
X04396Y03134*
X04407Y03138*
X04417Y03144*
X04425Y03152*
X04431Y03162*
X04435Y03173*
X04436Y03174*
G37*
G36*
X04697Y03181D02*
X04688D01*
X04679Y03179*
X0467Y03174*
X04664Y03168*
X04659Y03159*
X04656Y0315*
Y03141*
X04659Y03131*
X04664Y03123*
X0467Y03116*
X04679Y03112*
X04688Y03109*
X04697*
X04706Y03112*
X04715Y03116*
X04721Y03123*
X04726Y03131*
X04729Y03141*
Y0315*
X04726Y03159*
X04721Y03168*
X04715Y03174*
X04706Y03179*
X04697Y03181*
G37*
G36*
X04155Y03097D02*
Y03064D01*
X04187*
X04185Y03074*
X0418Y03082*
X04173Y03089*
X04164Y03094*
X04155Y03097*
G37*
G36*
X04145D02*
X04135Y03094D01*
X04127Y03089*
X0412Y03082*
X04115Y03074*
X04112Y03064*
X04145*
Y03097*
G37*
G36*
X04506Y0318D02*
X04493D01*
X04479Y03177*
X04466Y03172*
X04455Y03164*
X04445Y03154*
X04438Y03143*
X04432Y0313*
X0443Y03116*
Y03103*
X04432Y03089*
X04438Y03076*
X04445Y03065*
X04455Y03055*
X04466Y03048*
X04479Y03042*
X04493Y0304*
X04506*
X0452Y03042*
X04533Y03048*
X04544Y03055*
X04554Y03065*
X04562Y03076*
X04567Y03089*
X0457Y03103*
Y03116*
X04567Y0313*
X04562Y03143*
X04554Y03154*
X04544Y03164*
X04533Y03172*
X0452Y03177*
X04506Y0318*
G37*
G36*
X04187Y03054D02*
X04155D01*
Y03022*
X04164Y03024*
X04173Y03029*
X0418Y03036*
X04185Y03045*
X04187Y03054*
G37*
G36*
X04145D02*
X04112D01*
X04115Y03045*
X0412Y03036*
X04127Y03029*
X04135Y03024*
X04145Y03022*
Y03054*
G37*
G36*
X04697Y03081D02*
X04688D01*
X04679Y03079*
X0467Y03074*
X04664Y03068*
X04659Y03059*
X04656Y0305*
Y03041*
X04659Y03031*
X04664Y03023*
X0467Y03016*
X04679Y03012*
X04688Y03009*
X04697*
X04706Y03012*
X04715Y03016*
X04721Y03023*
X04726Y03031*
X04729Y03041*
Y0305*
X04726Y03059*
X04721Y03068*
X04715Y03074*
X04706Y03079*
X04697Y03081*
G37*
G36*
X04254Y03043D02*
X04245D01*
X04237Y03041*
X04229Y03036*
X04223Y0303*
X04218Y03022*
X04216Y03014*
Y03005*
X04218Y02996*
X04223Y02989*
X04229Y02983*
X04237Y02978*
X04245Y02976*
X04254*
X04262Y02978*
X0427Y02983*
X04276Y02989*
X04281Y02996*
X04283Y03005*
Y03014*
X04281Y03022*
X04276Y0303*
X0427Y03036*
X04262Y03041*
X04254Y03043*
G37*
G36*
X04154Y02993D02*
X04145D01*
X04137Y02991*
X04129Y02986*
X04123Y0298*
X04118Y02972*
X04116Y02964*
Y02955*
X04118Y02946*
X04123Y02939*
X04129Y02933*
X04137Y02928*
X04145Y02926*
X04154*
X04162Y02928*
X0417Y02933*
X04176Y02939*
X04181Y02946*
X04183Y02955*
Y02964*
X04181Y02972*
X04176Y0298*
X0417Y02986*
X04162Y02991*
X04154Y02993*
G37*
G36*
X04254Y02943D02*
X04245D01*
X04237Y02941*
X04229Y02936*
X04223Y0293*
X04218Y02922*
X04216Y02914*
Y02905*
X04218Y02896*
X04223Y02889*
X04229Y02883*
X04237Y02878*
X04245Y02876*
X04254*
X04262Y02878*
X0427Y02883*
X04276Y02889*
X04281Y02896*
X04283Y02905*
Y02914*
X04281Y02922*
X04276Y0293*
X0427Y02936*
X04262Y02941*
X04254Y02943*
G37*
G36*
X04154Y02893D02*
X04145D01*
X04137Y02891*
X04129Y02886*
X04123Y0288*
X04118Y02872*
X04116Y02864*
Y02855*
X04118Y02846*
X04123Y02839*
X04129Y02833*
X04137Y02828*
X04145Y02826*
X04154*
X04162Y02828*
X0417Y02833*
X04176Y02839*
X04181Y02846*
X04183Y02855*
Y02864*
X04181Y02872*
X04176Y0288*
X0417Y02886*
X04162Y02891*
X04154Y02893*
G37*
G36*
X04254Y02843D02*
X04245D01*
X04237Y02841*
X04229Y02836*
X04223Y0283*
X04218Y02822*
X04216Y02814*
Y02805*
X04218Y02796*
X04223Y02789*
X04229Y02783*
X04237Y02778*
X04245Y02776*
X04254*
X04262Y02778*
X0427Y02783*
X04276Y02789*
X04281Y02796*
X04283Y02805*
Y02814*
X04281Y02822*
X04276Y0283*
X0427Y02836*
X04262Y02841*
X04254Y02843*
G37*
G36*
X04154Y02793D02*
X04145D01*
X04137Y02791*
X04129Y02786*
X04123Y0278*
X04118Y02772*
X04116Y02764*
Y02755*
X04118Y02746*
X04123Y02739*
X04129Y02733*
X04137Y02728*
X04145Y02726*
X04154*
X04162Y02728*
X0417Y02733*
X04176Y02739*
X04181Y02746*
X04183Y02755*
Y02764*
X04181Y02772*
X04176Y0278*
X0417Y02786*
X04162Y02791*
X04154Y02793*
G37*
G36*
X04697Y0276D02*
X04688D01*
X04679Y02757*
X0467Y02753*
X04664Y02746*
X04659Y02738*
X04656Y02728*
Y02719*
X04659Y0271*
X04664Y02702*
X0467Y02695*
X04679Y0269*
X04688Y02688*
X04697*
X04706Y0269*
X04715Y02695*
X04721Y02702*
X04726Y0271*
X04729Y02719*
Y02728*
X04726Y02738*
X04721Y02746*
X04715Y02753*
X04706Y02757*
X04697Y0276*
G37*
G36*
X04254Y02743D02*
X04245D01*
X04237Y02741*
X04229Y02736*
X04223Y0273*
X04218Y02722*
X04216Y02714*
Y02705*
X04218Y02696*
X04223Y02689*
X04229Y02683*
X04237Y02678*
X04245Y02676*
X04254*
X04262Y02678*
X0427Y02683*
X04276Y02689*
X04281Y02696*
X04283Y02705*
Y02714*
X04281Y02722*
X04276Y0273*
X0427Y02736*
X04262Y02741*
X04254Y02743*
G37*
G36*
X04394Y02636D02*
Y02595D01*
X04436*
X04435Y02597*
X04431Y02607*
X04425Y02617*
X04417Y02625*
X04407Y02631*
X04396Y02636*
X04394Y02636*
G37*
G36*
X04364D02*
X04363Y02636D01*
X04352Y02631*
X04342Y02625*
X04334Y02617*
X04328Y02607*
X04324Y02597*
X04323Y02595*
X04364*
Y02636*
G37*
G36*
X04506Y0273D02*
X04493D01*
X04479Y02727*
X04466Y02722*
X04455Y02714*
X04445Y02704*
X04438Y02693*
X04432Y0268*
X0443Y02666*
Y02653*
X04432Y02639*
X04438Y02626*
X04445Y02615*
X04455Y02605*
X04466Y02598*
X04479Y02592*
X04493Y0259*
X04506*
X0452Y02592*
X04533Y02598*
X04544Y02605*
X04554Y02615*
X04562Y02626*
X04567Y02639*
X0457Y02653*
Y02666*
X04567Y0268*
X04562Y02693*
X04554Y02704*
X04544Y02714*
X04533Y02722*
X0452Y02727*
X04506Y0273*
G37*
G36*
X04697Y0266D02*
X04688D01*
X04679Y02657*
X0467Y02653*
X04664Y02646*
X04659Y02638*
X04656Y02628*
Y02619*
X04659Y0261*
X04664Y02602*
X0467Y02595*
X04679Y0259*
X04688Y02588*
X04697*
X04706Y0259*
X04715Y02595*
X04721Y02602*
X04726Y0261*
X04729Y02619*
Y02628*
X04726Y02638*
X04721Y02646*
X04715Y02653*
X04706Y02657*
X04697Y0266*
G37*
G36*
X04364Y02565D02*
X04323D01*
X04324Y02563*
X04328Y02552*
X04334Y02543*
X04342Y02534*
X04352Y02528*
X04363Y02524*
X04364Y02523*
Y02565*
G37*
G36*
X04436D02*
X04394D01*
Y02523*
X04396Y02524*
X04407Y02528*
X04417Y02534*
X04425Y02543*
X04431Y02552*
X04435Y02563*
X04436Y02565*
G37*
%LNv1.0-3*%
%LPD*%
G54D11*
X0367Y0421D02*
X0381Y0407D01*
X0385*
G54D15*
X03245Y02735D02*
X03305Y02675D01*
X03245Y02735D02*
Y0292D01*
X03305Y02655D02*
Y02675D01*
Y02655D02*
X0349Y0247D01*
X03414Y0285D02*
X03415Y0285D01*
X0344*
X0348Y0289*
X03239Y03144D02*
X0324Y03145D01*
X0319Y03144D02*
X03239D01*
X0319Y03145D02*
X0319Y03144D01*
X0324Y03145D02*
X03245Y0314D01*
X0349Y0247D02*
X03875D01*
X03245Y0292D02*
Y0297D01*
X0273Y0292D02*
X03245D01*
X0267Y0286D02*
X0273Y0292D01*
X03245Y0297D02*
Y0314D01*
X03285*
X0348Y02945*
Y0289D02*
Y02945D01*
X0337Y03225D02*
Y03283D01*
X03285Y0314D02*
X0337Y03225D01*
G54D106*
X01185Y0326D03*
Y0316D03*
X01085Y02835D03*
Y02935D03*
X01185Y02835D03*
Y02935D03*
X03725Y02275D03*
X03825D03*
X03925D03*
G54D109*
X0415Y03059D03*
G54D112*
X04379Y03189D03*
Y0258D03*
G54D114*
X01185Y02206D03*
G54D115*
X04025Y02275D03*
G54D116*
X04523Y04783D03*
X0423D03*
G54D117*
X04529Y04933D03*
X04224D03*
G54D120*
X0367Y0489D03*
Y0446D03*
G54D121*
X0367Y0464D03*
Y0421D03*
G54D124*
X0485Y048D03*
X048Y047D03*
X0485Y046D03*
X048Y043D03*
X0485Y042D03*
Y04D03*
X048Y039D03*
X0485Y038D03*
Y036D03*
X048Y035D03*
Y023D03*
Y021D03*
X047Y049D03*
X0475Y048D03*
X047Y047D03*
X0475Y042D03*
X047Y041D03*
X0475Y04D03*
X047Y037D03*
X0475Y036D03*
X047Y035D03*
X0475Y034D03*
X047Y023D03*
Y021D03*
X046Y049D03*
X0465Y048D03*
X046Y047D03*
Y043D03*
X0465Y042D03*
X046Y041D03*
X0465Y038D03*
X046Y037D03*
X0465Y036D03*
X046Y035D03*
X0465Y034D03*
X046Y023D03*
X0465Y022D03*
X046Y021D03*
X045Y047D03*
X0455Y046D03*
X045Y045D03*
Y043D03*
X0455Y042D03*
X045Y041D03*
X0455Y038D03*
X045Y037D03*
X0455Y036D03*
X045Y035D03*
X0455Y034D03*
Y022D03*
X045Y021D03*
X044Y049D03*
X0445Y042D03*
X044Y041D03*
X0445Y04D03*
Y038D03*
X044Y037D03*
X0445Y036D03*
X044Y035D03*
X0445Y034D03*
X044Y023D03*
X0445Y022D03*
X044Y021D03*
X043Y049D03*
Y047D03*
Y045D03*
Y043D03*
X0435Y042D03*
X043Y041D03*
X0435Y038D03*
X043Y037D03*
X0435Y036D03*
X043Y035D03*
X0435Y034D03*
X043Y023D03*
X0435Y022D03*
X043Y021D03*
X042Y047D03*
X0425Y042D03*
X042Y037D03*
X0425Y036D03*
X042Y035D03*
X0425Y034D03*
X042Y023D03*
X0425Y022D03*
X042Y021D03*
X041Y049D03*
X0415Y048D03*
X041Y047D03*
Y043D03*
X0415Y042D03*
Y038D03*
X041Y037D03*
X0415Y036D03*
X041Y035D03*
X0415Y034D03*
X041Y023D03*
X0415Y022D03*
X041Y021D03*
X0405Y048D03*
X04Y045D03*
X0405Y044D03*
X04Y043D03*
X0405Y042D03*
X04Y039D03*
X0405Y038D03*
X04Y037D03*
X0405Y036D03*
X04Y035D03*
X0405Y034D03*
X04Y021D03*
X039Y047D03*
X0395Y044D03*
X039Y043D03*
X0395Y04D03*
Y038D03*
X039Y037D03*
X0395Y036D03*
X039Y035D03*
X0395Y034D03*
X039Y021D03*
X0385Y048D03*
X038Y047D03*
Y045D03*
X0385Y044D03*
Y038D03*
X038Y037D03*
X0385Y036D03*
X038Y035D03*
X0385Y034D03*
Y032D03*
Y024D03*
X038Y021D03*
X037Y047D03*
X0375Y046D03*
Y044D03*
X037Y043D03*
X0375Y042D03*
X037Y037D03*
X0375Y036D03*
Y024D03*
X037Y021D03*
X0365Y044D03*
Y024D03*
X036Y023D03*
Y021D03*
X035Y047D03*
Y045D03*
Y043D03*
Y041D03*
Y039D03*
Y035D03*
X0355Y024D03*
X035Y021D03*
X0345Y046D03*
Y044D03*
Y042D03*
X034Y041D03*
X0345Y04D03*
X034Y039D03*
Y037D03*
X0345Y036D03*
X034Y035D03*
Y025D03*
X0345Y022D03*
X034Y021D03*
X033Y047D03*
X0335Y046D03*
X033Y043D03*
Y041D03*
Y039D03*
Y037D03*
X0335Y036D03*
X033Y035D03*
X0335Y022D03*
X033Y021D03*
X032Y047D03*
Y045D03*
X0325Y044D03*
X032Y043D03*
X0325Y042D03*
X032Y041D03*
X0325Y04D03*
X032Y039D03*
Y037D03*
X0325Y036D03*
X032Y035D03*
X0325Y026D03*
Y022D03*
X032Y021D03*
X031Y047D03*
X0315Y044D03*
X031Y043D03*
X0315Y042D03*
X031Y041D03*
X0315Y04D03*
X031Y039D03*
Y037D03*
X0315Y036D03*
X031Y035D03*
X0315Y022D03*
X031Y021D03*
X03Y047D03*
X0305Y044D03*
X03Y043D03*
X0305Y042D03*
X03Y041D03*
X0305Y04D03*
X03Y039D03*
Y037D03*
Y035D03*
X0305Y026D03*
X03Y025D03*
Y021D03*
X029Y047D03*
X0295Y044D03*
Y042D03*
X029Y041D03*
Y033D03*
Y031D03*
Y027D03*
Y025D03*
Y021D03*
X028Y047D03*
Y045D03*
Y043D03*
Y041D03*
X0285Y04D03*
X028Y039D03*
Y037D03*
X0285Y036D03*
X028Y033D03*
X0285Y032D03*
X028Y031D03*
X0285Y028D03*
X028Y027D03*
X0285Y022D03*
X028Y021D03*
X027Y047D03*
X0275Y046D03*
X027Y045D03*
X0275Y044D03*
X027Y043D03*
X0275Y042D03*
X027Y041D03*
X0275Y036D03*
Y034D03*
Y032D03*
X027Y031D03*
Y027D03*
X0275Y026D03*
X027Y025D03*
Y021D03*
X026Y047D03*
X0265Y046D03*
X026Y045D03*
X0265Y044D03*
X026Y043D03*
X0265Y042D03*
X026Y041D03*
Y027D03*
Y025D03*
Y021D03*
X0255Y046D03*
X025Y045D03*
X0255Y044D03*
X025Y043D03*
X0255Y042D03*
X025Y041D03*
Y039D03*
X0255Y036D03*
Y034D03*
Y032D03*
Y022D03*
X025Y021D03*
X024Y045D03*
X0245Y044D03*
X024Y043D03*
X0245Y042D03*
X024Y041D03*
Y023D03*
X0245Y022D03*
X024Y021D03*
X023Y047D03*
X0235Y046D03*
X023Y045D03*
X0235Y044D03*
X023Y043D03*
X0235Y042D03*
X023Y041D03*
Y021D03*
X022Y047D03*
X0225Y046D03*
X022Y045D03*
X0225Y044D03*
X022Y043D03*
X0225Y042D03*
X022Y041D03*
Y039D03*
Y031D03*
Y029D03*
Y027D03*
Y023D03*
Y021D03*
X0215Y04D03*
X021Y031D03*
X0215Y03D03*
X021Y029D03*
X0215Y028D03*
X021Y027D03*
X0215Y026D03*
X021Y023D03*
X0215Y022D03*
X021Y021D03*
X02Y047D03*
X0205Y044D03*
X02Y041D03*
Y039D03*
Y037D03*
Y035D03*
X0205Y034D03*
X02Y031D03*
X0205Y03D03*
X02Y029D03*
X0205Y028D03*
X02Y027D03*
X0205Y026D03*
X02Y025D03*
X0205Y024D03*
Y022D03*
X02Y021D03*
X019Y047D03*
X0195Y044D03*
X019Y041D03*
X0195Y04D03*
X019Y039D03*
X0195Y038D03*
X019Y037D03*
Y035D03*
X0195Y034D03*
X019Y031D03*
X0195Y03D03*
X019Y029D03*
X0195Y028D03*
X019Y027D03*
X0195Y026D03*
X019Y025D03*
X0195Y024D03*
X019Y021D03*
X018Y047D03*
X0185Y044D03*
X018Y041D03*
X0185Y04D03*
X018Y039D03*
X0185Y038D03*
Y03D03*
X018Y029D03*
X0185Y026D03*
Y024D03*
X018Y023D03*
Y021D03*
X017Y047D03*
X0175Y044D03*
X017Y041D03*
X0175Y04D03*
X017Y039D03*
X0175Y038D03*
X017Y031D03*
Y029D03*
X0175Y026D03*
Y024D03*
X017Y023D03*
X0175Y022D03*
X017Y021D03*
X0165Y048D03*
X016Y047D03*
X0165Y044D03*
Y042D03*
Y04D03*
X016Y039D03*
X0165Y038D03*
Y032D03*
X016Y031D03*
X0165Y03D03*
X016Y029D03*
Y023D03*
X0165Y022D03*
X016Y021D03*
X0155Y044D03*
Y04D03*
Y038D03*
Y036D03*
Y034D03*
Y032D03*
Y028D03*
X015Y023D03*
X0155Y022D03*
X015Y021D03*
X014Y023D03*
X0145Y022D03*
X014Y021D03*
X013Y049D03*
X0135Y048D03*
X013Y047D03*
Y043D03*
X0135Y042D03*
X013Y039D03*
Y037D03*
X0135Y036D03*
Y034D03*
X013Y031D03*
Y029D03*
Y027D03*
Y023D03*
X0135Y022D03*
X013Y021D03*
X012Y047D03*
X0125Y044D03*
X012Y043D03*
X0125Y04D03*
X012Y039D03*
X0125Y038D03*
Y034D03*
Y032D03*
X012Y031D03*
X0125Y03D03*
Y028D03*
Y026D03*
X012Y025D03*
Y023D03*
X0125Y022D03*
X012Y021D03*
X011Y049D03*
Y047D03*
Y045D03*
Y043D03*
Y041D03*
X0115Y04D03*
X011Y039D03*
Y037D03*
X0115Y036D03*
X011Y031D03*
X0115Y03D03*
Y028D03*
Y026D03*
X011Y025D03*
Y023D03*
Y021D03*
X0176Y0498D03*
X03045Y03965D03*
X0296D03*
X03D03*
X0282Y02825D03*
X03305Y02675D03*
X03414Y0285D03*
X0319Y03145D03*
X04301Y04631D03*
X01593Y04913D03*
X03038Y04768D03*
X03348Y04673D03*
X02903Y04163D03*
X03043Y04098D03*
X03045Y03635D03*
X03Y0361D03*
X0296Y0359D03*
X02943Y04338D03*
Y04288D03*
X02918Y04223D03*
X04914Y03298D03*
X04912Y03217D03*
Y03075D03*
Y02862D03*
X04913Y02578D03*
X04358Y02468D03*
X04496Y02469D03*
X04618Y02464D03*
X04773Y02463D03*
X04893Y02471D03*
X04205Y02464D03*
X04078Y02463D03*
X03998Y02533D03*
X04005Y0292D03*
Y0298D03*
X04Y02828D03*
X04003Y02743D03*
X04001Y0264D03*
Y03074D03*
X04003Y03183D03*
Y03313D03*
X03923Y02668D03*
X03926Y02618D03*
X03926Y0257D03*
X03886Y02612D03*
X0355Y02633D03*
X0346Y02638D03*
X03549Y02557D03*
X03143Y02883D03*
X03008Y03093D03*
X03001Y03193D03*
X03003Y03263D03*
X03001Y03338D03*
X03003Y03383D03*
X03588Y03043D03*
X03515Y02745D03*
X03455Y0288D03*
X03485Y02975D03*
X03793Y02983D03*
X03678Y02743D03*
X03683Y02448D03*
X03548Y03268D03*
X03678Y03136D03*
X03743Y03133D03*
X03893D03*
X03923Y03043D03*
X0392Y0298D03*
Y0292D03*
X03923Y02838D03*
Y02803D03*
Y02743D03*
X03353Y02623D03*
X03418Y02548D03*
X03518Y02453D03*
X03853Y02448D03*
X0318Y0268D03*
X03135D03*
X03025D03*
X03065D03*
X03003Y02718D03*
X03Y0278D03*
X0268Y02825D03*
X02845Y0285D03*
X0287Y02875D03*
X02875Y03035D03*
X02638Y03033D03*
X02678Y03068D03*
X02638Y03063D03*
X02635Y0286D03*
X02645Y0283D03*
X02668Y02863D03*
X03243Y02973D03*
Y03143D03*
X03478Y02893D03*
X03283Y03143D03*
X03368Y03287D03*
X03208Y03963D03*
X04598Y03848D03*
X04488Y04068D03*
Y03783D03*
X04283D03*
X02758Y03963D03*
X03368D03*
X04198Y04633D03*
X03683Y03963D03*
X03848Y04073D03*
X03873Y02473D03*
G54D125*
X04435Y04349D03*
X04348D03*
X04435Y04436D03*
Y04392D03*
X04348Y04436D03*
Y04392D03*
X04392Y04349D03*
Y04436D03*
Y04392D03*
M02*