%FSTAX23Y23*%
%MOIN*%
%SFA1B1*%

%IPPOS*%
%ADD127C,0.002000*%
%LNv1.0-1*%
%LPD*%
G54D127*
X01138Y04087D02*
X01181D01*
X0116Y04066D02*
Y04109D01*
X01138Y04225D02*
X01181D01*
X0116Y04203D02*
Y04247D01*
X01138Y04501D02*
X01181D01*
X0116Y04479D02*
Y04522D01*
X01138Y04639D02*
X01181D01*
X0116Y04617D02*
Y0466D01*
X01138Y04776D02*
X01181D01*
X0116Y04755D02*
Y04798D01*
X01138Y04914D02*
X01181D01*
X0116Y04892D02*
Y04936D01*
X01138Y04363D02*
X01181D01*
X0116Y04341D02*
Y04385D01*
X01138Y0395D02*
X01181D01*
X0116Y03928D02*
Y03971D01*
X01138Y03812D02*
X01181D01*
X0116Y0379D02*
Y03833D01*
X01138Y03674D02*
X01181D01*
X0116Y03652D02*
Y03696D01*
X04232Y02709D02*
X04267D01*
X0425Y02692D02*
Y02727D01*
X04132Y02759D02*
X04167D01*
X0415Y02742D02*
Y02777D01*
X04232Y02809D02*
X04267D01*
X0425Y02792D02*
Y02827D01*
X04132Y02859D02*
X04167D01*
X0415Y02842D02*
Y02877D01*
X04232Y02909D02*
X04267D01*
X0425Y02892D02*
Y02927D01*
X04132Y02959D02*
X04167D01*
X0415Y02942D02*
Y02977D01*
X04232Y03009D02*
X04267D01*
X0425Y02992D02*
Y03027D01*
X04132Y03059D02*
X04167D01*
X0415Y03042D02*
Y03077D01*
X04672Y02624D02*
X04713D01*
X04692Y02604D02*
Y02644D01*
X04672Y02724D02*
X04713D01*
X04692Y02704D02*
Y02744D01*
X04672Y03145D02*
X04713D01*
X04692Y03125D02*
Y03165D01*
X04672Y03045D02*
X04713D01*
X04692Y03025D02*
Y03065D01*
X04436Y0311D02*
X04564D01*
X045Y03046D02*
Y03174D01*
X04436Y0266D02*
X04564D01*
X045Y02596D02*
Y02724D01*
X04347Y03189D02*
X04412D01*
X04379Y03157D02*
Y03222D01*
X04347Y0258D02*
X04412D01*
X04379Y02548D02*
Y02612D01*
X01155Y02403D02*
X01214D01*
X01185Y02373D02*
Y02433D01*
X01155Y02206D02*
X01214D01*
X01185Y02177D02*
Y02236D01*
X01163Y0326D02*
X01206D01*
X01185Y03238D02*
Y03281D01*
X01063Y0326D02*
X01106D01*
X01085Y03238D02*
Y03281D01*
X01163Y0316D02*
X01206D01*
X01185Y03138D02*
Y03181D01*
X01063Y0316D02*
X01106D01*
X01085Y03138D02*
Y03181D01*
X01163Y02735D02*
X01206D01*
X01185Y02713D02*
Y02756D01*
X01063Y02735D02*
X01106D01*
X01085Y02713D02*
Y02756D01*
X01163Y02635D02*
X01206D01*
X01185Y02613D02*
Y02656D01*
X01063Y02635D02*
X01106D01*
X01085Y02613D02*
Y02656D01*
X01063Y02835D02*
X01106D01*
X01085Y02813D02*
Y02856D01*
X01063Y02935D02*
X01106D01*
X01085Y02913D02*
Y02956D01*
X01163Y02835D02*
X01206D01*
X01185Y02813D02*
Y02856D01*
X01163Y02935D02*
X01206D01*
X01185Y02913D02*
Y02956D01*
X03703Y02175D02*
X03746D01*
X03725Y02153D02*
Y02196D01*
X03803Y02175D02*
X03846D01*
X03825Y02153D02*
Y02196D01*
X03703Y02275D02*
X03746D01*
X03725Y02253D02*
Y02296D01*
X03803Y02275D02*
X03846D01*
X03825Y02253D02*
Y02296D01*
X04003Y02275D02*
X04046D01*
X04025Y02253D02*
Y02296D01*
X04003Y02175D02*
X04046D01*
X04025Y02153D02*
Y02196D01*
X03903Y02275D02*
X03946D01*
X03925Y02253D02*
Y02296D01*
X03903Y02175D02*
X03946D01*
X03925Y02153D02*
Y02196D01*
X04506Y04783D02*
X0454D01*
X04523Y04767D02*
Y048D01*
X04213Y04783D02*
X04246D01*
X0423Y04767D02*
Y048D01*
X04518Y04933D02*
X0454D01*
X04529Y04922D02*
Y04944D01*
X04213Y04933D02*
X04235D01*
X04224Y04922D02*
Y04944D01*
X04262Y04825D02*
X04294D01*
X04278Y04809D02*
Y0484D01*
X04459Y04825D02*
X0449D01*
X04475Y04809D02*
Y0484D01*
X04755Y02195D02*
X04874D01*
X04815Y02136D02*
Y02254D01*
X03854Y0464D02*
X03885D01*
X0387Y04624D02*
Y04655D01*
X03654Y0489D02*
X03685D01*
X0367Y04874D02*
Y04905D01*
X03854Y0489D02*
X03885D01*
X0387Y04874D02*
Y04905D01*
X03654Y0464D02*
X03685D01*
X0367Y04624D02*
Y04655D01*
X03854Y0421D02*
X03885D01*
X0387Y04194D02*
Y04225D01*
X03654Y0446D02*
X03685D01*
X0367Y04444D02*
Y04475D01*
X03854Y0446D02*
X03885D01*
X0387Y04444D02*
Y04475D01*
X03654Y0421D02*
X03685D01*
X0367Y04194D02*
Y04225D01*
X04778Y03843D02*
X04818D01*
X04798Y03823D02*
Y03863D01*
X04778Y03743D02*
X04818D01*
X04798Y03723D02*
Y03763D01*
X04778Y04083D02*
X04818D01*
X04798Y04063D02*
Y04103D01*
X04778Y03983D02*
X04818D01*
X04798Y03963D02*
Y04003D01*
X02623Y0223D02*
X02667D01*
X02645Y02208D02*
Y02251D01*
X02486Y0223D02*
X02529D01*
X02507Y02208D02*
Y02251D01*
X0221Y0223D02*
X02253D01*
X02232Y02208D02*
Y02251D01*
X02072Y0223D02*
X02116D01*
X02094Y02208D02*
Y02251D01*
X01935Y0223D02*
X01978D01*
X01956Y02208D02*
Y02251D01*
X01797Y0223D02*
X0184D01*
X01818Y02208D02*
Y02251D01*
X02348Y0223D02*
X02391D01*
X0237Y02208D02*
Y02251D01*
X02761Y0223D02*
X02805D01*
X02783Y02208D02*
Y02251D01*
X02899Y0223D02*
X02942D01*
X02921Y02208D02*
Y02251D01*
X03037Y0223D02*
X0308D01*
X03059Y02208D02*
Y02251D01*
X04755Y0488D02*
X04874D01*
X04815Y04821D02*
Y04939D01*
X04845Y048D02*
X04854D01*
X0485Y04795D02*
Y04804D01*
X04795Y047D02*
X04804D01*
X048Y04695D02*
Y04704D01*
X04845Y046D02*
X04854D01*
X0485Y04595D02*
Y04604D01*
X04795Y043D02*
X04804D01*
X048Y04295D02*
Y04304D01*
X04845Y042D02*
X04854D01*
X0485Y04195D02*
Y04204D01*
X04845Y04D02*
X04854D01*
X0485Y03995D02*
Y04004D01*
X04795Y039D02*
X04804D01*
X048Y03895D02*
Y03904D01*
X04845Y038D02*
X04854D01*
X0485Y03795D02*
Y03804D01*
X04845Y036D02*
X04854D01*
X0485Y03595D02*
Y03604D01*
X04795Y035D02*
X04804D01*
X048Y03495D02*
Y03504D01*
X04795Y023D02*
X04804D01*
X048Y02295D02*
Y02304D01*
X04795Y021D02*
X04804D01*
X048Y02095D02*
Y02104D01*
X04695Y049D02*
X04704D01*
X047Y04895D02*
Y04904D01*
X04745Y048D02*
X04754D01*
X0475Y04795D02*
Y04804D01*
X04695Y047D02*
X04704D01*
X047Y04695D02*
Y04704D01*
X04745Y042D02*
X04754D01*
X0475Y04195D02*
Y04204D01*
X04695Y041D02*
X04704D01*
X047Y04095D02*
Y04104D01*
X04745Y04D02*
X04754D01*
X0475Y03995D02*
Y04004D01*
X04695Y037D02*
X04704D01*
X047Y03695D02*
Y03704D01*
X04745Y036D02*
X04754D01*
X0475Y03595D02*
Y03604D01*
X04695Y035D02*
X04704D01*
X047Y03495D02*
Y03504D01*
X04745Y034D02*
X04754D01*
X0475Y03395D02*
Y03404D01*
X04695Y023D02*
X04704D01*
X047Y02295D02*
Y02304D01*
X04695Y021D02*
X04704D01*
X047Y02095D02*
Y02104D01*
X04595Y049D02*
X04604D01*
X046Y04895D02*
Y04904D01*
X04645Y048D02*
X04654D01*
X0465Y04795D02*
Y04804D01*
X04595Y047D02*
X04604D01*
X046Y04695D02*
Y04704D01*
X04595Y043D02*
X04604D01*
X046Y04295D02*
Y04304D01*
X04645Y042D02*
X04654D01*
X0465Y04195D02*
Y04204D01*
X04595Y041D02*
X04604D01*
X046Y04095D02*
Y04104D01*
X04645Y038D02*
X04654D01*
X0465Y03795D02*
Y03804D01*
X04595Y037D02*
X04604D01*
X046Y03695D02*
Y03704D01*
X04645Y036D02*
X04654D01*
X0465Y03595D02*
Y03604D01*
X04595Y035D02*
X04604D01*
X046Y03495D02*
Y03504D01*
X04645Y034D02*
X04654D01*
X0465Y03395D02*
Y03404D01*
X04595Y023D02*
X04604D01*
X046Y02295D02*
Y02304D01*
X04645Y022D02*
X04654D01*
X0465Y02195D02*
Y02204D01*
X04595Y021D02*
X04604D01*
X046Y02095D02*
Y02104D01*
X04495Y047D02*
X04504D01*
X045Y04695D02*
Y04704D01*
X04545Y046D02*
X04554D01*
X0455Y04595D02*
Y04604D01*
X04495Y045D02*
X04504D01*
X045Y04495D02*
Y04504D01*
X04495Y043D02*
X04504D01*
X045Y04295D02*
Y04304D01*
X04545Y042D02*
X04554D01*
X0455Y04195D02*
Y04204D01*
X04495Y041D02*
X04504D01*
X045Y04095D02*
Y04104D01*
X04545Y038D02*
X04554D01*
X0455Y03795D02*
Y03804D01*
X04495Y037D02*
X04504D01*
X045Y03695D02*
Y03704D01*
X04545Y036D02*
X04554D01*
X0455Y03595D02*
Y03604D01*
X04495Y035D02*
X04504D01*
X045Y03495D02*
Y03504D01*
X04545Y034D02*
X04554D01*
X0455Y03395D02*
Y03404D01*
X04545Y022D02*
X04554D01*
X0455Y02195D02*
Y02204D01*
X04495Y021D02*
X04504D01*
X045Y02095D02*
Y02104D01*
X04395Y049D02*
X04404D01*
X044Y04895D02*
Y04904D01*
X04445Y042D02*
X04454D01*
X0445Y04195D02*
Y04204D01*
X04395Y041D02*
X04404D01*
X044Y04095D02*
Y04104D01*
X04445Y04D02*
X04454D01*
X0445Y03995D02*
Y04004D01*
X04445Y038D02*
X04454D01*
X0445Y03795D02*
Y03804D01*
X04395Y037D02*
X04404D01*
X044Y03695D02*
Y03704D01*
X04445Y036D02*
X04454D01*
X0445Y03595D02*
Y03604D01*
X04395Y035D02*
X04404D01*
X044Y03495D02*
Y03504D01*
X04445Y034D02*
X04454D01*
X0445Y03395D02*
Y03404D01*
X04395Y023D02*
X04404D01*
X044Y02295D02*
Y02304D01*
X04445Y022D02*
X04454D01*
X0445Y02195D02*
Y02204D01*
X04395Y021D02*
X04404D01*
X044Y02095D02*
Y02104D01*
X04295Y049D02*
X04304D01*
X043Y04895D02*
Y04904D01*
X04295Y047D02*
X04304D01*
X043Y04695D02*
Y04704D01*
X04295Y045D02*
X04304D01*
X043Y04495D02*
Y04504D01*
X04295Y043D02*
X04304D01*
X043Y04295D02*
Y04304D01*
X04345Y042D02*
X04354D01*
X0435Y04195D02*
Y04204D01*
X04295Y041D02*
X04304D01*
X043Y04095D02*
Y04104D01*
X04345Y038D02*
X04354D01*
X0435Y03795D02*
Y03804D01*
X04295Y037D02*
X04304D01*
X043Y03695D02*
Y03704D01*
X04345Y036D02*
X04354D01*
X0435Y03595D02*
Y03604D01*
X04295Y035D02*
X04304D01*
X043Y03495D02*
Y03504D01*
X04345Y034D02*
X04354D01*
X0435Y03395D02*
Y03404D01*
X04295Y023D02*
X04304D01*
X043Y02295D02*
Y02304D01*
X04345Y022D02*
X04354D01*
X0435Y02195D02*
Y02204D01*
X04295Y021D02*
X04304D01*
X043Y02095D02*
Y02104D01*
X04195Y047D02*
X04204D01*
X042Y04695D02*
Y04704D01*
X04245Y042D02*
X04254D01*
X0425Y04195D02*
Y04204D01*
X04195Y037D02*
X04204D01*
X042Y03695D02*
Y03704D01*
X04245Y036D02*
X04254D01*
X0425Y03595D02*
Y03604D01*
X04195Y035D02*
X04204D01*
X042Y03495D02*
Y03504D01*
X04245Y034D02*
X04254D01*
X0425Y03395D02*
Y03404D01*
X04195Y023D02*
X04204D01*
X042Y02295D02*
Y02304D01*
X04245Y022D02*
X04254D01*
X0425Y02195D02*
Y02204D01*
X04195Y021D02*
X04204D01*
X042Y02095D02*
Y02104D01*
X04095Y049D02*
X04104D01*
X041Y04895D02*
Y04904D01*
X04145Y048D02*
X04154D01*
X0415Y04795D02*
Y04804D01*
X04095Y047D02*
X04104D01*
X041Y04695D02*
Y04704D01*
X04095Y043D02*
X04104D01*
X041Y04295D02*
Y04304D01*
X04145Y042D02*
X04154D01*
X0415Y04195D02*
Y04204D01*
X04145Y038D02*
X04154D01*
X0415Y03795D02*
Y03804D01*
X04095Y037D02*
X04104D01*
X041Y03695D02*
Y03704D01*
X04145Y036D02*
X04154D01*
X0415Y03595D02*
Y03604D01*
X04095Y035D02*
X04104D01*
X041Y03495D02*
Y03504D01*
X04145Y034D02*
X04154D01*
X0415Y03395D02*
Y03404D01*
X04095Y023D02*
X04104D01*
X041Y02295D02*
Y02304D01*
X04145Y022D02*
X04154D01*
X0415Y02195D02*
Y02204D01*
X04095Y021D02*
X04104D01*
X041Y02095D02*
Y02104D01*
X04045Y048D02*
X04054D01*
X0405Y04795D02*
Y04804D01*
X03995Y045D02*
X04004D01*
X04Y04495D02*
Y04504D01*
X04045Y044D02*
X04054D01*
X0405Y04395D02*
Y04404D01*
X03995Y043D02*
X04004D01*
X04Y04295D02*
Y04304D01*
X04045Y042D02*
X04054D01*
X0405Y04195D02*
Y04204D01*
X03995Y039D02*
X04004D01*
X04Y03895D02*
Y03904D01*
X04045Y038D02*
X04054D01*
X0405Y03795D02*
Y03804D01*
X03995Y037D02*
X04004D01*
X04Y03695D02*
Y03704D01*
X04045Y036D02*
X04054D01*
X0405Y03595D02*
Y03604D01*
X03995Y035D02*
X04004D01*
X04Y03495D02*
Y03504D01*
X04045Y034D02*
X04054D01*
X0405Y03395D02*
Y03404D01*
X03995Y021D02*
X04004D01*
X04Y02095D02*
Y02104D01*
X03895Y047D02*
X03904D01*
X039Y04695D02*
Y04704D01*
X03945Y044D02*
X03954D01*
X0395Y04395D02*
Y04404D01*
X03895Y043D02*
X03904D01*
X039Y04295D02*
Y04304D01*
X03945Y04D02*
X03954D01*
X0395Y03995D02*
Y04004D01*
X03945Y038D02*
X03954D01*
X0395Y03795D02*
Y03804D01*
X03895Y037D02*
X03904D01*
X039Y03695D02*
Y03704D01*
X03945Y036D02*
X03954D01*
X0395Y03595D02*
Y03604D01*
X03895Y035D02*
X03904D01*
X039Y03495D02*
Y03504D01*
X03945Y034D02*
X03954D01*
X0395Y03395D02*
Y03404D01*
X03895Y021D02*
X03904D01*
X039Y02095D02*
Y02104D01*
X03845Y048D02*
X03854D01*
X0385Y04795D02*
Y04804D01*
X03795Y047D02*
X03804D01*
X038Y04695D02*
Y04704D01*
X03795Y045D02*
X03804D01*
X038Y04495D02*
Y04504D01*
X03845Y044D02*
X03854D01*
X0385Y04395D02*
Y04404D01*
X03845Y038D02*
X03854D01*
X0385Y03795D02*
Y03804D01*
X03795Y037D02*
X03804D01*
X038Y03695D02*
Y03704D01*
X03845Y036D02*
X03854D01*
X0385Y03595D02*
Y03604D01*
X03795Y035D02*
X03804D01*
X038Y03495D02*
Y03504D01*
X03845Y034D02*
X03854D01*
X0385Y03395D02*
Y03404D01*
X03845Y032D02*
X03854D01*
X0385Y03195D02*
Y03204D01*
X03845Y024D02*
X03854D01*
X0385Y02395D02*
Y02404D01*
X03795Y021D02*
X03804D01*
X038Y02095D02*
Y02104D01*
X03695Y047D02*
X03704D01*
X037Y04695D02*
Y04704D01*
X03745Y046D02*
X03754D01*
X0375Y04595D02*
Y04604D01*
X03745Y044D02*
X03754D01*
X0375Y04395D02*
Y04404D01*
X03695Y043D02*
X03704D01*
X037Y04295D02*
Y04304D01*
X03745Y042D02*
X03754D01*
X0375Y04195D02*
Y04204D01*
X03695Y037D02*
X03704D01*
X037Y03695D02*
Y03704D01*
X03745Y036D02*
X03754D01*
X0375Y03595D02*
Y03604D01*
X03745Y024D02*
X03754D01*
X0375Y02395D02*
Y02404D01*
X03695Y021D02*
X03704D01*
X037Y02095D02*
Y02104D01*
X03645Y044D02*
X03654D01*
X0365Y04395D02*
Y04404D01*
X03645Y024D02*
X03654D01*
X0365Y02395D02*
Y02404D01*
X03595Y023D02*
X03604D01*
X036Y02295D02*
Y02304D01*
X03595Y021D02*
X03604D01*
X036Y02095D02*
Y02104D01*
X03495Y047D02*
X03504D01*
X035Y04695D02*
Y04704D01*
X03495Y045D02*
X03504D01*
X035Y04495D02*
Y04504D01*
X03495Y043D02*
X03504D01*
X035Y04295D02*
Y04304D01*
X03495Y041D02*
X03504D01*
X035Y04095D02*
Y04104D01*
X03495Y039D02*
X03504D01*
X035Y03895D02*
Y03904D01*
X03495Y035D02*
X03504D01*
X035Y03495D02*
Y03504D01*
X03545Y024D02*
X03554D01*
X0355Y02395D02*
Y02404D01*
X03495Y021D02*
X03504D01*
X035Y02095D02*
Y02104D01*
X03445Y046D02*
X03454D01*
X0345Y04595D02*
Y04604D01*
X03445Y044D02*
X03454D01*
X0345Y04395D02*
Y04404D01*
X03445Y042D02*
X03454D01*
X0345Y04195D02*
Y04204D01*
X03395Y041D02*
X03404D01*
X034Y04095D02*
Y04104D01*
X03445Y04D02*
X03454D01*
X0345Y03995D02*
Y04004D01*
X03395Y039D02*
X03404D01*
X034Y03895D02*
Y03904D01*
X03395Y037D02*
X03404D01*
X034Y03695D02*
Y03704D01*
X03445Y036D02*
X03454D01*
X0345Y03595D02*
Y03604D01*
X03395Y035D02*
X03404D01*
X034Y03495D02*
Y03504D01*
X03395Y025D02*
X03404D01*
X034Y02495D02*
Y02504D01*
X03445Y022D02*
X03454D01*
X0345Y02195D02*
Y02204D01*
X03395Y021D02*
X03404D01*
X034Y02095D02*
Y02104D01*
X03295Y047D02*
X03304D01*
X033Y04695D02*
Y04704D01*
X03345Y046D02*
X03354D01*
X0335Y04595D02*
Y04604D01*
X03295Y043D02*
X03304D01*
X033Y04295D02*
Y04304D01*
X03295Y041D02*
X03304D01*
X033Y04095D02*
Y04104D01*
X03295Y039D02*
X03304D01*
X033Y03895D02*
Y03904D01*
X03295Y037D02*
X03304D01*
X033Y03695D02*
Y03704D01*
X03345Y036D02*
X03354D01*
X0335Y03595D02*
Y03604D01*
X03295Y035D02*
X03304D01*
X033Y03495D02*
Y03504D01*
X03345Y022D02*
X03354D01*
X0335Y02195D02*
Y02204D01*
X03295Y021D02*
X03304D01*
X033Y02095D02*
Y02104D01*
X03195Y047D02*
X03204D01*
X032Y04695D02*
Y04704D01*
X03195Y045D02*
X03204D01*
X032Y04495D02*
Y04504D01*
X03245Y044D02*
X03254D01*
X0325Y04395D02*
Y04404D01*
X03195Y043D02*
X03204D01*
X032Y04295D02*
Y04304D01*
X03245Y042D02*
X03254D01*
X0325Y04195D02*
Y04204D01*
X03195Y041D02*
X03204D01*
X032Y04095D02*
Y04104D01*
X03245Y04D02*
X03254D01*
X0325Y03995D02*
Y04004D01*
X03195Y039D02*
X03204D01*
X032Y03895D02*
Y03904D01*
X03195Y037D02*
X03204D01*
X032Y03695D02*
Y03704D01*
X03245Y036D02*
X03254D01*
X0325Y03595D02*
Y03604D01*
X03195Y035D02*
X03204D01*
X032Y03495D02*
Y03504D01*
X03245Y026D02*
X03254D01*
X0325Y02595D02*
Y02604D01*
X03245Y022D02*
X03254D01*
X0325Y02195D02*
Y02204D01*
X03195Y021D02*
X03204D01*
X032Y02095D02*
Y02104D01*
X03095Y047D02*
X03104D01*
X031Y04695D02*
Y04704D01*
X03145Y044D02*
X03154D01*
X0315Y04395D02*
Y04404D01*
X03095Y043D02*
X03104D01*
X031Y04295D02*
Y04304D01*
X03145Y042D02*
X03154D01*
X0315Y04195D02*
Y04204D01*
X03095Y041D02*
X03104D01*
X031Y04095D02*
Y04104D01*
X03145Y04D02*
X03154D01*
X0315Y03995D02*
Y04004D01*
X03095Y039D02*
X03104D01*
X031Y03895D02*
Y03904D01*
X03095Y037D02*
X03104D01*
X031Y03695D02*
Y03704D01*
X03145Y036D02*
X03154D01*
X0315Y03595D02*
Y03604D01*
X03095Y035D02*
X03104D01*
X031Y03495D02*
Y03504D01*
X03145Y022D02*
X03154D01*
X0315Y02195D02*
Y02204D01*
X03095Y021D02*
X03104D01*
X031Y02095D02*
Y02104D01*
X02995Y047D02*
X03004D01*
X03Y04695D02*
Y04704D01*
X03045Y044D02*
X03054D01*
X0305Y04395D02*
Y04404D01*
X02995Y043D02*
X03004D01*
X03Y04295D02*
Y04304D01*
X03045Y042D02*
X03054D01*
X0305Y04195D02*
Y04204D01*
X02995Y041D02*
X03004D01*
X03Y04095D02*
Y04104D01*
X03045Y04D02*
X03054D01*
X0305Y03995D02*
Y04004D01*
X02995Y039D02*
X03004D01*
X03Y03895D02*
Y03904D01*
X02995Y037D02*
X03004D01*
X03Y03695D02*
Y03704D01*
X02995Y035D02*
X03004D01*
X03Y03495D02*
Y03504D01*
X03045Y026D02*
X03054D01*
X0305Y02595D02*
Y02604D01*
X02995Y025D02*
X03004D01*
X03Y02495D02*
Y02504D01*
X02995Y021D02*
X03004D01*
X03Y02095D02*
Y02104D01*
X02895Y047D02*
X02904D01*
X029Y04695D02*
Y04704D01*
X02945Y044D02*
X02954D01*
X0295Y04395D02*
Y04404D01*
X02945Y042D02*
X02954D01*
X0295Y04195D02*
Y04204D01*
X02895Y041D02*
X02904D01*
X029Y04095D02*
Y04104D01*
X02895Y033D02*
X02904D01*
X029Y03295D02*
Y03304D01*
X02895Y031D02*
X02904D01*
X029Y03095D02*
Y03104D01*
X02895Y027D02*
X02904D01*
X029Y02695D02*
Y02704D01*
X02895Y025D02*
X02904D01*
X029Y02495D02*
Y02504D01*
X02895Y021D02*
X02904D01*
X029Y02095D02*
Y02104D01*
X02795Y047D02*
X02804D01*
X028Y04695D02*
Y04704D01*
X02795Y045D02*
X02804D01*
X028Y04495D02*
Y04504D01*
X02795Y043D02*
X02804D01*
X028Y04295D02*
Y04304D01*
X02795Y041D02*
X02804D01*
X028Y04095D02*
Y04104D01*
X02845Y04D02*
X02854D01*
X0285Y03995D02*
Y04004D01*
X02795Y039D02*
X02804D01*
X028Y03895D02*
Y03904D01*
X02795Y037D02*
X02804D01*
X028Y03695D02*
Y03704D01*
X02845Y036D02*
X02854D01*
X0285Y03595D02*
Y03604D01*
X02795Y033D02*
X02804D01*
X028Y03295D02*
Y03304D01*
X02845Y032D02*
X02854D01*
X0285Y03195D02*
Y03204D01*
X02795Y031D02*
X02804D01*
X028Y03095D02*
Y03104D01*
X02845Y028D02*
X02854D01*
X0285Y02795D02*
Y02804D01*
X02795Y027D02*
X02804D01*
X028Y02695D02*
Y02704D01*
X02845Y022D02*
X02854D01*
X0285Y02195D02*
Y02204D01*
X02795Y021D02*
X02804D01*
X028Y02095D02*
Y02104D01*
X02695Y047D02*
X02704D01*
X027Y04695D02*
Y04704D01*
X02745Y046D02*
X02754D01*
X0275Y04595D02*
Y04604D01*
X02695Y045D02*
X02704D01*
X027Y04495D02*
Y04504D01*
X02745Y044D02*
X02754D01*
X0275Y04395D02*
Y04404D01*
X02695Y043D02*
X02704D01*
X027Y04295D02*
Y04304D01*
X02745Y042D02*
X02754D01*
X0275Y04195D02*
Y04204D01*
X02695Y041D02*
X02704D01*
X027Y04095D02*
Y04104D01*
X02745Y036D02*
X02754D01*
X0275Y03595D02*
Y03604D01*
X02745Y034D02*
X02754D01*
X0275Y03395D02*
Y03404D01*
X02745Y032D02*
X02754D01*
X0275Y03195D02*
Y03204D01*
X02695Y031D02*
X02704D01*
X027Y03095D02*
Y03104D01*
X02695Y027D02*
X02704D01*
X027Y02695D02*
Y02704D01*
X02745Y026D02*
X02754D01*
X0275Y02595D02*
Y02604D01*
X02695Y025D02*
X02704D01*
X027Y02495D02*
Y02504D01*
X02695Y021D02*
X02704D01*
X027Y02095D02*
Y02104D01*
X02595Y047D02*
X02604D01*
X026Y04695D02*
Y04704D01*
X02645Y046D02*
X02654D01*
X0265Y04595D02*
Y04604D01*
X02595Y045D02*
X02604D01*
X026Y04495D02*
Y04504D01*
X02645Y044D02*
X02654D01*
X0265Y04395D02*
Y04404D01*
X02595Y043D02*
X02604D01*
X026Y04295D02*
Y04304D01*
X02645Y042D02*
X02654D01*
X0265Y04195D02*
Y04204D01*
X02595Y041D02*
X02604D01*
X026Y04095D02*
Y04104D01*
X02595Y027D02*
X02604D01*
X026Y02695D02*
Y02704D01*
X02595Y025D02*
X02604D01*
X026Y02495D02*
Y02504D01*
X02595Y021D02*
X02604D01*
X026Y02095D02*
Y02104D01*
X02545Y046D02*
X02554D01*
X0255Y04595D02*
Y04604D01*
X02495Y045D02*
X02504D01*
X025Y04495D02*
Y04504D01*
X02545Y044D02*
X02554D01*
X0255Y04395D02*
Y04404D01*
X02495Y043D02*
X02504D01*
X025Y04295D02*
Y04304D01*
X02545Y042D02*
X02554D01*
X0255Y04195D02*
Y04204D01*
X02495Y041D02*
X02504D01*
X025Y04095D02*
Y04104D01*
X02495Y039D02*
X02504D01*
X025Y03895D02*
Y03904D01*
X02545Y036D02*
X02554D01*
X0255Y03595D02*
Y03604D01*
X02545Y034D02*
X02554D01*
X0255Y03395D02*
Y03404D01*
X02545Y032D02*
X02554D01*
X0255Y03195D02*
Y03204D01*
X02545Y022D02*
X02554D01*
X0255Y02195D02*
Y02204D01*
X02495Y021D02*
X02504D01*
X025Y02095D02*
Y02104D01*
X02395Y045D02*
X02404D01*
X024Y04495D02*
Y04504D01*
X02445Y044D02*
X02454D01*
X0245Y04395D02*
Y04404D01*
X02395Y043D02*
X02404D01*
X024Y04295D02*
Y04304D01*
X02445Y042D02*
X02454D01*
X0245Y04195D02*
Y04204D01*
X02395Y041D02*
X02404D01*
X024Y04095D02*
Y04104D01*
X02395Y023D02*
X02404D01*
X024Y02295D02*
Y02304D01*
X02445Y022D02*
X02454D01*
X0245Y02195D02*
Y02204D01*
X02395Y021D02*
X02404D01*
X024Y02095D02*
Y02104D01*
X02295Y047D02*
X02304D01*
X023Y04695D02*
Y04704D01*
X02345Y046D02*
X02354D01*
X0235Y04595D02*
Y04604D01*
X02295Y045D02*
X02304D01*
X023Y04495D02*
Y04504D01*
X02345Y044D02*
X02354D01*
X0235Y04395D02*
Y04404D01*
X02295Y043D02*
X02304D01*
X023Y04295D02*
Y04304D01*
X02345Y042D02*
X02354D01*
X0235Y04195D02*
Y04204D01*
X02295Y041D02*
X02304D01*
X023Y04095D02*
Y04104D01*
X02295Y021D02*
X02304D01*
X023Y02095D02*
Y02104D01*
X02195Y047D02*
X02204D01*
X022Y04695D02*
Y04704D01*
X02245Y046D02*
X02254D01*
X0225Y04595D02*
Y04604D01*
X02195Y045D02*
X02204D01*
X022Y04495D02*
Y04504D01*
X02245Y044D02*
X02254D01*
X0225Y04395D02*
Y04404D01*
X02195Y043D02*
X02204D01*
X022Y04295D02*
Y04304D01*
X02245Y042D02*
X02254D01*
X0225Y04195D02*
Y04204D01*
X02195Y041D02*
X02204D01*
X022Y04095D02*
Y04104D01*
X02195Y039D02*
X02204D01*
X022Y03895D02*
Y03904D01*
X02195Y031D02*
X02204D01*
X022Y03095D02*
Y03104D01*
X02195Y029D02*
X02204D01*
X022Y02895D02*
Y02904D01*
X02195Y027D02*
X02204D01*
X022Y02695D02*
Y02704D01*
X02195Y023D02*
X02204D01*
X022Y02295D02*
Y02304D01*
X02195Y021D02*
X02204D01*
X022Y02095D02*
Y02104D01*
X02145Y04D02*
X02154D01*
X0215Y03995D02*
Y04004D01*
X02095Y031D02*
X02104D01*
X021Y03095D02*
Y03104D01*
X02145Y03D02*
X02154D01*
X0215Y02995D02*
Y03004D01*
X02095Y029D02*
X02104D01*
X021Y02895D02*
Y02904D01*
X02145Y028D02*
X02154D01*
X0215Y02795D02*
Y02804D01*
X02095Y027D02*
X02104D01*
X021Y02695D02*
Y02704D01*
X02145Y026D02*
X02154D01*
X0215Y02595D02*
Y02604D01*
X02095Y023D02*
X02104D01*
X021Y02295D02*
Y02304D01*
X02145Y022D02*
X02154D01*
X0215Y02195D02*
Y02204D01*
X02095Y021D02*
X02104D01*
X021Y02095D02*
Y02104D01*
X01995Y047D02*
X02004D01*
X02Y04695D02*
Y04704D01*
X02045Y044D02*
X02054D01*
X0205Y04395D02*
Y04404D01*
X01995Y041D02*
X02004D01*
X02Y04095D02*
Y04104D01*
X01995Y039D02*
X02004D01*
X02Y03895D02*
Y03904D01*
X01995Y037D02*
X02004D01*
X02Y03695D02*
Y03704D01*
X01995Y035D02*
X02004D01*
X02Y03495D02*
Y03504D01*
X02045Y034D02*
X02054D01*
X0205Y03395D02*
Y03404D01*
X01995Y031D02*
X02004D01*
X02Y03095D02*
Y03104D01*
X02045Y03D02*
X02054D01*
X0205Y02995D02*
Y03004D01*
X01995Y029D02*
X02004D01*
X02Y02895D02*
Y02904D01*
X02045Y028D02*
X02054D01*
X0205Y02795D02*
Y02804D01*
X01995Y027D02*
X02004D01*
X02Y02695D02*
Y02704D01*
X02045Y026D02*
X02054D01*
X0205Y02595D02*
Y02604D01*
X01995Y025D02*
X02004D01*
X02Y02495D02*
Y02504D01*
X02045Y024D02*
X02054D01*
X0205Y02395D02*
Y02404D01*
X02045Y022D02*
X02054D01*
X0205Y02195D02*
Y02204D01*
X01995Y021D02*
X02004D01*
X02Y02095D02*
Y02104D01*
X01895Y047D02*
X01904D01*
X019Y04695D02*
Y04704D01*
X01945Y044D02*
X01954D01*
X0195Y04395D02*
Y04404D01*
X01895Y041D02*
X01904D01*
X019Y04095D02*
Y04104D01*
X01945Y04D02*
X01954D01*
X0195Y03995D02*
Y04004D01*
X01895Y039D02*
X01904D01*
X019Y03895D02*
Y03904D01*
X01945Y038D02*
X01954D01*
X0195Y03795D02*
Y03804D01*
X01895Y037D02*
X01904D01*
X019Y03695D02*
Y03704D01*
X01895Y035D02*
X01904D01*
X019Y03495D02*
Y03504D01*
X01945Y034D02*
X01954D01*
X0195Y03395D02*
Y03404D01*
X01895Y031D02*
X01904D01*
X019Y03095D02*
Y03104D01*
X01945Y03D02*
X01954D01*
X0195Y02995D02*
Y03004D01*
X01895Y029D02*
X01904D01*
X019Y02895D02*
Y02904D01*
X01945Y028D02*
X01954D01*
X0195Y02795D02*
Y02804D01*
X01895Y027D02*
X01904D01*
X019Y02695D02*
Y02704D01*
X01945Y026D02*
X01954D01*
X0195Y02595D02*
Y02604D01*
X01895Y025D02*
X01904D01*
X019Y02495D02*
Y02504D01*
X01945Y024D02*
X01954D01*
X0195Y02395D02*
Y02404D01*
X01895Y021D02*
X01904D01*
X019Y02095D02*
Y02104D01*
X01795Y047D02*
X01804D01*
X018Y04695D02*
Y04704D01*
X01845Y044D02*
X01854D01*
X0185Y04395D02*
Y04404D01*
X01795Y041D02*
X01804D01*
X018Y04095D02*
Y04104D01*
X01845Y04D02*
X01854D01*
X0185Y03995D02*
Y04004D01*
X01795Y039D02*
X01804D01*
X018Y03895D02*
Y03904D01*
X01845Y038D02*
X01854D01*
X0185Y03795D02*
Y03804D01*
X01845Y03D02*
X01854D01*
X0185Y02995D02*
Y03004D01*
X01795Y029D02*
X01804D01*
X018Y02895D02*
Y02904D01*
X01845Y026D02*
X01854D01*
X0185Y02595D02*
Y02604D01*
X01845Y024D02*
X01854D01*
X0185Y02395D02*
Y02404D01*
X01795Y023D02*
X01804D01*
X018Y02295D02*
Y02304D01*
X01795Y021D02*
X01804D01*
X018Y02095D02*
Y02104D01*
X01695Y047D02*
X01704D01*
X017Y04695D02*
Y04704D01*
X01745Y044D02*
X01754D01*
X0175Y04395D02*
Y04404D01*
X01695Y041D02*
X01704D01*
X017Y04095D02*
Y04104D01*
X01745Y04D02*
X01754D01*
X0175Y03995D02*
Y04004D01*
X01695Y039D02*
X01704D01*
X017Y03895D02*
Y03904D01*
X01745Y038D02*
X01754D01*
X0175Y03795D02*
Y03804D01*
X01695Y031D02*
X01704D01*
X017Y03095D02*
Y03104D01*
X01695Y029D02*
X01704D01*
X017Y02895D02*
Y02904D01*
X01745Y026D02*
X01754D01*
X0175Y02595D02*
Y02604D01*
X01745Y024D02*
X01754D01*
X0175Y02395D02*
Y02404D01*
X01695Y023D02*
X01704D01*
X017Y02295D02*
Y02304D01*
X01745Y022D02*
X01754D01*
X0175Y02195D02*
Y02204D01*
X01695Y021D02*
X01704D01*
X017Y02095D02*
Y02104D01*
X01645Y048D02*
X01654D01*
X0165Y04795D02*
Y04804D01*
X01595Y047D02*
X01604D01*
X016Y04695D02*
Y04704D01*
X01645Y044D02*
X01654D01*
X0165Y04395D02*
Y04404D01*
X01645Y042D02*
X01654D01*
X0165Y04195D02*
Y04204D01*
X01645Y04D02*
X01654D01*
X0165Y03995D02*
Y04004D01*
X01595Y039D02*
X01604D01*
X016Y03895D02*
Y03904D01*
X01645Y038D02*
X01654D01*
X0165Y03795D02*
Y03804D01*
X01645Y032D02*
X01654D01*
X0165Y03195D02*
Y03204D01*
X01595Y031D02*
X01604D01*
X016Y03095D02*
Y03104D01*
X01645Y03D02*
X01654D01*
X0165Y02995D02*
Y03004D01*
X01595Y029D02*
X01604D01*
X016Y02895D02*
Y02904D01*
X01595Y023D02*
X01604D01*
X016Y02295D02*
Y02304D01*
X01645Y022D02*
X01654D01*
X0165Y02195D02*
Y02204D01*
X01595Y021D02*
X01604D01*
X016Y02095D02*
Y02104D01*
X01545Y044D02*
X01554D01*
X0155Y04395D02*
Y04404D01*
X01545Y04D02*
X01554D01*
X0155Y03995D02*
Y04004D01*
X01545Y038D02*
X01554D01*
X0155Y03795D02*
Y03804D01*
X01545Y036D02*
X01554D01*
X0155Y03595D02*
Y03604D01*
X01545Y034D02*
X01554D01*
X0155Y03395D02*
Y03404D01*
X01545Y032D02*
X01554D01*
X0155Y03195D02*
Y03204D01*
X01545Y028D02*
X01554D01*
X0155Y02795D02*
Y02804D01*
X01495Y023D02*
X01504D01*
X015Y02295D02*
Y02304D01*
X01545Y022D02*
X01554D01*
X0155Y02195D02*
Y02204D01*
X01495Y021D02*
X01504D01*
X015Y02095D02*
Y02104D01*
X01395Y023D02*
X01404D01*
X014Y02295D02*
Y02304D01*
X01445Y022D02*
X01454D01*
X0145Y02195D02*
Y02204D01*
X01395Y021D02*
X01404D01*
X014Y02095D02*
Y02104D01*
X01295Y049D02*
X01304D01*
X013Y04895D02*
Y04904D01*
X01345Y048D02*
X01354D01*
X0135Y04795D02*
Y04804D01*
X01295Y047D02*
X01304D01*
X013Y04695D02*
Y04704D01*
X01295Y043D02*
X01304D01*
X013Y04295D02*
Y04304D01*
X01345Y042D02*
X01354D01*
X0135Y04195D02*
Y04204D01*
X01295Y039D02*
X01304D01*
X013Y03895D02*
Y03904D01*
X01295Y037D02*
X01304D01*
X013Y03695D02*
Y03704D01*
X01345Y036D02*
X01354D01*
X0135Y03595D02*
Y03604D01*
X01345Y034D02*
X01354D01*
X0135Y03395D02*
Y03404D01*
X01295Y031D02*
X01304D01*
X013Y03095D02*
Y03104D01*
X01295Y029D02*
X01304D01*
X013Y02895D02*
Y02904D01*
X01295Y027D02*
X01304D01*
X013Y02695D02*
Y02704D01*
X01295Y023D02*
X01304D01*
X013Y02295D02*
Y02304D01*
X01345Y022D02*
X01354D01*
X0135Y02195D02*
Y02204D01*
X01295Y021D02*
X01304D01*
X013Y02095D02*
Y02104D01*
X01195Y047D02*
X01204D01*
X012Y04695D02*
Y04704D01*
X01245Y044D02*
X01254D01*
X0125Y04395D02*
Y04404D01*
X01195Y043D02*
X01204D01*
X012Y04295D02*
Y04304D01*
X01245Y04D02*
X01254D01*
X0125Y03995D02*
Y04004D01*
X01195Y039D02*
X01204D01*
X012Y03895D02*
Y03904D01*
X01245Y038D02*
X01254D01*
X0125Y03795D02*
Y03804D01*
X01245Y034D02*
X01254D01*
X0125Y03395D02*
Y03404D01*
X01245Y032D02*
X01254D01*
X0125Y03195D02*
Y03204D01*
X01195Y031D02*
X01204D01*
X012Y03095D02*
Y03104D01*
X01245Y03D02*
X01254D01*
X0125Y02995D02*
Y03004D01*
X01245Y028D02*
X01254D01*
X0125Y02795D02*
Y02804D01*
X01245Y026D02*
X01254D01*
X0125Y02595D02*
Y02604D01*
X01195Y025D02*
X01204D01*
X012Y02495D02*
Y02504D01*
X01195Y023D02*
X01204D01*
X012Y02295D02*
Y02304D01*
X01245Y022D02*
X01254D01*
X0125Y02195D02*
Y02204D01*
X01195Y021D02*
X01204D01*
X012Y02095D02*
Y02104D01*
X01095Y049D02*
X01104D01*
X011Y04895D02*
Y04904D01*
X01095Y047D02*
X01104D01*
X011Y04695D02*
Y04704D01*
X01095Y045D02*
X01104D01*
X011Y04495D02*
Y04504D01*
X01095Y043D02*
X01104D01*
X011Y04295D02*
Y04304D01*
X01095Y041D02*
X01104D01*
X011Y04095D02*
Y04104D01*
X01145Y04D02*
X01154D01*
X0115Y03995D02*
Y04004D01*
X01095Y039D02*
X01104D01*
X011Y03895D02*
Y03904D01*
X01095Y037D02*
X01104D01*
X011Y03695D02*
Y03704D01*
X01145Y036D02*
X01154D01*
X0115Y03595D02*
Y03604D01*
X01095Y031D02*
X01104D01*
X011Y03095D02*
Y03104D01*
X01145Y03D02*
X01154D01*
X0115Y02995D02*
Y03004D01*
X01145Y028D02*
X01154D01*
X0115Y02795D02*
Y02804D01*
X01145Y026D02*
X01154D01*
X0115Y02595D02*
Y02604D01*
X01095Y025D02*
X01104D01*
X011Y02495D02*
Y02504D01*
X01095Y023D02*
X01104D01*
X011Y02295D02*
Y02304D01*
X01095Y021D02*
X01104D01*
X011Y02095D02*
Y02104D01*
X01756Y0482D02*
X01766D01*
X01761Y04815D02*
Y04824D01*
X01755Y0498D02*
X01764D01*
X0176Y04975D02*
Y04985D01*
X0368Y0481D02*
X03689D01*
X03685Y04805D02*
Y04814D01*
X03535Y0482D02*
X03544D01*
X0354Y04815D02*
Y04824D01*
X0336Y0482D02*
X03369D01*
X03365Y04815D02*
Y04824D01*
X03185Y0482D02*
X03194D01*
X0319Y04815D02*
Y04824D01*
X03065Y04825D02*
X03074D01*
X0307Y0482D02*
Y04829D01*
X02038Y04854D02*
X02048D01*
X02043Y04849D02*
Y04859D01*
X03035Y04905D02*
X03044D01*
X0304Y049D02*
Y04909D01*
X03032Y04875D02*
X03042D01*
X03037Y0487D02*
Y04879D01*
X0378Y0265D02*
X03789D01*
X03785Y02645D02*
Y02654D01*
X0351Y02845D02*
X03519D01*
X03515Y0284D02*
Y02849D01*
X03645Y0286D02*
X03654D01*
X0365Y02855D02*
Y02864D01*
X0378Y0283D02*
X03789D01*
X03785Y02825D02*
Y02834D01*
X0389Y0289D02*
X03899D01*
X03895Y02885D02*
Y02894D01*
X01775Y0251D02*
X01784D01*
X0178Y02505D02*
Y02514D01*
X01725Y02495D02*
X01734D01*
X0173Y0249D02*
Y02499D01*
X0304Y03965D02*
X03049D01*
X03045Y0396D02*
Y03969D01*
X02955Y03965D02*
X02964D01*
X0296Y0396D02*
Y03969D01*
X02995Y03965D02*
X03004D01*
X03Y0396D02*
Y03969D01*
X03065Y0413D02*
X03074D01*
X0307Y04125D02*
Y04134D01*
X029Y0413D02*
X02909D01*
X02905Y04125D02*
Y04134D01*
X0313Y04755D02*
X03139D01*
X03135Y0475D02*
Y04759D01*
X0313Y0449D02*
X03139D01*
X03135Y04485D02*
Y04494D01*
X0246Y0385D02*
X02469D01*
X02465Y03845D02*
Y03854D01*
X02405Y03745D02*
X02414D01*
X0241Y0374D02*
Y03749D01*
X02815Y02825D02*
X02824D01*
X0282Y0282D02*
Y02829D01*
X033Y02675D02*
X03309D01*
X03305Y0267D02*
Y02679D01*
X03409Y0285D02*
X03419D01*
X03414Y02845D02*
Y02855D01*
X0307Y0317D02*
X03079D01*
X03075Y03165D02*
Y03174D01*
X03508Y03203D02*
X03518D01*
X03513Y03198D02*
Y03208D01*
X03185Y03145D02*
X03194D01*
X0319Y0314D02*
Y03149D01*
X03425Y0343D02*
X03434D01*
X0343Y03425D02*
Y03434D01*
X04296Y04631D02*
X04306D01*
X04301Y04626D02*
Y04636D01*
X0442Y0457D02*
X04429D01*
X04425Y04565D02*
Y04574D01*
X04455Y04605D02*
X04464D01*
X0446Y046D02*
Y04609D01*
X04455Y0469D02*
X04464D01*
X0446Y04685D02*
Y04694D01*
X04476Y04632D02*
X04486D01*
X04481Y04628D02*
Y04637D01*
X02143Y03778D02*
X02153D01*
X02148Y03773D02*
Y03783D01*
X02113Y03778D02*
X02123D01*
X02118Y03773D02*
Y03783D01*
X02078Y03778D02*
X02088D01*
X02083Y03773D02*
Y03783D01*
X02078Y03748D02*
X02088D01*
X02083Y03743D02*
Y03753D01*
X02143Y03748D02*
X02153D01*
X02148Y03743D02*
Y03753D01*
X01293Y03533D02*
X01303D01*
X01298Y03528D02*
Y03538D01*
X01788Y02673D02*
X01798D01*
X01793Y02668D02*
Y02678D01*
X01588Y04913D02*
X01598D01*
X01593Y04908D02*
Y04918D01*
X02113Y03748D02*
X02123D01*
X02118Y03743D02*
Y03753D01*
X02033Y04788D02*
X02043D01*
X02038Y04783D02*
Y04793D01*
X03068Y04788D02*
X03078D01*
X03073Y04783D02*
Y04793D01*
X03033Y04768D02*
X03043D01*
X03038Y04763D02*
Y04773D01*
X01953Y03308D02*
X01963D01*
X01958Y03303D02*
Y03313D01*
X03343Y04673D02*
X03353D01*
X03348Y04668D02*
Y04678D01*
X03623Y03263D02*
X03633D01*
X03628Y03258D02*
Y03268D01*
X03313Y04873D02*
X03323D01*
X03318Y04868D02*
Y04878D01*
X03313Y04783D02*
X03323D01*
X03318Y04778D02*
Y04788D01*
X04245Y04518D02*
X04254D01*
X0425Y04513D02*
Y04522D01*
X02898Y04163D02*
X02908D01*
X02903Y04158D02*
Y04168D01*
X03038Y04098D02*
X03048D01*
X03043Y04093D02*
Y04103D01*
X0304Y03635D02*
X03049D01*
X03045Y0363D02*
Y03639D01*
X02995Y0361D02*
X03004D01*
X03Y03605D02*
Y03614D01*
X02955Y0359D02*
X02964D01*
X0296Y03585D02*
Y03594D01*
X02973Y04201D02*
X02983D01*
X02978Y04196D02*
Y04206D01*
X02938Y04338D02*
X02948D01*
X02943Y04333D02*
Y04343D01*
X02938Y04288D02*
X02948D01*
X02943Y04283D02*
Y04293D01*
X02913Y04223D02*
X02923D01*
X02918Y04218D02*
Y04228D01*
X04909Y03298D02*
X04919D01*
X04914Y03293D02*
Y03302D01*
X04907Y03217D02*
X04917D01*
X04912Y03212D02*
Y03222D01*
X04907Y03075D02*
X04917D01*
X04912Y0307D02*
Y0308D01*
X04907Y02862D02*
X04917D01*
X04912Y02857D02*
Y02867D01*
X04908Y02578D02*
X04918D01*
X04913Y02573D02*
Y02583D01*
X04353Y02468D02*
X04363D01*
X04358Y02463D02*
Y02473D01*
X04491Y02469D02*
X04501D01*
X04496Y02464D02*
Y02474D01*
X04613Y02464D02*
X04623D01*
X04618Y02459D02*
Y02469D01*
X04768Y02463D02*
X04778D01*
X04773Y02458D02*
Y02468D01*
X04888Y02471D02*
X04897D01*
X04893Y02466D02*
Y02476D01*
X042Y02464D02*
X0421D01*
X04205Y02459D02*
Y02469D01*
X04073Y02463D02*
X04083D01*
X04078Y02458D02*
Y02468D01*
X03993Y02533D02*
X04003D01*
X03998Y02528D02*
Y02538D01*
X04Y0292D02*
X04009D01*
X04005Y02915D02*
Y02924D01*
X04Y0298D02*
X04009D01*
X04005Y02975D02*
Y02984D01*
X03995Y02828D02*
X04005D01*
X04Y02823D02*
Y02833D01*
X03998Y02743D02*
X04008D01*
X04003Y02738D02*
Y02748D01*
X03996Y0264D02*
X04006D01*
X04001Y02635D02*
Y02645D01*
X03996Y03074D02*
X04006D01*
X04001Y0307D02*
Y03079D01*
X03998Y03183D02*
X04008D01*
X04003Y03178D02*
Y03188D01*
X03998Y03313D02*
X04008D01*
X04003Y03308D02*
Y03318D01*
X03918Y02668D02*
X03928D01*
X03923Y02663D02*
Y02673D01*
X03922Y02618D02*
X03931D01*
X03926Y02613D02*
Y02623D01*
X03921Y0257D02*
X03931D01*
X03926Y02565D02*
Y02575D01*
X03881Y02612D02*
X03891D01*
X03886Y02608D02*
Y02617D01*
X03545Y02633D02*
X03555D01*
X0355Y02629D02*
Y02638D01*
X03455Y02638D02*
X03465D01*
X0346Y02633D02*
Y02643D01*
X03544Y02557D02*
X03554D01*
X03549Y02552D02*
Y02562D01*
X03138Y02883D02*
X03148D01*
X03143Y02878D02*
Y02888D01*
X03003Y03093D02*
X03013D01*
X03008Y03088D02*
Y03098D01*
X02996Y03193D02*
X03005D01*
X03001Y03188D02*
Y03198D01*
X02998Y03263D02*
X03008D01*
X03003Y03258D02*
Y03268D01*
X02996Y03338D02*
X03006D01*
X03001Y03334D02*
Y03343D01*
X02998Y03383D02*
X03008D01*
X03003Y03378D02*
Y03388D01*
X03583Y03043D02*
X03593D01*
X03588Y03038D02*
Y03048D01*
X0351Y02745D02*
X03519D01*
X03515Y0274D02*
Y02749D01*
X0345Y0288D02*
X03459D01*
X03455Y02875D02*
Y02884D01*
X0348Y02975D02*
X03489D01*
X03485Y0297D02*
Y02979D01*
X03788Y02983D02*
X03798D01*
X03793Y02978D02*
Y02988D01*
X03673Y02743D02*
X03683D01*
X03678Y02738D02*
Y02748D01*
X03678Y02448D02*
X03688D01*
X03683Y02443D02*
Y02453D01*
X03543Y03268D02*
X03553D01*
X03548Y03263D02*
Y03273D01*
X03674Y03136D02*
X03683D01*
X03678Y03131D02*
Y03141D01*
X03738Y03133D02*
X03748D01*
X03743Y03128D02*
Y03138D01*
X03888Y03133D02*
X03898D01*
X03893Y03128D02*
Y03138D01*
X03918Y03043D02*
X03928D01*
X03923Y03038D02*
Y03048D01*
X03915Y0298D02*
X03924D01*
X0392Y02975D02*
Y02984D01*
X03915Y0292D02*
X03924D01*
X0392Y02915D02*
Y02924D01*
X03918Y02838D02*
X03928D01*
X03923Y02833D02*
Y02843D01*
X03918Y02803D02*
X03928D01*
X03923Y02798D02*
Y02808D01*
X03918Y02743D02*
X03928D01*
X03923Y02738D02*
Y02748D01*
X03348Y02623D02*
X03358D01*
X03353Y02618D02*
Y02628D01*
X03413Y02548D02*
X03423D01*
X03418Y02543D02*
Y02553D01*
X03513Y02453D02*
X03523D01*
X03518Y02448D02*
Y02458D01*
X03848Y02448D02*
X03858D01*
X03853Y02443D02*
Y02453D01*
X03175Y0268D02*
X03184D01*
X0318Y02675D02*
Y02684D01*
X0313Y0268D02*
X03139D01*
X03135Y02675D02*
Y02684D01*
X0302Y0268D02*
X03029D01*
X03025Y02675D02*
Y02684D01*
X0306Y0268D02*
X03069D01*
X03065Y02675D02*
Y02684D01*
X02998Y02718D02*
X03008D01*
X03003Y02713D02*
Y02723D01*
X02995Y0278D02*
X03004D01*
X03Y02775D02*
Y02784D01*
X02675Y02825D02*
X02684D01*
X0268Y0282D02*
Y02829D01*
X0284Y0285D02*
X02849D01*
X02845Y02845D02*
Y02854D01*
X02865Y02875D02*
X02874D01*
X0287Y0287D02*
Y02879D01*
X0287Y03035D02*
X02879D01*
X02875Y0303D02*
Y03039D01*
X02633Y03033D02*
X02643D01*
X02638Y03028D02*
Y03038D01*
X02673Y03068D02*
X02683D01*
X02678Y03063D02*
Y03073D01*
X02633Y03063D02*
X02643D01*
X02638Y03058D02*
Y03068D01*
X0263Y0286D02*
X02639D01*
X02635Y02855D02*
Y02864D01*
X0264Y0283D02*
X02649D01*
X02645Y02825D02*
Y02834D01*
X02663Y02863D02*
X02673D01*
X02668Y02858D02*
Y02868D01*
X03238Y02973D02*
X03248D01*
X03243Y02968D02*
Y02978D01*
X03238Y03143D02*
X03248D01*
X03243Y03138D02*
Y03148D01*
X03473Y02893D02*
X03483D01*
X03478Y02888D02*
Y02898D01*
X03278Y03143D02*
X03288D01*
X03283Y03138D02*
Y03148D01*
X03363Y03287D02*
X03373D01*
X03368Y03282D02*
Y03292D01*
X03203Y03963D02*
X03213D01*
X03208Y03958D02*
Y03968D01*
X04593Y03848D02*
X04603D01*
X04598Y03843D02*
Y03853D01*
X04483Y04068D02*
X04493D01*
X04488Y04063D02*
Y04073D01*
X04483Y03783D02*
X04493D01*
X04488Y03778D02*
Y03788D01*
X04278Y03783D02*
X04288D01*
X04283Y03778D02*
Y03788D01*
X02753Y03963D02*
X02763D01*
X02758Y03958D02*
Y03968D01*
X03363Y03963D02*
X03373D01*
X03368Y03958D02*
Y03968D01*
X04193Y04633D02*
X04203D01*
X04198Y04628D02*
Y04638D01*
X03678Y03963D02*
X03688D01*
X03683Y03958D02*
Y03968D01*
X03843Y04073D02*
X03853D01*
X03848Y04068D02*
Y04078D01*
X03568Y04113D02*
X03578D01*
X03573Y04108D02*
Y04118D01*
X03568Y03903D02*
X03578D01*
X03573Y03898D02*
Y03908D01*
X03723Y03443D02*
X03733D01*
X03728Y03438D02*
Y03448D01*
X03688Y04368D02*
X03698D01*
X03693Y04363D02*
Y04373D01*
X01188Y03443D02*
X01198D01*
X01193Y03438D02*
Y03448D01*
X01773Y02808D02*
X01783D01*
X01778Y02803D02*
Y02813D01*
X02398Y03958D02*
X02408D01*
X02403Y03953D02*
Y03963D01*
X03868Y02473D02*
X03878D01*
X03873Y02468D02*
Y02478D01*
X04888Y04518D02*
X04898D01*
X04893Y04513D02*
Y04523D01*
X02963Y04313D02*
X02973D01*
X02968Y04308D02*
Y04318D01*
X04018Y04568D02*
X04028D01*
X04023Y04563D02*
Y04573D01*
X04365Y04531D02*
X04374D01*
X0437Y04526D02*
Y04536D01*
X03148Y03268D02*
X03158D01*
X03153Y03263D02*
Y03273D01*
X02978Y03118D02*
X02988D01*
X02983Y03113D02*
Y03123D01*
X03093Y02503D02*
X03103D01*
X03098Y02498D02*
Y02508D01*
X03888Y03073D02*
X03898D01*
X03893Y03068D02*
Y03078D01*
X03508Y03083D02*
X03518D01*
X03513Y03078D02*
Y03088D01*
X02933Y03118D02*
X02943D01*
X02938Y03113D02*
Y03123D01*
X03258Y03268D02*
X03268D01*
X03263Y03263D02*
Y03273D01*
X04558Y04293D02*
X04568D01*
X04563Y04288D02*
Y04298D01*
X04528Y04333D02*
X04538D01*
X04533Y04328D02*
Y04338D01*
X0453Y04416D02*
X04539D01*
X04535Y04411D02*
Y04421D01*
X04592Y04377D02*
X04602D01*
X04597Y04372D02*
Y04382D01*
X04592Y04536D02*
X04602D01*
X04597Y04531D02*
Y04541D01*
X04685Y04386D02*
X04694D01*
X0469Y04381D02*
Y04391D01*
X04685Y04526D02*
X04694D01*
X0469Y04521D02*
Y04531D01*
X0464Y04336D02*
X04649D01*
X04645Y04331D02*
Y04341D01*
X0456Y04396D02*
X04569D01*
X04565Y04391D02*
Y04401D01*
X0464Y04491D02*
X04649D01*
X04645Y04486D02*
Y04496D01*
X04888Y04673D02*
X04898D01*
X04893Y04668D02*
Y04678D01*
X04363Y03837D02*
X04373D01*
X04368Y03832D02*
Y03842D01*
X04363Y04011D02*
X04373D01*
X04368Y04006D02*
Y04016D01*
X0407Y04456D02*
X04079D01*
X04075Y04451D02*
Y04461D01*
X04431Y04349D02*
X04439D01*
X04435Y04345D02*
Y04353D01*
X04344Y04349D02*
X04352D01*
X04348Y04345D02*
Y04353D01*
X04431Y04436D02*
X04439D01*
X04435Y04432D02*
Y0444D01*
X04431Y04392D02*
X04439D01*
X04435Y04389D02*
Y04396D01*
X04344Y04436D02*
X04352D01*
X04348Y04432D02*
Y0444D01*
X04344Y04392D02*
X04352D01*
X04348Y04389D02*
Y04396D01*
X04388Y04349D02*
X04395D01*
X04392Y04345D02*
Y04353D01*
X04388Y04436D02*
X04395D01*
X04392Y04432D02*
Y0444D01*
X04388Y04392D02*
X04395D01*
X04392Y04389D02*
Y04396D01*
X0425Y04455D02*
X04259D01*
X04255Y0445D02*
Y04459D01*
X0425Y04331D02*
X04259D01*
X04255Y04326D02*
Y04336D01*
M02*