%FSTAX23Y23*%
%MOIN*%
%SFA1B1*%

%IPPOS*%
%ADD9500C,0.007900*%
%ADD9501C,0.009800*%
%ADD9502C,0.031000*%
%ADD9503C,0.035000*%
%ADD9504C,0.039400*%
%ADD9505C,0.040200*%
%ADD9506C,0.043300*%
%ADD9507C,0.059100*%
%ADD9508C,0.064200*%
%ADD9509C,0.118100*%
%ADD9510C,0.031500*%
%ADD9511C,0.128000*%
%LNv1.0-roundholes-1*%
%LPD*%
G54D9500*
X04348Y04349D03*
Y04392D03*
Y04436D03*
X04392D03*
X04435D03*
Y04392D03*
Y04349D03*
X04392D03*
Y04392D03*
G54D9501*
X047Y021D03*
X048D03*
Y023D03*
X047D03*
X04773Y02463D03*
X04893Y02471D03*
X04913Y02578D03*
X04912Y02862D03*
Y03075D03*
X04618Y02464D03*
X04496Y02469D03*
X04358Y02468D03*
X04205Y02464D03*
X04078Y02463D03*
X03998Y02533D03*
X03926Y0257D03*
X03926Y02618D03*
X03886Y02612D03*
X03923Y02668D03*
Y02743D03*
Y02803D03*
Y02838D03*
X03895Y0289D03*
X0392Y0292D03*
Y0298D03*
X03923Y03043D03*
X03893Y03073D03*
X04001Y03074D03*
X04005Y0298D03*
Y0292D03*
X04Y02828D03*
X04003Y02743D03*
X04001Y0264D03*
X03785Y0265D03*
Y0283D03*
X03793Y02983D03*
X03588Y03043D03*
X03513Y03083D03*
X03485Y02975D03*
X03478Y02893D03*
X03455Y0288D03*
X03414Y0285D03*
X03515Y02845D03*
Y02745D03*
X0355Y02633D03*
X03549Y02557D03*
X03518Y02453D03*
X0355Y024D03*
X0365D03*
X03683Y02448D03*
X0375Y024D03*
X0385D03*
X03853Y02448D03*
X03873Y02473D03*
X041Y023D03*
X042D03*
X043D03*
X044D03*
X0445Y022D03*
X0455D03*
X0465D03*
X046Y023D03*
Y021D03*
X045D03*
X044D03*
X043D03*
X042D03*
X041D03*
X04D03*
X039D03*
X038D03*
X037D03*
X036D03*
X035D03*
X034D03*
X033D03*
X032D03*
X0325Y022D03*
X0335D03*
X0345D03*
X036Y023D03*
X034Y025D03*
X03418Y02548D03*
X0346Y02638D03*
X03353Y02623D03*
X03305Y02675D03*
X0325Y026D03*
X0318Y0268D03*
X03135D03*
X03143Y02883D03*
X03243Y02973D03*
X0365Y0286D03*
X03678Y02743D03*
X0415Y022D03*
X0425D03*
X0435D03*
X0315D03*
X031Y021D03*
X03D03*
X029D03*
X028D03*
X027D03*
X026D03*
X025D03*
X024D03*
X023D03*
X022D03*
X021D03*
X02D03*
X019D03*
X018D03*
X017D03*
X016D03*
X0165Y022D03*
X0175D03*
X018Y023D03*
X017D03*
X016D03*
X0175Y024D03*
X0185D03*
X0195D03*
X0205D03*
X021Y023D03*
X022D03*
X0215Y022D03*
X0205D03*
X02Y025D03*
X019D03*
X0178Y0251D03*
X0173Y02495D03*
X0175Y026D03*
X0185D03*
X0195D03*
X0205D03*
X0215D03*
X022Y027D03*
X021D03*
X02D03*
X019D03*
X01793Y02673D03*
X01778Y02808D03*
X018Y029D03*
X019D03*
X02D03*
X021D03*
X022D03*
X0215Y03D03*
X0205D03*
X0195D03*
X0185D03*
X019Y031D03*
X02D03*
X021D03*
X022D03*
X0215Y028D03*
X0205D03*
X0195D03*
X017Y029D03*
X016D03*
X0165Y03D03*
X017Y031D03*
X016D03*
X02638Y03063D03*
Y03033D03*
X02678Y03068D03*
X027Y031D03*
X028D03*
X029D03*
X02938Y03118D03*
X02983D03*
X03008Y03093D03*
X02875Y03035D03*
X0287Y02875D03*
X02845Y0285D03*
X0282Y02825D03*
X0285Y028D03*
X029Y027D03*
X028D03*
X027D03*
X026D03*
X02645Y0283D03*
X0268Y02825D03*
X02668Y02863D03*
X02635Y0286D03*
X0275Y026D03*
X027Y025D03*
X026D03*
X029D03*
X03D03*
X03098Y02503D03*
X0305Y026D03*
X03065Y0268D03*
X03025D03*
X03003Y02718D03*
X03Y0278D03*
X0285Y022D03*
X0255D03*
X0245D03*
X024Y023D03*
X015D03*
X014D03*
X013D03*
X012D03*
X011D03*
Y025D03*
X012D03*
X0125Y026D03*
X0115D03*
Y028D03*
X0125D03*
X013Y029D03*
X0125Y03D03*
X0115D03*
X012Y031D03*
X013D03*
X011D03*
X013Y027D03*
X0155Y028D03*
Y022D03*
X0145D03*
X0135D03*
X0125D03*
X013Y021D03*
X014D03*
X015D03*
X012D03*
X011D03*
X0125Y032D03*
Y034D03*
X0135D03*
X01298Y03533D03*
X0135Y036D03*
X013Y037D03*
X0125Y038D03*
X013Y039D03*
X012D03*
X011D03*
X0115Y04D03*
X0125D03*
X011Y041D03*
Y043D03*
X012D03*
X013D03*
X0135Y042D03*
X0125Y044D03*
X011Y045D03*
X0155Y044D03*
Y04D03*
Y038D03*
Y036D03*
Y034D03*
Y032D03*
X01193Y03443D03*
X0115Y036D03*
X011Y037D03*
X0165Y038D03*
X0175D03*
X0185D03*
X0195D03*
X02Y039D03*
X019D03*
X018D03*
X017D03*
X016D03*
X0165Y04D03*
X0175D03*
X0185D03*
X0195D03*
X02Y041D03*
X019D03*
X018D03*
X017D03*
X0165Y042D03*
Y044D03*
X0175D03*
X0185D03*
X0195D03*
X0205D03*
X0225D03*
X0235D03*
X0245D03*
X0255D03*
X0265D03*
X0275D03*
X028Y045D03*
X027D03*
X026D03*
X025D03*
X024D03*
X023D03*
X022D03*
X0225Y046D03*
X0235D03*
X0255D03*
X0265D03*
X0275D03*
X028Y043D03*
X027D03*
X026D03*
X025D03*
X024D03*
X023D03*
X022D03*
X0225Y042D03*
X0235D03*
X0245D03*
X0255D03*
X0265D03*
X0275D03*
X028Y041D03*
X029D03*
X02905Y0413D03*
X02903Y04163D03*
X02918Y04223D03*
X0295Y042D03*
X02978Y04201D03*
X0305Y042D03*
X0307Y0413D03*
X03043Y04098D03*
X03Y041D03*
X031D03*
X0305Y04D03*
X03045Y03965D03*
X03D03*
X0296D03*
X03Y039D03*
X031D03*
Y037D03*
X03D03*
Y0361D03*
X0296Y0359D03*
X0285Y036D03*
X0275D03*
X028Y037D03*
Y039D03*
X02758Y03963D03*
X0285Y04D03*
X027Y041D03*
X026D03*
X025D03*
X024D03*
X023D03*
X022D03*
X0215Y04D03*
X022Y039D03*
X02148Y03778D03*
X02118D03*
Y03748D03*
X02148D03*
X02083D03*
Y03778D03*
X02Y037D03*
X019D03*
Y035D03*
X02D03*
X0205Y034D03*
X0195D03*
X01958Y03308D03*
X0165Y032D03*
X0255D03*
X0275D03*
X0285D03*
X029Y033D03*
X028D03*
X0275Y034D03*
X0255D03*
Y036D03*
X0241Y03745D03*
X02465Y0385D03*
X025Y039D03*
X02403Y03958D03*
X02943Y04288D03*
Y04338D03*
X02968Y04313D03*
X03Y043D03*
X031D03*
X0305Y044D03*
X0295D03*
X03045Y03635D03*
X03Y035D03*
X031D03*
X03003Y03383D03*
X03001Y03338D03*
X03003Y03263D03*
X03001Y03193D03*
X03075Y0317D03*
X0319Y03145D03*
X03243Y03143D03*
X03283D03*
X03263Y03268D03*
X03153D03*
X03368Y03287D03*
X03548Y03268D03*
X03628Y03263D03*
X03513Y03203D03*
X03678Y03136D03*
X03743Y03133D03*
X03893D03*
X0385Y032D03*
X04003Y03183D03*
Y03313D03*
X0405Y034D03*
X0415D03*
X0425D03*
X0435D03*
X0445D03*
X0455D03*
X0465D03*
X046Y035D03*
X045D03*
X044D03*
X043D03*
X042D03*
X041D03*
X04D03*
X039D03*
X038D03*
X03728Y03443D03*
X0385Y034D03*
X0395D03*
Y036D03*
X0405D03*
X0415D03*
X0425D03*
X0435D03*
X0445D03*
X0455D03*
X0465D03*
X046Y037D03*
X045D03*
X04488Y03783D03*
X0445Y038D03*
X0455D03*
X04598Y03848D03*
X0465Y038D03*
X0435D03*
X04368Y03837D03*
X04283Y03783D03*
X043Y037D03*
X044D03*
X042D03*
X041D03*
X04D03*
X039D03*
X038D03*
X037D03*
X0375Y036D03*
X0385D03*
Y038D03*
X0395D03*
X0405D03*
X0415D03*
X04Y039D03*
X0395Y04D03*
X03848Y04073D03*
X0375Y042D03*
X037Y043D03*
X03693Y04368D03*
X0365Y044D03*
X0375D03*
X0385D03*
X0395D03*
X0405D03*
X04075Y04456D03*
X04Y045D03*
X04023Y04568D03*
X04198Y04633D03*
X04301Y04631D03*
X043Y045D03*
X0425Y04518D03*
X04255Y04455D03*
Y04331D03*
X043Y043D03*
X0435Y042D03*
X0445D03*
X0455D03*
X0465D03*
X04645Y04336D03*
X046Y043D03*
X04563Y04293D03*
X045Y043D03*
X04533Y04333D03*
X04535Y04416D03*
X04565Y04396D03*
X04597Y04377D03*
X04597Y04536D03*
X04645Y04491D03*
X045Y045D03*
X04425Y0457D03*
X0446Y04605D03*
X04481Y04632D03*
X0455Y046D03*
X0437Y04531D03*
X0425Y042D03*
X0415D03*
X0405D03*
X041Y043D03*
X04D03*
X039D03*
X038Y045D03*
X0375Y046D03*
X0345D03*
X0335D03*
X03348Y04673D03*
X032Y045D03*
X03135Y0449D03*
X0315Y044D03*
X0325D03*
X033Y043D03*
X032D03*
X0325Y042D03*
X0315D03*
X032Y041D03*
X033D03*
X034D03*
X035D03*
X03573Y04113D03*
X0345Y042D03*
X035Y043D03*
X0345Y044D03*
X035Y045D03*
X0345Y04D03*
X03368Y03963D03*
X034Y039D03*
X035D03*
X03573Y03903D03*
X03683Y03963D03*
X033Y039D03*
X032D03*
X03208Y03963D03*
X0325Y04D03*
X0315D03*
X032Y037D03*
X033D03*
X034D03*
X0345Y036D03*
X0335D03*
X0325D03*
X0315D03*
X032Y035D03*
X033D03*
X034D03*
X035D03*
X0343Y0343D03*
X04368Y04011D03*
X0445Y04D03*
X04488Y04068D03*
X045Y041D03*
X046D03*
X044D03*
X043D03*
X047D03*
X0475Y042D03*
X0485D03*
X048Y043D03*
X0469Y04386D03*
Y04526D03*
X04893Y04518D03*
X0485Y046D03*
X04893Y04673D03*
X0485Y04D03*
X0475D03*
X048Y039D03*
X0485Y038D03*
Y036D03*
X0475D03*
X048Y035D03*
X047D03*
X0475Y034D03*
X04914Y03298D03*
X04912Y03217D03*
X047Y037D03*
Y047D03*
X048D03*
X0485Y048D03*
X0475D03*
X047Y049D03*
X046D03*
X0465Y048D03*
X046Y047D03*
X045D03*
X0446Y0469D03*
X043Y047D03*
X042D03*
X041D03*
X0415Y048D03*
X0405D03*
X041Y049D03*
X043D03*
X044D03*
X0385Y048D03*
X039Y047D03*
X038D03*
X037D03*
X03685Y0481D03*
X0354Y0482D03*
X035Y047D03*
X033D03*
X032D03*
X03135Y04755D03*
X0319Y0482D03*
X03318Y04783D03*
X03365Y0482D03*
X03318Y04873D03*
X03037Y04875D03*
X0304Y04905D03*
X0307Y04825D03*
X03073Y04788D03*
X03038Y04768D03*
X03Y047D03*
X031D03*
X029D03*
X028D03*
X027D03*
X026D03*
X023D03*
X022D03*
X02D03*
X019D03*
X018D03*
X017D03*
X016D03*
X0165Y048D03*
X01761Y0482D03*
X0176Y0498D03*
X01593Y04913D03*
X02043Y04854D03*
X02038Y04788D03*
X0135Y048D03*
X013Y049D03*
Y047D03*
X012D03*
X011D03*
Y049D03*
G54D9502*
X0367Y0421D03*
X0387D03*
Y0446D03*
Y0464D03*
X0367D03*
Y0446D03*
Y0489D03*
X0387D03*
G54D9503*
X0415Y02759D03*
Y02859D03*
Y02959D03*
Y03059D03*
X0425Y03009D03*
Y02909D03*
Y02809D03*
Y02709D03*
G54D9504*
X04798Y03743D03*
Y03843D03*
Y03983D03*
Y04083D03*
G54D9505*
X04692Y02624D03*
Y02724D03*
Y03045D03*
Y03145D03*
G54D9506*
X03725Y02175D03*
X03825D03*
Y02275D03*
X03725D03*
X03925D03*
X04025D03*
Y02175D03*
X03925D03*
X03059Y0223D03*
X02921D03*
X02783D03*
X02645D03*
X02507D03*
X0237D03*
X02232D03*
X02094D03*
X01956D03*
X01818D03*
X01185Y02635D03*
Y02735D03*
X01085D03*
Y02635D03*
Y02835D03*
Y02935D03*
X01185D03*
Y02835D03*
Y0316D03*
Y0326D03*
X01085D03*
Y0316D03*
X0116Y03674D03*
Y03812D03*
Y0395D03*
Y04087D03*
Y04225D03*
Y04363D03*
Y04501D03*
Y04639D03*
Y04776D03*
Y04914D03*
G54D9507*
X01185Y02206D03*
Y02403D03*
G54D9508*
X04379Y0258D03*
Y03189D03*
G54D9509*
X04815Y02195D03*
Y0488D03*
G54D9510*
X04278Y04825D03*
X04475D03*
G54D9511*
X045Y0266D03*
Y0311D03*
M02*