%FSTAX23Y23*%
%MOIN*%
%SFA1B1*%

%IPPOS*%
%ADD20R,0.124000X0.063000*%
%ADD21R,0.061000X0.126400*%
%ADD22C,0.063000*%
%ADD23R,0.052800X0.031500*%
%ADD24R,0.015700X0.031500*%
%ADD25R,0.031500X0.037400*%
%ADD26R,0.157500X0.157500*%
%ADD27R,0.059100X0.039400*%
%ADD28R,0.039400X0.059100*%
%ADD29R,0.031500X0.031500*%
%ADD30R,0.017700X0.051200*%
%ADD31R,0.021700X0.035400*%
%ADD32R,0.035400X0.021700*%
%ADD33R,0.031500X0.031500*%
%ADD34R,0.216500X0.084600*%
%ADD35R,0.068900X0.177200*%
%ADD36R,0.070900X0.173200*%
%ADD37R,0.076800X0.049200*%
%ADD38R,0.049200X0.031500*%
%ADD39O,0.023600X0.057100*%
%ADD40R,0.037400X0.031500*%
%ADD41O,0.059100X0.023600*%
%ADD42O,0.057100X0.011800*%
%ADD43O,0.011800X0.057100*%
%ADD44R,0.039400X0.023600*%
%ADD45R,0.061000X0.082700*%
%ADD46R,0.050000X0.055000*%
%ADD47R,0.082700X0.061000*%
%ADD48O,0.041300X0.009800*%
%ADD49O,0.009800X0.041300*%
%ADD50R,0.123200X0.123200*%
%ADD51R,0.031500X0.015700*%
%ADD52R,0.045300X0.055100*%
%ADD106C,0.065000*%
%ADD107R,0.065000X0.065000*%
%ADD108R,0.055000X0.055000*%
%ADD109C,0.055000*%
%ADD110C,0.060200*%
%ADD111C,0.128000*%
%ADD112C,0.096300*%
%ADD113R,0.088600X0.088600*%
%ADD114C,0.088600*%
%ADD115R,0.065000X0.065000*%
%ADD116O,0.057100X0.078700*%
%ADD117O,0.045300X0.070900*%
%ADD118C,0.031500*%
%ADD119C,0.138000*%
%ADD120C,0.075000*%
%ADD121R,0.075000X0.075000*%
%ADD122R,0.059100X0.059100*%
%ADD123C,0.059100*%
%LNv1.0-1*%
%LPD*%
G54D20*
X01458Y0279D03*
X01651D03*
X01925Y0362D03*
X02117D03*
G54D21*
X01622Y02535D03*
X01457D03*
G54D22*
X01485Y0216D03*
X01445Y0491D03*
X0167D03*
X01835Y0251D03*
X04505Y02255D03*
X01835Y0281D03*
X03305Y0226D03*
X0465Y0472D03*
G54D23*
X0356Y03385D03*
Y03304D03*
G54D24*
X04584Y03965D03*
X0461D03*
X04635D03*
Y03881D03*
X04584D03*
X0461D03*
X04076Y04593D03*
Y04502D03*
G54D25*
X02409Y039D03*
X02465D03*
X03002Y04905D03*
X02947D03*
X01862Y0484D03*
X01917D03*
X03Y0478D03*
X02945D03*
X04377Y03893D03*
X04432D03*
X04377Y03953D03*
X04432D03*
X04144Y04447D03*
X04199D03*
X04144Y04327D03*
X04199D03*
X01084Y03439D03*
X0114D03*
G54D26*
X02447Y04642D03*
G54D27*
X02849Y0496D03*
X0214D03*
Y049D03*
Y04841D03*
Y04782D03*
Y04723D03*
Y04664D03*
Y04605D03*
Y04546D03*
Y04487D03*
Y04428D03*
Y04369D03*
Y0431D03*
Y04251D03*
Y04192D03*
Y04133D03*
Y04074D03*
X02849Y049D03*
Y04841D03*
Y04782D03*
Y04723D03*
Y04664D03*
Y04605D03*
Y04546D03*
Y04487D03*
Y04428D03*
Y04369D03*
Y0431D03*
Y04251D03*
Y04192D03*
Y04133D03*
Y04074D03*
G54D28*
X02229Y0403D03*
X02288D03*
X02347D03*
X02406D03*
X0276D03*
X02701D03*
X02642D03*
X02583D03*
X02524D03*
X02465D03*
G54D29*
X03795Y0313D03*
X03855D03*
X03739Y0295D03*
X0368D03*
X03619Y0319D03*
X0356D03*
X03619Y0283D03*
X0356D03*
X03935Y0247D03*
X03995D03*
X01853Y04775D03*
X01916D03*
X03004Y0484D03*
X02945D03*
X04115Y0412D03*
X04174D03*
X03619Y0289D03*
X0356D03*
X03619Y0307D03*
X0356D03*
X03739Y0301D03*
X0368D03*
X02716Y02855D03*
X02775D03*
X04199Y04387D03*
X04136D03*
X01413Y0356D03*
X01354D03*
X01476Y03096D03*
X01417D03*
X01082Y0351D03*
X01145D03*
G54D30*
X04325Y04783D03*
X04351D03*
X04376D03*
X04402D03*
X04427D03*
G54D31*
X0356Y0301D03*
X0362D03*
X0356Y0295D03*
X03619D03*
X0368Y0289D03*
X03739D03*
X0356Y0277D03*
X0362D03*
X0356Y0271D03*
X0362D03*
X03619Y0313D03*
X0356D03*
X03854Y0307D03*
X03795D03*
X03854Y0289D03*
X03795D03*
X03739Y0283D03*
X0368D03*
X03739Y0265D03*
X0368D03*
G54D32*
X03288Y02558D03*
Y02499D03*
X03224Y02558D03*
Y02499D03*
X03161Y02558D03*
Y02499D03*
X0285Y02964D03*
Y02905D03*
X0337Y0331D03*
Y03369D03*
X0486Y03464D03*
Y03405D03*
X048D03*
Y03464D03*
G54D33*
X03255Y03374D03*
Y03315D03*
X032Y03374D03*
Y03315D03*
X0309Y03315D03*
Y03374D03*
X0294Y03049D03*
Y0299D03*
X0204Y04959D03*
Y049D03*
X0186Y04959D03*
Y049D03*
X0192Y04959D03*
Y049D03*
X0198Y04959D03*
Y049D03*
X03795Y03957D03*
Y03898D03*
X03735Y03957D03*
Y03898D03*
X0424Y03778D03*
Y03837D03*
X0449Y03839D03*
Y03898D03*
X03795Y04072D03*
Y04013D03*
X0449Y04007D03*
Y03948D03*
X0331Y03315D03*
Y03374D03*
X03685D03*
Y03315D03*
X0266Y02905D03*
Y02964D03*
X0363Y03373D03*
Y03314D03*
X0349Y03374D03*
Y03315D03*
X0343Y03374D03*
Y03315D03*
X03145Y03374D03*
Y03315D03*
X03099Y04953D03*
Y0489D03*
X03273Y04953D03*
Y0489D03*
X03447Y04953D03*
Y0489D03*
X04201Y04567D03*
Y04507D03*
X04146Y04567D03*
Y04507D03*
G54D34*
X0169Y0368D03*
Y03529D03*
G54D35*
X02159Y0329D03*
X02031D03*
G54D36*
X0178Y03345D03*
Y03054D03*
G54D37*
X01436Y0301D03*
X01533D03*
G54D38*
X0375Y03389D03*
Y0331D03*
G54D39*
X01363Y03262D03*
X01413D03*
X01463D03*
X01513D03*
X01363Y03477D03*
X01413D03*
X01463D03*
X01513D03*
G54D40*
X0367Y04071D03*
Y04015D03*
X03735Y04071D03*
Y04015D03*
X03795Y03785D03*
Y03841D03*
X04175Y04005D03*
Y04061D03*
X04315Y03893D03*
Y03838D03*
Y04006D03*
Y0395D03*
X0424Y04005D03*
Y04061D03*
Y03895D03*
Y03951D03*
X04896Y0456D03*
Y04615D03*
Y0441D03*
Y04465D03*
X04646Y04535D03*
Y0459D03*
Y04382D03*
Y04438D03*
X03189Y04898D03*
Y04953D03*
X03363Y04898D03*
Y04953D03*
X03536Y04898D03*
Y04953D03*
X01285Y03282D03*
Y03337D03*
Y03402D03*
Y03457D03*
G54D41*
X03878Y03953D03*
Y04003D03*
Y03903D03*
Y03853D03*
X04091Y04003D03*
Y03953D03*
Y03903D03*
Y03853D03*
G54D42*
X03361Y02811D03*
Y02831D03*
Y02851D03*
Y0287D03*
Y0289D03*
Y0291D03*
Y02929D03*
Y02949D03*
Y02969D03*
Y02988D03*
Y03008D03*
Y03028D03*
X03028D03*
Y03008D03*
Y02988D03*
Y02969D03*
Y02949D03*
Y02929D03*
Y0291D03*
Y0289D03*
Y0287D03*
Y02851D03*
Y02831D03*
Y02811D03*
G54D43*
X03303Y03086D03*
X03283D03*
X03263D03*
X03244D03*
X03224D03*
X03204D03*
X03185D03*
X03165D03*
X03145D03*
X03126D03*
X03106D03*
X03086D03*
Y02753D03*
X03106D03*
X03126D03*
X03145D03*
X03165D03*
X03185D03*
X03204D03*
X03224D03*
X03244D03*
X03263D03*
X03283D03*
X03303D03*
G54D44*
X04829Y04559D03*
X04735Y04522D03*
Y04597D03*
X04828Y04407D03*
X04734Y0437D03*
Y04445D03*
G54D45*
X01465Y03823D03*
Y0365D03*
G54D46*
X01503Y0318D03*
X01413D03*
G54D47*
X01601Y0237D03*
X01428D03*
G54D48*
X04482Y04452D03*
Y04432D03*
Y04412D03*
Y04392D03*
Y04373D03*
Y04353D03*
Y04333D03*
X04301D03*
Y04353D03*
Y04373D03*
Y04392D03*
Y04412D03*
Y04432D03*
Y04452D03*
G54D49*
X04451Y04302D03*
X04431D03*
X04411D03*
X04392D03*
X04372D03*
X04352D03*
X04332D03*
Y04483D03*
X04352D03*
X04372D03*
X04392D03*
X04431D03*
X04451D03*
X04411D03*
G54D50*
X04392Y04392D03*
G54D51*
X04424Y04653D03*
Y04627D03*
Y04602D03*
X04339D03*
Y04653D03*
Y04627D03*
G54D52*
X02723Y0292D03*
X02786Y03007D03*
Y0292D03*
X02723Y03007D03*
G54D106*
X0116Y04087D03*
Y04225D03*
Y04501D03*
Y04639D03*
Y04776D03*
Y04363D03*
Y0395D03*
Y03812D03*
Y03674D03*
X01185Y0326D03*
X01085D03*
X01185Y0316D03*
Y02735D03*
X01085D03*
X01185Y02635D03*
X01085Y02835D03*
Y02935D03*
X01185Y02835D03*
Y02935D03*
X03725Y02175D03*
X03825D03*
X03725Y02275D03*
X03825D03*
X04025Y02175D03*
X03925Y02275D03*
Y02175D03*
X02645Y0223D03*
X02507D03*
X02232D03*
X02094D03*
X01956D03*
X0237D03*
X02783D03*
X02921D03*
X03059D03*
G54D107*
X0116Y04914D03*
X01085Y0316D03*
Y02635D03*
G54D108*
X0425Y02709D03*
G54D109*
X0415Y02759D03*
X0425Y02809D03*
X0415Y02859D03*
X0425Y02909D03*
X0415Y02959D03*
X0425Y03009D03*
X0415Y03059D03*
G54D110*
X04692Y02624D03*
Y02724D03*
Y03145D03*
Y03045D03*
G54D111*
X045Y0311D03*
Y0266D03*
G54D112*
X04379Y03189D03*
Y0258D03*
G54D113*
X01185Y02403D03*
G54D114*
X01185Y02206D03*
G54D115*
X04025Y02275D03*
X01818Y0223D03*
G54D116*
X04523Y04783D03*
X0423D03*
G54D117*
X04529Y04933D03*
X04224D03*
G54D118*
X04278Y04825D03*
X04475D03*
G54D119*
X04815Y02195D03*
Y0488D03*
G54D120*
X0387Y0464D03*
X0367Y0489D03*
X0387D03*
Y0421D03*
X0367Y0446D03*
X0387D03*
G54D121*
X0367Y0464D03*
Y0421D03*
G54D122*
X04798Y03843D03*
Y04083D03*
G54D123*
X04798Y03743D03*
Y03983D03*
M02*